<svg width="64" height="64" fill="none" xmlns="http://www.w3.org/2000/svg"><mask id="a" maskUnits="userSpaceOnUse" x="0" y="1" width="64" height="63"><path fill-rule="evenodd" clip-rule="evenodd" d="M0 1.255h63.077v62.091H0V1.255z" fill="#fff"/></mask><g mask="url(#a)"><path d="M59.757 33.935c0-3.371-.609-6.6-1.726-9.589-.764 8.806-5.533 13.329-10.516 11.223-4.67-1.974-1.522-9.669-1.29-13.34.392-6.224-.02-13.348-11.504-19.271 4.772 8.986.552 14.568-3.875 14.91-4.91.375-9.405-4.154-7.745-11.507-5.375 3.899-5.532 10.46-3.874 14.706 1.73 4.425-.068 8.101-4.288 8.51-4.712.457-7.332-4.97-4.916-13.616C5.843 20.805 3.32 27.08 3.32 33.935c0 15.341 12.633 27.777 28.218 27.777s28.22-12.436 28.22-27.777z" fill="#F4900C"/></g><path fill-rule="evenodd" clip-rule="evenodd" d="M30.846 17.868c-4.908.377-9.405-4.154-7.745-11.507-5.376 3.899-5.53 10.462-3.872 14.706 1.727 4.425-.07 8.101-4.29 8.51-4.712.457-7.33-4.97-4.916-13.616C5.843 20.805 3.32 27.08 3.32 33.935c0 15.341 12.633 27.777 28.218 27.777s28.22-12.436 28.22-27.777c0-3.371-.61-6.6-1.727-9.589-.764 8.804-5.533 13.329-10.516 11.223-4.667-1.974-1.522-9.669-1.29-13.34.392-6.224-.02-13.348-11.504-19.271 4.772 8.985.552 14.57-3.875 14.91z" fill="#FFA539"/><mask id="b" maskUnits="userSpaceOnUse" x="3" y="2" width="57" height="60"><path fill-rule="evenodd" clip-rule="evenodd" d="M30.846 17.868c-4.908.377-9.405-4.154-7.745-11.507-5.376 3.899-5.53 10.462-3.872 14.706 1.727 4.425-.07 8.101-4.29 8.51-4.712.457-7.33-4.97-4.916-13.616C5.843 20.805 3.32 27.08 3.32 33.935c0 15.341 12.633 27.777 28.218 27.777s28.22-12.436 28.22-27.777c0-3.371-.61-6.6-1.727-9.589-.764 8.804-5.533 13.329-10.516 11.223-4.667-1.974-1.522-9.669-1.29-13.34.392-6.224-.02-13.348-11.504-19.271 4.772 8.985.552 14.57-3.875 14.91z" fill="#fff"/></mask><g mask="url(#b)"><path d="M51.458 51.908c0-3.573-.97-6.921-2.665-9.805.244 5.04-4.252 7.015-6.672 6.06-3.495-1.377-2.558-3.743-3.458-8.645-.9-4.902-4.357-8.307-9.477-9.804 3.735 10.348-2.07 14.162-5.112 14.843-3.108.696-6.23-.001-6.587-6.547-3.623 3.552-5.868 8.467-5.868 13.898 0 10.829 8.92 19.608 19.92 19.608 11 0 19.919-8.78 19.919-19.608z" fill="#FFCC4D"/><path d="M51.458 51.908c0-3.573-.97-6.921-2.665-9.805.244 5.04-4.252 7.015-6.672 6.06-3.495-1.377-2.558-3.743-3.458-8.645-.9-4.902-4.357-8.307-9.477-9.804 3.735 10.348-2.07 14.162-5.112 14.843-3.108.696-6.23-.001-6.587-6.547-3.623 3.552-5.868 8.467-5.868 13.898 0 10.829 8.92 19.608 19.92 19.608 11 0 19.919-8.78 19.919-19.608" stroke="#F79219" stroke-width="1.5"/></g></svg>