<svg width="64" height="64" fill="none" xmlns="http://www.w3.org/2000/svg"><path d="M.26 20.177v10.471c0 1.746.322 3.476.948 5.105l4.843 12.51c.168.466.257.957.262 1.452v5.77l20.701-1.855 1.897-10.815c.402-2.305.605-4.641.605-6.981V10.088a3.023 3.023 0 00-3.026-3.026 2.796 2.796 0 00-1.01.181 2.97 2.97 0 00-1.775 1.675c-.04.121-.08.222-.12.363a2.894 2.894 0 00-.082.444c-.033.118-.047.24-.04.363V6.053a3.023 3.023 0 00-3.026-3.027 2.84 2.84 0 00-1.09.222 2.99 2.99 0 00-1.937 2.805V4.035a3.027 3.027 0 00-6.053 0v4.036a3.027 3.027 0 00-6.053 0v9.866a2.962 2.962 0 00-2.018-.787A3.022 3.022 0 00.26 20.177z" fill="#92B2FF"/><path fill-rule="evenodd" clip-rule="evenodd" d="M13.375 8.07V4.036c0-1.28.81-2.419 2.017-2.842a3 3 0 00-4.035 2.842V5.23a3.013 3.013 0 012.018 2.842zm6.053-4.035V6.04a2.99 2.99 0 011.937-2.792.438.438 0 01.054-.017c.015-.004.031-.008.046-.014a3.009 3.009 0 00-1.028-.19 2.84 2.84 0 00-1.09.221l-.03.016c.07.251.107.51.11.771zm6.053 6.053a1.092 1.092 0 010-.12v.12zm0-.12V7.243a2.796 2.796 0 011.009-.181c.343.003.682.065 1.005.183a2.97 2.97 0 00-1.772 1.673l-.04.116c-.027.077-.054.153-.081.247a2.894 2.894 0 00-.08.444c-.023.08-.037.161-.041.243zM8.33 49.715v5.59l-2.018.18v-5.77a4.405 4.405 0 00-.262-1.452l-4.843-12.51a14.224 14.224 0 01-.948-5.105V20.177a3.022 3.022 0 013.026-3.027c.34.006.675.07.993.19-1.2.428-2 1.563-2.001 2.837v10.471c0 1.746.321 3.476.948 5.105l4.842 12.51c.169.466.258.957.263 1.452zM9.339 5.23A3.013 3.013 0 007.322 8.07v9.866a2.962 2.962 0 00-2.018-.787V8.07A3 3 0 019.34 5.23z" fill="#5485FF"/><path fill-rule="evenodd" clip-rule="evenodd" d="M11.428 4.08v15.132a1.009 1.009 0 002.018 0V2.062a3.48 3.48 0 00-.08-.787 2.99 2.99 0 00-1.938 2.804zm5.982 17.105V6.054a2.99 2.99 0 011.937-2.805c.057.259.084.523.08.787v17.15a1.009 1.009 0 11-2.017 0zm6.053 4.217V10.27c.003-.182.017-.364.04-.545.016-.15.043-.298.081-.444.027-.094.054-.17.08-.246l.041-.117a2.971 2.971 0 011.776-1.675v18.16a1.009 1.009 0 11-2.018 0zM5.301 17.69v-1.654c.788.193 1.495.63 2.018 1.25a3.983 3.983 0 011.009 2.644v8.454l2.098 1.05a10.728 10.728 0 015.972 9.664 1.009 1.009 0 01-2.017 0 8.705 8.705 0 00-4.863-7.849l-2.643-1.332a1.033 1.033 0 01-.565-.908V19.93a1.99 1.99 0 00-.545-1.372l-.02-.02a.543.543 0 00-.161-.142.112.112 0 01-.017-.021c-.006-.011-.011-.019-.024-.019a1.073 1.073 0 01-.242-.666z" fill="#5485FF"/><rect x="5.303" y="53.468" width="24.212" height="10.088" rx="1" fill="#5485FF"/><path d="M7.322 61.539v-6.053c0-1.114.903-2.018 2.017-2.018H7.322a2.018 2.018 0 00-2.018 2.018v6.053c0 1.114.903 2.017 2.018 2.017h2.017a2.018 2.018 0 01-2.017-2.017z" fill="#305BC4"/><path d="M63.556 20.177v10.471c0 1.746-.321 3.476-.948 5.105l-4.842 12.51a4.404 4.404 0 00-.262 1.452v5.77L36.802 53.63l-1.896-10.815a40.608 40.608 0 01-.606-6.981V10.088a3.022 3.022 0 013.027-3.026c.344-.002.686.06 1.009.181.804.279 1.45.888 1.775 1.675.04.121.08.222.121.363.039.146.066.294.08.444.034.118.048.24.041.363V6.053a3.022 3.022 0 013.027-3.027 2.84 2.84 0 011.09.222 2.99 2.99 0 011.936 2.805V4.035a3.026 3.026 0 116.053 0v4.036a3.026 3.026 0 116.053 0v9.866a2.962 2.962 0 012.018-.787 3.022 3.022 0 013.026 3.027z" fill="#92B2FF"/><path fill-rule="evenodd" clip-rule="evenodd" d="M50.442 4.035c-.001-1.28-.81-2.419-2.018-2.842a3 3 0 014.035 2.842V5.23a3.013 3.013 0 00-2.017 2.842V4.035zM44.389 6.04V4.035c.003-.26.04-.52.11-.77l-.03-.017a2.841 2.841 0 00-1.09-.222c-.35.003-.699.068-1.028.191.015.006.031.01.047.014.018.005.036.01.054.017a2.99 2.99 0 011.937 2.792zm-6.053 4.048c.002-.04.002-.08 0-.12v.12zm0-.12V7.243a2.797 2.797 0 00-1.01-.181 3.009 3.009 0 00-1.004.183 2.97 2.97 0 011.771 1.673l.04.117c.028.076.055.152.082.246.038.146.065.294.08.444.023.08.036.161.04.243zm16.141-4.74a3.013 3.013 0 012.018 2.843v9.866a2.962 2.962 0 012.017-.787V8.07a3 3 0 00-4.035-2.841z" fill="#5485FF"/><path fill-rule="evenodd" clip-rule="evenodd" d="M52.388 4.08v15.132a1.009 1.009 0 11-2.018 0V2.062a3.475 3.475 0 01.081-.787 2.99 2.99 0 011.937 2.804zm-5.982 17.105V6.054a2.99 2.99 0 00-1.937-2.805 3.48 3.48 0 00-.08.787v17.15a1.009 1.009 0 002.017 0zm-6.053 4.217V10.27a4.938 4.938 0 00-.04-.545 2.882 2.882 0 00-.08-.444 4.015 4.015 0 00-.081-.246l-.04-.117a2.971 2.971 0 00-1.776-1.675v18.16a1.009 1.009 0 002.017 0zm18.162-7.712v-1.654a3.832 3.832 0 00-2.018 1.25 3.983 3.983 0 00-1.008 2.644v8.454l-2.099 1.05a10.728 10.728 0 00-5.972 9.664 1.009 1.009 0 102.017 0 8.705 8.705 0 014.863-7.849l2.643-1.332c.343-.174.56-.523.565-.908V19.93a1.99 1.99 0 01.545-1.372l.02-.02a.541.541 0 01.162-.142c.007-.007.012-.015.016-.021.007-.011.011-.019.024-.019.154-.188.24-.423.242-.666z" fill="#5485FF"/><rect x="58.512" y="63.556" width="24.212" height="10.088" rx="1" transform="rotate(180 58.512 63.556)" fill="#5485FF"/><path d="M36.318 61.539v-6.053c0-1.114.903-2.018 2.018-2.018h-2.018a2.018 2.018 0 00-2.018 2.018v6.053c0 1.114.904 2.017 2.018 2.017h2.018a2.018 2.018 0 01-2.018-2.017z" fill="#305BC4"/></svg>