<?xml version="1.0" encoding="UTF-8"?>
<svg width="43px" height="47px" viewBox="0 0 43 47" version="1.1" xmlns="http://www.w3.org/2000/svg" xmlns:xlink="http://www.w3.org/1999/xlink">
    <!-- Generator: Sketch 50 (54983) - http://www.bohemiancoding.com/sketch -->
    <title>coins</title>
    <desc>Created with Sketch.</desc>
    <defs></defs>
    <g id="ðŸƒ-Mintr" stroke="none" stroke-width="1" fill="none" fill-rule="evenodd">
        <g id="Home" transform="translate(-510.000000, -399.000000)" stroke="#53B167" stroke-width="2">
            <g id="Group-7" transform="translate(418.000000, 204.308594)">
                <g id="Group-5" transform="translate(0.000000, 194.000000)">
                    <g id="coins" transform="translate(93.869141, 2.000000)">
                        <ellipse id="Oval" stroke-linecap="square" cx="11" cy="5" rx="11" ry="5"></ellipse>
                        <path d="M22,5 L22,12 C22,14.761 17.075,17 11,17 C4.925,17 0,14.761 0,12 L0,5" id="Shape"></path>
                        <path d="M18,22.857 C16.098,23.571 13.659,24 11,24 C4.925,24 0,21.761 0,19 L0,12" id="Shape"></path>
                        <path d="M17.999,29.857 C16.098,30.571 13.659,31 11,31 C4.925,31 0,28.761 0,26 L0,19" id="Shape"></path>
                        <path d="M18,36.857 C16.098,37.571 13.659,38 11,38 C4.925,38 0,35.761 0,33 L0,26" id="Shape"></path>
                        <ellipse id="Oval" stroke-linecap="square" cx="29" cy="18" rx="11" ry="5"></ellipse>
                        <path d="M40,18 L40,25 C40,27.761 35.075,30 29,30 C22.925,30 18,27.761 18,25 L18,18" id="Shape"></path>
                        <path d="M40,25 L40,32 C40,34.761 35.075,37 29,37 C22.925,37 18,34.761 18,32 L18,25" id="Shape"></path>
                        <path d="M40,32 L40,39 C40,41.761 35.075,44 29,44 C22.925,44 18,41.761 18,39 L18,32" id="Shape"></path>
                    </g>
                </g>
            </g>
        </g>
    </g>
</svg>