<svg width="758" height="189" fill="none" xmlns="http://www.w3.org/2000/svg"><rect x="522" y="47" width="236" height="120" rx="5" fill="#1E1A31"/><path fill-rule="evenodd" clip-rule="evenodd" d="M584.847 124.98v-1.064h1.218v-2.114l1.176-.742v2.856h1.848v1.064h-1.848v3.878c0 .373.082.66.245.861.163.2.394.301.693.301.308 0 .574-.075.798-.224l.28 1.022c-.308.177-.691.266-1.148.266-.625 0-1.122-.196-1.491-.588-.369-.392-.553-.971-.553-1.736v-3.78h-1.218zm-35.42-2.632v-1.176h6.888v1.176h-2.828v8.624h-1.232v-8.624h-2.828zm9.086 6.594c0 .336.1.599.301.791.201.191.488.287.861.287.532 0 .994-.175 1.386-.525.392-.35.588-.894.588-1.631v-.168h-1.26c-.597 0-1.059.107-1.386.322-.327.214-.49.522-.49.924zm4.312 2.03v-4.508c0-.896-.247-1.564-.742-2.002-.495-.439-1.153-.658-1.974-.658-.663 0-1.223.172-1.68.518-.457.345-.733.816-.826 1.414l1.036.238c.075-.346.245-.616.511-.812.266-.196.586-.294.959-.294 1.027 0 1.54.485 1.54 1.456v.308h-1.148c-.989 0-1.769.198-2.338.595-.569.396-.854.968-.854 1.715 0 .718.205 1.255.616 1.61.411.354.933.532 1.568.532.961 0 1.699-.369 2.212-1.106l.196.994h.924zm6.454-6.958l-.238 1.05a1.819 1.819 0 00-.826-.196c-.532 0-.994.301-1.386.903-.392.602-.588 1.444-.588 2.527v2.674h-1.176v-7.056h1.176v1.204c.205-.392.504-.71.896-.952.392-.243.784-.364 1.176-.364.383 0 .705.07.966.21zm2.24.455c-.467.434-.7 1.005-.7 1.715 0 .606.173 1.12.518 1.54-.569.289-.854.723-.854 1.302 0 .476.159.849.476 1.12-.439.373-.658.863-.658 1.47 0 .728.273 1.297.819 1.708.546.41 1.272.616 2.177.616.868 0 1.582-.201 2.142-.602.56-.402.84-1.013.84-1.834 0-.626-.201-1.106-.602-1.442-.401-.336-.938-.504-1.61-.504h-1.666c-.532 0-.798-.196-.798-.588 0-.308.154-.537.462-.686.345.168.751.252 1.218.252.709 0 1.297-.213 1.764-.637.467-.425.7-.997.7-1.715 0-.486-.117-.91-.35-1.274l.952-.532-.532-.966-1.26.714a2.697 2.697 0 00-1.274-.308c-.709 0-1.297.217-1.764.651zm2.366 6.097h-1.428c-.14 0-.313-.01-.518-.028-.308.242-.462.588-.462 1.036 0 .401.156.723.469.966.313.242.763.364 1.351.364s1.031-.119 1.33-.357c.299-.238.448-.549.448-.931 0-.7-.397-1.05-1.19-1.05zm-1.918-4.382c0-.42.126-.752.378-.994.252-.243.565-.364.938-.364s.686.121.938.364c.252.242.378.574.378.994 0 .42-.126.749-.378.987a1.314 1.314 0 01-.938.357c-.373 0-.686-.119-.938-.357-.252-.238-.378-.567-.378-.987zm11.83.966v.546h-5.18c.037.69.226 1.25.567 1.68.341.429.814.644 1.421.644.495 0 .894-.11 1.197-.329.303-.22.558-.558.763-1.015l1.036.448c-.327.69-.726 1.19-1.197 1.498-.471.308-1.071.462-1.799.462-1.017 0-1.804-.353-2.359-1.057-.555-.705-.833-1.566-.833-2.583 0-1.018.278-1.879.833-2.583.555-.705 1.342-1.057 2.359-1.057.999 0 1.78.324 2.345.973.565.648.847 1.439.847 2.373zm-4.459-1.806c.322-.318.744-.476 1.267-.476.541 0 .975.161 1.302.483.327.322.546.749.658 1.281h-3.878c.112-.542.329-.971.651-1.288zm21.119 3.794l-1.022-.42c-.373.868-1.017 1.302-1.932 1.302-.653 0-1.15-.241-1.491-.721-.341-.481-.511-1.099-.511-1.855s.17-1.375.511-1.855c.341-.481.838-.721 1.491-.721.915 0 1.559.434 1.932 1.302l1.022-.42c-.569-1.298-1.554-1.946-2.954-1.946-1.027 0-1.818.352-2.373 1.057-.555.704-.833 1.565-.833 2.583 0 1.017.278 1.878.833 2.583.555.704 1.346 1.057 2.373 1.057 1.4 0 2.385-.649 2.954-1.946zm2.296.882c-.616-.719-.924-1.578-.924-2.576 0-.999.31-1.855.931-2.569s1.44-1.071 2.457-1.071 1.836.357 2.457 1.071c.621.714.931 1.57.931 2.569 0 .998-.31 1.855-.931 2.569s-1.44 1.071-2.457 1.071-1.839-.355-2.464-1.064zm.28-2.576c0-.7.191-1.302.574-1.806.392-.514.929-.77 1.61-.77s1.216.254 1.603.763c.387.508.581 1.113.581 1.813s-.194 1.304-.581 1.813c-.387.508-.922.763-1.603.763-.681 0-1.216-.255-1.603-.763-.387-.509-.581-1.113-.581-1.813zm7.588-6.384h1.176v9.912h-1.176v-9.912zm4.788 0h-1.176v9.912h1.176v-9.912zm3.164 7.882c0 .336.1.599.301.791.201.191.488.287.861.287.532 0 .994-.175 1.386-.525.392-.35.588-.894.588-1.631v-.168h-1.26c-.597 0-1.059.107-1.386.322-.327.214-.49.522-.49.924zm4.312 2.03v-4.508c0-.896-.247-1.564-.742-2.002-.495-.439-1.153-.658-1.974-.658-.663 0-1.223.172-1.68.518-.457.345-.733.816-.826 1.414l1.036.238c.075-.346.245-.616.511-.812.266-.196.586-.294.959-.294 1.027 0 1.54.485 1.54 1.456v.308h-1.148c-.989 0-1.769.198-2.338.595-.569.396-.854.968-.854 1.715 0 .718.205 1.255.616 1.61.411.354.933.532 1.568.532.961 0 1.699-.369 2.212-1.106l.196.994h.924zm1.302-5.992v-1.064h1.218v-2.114l1.176-.742v2.856h1.848v1.064h-1.848v3.878c0 .373.082.66.245.861.163.2.394.301.693.301.308 0 .574-.075.798-.224l.28 1.022c-.308.177-.691.266-1.148.266-.625 0-1.122-.196-1.491-.588-.369-.392-.553-.971-.553-1.736v-3.78h-1.218zm12.082 2.716v-.546c0-.934-.282-1.725-.847-2.373-.565-.649-1.346-.973-2.345-.973-1.017 0-1.804.352-2.359 1.057-.555.704-.833 1.565-.833 2.583 0 1.017.278 1.878.833 2.583.555.704 1.342 1.057 2.359 1.057.728 0 1.328-.154 1.799-.462.471-.308.87-.808 1.197-1.498l-1.036-.448c-.205.457-.46.795-.763 1.015-.303.219-.702.329-1.197.329-.607 0-1.08-.215-1.421-.644-.341-.43-.53-.99-.567-1.68h5.18zm-3.192-2.828c-.523 0-.945.158-1.267.476-.322.317-.539.746-.651 1.288h3.878c-.112-.532-.331-.959-.658-1.281-.327-.322-.761-.483-1.302-.483zm9.156.196l.238-1.05c-.261-.14-.583-.21-.966-.21-.392 0-.784.121-1.176.364-.392.242-.691.56-.896.952v-1.204h-1.176v7.056h1.176v-2.674c0-1.083.196-1.925.588-2.527.392-.602.854-.903 1.386-.903.289 0 .565.065.826.196zm2.506 3.878c0 .336.1.599.301.791.201.191.488.287.861.287.532 0 .994-.175 1.386-.525.392-.35.588-.894.588-1.631v-.168h-1.26c-.597 0-1.059.107-1.386.322-.327.214-.49.522-.49.924zm4.312 2.03v-4.508c0-.896-.247-1.564-.742-2.002-.495-.439-1.153-.658-1.974-.658-.663 0-1.223.172-1.68.518-.457.345-.733.816-.826 1.414l1.036.238c.075-.346.245-.616.511-.812.266-.196.586-.294.959-.294 1.027 0 1.54.485 1.54 1.456v.308h-1.148c-.989 0-1.769.198-2.338.595-.569.396-.854.968-.854 1.715 0 .718.205 1.255.616 1.61.411.354.933.532 1.568.532.961 0 1.699-.369 2.212-1.106l.196.994h.924zm2.212-9.912h1.176v9.912h-1.176v-9.912zm3.654 2.856v7.056h1.176v-7.056h-1.176zm-.294-1.96c0-.252.084-.465.252-.637a.842.842 0 01.63-.259c.252 0 .462.086.63.259a.877.877 0 01.252.637.839.839 0 01-.252.616.855.855 0 01-.63.252.855.855 0 01-.63-.252.839.839 0 01-.252-.616zm3.654 1.96v1.064h3.15l-3.332 5.488v.504h5.04v-1.064h-3.472l3.346-5.488v-.504h-4.732zm7.49 5.026c0 .336.1.599.301.791.201.191.488.287.861.287.532 0 .994-.175 1.386-.525.392-.35.588-.894.588-1.631v-.168h-1.26c-.597 0-1.059.107-1.386.322-.327.214-.49.522-.49.924zm4.312 2.03v-4.508c0-.896-.247-1.564-.742-2.002-.495-.439-1.153-.658-1.974-.658-.663 0-1.223.172-1.68.518-.457.345-.733.816-.826 1.414l1.036.238c.075-.346.245-.616.511-.812.266-.196.586-.294.959-.294 1.027 0 1.54.485 1.54 1.456v.308h-1.148c-.989 0-1.769.198-2.338.595-.569.396-.854.968-.854 1.715 0 .718.205 1.255.616 1.61.411.354.933.532 1.568.532.961 0 1.699-.369 2.212-1.106l.196.994h.924zm1.302-5.992v-1.064h1.218v-2.114l1.176-.742v2.856h1.848v1.064h-1.848v3.878c0 .373.082.66.245.861.163.2.394.301.693.301.308 0 .574-.075.798-.224l.28 1.022c-.308.177-.691.266-1.148.266-.625 0-1.122-.196-1.491-.588-.369-.392-.553-.971-.553-1.736v-3.78h-1.218zm6.244-1.064v7.056h1.176v-7.056h-1.176zm-.294-1.96c0-.252.084-.465.252-.637a.842.842 0 01.63-.259c.252 0 .462.086.63.259a.877.877 0 01.252.637.839.839 0 01-.252.616.855.855 0 01-.63.252.855.855 0 01-.63-.252.839.839 0 01-.252-.616zm3.528 5.488c0 .998.308 1.857.924 2.576.625.709 1.447 1.064 2.464 1.064s1.836-.357 2.457-1.071c.621-.714.931-1.571.931-2.569 0-.999-.31-1.855-.931-2.569s-1.44-1.071-2.457-1.071-1.836.357-2.457 1.071c-.621.714-.931 1.57-.931 2.569zm1.778-1.806c-.383.504-.574 1.106-.574 1.806s.194 1.304.581 1.813c.387.508.922.763 1.603.763.681 0 1.216-.255 1.603-.763.387-.509.581-1.113.581-1.813s-.194-1.305-.581-1.813c-.387-.509-.922-.763-1.603-.763-.681 0-1.218.256-1.61.77zm12.628 5.334v-4.97c0-.7-.184-1.242-.553-1.624-.369-.383-.875-.574-1.519-.574-1.027 0-1.806.471-2.338 1.414v-1.302h-1.176v7.056h1.176v-2.954c0-.943.198-1.704.595-2.282.397-.579.87-.868 1.421-.868.812 0 1.218.48 1.218 1.442v4.662h1.176zm10.458-6.958l-.238 1.05a1.819 1.819 0 00-.826-.196c-.532 0-.994.301-1.386.903-.392.602-.588 1.444-.588 2.527v2.674h-1.176v-7.056h1.176v1.204c.205-.392.504-.71.896-.952.392-.243.784-.364 1.176-.364.383 0 .705.07.966.21zm2.569 5.719c-.201-.192-.301-.455-.301-.791 0-.402.163-.71.49-.924.327-.215.789-.322 1.386-.322h1.26v.168c0 .737-.196 1.281-.588 1.631-.392.35-.854.525-1.386.525-.373 0-.66-.096-.861-.287zm4.011-3.269v4.508h-.924l-.196-.994c-.513.737-1.251 1.106-2.212 1.106-.635 0-1.157-.178-1.568-.532-.411-.355-.616-.892-.616-1.61 0-.747.285-1.319.854-1.715.569-.397 1.349-.595 2.338-.595h1.148v-.308c0-.971-.513-1.456-1.54-1.456-.373 0-.693.098-.959.294a1.315 1.315 0 00-.511.812l-1.036-.238c.093-.598.369-1.069.826-1.414.457-.346 1.017-.518 1.68-.518.821 0 1.479.219 1.974.658.495.438.742 1.106.742 2.002zm1.302-2.548v1.064h1.218v3.78c0 .765.184 1.344.553 1.736.369.392.866.588 1.491.588.457 0 .84-.089 1.148-.266l-.28-1.022c-.224.149-.49.224-.798.224-.299 0-.53-.101-.693-.301-.163-.201-.245-.488-.245-.861v-3.878h1.848v-1.064h-1.848v-2.856l-1.176.742v2.114h-1.218zm6.244 0h1.176v7.056h-1.176v-7.056zm-.042-2.597a.877.877 0 00-.252.637c0 .242.084.448.252.616a.855.855 0 00.63.252.855.855 0 00.63-.252.839.839 0 00.252-.616.877.877 0 00-.252-.637.842.842 0 00-.63-.259.842.842 0 00-.63.259zm4.2 8.701c-.616-.719-.924-1.578-.924-2.576 0-.999.31-1.855.931-2.569s1.44-1.071 2.457-1.071 1.836.357 2.457 1.071c.621.714.931 1.57.931 2.569 0 .998-.31 1.855-.931 2.569s-1.44 1.071-2.457 1.071-1.839-.355-2.464-1.064zm.28-2.576c0-.7.191-1.302.574-1.806.392-.514.929-.77 1.61-.77s1.216.254 1.603.763c.387.508.581 1.113.581 1.813s-.194 1.304-.581 1.813c-.387.508-.922.763-1.603.763-.681 0-1.216-.255-1.603-.763-.387-.509-.581-1.113-.581-1.813z" fill="#CACAF1"/><path fill-rule="evenodd" clip-rule="evenodd" d="M676.072 76.516l-17.248 23.04 1.856 1.44 17.248-23.04-1.856-1.44zm-38.44 3.84c-1.387 2.026-2.08 4.832-2.08 8.416 0 3.584.693 6.389 2.08 8.416 1.387 2.026 3.381 3.04 5.984 3.04s4.597-1.014 5.984-3.04c1.387-2.027 2.08-4.832 2.08-8.416 0-3.584-.693-6.39-2.08-8.416-1.387-2.027-3.381-3.04-5.984-3.04s-4.597 1.013-5.984 3.04zm-37.744-2.784h13.248v1.536l-8.576 20.864h-3.392l7.968-19.328h-9.248v-3.072zm16.968 16.544l3.296-.608c.363 2.432 1.589 3.648 3.68 3.648 1.195 0 2.117-.4 2.768-1.2.651-.8.976-1.894.976-3.28 0-1.387-.325-2.48-.976-3.28-.651-.8-1.573-1.2-2.768-1.2-1.707 0-3.136.768-4.288 2.304l-2.208-.448 1.248-12.48h11.136v3.072h-8.288l-.672 5.6c.917-.747 2.005-1.12 3.264-1.12 2.197 0 3.904.704 5.12 2.112 1.216 1.365 1.824 3.178 1.824 5.44 0 2.24-.651 4.053-1.952 5.44-1.28 1.408-3.008 2.112-5.184 2.112-1.92 0-3.509-.544-4.768-1.632-1.259-1.088-1.995-2.582-2.208-4.48zm30.248-11.552c-.768-1.451-1.931-2.176-3.488-2.176-1.536 0-2.709.725-3.52 2.176-.768 1.45-1.152 3.52-1.152 6.208s.384 4.757 1.152 6.208c.811 1.45 1.984 2.176 3.52 2.176 1.557 0 2.72-.726 3.488-2.176.789-1.43 1.184-3.499 1.184-6.208 0-2.71-.395-4.779-1.184-6.208zm9.384-.128c0 1.429.501 2.645 1.504 3.648.981.981 2.208 1.472 3.68 1.472s2.699-.491 3.68-1.472c1.003-1.003 1.504-2.219 1.504-3.648 0-1.408-.501-2.614-1.504-3.616-1.003-1.003-2.229-1.504-3.68-1.504s-2.677.501-3.68 1.504c-1.003 1.002-1.504 2.208-1.504 3.616zm3.456-1.76c-.427.448-.64 1.034-.64 1.76 0 .725.213 1.322.64 1.792.405.448.981.672 1.728.672s1.323-.224 1.728-.672c.427-.47.64-1.067.64-1.792 0-.726-.213-1.312-.64-1.76-.405-.47-.981-.704-1.728-.704s-1.323.234-1.728.704zm9.536 14.432c0 1.429.501 2.645 1.504 3.648.981.981 2.208 1.472 3.68 1.472s2.699-.491 3.68-1.472c1.003-1.003 1.504-2.219 1.504-3.648 0-1.408-.501-2.614-1.504-3.616-1.003-1.003-2.229-1.504-3.68-1.504s-2.677.501-3.68 1.504c-1.003 1.002-1.504 2.208-1.504 3.616zm3.456-1.76c-.427.448-.64 1.034-.64 1.76 0 .725.213 1.322.64 1.792.405.448.981.672 1.728.672s1.323-.224 1.728-.672c.427-.47.64-1.067.64-1.792 0-.726-.213-1.312-.64-1.76-.405-.47-.981-.704-1.728-.704s-1.323.234-1.728.704z" fill="#fff"/><rect x="248" y="26" width="236" height="120" rx="5" fill="#1E1A31"/><path fill-rule="evenodd" clip-rule="evenodd" d="M278.185 106.794l1.19.35c-.224.887-.672 1.603-1.344 2.149s-1.503.819-2.492.819c-1.223 0-2.266-.439-3.129-1.316s-1.295-2.109-1.295-3.696c0-1.587.432-2.819 1.295-3.696.863-.877 1.906-1.316 3.129-1.316.989 0 1.82.273 2.492.819.672.546 1.12 1.262 1.344 2.149l-1.19.35c-.467-1.428-1.349-2.142-2.646-2.142-.933 0-1.692.331-2.275.994s-.875 1.61-.875 2.842.292 2.179.875 2.842c.583.663 1.342.994 2.275.994 1.297 0 2.179-.714 2.646-2.142zm2.996 1.12v-4.97h1.176v4.662c0 .961.406 1.442 1.218 1.442.551 0 1.024-.289 1.421-.868s.595-1.339.595-2.282v-2.954h1.176V110h-1.176v-1.302c-.532.943-1.311 1.414-2.338 1.414-.644 0-1.15-.191-1.519-.574-.369-.383-.553-.924-.553-1.624zm12.138-3.822l.238-1.05c-.261-.14-.583-.21-.966-.21-.392 0-.784.121-1.176.364-.392.243-.691.56-.896.952v-1.204h-1.176V110h1.176v-2.674c0-1.083.196-1.925.588-2.527.392-.602.854-.903 1.386-.903.289 0 .565.065.826.196zm6.02-1.05l-.238 1.05a1.819 1.819 0 00-.826-.196c-.532 0-.994.301-1.386.903-.392.602-.588 1.444-.588 2.527V110h-1.176v-7.056h1.176v1.204c.205-.392.504-.709.896-.952s.784-.364 1.176-.364c.383 0 .705.07.966.21zm7.42 3.682v-.546c0-.933-.282-1.724-.847-2.373-.565-.649-1.346-.973-2.345-.973-1.017 0-1.804.352-2.359 1.057-.555.705-.833 1.566-.833 2.583 0 1.017.278 1.878.833 2.583.555.705 1.342 1.057 2.359 1.057.728 0 1.328-.154 1.799-.462.471-.308.87-.807 1.197-1.498l-1.036-.448c-.205.457-.46.796-.763 1.015-.303.219-.702.329-1.197.329-.607 0-1.08-.215-1.421-.644-.341-.429-.53-.989-.567-1.68h5.18zm-3.192-2.828c-.523 0-.945.159-1.267.476-.322.317-.539.747-.651 1.288h3.878c-.112-.532-.331-.959-.658-1.281-.327-.322-.761-.483-1.302-.483zM314.333 110v-4.97c0-.7-.184-1.241-.553-1.624-.369-.383-.875-.574-1.519-.574-1.027 0-1.806.471-2.338 1.414v-1.302h-1.176V110h1.176v-2.954c0-.943.198-1.703.595-2.282.397-.579.87-.868 1.421-.868.812 0 1.218.481 1.218 1.442V110h1.176zm1.554-5.992v-1.064h1.218v-2.114l1.176-.742v2.856h1.848v1.064h-1.848v3.878c0 .373.082.66.245.861.163.201.394.301.693.301.308 0 .574-.075.798-.224l.28 1.022c-.308.177-.691.266-1.148.266-.625 0-1.122-.196-1.491-.588-.369-.392-.553-.971-.553-1.736v-3.78h-1.218zm15.61 4.158l-1.022-.42c-.373.868-1.017 1.302-1.932 1.302-.653 0-1.15-.24-1.491-.721-.341-.481-.511-1.099-.511-1.855s.17-1.374.511-1.855c.341-.481.838-.721 1.491-.721.915 0 1.559.434 1.932 1.302l1.022-.42c-.569-1.297-1.554-1.946-2.954-1.946-1.027 0-1.818.352-2.373 1.057-.555.705-.833 1.566-.833 2.583 0 1.017.278 1.878.833 2.583.555.705 1.346 1.057 2.373 1.057 1.4 0 2.385-.649 2.954-1.946zm2.296.882c-.616-.719-.924-1.577-.924-2.576 0-.999.31-1.855.931-2.569s1.44-1.071 2.457-1.071 1.836.357 2.457 1.071c.621.714.931 1.57.931 2.569 0 .999-.31 1.855-.931 2.569s-1.44 1.071-2.457 1.071-1.839-.355-2.464-1.064zm.28-2.576c0-.7.191-1.302.574-1.806.392-.513.929-.77 1.61-.77s1.216.254 1.603.763.581 1.113.581 1.813-.194 1.304-.581 1.813c-.387.509-.922.763-1.603.763-.681 0-1.216-.254-1.603-.763s-.581-1.113-.581-1.813zm7.588-6.384h1.176V110h-1.176v-9.912zm4.788 0h-1.176V110h1.176v-9.912zm3.164 7.882c0 .336.1.6.301.791.201.191.488.287.861.287.532 0 .994-.175 1.386-.525.392-.35.588-.894.588-1.631v-.168h-1.26c-.597 0-1.059.107-1.386.322-.327.215-.49.523-.49.924zm4.312 2.03v-4.508c0-.896-.247-1.563-.742-2.002-.495-.439-1.153-.658-1.974-.658-.663 0-1.223.173-1.68.518-.457.345-.733.817-.826 1.414l1.036.238c.075-.345.245-.616.511-.812.266-.196.586-.294.959-.294 1.027 0 1.54.485 1.54 1.456v.308h-1.148c-.989 0-1.769.198-2.338.595-.569.397-.854.968-.854 1.715 0 .719.205 1.255.616 1.61.411.355.933.532 1.568.532.961 0 1.699-.369 2.212-1.106l.196.994h.924zm1.302-5.992v-1.064h1.218v-2.114l1.176-.742v2.856h1.848v1.064h-1.848v3.878c0 .373.082.66.245.861.163.201.394.301.693.301.308 0 .574-.075.798-.224l.28 1.022c-.308.177-.691.266-1.148.266-.625 0-1.122-.196-1.491-.588-.369-.392-.553-.971-.553-1.736v-3.78h-1.218zm12.082 2.716v-.546c0-.933-.282-1.724-.847-2.373-.565-.649-1.346-.973-2.345-.973-1.017 0-1.804.352-2.359 1.057-.555.705-.833 1.566-.833 2.583 0 1.017.278 1.878.833 2.583.555.705 1.342 1.057 2.359 1.057.728 0 1.328-.154 1.799-.462.471-.308.87-.807 1.197-1.498l-1.036-.448c-.205.457-.46.796-.763 1.015-.303.219-.702.329-1.197.329-.607 0-1.08-.215-1.421-.644-.341-.429-.53-.989-.567-1.68h5.18zm-3.192-2.828c-.523 0-.945.159-1.267.476-.322.317-.539.747-.651 1.288h3.878c-.112-.532-.331-.959-.658-1.281-.327-.322-.761-.483-1.302-.483zm9.156.196l.238-1.05c-.261-.14-.583-.21-.966-.21-.392 0-.784.121-1.176.364-.392.243-.691.56-.896.952v-1.204h-1.176V110h1.176v-2.674c0-1.083.196-1.925.588-2.527.392-.602.854-.903 1.386-.903.289 0 .565.065.826.196zm2.506 3.878c0 .336.1.6.301.791.201.191.488.287.861.287.532 0 .994-.175 1.386-.525.392-.35.588-.894.588-1.631v-.168h-1.26c-.597 0-1.059.107-1.386.322-.327.215-.49.523-.49.924zm4.312 2.03v-4.508c0-.896-.247-1.563-.742-2.002-.495-.439-1.153-.658-1.974-.658-.663 0-1.223.173-1.68.518-.457.345-.733.817-.826 1.414l1.036.238c.075-.345.245-.616.511-.812.266-.196.586-.294.959-.294 1.027 0 1.54.485 1.54 1.456v.308h-1.148c-.989 0-1.769.198-2.338.595-.569.397-.854.968-.854 1.715 0 .719.205 1.255.616 1.61.411.355.933.532 1.568.532.961 0 1.699-.369 2.212-1.106l.196.994h.924zm2.212-9.912h1.176V110h-1.176v-9.912zm4.83 2.856h-1.176V110h1.176v-7.056zm-1.47-1.96c0-.252.084-.464.252-.637a.842.842 0 01.63-.259c.252 0 .462.086.63.259a.879.879 0 01.252.637.837.837 0 01-.252.616.855.855 0 01-.63.252.855.855 0 01-.63-.252.837.837 0 01-.252-.616zm3.654 1.96v1.064h3.15l-3.332 5.488V110h5.04v-1.064h-3.472l3.346-5.488v-.504h-4.732zm7.49 5.026c0 .336.1.6.301.791.201.191.488.287.861.287.532 0 .994-.175 1.386-.525.392-.35.588-.894.588-1.631v-.168h-1.26c-.597 0-1.059.107-1.386.322-.327.215-.49.523-.49.924zm4.312 2.03v-4.508c0-.896-.247-1.563-.742-2.002-.495-.439-1.153-.658-1.974-.658-.663 0-1.223.173-1.68.518-.457.345-.733.817-.826 1.414l1.036.238c.075-.345.245-.616.511-.812.266-.196.586-.294.959-.294 1.027 0 1.54.485 1.54 1.456v.308h-1.148c-.989 0-1.769.198-2.338.595-.569.397-.854.968-.854 1.715 0 .719.205 1.255.616 1.61.411.355.933.532 1.568.532.961 0 1.699-.369 2.212-1.106l.196.994h.924zm1.302-5.992v-1.064h1.218v-2.114l1.176-.742v2.856h1.848v1.064h-1.848v3.878c0 .373.082.66.245.861.163.201.394.301.693.301.308 0 .574-.075.798-.224l.28 1.022c-.308.177-.691.266-1.148.266-.625 0-1.122-.196-1.491-.588-.369-.392-.553-.971-.553-1.736v-3.78h-1.218zm6.244-1.064V110h1.176v-7.056h-1.176zm-.294-1.96c0-.252.084-.464.252-.637a.842.842 0 01.63-.259c.252 0 .462.086.63.259a.879.879 0 01.252.637.837.837 0 01-.252.616.855.855 0 01-.63.252.855.855 0 01-.63-.252.837.837 0 01-.252-.616zm3.528 5.488c0 .999.308 1.857.924 2.576.625.709 1.447 1.064 2.464 1.064s1.836-.357 2.457-1.071c.621-.714.931-1.57.931-2.569 0-.999-.31-1.855-.931-2.569s-1.44-1.071-2.457-1.071-1.836.357-2.457 1.071c-.621.714-.931 1.57-.931 2.569zm1.778-1.806c-.383.504-.574 1.106-.574 1.806s.194 1.304.581 1.813c.387.509.922.763 1.603.763.681 0 1.216-.254 1.603-.763s.581-1.113.581-1.813-.194-1.304-.581-1.813c-.387-.509-.922-.763-1.603-.763-.681 0-1.218.257-1.61.77zM426.305 110v-4.97c0-.7-.184-1.241-.553-1.624-.369-.383-.875-.574-1.519-.574-1.027 0-1.806.471-2.338 1.414v-1.302h-1.176V110h1.176v-2.954c0-.943.198-1.703.595-2.282.397-.579.87-.868 1.421-.868.812 0 1.218.481 1.218 1.442V110h1.176zm10.458-6.958l-.238 1.05a1.819 1.819 0 00-.826-.196c-.532 0-.994.301-1.386.903-.392.602-.588 1.444-.588 2.527V110h-1.176v-7.056h1.176v1.204c.205-.392.504-.709.896-.952s.784-.364 1.176-.364c.383 0 .705.07.966.21zm2.569 5.719c-.201-.191-.301-.455-.301-.791 0-.401.163-.709.49-.924.327-.215.789-.322 1.386-.322h1.26v.168c0 .737-.196 1.281-.588 1.631-.392.35-.854.525-1.386.525-.373 0-.66-.096-.861-.287zm4.011-3.269V110h-.924l-.196-.994c-.513.737-1.251 1.106-2.212 1.106-.635 0-1.157-.177-1.568-.532-.411-.355-.616-.891-.616-1.61 0-.747.285-1.318.854-1.715s1.349-.595 2.338-.595h1.148v-.308c0-.971-.513-1.456-1.54-1.456-.373 0-.693.098-.959.294a1.318 1.318 0 00-.511.812l-1.036-.238c.093-.597.369-1.069.826-1.414.457-.345 1.017-.518 1.68-.518.821 0 1.479.219 1.974.658.495.439.742 1.106.742 2.002zm1.302-2.548v1.064h1.218v3.78c0 .765.184 1.344.553 1.736.369.392.866.588 1.491.588.457 0 .84-.089 1.148-.266l-.28-1.022c-.224.149-.49.224-.798.224-.299 0-.53-.1-.693-.301-.163-.201-.245-.488-.245-.861v-3.878h1.848v-1.064h-1.848v-2.856l-1.176.742v2.114h-1.218zm6.244 7.056v-7.056h1.176V110h-1.176zm-.042-9.653a.879.879 0 00-.252.637c0 .243.084.448.252.616a.855.855 0 00.63.252.855.855 0 00.63-.252.837.837 0 00.252-.616.879.879 0 00-.252-.637.842.842 0 00-.63-.259.842.842 0 00-.63.259zm4.2 8.701c-.616-.719-.924-1.577-.924-2.576 0-.999.31-1.855.931-2.569s1.44-1.071 2.457-1.071 1.836.357 2.457 1.071c.621.714.931 1.57.931 2.569 0 .999-.31 1.855-.931 2.569s-1.44 1.071-2.457 1.071-1.839-.355-2.464-1.064zm.28-2.576c0-.7.191-1.302.574-1.806.392-.513.929-.77 1.61-.77s1.216.254 1.603.763.581 1.113.581 1.813-.194 1.304-.581 1.813c-.387.509-.922.763-1.603.763-.681 0-1.216-.254-1.603-.763s-.581-1.113-.581-1.813z" fill="#CACAF1"/><path fill-rule="evenodd" clip-rule="evenodd" d="M403.436 55.544l-17.248 23.04 1.856 1.44 17.248-23.04-1.856-1.44zm-65.688 11.168c-1.301-1.365-2.976-2.048-5.024-2.048-.341 0-.587.043-.736.128l4.896-8.448h-3.776l-6.656 11.552a8.007 8.007 0 00-1.088 4.064c0 2.07.672 3.808 2.016 5.216 1.387 1.387 3.104 2.08 5.152 2.08 2.069 0 3.776-.693 5.12-2.08 1.365-1.387 2.048-3.125 2.048-5.216 0-2.133-.651-3.883-1.952-5.248zM329.812 75c-.704-.79-1.056-1.803-1.056-3.04 0-1.28.341-2.304 1.024-3.072.683-.768 1.6-1.152 2.752-1.152 1.152 0 2.069.384 2.752 1.152.683.768 1.024 1.792 1.024 3.072 0 1.237-.352 2.25-1.056 3.04-.704.79-1.611 1.184-2.72 1.184-1.109 0-2.016-.395-2.72-1.184zm14.408-1.856l3.296-.608c.363 2.432 1.589 3.648 3.68 3.648 1.195 0 2.117-.4 2.768-1.2.651-.8.976-1.893.976-3.28 0-1.387-.325-2.48-.976-3.28-.651-.8-1.573-1.2-2.768-1.2-1.707 0-3.136.768-4.288 2.304l-2.208-.448 1.248-12.48h11.136v3.072h-8.288l-.672 5.6c.917-.747 2.005-1.12 3.264-1.12 2.197 0 3.904.704 5.12 2.112 1.216 1.365 1.824 3.179 1.824 5.44 0 2.24-.651 4.053-1.952 5.44-1.28 1.408-3.008 2.112-5.184 2.112-1.92 0-3.509-.544-4.768-1.632-1.259-1.088-1.995-2.581-2.208-4.48zm20.776-13.76c-1.387 2.027-2.08 4.832-2.08 8.416 0 3.584.693 6.39 2.08 8.416 1.387 2.027 3.381 3.04 5.984 3.04s4.597-1.013 5.984-3.04c1.387-2.027 2.08-4.832 2.08-8.416 0-3.584-.693-6.39-2.08-8.416-1.387-2.027-3.381-3.04-5.984-3.04s-4.597 1.013-5.984 3.04zm9.472 2.208c-.768-1.45-1.931-2.176-3.488-2.176-1.536 0-2.709.725-3.52 2.176-.768 1.45-1.152 3.52-1.152 6.208s.384 4.757 1.152 6.208c.811 1.45 1.984 2.176 3.52 2.176 1.557 0 2.72-.725 3.488-2.176.789-1.43 1.184-3.499 1.184-6.208 0-2.71-.395-4.779-1.184-6.208zm9.384-.128c0 1.43.501 2.645 1.504 3.648.981.981 2.208 1.472 3.68 1.472s2.699-.49 3.68-1.472c1.003-1.003 1.504-2.219 1.504-3.648 0-1.408-.501-2.613-1.504-3.616-1.003-1.003-2.229-1.504-3.68-1.504s-2.677.501-3.68 1.504c-1.003 1.003-1.504 2.208-1.504 3.616zm3.456-1.76c-.427.448-.64 1.035-.64 1.76 0 .725.213 1.323.64 1.792.405.448.981.672 1.728.672s1.323-.224 1.728-.672c.427-.47.64-1.067.64-1.792 0-.725-.213-1.312-.64-1.76-.405-.47-.981-.704-1.728-.704s-1.323.235-1.728.704zm9.536 14.432c0 1.43.501 2.645 1.504 3.648.981.981 2.208 1.472 3.68 1.472s2.699-.49 3.68-1.472c1.003-1.003 1.504-2.219 1.504-3.648 0-1.408-.501-2.613-1.504-3.616-1.003-1.003-2.229-1.504-3.68-1.504s-2.677.501-3.68 1.504c-1.003 1.003-1.504 2.208-1.504 3.616zm3.456-1.76c-.427.448-.64 1.035-.64 1.76 0 .725.213 1.323.64 1.792.405.448.981.672 1.728.672s1.323-.224 1.728-.672c.427-.47.64-1.067.64-1.792 0-.725-.213-1.312-.64-1.76-.405-.47-.981-.704-1.728-.704s-1.323.235-1.728.704z" fill="#fff"/><path fill-rule="evenodd" clip-rule="evenodd" d="M48.945 177.14C3.067 151.845-13.505 94.34 11.93 48.7 37.365 3.06 95.176-13.435 141.055 11.86c45.878 25.295 62.451 82.8 37.015 128.44-25.435 45.641-83.246 62.134-129.125 36.84z" fill="#947BFF"/><mask id="a" maskUnits="userSpaceOnUse" x="0" y="0" width="190" height="189"><path fill-rule="evenodd" clip-rule="evenodd" d="M48.945 177.14C3.067 151.845-13.505 94.34 11.93 48.7 37.365 3.06 95.176-13.435 141.055 11.86c45.878 25.295 62.451 82.8 37.015 128.44-25.435 45.641-83.246 62.134-129.125 36.84z" fill="#fff"/></mask><g mask="url(#a)" fill-rule="evenodd" clip-rule="evenodd" fill="#795DF5"><path d="M63-15.928L154.206-42 212 158.928 120.794 185 63-15.928z"/><path d="M227.493 53L286 233.312-66.493 348-125 167.688 227.493 53z"/></g></svg>