<svg width="360" height="754" fill="none" xmlns="http://www.w3.org/2000/svg"><path fill-rule="evenodd" clip-rule="evenodd" d="M120.217 279.743C53.462 242.939 29.349 159.268 66.358 92.86c37.009-66.409 121.126-90.407 187.88-53.603 66.755 36.804 90.868 120.475 53.859 186.883-37.009 66.409-121.126 90.408-187.88 53.603z" fill="#947BFF"/><mask id="a" maskUnits="userSpaceOnUse" x="49" y="22" width="277" height="275"><path fill-rule="evenodd" clip-rule="evenodd" d="M120.217 279.743C53.462 242.939 29.349 159.268 66.358 92.86c37.009-66.409 121.126-90.407 187.88-53.603 66.755 36.804 90.868 120.475 53.859 186.883-37.009 66.409-121.126 90.408-187.88 53.603z" fill="#fff"/></mask><g mask="url(#a)" fill-rule="evenodd" clip-rule="evenodd" fill="#795DF5"><path d="M140.667-1.175l132.707-37.936 84.092 292.355-132.708 37.936L140.667-1.175z"/><path d="M380.008 99.117l85.129 262.358-512.886 166.874-85.129-262.359L380.008 99.116z"/></g><rect y="552" width="360" height="184" rx="5" fill="#1E1A31"/><path fill-rule="evenodd" clip-rule="evenodd" d="M96.742 671.511v-1.623H98.6v-3.225l1.794-1.132v4.357h2.819v1.623h-2.819v5.916c0 .569.125 1.007.374 1.313.249.306.601.459 1.057.459.47 0 .876-.114 1.217-.341l.427 1.559c-.469.27-1.053.405-1.751.405-.954 0-1.712-.299-2.274-.897-.563-.598-.844-1.48-.844-2.648v-5.766h-1.858zm-54.03-4.015v-1.794h10.507v1.794h-4.314v13.156h-1.88v-13.156h-4.313zm13.86 10.059c0 .512.153.915.459 1.207.306.291.744.437 1.313.437.812 0 1.517-.267 2.115-.8.598-.534.897-1.364.897-2.488v-.257h-1.922c-.912 0-1.616.164-2.115.491-.498.328-.747.798-.747 1.41zm6.578 3.096v-6.876c0-1.367-.378-2.385-1.132-3.054-.755-.669-1.758-1.004-3.011-1.004-1.011 0-1.865.264-2.563.79-.698.527-1.118 1.246-1.26 2.157l1.58.363c.114-.526.374-.939.78-1.238.406-.299.893-.449 1.463-.449 1.566 0 2.349.741 2.349 2.221v.47h-1.751c-1.51 0-2.698.303-3.567.908-.868.605-1.302 1.477-1.302 2.616 0 1.096.313 1.915.94 2.456.626.541 1.423.811 2.391.811 1.466 0 2.591-.562 3.374-1.687l.3 1.516h1.409zm9.845-10.614l-.364 1.602a2.786 2.786 0 00-1.26-.299c-.811 0-1.516.459-2.114 1.378-.598.918-.897 2.203-.897 3.854v4.079h-1.794v-10.763h1.794v1.837a3.722 3.722 0 011.367-1.453c.598-.37 1.196-.555 1.794-.555.584 0 1.075.107 1.474.32zm3.417.695c-.712.662-1.068 1.534-1.068 2.616 0 .925.263 1.708.79 2.349-.868.441-1.303 1.103-1.303 1.986 0 .726.242 1.296.726 1.709-.669.569-1.003 1.317-1.003 2.242 0 1.11.416 1.979 1.249 2.605.833.627 1.94.94 3.32.94 1.325 0 2.414-.306 3.268-.918.855-.612 1.282-1.545 1.282-2.798 0-.954-.306-1.687-.919-2.2-.612-.512-1.43-.768-2.456-.768h-2.541c-.812 0-1.217-.299-1.217-.897 0-.47.235-.819.704-1.047.527.256 1.147.385 1.858.385 1.082 0 1.98-.324 2.691-.972.712-.648 1.068-1.52 1.068-2.616 0-.741-.178-1.388-.534-1.944l1.452-.811-.811-1.474-1.922 1.09a4.116 4.116 0 00-1.944-.47c-1.082 0-1.979.331-2.69.993zm3.609 9.3h-2.179c-.213 0-.477-.014-.79-.042-.47.37-.705.896-.705 1.58 0 .612.239 1.103.716 1.473.477.371 1.164.556 2.06.556.898 0 1.574-.182 2.03-.545a1.73 1.73 0 00.683-1.42c0-1.068-.605-1.602-1.815-1.602zm-2.926-6.684c0-.641.192-1.146.576-1.516.385-.371.862-.556 1.431-.556.57 0 1.047.185 1.431.556.385.37.577.875.577 1.516 0 .64-.192 1.142-.577 1.505-.384.363-.861.545-1.43.545-.57 0-1.047-.182-1.431-.545-.385-.363-.577-.865-.577-1.505zm18.046 1.473v.833h-7.902c.057 1.054.346 1.908.865 2.563.52.655 1.242.982 2.168.982.754 0 1.363-.167 1.826-.502.463-.334.85-.85 1.164-1.548l1.58.683c-.498 1.054-1.107 1.816-1.826 2.285-.719.47-1.634.705-2.744.705-1.552 0-2.752-.537-3.599-1.612-.847-1.075-1.27-2.388-1.27-3.94s.423-2.866 1.27-3.94c.847-1.075 2.047-1.613 3.599-1.613 1.523 0 2.716.495 3.577 1.484.861.99 1.292 2.196 1.292 3.62zm-6.802-2.754c.491-.485 1.135-.727 1.933-.727.825 0 1.487.246 1.986.737.498.491.833 1.143 1.004 1.954h-5.916c.17-.826.502-1.48.993-1.964zm32.216 5.787l-1.559-.641c-.57 1.324-1.552 1.986-2.948 1.986-.996 0-1.754-.366-2.274-1.1-.52-.733-.779-1.676-.779-2.829 0-1.154.259-2.097.779-2.83.52-.733 1.278-1.1 2.274-1.1 1.396 0 2.378.662 2.948 1.986l1.559-.64c-.869-1.979-2.371-2.969-4.507-2.969-1.566 0-2.772.538-3.619 1.613-.848 1.074-1.271 2.388-1.271 3.94s.423 2.865 1.271 3.94c.847 1.075 2.053 1.612 3.619 1.612 2.136 0 3.638-.989 4.507-2.968zm3.502 1.345c-.94-1.096-1.41-2.406-1.41-3.929 0-1.524.474-2.83 1.42-3.919.947-1.089 2.197-1.634 3.748-1.634 1.552 0 2.802.545 3.748 1.634.947 1.089 1.421 2.395 1.421 3.919 0 1.523-.474 2.829-1.421 3.918-.946 1.09-2.196 1.634-3.748 1.634-1.551 0-2.804-.541-3.758-1.623zm.427-3.929c0-1.068.291-1.986.875-2.755.598-.783 1.417-1.175 2.456-1.175s1.855.388 2.445 1.164c.591.776.887 1.698.887 2.766s-.296 1.99-.887 2.765c-.59.776-1.406 1.164-2.445 1.164s-1.854-.388-2.445-1.164c-.591-.775-.886-1.697-.886-2.765zm11.575-9.739h1.794v15.12h-1.794v-15.12zm7.303 0h-1.794v15.12h1.794v-15.12zm4.827 12.024c0 .512.153.915.459 1.207.306.291.744.437 1.313.437.812 0 1.517-.267 2.115-.8.598-.534.897-1.364.897-2.488v-.257h-1.923c-.911 0-1.615.164-2.114.491-.498.328-.747.798-.747 1.41zm6.577 3.096v-6.876c0-1.367-.377-2.385-1.132-3.054-.754-.669-1.758-1.004-3.011-1.004-1.011 0-1.865.264-2.562.79-.698.527-1.118 1.246-1.26 2.157l1.58.363c.114-.526.374-.939.779-1.238.406-.299.894-.449 1.463-.449 1.566 0 2.349.741 2.349 2.221v.47h-1.751c-1.509 0-2.698.303-3.566.908-.869.605-1.303 1.477-1.303 2.616 0 1.096.313 1.915.94 2.456.626.541 1.424.811 2.392.811 1.466 0 2.591-.562 3.374-1.687l.299 1.516h1.409zm1.987-9.14v-1.623h1.858v-3.225l1.794-1.132v4.357h2.819v1.623h-2.819v5.916c0 .569.124 1.007.373 1.313.249.306.602.459 1.057.459.47 0 .876-.114 1.218-.341l.427 1.559c-.47.27-1.054.405-1.751.405-.954 0-1.712-.299-2.275-.897-.562-.598-.843-1.48-.843-2.648v-5.766h-1.858zm18.43 4.143v-.833c0-1.424-.431-2.63-1.292-3.62-.862-.989-2.054-1.484-3.577-1.484-1.552 0-2.752.538-3.599 1.613-.847 1.074-1.27 2.388-1.27 3.94s.423 2.865 1.27 3.94c.847 1.075 2.047 1.612 3.599 1.612 1.11 0 2.025-.235 2.744-.705.719-.469 1.328-1.231 1.826-2.285l-1.58-.683c-.314.698-.702 1.214-1.164 1.548-.463.335-1.072.502-1.826.502-.926 0-1.648-.327-2.168-.982-.52-.655-.808-1.509-.865-2.563h7.902zm-4.869-4.314c-.798 0-1.442.242-1.933.727-.491.484-.822 1.138-.993 1.964h5.915c-.17-.811-.505-1.463-1.003-1.954-.499-.491-1.161-.737-1.986-.737zm13.967.299l.363-1.602c-.399-.213-.89-.32-1.474-.32-.598 0-1.196.185-1.794.555a3.728 3.728 0 00-1.367 1.453v-1.837h-1.794v10.763h1.794v-4.079c0-1.651.299-2.936.897-3.854.598-.919 1.303-1.378 2.115-1.378.441 0 .861.1 1.26.299zm3.822 5.916c0 .512.153.915.459 1.207.306.291.744.437 1.314.437.811 0 1.516-.267 2.114-.8.598-.534.897-1.364.897-2.488v-.257h-1.922c-.911 0-1.616.164-2.114.491-.499.328-.748.798-.748 1.41zm6.578 3.096v-6.876c0-1.367-.378-2.385-1.132-3.054-.755-.669-1.758-1.004-3.011-1.004-1.011 0-1.865.264-2.563.79-.698.527-1.118 1.246-1.26 2.157l1.58.363c.114-.526.374-.939.78-1.238.406-.299.893-.449 1.463-.449 1.566 0 2.349.741 2.349 2.221v.47h-1.751c-1.51 0-2.698.303-3.567.908-.868.605-1.303 1.477-1.303 2.616 0 1.096.314 1.915.94 2.456.627.541 1.424.811 2.392.811 1.466 0 2.591-.562 3.374-1.687l.299 1.516h1.41zm3.374-15.12h1.794v15.12h-1.794v-15.12zm5.574 4.357v10.763h1.794v-10.763h-1.794zm-.449-2.99c0-.384.128-.708.385-.971.256-.264.576-.396.961-.396.384 0 .704.132.961.396.256.263.384.587.384.971 0 .37-.128.684-.384.94a1.306 1.306 0 01-.961.384c-.385 0-.705-.128-.961-.384a1.277 1.277 0 01-.385-.94zm5.574 2.99v1.623h4.805l-5.082 8.372v.768h7.688v-1.623h-5.297l5.105-8.371v-.769h-7.219zm11.426 7.667c0 .512.153.915.459 1.207.306.291.744.437 1.313.437.812 0 1.517-.267 2.115-.8.598-.534.897-1.364.897-2.488v-.257h-1.922c-.912 0-1.616.164-2.115.491-.498.328-.747.798-.747 1.41zm6.577 3.096v-6.876c0-1.367-.377-2.385-1.132-3.054-.754-.669-1.758-1.004-3.011-1.004-1.011 0-1.865.264-2.563.79-.697.527-1.117 1.246-1.26 2.157l1.581.363c.114-.526.373-.939.779-1.238.406-.299.894-.449 1.463-.449 1.566 0 2.349.741 2.349 2.221v.47h-1.751c-1.509 0-2.698.303-3.566.908-.869.605-1.303 1.477-1.303 2.616 0 1.096.313 1.915.94 2.456.626.541 1.423.811 2.391.811 1.467 0 2.592-.562 3.375-1.687l.299 1.516h1.409zm1.987-9.14v-1.623h1.858v-3.225l1.793-1.132v4.357h2.819v1.623h-2.819v5.916c0 .569.125 1.007.374 1.313.249.306.602.459 1.057.459.47 0 .876-.114 1.218-.341l.427 1.559c-.47.27-1.054.405-1.752.405-.953 0-1.712-.299-2.274-.897-.562-.598-.843-1.48-.843-2.648v-5.766h-1.858zm9.524-1.623v10.763h1.794v-10.763h-1.794zm-.448-2.99c0-.384.128-.708.384-.971.256-.264.577-.396.961-.396.385 0 .705.132.961.396.256.263.385.587.385.971 0 .37-.129.684-.385.94a1.303 1.303 0 01-.961.384c-.384 0-.705-.128-.961-.384a1.28 1.28 0 01-.384-.94zm5.382 8.372c0 1.523.469 2.833 1.409 3.929.954 1.082 2.207 1.623 3.759 1.623s2.801-.544 3.748-1.634c.946-1.089 1.42-2.395 1.42-3.918 0-1.524-.474-2.83-1.42-3.919-.947-1.089-2.196-1.634-3.748-1.634s-2.801.545-3.748 1.634c-.947 1.089-1.42 2.395-1.42 3.919zm2.712-2.755c-.584.769-.876 1.687-.876 2.755 0 1.068.295 1.99.886 2.765.591.776 1.406 1.164 2.445 1.164 1.04 0 1.855-.388 2.446-1.164.591-.775.886-1.697.886-2.765s-.295-1.99-.886-2.766-1.406-1.164-2.446-1.164c-1.039 0-1.858.392-2.455 1.175zm19.262 8.136v-7.581c0-1.068-.281-1.894-.843-2.477-.562-.584-1.335-.876-2.317-.876-1.566 0-2.755.719-3.567 2.157v-1.986h-1.794v10.763h1.794v-4.506c0-1.438.303-2.598.908-3.481.605-.882 1.328-1.324 2.168-1.324 1.238 0 1.858.733 1.858 2.2v7.111h1.793zm15.953-10.614l-.363 1.602a2.781 2.781 0 00-1.26-.299c-.811 0-1.516.459-2.114 1.378-.598.918-.897 2.203-.897 3.854v4.079h-1.794v-10.763h1.794v1.837a3.721 3.721 0 011.367-1.453c.598-.37 1.196-.555 1.794-.555.584 0 1.075.107 1.473.32zm3.919 8.725c-.306-.292-.459-.695-.459-1.207 0-.612.249-1.082.747-1.41.499-.327 1.204-.491 2.115-.491h1.922v.257c0 1.124-.299 1.954-.897 2.488-.598.533-1.303.8-2.114.8-.57 0-1.008-.146-1.314-.437zm6.119-4.987v6.876h-1.41l-.299-1.516c-.783 1.125-1.907 1.687-3.374 1.687-.968 0-1.765-.27-2.392-.811-.626-.541-.939-1.36-.939-2.456 0-1.139.434-2.011 1.302-2.616.869-.605 2.058-.908 3.567-.908h1.751v-.47c0-1.48-.783-2.221-2.349-2.221-.57 0-1.057.15-1.463.449-.406.299-.666.712-.78 1.238l-1.58-.363c.142-.911.562-1.63 1.26-2.157.698-.526 1.552-.79 2.563-.79 1.253 0 2.256.335 3.011 1.004.755.669 1.132 1.687 1.132 3.054zm1.986-3.887v1.623h1.858v5.766c0 1.168.281 2.05.843 2.648.563.598 1.321.897 2.275.897.698 0 1.281-.135 1.751-.405l-.427-1.559c-.342.227-.748.341-1.217.341-.456 0-.808-.153-1.057-.459-.25-.306-.374-.744-.374-1.313v-5.916h2.819v-1.623h-2.819v-4.357l-1.794 1.132v3.225h-1.858zm9.524 0h1.794v10.763h-1.794v-10.763zm-.063-3.961a1.336 1.336 0 00-.385.971c0 .37.128.684.385.94.256.256.576.384.961.384.384 0 .704-.128.961-.384a1.28 1.28 0 00.384-.94c0-.384-.128-.708-.384-.971a1.286 1.286 0 00-.961-.396c-.385 0-.705.132-.961.396zm6.406 13.272c-.939-1.096-1.409-2.406-1.409-3.929 0-1.524.473-2.83 1.42-3.919s2.196-1.634 3.748-1.634 2.801.545 3.748 1.634c.947 1.089 1.42 2.395 1.42 3.919 0 1.523-.473 2.829-1.42 3.918-.947 1.09-2.196 1.634-3.748 1.634s-2.805-.541-3.759-1.623zm.428-3.929c0-1.068.292-1.986.875-2.755.598-.783 1.417-1.175 2.456-1.175s1.855.388 2.445 1.164c.591.776.887 1.698.887 2.766s-.296 1.99-.887 2.765c-.59.776-1.406 1.164-2.445 1.164s-1.854-.388-2.445-1.164c-.591-.775-.886-1.697-.886-2.765z" fill="#CACAF1"/><path fill-rule="evenodd" clip-rule="evenodd" d="M235.196 597.583l-26.31 35.146 2.831 2.197 26.31-35.146-2.831-2.197zm-58.637 5.858c-2.115 3.092-3.173 7.371-3.173 12.838 0 5.467 1.058 9.746 3.173 12.838 2.115 3.092 5.158 4.637 9.128 4.637 3.97 0 7.013-1.545 9.128-4.637 2.115-3.092 3.173-7.371 3.173-12.838 0-5.467-1.058-9.746-3.173-12.838-2.115-3.091-5.158-4.637-9.128-4.637-3.97 0-7.013 1.546-9.128 4.637zm-57.576-4.247h20.209v2.343l-13.082 31.826h-5.174l12.154-29.483h-14.107v-4.686zm25.884 25.236l5.027-.927c.554 3.71 2.425 5.565 5.614 5.565 1.822 0 3.23-.61 4.222-1.831.993-1.22 1.489-2.888 1.489-5.003s-.496-3.783-1.489-5.004c-.992-1.22-2.4-1.83-4.222-1.83-2.603 0-4.784 1.171-6.541 3.515l-3.368-.684 1.904-19.037h16.987v4.686h-12.643l-1.025 8.542c1.399-1.139 3.059-1.708 4.979-1.708 3.352 0 5.955 1.074 7.81 3.222 1.855 2.082 2.782 4.848 2.782 8.298 0 3.417-.992 6.183-2.977 8.298-1.953 2.148-4.589 3.222-7.908 3.222-2.929 0-5.353-.83-7.273-2.49-1.92-1.659-3.043-3.937-3.368-6.834zm46.141-17.621c-1.172-2.213-2.946-3.319-5.321-3.319-2.343 0-4.133 1.106-5.37 3.319-1.171 2.213-1.757 5.369-1.757 9.47 0 4.1.586 7.257 1.757 9.47 1.237 2.213 3.027 3.319 5.37 3.319 2.375 0 4.149-1.106 5.321-3.319 1.204-2.181 1.806-5.337 1.806-9.47 0-4.133-.602-7.29-1.806-9.47zm14.314-.195c0 2.18.765 4.035 2.294 5.565 1.497 1.497 3.369 2.245 5.614 2.245 2.245 0 4.117-.748 5.613-2.245 1.53-1.53 2.295-3.385 2.295-5.565 0-2.148-.765-3.986-2.295-5.516-1.529-1.529-3.4-2.294-5.613-2.294-2.213 0-4.084.765-5.614 2.294-1.529 1.53-2.294 3.368-2.294 5.516zm5.272-2.685c-.651.683-.976 1.578-.976 2.685 0 1.106.325 2.017.976 2.733.618.684 1.497 1.025 2.636 1.025s2.017-.341 2.636-1.025c.651-.716.976-1.627.976-2.733 0-1.107-.325-2.002-.976-2.685-.619-.716-1.497-1.074-2.636-1.074s-2.018.358-2.636 1.074zm14.547 22.015c0 2.18.764 4.035 2.294 5.565 1.497 1.497 3.368 2.245 5.613 2.245 2.246 0 4.117-.748 5.614-2.245 1.529-1.53 2.294-3.385 2.294-5.565 0-2.148-.765-3.987-2.294-5.516-1.53-1.53-3.401-2.294-5.614-2.294s-4.084.764-5.613 2.294c-1.53 1.529-2.294 3.368-2.294 5.516zm5.271-2.685c-.65.683-.976 1.578-.976 2.685 0 1.106.326 2.017.976 2.733.619.684 1.497 1.025 2.636 1.025s2.018-.341 2.636-1.025c.651-.716.976-1.627.976-2.733 0-1.107-.325-2.002-.976-2.685-.618-.716-1.497-1.074-2.636-1.074s-2.017.358-2.636 1.074z" fill="#fff"/><rect y="339" width="360" height="182" rx="5" fill="#1E1A31"/><path fill-rule="evenodd" clip-rule="evenodd" d="M45.87 462.245l1.815.534c-.342 1.352-1.025 2.445-2.05 3.278-1.026.833-2.293 1.249-3.802 1.249-1.865 0-3.456-.669-4.773-2.007-1.317-1.339-1.975-3.218-1.975-5.638 0-2.421.658-4.3 1.975-5.638 1.317-1.338 2.908-2.008 4.773-2.008 1.51 0 2.776.417 3.802 1.25 1.025.833 1.708 1.925 2.05 3.278l-1.816.534c-.711-2.179-2.057-3.268-4.036-3.268-1.423 0-2.58.506-3.47 1.517-.89 1.01-1.335 2.455-1.335 4.335 0 1.879.445 3.324 1.335 4.335.89 1.011 2.047 1.516 3.47 1.516 1.98 0 3.325-1.089 4.037-3.267zm4.57 1.708v-7.581h1.793v7.112c0 1.466.62 2.199 1.858 2.199.84 0 1.563-.441 2.168-1.324.605-.883.907-2.043.907-3.481v-4.506h1.794v10.763h-1.794v-1.986c-.811 1.438-2 2.157-3.566 2.157-.982 0-1.755-.292-2.317-.875-.562-.584-.844-1.41-.844-2.478zm18.515-5.83l.363-1.602c-.398-.213-.89-.32-1.473-.32-.598 0-1.196.185-1.794.555a3.72 3.72 0 00-1.367 1.452v-1.836H62.89v10.763h1.794v-4.079c0-1.651.299-2.936.897-3.854.598-.919 1.303-1.378 2.114-1.378.442 0 .862.1 1.26.299zm9.183-1.602l-.363 1.602a2.785 2.785 0 00-1.26-.299c-.811 0-1.516.459-2.114 1.378-.598.918-.897 2.203-.897 3.854v4.079H71.71v-10.763h1.794v1.836a3.72 3.72 0 011.367-1.452c.598-.37 1.196-.555 1.794-.555.583 0 1.075.107 1.473.32zm11.319 5.617v-.833c0-1.424-.43-2.63-1.292-3.62-.861-.989-2.054-1.484-3.577-1.484-1.552 0-2.751.537-3.599 1.612-.847 1.075-1.27 2.389-1.27 3.941 0 1.551.423 2.865 1.27 3.94.847 1.075 2.047 1.612 3.599 1.612 1.11 0 2.025-.235 2.744-.705.72-.469 1.328-1.231 1.826-2.285l-1.58-.683c-.314.698-.702 1.214-1.164 1.548-.463.335-1.072.502-1.826.502-.926 0-1.648-.327-2.168-.982-.52-.655-.808-1.509-.865-2.563h7.902zm-4.87-4.314c-.797 0-1.44.242-1.932.726-.491.484-.822 1.139-.993 1.965h5.915c-.17-.811-.505-1.463-1.003-1.954-.498-.491-1.16-.737-1.986-.737zm16.424 9.311v-7.581c0-1.068-.282-1.894-.844-2.477-.562-.584-1.335-.876-2.317-.876-1.566 0-2.755.719-3.566 2.157v-1.986H92.49v10.763h1.794v-4.506c0-1.438.302-2.598.907-3.481s1.328-1.324 2.168-1.324c1.238 0 1.858.733 1.858 2.2v7.111h1.794zm2.37-9.14v-1.623h1.858v-3.225l1.794-1.132v4.357h2.819v1.623h-2.819v5.916c0 .569.124 1.007.373 1.313.25.306.602.459 1.058.459.469 0 .875-.114 1.217-.342l.427 1.559c-.47.271-1.054.406-1.751.406-.954 0-1.712-.299-2.275-.897-.562-.598-.843-1.48-.843-2.648v-5.766h-1.858zm23.812 6.343l-1.559-.641c-.57 1.324-1.552 1.986-2.947 1.986-.997 0-1.755-.367-2.275-1.1-.519-.733-.779-1.676-.779-2.829 0-1.154.26-2.097.779-2.83.52-.733 1.278-1.1 2.275-1.1 1.395 0 2.377.662 2.947 1.986l1.559-.641c-.869-1.978-2.371-2.968-4.506-2.968-1.566 0-2.773.537-3.62 1.612-.847 1.075-1.271 2.389-1.271 3.941 0 1.551.424 2.865 1.271 3.94.847 1.075 2.054 1.612 3.62 1.612 2.135 0 3.637-.989 4.506-2.968zm3.502 1.345c-.939-1.096-1.409-2.406-1.409-3.929 0-1.524.473-2.83 1.42-3.919s2.196-1.634 3.748-1.634 2.801.545 3.748 1.634c.947 1.089 1.42 2.395 1.42 3.919 0 1.523-.473 2.829-1.42 3.918-.947 1.09-2.196 1.634-3.748 1.634s-2.805-.541-3.759-1.623zm.427-3.929c0-1.068.292-1.986.876-2.755.598-.783 1.417-1.175 2.456-1.175s1.854.388 2.445 1.164c.591.776.886 1.698.886 2.766s-.295 1.989-.886 2.765-1.406 1.164-2.445 1.164-1.854-.388-2.445-1.164c-.591-.776-.887-1.697-.887-2.765zm11.575-9.739h1.794v15.12h-1.794v-15.12zm7.304 0h-1.794v15.12h1.794v-15.12zm4.827 12.024c0 .512.153.915.459 1.206.306.292.744.438 1.313.438a3.07 3.07 0 002.114-.801c.598-.534.897-1.363.897-2.488v-.256h-1.922c-.911 0-1.616.164-2.114.491-.498.328-.747.798-.747 1.41zm6.577 3.096v-6.876c0-1.367-.377-2.385-1.132-3.054-.755-.669-1.758-1.004-3.011-1.004-1.011 0-1.865.263-2.563.79-.698.527-1.118 1.246-1.26 2.157l1.58.363c.114-.527.374-.939.78-1.238.406-.299.893-.449 1.463-.449 1.566 0 2.349.74 2.349 2.221v.47h-1.751c-1.509 0-2.698.302-3.567.908-.868.605-1.302 1.477-1.302 2.616 0 1.096.313 1.915.939 2.456.627.541 1.424.811 2.392.811 1.467 0 2.591-.562 3.374-1.687l.299 1.516h1.41zm1.986-9.14v-1.623h1.858v-3.225l1.794-1.132v4.357h2.819v1.623h-2.819v5.916c0 .569.125 1.007.374 1.313.249.306.601.459 1.057.459.47 0 .875-.114 1.217-.342l.427 1.559c-.47.271-1.053.406-1.751.406-.954 0-1.712-.299-2.274-.897-.563-.598-.844-1.48-.844-2.648v-5.766h-1.858zm18.43 4.143v-.833c0-1.424-.43-2.63-1.292-3.62-.861-.989-2.053-1.484-3.577-1.484-1.552 0-2.751.537-3.598 1.612-.847 1.075-1.271 2.389-1.271 3.941 0 1.551.424 2.865 1.271 3.94.847 1.075 2.046 1.612 3.598 1.612 1.111 0 2.025-.235 2.744-.705.719-.469 1.328-1.231 1.826-2.285l-1.58-.683c-.313.698-.701 1.214-1.164 1.548-.463.335-1.071.502-1.826.502-.925 0-1.648-.327-2.167-.982-.52-.655-.808-1.509-.865-2.563h7.901zm-4.869-4.314c-.797 0-1.442.242-1.933.726-.491.484-.822 1.139-.993 1.965h5.916c-.171-.811-.506-1.463-1.004-1.954-.498-.491-1.16-.737-1.986-.737zm13.967.299l.363-1.602c-.399-.213-.89-.32-1.474-.32-.598 0-1.196.185-1.794.555a3.716 3.716 0 00-1.366 1.452v-1.836h-1.794v10.763h1.794v-4.079c0-1.651.299-2.936.896-3.854.598-.919 1.303-1.378 2.115-1.378.441 0 .861.1 1.26.299zm3.823 5.916c0 .512.153.915.459 1.206.306.292.744.438 1.313.438a3.07 3.07 0 002.114-.801c.598-.534.897-1.363.897-2.488v-.256h-1.922c-.911 0-1.616.164-2.114.491-.498.328-.747.798-.747 1.41zm6.577 3.096v-6.876c0-1.367-.377-2.385-1.132-3.054-.754-.669-1.758-1.004-3.011-1.004-1.011 0-1.865.263-2.563.79-.697.527-1.117 1.246-1.26 2.157l1.581.363c.114-.527.374-.939.779-1.238.406-.299.894-.449 1.463-.449 1.566 0 2.349.74 2.349 2.221v.47h-1.751c-1.509 0-2.698.302-3.566.908-.869.605-1.303 1.477-1.303 2.616 0 1.096.313 1.915.94 2.456.626.541 1.423.811 2.392.811 1.466 0 2.591-.562 3.374-1.687l.299 1.516h1.409zm3.374-15.12h1.794v15.12h-1.794v-15.12zm7.368 4.357h-1.793v10.763h1.793v-10.763zm-2.242-2.99c0-.384.128-.708.385-.972.256-.263.576-.395.961-.395.384 0 .704.132.961.395.256.264.384.588.384.972 0 .37-.128.684-.384.94a1.306 1.306 0 01-.961.384c-.385 0-.705-.128-.961-.384a1.277 1.277 0 01-.385-.94zm5.574 2.99v1.623h4.805l-5.083 8.372v.768h7.688v-1.623h-5.296l5.104-8.371v-.769h-7.218zm11.425 7.667c0 .512.153.915.459 1.206.306.292.744.438 1.314.438.811 0 1.516-.267 2.114-.801.598-.534.897-1.363.897-2.488v-.256h-1.922c-.911 0-1.616.164-2.114.491-.499.328-.748.798-.748 1.41zm6.578 3.096v-6.876c0-1.367-.377-2.385-1.132-3.054-.754-.669-1.758-1.004-3.011-1.004-1.011 0-1.865.263-2.563.79-.697.527-1.117 1.246-1.26 2.157l1.581.363c.113-.527.373-.939.779-1.238.406-.299.893-.449 1.463-.449 1.566 0 2.349.74 2.349 2.221v.47h-1.751c-1.509 0-2.698.302-3.567.908-.868.605-1.302 1.477-1.302 2.616 0 1.096.313 1.915.939 2.456.627.541 1.424.811 2.392.811 1.467 0 2.591-.562 3.375-1.687l.298 1.516h1.41zm1.986-9.14v-1.623h1.858v-3.225l1.794-1.132v4.357h2.819v1.623h-2.819v5.916c0 .569.124 1.007.373 1.313.249.306.602.459 1.057.459.47 0 .876-.114 1.218-.342l.427 1.559c-.47.271-1.054.406-1.751.406-.954 0-1.712-.299-2.275-.897-.562-.598-.843-1.48-.843-2.648v-5.766h-1.858zm11.319-1.623h-1.794v10.763h1.794v-10.763zm-2.242-2.99c0-.384.128-.708.384-.972.256-.263.577-.395.961-.395s.705.132.961.395c.256.264.384.588.384.972 0 .37-.128.684-.384.94a1.305 1.305 0 01-.961.384c-.384 0-.705-.128-.961-.384a1.28 1.28 0 01-.384-.94zm5.381 8.372c0 1.523.47 2.833 1.409 3.929.954 1.082 2.207 1.623 3.759 1.623s2.801-.544 3.748-1.634c.947-1.089 1.42-2.395 1.42-3.918 0-1.524-.473-2.83-1.42-3.919s-2.196-1.634-3.748-1.634-2.801.545-3.748 1.634c-.947 1.089-1.42 2.395-1.42 3.919zm2.712-2.755c-.583.769-.875 1.687-.875 2.755 0 1.068.295 1.989.886 2.765s1.406 1.164 2.445 1.164c1.04 0 1.855-.388 2.445-1.164.591-.776.887-1.697.887-2.765s-.296-1.99-.887-2.766c-.59-.776-1.405-1.164-2.445-1.164-1.039 0-1.858.392-2.456 1.175zm19.263 8.136v-7.581c0-1.068-.281-1.894-.843-2.477-.563-.584-1.335-.876-2.317-.876-1.567 0-2.755.719-3.567 2.157v-1.986h-1.794v10.763h1.794v-4.506c0-1.438.303-2.598.908-3.481s1.327-1.324 2.167-1.324c1.239 0 1.858.733 1.858 2.2v7.111h1.794zm15.953-10.614l-.363 1.602a2.781 2.781 0 00-1.26-.299c-.811 0-1.516.459-2.114 1.378-.598.918-.897 2.203-.897 3.854v4.079h-1.794v-10.763h1.794v1.836a3.718 3.718 0 011.367-1.452c.598-.37 1.196-.555 1.794-.555.583 0 1.075.107 1.473.32zm3.919 8.724c-.306-.291-.459-.694-.459-1.206 0-.612.249-1.082.747-1.41.499-.327 1.203-.491 2.114-.491h1.923v.256c0 1.125-.299 1.954-.897 2.488a3.072 3.072 0 01-2.115.801c-.569 0-1.007-.146-1.313-.438zm6.118-4.986v6.876h-1.409l-.299-1.516c-.783 1.125-1.908 1.687-3.374 1.687-.968 0-1.766-.27-2.392-.811-.627-.541-.94-1.36-.94-2.456 0-1.139.434-2.011 1.303-2.616.868-.606 2.057-.908 3.566-.908h1.751v-.47c0-1.481-.783-2.221-2.349-2.221-.569 0-1.057.15-1.463.449-.405.299-.665.711-.779 1.238l-1.58-.363c.142-.911.562-1.63 1.26-2.157.697-.527 1.551-.79 2.562-.79 1.253 0 2.257.335 3.011 1.004.755.669 1.132 1.687 1.132 3.054zm1.986-3.887v1.623h1.858v5.766c0 1.168.282 2.05.844 2.648.562.598 1.32.897 2.274.897.698 0 1.282-.135 1.752-.406l-.428-1.559c-.341.228-.747.342-1.217.342-.455 0-.808-.153-1.057-.459-.249-.306-.374-.744-.374-1.313v-5.916h2.819v-1.623h-2.819v-4.357l-1.794 1.132v3.225h-1.858zm9.525 10.763v-10.763h1.794v10.763h-1.794zm-.064-14.725a1.343 1.343 0 00-.384.972c0 .37.128.684.384.94.256.256.577.384.961.384s.705-.128.961-.384a1.28 1.28 0 00.384-.94c0-.384-.128-.708-.384-.972a1.287 1.287 0 00-.961-.395c-.384 0-.705.132-.961.395zm6.407 13.273c-.94-1.096-1.41-2.406-1.41-3.929 0-1.524.474-2.83 1.421-3.919.946-1.089 2.196-1.634 3.748-1.634 1.551 0 2.801.545 3.748 1.634.946 1.089 1.42 2.395 1.42 3.919 0 1.523-.474 2.829-1.42 3.918-.947 1.09-2.197 1.634-3.748 1.634-1.552 0-2.805-.541-3.759-1.623zm.427-3.929c0-1.068.292-1.986.876-2.755.598-.783 1.416-1.175 2.456-1.175 1.039 0 1.854.388 2.445 1.164.591.776.886 1.698.886 2.766s-.295 1.989-.886 2.765-1.406 1.164-2.445 1.164c-1.04 0-1.855-.388-2.446-1.164-.59-.776-.886-1.697-.886-2.765z" fill="#CACAF1"/><path fill-rule="evenodd" clip-rule="evenodd" d="M236.551 384.067l-26.311 35.146 2.831 2.197 26.311-35.146-2.831-2.197zm-100.202 17.036c-1.985-2.082-4.54-3.124-7.664-3.124-.521 0-.895.065-1.123.195l7.469-12.886h-5.76l-10.154 17.621a12.215 12.215 0 00-1.659 6.2c0 3.156 1.025 5.808 3.075 7.956 2.115 2.116 4.735 3.173 7.859 3.173 3.157 0 5.76-1.057 7.81-3.173 2.083-2.115 3.124-4.767 3.124-7.956 0-3.255-.992-5.923-2.977-8.006zm-12.106 12.643c-1.074-1.204-1.611-2.75-1.611-4.638 0-1.952.521-3.514 1.562-4.686 1.042-1.171 2.441-1.757 4.198-1.757 1.757 0 3.157.586 4.198 1.757 1.042 1.172 1.562 2.734 1.562 4.686 0 1.888-.537 3.434-1.611 4.638-1.074 1.204-2.457 1.806-4.149 1.806-1.692 0-3.075-.602-4.149-1.806zm21.978-2.832l5.028-.927c.553 3.71 2.424 5.565 5.614 5.565 1.822 0 3.229-.61 4.222-1.831.992-1.22 1.489-2.888 1.489-5.003s-.497-3.783-1.489-5.004c-.993-1.22-2.4-1.83-4.222-1.83-2.604 0-4.784 1.171-6.541 3.514l-3.369-.683 1.904-19.037h16.987v4.686h-12.642l-1.026 8.542c1.4-1.139 3.059-1.708 4.979-1.708 3.352 0 5.956 1.074 7.811 3.221 1.855 2.083 2.782 4.849 2.782 8.299 0 3.417-.993 6.183-2.978 8.298-1.952 2.148-4.588 3.222-7.907 3.222-2.929 0-5.354-.83-7.274-2.49-1.92-1.659-3.042-3.937-3.368-6.834zm31.692-20.989c-2.115 3.092-3.173 7.371-3.173 12.838 0 5.467 1.058 9.746 3.173 12.838 2.116 3.091 5.158 4.637 9.128 4.637 3.971 0 7.013-1.546 9.129-4.637 2.115-3.092 3.173-7.371 3.173-12.838 0-5.467-1.058-9.746-3.173-12.838-2.116-3.092-5.158-4.637-9.129-4.637-3.97 0-7.012 1.545-9.128 4.637zm14.449 3.368c-1.171-2.213-2.945-3.319-5.32-3.319-2.343 0-4.133 1.106-5.37 3.319-1.171 2.213-1.757 5.369-1.757 9.47 0 4.1.586 7.257 1.757 9.47 1.237 2.212 3.027 3.319 5.37 3.319 2.375 0 4.149-1.107 5.32-3.319 1.204-2.181 1.806-5.337 1.806-9.47 0-4.133-.602-7.29-1.806-9.47zm14.315-.195c0 2.18.764 4.035 2.294 5.565 1.497 1.497 3.368 2.245 5.613 2.245 2.246 0 4.117-.748 5.614-2.245 1.53-1.53 2.294-3.385 2.294-5.565 0-2.148-.764-3.987-2.294-5.516-1.529-1.53-3.401-2.294-5.614-2.294-2.212 0-4.084.764-5.613 2.294-1.53 1.529-2.294 3.368-2.294 5.516zm5.271-2.685c-.65.683-.976 1.578-.976 2.685 0 1.106.326 2.017.976 2.733.619.684 1.497 1.025 2.636 1.025s2.018-.341 2.636-1.025c.651-.716.977-1.627.977-2.733 0-1.107-.326-2.002-.977-2.685-.618-.716-1.497-1.074-2.636-1.074s-2.017.358-2.636 1.074zm14.547 22.015c0 2.18.765 4.035 2.294 5.565 1.497 1.496 3.368 2.245 5.614 2.245 2.245 0 4.117-.749 5.613-2.245 1.53-1.53 2.295-3.385 2.295-5.565 0-2.148-.765-3.987-2.295-5.516-1.529-1.53-3.4-2.294-5.613-2.294-2.213 0-4.084.764-5.614 2.294-1.529 1.529-2.294 3.368-2.294 5.516zm5.272-2.685c-.651.683-.976 1.578-.976 2.685 0 1.106.325 2.017.976 2.733.618.684 1.497 1.025 2.636 1.025s2.017-.341 2.636-1.025c.651-.716.976-1.627.976-2.733 0-1.107-.325-2.002-.976-2.685-.619-.716-1.497-1.074-2.636-1.074s-2.018.358-2.636 1.074z" fill="#fff"/></svg>