<svg width="102" height="102" viewBox="0 0 102 102" fill="none" xmlns="http://www.w3.org/2000/svg">
<path d="M29.9071 44.2076C31.1783 45.3689 31.9784 47.0382 31.9784 48.8865C31.9784 49.3082 31.9367 49.7207 31.8573 50.1199L51.5127 51.9067C52.3646 50.1251 54.1868 48.8865 56.2838 48.8865C57.3567 48.8865 58.3578 49.2108 59.1937 49.7661L72.2036 36.7562C70.8683 35.5919 70.0216 33.8799 70.0216 31.9784C70.0216 31.1516 70.1817 30.3606 70.4725 29.6348L57.3404 27.7061L57.3405 27.7514C57.3405 32.4078 53.543 36.2054 48.8865 36.2054C46.377 36.2054 44.1171 35.1025 42.5665 33.3567L29.9071 44.2076Z" fill="#5641F2"/>
<path d="M77.2594 38.2553C76.9661 38.2972 76.6666 38.3189 76.3621 38.3189C75.5521 38.3189 74.7764 38.1653 74.0628 37.8856L60.688 51.2605C61.2433 52.0964 61.5676 53.0974 61.5676 54.1703C61.5676 55.1729 61.2844 56.1127 60.7942 56.9136L70.1582 62.532C71.0182 61.925 72.0654 61.5676 73.1919 61.5676C73.9897 61.5676 74.7477 61.7468 75.4277 62.0671L77.2594 38.2553Z" fill="#5641F2"/>
<path d="M59.3144 58.4918L68.6797 64.111C68.1905 64.9113 67.9081 65.85 67.9081 66.8513C67.9081 67.7724 68.147 68.6404 68.566 69.3964L48.6971 76.0194C48.0796 73.787 46.0243 72.1351 43.6027 72.1351C42.6006 72.1351 41.6613 72.418 40.8606 72.9078L29.4729 53.9283C30.1039 53.4467 30.6426 52.8498 31.057 52.1696L51.0033 53.9829C51.0011 54.0451 51 54.1076 51 54.1703C51 57.0759 53.3781 59.4541 56.2838 59.4541C57.4089 59.4541 58.4549 59.0975 59.3144 58.4918Z" fill="#5641F2"/>
<path d="M55.227 27.7514C55.227 24.2372 52.4008 21.4108 48.8865 21.4108C45.3722 21.4108 42.5459 24.2372 42.5459 27.7514C42.5459 31.2657 45.3722 34.0919 48.8865 34.0919C52.4008 34.0919 55.227 31.2657 55.227 27.7514Z" fill="#5641F2"/>
<path d="M29.8649 48.8865C29.8649 46.5394 27.9849 44.6595 25.6378 44.6595C23.2908 44.6595 21.4108 46.5394 21.4108 48.8865C21.4108 51.2335 23.2908 53.1135 25.6378 53.1135C27.9849 53.1135 29.8649 51.2335 29.8649 48.8865Z" fill="#5641F2"/>
<path d="M43.6027 74.2486C45.3661 74.2486 46.7729 75.6556 46.7729 77.4189C46.7729 79.1824 45.3661 80.5892 43.6027 80.5892C41.8393 80.5892 40.4324 79.1824 40.4324 77.4189C40.4324 75.6556 41.8393 74.2486 43.6027 74.2486Z" fill="#5641F2"/>
<path d="M59.454 54.1703C59.454 52.407 58.0472 51 56.2838 51C54.5204 51 53.1135 52.407 53.1135 54.1703C53.1135 55.9338 54.5204 57.3405 56.2838 57.3405C58.0472 57.3405 59.454 55.9338 59.454 54.1703Z" fill="#5641F2"/>
<path d="M73.1919 63.6811C74.9553 63.6811 76.3622 65.088 76.3622 66.8513C76.3622 68.6149 74.9553 70.0216 73.1919 70.0216C71.4285 70.0216 70.0216 68.6149 70.0216 66.8513C70.0216 65.088 71.4285 63.6811 73.1919 63.6811Z" fill="#5641F2"/>
<path d="M80.5892 31.9784C80.5892 29.6313 78.7092 27.7514 76.3621 27.7514C74.0151 27.7514 72.1351 29.6313 72.1351 31.9784C72.1351 34.3255 74.0151 36.2054 76.3621 36.2054C78.7092 36.2054 80.5892 34.3255 80.5892 31.9784Z" fill="#5641F2"/>
<path fill-rule="evenodd" clip-rule="evenodd" d="M102 51C102 79.1665 79.1665 102 51 102C22.8335 102 0 79.1665 0 51C0 22.8335 22.8335 0 51 0C79.1665 0 102 22.8335 102 51ZM71.7108 27.6791L57.0433 25.5287C56.0633 21.9445 52.7743 19.2973 48.8865 19.2973C44.23 19.2973 40.4324 23.0949 40.4324 27.7514C40.4324 29.1362 40.7683 30.4452 41.3628 31.6008L28.0398 43.0206C27.2982 42.7148 26.4869 42.5459 25.6378 42.5459C22.1486 42.5459 19.2973 45.3973 19.2973 48.8865C19.2973 52.3759 22.1486 55.227 25.6378 55.227C26.3211 55.227 26.9799 55.1177 27.5976 54.9157L39.2812 74.3883C38.6755 75.2478 38.3189 76.2938 38.3189 77.4189C38.3189 80.3246 40.697 82.7027 43.6027 82.7027C46.2429 82.7027 48.4476 80.7392 48.8283 78.2006L70.0821 71.116C70.9562 71.7562 72.032 72.1351 73.1919 72.1351C76.0975 72.1351 78.4757 69.757 78.4757 66.8513C78.4757 65.6697 78.0824 64.5753 77.4203 63.6927L79.4335 37.5211C81.3798 36.4359 82.7027 34.3552 82.7027 31.9784C82.7027 28.4892 79.8514 25.6379 76.3621 25.6379C74.5284 25.6379 72.8708 26.4254 71.7108 27.6791Z" fill="#5641F2"/>
</svg>
