<?xml version="1.0" encoding="UTF-8"?>
<svg width="35px" height="45px" viewBox="0 0 35 45" version="1.1" xmlns="http://www.w3.org/2000/svg" xmlns:xlink="http://www.w3.org/1999/xlink">
    <!-- Generator: Sketch 50 (54983) - http://www.bohemiancoding.com/sketch -->
    <title>energy</title>
    <desc>Created with Sketch.</desc>
    <defs></defs>
    <g id="ðŸƒ-Mintr" stroke="none" stroke-width="1" fill="none" fill-rule="evenodd" stroke-linecap="square">
        <g id="Home" transform="translate(-702.000000, -400.000000)" stroke="#D9AB44" stroke-width="2">
            <g id="Group-7" transform="translate(418.000000, 204.308594)">
                <g id="Group-5" transform="translate(0.000000, 194.000000)">
                    <g id="Group-2" transform="translate(188.500000, 2.100586)">
                        <g id="energy" transform="translate(96.250000, 0.899414)">
                            <path d="M21.364,16.818 C21.364,16.818 23.251,5.663 15.545,0.818 C15.545,4.21 13.711,7.795 10.418,10.702 C7.125,13.609 0.935,20.133 1,27.109 C1.052,32.693 4.07,39.509 11.009,42.009 C11.036,35.369 16.728,32.609 16.999,26 C21.184,29.937 22.968,35.578 22.999,41.914 C28.014,40.068 32.329,35.772 32.943,28.401 C33.543,21.23 29.452,15.067 26.929,12.001" id="Shape"></path>
                        </g>
                    </g>
                </g>
            </g>
        </g>
    </g>
</svg>