<svg width="436" height="117" fill="none" xmlns="http://www.w3.org/2000/svg"><path fill-rule="evenodd" clip-rule="evenodd" d="M89.508.848L72.204 31.054v20.663h-6.41V31.054L48.492.848h7.12L69.213 25.17 82.743.848h6.765zm45.37 50.87h-7.762L106.893 10.82v40.896h-6.196V.847h7.905l20.152 41.113V.848h6.124v50.87zm54.409-44.915h-17.09v44.914h-6.48V6.803h-17.162V.848h40.732v5.955zm48.829 44.914h-6.48V28.256h-21.435v23.461h-6.409V.847h6.409v21.238h21.435V.848h6.48v50.87zm49.975 0h-33.398V.847h33.398v5.884h-27.06V22.23h20.438v6.027h-20.438v17.578h27.06v5.883zm53.166-44.914h-17.091v44.914h-6.48V6.803h-17.162V.848h40.733v5.955zm41.202 44.914H353.69v-5.309h11.18V6.085h-11.18V.848h28.769v5.237h-11.18v40.323h11.18v5.31zm53.541 0h-7.192l-12.676-20.663-12.533 20.663h-7.05l16.023-25.686L396.549.848h7.264l12.604 19.874L428.879.848h7.05L419.978 26.03 436 51.717z" fill="#fff"/><path opacity=".5" fill-rule="evenodd" clip-rule="evenodd" d="M5.978 51.093L.804 47.319 33.345 1.072l5.174 3.775L5.98 51.093z" fill="#fff"/><path fill-rule="evenodd" clip-rule="evenodd" d="M22.74 23.04h1.737c7.998 0 14.481 6.609 14.481 14.762 0 8.154-6.483 14.763-14.48 14.763H3.18C1.424 52.565 0 51.113 0 49.322s1.424-3.243 3.181-3.243h21.296c4.484 0 8.119-3.706 8.119-8.277 0-4.57-3.635-8.276-8.119-8.276H14.481C6.483 29.526 0 22.916 0 14.763 0 6.61 6.483 0 14.481 0h21.296c1.757 0 3.181 1.452 3.181 3.243s-1.424 3.243-3.181 3.243H14.48c-4.484 0-8.119 3.706-8.119 8.277 0 4.57 3.635 8.277 8.12 8.277h8.258zM1.243 66.13h32.6v5.814H7.604v16.278h21.855v5.814H7.603v17.15h27.191V117H1.244V66.13zm100.711 25.435c0-5.001.976-9.43 2.927-13.289 1.952-3.858 4.736-6.847 8.353-8.966 3.617-2.12 7.805-3.18 12.564-3.18 5.521 0 10.149 1.5 13.885 4.502 3.736 3 6.08 7.096 7.032 12.288h-6.211c-.904-3.477-2.677-6.192-5.318-8.145-2.642-1.953-5.866-2.929-9.673-2.929-3.427 0-6.449.834-9.067 2.5-2.617 1.668-4.628 3.99-6.032 6.967-1.404 2.977-2.106 6.394-2.106 10.252 0 3.81.702 7.216 2.106 10.217 1.404 3.001 3.415 5.335 6.032 7.002 2.618 1.667 5.64 2.5 9.067 2.5 3.854 0 7.067-.964 9.637-2.893 2.57-1.929 4.331-4.656 5.283-8.181h6.21c-.951 5.192-3.272 9.288-6.96 12.289-3.688 3.001-8.317 4.501-13.885 4.501-4.759 0-8.947-1.06-12.564-3.179-3.617-2.12-6.401-5.097-8.353-8.931-1.951-3.834-2.927-8.276-2.927-13.325zm62.582-25.435h6.148v22.133h25.579V66.13h6.147V117h-6.147V94.069h-25.579V117h-6.148V66.13zM219.243 117l18.791-50.87h7.249L264.004 117h-6.545l-5.208-13.735h-21.466L225.577 117h-6.334zm13.263-19.5h18.342l-9.207-23.74-9.135 23.74zM282.24 117V66.13h5.6l26.323 39.243V66.13h5.951V117h-5.601L288.19 77.758V117h-5.95zm54.707-25.435c0-5.001.96-9.43 2.881-13.289 1.92-3.858 4.661-6.847 8.221-8.966 3.56-2.12 7.683-3.18 12.367-3.18 5.434 0 9.99 1.5 13.667 4.502 3.678 3 5.985 7.073 6.922 12.217h-6.043c-.937-3.477-2.694-6.18-5.271-8.11-2.576-1.928-5.715-2.893-9.415-2.893-3.373 0-6.36.834-8.96 2.5-2.599 1.668-4.602 4.002-6.007 7.002-1.406 3.001-2.108 6.407-2.108 10.217 0 3.81.702 7.216 2.108 10.217 1.405 3.001 3.396 5.335 5.972 7.002 2.577 1.667 5.528 2.5 8.854 2.5 2.998 0 5.68-.583 8.046-1.75 2.365-1.167 4.216-2.834 5.551-5.001 1.335-2.168 2.002-4.704 2.002-7.61V95.21h-14.756v-5.716h20.729v27.078h-5.059l-.632-7.93c-1.359 2.238-3.397 4.191-6.114 5.858-2.717 1.667-5.996 2.501-9.837 2.501-4.497 0-8.503-1.072-12.016-3.215s-6.242-5.132-8.186-8.967c-1.944-3.834-2.916-8.251-2.916-13.253zm97.117-25.435v5.814h-26.131v16.278h21.763v5.814h-21.763v17.15h27.077V117h-33.409V66.13h32.463zm-375.823 0l12.604 19.875L83.307 66.13h7.05L74.405 91.314 90.428 117h-7.192L70.56 96.337 58.027 117h-7.05L67 91.314 50.977 66.13h7.264z" fill="#fff"/></svg>