<?xml version="1.0" encoding="UTF-8"?>
<svg width="463px" height="131px" viewBox="0 0 463 131" version="1.1" xmlns="http://www.w3.org/2000/svg" xmlns:xlink="http://www.w3.org/1999/xlink">
    <!-- Generator: Sketch 54.1 (76490) - https://sketchapp.com -->
    <title>Group 15</title>
    <desc>Created with Sketch.</desc>
    <g id="Page-1" stroke="none" stroke-width="1" fill="none" fill-rule="evenodd">
        <g id="Home-Page" transform="translate(-483.000000, -1342.000000)" fill="#FFFFFF">
            <g id="Synthetix.Exchange-section" transform="translate(154.000000, 1342.000000)">
                <g id="Group-15" transform="translate(329.000000, 0.000000)">
                    <g id="Group-14">
                        <g id="S-logo" transform="translate(0.000000, 0.444186)">
                            <path d="M24.5049084,25.4106513 C26.4922336,25.4106513 28.103279,25.4305078 28.103279,27.3740069 C28.103279,29.317506 26.4922336,29.6548385 24.5049084,29.6548385 L15.1639326,29.9488463 C6.11871331,29.9488463 1.04468056,23.7040731 1.04468056,14.85682 C1.04468056,10.500834 2.61072476,6.96299869 4.93892518,4.36137128 C7.33943093,1.6789469 10.571387,-5.68382236e-13 15.1639326,-5.68434189e-13 L39.2526824,-5.68434189e-13 C40.5382565,-1.8734658e-08 41.7261758,0.162107345 42.3689628,1.2508948 C42.7051596,1.82036308 42.7604719,2.12061692 42.7449869,2.43530614 C42.7308654,2.72228288 42.6755531,3.02162377 42.3689628,3.54094295 C41.7261758,4.62973041 40.5382565,4.80021804 39.2526824,4.80021802 L15.1639326,4.80021802 C12.6981689,4.83144991 9.88268599,5.92599251 8.08449941,7.76459847 C6.21793228,9.67312204 5.414775,12.3718762 5.414775,14.8751718 C5.414775,19.7900563 10.1386383,25.2218546 15.1639326,25.285506 L24.5049084,25.4106513 Z" id="Path"></path>
                            <path d="M23.6213271,50.4783434 C25.6086523,50.4783434 27.2196977,50.6233452 27.2196977,52.5668443 C27.2196977,54.5103434 25.6086523,54.9031254 23.6213271,54.9031254 L14.2803513,54.9031254 C9.83651399,54.9031254 6.60072795,53.4193966 4.16513421,50.8367396 C1.64319288,48.1625212 -1.0658141e-14,44.5503322 -1.0658141e-14,40.0496574 C-1.3333613e-14,31.2024044 5.23359166,25.4111434 14.2803513,25.4111434 L38.3691012,25.4111434 C39.6546752,25.4111434 40.8425946,25.3549447 41.4853816,26.4437322 C41.8054269,26.9858423 41.8808901,27.2856461 41.8822327,27.5847058 C41.8835865,27.8862851 41.8081233,28.4068057 41.4853816,28.9534831 C40.8425946,30.0422705 39.6546752,29.9930554 38.3691012,29.9930554 L14.2803513,29.9930554 C11.8275606,30.024123 9.05246143,30.9045841 7.27898512,32.7227883 C5.41895108,34.6297334 4.61919149,37.5336738 4.61919149,40.0496574 C4.61919149,44.964542 9.25505704,50.414692 14.2803513,50.4783434 L23.6213271,50.4783434 Z" id="Path" transform="translate(20.941125, 40.156888) scale(-1, -1) translate(-20.941125, -40.156888) "></path>
                            <polygon id="Path" fill-opacity="0.5" points="4.94713286 53.5965757 1.04468056 50.7777937 37.1155885 -8.45545856e-13 40.8168027 2.67342566"></polygon>
                        </g>
                        <path d="M57.8589763,0.0219813954 L62.7706602,0.0219813954 L80.8581307,30.3383349 L99.1015278,0.0219813954 L103.857285,0.0219813954 L82.9631381,34.9963163 L82.9631381,55.3651163 L78.7531234,55.3651163 L78.7531234,34.9963163 L57.8589763,0.0219813954 Z M119.149378,55.3651163 L119.149378,0.100930233 L123.125503,0.100930233 L155.402283,47.5491814 L155.402283,0.100930233 L159.534334,0.100930233 L159.534334,55.3651163 L155.558209,55.3651163 L123.28143,7.83791628 L123.28143,55.3651163 L119.149378,55.3651163 Z M175.528096,0.100930233 L217.160464,0.100930233 L217.160464,4.04837209 L198.449287,4.04837209 L198.449287,55.3651163 L194.239273,55.3651163 L194.239273,4.04837209 L175.528096,4.04837209 L175.528096,0.100930233 Z M233.154226,0.0219813954 L237.364241,0.0219813954 L237.364241,25.2066605 L268.939351,25.2066605 L268.939351,0.0219813954 L273.149366,0.0219813954 L273.149366,55.3651163 L268.939351,55.3651163 L268.939351,29.1541023 L237.364241,29.1541023 L237.364241,55.3651163 L233.154226,55.3651163 L233.154226,0.0219813954 Z M292.963326,0.100930233 L326.565481,0.100930233 L326.565481,4.04837209 L297.173341,4.04837209 L297.173341,25.2066605 L321.809723,25.2066605 L321.809723,29.1541023 L297.173341,29.1541023 L297.173341,51.4176744 L327.579003,51.4176744 L327.579003,55.3651163 L292.963326,55.3651163 L292.963326,0.100930233 Z M338.894971,0.100930233 L380.527339,0.100930233 L380.527339,4.04837209 L361.816162,4.04837209 L361.816162,55.3651163 L357.606147,55.3651163 L357.606147,4.04837209 L338.894971,4.04837209 L338.894971,0.100930233 Z M396.521101,0.100930233 L400.731115,0.100930233 L400.731115,55.3651163 L396.521101,55.3651163 L396.521101,0.100930233 Z M436.527539,27.1014326 L418.595995,0.100930233 L423.507679,0.100930233 L439.256253,23.7066326 L455.082789,0.100930233 L459.604657,0.100930233 L441.673113,27.1014326 L460.774105,55.3651163 L455.784458,55.3651163 L438.9444,30.5751814 L422.026378,55.3651163 L417.426547,55.3651163 L436.527539,27.1014326 Z" id="YNTHETIX" fill-rule="nonzero"></path>
                    </g>
                    <path d="M2,77.4550562 L35.1329338,77.4550562 L35.1329338,81.247191 L6.15122604,81.247191 L6.15122604,101.573034 L30.4435858,101.573034 L30.4435858,105.365169 L6.15122604,105.365169 L6.15122604,126.752809 L36.132303,126.752809 L36.132303,130.544944 L2,130.544944 L2,77.4550562 Z M71.0968563,103.393258 L53.4157083,77.4550562 L58.2588054,77.4550562 L73.7874658,100.132022 L89.3930007,77.4550562 L93.851725,77.4550562 L76.170577,103.393258 L95.0048433,130.544944 L90.0848717,130.544944 L73.4799675,106.730337 L56.7981888,130.544944 L52.26259,130.544944 L71.0968563,103.393258 Z M108.905768,104 C108.905768,98.7415467 109.930752,94.0646272 111.98075,89.9691011 C114.030749,85.873575 116.951953,82.6882136 120.74445,80.4129213 C124.536947,78.1376291 128.918753,77 133.889999,77 C139.578745,77 144.344919,78.4662775 148.188666,81.3988764 C152.032413,84.3314753 154.517999,88.4522206 155.645498,93.761236 L151.494272,93.761236 C150.366773,89.6151478 148.239932,86.4171461 145.113684,84.1671348 C141.987437,81.9171236 138.169372,80.7921348 133.659375,80.7921348 C129.559378,80.7921348 125.971935,81.77808 122.896937,83.75 C119.82194,85.72192 117.438852,88.4648701 115.747604,91.9789326 C114.056355,95.4929951 113.210743,99.4999775 113.210743,104 C113.210743,108.500022 114.056355,112.507005 115.747604,116.021067 C117.438852,119.53513 119.82194,122.27808 122.896937,124.25 C125.971935,126.22192 129.559378,127.207865 133.659375,127.207865 C138.271872,127.207865 142.102749,126.095517 145.152121,123.870787 C148.201494,121.646056 150.289899,118.410134 151.417398,114.162921 L155.568624,114.162921 C154.389875,119.522499 151.917101,123.668525 148.150229,126.601124 C144.383357,129.533723 139.629995,131 133.889999,131 C128.918753,131 124.536947,129.875011 120.74445,127.625 C116.951953,125.374989 114.030749,122.202268 111.98075,118.106742 C109.930752,114.011215 108.905768,109.309015 108.905768,104 Z M176.157635,77.3792135 L180.308861,77.3792135 L180.308861,101.573034 L211.443056,101.573034 L211.443056,77.3792135 L215.594283,77.3792135 L215.594283,130.544944 L211.443056,130.544944 L211.443056,105.365169 L180.308861,105.365169 L180.308861,130.544944 L176.157635,130.544944 L176.157635,77.3792135 Z M233.800183,130.544944 L254.556313,77.4550562 L259.476284,77.4550562 L280.232415,130.544944 L275.77369,130.544944 L269.316228,114.314607 L244.56262,114.314607 L238.105158,130.544944 L233.800183,130.544944 Z M245.792613,110.522472 L268.086235,110.522472 L256.939424,81.9297753 L245.792613,110.522472 Z M298.438315,130.544944 L298.438315,77.4550562 L302.358917,77.4550562 L334.184983,123.036517 L334.184983,77.4550562 L338.259335,77.4550562 L338.259335,130.544944 L334.338732,130.544944 L302.512666,84.8876404 L302.512666,130.544944 L298.438315,130.544944 Z M358.771471,104 C358.771471,98.7415467 359.796455,94.0646272 361.846454,89.9691011 C363.896452,85.873575 366.792031,82.6882136 370.533279,80.4129213 C374.274526,78.1376291 378.656332,77 383.678828,77 C389.316323,77 394.056874,78.4662775 397.900621,81.3988764 C401.744368,84.3314753 404.255578,88.4522206 405.434327,93.761236 L401.359976,93.761236 C400.129977,89.6151478 397.977511,86.4171461 394.902513,84.1671348 C391.827515,81.9171236 388.035075,80.7921348 383.525079,80.7921348 C379.425082,80.7921348 375.837638,81.77808 372.762641,83.75 C369.687643,85.72192 367.304556,88.4648701 365.613307,91.9789326 C363.922058,95.4929951 363.076447,99.4999775 363.076447,104 C363.076447,108.500022 363.909246,112.507005 365.57487,116.021067 C367.240493,119.53513 369.597956,122.27808 372.647329,124.25 C375.696702,126.22192 379.194459,127.207865 383.140706,127.207865 C387.035703,127.207865 390.430962,126.411525 393.326585,124.81882 C396.222207,123.226116 398.451547,121.05198 400.014671,118.296348 C401.577795,115.540717 402.359345,112.418557 402.359345,108.929775 L402.359345,106.654494 L384.678197,106.654494 L384.678197,102.86236 L406.356822,102.86236 L406.356822,130.544944 L402.897467,130.544944 L402.513094,118.410112 C401.231845,121.949456 398.925631,124.932572 395.594384,127.359551 C392.263137,129.786529 388.086327,131 383.063831,131 C378.348835,131 374.146401,129.862371 370.456404,127.587079 C366.766407,125.311786 363.896452,122.126425 361.846454,118.030899 C359.796455,113.935373 358.771471,109.258453 358.771471,104 Z M428.867697,77.4550562 L462.000631,77.4550562 L462.000631,81.247191 L433.018923,81.247191 L433.018923,101.573034 L457.311283,101.573034 L457.311283,105.365169 L433.018923,105.365169 L433.018923,126.752809 L463,126.752809 L463,130.544944 L428.867697,130.544944 L428.867697,77.4550562 Z" id="EXCHANGE" fill-rule="nonzero"></path>
                </g>
            </g>
        </g>
    </g>
</svg>