<svg width="1152" height="608" fill="none" xmlns="http://www.w3.org/2000/svg"><path d="M13.004 58.5H8.886a3.95 3.95 0 01-2.468-.866C3.831 55.565 0 57.407 0 60.72V603.5a4 4 0 004 4h1144a4 4 0 004-4V12.484c0-1.25-.58-2.428-1.58-3.185l-6.74-5.12c-2.1-1.599-5.15-.754-6.13 1.7l-5.65 14.12a4.002 4.002 0 01-4.98 2.308l-14.66-4.885a3.97 3.97 0 00-2.52 0l-1.58.525a3.99 3.99 0 01-3.19-.29l-5.75-3.16a3.735 3.735 0 00-4.69.906 3.725 3.725 0 01-5.44.355L1084 10.97a3.943 3.943 0 00-1.13-.747l-12.64-5.578a4.008 4.008 0 00-5.31 2.112l-3.54 8.45a4.004 4.004 0 01-4.81 2.293l-6.99-2.04a2.326 2.326 0 00-2.54.88 2.312 2.312 0 01-3.47.34l-4.37-4.106a4 4 0 00-4.8-.517l-1.81 1.087a3.991 3.991 0 01-5.25-1.03L1020.2 2.6A4.005 4.005 0 001017 1h-5.97a4.007 4.007 0 00-3.85 2.921l-8.862 31.657a4 4 0 01-3.852 2.922h-2.306a4 4 0 00-3.689 2.453l-3.959 9.441a4 4 0 01-5.151 2.176l-8.383-3.293a4 4 0 00-3.729.427l-4.166 2.864a4 4 0 01-4.27.166l-5.405-3.13a4.002 4.002 0 00-3.861-.081l-7.675 4.02c-.573.3-1.21.457-1.856.457h-6.088a4 4 0 00-3.813 2.791l-4.446 14.024a4.001 4.001 0 01-4.892 2.643l-8.137-2.279a4.005 4.005 0 01-1.188-.555l-6.059-4.166a4.001 4.001 0 00-3.051-.626l-5.41 1.082a3.999 3.999 0 01-4.324-2.06l-7.483-14.217a4.001 4.001 0 00-3.54-2.137h-2.313a4 4 0 00-3.745 2.596l-6.434 17.156a4 4 0 01-5.608 2.135l-3.996-2.103a4 4 0 00-3.091-.267l-12.553 4.05a4 4 0 01-2.664-.074l-10.988-4.226a4 4 0 00-1.436-.267h-5.024c-.485 0-.965-.088-1.418-.26l-11.51-4.366a4.001 4.001 0 00-4.122.791l-2.394 2.195a4 4 0 01-4.07.81l-1.534-.557a3.999 3.999 0 00-3.263.237l-10.744 5.785a4.005 4.005 0 01-1.443.452l-14.567 1.665a4 4 0 01-3.55-1.441l-7.353-8.987c-2.03-2.48-6.006-1.686-6.927 1.383l-4.027 13.422a4 4 0 01-5.472 2.498l-4.815-2.166a4.002 4.002 0 00-2.138-.322L576.843 98.332a4.002 4.002 0 01-2.512-.514l-8.296-4.84a4 4 0 00-4.706.496l-1.426 1.296a4 4 0 01-4.267.717l-3.881-1.664a4 4 0 00-1.576-.323h-8.621a3.998 3.998 0 01-3.254-1.675l-4.14-5.796a4 4 0 00-5.341-1.088l-4.006 2.449a4.001 4.001 0 01-3.753.223l-8.301-3.805a4 4 0 00-3.49.076l-16.035 8.213a4 4 0 01-4.796-.884l-.515-.572a4 4 0 00-4.568-.993l-6.929 3.013a4 4 0 01-3.715-.276l-5.242-3.277a4 4 0 00-2.12-.608h-5.286a3.999 3.999 0 01-3.636-2.333l-3.164-6.902a4 4 0 00-4.27-2.282l-23.321 3.748a3.999 3.999 0 01-3.034-.75l-2.844-2.132a3.999 3.999 0 00-3.885-.514l-1.893.757a4 4 0 01-2.105.238l-22.405-3.515a4.001 4.001 0 00-3.449 1.124l-1.562 1.562a4 4 0 01-6.187-.655l-1.422-2.197a4 4 0 00-3.924-1.787l-7.944 1.135a4 4 0 01-4.432-2.936l-7.07-26.708a4 4 0 00-4.877-2.847l-16.299 4.252a4 4 0 01-4.402-1.75l-1.901-3.042a4 4 0 00-4.362-1.76l-3.449.861a4 4 0 01-3.208-.565l-16.63-11.225a4 4 0 00-3.954-.297l-16.902 8.028a4.002 4.002 0 01-2.175.36l-8.366-.965a4 4 0 00-4.341 3.011L249.632 90.95a3.999 3.999 0 01-3.225 2.983l-7.802 1.3a4.003 4.003 0 00-2.568 1.58l-2.592 3.536a4 4 0 01-4.923 1.256l-11.518-5.4a4.001 4.001 0 00-3.065-.136l-8.239 2.996a4.002 4.002 0 01-2.431.097l-11.94-3.294a4 4 0 00-2.602.163l-12.814 5.339a4 4 0 01-5.314-2.37l-4.045-11.56c-.762-2.176-3.439-2.958-5.253-1.533a3.363 3.363 0 01-5.112-1.193l-5.341-11.167c-1.49-3.115-5.962-3.006-7.297.179l-1.877 4.476a4 4 0 01-4.185 2.423l-14.865-1.858a3.999 3.999 0 01-3.081-2.18l-.368-.735a4 4 0 00-2.075-1.918l-16.377-6.64A4.004 4.004 0 0099.22 67h-6.255a4 4 0 01-2.584-.947l-2.803-2.372a4 4 0 00-5.16-.006l-5.053 4.255a4 4 0 01-4.115.632l-1.095-.456a4 4 0 00-4.549 1.059l-8.788 10.043a4 4 0 01-6.259-.3l-4.907-6.827c-1.705-2.372-5.294-2.177-6.73.366l-1.012 1.788a4 4 0 01-6.106 1.05L15.628 59.483a4 4 0 00-2.625-.982z" fill="url(#paint0_linear)"/><path d="M0 52.5l6.404 5.123a4 4 0 002.5.877h4.1a4 4 0 012.625.982l18.174 15.804a4 4 0 006.107-1.05l1.011-1.79c1.437-2.542 5.026-2.737 6.73-.365l4.908 6.828a4 4 0 006.259.3l8.788-10.044a4 4 0 014.549-1.059l1.095.456a4 4 0 004.115-.632l5.052-4.255a4 4 0 015.16.006l2.805 2.373a4 4 0 002.583.946h6.255c.515 0 1.025.1 1.503.293l16.377 6.64a4 4 0 012.075 1.918l.368.734a3.999 3.999 0 003.081 2.18l14.865 1.859a4 4 0 004.185-2.423l1.877-4.476c1.335-3.185 5.807-3.294 7.297-.179l5.341 11.167a3.363 3.363 0 005.112 1.193v0c1.814-1.425 4.491-.643 5.253 1.534l4.045 11.559a4 4 0 005.314 2.37l12.814-5.339a4 4 0 012.602-.163l11.94 3.293c.801.221 1.65.188 2.431-.096l8.239-2.996a4.001 4.001 0 013.065.137l11.518 5.399a4 4 0 004.923-1.256l2.592-3.535a4.003 4.003 0 012.568-1.58l7.802-1.3a3.999 3.999 0 003.225-2.984l13.022-52.535a4 4 0 014.341-3.01l8.366.965a4.002 4.002 0 002.175-.361l16.902-8.029a4 4 0 013.954.298l16.63 11.225a4 4 0 003.208.566l3.449-.863a4 4 0 014.362 1.76l1.901 3.043a4 4 0 004.402 1.75l16.299-4.252a4 4 0 014.877 2.847l7.07 26.708a4 4 0 004.432 2.936l7.944-1.135a4 4 0 013.924 1.787l1.422 2.197a4 4 0 006.187.655l1.562-1.563a4.001 4.001 0 013.449-1.123l22.405 3.515a4 4 0 002.105-.238l1.893-.757a3.999 3.999 0 013.885.514l2.844 2.132a3.999 3.999 0 003.034.75l23.321-3.748a4 4 0 014.27 2.282l3.164 6.902a3.999 3.999 0 003.636 2.333h5.286c.749 0 1.484.21 2.12.608l5.242 3.276a4 4 0 003.715.277l6.929-3.013a4 4 0 014.568.993l.515.572a4 4 0 004.796.884l16.035-8.213a4.002 4.002 0 013.491-.076l8.3 3.805c1.21.554 2.617.47 3.753-.223l4.006-2.449a4 4 0 015.341 1.088l4.14 5.796a3.998 3.998 0 003.254 1.675h8.621a4 4 0 011.576.323l3.881 1.664a4 4 0 004.267-.717l1.426-1.296a4 4 0 014.706-.495l8.296 4.84a4.002 4.002 0 002.512.513L734.386 78.64a4.002 4.002 0 012.138.322l4.815 2.166a4 4 0 005.472-2.498l4.027-13.422c.921-3.07 4.897-3.864 6.927-1.383l7.353 8.987a4 4 0 003.55 1.441l14.567-1.665a4.005 4.005 0 001.443-.452l10.743-5.785a4.001 4.001 0 013.264-.237l1.534.558a4 4 0 004.07-.811l2.394-2.194a4 4 0 014.122-.792l11.51 4.366c.453.172.933.26 1.418.26h5.024a4 4 0 011.436.267l10.988 4.226a4 4 0 002.664.073l12.553-4.05a4 4 0 013.091.268l3.996 2.103a4 4 0 005.608-2.135l6.434-17.156a4 4 0 013.745-2.596h2.313c1.485 0 2.848.823 3.54 2.137l7.483 14.217a3.999 3.999 0 004.324 2.06l5.41-1.082a4.001 4.001 0 013.051.626l6.059 4.166c.363.249.764.437 1.188.555l8.137 2.279a4.001 4.001 0 004.892-2.643l4.446-14.024A4 4 0 01933.928 54h6.088c.646 0 1.283-.157 1.856-.457l7.675-4.02a4.002 4.002 0 013.861.081l5.405 3.13a4 4 0 004.27-.166l4.166-2.864a4 4 0 013.729-.427l8.383 3.293a4 4 0 005.151-2.176l3.959-9.44a4 4 0 013.689-2.454h2.306a4 4 0 003.852-2.922l8.862-31.657A4.007 4.007 0 011011.03 1h5.97c1.26 0 2.44.593 3.2 1.6l7.14 9.514a3.991 3.991 0 005.25 1.03l1.81-1.087a4 4 0 014.8.517l4.37 4.106c1.02.963 2.66.803 3.47-.34v0a2.326 2.326 0 012.54-.88l6.99 2.04c1.95.57 4.02-.417 4.81-2.293l3.54-8.45a4.008 4.008 0 015.31-2.112l12.64 5.578c.42.183.8.436 1.13.747l5.09 4.788a3.725 3.725 0 005.44-.354v0a3.735 3.735 0 014.69-.907l5.75 3.16a3.99 3.99 0 003.19.29l1.58-.525a3.97 3.97 0 012.52 0l14.66 4.885c2.01.67 4.19-.342 4.98-2.309l5.65-14.12c.98-2.453 4.03-3.298 6.13-1.699L1152 10.5" stroke="#484697" stroke-width="2"/><defs><linearGradient id="paint0_linear" x1="576" y1="-1490.5" x2="576" y2="607" gradientUnits="userSpaceOnUse"><stop offset=".195" stop-color="#2B2F64"/><stop offset="1" stop-color="#090818"/></linearGradient></defs></svg>