<?xml version="1.0" encoding="UTF-8"?>
<svg width="46px" height="43px" viewBox="0 0 46 43" version="1.1" xmlns="http://www.w3.org/2000/svg" xmlns:xlink="http://www.w3.org/1999/xlink">
    <!-- Generator: Sketch 50 (54983) - http://www.bohemiancoding.com/sketch -->
    <title>handout</title>
    <desc>Created with Sketch.</desc>
    <defs></defs>
    <g id="ðŸƒ-Mintr" stroke="none" stroke-width="1" fill="none" fill-rule="evenodd">
        <g id="Home" transform="translate(-886.000000, -398.000000)" stroke="#5485FF" stroke-width="2">
            <g id="Group-7" transform="translate(418.000000, 204.308594)">
                <g id="Group-5" transform="translate(0.000000, 194.000000)">
                    <g id="Group" transform="translate(378.000000, 0.100586)">
                        <g id="handout" transform="translate(91.500000, 0.738281)">
                            <path d="M6,22 L9,22 C12.284,22 15.3,23.462 17,26 L23,26 C25.907,26 29,29.093 29,32 L15,32" id="Shape"></path>
                            <path d="M27.176,28 L37,28 C41.833,28 43,32 43,32 L21.797,39.746 C20.15,40.138 18.427,40.076 16.812,39.566 L6,35" id="Shape"></path>
                            <circle id="Oval" stroke-linecap="square" cx="31" cy="15" r="5"></circle>
                            <circle id="Oval" stroke-linecap="square" cx="17" cy="5" r="5"></circle>
                            <rect id="Rectangle-path" stroke-linecap="square" x="0" y="20" width="6" height="16"></rect>
                        </g>
                    </g>
                </g>
            </g>
        </g>
    </g>
</svg>