<svg width="1152" height="600" viewBox="0 0 1152 600" fill="none" xmlns="http://www.w3.org/2000/svg">
<mask id="mask0" mask-type="alpha" maskUnits="userSpaceOnUse" x="0" y="0" width="1152" height="600">
<rect width="1152" height="600" fill="#C4C4C4"/>
</mask>
<g mask="url(#mask0)">
<g opacity="0.7">
<path d="M13.0041 232.5H8.88568C7.98869 232.5 7.1184 232.195 6.41797 231.634C3.83148 229.565 0 231.407 0 234.719V777.5C0 779.709 1.79086 781.5 4 781.5H1148C1150.21 781.5 1152 779.709 1152 777.5V186.484C1152 185.234 1151.42 184.056 1150.42 183.299L1143.68 178.179C1141.58 176.58 1138.53 177.425 1137.55 179.878L1131.9 193.998C1131.11 195.965 1128.93 196.977 1126.92 196.307L1112.26 191.422C1111.44 191.148 1110.56 191.148 1109.74 191.422L1108.16 191.947C1107.1 192.299 1105.94 192.194 1104.97 191.657L1099.22 188.497C1097.64 187.629 1095.67 188.011 1094.53 189.404C1093.16 191.078 1090.66 191.241 1089.09 189.758L1084 184.97C1083.67 184.659 1083.29 184.406 1082.87 184.223L1070.23 178.645C1068.18 177.741 1065.79 178.694 1064.92 180.757L1061.38 189.207C1060.59 191.083 1058.52 192.07 1056.57 191.5L1049.58 189.461C1048.63 189.185 1047.62 189.537 1047.04 190.339C1046.23 191.483 1044.59 191.643 1043.57 190.68L1039.2 186.574C1037.9 185.347 1035.94 185.136 1034.4 186.057L1032.59 187.144C1030.84 188.199 1028.57 187.754 1027.34 186.114L1020.2 176.6C1019.44 175.593 1018.26 175 1017 175H1011.03C1009.24 175 1007.67 176.194 1007.18 177.921L998.318 209.579C997.834 211.306 996.26 212.5 994.466 212.5H992.16C990.549 212.5 989.094 213.467 988.471 214.953L984.512 224.394C983.672 226.399 981.384 227.365 979.361 226.57L970.978 223.277C969.741 222.791 968.344 222.951 967.249 223.704L963.083 226.568C961.811 227.443 960.149 227.507 958.813 226.734L953.408 223.604C952.22 222.917 950.763 222.886 949.547 223.523L941.872 227.543C941.299 227.843 940.662 228 940.016 228H933.928C932.185 228 930.642 229.129 930.115 230.791L925.669 244.815C925.017 246.87 922.853 248.039 920.777 247.458L912.64 245.179C912.216 245.061 911.815 244.873 911.452 244.623L905.393 240.458C904.502 239.845 903.402 239.62 902.342 239.832L896.932 240.914C895.193 241.261 893.433 240.423 892.608 238.854L885.125 224.637C884.433 223.323 883.07 222.5 881.585 222.5H879.272C877.605 222.5 876.112 223.534 875.527 225.096L869.093 242.252C868.248 244.506 865.616 245.508 863.485 244.387L859.489 242.284C858.537 241.783 857.423 241.686 856.398 242.017L843.845 246.066C842.975 246.347 842.034 246.321 841.181 245.993L830.193 241.767C829.735 241.59 829.248 241.5 828.757 241.5H823.733C823.248 241.5 822.768 241.412 822.315 241.24L810.805 236.874C809.392 236.338 807.797 236.644 806.683 237.666L804.289 239.86C803.19 240.868 801.621 241.18 800.219 240.671L798.685 240.113C797.613 239.723 796.426 239.809 795.422 240.35L784.678 246.135C784.23 246.376 783.74 246.53 783.235 246.587L768.668 248.252C767.317 248.407 765.979 247.864 765.118 246.811L757.765 237.824C755.735 235.343 751.759 236.138 750.838 239.207L746.811 252.629C746.117 254.944 743.543 256.119 741.339 255.127L736.524 252.961C735.854 252.659 735.115 252.548 734.386 252.639L576.843 272.332C575.972 272.441 575.089 272.26 574.331 271.818L566.035 266.979C564.526 266.099 562.621 266.299 561.329 267.474L559.903 268.77C558.744 269.824 557.076 270.104 555.636 269.487L551.755 267.823C551.257 267.61 550.721 267.5 550.179 267.5H541.558C540.267 267.5 539.054 266.876 538.304 265.825L534.164 260.03C532.945 258.322 530.613 257.847 528.823 258.941L524.817 261.39C523.681 262.084 522.274 262.167 521.064 261.613L512.763 257.808C511.65 257.298 510.364 257.326 509.273 257.884L493.238 266.097C491.624 266.924 489.655 266.561 488.442 265.213L487.927 264.641C486.776 263.362 484.936 262.962 483.359 263.648L476.43 266.661C475.222 267.186 473.832 267.083 472.715 266.385L467.473 263.108C466.837 262.711 466.103 262.5 465.353 262.5H460.067C458.503 262.5 457.082 261.588 456.431 260.167L453.267 253.265C452.518 251.631 450.771 250.697 448.997 250.983L425.676 254.731C424.605 254.903 423.51 254.632 422.642 253.981L419.798 251.849C418.682 251.011 417.209 250.816 415.913 251.335L414.02 252.092C413.352 252.359 412.625 252.441 411.915 252.33L389.51 248.815C388.247 248.617 386.965 249.035 386.061 249.939L384.499 251.501C382.698 253.302 379.695 252.984 378.312 250.846L376.89 248.649C376.043 247.339 374.511 246.641 372.966 246.862L365.022 247.997C363.014 248.284 361.109 247.022 360.59 245.061L353.52 218.353C352.956 216.223 350.776 214.95 348.643 215.506L332.344 219.758C330.652 220.2 328.869 219.491 327.942 218.008L326.041 214.966C325.122 213.496 323.361 212.785 321.679 213.205L318.23 214.068C317.129 214.343 315.963 214.137 315.022 213.502L298.392 202.277C297.219 201.486 295.716 201.372 294.438 201.979L277.536 210.008C276.859 210.33 276.105 210.454 275.361 210.369L266.995 209.403C264.996 209.173 263.138 210.462 262.654 212.415L249.632 264.949C249.249 266.497 247.981 267.67 246.407 267.932L238.605 269.232C237.576 269.404 236.655 269.971 236.037 270.813L233.445 274.348C232.315 275.889 230.252 276.415 228.522 275.604L217.004 270.205C216.041 269.754 214.938 269.704 213.939 270.068L205.7 273.064C204.919 273.348 204.07 273.381 203.269 273.16L191.329 269.867C190.468 269.629 189.552 269.687 188.727 270.03L175.913 275.369C173.79 276.254 171.359 275.17 170.599 272.999L166.554 261.44C165.792 259.263 163.115 258.481 161.301 259.906C159.608 261.237 157.118 260.655 156.189 258.713L150.848 247.546C149.358 244.431 144.886 244.54 143.551 247.725L141.674 252.201C140.98 253.856 139.269 254.846 137.489 254.624L122.624 252.766C121.297 252.6 120.141 251.781 119.543 250.585L119.175 249.851C118.74 248.98 118.002 248.298 117.1 247.933L100.723 241.293C100.245 241.1 99.7352 241 99.22 241H92.9652C92.0191 241 91.1037 240.665 90.3815 240.054L87.5776 237.681C86.0889 236.421 83.9089 236.419 82.4173 237.675L77.3647 241.93C76.2195 242.894 74.6317 243.138 73.2497 242.562L72.1549 242.106C70.5687 241.445 68.7376 241.871 67.6061 243.164L58.8178 253.208C57.1218 255.147 54.0626 255 52.5594 252.909L47.6516 246.081C45.9472 243.709 42.3584 243.904 40.9213 246.447L39.9104 248.235C38.6652 250.438 35.713 250.946 33.8035 249.286L15.6288 233.482C14.9009 232.849 13.9687 232.5 13.0041 232.5Z" fill="url(#paint0_linear)"/>
<g filter="url(#filter0_d)">
<path d="M0 226.5L6.40434 231.623C7.1136 232.191 7.99484 232.5 8.90312 232.5H13.0041C13.9687 232.5 14.9009 232.849 15.6288 233.482L33.8034 249.286C35.713 250.946 38.6652 250.438 39.9104 248.235L40.9213 246.447C42.3584 243.904 45.9472 243.709 47.6516 246.081L52.5594 252.909C54.0626 255 57.1218 255.147 58.8178 253.208L67.6061 243.164C68.7376 241.871 70.5687 241.445 72.1549 242.106L73.2497 242.562C74.6317 243.138 76.2195 242.894 77.3647 241.93L82.4173 237.675C83.9089 236.419 86.0889 236.421 87.5776 237.681L90.3815 240.054C91.1037 240.665 92.0191 241 92.9652 241H99.22C99.7352 241 100.245 241.1 100.723 241.293L117.1 247.933C118.002 248.298 118.74 248.98 119.175 249.851L119.543 250.585C120.141 251.781 121.297 252.6 122.624 252.766L137.489 254.624C139.269 254.846 140.98 253.856 141.674 252.201L143.551 247.725C144.886 244.54 149.358 244.431 150.848 247.546L156.189 258.713C157.118 260.655 159.608 261.237 161.301 259.906V259.906C163.115 258.481 165.792 259.263 166.554 261.44L170.599 272.999C171.359 275.17 173.79 276.254 175.913 275.369L188.727 270.03C189.552 269.687 190.468 269.629 191.329 269.867L203.269 273.16C204.07 273.381 204.919 273.348 205.7 273.064L213.939 270.068C214.938 269.704 216.041 269.754 217.004 270.205L228.522 275.604C230.252 276.415 232.315 275.889 233.445 274.348L236.037 270.813C236.655 269.971 237.576 269.404 238.605 269.232L246.407 267.932C247.981 267.67 249.249 266.497 249.632 264.949L262.654 212.415C263.138 210.462 264.996 209.173 266.995 209.403L275.361 210.369C276.105 210.454 276.859 210.33 277.536 210.008L294.438 201.979C295.716 201.372 297.219 201.486 298.392 202.277L315.022 213.502C315.963 214.137 317.129 214.343 318.23 214.068L321.679 213.205C323.361 212.785 325.122 213.496 326.041 214.966L327.942 218.008C328.869 219.491 330.652 220.2 332.344 219.758L348.643 215.506C350.776 214.95 352.956 216.223 353.52 218.353L360.59 245.061C361.109 247.022 363.014 248.284 365.022 247.997L372.966 246.862C374.511 246.641 376.043 247.339 376.89 248.649L378.312 250.846C379.695 252.984 382.698 253.302 384.499 251.501L386.061 249.939C386.965 249.035 388.247 248.617 389.51 248.815L411.915 252.33C412.625 252.441 413.352 252.359 414.02 252.092L415.913 251.335C417.209 250.816 418.682 251.011 419.798 251.849L422.642 253.981C423.51 254.632 424.605 254.903 425.676 254.731L448.997 250.983C450.771 250.697 452.518 251.631 453.267 253.265L456.431 260.167C457.082 261.588 458.503 262.5 460.067 262.5H465.353C466.102 262.5 466.837 262.711 467.473 263.108L472.715 266.385C473.832 267.083 475.222 267.186 476.43 266.661L483.359 263.648C484.936 262.962 486.776 263.362 487.927 264.641L488.442 265.213C489.655 266.561 491.624 266.924 493.238 266.097L509.273 257.884C510.364 257.326 511.65 257.298 512.764 257.808L521.064 261.613C522.274 262.167 523.681 262.084 524.817 261.39L528.823 258.941C530.613 257.847 532.945 258.322 534.164 260.03L538.304 265.825C539.054 266.876 540.267 267.5 541.558 267.5H550.179C550.721 267.5 551.257 267.61 551.755 267.823L555.636 269.487C557.076 270.104 558.744 269.824 559.903 268.77L561.329 267.474C562.621 266.299 564.526 266.099 566.035 266.979L574.331 271.818C575.089 272.26 575.972 272.441 576.843 272.332L734.386 252.639C735.115 252.548 735.854 252.659 736.524 252.961L741.339 255.127C743.543 256.119 746.117 254.944 746.811 252.629L750.838 239.207C751.759 236.138 755.735 235.343 757.765 237.824L765.118 246.811C765.979 247.864 767.317 248.407 768.668 248.252L783.235 246.587C783.74 246.53 784.23 246.376 784.678 246.135L795.421 240.35C796.426 239.809 797.613 239.723 798.685 240.113L800.219 240.671C801.621 241.18 803.19 240.868 804.289 239.86L806.683 237.666C807.797 236.644 809.392 236.338 810.805 236.874L822.315 241.24C822.768 241.412 823.248 241.5 823.733 241.5H828.757C829.248 241.5 829.735 241.59 830.193 241.767L841.181 245.993C842.034 246.321 842.975 246.347 843.845 246.066L856.398 242.017C857.423 241.686 858.537 241.783 859.489 242.284L863.485 244.387C865.616 245.508 868.248 244.506 869.093 242.252L875.527 225.096C876.112 223.534 877.605 222.5 879.272 222.5H881.585C883.07 222.5 884.433 223.323 885.125 224.637L892.608 238.854C893.433 240.423 895.193 241.261 896.932 240.914L902.342 239.832C903.402 239.62 904.502 239.845 905.393 240.458L911.452 244.624C911.815 244.873 912.216 245.061 912.64 245.179L920.777 247.458C922.853 248.039 925.017 246.87 925.669 244.815L930.115 230.791C930.642 229.129 932.185 228 933.928 228H940.016C940.662 228 941.299 227.843 941.872 227.543L949.547 223.523C950.763 222.886 952.22 222.917 953.408 223.604L958.813 226.734C960.149 227.507 961.811 227.443 963.083 226.568L967.249 223.704C968.344 222.951 969.741 222.791 970.978 223.277L979.361 226.57C981.384 227.365 983.671 226.399 984.512 224.394L988.471 214.953C989.094 213.467 990.549 212.5 992.16 212.5H994.466C996.26 212.5 997.834 211.306 998.318 209.579L1007.18 177.921C1007.67 176.194 1009.24 175 1011.03 175H1017C1018.26 175 1019.44 175.593 1020.2 176.6L1027.34 186.114C1028.57 187.754 1030.84 188.199 1032.59 187.144L1034.4 186.057C1035.94 185.136 1037.9 185.347 1039.2 186.574L1043.57 190.68C1044.59 191.643 1046.23 191.483 1047.04 190.339V190.339C1047.62 189.537 1048.63 189.185 1049.58 189.461L1056.57 191.5C1058.52 192.07 1060.59 191.083 1061.38 189.207L1064.92 180.757C1065.79 178.694 1068.18 177.741 1070.23 178.645L1082.87 184.223C1083.29 184.406 1083.67 184.659 1084 184.97L1089.09 189.758C1090.66 191.241 1093.16 191.078 1094.53 189.404V189.404C1095.67 188.011 1097.64 187.629 1099.22 188.497L1104.97 191.657C1105.94 192.194 1107.1 192.299 1108.16 191.947L1109.74 191.422C1110.56 191.148 1111.44 191.148 1112.26 191.422L1126.92 196.307C1128.93 196.977 1131.11 195.965 1131.9 193.998L1137.55 179.878C1138.53 177.425 1141.58 176.58 1143.68 178.179L1152 184.5" stroke="#484697" stroke-width="2"/>
</g>
</g>
</g>
<defs>
<filter id="filter0_d" x="-40.6248" y="134" width="1233.23" height="182.983" filterUnits="userSpaceOnUse" color-interpolation-filters="sRGB">
<feFlood flood-opacity="0" result="BackgroundImageFix"/>
<feColorMatrix in="SourceAlpha" type="matrix" values="0 0 0 0 0 0 0 0 0 0 0 0 0 0 0 0 0 0 127 0"/>
<feOffset/>
<feGaussianBlur stdDeviation="20"/>
<feColorMatrix type="matrix" values="0 0 0 0 0.337255 0 0 0 0 0.254902 0 0 0 0 0.94902 0 0 0 1 0"/>
<feBlend mode="normal" in2="BackgroundImageFix" result="effect1_dropShadow"/>
<feBlend mode="normal" in="SourceGraphic" in2="effect1_dropShadow" result="shape"/>
</filter>
<linearGradient id="paint0_linear" x1="576" y1="-1316.5" x2="576" y2="781" gradientUnits="userSpaceOnUse">
<stop offset="0.524902" stop-color="#2B2F64"/>
<stop offset="1" stop-color="#090818" stop-opacity="0"/>
</linearGradient>
</defs>
</svg>
