<?xml version="1.0" encoding="UTF-8"?>
<svg width="76px" height="76px" viewBox="0 0 76 76" version="1.1" xmlns="http://www.w3.org/2000/svg" xmlns:xlink="http://www.w3.org/1999/xlink">
    <!-- Generator: Sketch 54.1 (76490) - https://sketchapp.com -->
    <title>ico-user-level-4</title>
    <desc>Created with Sketch.</desc>
    <g id="Page-1" stroke="none" stroke-width="1" fill="none" fill-rule="evenodd">
        <g id="ico-user-level-4" fill-rule="nonzero">
            <ellipse id="Oval-2" fill="#0A0817" cx="38" cy="37.9905482" rx="38" ry="37.9905482"></ellipse>
            <g id="Group-17" transform="translate(16.779221, 21.000000)">
                <g id="Group" transform="translate(0.000000, 13.000000)">
                    <polygon id="Path" fill-opacity="0.5" fill="#727272" points="2.38498978 19.3220339 0.332467532 17.8644143 13.2409842 0 15.2935065 1.4576196"></polygon>
                    <path d="M9.21741158,8.72896897 C9.92961889,8.72896897 10.506977,9.27909275 10.506977,9.95770482 C10.506977,10.6363169 9.92961889,11.1864407 9.21741158,11.1864407 L5.86984113,11.1864407 C2.62826236,11.1864407 0,8.68268097 0,5.59348334 C-9.72958904e-16,2.5042857 2.62771032,0 5.86984113,0 L14.5026424,0 C14.9633597,-6.5413869e-09 15.3890801,0.234195723 15.6194388,0.614367922 C15.8497975,0.994540121 15.8497975,1.46293159 15.6194388,1.84310379 C15.3890801,2.22327599 14.9633597,2.45747172 14.5026424,2.45747171 L5.86984113,2.45747171 C4.06890222,2.4796969 2.62120307,3.87708883 2.62120307,5.59322034 C2.62120307,7.30935184 4.06890222,8.70674378 5.86984113,8.72896897 L9.21741158,8.72896897 Z" id="Path" fill="#FFFFFF"></path>
                    <path d="M6.57479623,11.2707999 C5.86258893,11.2707999 5.28523083,10.7207279 5.28523083,10.0421796 C5.28523083,9.36363137 5.86258893,8.81355932 6.57479623,8.81355932 L9.92236667,8.81355932 C13.1639454,8.81355932 15.7922078,11.3176095 15.7922078,14.4065167 C15.7922078,17.4954238 13.1644975,20 9.92236667,20 L1.28956545,20 C0.828848095,20 0.403127695,19.7658263 0.172769012,19.3856899 C-0.0575896707,19.0055534 -0.0575896707,18.537206 0.172769012,18.1570695 C0.403127695,17.7769331 0.828848095,17.5427594 1.28956545,17.5427594 L9.92236667,17.5427594 C11.7400807,17.5427594 13.213629,16.1388512 13.213629,14.4070426 C13.213629,12.6752341 11.7400807,11.2713259 9.92236667,11.2713259 L6.57479623,11.2713259 L6.57479623,11.2707999 Z" id="Path" fill="#FFFFFF"></path>
                </g>
                <polygon id="Path" fill="#FFFFFF" points="27.2734413 16.1228571 17.4406212 0 21.9381443 0 29.7426697 12.8228571 37.6353818 0 41.780158 0 31.9473379 16.1228571 42.4415584 33 37.899942 33 29.4340162 19.4228571 20.923997 33 16.7792208 33"></polygon>
            </g>
        </g>
    </g>
</svg>