<?xml version="1.0" encoding="UTF-8"?>
<svg width="492px" height="485px" viewBox="0 0 492 485" version="1.1" xmlns="http://www.w3.org/2000/svg" xmlns:xlink="http://www.w3.org/1999/xlink">
    <!-- Generator: Sketch 55.2 (78181) - https://sketchapp.com -->
    <title>Synthetix.Exchange Logo</title>
    <desc>Created with Sketch.</desc>
    <g id="Page-1" stroke="none" stroke-width="1" fill="none" fill-rule="evenodd">
        <g id="Synthetix.Exchange-Logo">
            <ellipse id="Mask" fill="#0A0817" cx="246" cy="242.5" rx="246" ry="242.5"></ellipse>
            <g id="Group-15" transform="translate(45.000000, 186.000000)" fill="#FFFFFF">
                <g id="Group-14">
                    <g id="S-logo" transform="translate(0.000000, 0.394149)">
                        <path d="M21.3687053,22.1280486 C23.1016874,22.1280486 24.506547,22.14534 24.506547,23.8377737 C24.506547,25.5302074 23.1016874,25.8239626 21.3687053,25.8239626 L13.2232124,26.0799898 C5.33562419,26.0799898 0.910979573,20.6419298 0.910979573,12.937584 C0.910979573,9.1443136 2.27659729,6.06350352 4.30682846,3.79795993 C6.40011113,1.46205692 9.21843293,-5.68434189e-13 13.2232124,-5.68434189e-13 L34.2290203,-5.68434189e-13 C35.3500631,-5.68434189e-13 36.3859494,0.141165969 36.9464709,1.08930152 C37.2396403,1.58520465 37.2878736,1.84667106 37.2743703,2.12070805 C37.2620562,2.37061251 37.2138229,2.6312839 36.9464709,3.08351631 C36.3859494,4.03165186 35.3500631,4.18011553 34.2290203,4.18011551 L13.2232124,4.18011551 C11.0730236,4.2073128 8.61787369,5.16046002 7.04982378,6.76155091 C5.42214485,8.42352729 4.72177777,10.7736506 4.72177777,12.9535651 C4.72177777,17.2335342 8.84106853,21.963641 13.2232124,22.0190698 L21.3687053,22.1280486 Z" id="Path"></path>
                        <path d="M20.5982072,43.9574422 C22.3311892,43.9574422 23.7360488,44.0837124 23.7360488,45.7761461 C23.7360488,47.4685797 22.3311892,47.8106213 20.5982072,47.8106213 L12.4527142,47.8106213 C8.5776109,47.8106213 5.75594932,46.5185638 3.63206931,44.26954 C1.43289271,41.9407829 -1.0658141e-14,38.7952243 -1.0658141e-14,34.8759564 C-1.0658141e-14,27.1716106 4.56378275,22.1284771 12.4527142,22.1284771 L33.4585221,22.1284771 C34.5795649,22.1284771 35.6154512,22.0795383 36.1759727,23.0276739 C36.4550577,23.499753 36.520863,23.7608276 36.5220492,24.0212541 C36.5232143,24.2838747 36.457409,24.7371533 36.1759727,25.2132097 C35.6154512,26.1613453 34.5795649,26.1184879 33.4585221,26.1184879 L12.4527142,26.1184879 C10.3138381,26.1455421 7.89390346,26.9122633 6.34740134,28.495588 C4.72541938,30.1561898 4.02801514,32.684993 4.02801514,34.8759564 C4.02801514,39.1559255 8.07057035,43.9020134 12.4527142,43.9574422 L20.5982072,43.9574422 Z" id="Path" transform="translate(18.261025, 34.969335) scale(-1, -1) translate(-18.261025, -34.969335) "></path>
                        <polygon id="Path" fill-opacity="0.5" points="4.3139857 46.6728546 0.910979573 44.2182089 32.3654372 -8.45545856e-13 35.5929603 2.32806678"></polygon>
                    </g>
                    <path d="M50.4540314,0.0264860382 L54.7371049,0.0264860382 L70.5096932,26.4265076 L86.418252,0.0264860382 L90.5653549,0.0264860382 L72.3452961,30.482761 L72.3452961,48.2202755 L68.6740902,48.2202755 L68.6740902,30.482761 L50.4540314,0.0264860382 Z M103.900325,48.2202755 L103.900325,0.0952360945 L107.367575,0.0952360945 L135.513487,41.4140199 L135.513487,0.0952360945 L139.116708,0.0952360945 L139.116708,48.2202755 L135.649458,48.2202755 L107.503546,6.83274161 L107.503546,48.2202755 L103.900325,48.2202755 Z M153.063546,0.0952360945 L189.367693,0.0952360945 L189.367693,3.53273891 L173.051222,3.53273891 L173.051222,48.2202755 L169.380017,48.2202755 L169.380017,3.53273891 L153.063546,3.53273891 L153.063546,0.0952360945 Z M203.314531,0.0264860382 L206.985737,0.0264860382 L206.985737,21.957754 L234.519781,21.957754 L234.519781,0.0264860382 L238.190987,0.0264860382 L238.190987,48.2202755 L234.519781,48.2202755 L234.519781,25.3952568 L206.985737,25.3952568 L206.985737,48.2202755 L203.314531,48.2202755 L203.314531,0.0264860382 Z M255.469105,0.0952360945 L284.770766,0.0952360945 L284.770766,3.53273891 L259.14031,3.53273891 L259.14031,21.957754 L280.623663,21.957754 L280.623663,25.3952568 L259.14031,25.3952568 L259.14031,44.7827727 L285.654575,44.7827727 L285.654575,48.2202755 L255.469105,48.2202755 L255.469105,0.0952360945 Z M295.522296,0.0952360945 L331.826443,0.0952360945 L331.826443,3.53273891 L315.509972,3.53273891 L315.509972,48.2202755 L311.838766,48.2202755 L311.838766,3.53273891 L295.522296,3.53273891 L295.522296,0.0952360945 Z M345.773281,0.0952360945 L349.444487,0.0952360945 L349.444487,48.2202755 L345.773281,48.2202755 L345.773281,0.0952360945 Z M380.65959,23.6077553 L365.022972,0.0952360945 L369.306045,0.0952360945 L383.039075,20.6515029 L396.84009,0.0952360945 L400.783237,0.0952360945 L385.146619,23.6077553 L401.803016,48.2202755 L397.451957,48.2202755 L382.767134,26.6327578 L368.014325,48.2202755 L364.003193,48.2202755 L380.65959,23.6077553 Z" id="YNTHETIX" fill-rule="nonzero"></path>
                </g>
                <path d="M1,66.4044944 L29.8924932,66.4044944 L29.8924932,69.7752809 L4.61994115,69.7752809 L4.61994115,87.8426966 L25.8033004,87.8426966 L25.8033004,91.2134831 L4.61994115,91.2134831 L4.61994115,110.224719 L30.7639605,110.224719 L30.7639605,113.595506 L1,113.595506 L1,66.4044944 Z M61.2536578,89.4606742 L45.8353899,66.4044944 L50.0586546,66.4044944 L63.5999159,86.5617978 L77.2082132,66.4044944 L81.0962981,66.4044944 L65.6780303,89.4606742 L82.1018373,113.595506 L77.8115367,113.595506 L63.3317721,92.4269663 L48.7849716,113.595506 L44.8298507,113.595506 L61.2536578,89.4606742 Z M94.2236851,90 C94.2236851,85.3258193 95.1174887,81.1685575 96.9051229,77.5280899 C98.6927571,73.8876222 101.240098,71.0561899 104.547221,69.0337079 C107.854344,67.0112258 111.675355,66 116.010368,66 C120.971053,66 125.12724,67.3033578 128.479054,69.9101124 C131.830868,72.516867 133.998342,76.1797517 134.981541,80.8988764 L131.3616,80.8988764 C130.378401,77.2134647 128.523758,74.3707965 125.797616,72.3707865 C123.071474,70.3707765 119.742055,69.3707865 115.80926,69.3707865 C112.233992,69.3707865 109.105679,70.2471822 106.424227,72 C103.742776,73.7528178 101.664683,76.1909956 100.189884,79.3146067 C98.7150861,82.4382179 97.9776981,85.99998 97.9776981,90 C97.9776981,94.00002 98.7150861,97.5617821 100.189884,100.685393 C101.664683,103.809004 103.742776,106.247182 106.424227,108 C109.105679,109.752818 112.233992,110.629213 115.80926,110.629213 C119.831437,110.629213 123.172028,109.640459 125.831134,107.662921 C128.49024,105.685383 130.311365,102.809008 131.294564,99.0337079 L134.914505,99.0337079 C133.886615,103.797777 131.730314,107.483133 128.445536,110.089888 C125.160758,112.696642 121.015744,114 116.010368,114 C111.675355,114 107.854344,113 104.547221,111 C101.240098,108.99999 98.6927571,106.179793 96.9051229,102.539326 C95.1174887,98.8988582 94.2236851,94.7191247 94.2236851,90 Z M152.86848,66.3370787 L156.488421,66.3370787 L156.488421,87.8426966 L183.63798,87.8426966 L183.63798,66.3370787 L187.257921,66.3370787 L187.257921,113.595506 L183.63798,113.595506 L183.63798,91.2134831 L156.488421,91.2134831 L156.488421,113.595506 L152.86848,113.595506 L152.86848,66.3370787 Z M203.133782,113.595506 L221.233487,66.4044944 L225.523788,66.4044944 L243.623494,113.595506 L239.735409,113.595506 L234.104389,99.1685393 L212.518814,99.1685393 L206.887795,113.595506 L203.133782,113.595506 Z M213.591389,95.7977528 L233.031814,95.7977528 L223.311602,70.3820225 L213.591389,95.7977528 Z M259.499355,113.595506 L259.499355,66.4044944 L262.918188,66.4044944 L290.67107,106.921348 L290.67107,66.4044944 L294.223975,66.4044944 L294.223975,113.595506 L290.805142,113.595506 L263.05226,73.011236 L263.05226,113.595506 L259.499355,113.595506 Z M312.110914,90 C312.110914,85.3258193 313.004718,81.1685575 314.792352,77.5280899 C316.579986,73.8876222 319.104982,71.0561899 322.367414,69.0337079 C325.629847,67.0112258 329.450857,66 333.830561,66 C338.746555,66 342.880397,67.3033578 346.232211,69.9101124 C349.584026,72.516867 351.773845,76.1797517 352.801734,80.8988764 L349.248829,80.8988764 C348.176249,77.2134647 346.299261,74.3707965 343.61781,72.3707865 C340.936358,70.3707765 337.629285,69.3707865 333.696489,69.3707865 C330.121221,69.3707865 326.992908,70.2471822 324.311457,72 C321.630005,73.7528178 319.551912,76.1909956 318.077114,79.3146067 C316.602315,82.4382179 315.864927,85.99998 315.864927,90 C315.864927,94.00002 316.591143,97.5617821 318.043596,100.685393 C319.496048,103.809004 321.551797,106.247182 324.210903,108 C326.870009,109.752818 329.920114,110.629213 333.36131,110.629213 C336.757815,110.629213 339.718539,109.921355 342.243573,108.505618 C344.768606,107.089881 346.712629,105.157316 348.0757,102.707865 C349.438771,100.258415 350.120296,97.4831616 350.120296,94.3820225 L350.120296,92.3595506 L334.702029,92.3595506 L334.702029,88.988764 L353.606166,88.988764 L353.606166,113.595506 L350.589548,113.595506 L350.254368,102.808989 C349.137097,105.955072 347.126039,108.606731 344.221133,110.764045 C341.316227,112.921359 337.673977,114 333.294274,114 C329.182715,114 325.51812,112.988774 322.300378,110.966292 C319.082637,108.94381 316.579986,106.112378 314.792352,102.47191 C313.004718,98.8314425 312.110914,94.6741807 312.110914,90 Z M373.236039,66.4044944 L402.128533,66.4044944 L402.128533,69.7752809 L376.855981,69.7752809 L376.855981,87.8426966 L398.03934,87.8426966 L398.03934,91.2134831 L376.855981,91.2134831 L376.855981,110.224719 L403,110.224719 L403,113.595506 L373.236039,113.595506 L373.236039,66.4044944 Z" id="EXCHANGE" fill-rule="nonzero"></path>
            </g>
        </g>
    </g>
</svg>