<?xml version="1.0" encoding="UTF-8"?>
<svg width="76px" height="76px" viewBox="0 0 76 76" version="1.1" xmlns="http://www.w3.org/2000/svg" xmlns:xlink="http://www.w3.org/1999/xlink">
    <!-- Generator: Sketch 52.3 (67297) - http://www.bohemiancoding.com/sketch -->
    <title>ico-user-level-3</title>
    <desc>Created with Sketch.</desc>
    <g id="Page-1" stroke="none" stroke-width="1" fill="none" fill-rule="evenodd">
        <g id="Desktop" transform="translate(-973.000000, -2932.000000)">
            <g id="Group-18" transform="translate(930.000000, 2890.750000)">
                <g id="ico-user-level-3" transform="translate(43.000000, 40.585938)">
                    <circle id="Oval-2" fill="#00CE63" cx="38" cy="38.3691406" r="37.5"></circle>
                    <g id="coins" transform="translate(22.074219, 22.443359)" fill="#FFFFFF" fill-rule="nonzero">
                        <path d="M8.68678977,0 C3.7345957,0 0,1.24510653 0,2.89559659 C0,4.54608665 3.7345957,5.79119318 8.68678977,5.79119318 C13.6389838,5.79119318 17.3735795,4.54608665 17.3735795,2.89559659 C17.3735795,1.24510653 13.6389838,0 8.68678977,0 Z" id="Shape"></path>
                        <path d="M23.1647727,27.5081676 C19.9709297,27.5081676 16.4129654,26.9761017 14.477983,25.617343 L14.477983,28.9559659 C14.477983,30.606456 18.2125787,31.8515625 23.1647727,31.8515625 C28.1169668,31.8515625 31.8515625,30.606456 31.8515625,28.9559659 L31.8515625,25.617343 C29.9165801,26.9761017 26.3586158,27.5081676 23.1647727,27.5081676 Z" id="Shape"></path>
                        <path d="M23.1647727,21.7169744 C19.9709297,21.7169744 16.4129654,21.1849086 14.477983,19.8261499 L14.477983,23.1647727 C14.477983,24.8152628 18.2125787,26.0603693 23.1647727,26.0603693 C28.1169668,26.0603693 31.8515625,24.8152628 31.8515625,23.1647727 L31.8515625,19.8261499 C29.9165801,21.1849086 26.3586158,21.7169744 23.1647727,21.7169744 Z" id="Shape"></path>
                        <path d="M23.1647727,15.9257813 C19.9709297,15.9257813 16.4129654,15.3937154 14.477983,14.0349567 L14.477983,17.3735795 C14.477983,19.0240696 18.2125787,20.2691761 23.1647727,20.2691761 C28.1169668,20.2691761 31.8515625,19.0240696 31.8515625,17.3735795 L31.8515625,14.0349567 C29.9165801,15.3937154 26.3586158,15.9257813 23.1647727,15.9257813 Z" id="Shape"></path>
                        <path d="M23.1647727,8.68678977 C18.2125787,8.68678977 14.477983,9.93189631 14.477983,11.5823864 C14.477983,13.2328764 18.2125787,14.477983 23.1647727,14.477983 C28.1169668,14.477983 31.8515625,13.2328764 31.8515625,11.5823864 C31.8515625,9.93189631 28.1169668,8.68678977 23.1647727,8.68678977 Z" id="Shape"></path>
                        <path d="M8.68678977,11.5823864 C10.3097717,11.5823864 11.7973844,11.4462933 13.070723,11.2088544 C13.3052663,9.55764045 15.0672369,8.50364329 17.3735795,7.9013592 L17.3735795,5.3481669 C15.4385971,6.7069256 11.8806328,7.23899148 8.68678977,7.23899148 C5.49294673,7.23899148 1.93498242,6.7069256 0,5.3481669 L0,8.68678977 C0,10.3372798 3.7345957,11.5823864 8.68678977,11.5823864 Z" id="Shape"></path>
                        <path d="M8.68678977,17.3735795 C10.2923981,17.3735795 11.7662567,17.241106 13.0301847,17.0080105 L13.0301847,12.6733024 C11.6272681,12.9150847 10.1230057,13.0301847 8.68678977,13.0301847 C5.49294673,13.0301847 1.93498242,12.4981188 0,11.1393601 L0,14.477983 C0,16.128473 3.7345957,17.3735795 8.68678977,17.3735795 Z" id="Shape"></path>
                        <path d="M8.68678977,23.1647727 C10.2923981,23.1647727 11.7662567,23.0322992 13.0301847,22.7992037 L13.0301847,18.4644956 C11.6272681,18.7062779 10.1230057,18.8213778 8.68678977,18.8213778 C5.49294673,18.8213778 1.93498242,18.289312 0,16.9305533 L0,20.2691761 C0,21.9196662 3.7345957,23.1647727 8.68678977,23.1647727 Z" id="Shape"></path>
                        <path d="M13.0301847,24.2556887 C11.6272681,24.4974711 10.1230057,24.612571 8.68678977,24.612571 C5.49294673,24.612571 1.93498242,24.0805051 0,22.7217464 L0,26.0603693 C0,27.7108594 3.7345957,28.9559659 8.68678977,28.9559659 C10.2923981,28.9559659 11.7662567,28.8234924 13.0301847,28.5903968 L13.0301847,24.2556887 Z" id="Shape"></path>
                    </g>
                </g>
            </g>
        </g>
    </g>
</svg>