<?xml version="1.0" encoding="UTF-8"?>
<svg width="62px" height="58px" viewBox="0 0 62 58" version="1.1" xmlns="http://www.w3.org/2000/svg" xmlns:xlink="http://www.w3.org/1999/xlink">
    <!-- Generator: Sketch 52.3 (67297) - http://www.bohemiancoding.com/sketch -->
    <title>ico-coins</title>
    <desc>Created with Sketch.</desc>
    <g id="Page-1" stroke="none" stroke-width="1" fill="none" fill-rule="evenodd">
        <g id="How-Havven-Works" transform="translate(-689.000000, -1717.000000)" stroke="#5641F2" stroke-width="2">
            <g id="ico-coins" transform="translate(690.000000, 1717.996094)">
                <path d="M0,6 L0,14 C0,17.314 5.373,20 12,20 C18.627,20 24,17.314 24,14 L24,6" id="Shape"></path>
                <path d="M0,14 L0,22 C0,25.314 5.373,28 12,28 C18.627,28 24,25.314 24,22 L24,14" id="Shape"></path>
                <path d="M0,22 L0,30 C0,33.314 5.373,36 12,36" id="Shape"></path>
                <path d="M0,30 L0,38 C0,41.314 5.373,44 12,44" id="Shape"></path>
                <ellipse id="Oval" stroke-linecap="square" cx="12" cy="6" rx="12" ry="6"></ellipse>
                <path d="M36,14 L36,22 C36,25.314 41.373,28 48,28 C54.627,28 60,25.314 60,22 L60,14" id="Shape"></path>
                <path d="M48,36 C54.627,36 60,33.314 60,30 L60,22" id="Shape"></path>
                <path d="M48,44 C54.627,44 60,41.314 60,38 L60,30" id="Shape"></path>
                <ellipse id="Oval" stroke-linecap="square" cx="48" cy="14" rx="12" ry="6"></ellipse>
                <path d="M18,34 L18,42 C18,45.314 23.373,48 30,48 C36.627,48 42,45.314 42,42 L42,34" id="Shape"></path>
                <path d="M18,42 L18,50 C18,53.314 23.373,56 30,56 C36.627,56 42,53.314 42,50 L42,42" id="Shape"></path>
                <ellipse id="Oval" stroke-linecap="square" cx="30" cy="34" rx="12" ry="6"></ellipse>
            </g>
        </g>
    </g>
</svg>