<?xml version="1.0" encoding="UTF-8"?>
<svg width="500px" height="500px" viewBox="0 0 500 500" version="1.1" xmlns="http://www.w3.org/2000/svg" xmlns:xlink="http://www.w3.org/1999/xlink">
    <!-- Generator: Sketch 55.2 (78181) - https://sketchapp.com -->
    <title>Mintr Logo</title>
    <desc>Created with Sketch.</desc>
    <g id="Page-1" stroke="none" stroke-width="1" fill="none" fill-rule="evenodd">
        <g id="Mintr-Logo">
            <circle id="Oval" fill="#0B0818" cx="250" cy="250" r="250"></circle>
            <g id="Mintr" transform="translate(133.000000, 130.000000)">
                <g id="ico-mint-and-burn.107cc7b2">
                    <path d="M65.4037267,66.9090909 C97.015528,66.9090909 130.807453,56.8727273 130.807453,33.4545455 C130.807453,10.0363636 97.015528,0 65.4037267,0 C33.7919255,0 0,10.0363636 0,33.4545455 C0,56.8727273 33.7919255,66.9090909 65.4037267,66.9090909 Z" id="Shape" fill="#53B167"></path>
                    <path d="M0,69.8181818 L0,86.7878788 C0,110.545455 33.7919255,120.727273 65.4037267,120.727273 C97.015528,120.727273 130.807453,110.545455 130.807453,86.7878788 L130.807453,69.8181818 C115.546584,80 92.6552795,86.7878788 65.4037267,86.7878788 C38.1521739,86.7878788 15.2608696,80 0,69.8181818 Z" id="Shape" fill="#53B167"></path>
                    <path d="M0,125.090909 L0,142.060606 C0,165.818182 33.7919255,176 65.4037267,176 C97.015528,176 130.807453,165.818182 130.807453,142.060606 L130.807453,125.090909 C115.546584,136.40404 92.6552795,142.060606 65.4037267,142.060606 C38.1521739,142.060606 15.2608696,135.272727 0,125.090909 Z" id="Shape" fill="#53B167"></path>
                    <path d="M184.306136,133.223 C184.306136,133.223 192.36856,84.955 159.470413,64 C158.479134,80.773439 150.515972,96.3233019 137.57434,106.757 C123.524541,119.33 97.1001092,147.6 97.3811052,177.74 C97.1751971,204.021906 111.628851,228.149556 134.67792,240 C135.493413,228.247839 140.923629,217.324842 149.743629,209.695 C157.217103,203.845171 162.068987,195.185336 163.209821,185.66 C182.885396,196.306012 195.610632,216.698908 196.71319,239.351 L196.71319,239.494 C218.459509,229.355365 232.775186,207.652466 233.761432,183.328 C236.09586,155.014 220.857231,116.514 207.337001,103.93 C202.232546,115.528932 194.305742,125.611049 184.306136,133.223 Z" id="Shape" fill="#D9AB44"></path>
                </g>
            </g>
        </g>
    </g>
</svg>