<?xml version="1.0" encoding="UTF-8"?>
<svg width="77px" height="77px" viewBox="0 0 77 77" version="1.1" xmlns="http://www.w3.org/2000/svg" xmlns:xlink="http://www.w3.org/1999/xlink">
    <!-- Generator: Sketch 52.6 (67491) - http://www.bohemiancoding.com/sketch -->
    <title>Group 13</title>
    <desc>Created with Sketch.</desc>
    <defs>
        <polygon id="path-1" points="0 0 17.4217586 0 17.4217586 2.89617759 3.15576207 2.89617759 3.15576207 10.0722621 16.3481489 10.0722621 16.3481489 12.8075409 3.15576207 12.8075409 3.15576207 20.8202989 17.6657609 20.8202989 17.6657609 23.6360271 0 23.6360271"></polygon>
    </defs>
    <g id="Page-1" stroke="none" stroke-width="1" fill="none" fill-rule="evenodd">
        <g id="Home-Page-Variant" transform="translate(-1082.000000, -2895.000000)">
            <g id="Group-13" transform="translate(1082.000000, 2895.841797)">
                <ellipse id="Oval-2" fill="#0A0817" cx="38.5" cy="37.9905482" rx="38.5" ry="37.9905482"></ellipse>
                <g id="synthetix_exchange-logo-2" transform="translate(18.340265, 26.054820)">
                    <g id="synthetix_exchange-logo">
                        <g id="Group" fill="#FFFFFF">
                            <path d="M10.478845,10.3861954 C11.2853084,10.3861954 11.9390763,11.0402774 11.9390763,11.8471285 C11.9390763,12.6539796 11.2853084,13.3080616 10.478845,13.3080616 L6.68824453,13.3080616 C3.0176631,13.3080616 0.0415666871,10.3311602 0.0415666871,6.65818924 C0.0415666871,2.98521827 3.01703801,0.00769148878 6.68824453,0.00769148878 L16.4635429,0.00769148878 C16.9852334,0.007691481 17.4672952,0.286143758 17.7281404,0.73815804 C17.9889856,1.19017232 17.9889856,1.74707689 17.7281404,2.19909117 C17.4672952,2.65110545 16.9852334,2.92955773 16.4635429,2.92955772 L6.68824453,2.92955772 C4.64896263,2.95598286 3.00966957,4.61744341 3.00966957,6.65787654 C3.00966957,8.69830967 4.64896263,10.3597702 6.68824453,10.3861954 L10.478845,10.3861954 Z" id="Path"></path>
                            <path d="M7.48649597,13.3080616 C6.68003249,13.3080616 6.02626467,12.6539796 6.02626467,11.8471285 C6.02626467,11.0402774 6.68003249,10.3861954 7.48649597,10.3861954 L11.2770964,10.3861954 C14.9476778,10.3861954 17.9237743,13.3637221 17.9237743,17.0366931 C17.9237743,20.7096641 14.9483029,23.6878163 11.2770964,23.6878163 L1.50179799,23.6878163 C0.980107577,23.6878163 0.498045748,23.409364 0.237200535,22.9573497 C-0.0236446775,22.5053354 -0.0236446775,21.9484309 0.237200535,21.4964166 C0.498045748,21.0444023 0.980107577,20.76595 1.50179799,20.76595 L11.2770964,20.76595 C13.3353735,20.76595 15.0039367,19.0965848 15.0039367,17.0373185 C15.0039367,14.9780522 13.3353735,13.308687 11.2770964,13.308687 L7.48649597,13.308687 L7.48649597,13.3080616 Z" id="Path"></path>
                            <polygon id="Path" fill-opacity="0.5" points="2.65573077 23.0974392 0.281604709 21.3963527 15.2127198 0.548036614 17.5868459 2.24912312"></polygon>
                        </g>
                        <g id="Group" transform="translate(22.508152, 0.089871)">
                            <g id="EXCHANGE">
                                <use fill="#000000" xlink:href="#path-1"></use>
                                <use fill="#FFFFFF" xlink:href="#path-1"></use>
                            </g>
                        </g>
                        <path d="M20.2214674,0.0898708255 L20.2214674,23.7258979" id="Path" stroke="#575379"></path>
                    </g>
                </g>
            </g>
        </g>
    </g>
</svg>