<?xml version="1.0" encoding="UTF-8"?>
<svg width="46px" height="63px" viewBox="0 0 46 63" version="1.1" xmlns="http://www.w3.org/2000/svg" xmlns:xlink="http://www.w3.org/1999/xlink">
    <!-- Generator: Sketch 52.3 (67297) - http://www.bohemiancoding.com/sketch -->
    <title>ico-lock</title>
    <desc>Created with Sketch.</desc>
    <g id="Page-1" stroke="none" stroke-width="1" fill="none" fill-rule="evenodd" stroke-linecap="square">
        <g id="How-Havven-Works" transform="translate(-697.000000, -1204.000000)" stroke="#5641F2" stroke-width="2">
            <g id="ico-lock" transform="translate(698.000000, 1205.601562)">
                <path d="M34,19 L34,12 C34,5.373 28.627,0 22,0 C15.373,0 10,5.373 10,12 L10,19" id="Shape"></path>
                <path d="M40,60 L4,60 C1.791,60 0,58.209 0,56 L0,28 C0,25.791 1.791,24 4,24 L40,24 C42.209,24 44,25.791 44,28 L44,56 C44,58.209 42.209,60 40,60 Z" id="Shape"></path>
                <path d="M22,45 L22,51" id="Shape"></path>
                <circle id="Oval" cx="22" cy="39" r="6"></circle>
            </g>
        </g>
    </g>
</svg>