<?xml version="1.0" encoding="UTF-8"?>
<svg width="500px" height="500px" viewBox="0 0 500 500" version="1.1" xmlns="http://www.w3.org/2000/svg" xmlns:xlink="http://www.w3.org/1999/xlink">
    <!-- Generator: Sketch 55.2 (78181) - https://sketchapp.com -->
    <title>Dashboard Logo</title>
    <desc>Created with Sketch.</desc>
    <g id="Page-1" stroke="none" stroke-width="1" fill="none" fill-rule="evenodd">
        <g id="Dashboard-Logo">
            <circle id="Oval" fill="#0A0817" cx="250" cy="250" r="250"></circle>
            <g transform="translate(42.000000, 192.000000)" fill="#FFFFFF">
                <path d="M1,67.4908836 L14.2075546,67.4908836 C19.3594633,67.4908836 23.7853549,68.4960161 27.4853621,70.5063114 C31.1853693,72.5166066 34.0188766,75.368378 35.985969,79.0617111 C37.9530614,82.7550442 38.9365929,87.0794516 38.9365929,92.0350631 C38.9365929,96.9906746 37.9530614,101.315082 35.985969,105.008415 C34.0188766,108.701748 31.1853693,111.55352 27.4853621,113.563815 C23.7853549,115.57411 19.3594633,116.579243 14.2075546,116.579243 L1,116.579243 L1,67.4908836 Z M14.2075546,113.072931 C20.8113649,113.072931 25.9397789,111.19123 29.5929506,107.42777 C33.2461222,103.66431 35.0726807,98.5334593 35.0726807,92.0350631 C35.0726807,85.4899158 33.2578309,80.3473773 29.6280771,76.6072931 C25.9983232,72.867209 20.8582004,70.997195 14.2075546,70.997195 L4.79365929,70.997195 L4.79365929,113.072931 L14.2075546,113.072931 Z M43.9967835,116.579243 L62.9650799,67.4908836 L67.4612687,67.4908836 L86.4295652,116.579243 L82.3548941,116.579243 L76.4536463,101.57223 L53.8321964,101.57223 L47.9309487,116.579243 L43.9967835,116.579243 Z M54.9562436,98.0659187 L75.3295991,98.0659187 L65.1429214,71.628331 L54.9562436,98.0659187 Z M95.6346798,101.431978 C95.8688574,105.125311 97.2973198,108.058895 99.9201097,110.232819 C102.5429,112.406743 105.938425,113.493689 110.106787,113.493689 C114.134643,113.493689 117.354538,112.593744 119.766568,110.793829 C122.178598,108.993913 123.384595,106.527832 123.384595,103.395512 C123.384595,101.151461 122.740616,99.3749481 121.452639,98.0659187 C120.164662,96.7568892 118.513734,95.7868194 116.499806,95.1556802 C114.485878,94.524541 111.909962,93.9518492 108.771981,93.4375877 C105.493494,92.876575 102.753656,92.1870074 100.552386,91.368864 C98.3511161,90.5507205 96.5245577,89.2884611 95.0726562,87.5820477 C93.6207546,85.8756343 92.8948147,83.5498043 92.8948147,80.6044881 C92.8948147,77.8929271 93.5739198,75.5086592 94.9321503,73.4516129 C96.2903808,71.3945666 98.2223176,69.8050547 100.728019,68.6830295 C103.23372,67.5610042 106.125771,67 109.404258,67 C114.275153,67 118.244405,68.2739471 121.312133,70.8218794 C124.37986,73.3698117 126.10104,76.7475245 126.475725,80.9551192 L122.752318,81.0252454 C122.330799,77.7994229 120.925754,75.2281536 118.537141,73.3113604 C116.148529,71.3945673 113.104265,70.4361851 109.404258,70.4361851 C105.516909,70.4361851 102.42581,71.3127542 100.130869,73.0659187 C97.8359274,74.8190831 96.688474,77.2617889 96.688474,80.3941094 C96.688474,82.5914088 97.2973268,84.3211718 98.5150507,85.5834502 C99.7327746,86.8457286 101.266615,87.7573604 103.116619,88.3183731 C104.966623,88.8793857 107.507412,89.4403899 110.739064,90.0014025 C114.017551,90.5156641 116.815933,91.2052318 119.134291,92.0701262 C121.45265,92.9350207 123.372879,94.2557181 124.895033,96.0322581 C126.417188,97.808798 127.178254,100.169691 127.178254,103.115007 C127.178254,105.826568 126.464023,108.234211 125.035539,110.338008 C123.607055,112.441806 121.604866,114.078068 119.028912,115.246844 C116.452958,116.415621 113.455528,117 110.036534,117 C106.477034,117 103.350809,116.357183 100.657766,115.071529 C97.9647225,113.785875 95.857155,111.962611 94.3350002,109.601683 C92.8128453,107.240755 91.9815271,104.517547 91.8410205,101.431978 L95.6346798,101.431978 Z M138.209946,67.4207574 L142.003605,67.4207574 L142.003605,89.7910238 L170.456049,89.7910238 L170.456049,67.4207574 L174.249709,67.4207574 L174.249709,116.579243 L170.456049,116.579243 L170.456049,93.2973352 L142.003605,93.2973352 L142.003605,116.579243 L138.209946,116.579243 L138.209946,67.4207574 Z M203.828179,67.4908836 C208.74591,67.4908836 212.539531,68.5895168 215.209157,70.7868163 C217.878782,72.9841157 219.213575,76.0462637 219.213575,79.973352 C219.213575,82.9654194 218.405674,85.4431879 216.789848,87.4067321 C215.174022,89.3702763 212.867407,90.6792861 209.869933,91.3338008 C213.523104,91.9415645 216.36832,93.2155116 218.405666,95.1556802 C220.443012,97.0958489 221.461669,99.7956816 221.461669,103.255259 C221.461669,107.416103 219.974663,110.67694 217.000607,113.037868 C214.026551,115.398796 209.729455,116.579243 204.109191,116.579243 L187.037724,116.579243 L187.037724,67.4908836 L203.828179,67.4908836 Z M190.831383,89.7910238 L203.968685,89.7910238 C207.621856,89.7910238 210.443655,88.9495175 212.434165,87.2664797 C214.424675,85.5834418 215.419916,83.2692994 215.419916,80.3239832 C215.419916,77.3786669 214.424675,75.0762121 212.434165,73.4165498 C210.443655,71.7568874 207.621856,70.9270687 203.968685,70.9270687 L190.831383,70.9270687 L190.831383,89.7910238 Z M190.831383,113.143058 L204.109191,113.143058 C208.464895,113.143058 211.790168,112.254801 214.08511,110.478261 C216.380051,108.701721 217.527504,106.247327 217.527504,103.115007 C217.527504,99.8891844 216.356633,97.434791 214.014857,95.7517532 C211.67308,94.0687153 208.371224,93.227209 204.109191,93.227209 L190.831383,93.227209 L190.831383,113.143058 Z M277.103984,92.0350631 C277.103984,96.8036704 276.132161,101.093015 274.188486,104.903226 C272.244812,108.713437 269.528391,111.682084 266.039144,113.809257 C262.549897,115.93643 258.580645,117 254.131269,117 C249.681893,117 245.712641,115.93643 242.223394,113.809257 C238.734147,111.682084 236.017727,108.713437 234.074052,104.903226 C232.130377,101.093015 231.158554,96.8036704 231.158554,92.0350631 C231.158554,87.2664558 232.130377,82.9771112 234.074052,79.1669004 C236.017727,75.3566897 238.734147,72.3880424 242.223394,70.2608696 C245.712641,68.1336967 249.681893,67.0701262 254.131269,67.0701262 C258.580645,67.0701262 262.549897,68.1336967 266.039144,70.2608696 C269.528391,72.3880424 272.244812,75.3566897 274.188486,79.1669004 C276.132161,82.9771112 277.103984,87.2664558 277.103984,92.0350631 Z M235.09272,92.0350631 C235.09272,96.1959067 235.900621,99.900872 237.516446,103.15007 C239.132272,106.399268 241.380344,108.935475 244.26073,110.758766 C247.141115,112.582057 250.431262,113.493689 254.131269,113.493689 C257.831276,113.493689 261.133132,112.582057 264.036935,110.758766 C266.940738,108.935475 269.200519,106.399268 270.816345,103.15007 C272.432171,99.900872 273.240071,96.1959067 273.240071,92.0350631 C273.240071,87.8742195 272.432171,84.1692542 270.816345,80.9200561 C269.200519,77.670858 266.940738,75.1346515 264.036935,73.3113604 C261.133132,71.4880694 257.831276,70.5764376 254.131269,70.5764376 C250.431262,70.5764376 247.141115,71.4880694 244.26073,73.3113604 C241.380344,75.1346515 239.132272,77.670858 237.516446,80.9200561 C235.900621,84.1692542 235.09272,87.8742195 235.09272,92.0350631 Z M282.234427,116.579243 L301.202724,67.4908836 L305.698912,67.4908836 L324.667209,116.579243 L320.592538,116.579243 L314.69129,101.57223 L292.06984,101.57223 L286.168592,116.579243 L282.234427,116.579243 Z M293.193887,98.0659187 L313.567243,98.0659187 L303.380565,71.628331 L293.193887,98.0659187 Z M351.786826,67.4908836 C356.470379,67.4908836 360.217166,68.7882058 363.027298,71.3828892 C365.83743,73.9775726 367.242475,77.4487861 367.242475,81.7966339 C367.242475,85.3964649 366.2004,88.4118626 364.116218,90.8429173 C362.032037,93.2739719 359.233656,94.7933583 355.720991,95.401122 L367.382981,116.579243 L363.097551,116.579243 L351.927332,96.1023843 L337.384971,96.1023843 L337.384971,116.579243 L333.591312,116.579243 L333.591312,67.4908836 L351.786826,67.4908836 Z M337.384971,92.5960729 L351.505814,92.5960729 C355.11215,92.5960729 357.992492,91.6143156 360.146927,89.6507714 C362.301361,87.6872272 363.378562,85.0692076 363.378562,81.7966339 C363.378562,78.5240603 362.31307,75.9060407 360.182053,73.9424965 C358.051036,71.9789523 355.182403,70.997195 351.576067,70.997195 L337.384971,70.997195 L337.384971,92.5960729 Z M378.063407,67.4908836 L391.270962,67.4908836 C396.42287,67.4908836 400.848762,68.4960161 404.548769,70.5063114 C408.248776,72.5166066 411.082284,75.368378 413.049376,79.0617111 C415.016469,82.7550442 416,87.0794516 416,92.0350631 C416,96.9906746 415.016469,101.315082 413.049376,105.008415 C411.082284,108.701748 408.248776,111.55352 404.548769,113.563815 C400.848762,115.57411 396.42287,116.579243 391.270962,116.579243 L378.063407,116.579243 L378.063407,67.4908836 Z M391.270962,113.072931 C397.874772,113.072931 403.003186,111.19123 406.656358,107.42777 C410.309529,103.66431 412.136088,98.5334593 412.136088,92.0350631 C412.136088,85.4899158 410.321238,80.3473773 406.691484,76.6072931 C403.06173,72.867209 397.921607,70.997195 391.270962,70.997195 L381.857066,70.997195 L381.857066,113.072931 L391.270962,113.072931 Z" id="DASHBOARD" fill-rule="nonzero"></path>
                <g id="S-logo" transform="translate(0.000000, 1.000000)">
                    <path d="M22.1457952,22.5054702 C23.9417985,22.5054702 25.3977469,22.5230565 25.3977469,24.2443567 C25.3977469,25.965657 23.9417985,26.2644225 22.1457952,26.2644225 L13.7040849,26.5248166 C5.52965838,26.5248166 0.944108065,20.9940037 0.944108065,13.1582507 C0.944108065,9.3002813 2.35938755,6.16692415 4.46344968,3.86273889 C6.63285623,1.48699413 9.55366853,-5.68434189e-13 13.7040849,-5.68434189e-13 L35.4737856,-5.68434189e-13 C36.6355961,-5.68434189e-13 37.7091532,0.143573731 38.2900585,1.10788092 C38.5938892,1.6122423 38.6438766,1.87816834 38.6298823,2.15687937 C38.6171203,2.41104627 38.5671329,2.67616373 38.2900585,3.13610953 C37.7091532,4.10041672 36.6355961,4.25141263 35.4737856,4.25141261 L13.7040849,4.25141261 C11.4757029,4.27907377 8.93126947,5.24847812 7.30619619,6.87687761 C5.61932543,8.56720108 4.89348895,10.9574086 4.89348895,13.1745043 C4.89348895,17.5274737 9.16258097,22.3382584 13.7040849,22.3946326 L22.1457952,22.5054702 Z" id="Path"></path>
                    <path d="M21.3472772,44.7071913 C23.1432806,44.7071913 24.5992289,44.8356152 24.5992289,46.5569155 C24.5992289,48.2782157 23.1432806,48.6260912 21.3472772,48.6260912 L12.905567,48.6260912 C8.8895425,48.6260912 5.96526896,47.3119961 3.76415238,45.0246123 C1.48500099,42.6561354 -1.0658141e-14,39.4569253 -1.0658141e-14,35.4708094 C-1.0658141e-14,27.6350563 4.72974832,22.505906 12.905567,22.505906 L34.6752677,22.505906 C35.8370781,22.505906 36.9106353,22.4561325 37.4915405,23.4204397 C37.7807747,23.9005707 37.848973,24.1660982 37.8502024,24.4309666 C37.8514098,24.6980665 37.7832115,25.1590764 37.4915405,25.6432525 C36.9106353,26.6075597 35.8370781,26.5639714 34.6752677,26.5639713 L12.905567,26.5639713 C10.688909,26.591487 8.18097149,27.3712856 6.5782296,28.9816159 C4.89726299,30.6705413 4.17449709,33.2424764 4.17449709,35.4708094 C4.17449709,39.8237788 8.36406301,44.6508171 12.905567,44.7071913 L21.3472772,44.7071913 Z" id="Path" transform="translate(18.925101, 35.565781) scale(-1, -1) translate(-18.925101, -35.565781) "></path>
                    <polygon id="Path" fill-opacity="0.5" points="4.4708672 47.4689184 0.944108065 44.9724057 33.5424319 -8.45545856e-13 36.8873264 2.36777486"></polygon>
                </g>
                <path d="M52,0 L56.4251037,0 L72.7207237,26.8416548 L89.1568231,0 L93.4414473,0 L74.6171967,30.9657632 L74.6171967,49 L70.8242507,49 L70.8242507,30.9657632 L52,0 Z M107.218616,49 L107.218616,0.0699001427 L110.800843,0.0699001427 L139.880096,42.0798859 L139.880096,0.0699001427 L143.602802,0.0699001427 L143.602802,49 L140.020575,49 L110.941322,6.92011412 L110.941322,49 L107.218616,49 Z M158.012129,0.0699001427 L195.52015,0.0699001427 L195.52015,3.56490728 L178.662613,3.56490728 L178.662613,49 L174.869667,49 L174.869667,3.56490728 L158.012129,3.56490728 L158.012129,0.0699001427 Z M209.929477,0 L213.722423,0 L213.722423,22.2981455 L242.169518,22.2981455 L242.169518,0 L245.962464,0 L245.962464,49 L242.169518,49 L242.169518,25.7931526 L213.722423,25.7931526 L213.722423,49 L209.929477,49 L209.929477,0 Z M263.813538,0.0699001427 L294.086867,0.0699001427 L294.086867,3.56490728 L267.606484,3.56490728 L267.606484,22.2981455 L289.802242,22.2981455 L289.802242,25.7931526 L267.606484,25.7931526 L267.606484,45.5049929 L294.999983,45.5049929 L294.999983,49 L263.813538,49 L263.813538,0.0699001427 Z M305.194925,0.0699001427 L342.702947,0.0699001427 L342.702947,3.56490728 L325.845409,3.56490728 L325.845409,49 L322.052463,49 L322.052463,3.56490728 L305.194925,3.56490728 L305.194925,0.0699001427 Z M357.112274,0.0699001427 L360.90522,0.0699001427 L360.90522,49 L357.112274,49 L357.112274,0.0699001427 Z M393.15544,23.9757489 L377.0003,0.0699001427 L381.425404,0.0699001427 L395.613831,20.9700428 L409.872499,0.0699001427 L413.946404,0.0699001427 L397.791263,23.9757489 L415,49 L410.504657,49 L395.332872,27.0513552 L380.090849,49 L375.946704,49 L393.15544,23.9757489 Z" id="YNTHETIX" fill-rule="nonzero"></path>
            </g>
        </g>
    </g>
</svg>