<?xml version="1.0" encoding="UTF-8"?>
<svg width="15px" height="21px" viewBox="0 0 15 21" version="1.1" xmlns="http://www.w3.org/2000/svg" xmlns:xlink="http://www.w3.org/1999/xlink">
    <!-- Generator: Sketch 52.3 (67297) - http://www.bohemiancoding.com/sketch -->
    <title>ico-play-dark</title>
    <desc>Created with Sketch.</desc>
    <g id="Page-1" stroke="none" stroke-width="1" fill="none" fill-rule="evenodd">
        <g id="How-Havven-Works" transform="translate(-713.000000, -489.000000)" fill="#0A0817" fill-rule="nonzero">
            <g id="Group" transform="translate(485.500000, 467.000000)">
                <g id="Group-2-Copy" transform="translate(200.000000, 0.113281)">
                    <g id="ico-play-dark" transform="translate(28.000000, 22.109375)">
                        <path d="M1.6,0.590682894 C1.297,0.363682894 0.892,0.326682894 0.553,0.495682894 C0.214,0.665682894 0,1.01168289 0,1.39068289 L0,19.3906829 C0,19.7696829 0.214,20.1156829 0.553,20.2856829 C0.694,20.3556829 0.848,20.3906829 1,20.3906829 C1.212,20.3906829 1.424,20.3226829 1.6,20.1906829 L13.6,11.1906829 C13.852,11.0026829 14,10.7056829 14,10.3906829 C14,10.0756829 13.852,9.77968289 13.6,9.59068289 L1.6,0.590682894 Z" id="Shape"></path>
                    </g>
                </g>
            </g>
        </g>
    </g>
</svg>