<?xml version="1.0" encoding="UTF-8"?>
<svg width="811px" height="371px" viewBox="0 0 811 371" version="1.1" xmlns="http://www.w3.org/2000/svg" xmlns:xlink="http://www.w3.org/1999/xlink">
    <!-- Generator: Sketch 52.4 (67378) - http://www.bohemiancoding.com/sketch -->
    <title>404</title>
    <desc>Created with Sketch.</desc>
    <g id="Page-1" stroke="none" stroke-width="1" fill="none" fill-rule="evenodd">
        <path d="M218.792208,270.915009 L255,270.915009 L255,317.685353 L218.792208,317.685353 L218.792208,366 L167.350649,366 L167.350649,317.685353 L0,317.685353 L218.792208,0 L218.792208,270.915009 Z M167,271 L167,157 L89,271 L167,271 Z M298,193.409404 C298,139.273711 310.623727,96.0684999 335.87156,63.7924765 C358.477177,34.5973462 385.85305,20 418,20 C450.14695,20 477.522823,34.5973462 500.12844,63.7924765 C525.376273,96.0684999 538,140.007245 538,195.610031 C538,251.066108 525.376273,294.9315 500.12844,327.207524 C477.522823,356.402654 450.220343,371 418.220183,371 C386.220023,371 358.770757,356.402654 335.87156,327.207524 C310.623727,294.9315 298,250.332573 298,193.409404 Z M348,192.238908 C348,229.95582 354.514416,261.288271 367.543444,286.237201 C380.572472,310.745856 397.187893,323 417.390205,323 C437.446125,323 454.061545,310.745856 467.236967,286.237201 C480.412388,261.875305 487,231.129878 487,194 C487,156.870122 480.412388,126.051317 467.236967,101.542662 C454.061545,77.1807656 437.446125,65 417.390205,65 C397.48068,65 380.938455,77.1807656 367.763033,101.542662 C354.587612,125.7578 348,155.98958 348,192.238908 Z M774.792208,270.915009 L811,270.915009 L811,317.685353 L774.792208,317.685353 L774.792208,366 L723.350649,366 L723.350649,317.685353 L556,317.685353 L774.792208,0 L774.792208,270.915009 Z M722,271 L722,157 L644,271 L722,271 Z" id="404" fill="#0D0A31" style="mix-blend-mode: screen;"></path>
    </g>
</svg>