<?xml version="1.0" encoding="UTF-8"?>
<svg width="729px" height="265px" viewBox="0 0 729 265" version="1.1" xmlns="http://www.w3.org/2000/svg" xmlns:xlink="http://www.w3.org/1999/xlink">
    <!-- Generator: Sketch 51.2 (57519) - http://www.bohemiancoding.com/sketch -->
    <title>Join us on Discord</title>
    <desc>Created with Sketch.</desc>
    <defs>
        <linearGradient x1="-0.00545454546%" y1="50.0015625%" x2="99.9945455%" y2="50.0015625%" id="linearGradient-1">
            <stop stop-color="#5064B5" offset="0%"></stop>
            <stop stop-color="#7289DA" offset="100%"></stop>
        </linearGradient>
    </defs>
    <g id="Join-us-on-Discord" stroke="none" stroke-width="1" fill="none" fill-rule="evenodd">
        <g id="discord" fill-rule="nonzero">
            <path d="M58.32,0 C56.3318182,0 53.6809091,0 51.6927273,0 C49.7045455,0 47.7163636,0 45.7281818,0 C41.7518182,0 37.7754545,0.6625 33.7990909,1.325 C29.8227273,1.9875 25.8463636,3.3125 21.87,5.3 C18.5563636,7.2875 15.2427273,9.9375 11.9290909,13.25 C9.27818182,16.5625 6.62727273,19.875 5.30181818,23.85 C3.31363636,27.825 1.98818182,32.4625 1.32545455,36.4375 C0.662727273,41.075 0,45.7125 0,49.6875 C0,51.675 0,53.6625 0,55.65 L0,208.6875 C0,210.675 0,212.6625 0,214.65 C0,219.2875 0.662727273,223.2625 1.32545455,227.9 C1.98818182,232.5375 3.31363636,236.5125 5.30181818,240.4875 C6.62727273,245.125 9.27818182,248.4375 11.9290909,251.75 C14.58,255.0625 17.8936364,257.7125 21.87,259.7 C25.1836364,261.6875 29.16,263.0125 33.1363636,263.675 C37.7754545,264.3375 41.7518182,265 45.7281818,265 C47.7163636,265 49.7045455,265 51.03,265 C53.0181818,265 55.6690909,265 57.6572727,265 L670.68,265 C672.668182,265 675.319091,265 677.307273,265 C679.295455,265 681.283636,265 682.609091,265 C686.585455,265 690.561818,264.3375 694.538182,263.675 C698.514545,263.0125 702.490909,261.6875 706.467273,259.7 C710.443636,257.7125 713.757273,255.0625 716.408182,251.75 C719.059091,248.4375 721.71,245.125 723.698182,241.15 C725.686364,237.175 727.011818,233.2 727.674545,228.5625 C728.337273,223.925 729,219.95 729,215.3125 C729,213.325 729,211.3375 729,209.35 C729,206.7 729,204.7125 729,202.0625 L729,62.9375 C729,60.2875 729,58.3 729,55.65 C729,53.6625 729,51.675 729,49.6875 C729,45.05 728.337273,41.075 727.674545,36.4375 C727.011818,31.8 725.686364,27.825 723.698182,23.85 C719.721818,15.9 713.757273,9.275 706.467273,5.3 C703.153636,3.3125 699.177273,1.9875 694.538182,1.325 C690.561818,0.6625 686.585455,0 682.609091,0 C680.620909,0 678.632727,0 677.307273,0 C675.319091,0 672.668182,0 670.68,0 L58.32,0 Z" id="Shape" fill="url(#linearGradient-1)"></path>
            <path d="M589,124 C585,124 581,127.923077 581,132.5 C581,137.076923 584.333333,141 589,141 C593,141 597,137.076923 597,132.5 C597,127.269231 593.666667,124 589,124 Z M617,124 C613,124 609,127.923077 609,132.5 C609,137.076923 612.333333,141 617,141 C621,141 625,137.076923 625,132.5 C625,127.923077 621,124 617,124 Z" id="Shape" fill="#FFFFFF"></path>
            <path d="M653.201005,60 L553.140704,60 C544.582915,60 538,66.6519824 538,75.2995595 L538,177.07489 C538,185.722467 544.582915,192.374449 553.140704,192.374449 L638.060302,192.374449 L634.110553,179.070485 L643.984925,187.718062 L653.201005,196.365639 L669,211 L669,75.2995595 C668.341709,66.6519824 661.758794,60 653.201005,60 Z M624.236181,158.449339 C624.236181,158.449339 621.603015,155.123348 619.628141,152.462555 C629.502513,149.801762 633.452261,143.814978 633.452261,143.814978 C630.160804,145.810573 627.527638,147.140969 624.894472,148.471366 C620.944724,149.801762 617.653266,151.132159 614.361809,151.797357 C607.120603,153.127753 600.537688,152.462555 595.271357,151.797357 C591.321608,151.132159 587.371859,149.801762 584.080402,148.471366 C582.105528,147.806167 580.788945,147.140969 578.81407,145.810573 C578.81407,145.810573 578.155779,145.810573 578.155779,145.145374 C578.155779,145.145374 578.155779,145.145374 578.155779,145.145374 C576.839196,144.480176 576.180905,143.814978 576.180905,143.814978 C576.180905,143.814978 579.472362,149.801762 589.346734,152.462555 C587.371859,155.123348 584.080402,158.449339 584.080402,158.449339 C567.623116,157.784141 561.040201,147.140969 561.040201,147.140969 C561.040201,122.528634 571.572864,103.237885 571.572864,103.237885 C582.105528,95.2555066 592.638191,95.2555066 592.638191,95.2555066 L593.296482,95.9207048 C580.130653,99.9118943 573.547739,105.898678 573.547739,105.898678 C573.547739,105.898678 574.864322,105.23348 578.155779,103.903084 C586.055276,100.577093 592.638191,99.246696 595.271357,99.246696 C595.929648,99.246696 595.929648,99.246696 596.58794,99.246696 C601.19598,98.5814978 606.462312,98.5814978 611.728643,99.246696 C618.969849,99.9118943 626.211055,101.907489 634.110553,106.563877 C634.110553,106.563877 628.18593,100.577093 615.678392,97.2511013 L616.994975,95.9207048 C616.994975,95.9207048 627.527638,95.9207048 638.060302,103.903084 C638.060302,103.903084 648.592965,123.859031 648.592965,147.806167 C647.276382,147.140969 640.693467,157.784141 624.236181,158.449339 Z" id="Shape" fill="#FFFFFF"></path>
            <path d="M95.6103896,134 L66,134 L66,167.398058 L85.4805195,185.262136 L85.4805195,153.417476 L95.6103896,153.417476 C101.844156,153.417476 105.74026,156.524272 105.74026,161.961165 L105.74026,186.815534 C105.74026,192.252427 102.623377,195.359223 95.6103896,195.359223 L66,195.359223 L66,214 L95.6103896,214 C111.194805,214 126,206.23301 126,188.368932 L126,161.961165 C126,141.76699 111.194805,134 95.6103896,134 Z M247.407895,186.228571 L247.407895,159.228571 C247.407895,149.2 264.486842,146.885714 269.921053,156.914286 L286.223684,150.742857 C280.013158,136.857143 268.368421,133 259.052632,133 C243.526316,133 228,142.257143 228,160 L228,187 C228,204.742857 243.526316,214 259.052632,214 C269.144737,214 280.789474,209.371429 287,196.257143 L269.921053,188.542857 C264.486842,197.8 247.407895,195.485714 247.407895,186.228571 Z M194.27027,162.291262 C188.108108,160.737864 184.256757,158.407767 184.256757,155.300971 C184.256757,145.980583 198.121622,145.980583 206.594595,154.524272 L219.689189,144.427184 C211.986486,134.330097 202.743243,132 193.5,132 C179.635135,132 165.77027,139.76699 165.77027,155.300971 C165.77027,170.058252 177.324324,178.601942 189.648649,180.15534 C195.810811,180.932039 202.743243,183.262136 202.743243,187.92233 C201.972973,196.466019 185.027027,195.68932 177.324324,186.368932 L165,198.019417 C171.932432,207.339806 181.945946,212 191.189189,212 C205.054054,212 221.22973,203.456311 222,188.699029 C222,170.058252 208.135135,165.398058 194.27027,162.291262 Z M136,212 L155,212 L155,134 L136,134 C136,134 136,212 136,212 Z M466.61039,134 L437,134 L437,167.398058 L456.480519,185.262136 L456.480519,153.417476 L466.61039,153.417476 C472.844156,153.417476 476.74026,156.524272 476.74026,161.961165 L476.74026,186.815534 C476.74026,192.252427 473.623377,195.359223 466.61039,195.359223 L437,195.359223 L437,214 L466.61039,214 C482.194805,214 497,206.23301 497,188.368932 L497,161.961165 C497,141.76699 482.194805,134 466.61039,134 Z M323.5,132 C307.25,132 291,140.485714 291,159 L291,186 C291,203.742857 307.25,213 323.5,213 C339.75,213 356,203.742857 356,186 L356,159 C356,141.257143 339.75,132 323.5,132 Z M337.212121,185.508772 C337.212121,190.912281 330.909091,194 324.606061,194 C318.30303,194 312,190.912281 312,185.508772 L312,158.491228 C312,153.087719 318.30303,150 324.606061,150 C330.909091,150 338,153.087719 338,158.491228 L337.212121,185.508772 Z M426.988372,159.485149 C426.209302,140.950495 413.744186,134 398.162791,134 L367,134 L367,212 L387.255814,212 L387.255814,187.287129 L391.151163,187.287129 L409.069767,212 L434,212 L412.965116,184.970297 C421.534884,181.881188 426.988372,174.158416 426.988372,159.485149 Z M397.666667,170 L386,170 L386,152.023763 L397.666667,152.023763 C410.111111,151.242188 410.111111,170 397.666667,170 Z" id="Shape" fill="#FFFFFF"></path>
        </g>
        <text id="JOIN-US-ON" font-family="Rubik-Medium, Rubik" font-size="70" font-weight="400" letter-spacing="2.91666722" fill="#FFFFFF">
            <tspan x="70.9666639" y="107">JOIN US ON</tspan>
        </text>
    </g>
</svg>