<svg width="104" height="104" viewBox="0 0 104 104" fill="none" xmlns="http://www.w3.org/2000/svg">
<path fill-rule="evenodd" clip-rule="evenodd" d="M103 52C103 80.1665 80.1665 103 52 103C23.8335 103 1 80.1665 1 52C1 23.8335 23.8335 1 52 1C80.1665 1 103 23.8335 103 52ZM30.6098 44.9103C31.881 46.0716 32.6811 47.7409 32.6811 49.5892C32.6811 50.0109 32.6394 50.4234 32.56 50.8226L52.2154 52.6094C53.0673 50.8278 54.8895 49.5892 56.9865 49.5892C58.0594 49.5892 59.0605 49.9135 59.8964 50.4688L72.9063 37.4589C71.571 36.2946 70.7243 34.5826 70.7243 32.6811C70.7243 31.8543 70.8844 31.0633 71.1752 30.3375L58.0431 28.4088L58.0432 28.4541C58.0432 33.1105 54.2457 36.9081 49.5892 36.9081C47.0798 36.9081 44.8198 35.8052 43.2692 34.0594L30.6098 44.9103ZM72.4135 28.3818L57.746 26.2314C56.766 22.6472 53.477 20 49.5892 20C44.9327 20 41.1351 23.7976 41.1351 28.4541C41.1351 29.839 41.471 31.1479 42.0656 32.3035L28.7425 43.7233C28.0009 43.4175 27.1896 43.2486 26.3405 43.2486C22.8513 43.2486 20 46.1 20 49.5892C20 53.0786 22.8513 55.9297 26.3405 55.9297C27.0238 55.9297 27.6826 55.8204 28.3003 55.6184L39.9839 75.091C39.3782 75.9505 39.0216 76.9965 39.0216 78.1216C39.0216 81.0273 41.3997 83.4054 44.3054 83.4054C46.9456 83.4054 49.1503 81.4419 49.531 78.9033L70.7848 71.8187C71.6589 72.4589 72.7347 72.8378 73.8946 72.8378C76.8002 72.8378 79.1784 70.4597 79.1784 67.554C79.1784 66.3724 78.7851 65.2781 78.123 64.3954L80.1362 38.2238C82.0825 37.1386 83.4054 35.0579 83.4054 32.6811C83.4054 29.1919 80.5541 26.3406 77.0648 26.3406C75.2311 26.3406 73.5736 27.1281 72.4135 28.3818ZM77.9621 38.958C77.6688 38.9999 77.3693 39.0216 77.0648 39.0216C76.2548 39.0216 75.4791 38.868 74.7655 38.5883L61.3907 51.9632C61.946 52.7991 62.2703 53.8001 62.2703 54.873C62.2703 55.8756 61.9871 56.8154 61.4969 57.6163L70.8609 63.2347C71.7209 62.6277 72.7681 62.2703 73.8946 62.2703C74.6924 62.2703 75.4505 62.4496 76.1304 62.7698L77.9621 38.958ZM60.0171 59.1945L69.3824 64.8137C68.8932 65.614 68.6108 66.5527 68.6108 67.554C68.6108 68.4751 68.8497 69.3431 69.2687 70.0991L49.3998 76.7221C48.7823 74.4897 46.727 72.8378 44.3054 72.8378C43.3033 72.8378 42.364 73.1207 41.5633 73.6105L30.1756 54.6311C30.8066 54.1494 31.3453 53.5525 31.7597 52.8723L51.706 54.6856C51.7038 54.7478 51.7027 54.8103 51.7027 54.873C51.7027 57.7786 54.0808 60.1568 56.9865 60.1568C58.1116 60.1568 59.1576 59.8002 60.0171 59.1945ZM55.9297 28.4541C55.9297 24.9399 53.1035 22.1135 49.5892 22.1135C46.0749 22.1135 43.2486 24.9399 43.2486 28.4541C43.2486 31.9684 46.0749 34.7946 49.5892 34.7946C53.1035 34.7946 55.9297 31.9684 55.9297 28.4541ZM30.5676 49.5892C30.5676 47.2421 28.6876 45.3622 26.3405 45.3622C23.9935 45.3622 22.1135 47.2421 22.1135 49.5892C22.1135 51.9362 23.9935 53.8162 26.3405 53.8162C28.6876 53.8162 30.5676 51.9362 30.5676 49.5892ZM44.3054 74.9513C46.0688 74.9513 47.4757 76.3583 47.4757 78.1216C47.4757 79.8851 46.0688 81.2919 44.3054 81.2919C42.542 81.2919 41.1351 79.8851 41.1351 78.1216C41.1351 76.3583 42.542 74.9513 44.3054 74.9513ZM60.1568 54.873C60.1568 53.1097 58.7499 51.7027 56.9865 51.7027C55.2231 51.7027 53.8162 53.1097 53.8162 54.873C53.8162 56.6365 55.2231 58.0433 56.9865 58.0433C58.7499 58.0433 60.1568 56.6365 60.1568 54.873ZM73.8946 64.3838C75.658 64.3838 77.0649 65.7907 77.0649 67.554C77.0649 69.3176 75.658 70.7243 73.8946 70.7243C72.1312 70.7243 70.7243 69.3176 70.7243 67.554C70.7243 65.7907 72.1312 64.3838 73.8946 64.3838ZM81.2919 32.6811C81.2919 30.334 79.4119 28.4541 77.0648 28.4541C74.7178 28.4541 72.8378 30.334 72.8378 32.6811C72.8378 35.0282 74.7178 36.9081 77.0648 36.9081C79.4119 36.9081 81.2919 35.0282 81.2919 32.6811Z" fill="url(#paint0_linear)"/>
<defs>
<linearGradient id="paint0_linear" x1="52" y1="1" x2="52" y2="103" gradientUnits="userSpaceOnUse">
<stop stop-color="#7B42E3"/>
<stop offset="1" stop-color="#4645CB"/>
</linearGradient>
</defs>
</svg>
