<?xml version="1.0" encoding="UTF-8"?>
<svg width="45px" height="46px" viewBox="0 0 45 46" version="1.1" xmlns="http://www.w3.org/2000/svg" xmlns:xlink="http://www.w3.org/1999/xlink">
    <!-- Generator: Sketch 50 (54983) - http://www.bohemiancoding.com/sketch -->
    <title>ledger</title>
    <desc>Created with Sketch.</desc>
    <defs></defs>
    <g id="ðŸƒ-Mintr" stroke="none" stroke-width="1" fill="none" fill-rule="evenodd">
        <g id="Connect" transform="translate(-1018.000000, -523.000000)" fill="#2D2CE5" fill-rule="nonzero">
            <g id="Group-2-Copy" transform="translate(970.000000, 475.000000)">
                <g id="Group-Copy-3" transform="translate(0.351562, 0.187500)">
                    <g id="ledger" transform="translate(48.053711, 48.518555)">
                        <path d="M37.279328,0.0893185456 L16.8477107,0.0893185456 L16.8477107,27.510112 L44.2685338,27.510112 L44.2685042,7.22363737 C44.279669,3.3717751 41.1311902,0.0893185456 37.279328,0.0893185456 Z M10.5730828,0.0893185456 L7.14548365,0.0893185456 C3.29362137,0.0893185456 0,3.22663246 0,7.23480219 L0,10.6624014 L10.5730828,10.6624014 L10.5730828,0.0893185456 Z M0,17.0821718 L10.5730828,17.0821718 L10.5730828,27.6552547 L0,27.6552547 L0,17.0821718 Z M33.7065861,44.5029653 L37.1341853,44.5029653 C40.9860476,44.5029653 44.279669,41.3656514 44.279669,37.3574817 L44.279669,33.9410473 L33.7065861,33.9410473 L33.7065861,44.5029653 Z M16.8477107,33.9410473 L27.4207935,33.9410473 L27.4207935,44.5141302 L16.8477107,44.5141302 L16.8477107,33.9410473 Z M0,33.9410473 L0,37.3686465 C0,41.2205088 3.13731391,44.5141302 7.14548365,44.5141302 L10.5730828,44.5141302 L10.5730828,33.9410473 L0,33.9410473 Z" id="Shape"></path>
                    </g>
                </g>
            </g>
        </g>
    </g>
</svg>