<?xml version="1.0" encoding="UTF-8"?>
<svg width="84px" height="112px" viewBox="0 0 84 112" version="1.1" xmlns="http://www.w3.org/2000/svg" xmlns:xlink="http://www.w3.org/1999/xlink">
    <!-- Generator: Sketch 54.1 (76490) - https://sketchapp.com -->
    <title>liquidity</title>
    <desc>Created with Sketch.</desc>
    <g id="Page-1" stroke="none" stroke-width="1" fill="none" fill-rule="evenodd">
        <g id="Home-Page" transform="translate(-262.000000, -1597.000000)">
            <g id="Synthetix.Exchange-section" transform="translate(154.000000, 1342.000000)">
                <g id="liquidity" transform="translate(108.000000, 255.000000)">
                    <path d="M78.0705882,42.6998937 L78.0705882,28.466454 L78.0705882,12.1997874 L68.0616566,12.1997874 L68.0616566,22.3663477 L56.0506036,22.3663477 L56.0506036,6.09968105 L66.0595353,6.09968105 C67.7191774,6.09968105 69.0622985,4.73328105 69.0622985,3.04962789 C69.0622985,1.36597473 67.7193868,0 66.0597446,0 L40.0361454,0 C38.3765033,0 37.0333822,1.3664 37.0333822,3.05005316 C37.0333822,4.73370632 38.3765033,6.10010632 40.0361454,6.10010632 L50.0450771,6.10010632 L50.0450771,22.366773 L30.7776952,22.366773 C12.3189911,22.366773 6.51380236,34.8676532 6.02143627,41.4780863 C6.01138798,41.6326728 6.00531714,41.7851329 6.00531714,41.937593 L6.00531714,52.8666667 L0,52.8666667 L0,61 L24.0216873,61 L24.0216873,52.8666667 L18.0161608,52.8666667 L18.0161608,42.2384732 C18.1662571,41.105973 19.5275907,34.566773 30.7776952,34.566773 L68.0614472,34.566773 L68.0614472,42.7001063 L78.0705882,42.7001063 L78.0705882,42.6998937 Z" id="Faucet" fill="#FFFFFF" fill-rule="nonzero" transform="translate(39.035294, 30.500000) scale(-1, 1) translate(-39.035294, -30.500000) "></path>
                    <g id="SNX_white" transform="translate(47.435294, 75.000000)">
                        <ellipse id="Oval-Copy" fill="#FFFFFF" cx="18.2823529" cy="18.5" rx="18.2823529" ry="18.5"></ellipse>
                        <g id="Group-19" transform="translate(12.447559, 11.021277)">
                            <g id="Group-Copy" transform="translate(0.000000, 0.017931)">
                                <g id="Group-6" transform="translate(0.000000, 0.070996)">
                                    <g id="Group-5" transform="translate(0.090158, 0.054861)">
                                        <g id="Group-4" transform="translate(0.007913, 0.047005)">
                                            <polygon id="Path-3" fill="#8E8C98" points="1.69088535 14.0000589 0.193974642 12.9689306 9.60896218 0.338171937 11.1058729 1.36930021"></polygon>
                                            <path d="M6.62395153,6.29873121 C7.13247912,6.29873121 7.54472215,6.69502436 7.54472215,7.18387678 C7.54472215,7.67272919 7.13247912,8.06902235 6.62395153,8.06902235 L4.23390433,8.06902235 C1.91907927,8.06902235 0.0425427985,6.26508998 0.0425427985,4.03982659 C0.0425427985,1.81456322 1.91907927,0.010630837 4.23390433,0.010630837 L10.3977102,0.010630837 C10.9062378,0.010630837 11.3184809,0.406924008 11.3184809,0.895776411 C11.3184809,1.38462881 10.9062378,1.78092198 10.3977102,1.78092198 L4.23390433,1.78092198 C2.93613442,1.78092198 1.88408405,2.79226803 1.88408405,4.03982659 C1.88408405,5.28738515 2.93613442,6.29873121 4.23390433,6.29873121 L6.62395153,6.29873121 Z" id="Rectangle-2" fill="#1E1A31"></path>
                                            <path d="M6.62395176,12.5868315 C7.13247935,12.5868315 7.54472238,12.9831248 7.54472238,13.4719771 C7.54472238,13.9608295 7.13247935,14.3571227 6.62395176,14.3571227 L4.23390455,14.3571227 C1.9190795,14.3571227 0.0425430255,12.5531903 0.0425430255,10.3279269 C0.0425430255,8.10266357 1.9190795,6.29873121 4.23390455,6.29873121 L10.3977105,6.29873121 C10.9062381,6.29873121 11.3184811,6.69502436 11.3184811,7.18387678 C11.3184811,7.67272919 10.9062381,8.06902235 10.3977105,8.06902235 L4.23390455,8.06902235 C2.93613465,8.06902235 1.88408428,9.0803684 1.88408428,10.3279269 C1.88408428,11.5754855 2.93613465,12.5868315 4.23390455,12.5868315 L6.62395176,12.5868315 Z" id="Rectangle-2-Copy" fill="#1E1A31" transform="translate(5.680512, 10.327927) rotate(-180.000000) translate(-5.680512, -10.327927) "></path>
                                        </g>
                                    </g>
                                </g>
                            </g>
                        </g>
                    </g>
                </g>
            </g>
        </g>
    </g>
</svg>