<svg width="138" height="17" fill="none" xmlns="http://www.w3.org/2000/svg"><path fill-rule="evenodd" clip-rule="evenodd" d="M28.457.654l-5.45 9.318v6.374h-2.02V9.972L15.537.654h2.242l4.285 7.503L26.326.654h2.131zM42.75 16.346h-2.445L33.934 3.73v12.616h-1.952V.654h2.49l6.349 12.682V.654h1.929v15.692zM59.89 2.491h-5.384v13.855h-2.042V2.491h-5.406V.654H59.89V2.49zM75.27 16.346H73.23V9.11h-6.752v7.237h-2.02V.654h2.02v6.551h6.752V.654h2.041v15.692zm15.743 0h-10.52V.654h10.52v1.815H82.49v4.78h6.438v1.86H82.49v5.422h8.524v1.815zm16.748-13.855h-5.384v13.855h-2.041V2.491h-5.406V.654h12.831V2.49zm12.98 13.855h-9.063v-1.638h3.522V2.27h-3.522V.654h9.063V2.27h-3.522v12.438h3.522v1.638zm16.866 0h-2.266l-3.993-6.374-3.948 6.374h-2.221l5.048-7.924L125.18.654h2.289l3.97 6.13 3.926-6.13h2.221l-5.025 7.768 5.047 7.924z" fill="#fff"/><path opacity=".5" fill-rule="evenodd" clip-rule="evenodd" d="M2.144 16.154l-1.63-1.165L10.767.723l1.63 1.165L2.143 16.154z" fill="#fff"/><path fill-rule="evenodd" clip-rule="evenodd" d="M7.424 7.5h.547a4.558 4.558 0 014.562 4.554 4.558 4.558 0 01-4.562 4.554H1.263a1.001 1.001 0 110-2.001H7.97a2.555 2.555 0 002.558-2.553A2.555 2.555 0 007.97 9.5H4.823A4.558 4.558 0 01.26 4.946 4.558 4.558 0 014.823.392h6.708a1.001 1.001 0 110 2.001H4.823a2.555 2.555 0 00-2.558 2.553A2.555 2.555 0 004.823 7.5h2.601z" fill="#fff"/></svg>