<?xml version="1.0" encoding="UTF-8"?>
<svg width="51px" height="50px" viewBox="0 0 51 50" version="1.1" xmlns="http://www.w3.org/2000/svg" xmlns:xlink="http://www.w3.org/1999/xlink">
    <!-- Generator: Sketch 52.3 (67297) - http://www.bohemiancoding.com/sketch -->
    <title>logo-gate</title>
    <desc>Created with Sketch.</desc>
    <g id="Page-1" stroke="none" stroke-width="1" fill="none" fill-rule="evenodd">
        <g id="EOS-Launch" transform="translate(-771.000000, -2243.000000)" fill="#D42351">
            <g id="Group-16-Copy-2" transform="translate(730.000000, 2191.000000)">
                <path d="M61.194379,76.4032158 L60.7654431,75.9726005 C60.4418148,75.6492686 59.8851466,75.8782583 59.8851466,76.3369293 L59.8851466,82.4868544 C59.8851466,82.7711652 60.1177914,83.0019331 60.4028925,83.0019331 L66.5539043,83.0019331 C67.0121801,83.0019331 67.2438371,82.4463515 66.917344,82.1226244 C66.7167864,81.9214484 66.7167864,81.5959331 66.917344,81.3947571 L73.4602463,74.834073 C73.6610816,74.6335342 73.6610816,74.3078313 73.4602463,74.1058106 L72.8642605,73.5119982 C72.5404347,73.1886663 72.7713014,72.6329859 73.2285893,72.6329859 L79.3762423,72.6329859 C79.6604543,72.6329859 79.8929016,72.8638525 79.8929016,73.1481633 L79.8929016,79.2983848 C79.8929016,79.7565619 79.3347515,79.9865395 79.0109257,79.6627136 L78.5957213,79.2483983 C78.3922187,79.0417346 78.0683929,79.0417346 77.8687431,79.2483983 L66.838709,90.2736905 C66.6382689,90.4735379 66.3125661,90.4735379 66.10936,90.2736905 L52.6144758,76.7781148 C52.517088,76.6815129 52.4623096,76.5500201 52.4623096,76.4128476 C52.4623096,76.275675 52.517088,76.1441822 52.6144758,76.0475803 L71.2964021,57.3661479 C71.4962494,57.1651151 71.4962494,56.8370414 71.2964021,56.6367001 L66.9035137,52.2441081 C66.701552,52.043961 66.3760276,52.043961 66.1740659,52.2441081 L41.9911504,76.4296908 C41.7907103,76.6308225 41.7907103,76.9588962 41.9911504,77.1591387 L66.1740659,101.342054 C66.3746048,101.541902 66.7036664,101.541902 66.9035137,101.342054 L91.0855401,77.1591387 C91.2852887,76.9581059 91.2852887,76.6317115 91.0855401,76.4312714 L76.858442,62.2039757 C76.6594837,62.003832 76.3322003,62.003832 76.1305747,62.2039757 L61.9248147,76.4034133 C61.8282598,76.5008138 61.6967947,76.5556044 61.5596463,76.5556044 C61.4224978,76.5556044 61.2910327,76.5008138 61.1944778,76.4034133 L61.194379,76.4032158 Z" id="logo-gate"></path>
            </g>
        </g>
    </g>
</svg>