<?xml version="1.0" encoding="UTF-8"?>
<svg width="372px" height="153px" viewBox="0 0 372 153" version="1.1" xmlns="http://www.w3.org/2000/svg" xmlns:xlink="http://www.w3.org/1999/xlink">
    <!-- Generator: Sketch 52.3 (67297) - http://www.bohemiancoding.com/sketch -->
    <title>logo-eosio</title>
    <desc>Created with Sketch.</desc>
    <g id="Page-1" stroke="none" stroke-width="1" fill="none" fill-rule="evenodd">
        <g id="EOS-Launch" transform="translate(-552.000000, -202.000000)">
            <g id="logo-eosio" transform="translate(552.000000, 202.000000)">
                <g id="eosio" transform="translate(269.438232, 0.258695)" fill="#FFFFFF" fill-rule="nonzero">
                    <path d="M51.116927,0 L15.2398292,49.2119483 L0,121.601137 L51.116927,152.398292 L102.233854,121.601137 L86.9940248,48.8944519 L51.116927,0 Z M23.4947366,50.4819341 L51.116927,12.6998576 L78.7391173,50.4819341 L51.116927,133.348505 L23.4947366,50.4819341 Z M82.5490746,62.8642953 L93.9789465,118.108676 L56.5143665,140.650923 L82.5490746,62.8642953 Z M8.25490746,118.108676 L19.6847793,62.8642953 L45.7194875,140.650923 L8.25490746,118.108676 Z" id="Shape"></path>
                </g>
                <g id="Havven-Logo---Dark" transform="translate(0.392578, 13.604300)" fill="#FFFFFF" fill-rule="nonzero">
                    <path d="M12.2597147,0 L31.9752826,49.101709 L52.2143444,0 L63.7844862,0 L31.9752826,75.9924305 L0.520479677,0 L12.2597147,0 Z M12.2597147,47.947605 L31.9752826,97.049314 L52.2143444,47.947605 L63.7844862,47.947605 L31.9752826,123.940036 L0.520479677,47.947605 L12.2597147,47.947605 Z" id="Havven-Dark"></path>
                </g>
                <g id="Group" transform="translate(124.694129, 35.257235)" stroke="#6F6DA0">
                    <path d="M43.305871,0 L43.305871,79.7214966" id="Path-2"></path>
                    <path d="M83.1666194,39.8607483 L3.44512272,39.8607483" id="Path-2"></path>
                </g>
            </g>
        </g>
    </g>
</svg>