<?xml version="1.0" encoding="UTF-8"?>
<svg width="89px" height="36px" viewBox="0 0 89 36" version="1.1" xmlns="http://www.w3.org/2000/svg" xmlns:xlink="http://www.w3.org/1999/xlink">
    <!-- Generator: Sketch 52.3 (67297) - http://www.bohemiancoding.com/sketch -->
    <title>logo-havven</title>
    <desc>Created with Sketch.</desc>
    <g id="Page-1" stroke="none" stroke-width="1" fill="none" fill-rule="evenodd">
        <g id="Partner-with-Us" transform="translate(-130.000000, -71.000000)" fill="#FFFFFF" fill-rule="nonzero">
            <g id="logo-havven" transform="translate(130.000000, 71.875000)">
                <path d="M38.3971508,0 L43.8603088,13.6060191 L49.4685263,0 L52.6745974,0 L43.8603088,21.0574027 L35.1442242,0 L38.3971508,0 Z M38.3971508,13.2862184 L43.8603088,26.8922375 L49.4685263,13.2862184 L52.6745974,13.2862184 L43.8603088,34.3436211 L35.1442242,13.2862184 L38.3971508,13.2862184 Z M0.0216847064,13.3089855 L3.08648371,13.3089855 L3.08648371,21.2358677 L11.6678394,21.2358677 L11.6678394,13.3089855 L14.7640242,13.3089855 L14.7640242,33.4821419 L11.6678394,33.4821419 L11.6678394,24.1186449 L3.08648371,24.1186449 L3.08648371,33.4821419 L0.0216847064,33.4821419 L0.0216847064,13.4819831 L0.0216847064,13.3089855 Z M17.2628197,33.4554578 L27.1944152,12.1049383 L36.7764467,33.4554578 L33.4968387,33.4554578 L31.4133135,28.6436754 L22.7647026,28.6436754 L20.5505799,33.4554578 L17.2628197,33.4554578 Z M24.054698,25.7195258 L30.1246224,25.7195258 L27.1927848,18.7491899 L24.054698,25.7195258 Z M55.9634989,13.347094 L67.0429164,13.347094 L67.0429164,16.1761765 L58.9572111,16.1761765 L58.9572111,21.0085227 L66.807564,21.0085227 L66.807564,23.9338964 L58.9572111,23.9338964 L58.9572111,30.5890828 L67.0429164,30.5890828 L67.0429164,33.4801834 L55.9634989,33.4801834 L55.9634989,13.347094 Z M71.1180108,33.4464815 L71.1180108,11.9689883 L85.7281226,27.3114304 L85.7281226,13.276426 L88.8117528,13.276426 L88.8117528,34.8249136 L74.1036524,19.4568482 L74.1036524,33.4464815 L71.1180108,33.4464815 Z" id="Havven-Dark"></path>
            </g>
        </g>
    </g>
</svg>