<?xml version="1.0" encoding="UTF-8"?>
<svg width="397px" height="153px" viewBox="0 0 397 153" version="1.1" xmlns="http://www.w3.org/2000/svg" xmlns:xlink="http://www.w3.org/1999/xlink">
    <!-- Generator: Sketch 52.3 (67297) - http://www.bohemiancoding.com/sketch -->
    <title>logo-eosio</title>
    <desc>Created with Sketch.</desc>
    <g id="Page-1" stroke="none" stroke-width="1" fill="none" fill-rule="evenodd">
        <g id="EOS" transform="translate(-527.000000, -202.000000)">
            <g id="logo-eosio" transform="translate(525.000000, 202.000000)">
                <g id="eosio" transform="translate(296.438232, 0.258695)" fill="#FFFFFF" fill-rule="nonzero">
                    <path d="M51.116927,0 L15.2398292,49.2119483 L0,121.601137 L51.116927,152.398292 L102.233854,121.601137 L86.9940248,48.8944519 L51.116927,0 Z M23.4947366,50.4819341 L51.116927,12.6998576 L78.7391173,50.4819341 L51.116927,133.348505 L23.4947366,50.4819341 Z M82.5490746,62.8642953 L93.9789465,118.108676 L56.5143665,140.650923 L82.5490746,62.8642953 Z M8.25490746,118.108676 L19.6847793,62.8642953 L45.7194875,140.650923 L8.25490746,118.108676 Z" id="Shape"></path>
                </g>
                <g id="Group" transform="translate(151.694129, 35.257235)" stroke="#6F6DA0">
                    <path d="M43.305871,0 L43.305871,79.7214966" id="Path-2"></path>
                    <path d="M83.1666194,39.8607483 L3.44512272,39.8607483" id="Path-2"></path>
                </g>
                <g id="Group" transform="translate(0.920566, 12.221412)" fill="#FFFFFF" fill-rule="nonzero">
                    <g id="Group-6" transform="translate(0.000000, 0.595177)">
                        <g id="Group-5" transform="translate(0.726580, 0.459910)">
                            <g id="Group-4" transform="translate(0.063769, 0.394056)">
                                <path d="M53.7051603,53.2889635 C57.8033307,53.2889635 61.1255542,56.611187 61.1255542,60.7093574 C61.1255542,64.8075278 57.8033307,68.1297513 53.7051603,68.1297513 L34.4440206,68.1297513 C15.7890882,68.1297513 0.666277536,53.0069407 0.666277536,34.3520083 C0.666277536,15.697076 15.7890882,0.574265306 34.4440206,0.574265306 L84.1174861,0.574265306 C88.2156565,0.574265306 91.5378801,3.89648883 91.5378801,7.99465924 C91.5378801,12.0928296 88.2156565,15.4150532 84.1174861,15.4150532 L34.4440206,15.4150532 C23.985429,15.4150532 15.5070654,23.8934168 15.5070654,34.3520083 C15.5070654,44.8105999 23.985429,53.2889635 34.4440206,53.2889635 L53.7051603,53.2889635 Z" id="Rectangle-2"></path>
                                <path d="M53.7051603,106.003662 C57.8033307,106.003662 61.1255542,109.325885 61.1255542,113.424056 C61.1255542,117.522226 57.8033307,120.84445 53.7051603,120.84445 L34.4440206,120.84445 C15.7890882,120.84445 0.666277536,105.721639 0.666277536,87.0667065 C0.666277536,68.4117741 15.7890882,53.2889635 34.4440206,53.2889635 L84.1174861,53.2889635 C88.2156565,53.2889635 91.5378801,56.611187 91.5378801,60.7093574 C91.5378801,64.8075278 88.2156565,68.1297513 84.1174861,68.1297513 L34.4440206,68.1297513 C23.985429,68.1297513 15.5070654,76.608115 15.5070654,87.0667065 C15.5070654,97.525298 23.985429,106.003662 34.4440206,106.003662 L53.7051603,106.003662 Z" id="Rectangle-2-Copy" transform="translate(46.102079, 87.066707) rotate(-180.000000) translate(-46.102079, -87.066707) "></path>
                                <polygon id="Path-3" fill-opacity="0.5" points="13.9500973 117.851095 1.88665088 109.206892 77.761048 3.32012325 89.8244944 11.9643262"></polygon>
                            </g>
                        </g>
                    </g>
                </g>
            </g>
        </g>
    </g>
</svg>