<?xml version="1.0" encoding="UTF-8"?>
<svg width="24px" height="16px" viewBox="0 0 24 16" version="1.1" xmlns="http://www.w3.org/2000/svg" xmlns:xlink="http://www.w3.org/1999/xlink">
    <!-- Generator: Sketch 52.3 (67297) - http://www.bohemiancoding.com/sketch -->
    <title>logo-telegram-dark</title>
    <desc>Created with Sketch.</desc>
    <g id="Page-1" stroke="none" stroke-width="1" fill="none" fill-rule="evenodd">
        <g id="Community" transform="translate(-1114.000000, -1265.000000)" fill="#5641F2" fill-rule="nonzero">
            <g id="Group-9" transform="translate(1032.000000, 1234.487625)">
                <g id="Group" transform="translate(81.500000, 29.843750)">
                    <g id="logo-telegram-dark" transform="translate(0.500000, 0.500000)">
                        <path d="M23.9516831,0.50443301 C23.9120841,0.358568172 23.7789281,0.241017964 23.6027054,0.196355256 C23.2873939,0.145858386 22.9611126,0.164565134 22.6577657,0.250531659 C22.6577657,0.250531659 1.63010791,6.36276195 0.42918456,7.03956268 C0.171201027,7.18511123 0.0842065804,7.27001455 0.0412093249,7.36947272 C-0.166777399,7.85463454 0.480181305,8.06325412 0.480181305,8.06325412 L5.89983537,9.49124706 C5.99147455,9.50454072 6.08570343,9.50010734 6.17481782,9.47830942 C7.40673918,8.84840766 18.5740264,3.14371329 19.2229849,2.95207438 C19.3229786,2.92781629 19.3999737,2.95207438 19.3799749,3.0127196 C19.1219914,3.74450534 9.47160738,10.6766591 9.41861076,10.7187065 C9.36615863,10.7534587 9.33905624,10.8073366 9.34661536,10.8618292 L8.84064765,15.1409564 C8.84064765,15.1409564 8.62866119,16.4727256 10.2755561,15.1409564 C11.4434815,14.1956995 12.56441,13.4129718 13.1243742,13.0321197 C14.9882553,14.0727918 16.9931273,15.2234339 17.8580721,15.8258432 C18.1520357,16.0559481 18.5491241,16.1794285 18.9580019,16.1678823 C19.4682297,16.1175923 19.886705,15.817184 20.0089348,15.4134556 C20.0089348,15.4134556 23.8386903,2.94237114 23.9666822,1.27179728 C23.9796813,1.11007668 23.9966802,1.00334108 23.9986801,0.890945258 C24.0049047,0.7609771 23.9890922,0.630931768 23.9516831,0.50443301 Z" id="Shape"></path>
                    </g>
                </g>
            </g>
        </g>
    </g>
</svg>