<?xml version="1.0" encoding="UTF-8"?>
<svg width="24px" height="21px" viewBox="0 0 24 21" version="1.1" xmlns="http://www.w3.org/2000/svg" xmlns:xlink="http://www.w3.org/1999/xlink">
    <!-- Generator: Sketch 52.3 (67297) - http://www.bohemiancoding.com/sketch -->
    <title>logo-reddit</title>
    <desc>Created with Sketch.</desc>
    <g id="Page-1" stroke="none" stroke-width="1" fill="none" fill-rule="evenodd">
        <g id="Desktop" transform="translate(-1279.000000, -4172.000000)" fill="#FFFFFF" fill-rule="nonzero">
            <g id="Group-17" transform="translate(0.000000, 4092.000000)">
                <g id="Group-12" transform="translate(1110.000000, 78.480469)">
                    <g id="logo-reddit" transform="translate(169.000000, 1.000000)">
                        <path d="M24,10.8 C24,9.2 22.7,7.9 21.1,7.9 C20.4,7.9 19.8,8.1 19.3,8.5 C17.5,7.4 15.3,6.7 12.9,6.6 L14.1,2.7 L17.5,3.5 C17.6,4.7 18.6,5.7 19.9,5.7 C21.2,5.7 22.3,4.6 22.3,3.3 C22.3,2 21.2,0.9 19.9,0.9 C19,0.9 18.2,1.4 17.8,2.2 L13.8,1.3 C13.5,1.2 13.1,1.4 13,1.7 L11.5,6.6 C9,6.7 6.5,7.3 4.7,8.5 C4.2,8.1 3.6,7.9 2.9,7.9 C1.3,7.9 0,9.2 0,10.8 C0,11.8 0.5,12.7 1.2,13.2 C1.2,13.4 1.2,13.7 1.2,13.9 C1.2,15.9 2.4,17.7 4.5,19.1 C6.5,20.4 9.2,21.1 12,21.1 C14.8,21.1 17.5,20.4 19.5,19.1 C21.6,17.7 22.8,15.9 22.8,13.9 C22.8,13.7 22.8,13.5 22.8,13.3 C23.5,12.7 24,11.8 24,10.8 Z M20,2.2 C20.6,2.2 21.1,2.7 21.1,3.3 C21.1,3.9 20.6,4.4 20,4.4 C19.4,4.4 18.9,3.9 18.9,3.3 C18.9,2.7 19.4,2.2 20,2.2 Z M6.8,12.6 C6.8,11.7 7.6,11 8.4,11 C9.3,11 10,11.8 10,12.6 C10,13.4 9.3,14.2 8.4,14.2 C7.6,14.2 6.8,13.5 6.8,12.6 Z M16,17.3 C15.2,18.1 13.9,18.5 12.1,18.5 C12.1,18.5 12.1,18.5 12.1,18.5 C12.1,18.5 12.1,18.5 12.1,18.5 C10.3,18.5 9,18.1 8.2,17.3 C7.9,17 7.9,16.6 8.2,16.4 C8.5,16.1 8.9,16.1 9.1,16.4 C9.7,17 10.7,17.3 12.1,17.3 C12.1,17.3 12.1,17.3 12.1,17.3 C12.1,17.3 12.1,17.3 12.1,17.3 C13.5,17.3 14.5,17 15.1,16.4 C15.4,16.1 15.8,16.1 16,16.4 C16.2,16.7 16.2,17.1 16,17.3 Z M15.6,14.2 C14.7,14.2 13.9,13.5 13.9,12.6 C13.9,11.7 14.7,11 15.6,11 C16.5,11 17.2,11.8 17.2,12.6 C17.2,13.4 16.5,14.2 15.6,14.2 Z" id="Shape"></path>
                    </g>
                </g>
            </g>
        </g>
    </g>
</svg>