<?xml version="1.0" encoding="UTF-8"?>
<svg width="40px" height="44px" viewBox="0 0 40 44" version="1.1" xmlns="http://www.w3.org/2000/svg" xmlns:xlink="http://www.w3.org/1999/xlink">
    <!-- Generator: Sketch 52.3 (67297) - http://www.bohemiancoding.com/sketch -->
    <title>logo-kucoin</title>
    <desc>Created with Sketch.</desc>
    <g id="Page-1" stroke="none" stroke-width="1" fill="none" fill-rule="evenodd">
        <g id="EOS-Launch" transform="translate(-380.000000, -2243.000000)" fill="#5460FF" fill-rule="nonzero">
            <g id="Group-16-Copy" transform="translate(330.000000, 2191.000000)">
                <g id="logo-kucoin" transform="translate(50.362334, 52.330984)">
                    <path d="M12.705902,21.76094 L25.333589,34.3906166 L33.3035644,26.4207656 C34.711062,25.0127706 36.9944685,25.0131436 38.4019661,26.4207656 C39.8095881,27.8283875 39.8098368,30.1112967 38.4019661,31.5187943 L27.882852,42.0379083 C26.4815719,43.4389398 24.1729226,43.4262563 22.7848234,42.0379083 L7.61098204,26.8622018 L7.61073334,35.8841632 C7.61073334,37.8647818 5.98637243,39.4895157 4.00525645,39.4895157 C2.01469,39.4895157 0.400774341,37.8751027 0.400774341,35.8845362 L0.400774341,7.63784126 C0.400774341,5.64739916 2.01469,4.03286176 4.00525645,4.03286176 C5.99619594,4.03286176 7.61073334,5.64789655 7.61073334,7.63784126 L7.61073334,16.6598027 L22.7848234,1.48372307 C24.1729226,0.0954994397 26.4815719,0.0826915722 27.882852,1.48372307 L38.4019661,12.0028371 C39.8098368,13.4103347 39.8095881,15.6933682 38.4019661,17.1008658 C36.9944685,18.5083634 34.711062,18.5088608 33.3035644,17.1008658 L25.333589,9.13113914 L12.705902,21.76094 Z M25.3390603,18.1522301 C27.331492,18.1522301 28.9475216,19.7682597 28.9475216,21.760567 C28.9475216,23.7533717 27.331492,25.3694013 25.3390603,25.3694013 C23.34638,25.3694013 21.7303504,23.7533717 21.7303504,21.760567 C21.7303504,19.7682597 23.34638,18.1522301 25.3390603,18.1522301 Z" id="Shape"></path>
                </g>
            </g>
        </g>
    </g>
</svg>