<svg width="40" height="40" viewBox="0 0 40 40" fill="none" xmlns="http://www.w3.org/2000/svg">
<rect width="40" height="40" rx="1" fill="#5641F2"/>
<path d="M22.4945 21.0853C22.4945 21.4494 22.7177 21.6428 23.1641 21.6655L23.8691 21.6997C24.339 21.7224 24.7503 21.9386 25.1027 22.3481C25.4787 22.7577 25.6667 23.2241 25.6667 23.7474C25.6667 24.3845 25.4317 24.9192 24.9617 25.3515C24.4918 25.7838 23.9043 26 23.1994 26C22.377 26 21.6955 25.6928 21.1551 25.0785C20.6381 24.4414 20.3797 23.6337 20.3797 22.6553C20.3797 20.835 21.1198 18.9693 22.6002 17.058C23.1407 16.3527 23.6106 16 24.0101 16C24.4565 16 24.6798 16.2275 24.6798 16.6826C24.6798 16.8646 24.5505 17.1149 24.292 17.4334C23.6576 18.2071 23.1289 19.1286 22.7059 20.198C22.565 20.562 22.4945 20.8578 22.4945 21.0853ZM16.0796 21.0853C16.0796 21.4494 16.3028 21.6428 16.7492 21.6655L17.4542 21.6997C17.9476 21.7224 18.3706 21.9386 18.7231 22.3481C19.099 22.7577 19.287 23.2241 19.287 23.7474C19.287 24.3845 19.052 24.9192 18.5821 25.3515C18.1121 25.7838 17.5247 26 16.8197 26C15.9973 26 15.3159 25.6928 14.7754 25.0785C14.2585 24.4414 14 23.6337 14 22.6553C14 20.835 14.7402 18.9693 16.2205 17.058C16.761 16.3527 17.2309 16 17.6304 16C18.0769 16 18.3001 16.2275 18.3001 16.6826C18.3001 16.8646 18.1709 17.1149 17.9124 17.4334C17.4424 18.0023 17.0195 18.6621 16.6435 19.413C16.2675 20.1638 16.0796 20.7213 16.0796 21.0853Z" fill="#1E1A31"/>
</svg>
