<?xml version="1.0" encoding="UTF-8"?>
<svg width="64px" height="60px" viewBox="0 0 64 60" version="1.1" xmlns="http://www.w3.org/2000/svg" xmlns:xlink="http://www.w3.org/1999/xlink">
    <!-- Generator: Sketch 50 (54983) - http://www.bohemiancoding.com/sketch -->
    <title>metamask-fox</title>
    <desc>Created with Sketch.</desc>
    <defs></defs>
    <g id="ðŸƒ-Mintr" stroke="none" stroke-width="1" fill="none" fill-rule="evenodd" stroke-linecap="round" stroke-linejoin="round">
        <g id="Connect" transform="translate(-78.000000, -519.000000)" fill-rule="nonzero">
            <g id="Group-2" transform="translate(34.000000, 475.000000)">
                <g id="metamask-fox" transform="translate(44.406250, 44.851562)">
                    <polygon id="Shape" stroke="#E2761B" fill="#E2761B" points="59.7692023 0.122931309 35.3058719 18.2921787 39.829744 7.57256862"></polygon>
                    <g id="Group" transform="translate(0.491725, 0.000000)" fill="#E4761B" stroke="#E4761B">
                        <polygon id="Shape" points="2.80283384 0.122931309 27.0694742 18.4642826 22.7668784 7.57256862"></polygon>
                        <polygon id="Shape" points="50.4755954 42.2391977 43.960236 52.22122 57.9006464 56.0566768 61.9082071 42.460474"></polygon>
                        <polygon id="Shape" points="0.221276356 42.460474 4.20425076 56.0566768 18.1446612 52.22122 11.6293018 42.2391977"></polygon>
                        <polygon id="Shape" points="17.3579008 25.3730221 13.4732714 31.2491387 27.3153368 31.8637952 26.8236116 16.9891069"></polygon>
                        <polygon id="Shape" points="44.7224101 25.3730221 35.133768 16.817003 34.8141466 31.8637952 48.6316257 31.2491387"></polygon>
                        <polygon id="Shape" points="18.1446612 52.22122 26.4548176 48.1644868 19.2756292 42.5588191"></polygon>
                        <polygon id="Shape" points="35.6254933 48.1644868 43.960236 52.22122 42.8046817 42.5588191"></polygon>
                    </g>
                    <g id="Group" transform="translate(18.439696, 47.943210)" fill="#D7C1B3" stroke="#D7C1B3">
                        <polygon id="Shape" points="26.0122649 4.27800954 17.6775222 0.221276356 18.3413513 5.6548402 18.2675925 7.94136255"></polygon>
                        <polygon id="Shape" points="0.196690094 4.27800954 7.94136255 7.94136255 7.89219002 5.6548402 8.50684657 0.221276356"></polygon>
                    </g>
                    <polygon id="Shape" stroke="#233447" fill="#233447" points="26.5039902 38.9692249 19.5706644 36.9285651 24.4633304 34.6912153"></polygon>
                    <polygon id="Shape" stroke="#233447" fill="#233447" points="36.5597712 38.9692249 38.6004309 34.6912153 43.5176833 36.9285651"></polygon>
                    <g id="Group" transform="translate(12.047268, 31.224552)" fill="#CD6116" stroke="#CD6116">
                        <polygon id="Shape" points="6.58911815 20.9966675 7.76925871 11.0146453 0.0737587852 11.2359216"></polygon>
                        <polygon id="Shape" points="31.2245524 11.0146453 32.404693 20.9966675 38.9200523 11.2359216"></polygon>
                        <polygon id="Shape" points="37.0760827 0.0245862617 23.2586036 0.639242805 24.5370892 7.74467245 26.577749 3.46666291 31.4950013 5.70401273"></polygon>
                        <polygon id="Shape" points="7.5233961 5.70401273 12.4406484 3.46666291 14.4567219 7.74467245 15.7597938 0.639242805 1.91772842 0.0245862617"></polygon>
                    </g>
                    <g id="Group" transform="translate(13.768307, 31.224552)" fill="#E4751F" stroke="#E4751F">
                        <polygon id="Shape" points="0.196690094 0.0245862617 5.99904787 11.3342667 5.80235777 5.70401273"></polygon>
                        <polygon id="Shape" points="29.773963 5.70401273 29.5281004 11.3342667 35.3550444 0.0245862617"></polygon>
                        <polygon id="Shape" points="14.0387555 0.639242805 12.7356836 7.74467245 14.3583769 16.1285877 14.7271708 5.08935618"></polygon>
                        <polygon id="Shape" points="21.5375653 0.639242805 20.8737362 5.06476992 21.1687714 16.1285877 22.8160509 7.74467245"></polygon>
                    </g>
                    <polygon id="Shape" stroke="#F6851B" fill="#F6851B" points="36.5843575 38.9692249 34.9370779 47.3531401 36.1172185 48.1644868 43.2964069 42.5588191 43.5422696 36.9285651"></polygon>
                    <polygon id="Shape" stroke="#F6851B" fill="#F6851B" points="19.5706644 36.9285651 19.7673544 42.5588191 26.9465429 48.1644868 28.1266834 47.3531401 26.5039902 38.9692249"></polygon>
                    <polygon id="Shape" stroke="#C0AD9E" fill="#C0AD9E" points="36.7072888 55.884573 36.7810476 53.5980506 36.166391 53.0571529 26.8973704 53.0571529 26.3318863 53.5980506 26.3810589 55.884573 18.6363864 52.22122 21.3408752 54.4339835 26.8236116 58.2448541 36.2401498 58.2448541 41.7474725 54.4339835 44.4519612 52.22122"></polygon>
                    <polygon id="Shape" stroke="#161616" fill="#161616" points="36.1172185 48.1644868 34.9370779 47.3531401 28.1266834 47.3531401 26.9465429 48.1644868 26.3318863 53.5980506 26.8973704 53.0571529 36.166391 53.0571529 36.7810476 53.5980506"></polygon>
                    <g id="Group" fill="#763D16" stroke="#763D16">
                        <polygon id="Shape" points="60.8018253 19.4723193 62.8916576 9.44112451 59.7692023 0.122931309 36.1172185 17.6775222 45.2141354 25.3730221 58.0727503 29.1347202 60.9247566 25.8155748 59.6954435 24.9304694 61.6623445 23.1356723 60.1379962 21.9555317 62.1048972 20.4557698"></polygon>
                        <polygon id="Shape" points="0.196690094 9.44112451 2.28652234 19.4723193 0.958864208 20.4557698 2.92576515 21.9555317 1.42600318 23.1356723 3.39290412 24.9304694 2.16359103 25.8155748 4.99101114 29.1347202 17.849626 25.3730221 26.9465429 17.6775222 3.29455907 0.122931309"></polygon>
                    </g>
                    <polygon id="Shape" stroke="#F6851B" fill="#F6851B" points="58.0727503 29.1347202 45.2141354 25.3730221 49.123351 31.2491387 43.2964069 42.5588191 50.9673206 42.460474 62.3999323 42.460474"></polygon>
                    <polygon id="Shape" stroke="#F6851B" fill="#F6851B" points="17.849626 25.3730221 4.99101114 29.1347202 0.713001591 42.460474 12.121027 42.460474 19.7673544 42.5588191 13.9649967 31.2491387"></polygon>
                    <polygon id="Shape" stroke="#F6851B" fill="#F6851B" points="35.3058719 31.8637952 36.1172185 17.6775222 39.8543303 7.57256862 23.2586036 7.57256862 26.9465429 17.6775222 27.807062 31.8637952 28.1020972 36.3384949 28.1266834 47.3531401 34.9370779 47.3531401 34.9862505 36.3384949"></polygon>
                </g>
            </g>
        </g>
    </g>
</svg>