<svg width="64" height="64" fill="none" xmlns="http://www.w3.org/2000/svg"><path d="M56.09 40.702v7.218c0 1.582-1.182 3.07-3.28 4.377-.297.18-.615.37-.96.54 0 0-.01 0-.01.01-.299.16-.616.312-.952.473a29.222 29.222 0 01-3.848 1.43c-.317.095-.635.19-.962.285h-.01c-.308.084-.624.17-.952.256-1.27.319-2.554.587-3.848.805-.316.056-.634.114-.961.161h-.009c-.318.047-.626.104-.953.142-1.24.18-2.52.322-3.847.435-.318.028-.634.057-.962.077h-.009c-1.597.12-3.198.186-4.8.199-.318.008-.635.008-.962.008h-.01c-.326 0-.634 0-.951-.009a72.55 72.55 0 01-4.81-.2h-.009c-.327-.018-.635-.047-.953-.075a66.02 66.02 0 01-3.847-.435c-.327-.038-.644-.095-.961-.143h-.01c-.327-.046-.635-.104-.953-.16a49.72 49.72 0 01-3.847-.806c-.327-.085-.654-.17-.961-.255h-.01c-.327-.095-.635-.19-.952-.285a29.224 29.224 0 01-3.848-1.43 12.888 12.888 0 01-.962-.483s-.008 0-.008-.01a9.02 9.02 0 01-.953-.53C2.623 51 1.43 49.502 1.43 47.92v-7.218h54.66z" fill="#10BA97"/><path d="M56.09 40.702c0 1.582-1.182 3.07-3.28 4.358a9.623 9.623 0 01-.97.558c-.299.17-.616.322-.952.483-1.126.522-2.424.995-3.848 1.43-.317.096-.635.19-.962.285h-.01a55.83 55.83 0 01-.952.256 49.59 49.59 0 01-3.848.805c-.316.057-.634.114-.961.161h-.009c-.318.048-.626.105-.953.142-1.24.18-2.52.322-3.847.436-.318.029-.634.057-.962.076h-.009c-1.597.12-3.198.186-4.8.2-.318.008-.635.008-.962.008h-.01c-.326 0-.634 0-.951-.009a72.208 72.208 0 01-4.81-.199h-.009c-.327-.02-.635-.047-.953-.076a66.1 66.1 0 01-3.847-.436c-.327-.037-.644-.094-.961-.142h-.01c-.327-.047-.635-.104-.953-.16a49.664 49.664 0 01-3.847-.806c-.327-.085-.654-.17-.961-.256h-.01c-.327-.094-.635-.19-.952-.284a29.125 29.125 0 01-3.848-1.43 13.148 13.148 0 01-.962-.484s-.008 0-.008-.008a9.023 9.023 0 01-.953-.532c-2.097-1.297-3.29-2.794-3.29-4.376 0-5.078 12.244-9.2 27.335-9.2 15.091 0 27.326 4.122 27.326 9.2z" fill="#21D8B3"/><path d="M28.68 47.33c-.272 0-.53 0-.796-.009a71.813 71.813 0 01-4.653-.19l-.118-.01h-.048c-.247-.015-.484-.037-.725-.06a64.913 64.913 0 01-3.774-.423c-.26-.032-.44-.062-.622-.09l-.53-.08c-.192-.03-.685-.12-.685-.12a46.606 46.606 0 01-4.569-1.005l-.915-.272a27.805 27.805 0 01-2.963-1.06v-.01l-1.455-.698-.462-.255h-.018a6.573 6.573 0 01-.21-.129c-1.555-.962-2.096-1.793-2.096-2.217 0-2.337 9.386-6.628 24.724-6.628 15.332 0 24.716 4.291 24.716 6.628 0 .422-.538 1.247-2.051 2.177a7.713 7.713 0 01-.758.44l-.142.076c-.242.138-.502.26-.774.39-.939.435-2.12.873-3.49 1.292l-.904.265c-.295.081-.599.163-.911.244a45.878 45.878 0 01-3.619.757c-.267.047-.509.091-.752.129l-.524.08c-.17.027-.34.055-.516.076a64.415 64.415 0 01-3.768.427c-.277.026-.543.05-.816.066l-.166.01a69.998 69.998 0 01-4.582.19c-.325.008-.598.009-.875.009h-.153z" fill="#10BA97"/><path d="M6.644 46.101v7.22a12.866 12.866 0 01-.963-.484s-.008 0-.008-.01a9.019 9.019 0 01-.953-.53v-7.219c.298.19.615.37.952.53 0 .01.01.01.01.01.308.17.625.332.962.483zM12.415 48.072v7.219c-.327-.085-.654-.17-.962-.256h-.01c-.327-.095-.635-.19-.952-.284v-7.22c.317.096.625.19.952.285h.01c.308.085.634.171.961.256h.001zM18.185 49.18v7.219c-.327-.038-.644-.095-.961-.143h-.01c-.327-.046-.635-.104-.953-.16v-7.219c.319.057.626.114.953.161h.009c.318.048.635.105.962.142zM23.956 49.758v7.219c-.327-.02-.644-.038-.962-.067h-.009c-.327-.019-.635-.048-.953-.076v-7.218c.318.029.625.056.953.076h.01c.318.028.634.047.961.066zM29.727 49.89v7.22c-.317.009-.635.009-.962.009h-.01c-.326 0-.634 0-.951-.01v-7.218c.317.009.625.009.952.009h.01c.326 0 .644 0 .96-.009zM35.498 49.616v7.218c-.318.028-.634.057-.962.077h-.009c-.319.028-.626.046-.953.066v-7.219c.327-.02.635-.038.953-.066h.009c.327-.02.645-.047.962-.076zM41.787 48.877v7.218c-.387.057-.773.115-1.171.161h-.01c-.388.048-.762.105-1.16.143V49.18c.398-.037.773-.094 1.159-.142h.011c.398-.047.784-.104 1.17-.16zM47.502 47.532v7.219c-.386.094-.772.189-1.17.284h-.011c-.375.084-.76.17-1.159.256v-7.22c.398-.084.784-.17 1.159-.255h.011c.398-.094.784-.19 1.17-.284zM52.81 45.06v7.237c-.297.18-.615.37-.96.54 0 0-.01 0-.01.01-.299.16-.616.312-.952.473V46.1c.335-.16.654-.312.952-.483.346-.17.663-.36.97-.558z" fill="#09997B"/><path d="M63.09 27.702v7.218c0 1.582-1.182 3.07-3.28 4.377-.297.18-.615.37-.96.54 0 0-.01 0-.01.01-.299.16-.616.312-.952.473a29.222 29.222 0 01-3.848 1.43c-.317.095-.635.19-.962.285h-.01c-.308.084-.624.17-.952.256-1.27.319-2.554.587-3.848.805-.316.056-.634.114-.961.161h-.009c-.318.047-.626.104-.953.142-1.24.18-2.52.322-3.847.435-.318.028-.634.057-.962.077h-.009c-1.597.12-3.198.186-4.8.199-.318.008-.635.008-.962.008h-.01c-.326 0-.635 0-.951-.009a72.55 72.55 0 01-4.81-.2h-.009c-.327-.018-.635-.047-.953-.075a66.02 66.02 0 01-3.847-.435c-.327-.038-.644-.095-.961-.143h-.01c-.327-.046-.635-.104-.953-.16a49.72 49.72 0 01-3.847-.806c-.327-.085-.654-.17-.962-.255h-.009c-.327-.095-.635-.19-.952-.285a29.223 29.223 0 01-3.848-1.43 12.89 12.89 0 01-.962-.483s-.008 0-.008-.01a9.022 9.022 0 01-.953-.53C9.623 38 8.43 36.502 8.43 34.92v-7.218h54.66z" fill="#10BA97"/><path d="M63.09 27.702c0 1.582-1.182 3.07-3.28 4.358a9.623 9.623 0 01-.97.558c-.299.17-.616.322-.952.483-1.126.522-2.424.995-3.848 1.43-.317.096-.635.19-.962.285h-.01a55.83 55.83 0 01-.952.256 49.59 49.59 0 01-3.848.805c-.316.057-.634.114-.961.161h-.009c-.318.048-.626.105-.953.142-1.24.18-2.52.322-3.847.436-.318.029-.634.057-.962.076h-.009c-1.597.12-3.198.186-4.8.2-.318.008-.635.008-.962.008h-.01c-.326 0-.634 0-.951-.009a72.208 72.208 0 01-4.81-.199h-.009c-.327-.02-.635-.047-.953-.076a66.1 66.1 0 01-3.847-.436c-.327-.037-.644-.094-.961-.142h-.01c-.327-.047-.635-.104-.953-.16a49.664 49.664 0 01-3.847-.806c-.327-.085-.654-.17-.962-.256h-.009c-.327-.094-.635-.19-.952-.284a29.124 29.124 0 01-3.848-1.43 13.168 13.168 0 01-.962-.484s-.008 0-.008-.008a9.025 9.025 0 01-.953-.532c-2.097-1.297-3.29-2.794-3.29-4.376 0-5.078 12.244-9.2 27.335-9.2 15.091 0 27.326 4.122 27.326 9.2z" fill="#21D8B3"/><path d="M35.68 34.33c-.272 0-.53 0-.796-.009a71.813 71.813 0 01-4.653-.19l-.118-.01h-.048c-.247-.015-.484-.037-.725-.06a64.913 64.913 0 01-3.774-.423c-.26-.032-.44-.062-.622-.09l-.53-.08c-.192-.03-.685-.12-.685-.12a46.606 46.606 0 01-4.569-1.005l-.915-.272a27.81 27.81 0 01-2.963-1.06v-.01l-1.455-.698-.462-.255h-.018a6.516 6.516 0 01-.21-.129c-1.555-.962-2.096-1.793-2.096-2.217 0-2.337 9.386-6.629 24.724-6.629 15.332 0 24.716 4.292 24.716 6.63 0 .421-.538 1.245-2.051 2.176a7.713 7.713 0 01-.758.44l-.142.076c-.242.138-.502.26-.774.39-.939.435-2.12.873-3.49 1.292l-.904.265c-.295.081-.599.163-.911.244a45.878 45.878 0 01-3.619.757c-.267.047-.509.091-.752.129l-.524.08c-.17.027-.34.055-.516.076a64.415 64.415 0 01-3.768.427c-.277.026-.543.05-.816.066l-.166.01a69.998 69.998 0 01-4.582.19c-.325.008-.598.009-.875.009h-.153z" fill="#10BA97"/><path d="M13.644 33.101v7.22a12.871 12.871 0 01-.963-.484s-.008 0-.008-.01a9.022 9.022 0 01-.953-.53v-7.219c.298.19.615.37.952.53 0 .01.01.01.01.01.307.17.625.332.962.483zM19.415 35.072v7.219c-.327-.085-.654-.17-.962-.256h-.01c-.327-.095-.635-.19-.952-.284v-7.22c.317.096.625.19.952.285h.01c.308.085.634.171.961.256h.001zM25.185 36.18v7.219c-.327-.038-.644-.095-.961-.143h-.01c-.327-.046-.635-.104-.953-.16v-7.219c.319.057.626.114.953.161h.009c.318.048.635.105.962.142zM30.956 36.758v7.219c-.327-.02-.644-.038-.962-.067h-.009c-.327-.019-.635-.048-.953-.076v-7.218c.318.029.625.056.953.076h.01c.318.028.634.047.961.066zM36.727 36.89v7.22c-.317.009-.635.009-.962.009h-.01c-.326 0-.635 0-.951-.01v-7.218c.317.009.625.009.952.009h.01c.326 0 .644 0 .96-.009zM42.498 36.616v7.218c-.318.028-.634.057-.962.077h-.009c-.319.028-.626.046-.953.066v-7.219c.327-.02.635-.038.953-.066h.009c.327-.02.645-.047.962-.076zM48.787 35.877v7.218c-.387.057-.773.115-1.171.161h-.01c-.388.048-.762.105-1.16.143V36.18c.398-.037.773-.094 1.159-.142h.011c.398-.047.784-.104 1.17-.16zM54.502 34.532v7.219c-.386.094-.772.189-1.17.284h-.011c-.375.084-.76.17-1.159.256v-7.22c.398-.084.784-.17 1.159-.255h.011c.398-.094.784-.19 1.17-.284zM59.81 32.06v7.237c-.297.18-.615.37-.96.54 0 0-.01 0-.01.01-.299.16-.616.312-.952.473V33.1c.335-.16.654-.312.952-.483.346-.17.663-.36.97-.558z" fill="#09997B"/><path d="M57.09 12.702v7.218c0 1.582-1.182 3.07-3.28 4.377-.297.18-.615.37-.96.54 0 0-.01 0-.01.01-.299.16-.616.312-.952.473a29.222 29.222 0 01-3.848 1.43c-.317.095-.635.19-.962.285h-.01c-.308.084-.624.17-.952.256-1.27.319-2.554.587-3.848.805-.316.056-.634.114-.961.161h-.009c-.318.047-.626.103-.953.142-1.24.18-2.52.322-3.847.435-.318.029-.634.057-.962.077h-.009c-1.597.12-3.198.186-4.8.199-.318.009-.635.009-.962.009h-.01c-.326 0-.634 0-.951-.01a72.55 72.55 0 01-4.81-.2h-.009c-.327-.018-.635-.046-.953-.075a66.02 66.02 0 01-3.847-.435c-.327-.039-.644-.095-.961-.143h-.01c-.327-.046-.635-.104-.953-.16a49.72 49.72 0 01-3.847-.806c-.327-.085-.654-.17-.961-.255h-.01c-.327-.096-.635-.19-.952-.285a29.224 29.224 0 01-3.848-1.43 12.888 12.888 0 01-.962-.483s-.008 0-.008-.01a9.02 9.02 0 01-.953-.53C3.623 23 2.43 21.502 2.43 19.92v-7.218h54.66z" fill="#10BA97"/><path d="M57.09 12.702c0 1.582-1.182 3.07-3.28 4.358a9.623 9.623 0 01-.97.558c-.299.17-.616.322-.952.483-1.126.522-2.424.995-3.848 1.43-.317.096-.635.19-.962.285h-.01a55.83 55.83 0 01-.952.256 49.59 49.59 0 01-3.848.805c-.316.057-.634.114-.961.161h-.009c-.318.048-.626.105-.953.142-1.24.18-2.52.322-3.847.436-.318.029-.634.057-.962.076h-.009c-1.597.12-3.198.186-4.8.2-.318.008-.635.008-.962.008h-.01c-.326 0-.634 0-.951-.009a72.208 72.208 0 01-4.81-.199h-.009c-.327-.02-.635-.047-.953-.076a66.1 66.1 0 01-3.847-.436c-.327-.037-.644-.094-.961-.142h-.01c-.327-.047-.635-.104-.953-.16a49.664 49.664 0 01-3.847-.806c-.327-.085-.654-.17-.961-.256h-.01c-.327-.094-.635-.19-.952-.284a29.125 29.125 0 01-3.848-1.43 13.148 13.148 0 01-.962-.484s-.008 0-.008-.008a9.023 9.023 0 01-.953-.532c-2.097-1.297-3.29-2.794-3.29-4.376 0-5.078 12.244-9.2 27.335-9.2 15.091 0 27.326 4.122 27.326 9.2z" fill="#21D8B3"/><path d="M29.68 19.33c-.272 0-.53 0-.796-.009a71.813 71.813 0 01-4.653-.19l-.118-.01h-.048c-.247-.015-.484-.037-.725-.06a64.913 64.913 0 01-3.774-.423c-.26-.032-.44-.062-.622-.09l-.53-.08c-.192-.03-.685-.12-.685-.12a46.606 46.606 0 01-4.569-1.005l-.915-.272a27.81 27.81 0 01-2.963-1.06v-.01l-1.455-.698-.462-.255h-.018a6.573 6.573 0 01-.21-.129c-1.555-.962-2.096-1.793-2.096-2.217 0-2.337 9.386-6.629 24.724-6.629 15.332 0 24.716 4.292 24.716 6.63 0 .421-.538 1.245-2.051 2.176a7.713 7.713 0 01-.758.44l-.142.076c-.242.138-.502.26-.774.39-.939.435-2.12.873-3.49 1.292l-.904.265c-.295.081-.599.163-.911.244a45.878 45.878 0 01-3.619.757c-.267.047-.509.091-.752.129l-.524.08c-.17.027-.34.055-.516.076a64.415 64.415 0 01-3.768.427c-.277.026-.543.05-.816.066l-.166.01a69.998 69.998 0 01-4.582.19c-.325.008-.598.009-.875.009h-.153z" fill="#10BA97"/><path d="M7.644 18.101v7.22a12.866 12.866 0 01-.963-.484s-.008 0-.008-.01a9.019 9.019 0 01-.953-.53v-7.219c.298.19.615.37.952.53 0 .01.01.01.01.01.308.17.625.332.962.483zM13.415 20.072v7.219c-.327-.085-.654-.17-.962-.256h-.01c-.327-.096-.635-.19-.952-.285v-7.218c.317.095.625.19.952.284h.01c.308.085.634.171.961.256h.001zM19.185 21.18v7.219c-.327-.038-.644-.095-.961-.143h-.01c-.327-.046-.635-.104-.953-.16v-7.219c.319.057.626.114.953.161h.009c.318.048.635.105.962.142zM24.956 21.758v7.219c-.327-.02-.644-.038-.962-.067h-.009c-.327-.019-.635-.048-.953-.076v-7.218c.318.029.625.056.953.076h.01c.318.028.634.047.961.066zM30.727 21.89v7.22c-.317.009-.635.009-.962.009h-.01c-.326 0-.634 0-.951-.01V21.89c.317.01.625.01.952.01h.01c.326 0 .644 0 .96-.009zM36.498 21.616v7.218c-.318.028-.634.057-.962.077h-.009c-.319.028-.626.046-.953.066v-7.219c.327-.02.635-.038.953-.066h.009c.327-.02.645-.047.962-.076zM42.787 20.877v7.218c-.387.057-.773.115-1.171.161h-.01c-.388.048-.762.105-1.16.143V21.18c.398-.037.773-.094 1.159-.142h.011c.398-.047.784-.104 1.17-.16zM48.502 19.532v7.218c-.386.095-.772.19-1.17.285h-.011c-.375.084-.76.17-1.159.256v-7.22c.398-.084.784-.17 1.159-.255h.011c.398-.094.784-.19 1.17-.284zM53.81 17.06v7.237c-.297.18-.615.37-.96.54 0 0-.01 0-.01.01-.299.16-.616.312-.952.473V18.1c.335-.16.654-.312.952-.483.346-.17.663-.36.97-.559v.001z" fill="#09997B"/></svg>