<svg width="66" height="83" viewBox="0 0 66 83" fill="none" xmlns="http://www.w3.org/2000/svg">
<path fill-rule="evenodd" clip-rule="evenodd" d="M40.7989 0V20.0659H43.2794V0.107384L43.4973 0.310791V0.310807L64.6479 20.0659H40.7989V22.5583L65.0239 22.5583V83H0V0H40.7989Z" fill="#5641F2"/>
<circle cx="25" cy="59" r="13" fill="white"/>
<path d="M29.8001 58.9501V58.9251C29.8001 58.9126 29.8001 58.9126 29.7876 58.9001V58.8751C29.7876 58.8626 29.7751 58.8626 29.7751 58.8501C29.7751 58.8501 29.7751 58.8376 29.7626 58.8376L25.1125 51.125C25.1 51.1125 25.0875 51.0875 25.075 51.075H25.0625C25.05 51.0625 25.0375 51.05 25.025 51.05C25.025 51.05 25.0125 51.05 25.0125 51.0375C25 51.025 24.9875 51.025 24.975 51.025H24.9625C24.9375 51 24.925 51 24.9 51C24.875 51 24.8625 51 24.8375 51.0125H24.825C24.8125 51.0125 24.8 51.025 24.7875 51.025C24.7875 51.025 24.775 51.025 24.775 51.0375C24.7625 51.05 24.75 51.05 24.7375 51.0625H24.725C24.7125 51.075 24.7 51.0875 24.6875 51.1125L20.0375 58.8376C20.0375 58.8376 20.0375 58.8501 20.025 58.8501C20.025 58.8626 20.0125 58.8626 20.0125 58.8751V58.9001C20.0125 58.9126 20.0125 58.9126 20 58.9251V59.0251C20 59.0376 20 59.0376 20.0125 59.0501V59.0626C20.025 59.0876 20.0375 59.1001 20.05 59.1126L20.0625 59.1251L20.1 59.1626C20.1 59.1626 20.1125 59.1626 20.1125 59.1751L24.775 61.9001H24.7875C24.8 61.9126 24.8125 61.9126 24.825 61.9126H24.8375C24.8625 61.9126 24.875 61.9251 24.9 61.9251C24.925 61.9251 24.9375 61.9251 24.9625 61.9126H24.975C24.9875 61.9126 25 61.9001 25.0125 61.9001H25.025L29.6751 59.1876C29.6876 59.1876 29.6876 59.1751 29.7001 59.1751L29.7126 59.1626L29.7376 59.1376L29.7501 59.1251C29.7501 59.1126 29.7626 59.1126 29.7626 59.1001C29.7626 59.0876 29.7751 59.0876 29.7751 59.0751C29.7751 59.0626 29.7751 59.0626 29.7876 59.0501C29.7876 59.0376 29.7876 59.0376 29.8001 59.0251V59.0001V58.9751V58.9501V58.9501ZM24.65 56.7L20.8875 58.4126L24.65 52.15V56.7V56.7ZM24.65 57.25V61.2501L20.8 59.0001L24.65 57.25ZM25.15 57.25L29.0001 59.0001L25.15 61.2501V57.25ZM25.15 56.7V52.15L28.9126 58.4126L25.15 56.7Z" fill="#0E0D14" stroke="#090818" stroke-width="0.2"/>
<path d="M29.4126 60.0001L24.9001 62.7126L20.3875 60.0001C20.2875 59.9376 20.15 59.9626 20.075 60.0501C20 60.1376 19.9875 60.2626 20.05 60.3626L24.7001 66.8876L24.7126 66.9001C24.7251 66.9126 24.7251 66.9251 24.7376 66.9251L24.7501 66.9376C24.7626 66.9501 24.7751 66.9501 24.7751 66.9626C24.7751 66.9626 24.7876 66.9626 24.7876 66.9751C24.8001 66.9751 24.8126 66.9876 24.8251 66.9876H24.8376C24.8501 66.9876 24.8751 67.0001 24.8876 67.0001C24.9126 67.0001 24.9251 67.0001 24.9376 66.9876H24.9501C24.9626 66.9876 24.9751 66.9751 24.9876 66.9751C24.9876 66.9751 25.0001 66.9751 25.0001 66.9626C25.0126 66.9626 25.0251 66.9501 25.0251 66.9376L25.0376 66.9251L25.0626 66.9001L25.0751 66.8876L29.7251 60.3626C29.7876 60.2626 29.7876 60.1376 29.7001 60.0501C29.6126 59.9626 29.5251 59.9501 29.4126 60.0001ZM24.6501 63.1376V65.9626L21.15 61.0501L24.6501 63.1376V63.1376ZM25.1501 65.9626V63.1376L28.6501 61.0376L25.1501 65.9626Z" fill="#0E0D14" stroke="#090818" stroke-width="0.2"/>
</svg>
