<svg width="100" height="100" viewBox="0 0 100 100" fill="none" xmlns="http://www.w3.org/2000/svg">
<path fill-rule="evenodd" clip-rule="evenodd" d="M19 12V88.5238C19 89.6284 19.8954 90.5238 21 90.5238H78.8659C79.9704 90.5238 80.8659 89.6284 80.8659 88.5238V33.0769H58.3159C57.2113 33.0769 56.3159 32.1815 56.3159 31.0769V10H21C19.8954 10 19 10.8954 19 12ZM59.2619 10.491V29.131C59.2619 29.6832 59.7096 30.131 60.2619 30.131H80.8658L59.2619 10.491Z" fill="url(#paint0_linear)"/>
<circle cx="44" cy="67" r="12" fill="#1E1A31" stroke="#795DF5" stroke-width="2"/>
<path d="M48.0615 66.9577V66.9365C48.0615 66.926 48.0615 66.926 48.051 66.9154V66.8942C48.051 66.8836 48.0404 66.8836 48.0404 66.8731C48.0404 66.8731 48.0404 66.8625 48.0298 66.8625L44.0952 60.3365C44.0846 60.3259 44.074 60.3048 44.0634 60.2942H44.0529C44.0423 60.2836 44.0317 60.273 44.0211 60.273C44.0211 60.273 44.0105 60.273 44.0105 60.2624C44 60.2519 43.9894 60.2519 43.9788 60.2519H43.9682C43.9471 60.2307 43.9365 60.2307 43.9153 60.2307C43.8942 60.2307 43.8836 60.2307 43.8625 60.2413H43.8519C43.8413 60.2413 43.8307 60.2519 43.8202 60.2519C43.8202 60.2519 43.8096 60.2519 43.8096 60.2624C43.799 60.273 43.7884 60.273 43.7778 60.2836H43.7673C43.7567 60.2942 43.7461 60.3048 43.7355 60.3259L39.8009 66.8625C39.8009 66.8625 39.8009 66.8731 39.7903 66.8731C39.7903 66.8836 39.7797 66.8836 39.7797 66.8942V66.9154C39.7797 66.926 39.7797 66.926 39.7692 66.9365V67.0211C39.7692 67.0317 39.7692 67.0317 39.7797 67.0423V67.0529C39.7903 67.074 39.8009 67.0846 39.8115 67.0952L39.8221 67.1058L39.8538 67.1375C39.8538 67.1375 39.8644 67.1375 39.8644 67.1481L43.8096 69.4539H43.8202C43.8307 69.4644 43.8413 69.4644 43.8519 69.4644H43.8625C43.8836 69.4644 43.8942 69.475 43.9153 69.475C43.9365 69.475 43.9471 69.475 43.9682 69.4644H43.9788C43.9894 69.4644 44 69.4539 44.0105 69.4539H44.0211L47.9558 67.1586C47.9663 67.1586 47.9663 67.1481 47.9769 67.1481L47.9875 67.1375L48.0086 67.1163L48.0192 67.1058C48.0192 67.0952 48.0298 67.0952 48.0298 67.0846C48.0298 67.074 48.0404 67.074 48.0404 67.0635C48.0404 67.0529 48.0404 67.0529 48.051 67.0423C48.051 67.0317 48.051 67.0317 48.0615 67.0211V67V66.9788V66.9577V66.9577ZM43.7038 65.0538L40.5201 66.5029L43.7038 61.2038V65.0538V65.0538ZM43.7038 65.5192V68.9039L40.4461 67L43.7038 65.5192ZM44.1269 65.5192L47.3846 67L44.1269 68.9039V65.5192ZM44.1269 65.0538V61.2038L47.3106 66.5029L44.1269 65.0538Z" fill="white" stroke="white" stroke-width="0.2"/>
<path d="M47.7336 67.846L43.9153 70.1412L40.097 67.846C40.0124 67.7931 39.8961 67.8143 39.8326 67.8883C39.7691 67.9624 39.7586 68.0681 39.8114 68.1528L43.7461 73.674L43.7567 73.6845C43.7672 73.6951 43.7672 73.7057 43.7778 73.7057L43.7884 73.7163C43.799 73.7268 43.8096 73.7268 43.8096 73.7374C43.8096 73.7374 43.8201 73.7374 43.8201 73.748C43.8307 73.748 43.8413 73.7586 43.8519 73.7586H43.8624C43.873 73.7586 43.8942 73.7691 43.9047 73.7691C43.9259 73.7691 43.9365 73.7691 43.9471 73.7586H43.9576C43.9682 73.7586 43.9788 73.748 43.9894 73.748C43.9894 73.748 43.9999 73.748 43.9999 73.7374C44.0105 73.7374 44.0211 73.7268 44.0211 73.7163L44.0317 73.7057L44.0528 73.6845L44.0634 73.674L47.998 68.1528C48.0509 68.0681 48.0509 67.9624 47.9769 67.8883C47.9029 67.8143 47.8288 67.8037 47.7336 67.846ZM43.7038 70.5009V72.8913L40.7422 68.7345L43.7038 70.5009V70.5009ZM44.1269 72.8913V70.5009L47.0884 68.7239L44.1269 72.8913Z" fill="white" stroke="white" stroke-width="0.2"/>
<defs>
<linearGradient id="paint0_linear" x1="49.9329" y1="10" x2="49.9329" y2="90.5238" gradientUnits="userSpaceOnUse">
<stop stop-color="#7B42E3"/>
<stop offset="1" stop-color="#4645CB"/>
</linearGradient>
</defs>
</svg>
