<svg width="95" height="95" viewBox="0 0 95 95" fill="none" xmlns="http://www.w3.org/2000/svg">
<path d="M47.9442 58.0635C53.6214 58.0635 58.2238 53.4611 58.2238 47.7839C58.2238 42.1066 53.6214 37.5043 47.9442 37.5043C42.2669 37.5043 37.6646 42.1066 37.6646 47.7839C37.6646 53.4611 42.2669 58.0635 47.9442 58.0635Z" fill="white"/>
<path d="M88.2764 40.7764C84.9477 40.7764 82.1958 43.2143 81.6647 46.3946H70.5078V34.2169L65.3297 31.2272L72.433 24.1222C75.1381 26.0649 78.7738 25.7336 81.0868 23.4206C83.7082 20.7992 83.7082 16.5338 81.0868 13.9124C78.4599 11.2855 74.2076 11.2842 71.5793 13.9124C69.2266 16.2652 69.0036 19.9326 70.8742 22.5568L63.3498 30.0838L48.5981 21.5663V13.3354C51.7819 12.807 54.2228 10.0549 54.2228 6.72355C54.2228 3.01621 51.2073 0 47.5 0C43.7926 0 40.7764 3.01621 40.7764 6.72355C40.7764 10.0505 43.2115 12.8005 46.3889 13.334V21.5738L31.644 30.0872L24.12 22.563C25.9956 19.9385 25.7745 16.2671 23.4199 13.9124C20.793 11.2855 16.5406 11.2842 13.9124 13.9124C11.291 16.5338 11.291 20.7992 13.9124 23.4206C16.2161 25.7243 19.8475 26.0702 22.5601 24.1273L29.6637 31.2307L24.4915 34.2169V46.3946H13.3345C12.8034 43.2143 10.0515 40.7764 6.72283 40.7764C3.01549 40.7764 0 43.7927 0 47.5C0 51.2073 3.01549 54.2236 6.72283 54.2236C10.0522 54.2236 12.8042 51.7849 13.3349 48.6039H24.4915V60.7831L29.6702 63.7733L22.5673 70.8784C19.8558 68.9308 16.2208 69.271 13.9124 71.5794C11.291 74.2008 11.291 78.4662 13.9124 81.0876C16.5393 83.7145 20.7917 83.7158 23.4199 81.0876C25.7723 78.7351 25.9956 75.0682 24.1258 72.444L31.6508 64.9167L46.3889 73.4262V81.666C43.2116 82.1995 40.7764 84.9495 40.7764 88.2764C40.7764 91.9838 43.7927 95 47.5 95C51.2073 95 54.2228 91.9838 54.2228 88.2764C54.2228 84.9451 51.7819 82.1929 48.5982 81.6646V73.4337L63.3491 64.9164L70.8749 72.4421C69.0036 75.0663 69.2262 78.7346 71.5794 81.0876C74.2063 83.7145 78.4586 83.7158 81.0868 81.0876C83.7082 78.4662 83.7082 74.2008 81.0868 71.5794C78.813 69.3056 75.1822 68.9043 72.4337 70.8769L65.3297 63.7728L70.5078 60.7831V48.6039H81.6644C82.1951 51.7849 84.947 54.2236 88.2764 54.2236C91.9838 54.2236 95 51.2073 95 47.5C95 43.7927 91.9837 40.7764 88.2764 40.7764Z" fill="#5641F2"/>
<path d="M48 60C54.6274 60 60 54.6274 60 48C60 41.3726 54.6274 36 48 36C41.3726 36 36 41.3726 36 48C36 54.6274 41.3726 60 48 60Z" fill="white"/>
<path opacity="0.5" d="M45.3139 52.6823L44.3152 51.9698L50.5965 43.2423L51.5952 43.9548L45.3139 52.6823Z" fill="#1E1A31"/>
<path fill-rule="evenodd" clip-rule="evenodd" d="M48.5494 47.388H48.8847C50.4284 47.388 51.6799 48.6353 51.6799 50.174C51.6799 51.7127 50.4284 52.96 48.8847 52.96H44.774C44.4348 52.96 44.1599 52.686 44.1599 52.348C44.1599 52.01 44.4348 51.736 44.774 51.736H48.8847C49.7502 51.736 50.4518 51.0367 50.4518 50.174C50.4518 49.3114 49.7502 48.6121 48.8847 48.6121H47.2907H47.2905H46.9552C45.4114 48.6121 44.1599 47.3647 44.1599 45.8261C44.1599 44.2874 45.4114 43.04 46.9552 43.04H51.0659C51.405 43.04 51.6799 43.3141 51.6799 43.6521C51.6799 43.9901 51.405 44.2641 51.0659 44.2641H46.9552C46.0897 44.2641 45.3881 44.9634 45.3881 45.8261C45.3881 46.6887 46.0897 47.388 46.9552 47.388H48.5491C48.5492 47.388 48.5493 47.388 48.5494 47.388Z" fill="#1E1A31"/>
</svg>
