<svg width="100" height="100" viewBox="0 0 100 100" fill="none" xmlns="http://www.w3.org/2000/svg">
<path d="M49.9442 61.0634C55.6214 61.0634 60.2238 56.461 60.2238 50.7838C60.2238 45.1065 55.6214 40.5042 49.9442 40.5042C44.2669 40.5042 39.6646 45.1065 39.6646 50.7838C39.6646 56.461 44.2669 61.0634 49.9442 61.0634Z" fill="url(#paint0_linear)"/>
<path d="M90.2764 43.7764C86.9477 43.7764 84.1958 46.2143 83.6647 49.3946H72.5078V37.2169L67.3297 34.2272L74.433 27.1222C77.1381 29.0649 80.7738 28.7336 83.0868 26.4206C85.7082 23.7992 85.7082 19.5338 83.0868 16.9124C80.4599 14.2855 76.2076 14.2842 73.5793 16.9124C71.2266 19.2652 71.0036 22.9326 72.8742 25.5568L65.3498 33.0838L50.5981 24.5663V16.3354C53.7819 15.807 56.2228 13.0549 56.2228 9.72355C56.2228 6.01621 53.2073 3 49.5 3C45.7926 3 42.7764 6.01621 42.7764 9.72355C42.7764 13.0505 45.2115 15.8005 48.3889 16.334V24.5738L33.644 33.0872L26.12 25.563C27.9956 22.9385 27.7745 19.2671 25.4199 16.9124C22.793 14.2855 18.5406 14.2842 15.9124 16.9124C13.291 19.5338 13.291 23.7992 15.9124 26.4206C18.2161 28.7243 21.8475 29.0702 24.5601 27.1273L31.6637 34.2307L26.4915 37.2169V49.3946H15.3345C14.8034 46.2143 12.0515 43.7764 8.72283 43.7764C5.01549 43.7764 2 46.7927 2 50.5C2 54.2073 5.01549 57.2236 8.72283 57.2236C12.0522 57.2236 14.8042 54.7849 15.3349 51.6039H26.4915V63.7831L31.6702 66.7733L24.5673 73.8784C21.8558 71.9308 18.2208 72.271 15.9124 74.5794C13.291 77.2008 13.291 81.4662 15.9124 84.0876C18.5393 86.7145 22.7917 86.7158 25.4199 84.0876C27.7723 81.7351 27.9956 78.0682 26.1258 75.444L33.6508 67.9167L48.3889 76.4262V84.666C45.2116 85.1995 42.7764 87.9495 42.7764 91.2764C42.7764 94.9838 45.7927 98 49.5 98C53.2073 98 56.2228 94.9838 56.2228 91.2764C56.2228 87.9451 53.7819 85.1929 50.5982 84.6646V76.4337L65.3491 67.9164L72.8749 75.4421C71.0036 78.0663 71.2262 81.7345 73.5794 84.0876C76.2063 86.7145 80.4586 86.7158 83.0868 84.0876C85.7082 81.4662 85.7082 77.2008 83.0868 74.5794C80.813 72.3056 77.1822 71.9043 74.4337 73.8769L67.3297 66.7728L72.5078 63.7831V51.6039H83.6644C84.1951 54.7849 86.947 57.2236 90.2764 57.2236C93.9838 57.2236 97 54.2073 97 50.5C97 46.7927 93.9838 43.7764 90.2764 43.7764Z" fill="url(#paint1_linear)"/>
<path d="M49.5 63C56.4036 63 62 57.4036 62 50.5C62 43.5964 56.4036 38 49.5 38C42.5964 38 37 43.5964 37 50.5C37 57.4036 42.5964 63 49.5 63Z" fill="#1E1A31" stroke="#795DF5" stroke-width="2"/>
<path opacity="0.5" d="M46.9258 54.9871L45.9688 54.3043L51.9884 45.9404L52.9454 46.6232L46.9258 54.9871Z" fill="white"/>
<path fill-rule="evenodd" clip-rule="evenodd" d="M50.0265 49.9134H50.3478C51.8273 49.9134 53.0266 51.1087 53.0266 52.5833C53.0266 54.0579 51.8273 55.2532 50.3478 55.2532H46.4084C46.0834 55.2532 45.8199 54.9906 45.8199 54.6667C45.8199 54.3428 46.0834 54.0802 46.4084 54.0802H50.3478C51.1773 54.0802 51.8497 53.41 51.8497 52.5833C51.8497 51.7566 51.1773 51.0865 50.3478 51.0865H48.8203H48.8201H48.4987C47.0193 51.0865 45.8199 49.8911 45.8199 48.4165C45.8199 46.942 47.0193 45.7466 48.4987 45.7466H52.4381C52.7632 45.7466 53.0266 46.0092 53.0266 46.3331C53.0266 46.6571 52.7632 46.9197 52.4381 46.9197H48.4987C47.6693 46.9197 46.9969 47.5898 46.9969 48.4165C46.9969 49.2432 47.6693 49.9134 48.4987 49.9134H50.0263C50.0263 49.9134 50.0264 49.9134 50.0265 49.9134Z" fill="white"/>
<defs>
<linearGradient id="paint0_linear" x1="60.2238" y1="40.5041" x2="39.0456" y2="41.1628" gradientUnits="userSpaceOnUse">
<stop stop-color="#1E1A31"/>
<stop offset="1" stop-color="#090818"/>
</linearGradient>
<linearGradient id="paint1_linear" x1="49.5" y1="3" x2="49.5" y2="98" gradientUnits="userSpaceOnUse">
<stop stop-color="#7B42E3"/>
<stop offset="1" stop-color="#4645CB"/>
</linearGradient>
</defs>
</svg>
