<svg width="100" height="100" viewBox="0 0 100 100" fill="none" xmlns="http://www.w3.org/2000/svg">
<path d="M84.4231 62.7885H81.5385V45.0385C81.5385 39.0962 76.7115 34.2692 70.7692 34.2692H50.7115V31.8269C50.7115 29.0385 48.4615 26.7885 45.6731 26.7885H43.3269V15.8846H45.8846C47.8846 19.3077 54.8654 20.9231 56.8077 20.9231C60.3269 20.9231 63.1923 17.8077 63.1923 13.9615C63.1923 10.1346 60.3269 7 56.8077 7C54.8654 7 47.8846 8.63462 45.8846 12.0385H36.9423C34.9423 8.63462 27.9423 7 26 7C22.4808 7 19.6154 10.1346 19.6154 13.9615C19.6154 17.8077 22.4808 20.9231 26 20.9231C27.9423 20.9231 34.9423 19.3077 36.9423 15.8846H39.4808V26.7885H37.1346C34.3462 26.7885 32.0962 29.0385 32.0962 31.8269V34.2692H14.9231C13.8654 34.2692 13 35.1154 13 36.1923V48.9423C13 50.0192 13.8654 50.8654 14.9231 50.8654H32.0962V53.3077C32.0962 56.0962 34.3462 58.3462 37.1346 58.3462H45.6731C48.4615 58.3462 50.7115 56.0962 50.7115 53.3077V50.8654H66.5769V62.7885H63.6923C62.6346 62.7885 61.7692 63.6538 61.7692 64.7115C61.7692 65.7692 62.6346 66.6346 63.6923 66.6346H84.4231C85.4808 66.6346 86.3462 65.7692 86.3462 64.7115C86.3462 63.6538 85.4808 62.7885 84.4231 62.7885V62.7885Z" fill="url(#paint0_linear)"/>
<path d="M85.6731 85.6538C85.6731 91.4528 80.9721 96.1538 75.1731 96.1538C69.3741 96.1538 64.6731 91.4528 64.6731 85.6538C64.6731 79.8548 69.3741 75.1538 75.1731 75.1538C80.9721 75.1538 85.6731 79.8548 85.6731 85.6538Z" fill="#1E1A31" stroke="#795DF5" stroke-width="2"/>
<path opacity="0.5" d="M72.5989 90.1409L71.6418 89.4581L77.6615 81.0942L78.6185 81.777L72.5989 90.1409Z" fill="white"/>
<path fill-rule="evenodd" clip-rule="evenodd" d="M75.6996 85.0672H76.0209C77.5004 85.0672 78.6997 86.2626 78.6997 87.7371C78.6997 89.2117 77.5004 90.4071 76.0209 90.4071H72.0815C71.7565 90.4071 71.493 90.1445 71.493 89.8205C71.493 89.4966 71.7565 89.234 72.0815 89.234H76.0209C76.8504 89.234 77.5228 88.5638 77.5228 87.7371C77.5228 86.9104 76.8504 86.2403 76.0209 86.2403H74.4934H74.4932H74.1718C72.6924 86.2403 71.493 85.0449 71.493 83.5703C71.493 82.0958 72.6924 80.9004 74.1718 80.9004H78.1112C78.4363 80.9004 78.6997 81.163 78.6997 81.4869C78.6997 81.8109 78.4363 82.0735 78.1112 82.0735H74.1718C73.3424 82.0735 72.67 82.7436 72.67 83.5703C72.67 84.397 73.3424 85.0672 74.1718 85.0672H75.6994C75.6994 85.0672 75.6995 85.0672 75.6996 85.0672Z" fill="white"/>
<defs>
<linearGradient id="paint0_linear" x1="49.6731" y1="7" x2="49.6731" y2="66.6346" gradientUnits="userSpaceOnUse">
<stop stop-color="#7B42E3"/>
<stop offset="1" stop-color="#4645CB"/>
</linearGradient>
</defs>
</svg>
