<svg width="74" height="91" viewBox="0 0 74 91" fill="none" xmlns="http://www.w3.org/2000/svg">
<path d="M71.75 55.7885H68.8654V38.0385C68.8654 32.0962 64.0384 27.2692 58.0961 27.2692H38.0384V24.8269C38.0384 22.0385 35.7884 19.7885 33 19.7885H30.6538V8.88462H33.2115C35.2115 12.3077 42.1923 13.9231 44.1346 13.9231C47.6538 13.9231 50.5192 10.8077 50.5192 6.96154C50.5192 3.13462 47.6538 0 44.1346 0C42.1923 0 35.2115 1.63462 33.2115 5.03846H24.2692C22.2692 1.63462 15.2692 0 13.3269 0C9.80767 0 6.94229 3.13462 6.94229 6.96154C6.94229 10.8077 9.80767 13.9231 13.3269 13.9231C15.2692 13.9231 22.2692 12.3077 24.2692 8.88462H26.8077V19.7885H24.4615C21.6731 19.7885 19.4231 22.0385 19.4231 24.8269V27.2692H2.24998C1.19229 27.2692 0.326904 28.1154 0.326904 29.1923V41.9423C0.326904 43.0192 1.19229 43.8654 2.24998 43.8654H19.4231V46.3077C19.4231 49.0962 21.6731 51.3462 24.4615 51.3462H33C35.7884 51.3462 38.0384 49.0962 38.0384 46.3077V43.8654H53.9038V55.7885H51.0192C49.9615 55.7885 49.0961 56.6538 49.0961 57.7115C49.0961 58.7692 49.9615 59.6346 51.0192 59.6346H71.75C72.8077 59.6346 73.6731 58.7692 73.6731 57.7115C73.6731 56.6538 72.8077 55.7885 71.75 55.7885Z" fill="#5641F2"/>
<path d="M62.5 90.1538C68.8513 90.1538 74 85.0051 74 78.6538C74 72.3025 68.8513 67.1538 62.5 67.1538C56.1487 67.1538 51 72.3025 51 78.6538C51 85.0051 56.1487 90.1538 62.5 90.1538Z" fill="white"/>
<path opacity="0.5" d="M59.9258 83.141L58.9688 82.4582L64.9884 74.0944L65.9454 74.7772L59.9258 83.141Z" fill="#1E1A31"/>
<path fill-rule="evenodd" clip-rule="evenodd" d="M63.0265 78.0673H63.3478C64.8273 78.0673 66.0266 79.2627 66.0266 80.7372C66.0266 82.2118 64.8273 83.4072 63.3478 83.4072H59.4084C59.0834 83.4072 58.8199 83.1446 58.8199 82.8206C58.8199 82.4967 59.0834 82.2341 59.4084 82.2341H63.3478C64.1773 82.2341 64.8497 81.5639 64.8497 80.7372C64.8497 79.9106 64.1773 79.2404 63.3478 79.2404H61.8203H61.8201H61.4987C60.0193 79.2404 58.8199 78.045 58.8199 76.5704C58.8199 75.0959 60.0193 73.9005 61.4987 73.9005H65.4381C65.7632 73.9005 66.0266 74.1631 66.0266 74.4871C66.0266 74.811 65.7632 75.0736 65.4381 75.0736H61.4987C60.6693 75.0736 59.9969 75.7438 59.9969 76.5704C59.9969 77.3971 60.6693 78.0673 61.4987 78.0673H63.0263C63.0263 78.0673 63.0264 78.0673 63.0265 78.0673Z" fill="#1E1A31"/>
</svg>
