<svg width="80" height="80" viewBox="0 0 80 80" fill="none" xmlns="http://www.w3.org/2000/svg">
<path d="M75.8001 16H60.9709C61.9665 23.3634 69.9429 31.3398 77.3063 32.3383V17.5061C77.3063 16.6778 76.6285 16 75.8001 16Z" fill="#5641F2"/>
<path d="M57.9536 16H21.3581C20.3821 24.9795 10.9795 34.3821 2 35.3551V44.6523C10.9764 45.6253 20.3776 55.0234 21.3581 63.9999H57.9521C58.9311 55.0249 68.3293 45.6298 77.3042 44.6523V35.3551C68.3278 34.3776 58.9281 24.9779 57.9521 16H57.9536ZM39.6528 54.5415C31.6403 54.5415 25.1188 48.02 25.1188 40.0075C25.1188 31.9949 31.6403 25.4735 39.6528 25.4735C47.6654 25.4735 54.1868 31.9949 54.1868 40.0075C54.1868 48.02 47.6654 54.5415 39.6528 54.5415Z" fill="#5641F2"/>
<path d="M43.5291 35.38C42.9491 34.16 42.0691 33.36 40.8491 33.02V31.2H38.4091V32.98C36.7491 33.44 35.6691 34.88 35.6691 36.64C35.6291 39.22 37.7891 40.28 39.4491 40.98C40.6291 41.48 41.5291 42.12 41.5291 42.94C41.5291 44.16 40.9291 44.76 39.7091 44.76C38.3891 44.76 37.4691 43.82 36.9291 41.92L34.8291 43.24C35.2091 45.06 36.5491 46.54 38.4091 47V48.8H40.8491V47.04C42.8691 46.62 44.1291 45.1 44.1291 42.8C44.1491 40.38 41.9291 39.34 40.2491 38.6C39.1091 38.06 38.1491 37.4 38.1491 36.5199C38.1491 35.7799 38.7091 35.24 39.4891 35.24C40.2691 35.24 40.9291 35.74 41.4291 36.72L43.5291 35.38Z" fill="#5641F2"/>
<path d="M60.9724 64H75.8001C76.6285 64 77.3062 63.3373 77.3062 62.4939V47.6692C69.9458 48.6662 61.9725 56.6396 60.9724 64Z" fill="#5641F2"/>
<path d="M2 47.6692V62.4939C2 63.3373 2.67775 64 3.50611 64H18.3413C17.3398 56.6366 9.36188 48.6632 2 47.6692Z" fill="#5641F2"/>
<path d="M18.3413 16H3.50611C2.67775 16 2 16.6778 2 17.5061V32.3383C9.3649 31.3443 17.3458 23.3649 18.3413 16Z" fill="#5641F2"/>
</svg>
