<svg width="80" height="80" viewBox="0 0 80 80" fill="none" xmlns="http://www.w3.org/2000/svg">
<mask id="mask0" mask-type="alpha" maskUnits="userSpaceOnUse" x="4" y="4" width="72" height="72">
<path d="M40 76C59.8823 76 76 59.8823 76 40C76 20.1177 59.8823 4 40 4C20.1177 4 4 20.1177 4 40C4 59.8823 20.1177 76 40 76Z" fill="white"/>
</mask>
<g mask="url(#mask0)">
<path fill-rule="evenodd" clip-rule="evenodd" d="M4 40C4 20.4186 19.6336 4.48864 39.1 4.01099V22.3472C37.046 22.7642 35.5 24.5801 35.5 26.7572C35.5 28.1207 36.1064 29.3425 37.0642 30.1677L33.3744 41.2733L30.0193 42.1565C29.7929 42.2161 29.5946 42.3532 29.4589 42.5439L24.1107 50.063L20.1732 47.9532L14.7113 36.2356C14.5498 35.8891 14.2049 35.665 13.8227 35.6582C13.4404 35.6514 13.0878 35.8631 12.9141 36.2037L8.15922 45.5255L4.09059 42.5737C4.03053 41.7236 4 40.8653 4 40ZM38.8582 31.1111L35.1016 42.4178C34.9951 42.7384 34.7339 42.9835 34.4072 43.0695L30.8787 43.9984L25.2299 51.9402C24.938 52.3505 24.3865 52.4799 23.9427 52.242L18.9351 49.5588C18.7446 49.4567 18.5924 49.2957 18.5011 49.0999L13.7644 38.9382L9.40942 47.4761C9.27658 47.7365 9.03644 47.9257 8.75218 47.994C8.46792 48.0623 8.16801 48.0028 7.93138 47.8311L4.38083 45.2552C6.88222 62.3573 21.4082 75.5548 39.1 75.9889V31.1672C39.0186 31.1507 38.938 31.1319 38.8582 31.1111ZM42.8503 30.2396L46.4128 37.6466L50.5399 35.5118C51.0272 35.2597 51.6265 35.4473 51.8832 35.9321L55.7732 43.2802C56.5879 41.453 57.266 39.9643 57.8069 38.8155C58.1648 38.0554 58.4655 37.438 58.7078 36.9672C58.9398 36.5162 59.1456 36.1452 59.3101 35.9184C59.5346 35.6089 60.0799 35.0335 60.6927 34.4102C61.3329 33.759 62.1213 32.9816 62.8935 32.2316C63.6662 31.4811 64.4264 30.7545 65.0115 30.2042C65.3036 29.9294 65.5545 29.6962 65.7425 29.5251C65.836 29.4401 65.9178 29.3668 65.9831 29.3103L65.9898 29.3044C66.0286 29.2707 66.1307 29.1818 66.229 29.122C66.4953 28.96 66.7544 28.9634 66.8616 28.9703C66.9886 28.9785 67.096 29.0062 67.1658 29.0274C67.308 29.0704 67.4493 29.1345 67.5711 29.1952C67.8233 29.3209 68.1446 29.5103 68.5211 29.7482C69.1888 30.1702 70.1017 30.7906 71.2542 31.6043L74.5698 29.92C70.3134 15.2978 57.0315 4.51947 41.1571 4.0182V22.4074C43.0817 22.918 44.5 24.672 44.5 26.7572C44.5 28.1608 43.8574 29.4143 42.8503 30.2396ZM41.1571 31.3335V75.9817C60.5039 75.3708 76 59.495 76 40C76 37.2153 75.6838 34.5044 75.0854 31.9014L71.6216 33.6609C71.2899 33.8294 70.8921 33.7999 70.589 33.5842C69.2082 32.6019 68.1656 31.8894 67.4527 31.4389C67.2526 31.3125 67.0854 31.2111 66.9489 31.1323C66.7921 31.2766 66.6003 31.4554 66.3818 31.6609C65.8055 32.203 65.053 32.9222 64.2869 33.6663C63.5204 34.4107 62.7441 35.1764 62.1189 35.8123C61.4663 36.4762 61.0457 36.9319 60.929 37.0928C60.866 37.1796 60.7233 37.4213 60.4861 37.8823C60.2591 38.3235 59.9696 38.9172 59.6163 39.6675C58.9103 41.1669 57.9611 43.267 56.7675 45.9714C56.6128 46.322 56.2713 46.5534 55.8883 46.567C55.5053 46.5806 55.1482 46.3742 54.9689 46.0355L50.579 37.7433L46.4172 39.896C46.1772 40.0202 45.8971 40.0419 45.6408 39.9562C45.3845 39.8706 45.1737 39.6848 45.0566 39.4412L41.1571 31.3335Z" fill="#5641F2"/>
</g>
</svg>
