<svg width="80" height="80" viewBox="0 0 80 80" fill="none" xmlns="http://www.w3.org/2000/svg">
<path d="M59.1345 39.3823H48.5567C47.1445 39.3823 45.9138 40.3423 45.5723 41.7114L43.077 51.6892H49.6643L61.1682 40.1853C60.6175 39.6931 59.9129 39.3823 59.1345 39.3823Z" fill="url(#paint0_linear)"/>
<path d="M64.614 53.2279H43.0769C42.6031 53.2279 42.1539 53.0094 41.8616 52.6371C41.5693 52.2649 41.4678 51.7787 41.5816 51.3172L44.0768 41.3394C44.5937 39.2811 46.4367 37.8442 48.5566 37.8442H59.1343C61.2542 37.8442 63.0972 39.2811 63.6141 41.3394L66.1093 51.3172C66.2231 51.7757 66.1216 52.2649 65.8293 52.6371C65.537 53.0094 65.0878 53.2279 64.614 53.2279ZM45.0491 50.1512H62.6449L60.6296 42.084C60.4573 41.3979 59.8451 40.921 59.1374 40.921H48.5596C47.852 40.921 47.2366 41.4009 47.0674 42.087L45.0491 50.1512Z" fill="url(#paint1_linear)"/>
<path d="M45.2893 20.9219H34.7115C33.2993 20.9219 32.0686 21.8818 31.7271 23.251L29.2319 33.2288H35.8192L47.3231 21.7249C46.7723 21.2326 46.0678 20.9219 45.2893 20.9219ZM31.4441 39.3823H20.8663C19.454 39.3823 18.2233 40.3422 17.8818 41.7113L15.3866 51.6892H21.9739L33.4778 40.1853C32.927 39.693 32.2225 39.3823 31.4441 39.3823ZM17.5988 57.8426H7.02098C5.60876 57.8426 4.37807 58.8026 4.03655 60.1717L1.54132 70.1495H8.1286L19.6325 58.6457C19.0818 58.1534 18.3772 57.8426 17.5988 57.8426ZM45.2893 57.8426H34.7115C33.2993 57.8426 32.0686 58.8026 31.7271 60.1717L29.2319 70.1495H35.8192L47.3231 58.6457C46.7723 58.1534 46.0678 57.8426 45.2893 57.8426ZM72.9799 57.8426H62.4021C60.9899 57.8426 59.7592 58.8026 59.4177 60.1717L56.9225 70.1495H63.5097L75.0136 58.6457C74.4629 58.1534 73.7583 57.8426 72.9799 57.8426Z" fill="url(#paint2_linear)"/>
<path d="M23.078 71.6882H1.54088C1.06707 71.6882 0.617866 71.4697 0.325577 71.0974C0.0332873 70.7252 -0.068245 70.2391 0.045594 69.7775L2.54082 59.7997C3.05771 57.7414 4.90067 56.3045 7.02054 56.3045H17.5983C19.7182 56.3045 21.5612 57.7414 22.0781 59.7997L24.5733 69.7775C24.6871 70.236 24.5856 70.7252 24.2933 71.0974C24.001 71.4697 23.5518 71.6882 23.078 71.6882ZM3.51307 68.6115H21.1089L19.0936 60.5443C18.9213 59.8582 18.3091 59.3813 17.6014 59.3813H7.02054C6.31289 59.3813 5.69755 59.8612 5.52833 60.5474L3.51307 68.6115ZM50.7686 71.6882H29.2315C28.7576 71.6882 28.3084 71.4697 28.0161 71.0974C27.7239 70.7252 27.6223 70.2391 27.7362 69.7775L30.2314 59.7997C30.7483 57.7414 32.5912 56.3045 34.7111 56.3045H45.2889C47.4088 56.3045 49.2517 57.7414 49.7686 59.7997L52.2638 69.7775C52.3777 70.236 52.2762 70.7252 51.9839 71.0974C51.6916 71.4697 51.2424 71.6882 50.7686 71.6882ZM31.2036 68.6115H48.7995L46.7842 60.5443C46.6119 59.8582 45.9996 59.3813 45.292 59.3813H34.7142C34.0065 59.3813 33.3912 59.8612 33.222 60.5474L31.2036 68.6115ZM78.4591 71.6882H56.922C56.4482 71.6882 55.999 71.4697 55.7067 71.0974C55.4144 70.7252 55.3129 70.2391 55.4267 69.7775L57.922 59.7997C58.4388 57.7414 60.2818 56.3045 62.4017 56.3045H72.9795C75.0993 56.3045 76.9423 57.7414 77.4592 59.7997L79.9544 69.7775C80.0682 70.236 79.9667 70.7252 79.6744 71.0974C79.3821 71.4697 78.9329 71.6882 78.4591 71.6882ZM58.8942 68.6115H76.49L74.4748 60.5443C74.3025 59.8582 73.6902 59.3813 72.9825 59.3813H62.4047C61.6971 59.3813 61.0818 59.8612 60.9125 60.5474L58.8942 68.6115ZM36.9233 53.2278H15.3862C14.9124 53.2278 14.4631 53.0094 14.1709 52.6371C13.8786 52.2648 13.777 51.7787 13.8909 51.3172L16.3861 41.3393C16.903 39.281 18.746 37.8442 20.8658 37.8442H31.4436C33.5635 37.8442 35.4064 39.281 35.9233 41.3393L38.4186 51.3172C38.5324 51.7756 38.4309 52.2648 38.1386 52.6371C37.8463 53.0094 37.3971 53.2278 36.9233 53.2278ZM17.3584 50.1511H34.9542L32.9389 42.0839C32.7666 41.3978 32.1543 40.9209 31.4467 40.9209H20.8658C20.1582 40.9209 19.5428 41.4009 19.3736 42.087L17.3584 50.1511ZM50.7686 34.7674H29.2315C28.7576 34.7674 28.3084 34.549 28.0161 34.1767C27.7239 33.8044 27.6223 33.3183 27.7362 32.8568L30.2314 22.879C30.7483 20.8206 32.5912 19.3838 34.7111 19.3838H45.2889C47.4088 19.3838 49.2517 20.8206 49.7686 22.879L52.2638 32.8568C52.3777 33.3152 52.2762 33.8044 51.9839 34.1767C51.6916 34.549 51.2424 34.7674 50.7686 34.7674ZM31.2036 31.6907H48.7995L46.7842 23.6235C46.6119 22.9374 45.9996 22.4605 45.292 22.4605H34.7142C34.0065 22.4605 33.3912 22.9405 33.222 23.6266L31.2036 31.6907Z" fill="url(#paint3_linear)"/>
<path d="M55.0762 14.4608L59.999 13.2301L55.0762 11.9994L53.8455 7.07666L52.6148 11.9994L47.6921 13.2301L52.6148 14.4608L53.8455 19.3836L55.0762 14.4608Z" fill="url(#paint4_linear)"/>
<path d="M67.0758 20.3067L70.7678 19.3836L67.0758 18.4606L66.1528 14.7686L65.2297 18.4606L61.5377 19.3836L65.2297 20.3067L66.1528 23.9987L67.0758 20.3067Z" fill="url(#paint5_linear)"/>
<path d="M65.2297 7.69208L67.6911 7.07673L65.2297 6.46138L64.6144 4L63.999 6.46138L61.5377 7.07673L63.999 7.69208L64.6144 10.1535L65.2297 7.69208Z" fill="url(#paint6_linear)"/>
<defs>
<linearGradient id="paint0_linear" x1="52.1226" y1="39.3823" x2="52.1226" y2="51.6892" gradientUnits="userSpaceOnUse">
<stop stop-color="#FBCB21"/>
<stop offset="1" stop-color="#F18E1A"/>
</linearGradient>
<linearGradient id="paint1_linear" x1="53.8454" y1="37.8442" x2="53.8454" y2="53.2279" gradientUnits="userSpaceOnUse">
<stop stop-color="#FBCB21"/>
<stop offset="1" stop-color="#F18E1A"/>
</linearGradient>
<linearGradient id="paint2_linear" x1="38.2775" y1="20.9219" x2="38.2775" y2="70.1495" gradientUnits="userSpaceOnUse">
<stop stop-color="#FBCB21"/>
<stop offset="1" stop-color="#F18E1A"/>
</linearGradient>
<linearGradient id="paint3_linear" x1="40" y1="19.3838" x2="40" y2="71.6882" gradientUnits="userSpaceOnUse">
<stop stop-color="#FBCB21"/>
<stop offset="1" stop-color="#F18E1A"/>
</linearGradient>
<linearGradient id="paint4_linear" x1="53.8455" y1="7.07666" x2="53.8455" y2="19.3836" gradientUnits="userSpaceOnUse">
<stop stop-color="#FBCB21"/>
<stop offset="1" stop-color="#F18E1A"/>
</linearGradient>
<linearGradient id="paint5_linear" x1="66.1528" y1="14.7686" x2="66.1528" y2="23.9987" gradientUnits="userSpaceOnUse">
<stop stop-color="#FBCB21"/>
<stop offset="1" stop-color="#F18E1A"/>
</linearGradient>
<linearGradient id="paint6_linear" x1="64.6144" y1="4" x2="64.6144" y2="10.1535" gradientUnits="userSpaceOnUse">
<stop stop-color="#FBCB21"/>
<stop offset="1" stop-color="#F18E1A"/>
</linearGradient>
</defs>
</svg>
