<svg width="80" height="80" viewBox="0 0 80 80" fill="none" xmlns="http://www.w3.org/2000/svg">
<path fill-rule="evenodd" clip-rule="evenodd" d="M76 40C76 59.8822 59.8823 76 40 76C20.1178 76 4 59.8822 4 40C4 20.1177 20.1178 4 40 4C59.8823 4 76 20.1177 76 40ZM30.2339 21.6026C30.2428 21.605 30.2517 21.6074 30.2607 21.6098C30.1327 21.7037 30.1579 21.6786 30.2339 21.6026ZM30.4942 21.672C30.4164 21.6517 30.3385 21.631 30.2607 21.6098C30.3238 21.5635 30.4244 21.4881 30.5746 21.3754C30.5478 21.4736 30.521 21.5725 30.4942 21.672ZM30.4942 21.672C31.0321 21.8123 31.5699 21.9346 32.1077 22.0568C32.7323 22.1988 33.3569 22.3407 33.9815 22.5111C34.6061 22.6814 35.2307 22.8234 35.8553 22.9653C36.4799 23.1073 37.1045 23.2492 37.7292 23.4196C38.0698 23.5331 38.1834 23.4196 38.297 23.0789C38.5241 22.1136 38.7512 21.1767 38.9784 20.2398C39.2055 19.3029 39.4326 18.366 39.6598 17.4007C39.7733 17.06 39.8869 16.9464 40.2276 17.06C41.3632 17.4007 42.3853 17.6278 43.521 17.8549C43.8616 17.9685 43.8616 18.082 43.7481 18.3092C43.521 19.2176 43.2938 20.1545 43.0667 21.0913C42.8396 22.0283 42.6124 22.9653 42.3853 23.8738C42.3853 23.9874 42.3853 24.101 42.2717 24.3281C42.726 24.4417 43.2086 24.5552 43.6912 24.6688C44.1739 24.7823 44.6566 24.8959 45.1109 25.0095C45.1866 25.0095 45.2623 24.9085 45.338 24.8076C45.3758 24.7571 45.4137 24.7067 45.4515 24.6688C45.7922 23.1925 46.1329 21.8297 46.5872 20.3533L46.9279 18.9906C46.9279 18.7634 47.0415 18.6499 47.2686 18.7634C47.915 18.9573 48.5614 19.1145 49.2287 19.2767C49.7338 19.3995 50.2509 19.5252 50.7891 19.672C50.8459 19.672 50.8743 19.7003 50.9027 19.7287C50.931 19.7571 50.9594 19.7855 51.0162 19.7855C50.6755 21.2619 50.3348 22.6246 49.9941 23.9874C49.8806 24.5552 49.767 25.1231 49.5399 25.6909C49.4263 26.0316 49.5399 26.1451 49.8806 26.2587L53.6282 27.9622C54.7639 28.6436 55.7859 29.5521 56.5809 30.6877C57.603 32.3912 57.7165 34.2082 57.2623 36.0253C56.9216 37.2745 56.4673 38.4101 55.5588 39.3186C54.8774 40 53.9689 40.4543 53.0604 40.795C53.0133 40.795 52.9663 40.8145 52.9112 40.8373C52.8333 40.8696 52.7392 40.9085 52.6061 40.9085C52.8332 41.0789 53.0604 41.2208 53.2875 41.3628C53.5146 41.5047 53.7418 41.6467 53.9689 41.8171C55.3317 42.8391 56.2402 44.0884 56.6945 45.6783C56.9216 46.9275 56.808 48.2902 56.4673 49.5395C56.0131 51.1294 55.4452 52.4921 54.4232 53.7413C53.174 55.2177 51.584 56.0126 49.767 56.2398C47.3821 56.5805 45.1109 56.3533 42.8396 56.0126C42.4989 55.8991 42.2717 56.0126 42.1582 56.3533C41.931 57.2619 41.7039 58.1988 41.4768 59.1358C41.2496 60.0727 41.0225 61.0095 40.7954 61.918C40.7905 61.9376 40.7858 61.9565 40.7813 61.9748C40.6808 62.3814 40.6574 62.4761 40.114 62.2587C39.603 62.1451 39.0635 62.0032 38.5241 61.8612C37.9847 61.7193 37.4452 61.5773 36.9342 61.4638C36.5935 61.3502 36.5935 61.2366 36.7071 61.0095C37.1613 59.0789 37.6156 57.1483 38.1834 55.3313C38.1834 55.2678 38.1923 55.2133 38.2001 55.1651C38.2203 55.0407 38.2336 54.9589 38.0698 54.877C37.1613 54.6499 36.2528 54.4227 35.2307 54.1956C35.1172 54.7066 34.9752 55.2177 34.8333 55.7287C34.6913 56.2398 34.5493 56.7508 34.4358 57.2619C34.3222 57.7729 34.1803 58.284 34.0383 58.795C33.8963 59.306 33.7544 59.8171 33.6408 60.3281C33.6273 60.3551 33.6154 60.3805 33.6043 60.4042C33.5224 60.579 33.4867 60.6553 33.1866 60.5552C32.0509 60.2145 30.9153 59.9874 29.7796 59.7603C29.4389 59.6467 29.4389 59.5331 29.5525 59.306C30.0068 57.3754 30.461 55.4448 31.0288 53.6278C31.0288 53.5807 31.0483 53.5337 31.0711 53.4786C31.1034 53.4007 31.1424 53.3066 31.1424 53.1735C28.5304 52.4921 25.9184 51.8108 23.1929 51.1294C23.3064 50.9022 23.3916 50.7035 23.4768 50.5048C23.562 50.306 23.6471 50.1073 23.7607 49.8802L23.7608 49.88C24.215 48.858 24.6692 47.8359 25.0099 46.9275C25.1235 46.5868 25.237 46.5868 25.5777 46.5868C26.3727 46.8139 27.2812 47.041 28.0762 47.1546C28.9847 47.3817 29.6661 46.9275 29.7796 46.1325C31.256 40.3407 32.7323 34.5489 34.0951 28.6436C34.3222 27.735 33.7544 26.713 32.7323 26.3723C31.9107 26.0984 31.0891 25.8979 30.3265 25.7118C30.1404 25.6664 29.9578 25.6219 29.7796 25.5773C29.5525 25.5773 29.4389 25.4637 29.5525 25.2366C29.7228 24.612 29.8932 23.959 30.0635 23.306C30.2071 22.7557 30.3507 22.2053 30.4942 21.672ZM36.2528 49.7666C36.2528 49.7666 36.1392 49.653 36.0257 49.653C36.2211 48.9202 36.3955 48.2083 36.567 47.5085C36.7941 46.5816 37.0161 45.6757 37.2749 44.7697C37.3885 44.2019 37.5304 43.6625 37.6724 43.1231C37.8143 42.5836 37.9563 42.0442 38.0698 41.4764C38.0799 41.4462 38.0891 41.4178 38.0977 41.3912C38.1861 41.1173 38.2136 41.0322 38.5241 41.1357C38.5908 41.149 38.6577 41.1624 38.7246 41.1757C40.9352 41.6172 43.2403 42.0776 45.2244 43.1798C46.1329 43.7477 47.0415 44.3155 47.6093 45.224C48.8585 47.041 47.95 49.8801 45.7922 50.5615C44.543 51.0158 43.2938 51.0158 41.931 50.9022C40.3028 50.8064 38.6745 50.3875 37.1143 49.9862C36.8247 49.9116 36.5373 49.8377 36.2528 49.7666ZM46.8143 37.8423C46.3601 37.9559 45.7922 38.0694 45.5651 38.0694C44.2471 38.0694 43.1084 37.8902 41.9323 37.705C41.4869 37.6349 41.0361 37.564 40.5683 37.5016C40.3411 37.4448 40.1424 37.388 39.9437 37.3313C39.7449 37.2745 39.5462 37.2177 39.3191 37.1609C39.0919 37.0473 38.9784 36.9338 39.0919 36.7066C39.7733 34.3218 40.3411 32.0505 40.909 29.6656C41.0225 29.3249 41.1361 29.2114 41.4768 29.3249C41.815 29.4151 42.1487 29.5009 42.4789 29.5856C43.8116 29.9279 45.0858 30.2552 46.3601 30.8013C47.3821 31.2555 48.4042 31.9369 48.9721 32.959C50.1077 34.8896 48.9721 37.388 46.8143 37.8423Z" fill="url(#paint0_linear)"/>
<defs>
<linearGradient id="paint0_linear" x1="40" y1="4" x2="40" y2="76" gradientUnits="userSpaceOnUse">
<stop stop-color="#FBCB21"/>
<stop offset="1" stop-color="#F18E1A"/>
</linearGradient>
</defs>
</svg>
