<svg width="80" height="80" viewBox="0 0 80 80" fill="none" xmlns="http://www.w3.org/2000/svg">
<path d="M59.1346 39.3824H48.5568C47.1446 39.3824 45.9139 40.3423 45.5724 41.7115L43.0771 51.6893H49.6644L61.1683 40.1854C60.6176 39.6931 59.913 39.3824 59.1346 39.3824Z" fill="#5641F2"/>
<path d="M64.6139 53.2276H43.0768C42.603 53.2276 42.1538 53.0092 41.8615 52.6369C41.5692 52.2646 41.4676 51.7785 41.5815 51.317L44.0767 41.3392C44.5936 39.2808 46.4366 37.844 48.5564 37.844H59.1342C61.2541 37.844 63.0971 39.2808 63.6139 41.3392L66.1092 51.317C66.223 51.7754 66.1215 52.2646 65.8292 52.6369C65.5369 53.0092 65.0877 53.2276 64.6139 53.2276ZM45.049 50.1509H62.6448L60.6295 42.0837C60.4572 41.3976 59.8449 40.9207 59.1373 40.9207H48.5595C47.8519 40.9207 47.2365 41.4007 47.0673 42.0868L45.049 50.1509Z" fill="#5641F2"/>
<path d="M45.2893 20.922H34.7115C33.2993 20.922 32.0686 21.8819 31.7271 23.2511L29.2318 33.2289H35.8191L47.323 21.725C46.7723 21.2327 46.0677 20.922 45.2893 20.922ZM31.444 39.3824H20.8662C19.454 39.3824 18.2233 40.3423 17.8818 41.7115L15.3865 51.6893H21.9738L33.4777 40.1854C32.927 39.6931 32.2224 39.3824 31.444 39.3824ZM17.5987 57.8428H7.02092C5.6087 57.8428 4.378 58.8027 4.03649 60.1718L1.54126 70.1497H8.12854L19.6324 58.6458C19.0817 58.1535 18.3771 57.8428 17.5987 57.8428ZM45.2893 57.8428H34.7115C33.2993 57.8428 32.0686 58.8027 31.7271 60.1718L29.2318 70.1497H35.8191L47.323 58.6458C46.7723 58.1535 46.0677 57.8428 45.2893 57.8428ZM72.9798 57.8428H62.402C60.9898 57.8428 59.7591 58.8027 59.4176 60.1718L56.9224 70.1497H63.5097L75.0136 58.6458C74.4628 58.1535 73.7583 57.8428 72.9798 57.8428Z" fill="#5641F2"/>
<path d="M23.078 71.6881H1.54088C1.06707 71.6881 0.617866 71.4696 0.325577 71.0973C0.0332873 70.725 -0.068245 70.2389 0.045594 69.7774L2.54082 59.7996C3.05771 57.7413 4.90067 56.3044 7.02054 56.3044H17.5983C19.7182 56.3044 21.5612 57.7413 22.0781 59.7996L24.5733 69.7774C24.6871 70.2359 24.5856 70.725 24.2933 71.0973C24.001 71.4696 23.5518 71.6881 23.078 71.6881ZM3.51307 68.6113H21.1089L19.0936 60.5441C18.9213 59.858 18.3091 59.3811 17.6014 59.3811H7.02054C6.31289 59.3811 5.69755 59.8611 5.52833 60.5472L3.51307 68.6113ZM50.7686 71.6881H29.2315C28.7576 71.6881 28.3084 71.4696 28.0161 71.0973C27.7239 70.725 27.6223 70.2389 27.7362 69.7774L30.2314 59.7996C30.7483 57.7413 32.5912 56.3044 34.7111 56.3044H45.2889C47.4088 56.3044 49.2517 57.7413 49.7686 59.7996L52.2638 69.7774C52.3777 70.2359 52.2762 70.725 51.9839 71.0973C51.6916 71.4696 51.2424 71.6881 50.7686 71.6881ZM31.2036 68.6113H48.7995L46.7842 60.5441C46.6119 59.858 45.9996 59.3811 45.292 59.3811H34.7142C34.0065 59.3811 33.3912 59.8611 33.222 60.5472L31.2036 68.6113ZM78.4591 71.6881H56.922C56.4482 71.6881 55.999 71.4696 55.7067 71.0973C55.4144 70.725 55.3129 70.2389 55.4267 69.7774L57.922 59.7996C58.4388 57.7413 60.2818 56.3044 62.4017 56.3044H72.9795C75.0993 56.3044 76.9423 57.7413 77.4592 59.7996L79.9544 69.7774C80.0682 70.2359 79.9667 70.725 79.6744 71.0973C79.3821 71.4696 78.9329 71.6881 78.4591 71.6881ZM58.8942 68.6113H76.49L74.4748 60.5441C74.3025 59.858 73.6902 59.3811 72.9825 59.3811H62.4047C61.6971 59.3811 61.0818 59.8611 60.9125 60.5472L58.8942 68.6113ZM36.9233 53.2277H15.3862C14.9124 53.2277 14.4631 53.0092 14.1709 52.637C13.8786 52.2647 13.777 51.7786 13.8909 51.317L16.3861 41.3392C16.903 39.2809 18.746 37.844 20.8658 37.844H31.4436C33.5635 37.844 35.4064 39.2809 35.9233 41.3392L38.4186 51.317C38.5324 51.7755 38.4309 52.2647 38.1386 52.637C37.8463 53.0092 37.3971 53.2277 36.9233 53.2277ZM17.3584 50.151H34.9542L32.9389 42.0838C32.7666 41.3977 32.1543 40.9208 31.4467 40.9208H20.8658C20.1582 40.9208 19.5428 41.4007 19.3736 42.0869L17.3584 50.151ZM50.7686 34.7673H29.2315C28.7576 34.7673 28.3084 34.5489 28.0161 34.1766C27.7239 33.8043 27.6223 33.3182 27.7362 32.8567L30.2314 22.8788C30.7483 20.8205 32.5912 19.3837 34.7111 19.3837H45.2889C47.4088 19.3837 49.2517 20.8205 49.7686 22.8788L52.2638 32.8567C52.3777 33.3151 52.2762 33.8043 51.9839 34.1766C51.6916 34.5489 51.2424 34.7673 50.7686 34.7673ZM31.2036 31.6906H48.7995L46.7842 23.6234C46.6119 22.9373 45.9996 22.4604 45.292 22.4604H34.7142C34.0065 22.4604 33.3912 22.9404 33.222 23.6265L31.2036 31.6906Z" fill="#5641F2"/>
<path d="M55.0763 14.4609L59.9991 13.2302L55.0763 11.9995L53.8456 7.07672L52.6149 11.9995L47.6921 13.2302L52.6149 14.4609L53.8456 19.3836L55.0763 14.4609Z" fill="#5641F2"/>
<path d="M67.0757 20.3066L70.7678 19.3836L67.0757 18.4606L66.1527 14.7685L65.2297 18.4606L61.5376 19.3836L65.2297 20.3066L66.1527 23.9987L67.0757 20.3066Z" fill="#5641F2"/>
<path d="M65.2297 7.69208L67.6911 7.07673L65.2297 6.46138L64.6143 4L63.999 6.46138L61.5376 7.07673L63.999 7.69208L64.6143 10.1535L65.2297 7.69208Z" fill="#5641F2"/>
</svg>
