<svg width="80" height="80" viewBox="0 0 80 80" fill="none" xmlns="http://www.w3.org/2000/svg">
<path fill-rule="evenodd" clip-rule="evenodd" d="M8 10C8 8.89543 8.89543 8 10 8H70C71.1046 8 72 8.89543 72 10V70C72 71.1046 71.1046 72 70 72H10C8.89543 72 8 71.1046 8 70V17.6093L20.8208 33.9267L22.0063 35.4355L23.1843 33.9209L28.8506 26.6357L40.2196 45.2809L41.3108 47.0705L42.6526 45.4603L48.8044 38.0781L57.8021 52.9833L51.9664 51.0744L51.0337 53.9257L60.2303 56.934L61.6388 57.3947L62.1165 55.9918L65.3402 46.5257L62.5003 45.5586L60.4532 51.57L50.2844 34.7248L49.1961 32.9219L47.8479 34.5397L41.6898 41.9295L30.281 23.2191L29.15 21.3643L27.8162 23.0791L21.9943 30.5645L8 12.7536V10Z" fill="url(#paint0_linear)"/>
<defs>
<linearGradient id="paint0_linear" x1="40" y1="8" x2="40" y2="72" gradientUnits="userSpaceOnUse">
<stop stop-color="#5BFFE2"/>
<stop offset="1" stop-color="#00AFA5"/>
</linearGradient>
</defs>
</svg>
