<svg width="80" height="80" viewBox="0 0 80 80" fill="none" xmlns="http://www.w3.org/2000/svg">
<path d="M75.8 16H60.9708C61.9664 23.3634 69.9427 31.3398 77.3061 32.3383V17.5061C77.3061 16.6778 76.6284 16 75.8 16Z" fill="url(#paint0_linear)"/>
<path d="M57.9536 16H21.3581C20.3821 24.9795 10.9795 34.3821 2 35.3551V44.6523C10.9764 45.6253 20.3776 55.0234 21.3581 63.9999H57.9521C58.9311 55.0249 68.3293 45.6298 77.3042 44.6523V35.3551C68.3278 34.3776 58.9281 24.9779 57.9521 16H57.9536ZM39.6528 54.5415C31.6403 54.5415 25.1188 48.02 25.1188 40.0075C25.1188 31.9949 31.6403 25.4735 39.6528 25.4735C47.6654 25.4735 54.1868 31.9949 54.1868 40.0075C54.1868 48.02 47.6654 54.5415 39.6528 54.5415Z" fill="url(#paint1_linear)"/>
<path d="M43.5291 35.3802C42.9491 34.1602 42.0691 33.3602 40.8491 33.0202V31.2002H38.4091V32.9802C36.7491 33.4402 35.6691 34.8802 35.6691 36.6402C35.6291 39.2202 37.7891 40.2802 39.4491 40.9802C40.6291 41.4802 41.5291 42.1202 41.5291 42.9402C41.5291 44.1602 40.9291 44.7602 39.7091 44.7602C38.3891 44.7602 37.4691 43.8202 36.9291 41.9202L34.8291 43.2402C35.2091 45.0602 36.5491 46.5402 38.4091 47.0002V48.8002H40.8491V47.0402C42.8691 46.6202 44.1291 45.1002 44.1291 42.8002C44.1491 40.3802 41.9291 39.3402 40.2491 38.6002C39.1091 38.0602 38.1491 37.4002 38.1491 36.5202C38.1491 35.7802 38.7091 35.2402 39.4891 35.2402C40.2691 35.2402 40.9291 35.7402 41.4291 36.7202L43.5291 35.3802Z" fill="url(#paint2_linear)"/>
<path d="M60.9723 64.0002H75.8C76.6283 64.0002 77.3061 63.3375 77.3061 62.4941V47.6694C69.9457 48.6665 61.9723 56.6398 60.9723 64.0002Z" fill="url(#paint3_linear)"/>
<path d="M2 47.6694V62.4941C2 63.3375 2.67775 64.0002 3.50611 64.0002H18.3413C17.3398 56.6368 9.36188 48.6635 2 47.6694Z" fill="url(#paint4_linear)"/>
<path d="M18.3413 16H3.50611C2.67775 16 2 16.6778 2 17.5061V32.3383C9.3649 31.3443 17.3458 23.3649 18.3413 16Z" fill="url(#paint5_linear)"/>
<defs>
<linearGradient id="paint0_linear" x1="69.1385" y1="16" x2="69.1385" y2="32.3383" gradientUnits="userSpaceOnUse">
<stop stop-color="#5BFFE2"/>
<stop offset="1" stop-color="#00AFA5"/>
</linearGradient>
<linearGradient id="paint1_linear" x1="39.6521" y1="16" x2="39.6521" y2="63.9999" gradientUnits="userSpaceOnUse">
<stop stop-color="#5BFFE2"/>
<stop offset="1" stop-color="#00AFA5"/>
</linearGradient>
<linearGradient id="paint2_linear" x1="39.4792" y1="31.2002" x2="39.4792" y2="48.8002" gradientUnits="userSpaceOnUse">
<stop stop-color="#5BFFE2"/>
<stop offset="1" stop-color="#00AFA5"/>
</linearGradient>
<linearGradient id="paint3_linear" x1="69.1392" y1="47.6694" x2="69.1392" y2="64.0002" gradientUnits="userSpaceOnUse">
<stop stop-color="#5BFFE2"/>
<stop offset="1" stop-color="#00AFA5"/>
</linearGradient>
<linearGradient id="paint4_linear" x1="10.1707" y1="47.6694" x2="10.1707" y2="64.0002" gradientUnits="userSpaceOnUse">
<stop stop-color="#5BFFE2"/>
<stop offset="1" stop-color="#00AFA5"/>
</linearGradient>
<linearGradient id="paint5_linear" x1="10.1707" y1="16" x2="10.1707" y2="32.3383" gradientUnits="userSpaceOnUse">
<stop stop-color="#5BFFE2"/>
<stop offset="1" stop-color="#00AFA5"/>
</linearGradient>
</defs>
</svg>
