<svg width="80" height="80" viewBox="0 0 80 80" fill="none" xmlns="http://www.w3.org/2000/svg">
<mask id="mask0" mask-type="alpha" maskUnits="userSpaceOnUse" x="4" y="4" width="72" height="72">
<path d="M40 76C59.8823 76 76 59.8823 76 40C76 20.1177 59.8823 4 40 4C20.1177 4 4 20.1177 4 40C4 59.8823 20.1177 76 40 76Z" fill="white"/>
</mask>
<g mask="url(#mask0)">
<path fill-rule="evenodd" clip-rule="evenodd" d="M4 39.9997C4 20.4183 19.6336 4.48839 39.1 4.01074V22.347C37.046 22.7639 35.5 24.5799 35.5 26.757C35.5 28.1204 36.1064 29.3422 37.0642 30.1675L33.3744 41.273L30.0193 42.1562C29.7929 42.2158 29.5946 42.3529 29.4589 42.5437L24.1107 50.0628L20.1732 47.9529L14.7113 36.2353C14.5498 35.8888 14.2049 35.6648 13.8227 35.658C13.4404 35.6512 13.0878 35.8629 12.9141 36.2034L8.15922 45.5252L4.09059 42.5735C4.03053 41.7234 4 40.8651 4 39.9997ZM38.8582 31.1108L35.1016 42.4175C34.9951 42.7381 34.7339 42.9833 34.4072 43.0693L30.8787 43.9981L25.2299 51.94C24.938 52.3503 24.3865 52.4796 23.9427 52.2418L18.9351 49.5586C18.7446 49.4565 18.5924 49.2955 18.5011 49.0996L13.7644 38.9379L9.40942 47.4758C9.27658 47.7362 9.03644 47.9255 8.75218 47.9938C8.46792 48.0621 8.16801 48.0025 7.93138 47.8309L4.38083 45.2549C6.88222 62.3571 21.4082 75.5546 39.1 75.9887V31.1669C39.0186 31.1504 38.938 31.1317 38.8582 31.1108ZM42.8503 30.2393L46.4128 37.6464L50.5399 35.5115C51.0272 35.2595 51.6265 35.447 51.8832 35.9319L55.7732 43.28C56.5879 41.4528 57.266 39.9641 57.8069 38.8153C58.1648 38.0551 58.4655 37.4377 58.7078 36.9669C58.9398 36.516 59.1456 36.1449 59.3101 35.9182C59.5346 35.6086 60.0799 35.0333 60.6927 34.41C61.3329 33.7588 62.1213 32.9813 62.8935 32.2313C63.6662 31.4809 64.4264 30.7543 65.0115 30.2039C65.3036 29.9291 65.5545 29.6959 65.7425 29.5249C65.836 29.4398 65.9178 29.3666 65.9831 29.31L65.9898 29.3042C66.0286 29.2704 66.1307 29.1816 66.229 29.1218C66.4953 28.9598 66.7544 28.9631 66.8616 28.9701C66.9886 28.9782 67.096 29.006 67.1658 29.0271C67.308 29.0702 67.4493 29.1342 67.5711 29.1949C67.8233 29.3207 68.1446 29.51 68.5211 29.748C69.1888 30.1699 70.1017 30.7904 71.2542 31.604L74.5698 29.9198C70.3134 15.2976 57.0315 4.51922 41.1571 4.01796V22.4071C43.0817 22.9178 44.5 24.6717 44.5 26.757C44.5 28.1606 43.8574 29.4141 42.8503 30.2393ZM41.1571 31.3332V75.9815C60.5039 75.3706 76 59.4948 76 39.9997C76 37.215 75.6838 34.5042 75.0854 31.9011L71.6216 33.6607C71.2899 33.8292 70.8921 33.7996 70.589 33.584C69.2082 32.6016 68.1656 31.8892 67.4527 31.4387C67.2526 31.3122 67.0854 31.2109 66.9489 31.132C66.7921 31.2764 66.6003 31.4551 66.3818 31.6607C65.8055 32.2028 65.053 32.922 64.2869 33.666C63.5204 34.4105 62.7441 35.1762 62.1189 35.8121C61.4663 36.4759 61.0457 36.9317 60.929 37.0925C60.866 37.1793 60.7233 37.4211 60.4861 37.8821C60.2591 38.3232 59.9696 38.917 59.6163 39.6672C58.9103 41.1667 57.9611 43.2668 56.7675 45.9712C56.6128 46.3218 56.2713 46.5531 55.8883 46.5668C55.5053 46.5804 55.1482 46.374 54.9689 46.0353L50.579 37.743L46.4172 39.8958C46.1772 40.0199 45.8971 40.0417 45.6408 39.956C45.3845 39.8703 45.1737 39.6845 45.0566 39.441L41.1571 31.3332Z" fill="url(#paint0_linear)"/>
</g>
<defs>
<linearGradient id="paint0_linear" x1="40" y1="4.01074" x2="40" y2="75.9887" gradientUnits="userSpaceOnUse">
<stop stop-color="#FBCB21"/>
<stop offset="1" stop-color="#F18E1A"/>
</linearGradient>
</defs>
</svg>
