<?xml version="1.0" encoding="UTF-8"?>
<svg width="33px" height="47px" viewBox="0 0 33 47" version="1.1" xmlns="http://www.w3.org/2000/svg" xmlns:xlink="http://www.w3.org/1999/xlink">
    <!-- Generator: Sketch 50 (54983) - http://www.bohemiancoding.com/sketch -->
    <title>trezor</title>
    <desc>Created with Sketch.</desc>
    <defs></defs>
    <g id="ðŸƒ-Mintr" stroke="none" stroke-width="1" fill="none" fill-rule="evenodd">
        <g id="Connect" transform="translate(-547.000000, -522.000000)" fill="#53B167" fill-rule="nonzero">
            <g id="Group-2-Copy-2" transform="translate(502.000000, 475.000000)">
                <g id="Group-Copy-3" transform="translate(0.351562, 0.187500)">
                    <g id="trezor" transform="translate(45.000000, 46.908203)">
                        <path d="M15.8914822,0 C9.56679992,0 4.44833859,5.11846133 4.44833859,11.4431436 L4.44833859,15.7319292 C2.22736036,16.1340028 0,16.670101 0,17.3657522 L0,39.7478518 C0,39.7478518 0,40.3669176 0.695651228,40.6604952 C3.21658917,41.6816346 13.1344058,45.1918014 15.4128231,45.9959487 C15.7064007,46.1044447 15.7893682,46.1044447 15.8659537,46.1044447 C15.9744498,46.1044447 16.0255067,46.1044447 16.3190843,45.9959487 C18.5975016,45.1918014 28.5408467,41.6816346 31.0617847,40.6604952 C31.7063789,40.3924461 31.7319074,39.7733803 31.7319074,39.7733803 L31.7319074,17.3657522 C31.7319074,16.670101 29.5364577,16.1084743 27.3090973,15.7319292 L27.3090973,11.4431436 C27.3410079,5.11846133 22.190636,0 15.8914822,0 Z M15.8914822,5.46947801 C19.6186411,5.46947801 21.8715299,7.72236685 21.8715299,11.4495257 L21.8715299,15.1766846 C17.6912404,14.883107 14.1236346,14.883107 9.9178166,15.1766846 L9.9178166,11.4495257 C9.9178166,7.71598473 12.1707054,5.46947801 15.8914822,5.46947801 Z M15.8659537,20.665309 C21.0673826,20.665309 25.4327536,21.0673826 25.4327536,21.7885623 L25.4327536,35.7526439 C25.4327536,35.969636 25.4072251,35.9951645 25.2157615,36.0717499 C25.03068,36.1547175 16.3446128,39.2883391 16.3446128,39.2883391 C16.3446128,39.2883391 15.9935961,39.3968352 15.8914822,39.3968352 C15.7829861,39.3968352 15.4383516,39.2628106 15.4383516,39.2628106 C15.4383516,39.2628106 6.7522844,36.129189 6.56720288,36.0462214 C6.38212136,35.9632539 6.35021075,35.9377254 6.35021075,35.7271154 L6.35021075,21.7630338 C6.29915378,21.0418541 10.6645248,20.665309 15.8659537,20.665309 Z" id="path7"></path>
                    </g>
                </g>
            </g>
        </g>
    </g>
</svg>