<?xml version="1.0" encoding="UTF-8"?>
<svg width="380px" height="150px" viewBox="0 0 380 150" version="1.1" xmlns="http://www.w3.org/2000/svg" xmlns:xlink="http://www.w3.org/1999/xlink">
    <!-- Generator: Sketch 54.1 (76490) - https://sketchapp.com -->
    <title>Group 2</title>
    <desc>Created with Sketch.</desc>
    <g id="Page-1" stroke="none" stroke-width="1" fill="none" fill-rule="evenodd">
        <g id="Product-Page-—-Synthetix.Exchange" transform="translate(-530.000000, -904.000000)">
            <g id="Group-2" transform="translate(530.000000, 904.000000)">
                <g id="Button">
                    <path d="M1,1 L1,148.699219 L378.710938,148.699219 L378.710938,1 L1,1 Z" id="Rectangle" stroke="#D1D1E8" stroke-width="2" fill="#FFFFFF"></path>
                    <text id="Open-dApp" font-family="Aeonik-Regular, Aeonik" font-size="24" font-weight="normal" line-spacing="28" letter-spacing="-0.5" fill="#0D0A31">
                        <tspan x="125.691406" y="124">Open dApp</tspan>
                    </text>
                </g>
                <g id="Group-15" transform="translate(83.000000, 30.000000)">
                    <g id="Group-14">
                        <g id="S-logo" transform="translate(0.000000, 0.206229)">
                            <polygon id="Path" fill="#84838B" points="2.30723116 24.8841244 0.487215443 23.5754042 17.3098731 -8.45545856e-13 19.036036 1.24123334"></polygon>
                            <path d="M11.4285364,11.7978024 C12.3553801,11.7978024 13.1067353,11.8070215 13.1067353,12.7093603 C13.1067353,13.6116992 12.3553801,13.7683179 11.4285364,13.7683179 L7.07211607,13.9048215 C2.85362985,13.9048215 0.487215443,11.0054625 0.487215443,6.8978093 C0.487215443,4.8753872 1.21758313,3.23282082 2.30340328,2.02492238 C3.42294501,0.779511058 4.93025642,-5.68410068e-13 7.07211607,-5.68434189e-13 L18.3065656,-5.68434189e-13 C18.9061283,-8.69853859e-09 19.4601471,0.0752641245 19.7599284,0.580772587 C19.916723,0.845168572 19.9425195,0.984572141 19.9352976,1.13067785 C19.9287117,1.26391705 19.9029152,1.40289675 19.7599284,1.64400923 C19.4601471,2.14951769 18.9061283,2.22867266 18.3065656,2.22867265 L7.07211607,2.22867265 C5.92213949,2.24317317 4.6090618,2.75135366 3.77042814,3.60499215 C2.89990334,4.49109238 2.52532891,5.74408538 2.52532891,6.90632977 C2.52532891,9.18824045 4.72843217,11.7101468 7.07211607,11.7396992 L11.4285364,11.7978024 Z" id="Path" fill="#1E1A31"></path>
                            <path d="M11.0164541,23.4363737 C11.9432977,23.4363737 12.694653,23.503696 12.694653,24.4060349 C12.694653,25.3083737 11.9432977,25.4907368 11.0164541,25.4907368 L6.66003371,25.4907368 C4.58752822,25.4907368 3.0784306,24.8018627 1.94252463,23.6027719 C0.766348092,22.3611706 -1.0658141e-14,20.6840828 -1.0658141e-14,18.5944838 C-1.19059208e-14,14.4868306 2.44082908,11.7980309 6.66003371,11.7980309 L17.8944832,11.7980309 C18.4940459,11.7980309 19.0480647,11.7719386 19.3478461,12.2774471 C19.497108,12.5291411 19.5323023,12.6683357 19.5329285,12.8071848 C19.5335599,12.9472038 19.4983655,13.1888741 19.3478461,13.4426886 C19.0480647,13.948197 18.4940459,13.9253472 17.8944832,13.9253472 L6.66003371,13.9253472 C5.51610746,13.9397714 4.22186379,14.3485569 3.39475445,15.1927232 C2.52727654,16.0780905 2.1542867,17.4263486 2.1542867,18.5944838 C2.1542867,20.8763945 4.31634981,23.4068213 6.66003371,23.4363737 L11.0164541,23.4363737 Z" id="Path" fill="#1E1A31" transform="translate(9.766468, 18.644270) scale(-1, -1) translate(-9.766468, -18.644270) "></path>
                        </g>
                        <path d="M26.9841213,0.0102056478 L29.2748198,0.0102056478 L37.710408,14.0856555 L46.2187169,0.0102056478 L48.4366948,0.0102056478 L38.692136,16.2482897 L38.692136,25.7052326 L36.7286801,25.7052326 L36.7286801,16.2482897 L26.9841213,0.0102056478 Z M55.568582,25.7052326 L55.568582,0.0468604651 L57.422957,0.0468604651 L72.4761188,22.0764056 L72.4761188,0.0468604651 L74.4032144,0.0468604651 L74.4032144,25.7052326 L72.5488394,25.7052326 L57.4956776,3.63903256 L57.4956776,25.7052326 L55.568582,25.7052326 Z M81.8623442,0.0468604651 L101.278741,0.0468604651 L101.278741,1.87960133 L92.5522707,1.87960133 L92.5522707,25.7052326 L90.5888148,25.7052326 L90.5888148,1.87960133 L81.8623442,1.87960133 L81.8623442,0.0468604651 Z M108.737871,0.0102056478 L110.701327,0.0102056478 L110.701327,11.7030924 L125.427246,11.7030924 L125.427246,0.0102056478 L127.390702,0.0102056478 L127.390702,25.7052326 L125.427246,25.7052326 L125.427246,13.5358332 L110.701327,13.5358332 L110.701327,25.7052326 L108.737871,25.7052326 L108.737871,0.0102056478 Z M136.631486,0.0468604651 L152.302773,0.0468604651 L152.302773,1.87960133 L138.594942,1.87960133 L138.594942,11.7030924 L150.084795,11.7030924 L150.084795,13.5358332 L138.594942,13.5358332 L138.594942,23.8724917 L152.775457,23.8724917 L152.775457,25.7052326 L136.631486,25.7052326 L136.631486,0.0468604651 Z M158.052969,0.0468604651 L177.469366,0.0468604651 L177.469366,1.87960133 L168.742896,1.87960133 L168.742896,25.7052326 L166.77944,25.7052326 L166.77944,1.87960133 L158.052969,1.87960133 L158.052969,0.0468604651 Z M184.928496,0.0468604651 L186.891952,0.0468604651 L186.891952,25.7052326 L184.928496,25.7052326 L184.928496,0.0468604651 Z M203.586596,12.582808 L195.223729,0.0468604651 L197.514427,0.0468604651 L204.859207,11.0066508 L212.240346,0.0468604651 L214.349243,0.0468604651 L205.986376,12.582808 L214.894648,25.7052326 L212.567589,25.7052326 L204.713766,14.1956199 L196.823582,25.7052326 L194.678324,25.7052326 L203.586596,12.582808 Z" id="YNTHETIX" fill="#1E1A31" fill-rule="nonzero"></path>
                    </g>
                    <path d="M1,36.2106742 L16.4524528,36.2106742 L16.4524528,37.9662921 L2.93603818,37.9662921 L2.93603818,47.3764045 L14.2654468,47.3764045 L14.2654468,49.1320225 L2.93603818,49.1320225 L2.93603818,59.0337079 L16.9185361,59.0337079 L16.9185361,60.7893258 L1,60.7893258 L1,36.2106742 Z M33.225215,48.2191011 L24.9791265,36.2106742 L27.2378377,36.2106742 L34.4800545,46.7092697 L41.758124,36.2106742 L43.8375724,36.2106742 L35.5914839,48.2191011 L44.3753608,60.7893258 L42.080797,60.7893258 L34.3366443,49.7640449 L26.556639,60.7893258 L24.4413381,60.7893258 L33.225215,48.2191011 Z M50.8584385,48.5 C50.8584385,46.0655309 51.3364679,43.9002904 52.2925409,42.0042135 C53.2486139,40.1081366 54.6109975,38.6334322 56.3797326,37.5800562 C58.1484677,36.5266801 60.1920431,36 62.5105201,36 C65.1636228,36 67.3864592,36.6788322 69.1790961,38.0365169 C70.971733,39.3942015 72.1309541,41.301954 72.6567943,43.7598315 L70.7207561,43.7598315 C70.1949159,41.8403462 69.2030051,40.3597899 67.7449937,39.318118 C66.2869824,38.2764461 64.5063231,37.755618 62.4029625,37.755618 C60.4908164,37.755618 58.8177137,38.2120741 57.3836042,39.125 C55.9494947,40.0379259 54.8380765,41.3078102 54.0493163,42.934691 C53.260556,44.5615718 52.8661818,46.4166562 52.8661818,48.5 C52.8661818,50.5833437 53.260556,52.4384282 54.0493163,54.065309 C54.8380765,55.6921898 55.9494947,56.9620741 57.3836042,57.875 C58.8177137,58.7879259 60.4908164,59.244382 62.4029625,59.244382 C64.5541267,59.244382 66.3407614,58.7294059 67.76292,57.6994382 C69.1850786,56.6694705 70.1590634,55.1713581 70.6849035,53.2050562 L72.6209417,53.2050562 C72.0711997,55.686342 70.917954,57.6057985 69.1611698,58.9634831 C67.4043856,60.3211678 65.1875246,61 62.5105201,61 C60.1920431,61 58.1484677,60.4791719 56.3797326,59.4375 C54.6109975,58.3958281 53.2486139,56.9269758 52.2925409,55.0308989 C51.3364679,53.134822 50.8584385,50.9578775 50.8584385,48.5 Z M82.2231921,36.1755618 L84.1592303,36.1755618 L84.1592303,47.3764045 L98.6795166,47.3764045 L98.6795166,36.1755618 L100.615555,36.1755618 L100.615555,60.7893258 L98.6795166,60.7893258 L98.6795166,49.1320225 L84.1592303,49.1320225 L84.1592303,60.7893258 L82.2231921,60.7893258 L82.2231921,36.1755618 Z M109.106376,60.7893258 L118.786567,36.2106742 L121.08113,36.2106742 L130.761321,60.7893258 L128.681873,60.7893258 L125.670258,53.2752809 L114.125734,53.2752809 L111.114119,60.7893258 L109.106376,60.7893258 Z M114.699375,51.5196629 L125.096617,51.5196629 L119.897996,38.2823034 L114.699375,51.5196629 Z M139.252142,60.7893258 L139.252142,36.2106742 L141.080623,36.2106742 L155.923582,57.3132022 L155.923582,36.2106742 L157.823768,36.2106742 L157.823768,60.7893258 L155.995287,60.7893258 L141.152328,39.6516854 L141.152328,60.7893258 L139.252142,60.7893258 Z M167.390166,48.5 C167.390166,46.0655309 167.868195,43.9002904 168.824268,42.0042135 C169.780341,40.1081366 171.130774,38.6334322 172.875607,37.5800562 C174.62044,36.5266801 176.664016,36 179.006395,36 C181.635595,36 183.846481,36.6788322 185.639118,38.0365169 C187.431755,39.3942015 188.602927,41.301954 189.152669,43.7598315 L187.252483,43.7598315 C186.678839,41.8403462 185.674978,40.3597899 184.240868,39.318118 C182.806759,38.2764461 181.03805,37.755618 178.93469,37.755618 C177.022544,37.755618 175.349441,38.2120741 173.915331,39.125 C172.481222,40.0379259 171.369804,41.3078102 170.581043,42.934691 C169.792283,44.5615718 169.397909,46.4166562 169.397909,48.5 C169.397909,50.5833437 169.786308,52.4384282 170.563117,54.065309 C171.339926,55.6921898 172.439394,56.9620741 173.861553,57.875 C175.283711,58.7879259 176.914986,59.244382 178.755427,59.244382 C180.571966,59.244382 182.155438,58.8757059 183.505891,58.1383427 C184.856344,57.4009795 185.896058,56.3944352 186.625063,55.1186798 C187.354069,53.8429243 187.718566,52.39748 187.718566,50.7823034 L187.718566,49.7289326 L179.472478,49.7289326 L179.472478,47.9733146 L189.5829,47.9733146 L189.5829,60.7893258 L187.969534,60.7893258 L187.790272,55.1713483 C187.192726,56.8099333 186.11716,58.1910056 184.563541,59.3146067 C183.009923,60.4382079 181.061953,61 178.719574,61 C176.520606,61 174.560686,60.4733199 172.839755,59.4199438 C171.118823,58.3665678 169.780341,56.8918634 168.824268,54.9957865 C167.868195,53.0997096 167.390166,50.9344691 167.390166,48.5 Z M200.081464,36.2106742 L215.533917,36.2106742 L215.533917,37.9662921 L202.017502,37.9662921 L202.017502,47.3764045 L213.346911,47.3764045 L213.346911,49.1320225 L202.017502,49.1320225 L202.017502,59.0337079 L216,59.0337079 L216,60.7893258 L200.081464,60.7893258 L200.081464,36.2106742 Z" id="EXCHANGE" fill="#1E1A31" fill-rule="nonzero"></path>
                </g>
            </g>
        </g>
    </g>
</svg>