<?xml version="1.0" encoding="UTF-8"?>
<svg width="380px" height="150px" viewBox="0 0 380 150" version="1.1" xmlns="http://www.w3.org/2000/svg" xmlns:xlink="http://www.w3.org/1999/xlink">
    <!-- Generator: Sketch 53.1 (72631) - https://sketchapp.com -->
    <title>Button</title>
    <desc>Created with Sketch.</desc>
    <defs>
        <path d="M0.00874095003,0.608849564 L12.4159273,0.608849564 L12.4159273,2.55470712 L2.25616779,2.55470712 L2.25616779,7.37610974 L11.6513388,7.37610974 L11.6513388,9.2138641 L2.25616779,9.2138641 L2.25616779,14.5974033 L12.5896974,14.5974033 L12.5896974,16.4892093 L0.00874095003,16.4892093 L0.00874095003,0.608849564 Z M17.0729664,16.4892093 L14.2926445,16.4892093 L20.3861833,8.34903852 L14.6749388,0.608849564 L17.5595227,0.608849564 L21.9037756,6.68424927 L26.2132745,0.608849564 L28.9588424,0.608849564 L23.2475979,8.34903852 L29.2368746,16.4892093 L26.37546,16.4892093 L21.7879289,9.95977616 L17.0729664,16.4892093 Z M38.6088762,0.176436773 C40.7636364,0.176436773 42.4356744,0.706137145 43.6250402,1.76555378 C44.8144061,2.82497041 45.4747259,4.02850731 45.6060196,5.37620058 L43.3585927,5.37620058 C43.1037286,4.35281853 42.5959388,3.54205265 41.835208,2.94387863 C41.0744773,2.34570462 40.0067671,2.04662209 38.6320455,2.04662209 C36.9561209,2.04662209 35.6026583,2.59614119 34.5716171,3.69519586 C33.540576,4.79425053 33.0250631,6.47884185 33.0250631,8.74902035 C33.0250631,10.6084046 33.4903762,12.1164292 34.4210164,13.2731392 C35.3516565,14.4298492 36.7398728,15.0081955 38.5857068,15.0081955 C40.2848009,15.0081955 41.57841,14.3992202 42.4665728,13.1812515 C42.9376852,12.5398359 43.2890835,11.6966394 43.5207782,10.6516366 L45.768205,10.6516366 C45.567403,12.3236411 44.9032216,13.7253652 43.775641,14.856851 C42.4240889,16.2189581 40.6014517,16.9000015 38.3076747,16.9000015 C36.330547,16.9000015 34.6700936,16.3414739 33.3262646,15.2244019 C31.5576622,13.7469841 30.6733742,11.4660295 30.6733742,8.38146948 C30.6733742,6.03922182 31.3375556,4.11860754 32.6659382,2.61956904 C34.102445,0.990806052 36.0834045,0.176436773 38.6088762,0.176436773 Z M48.6296196,0.608849564 L50.9581391,0.608849564 L50.9581391,7.17071366 L59.8088304,7.17071366 L59.8088304,0.608849564 L62.13735,0.608849564 L62.13735,16.4892093 L59.8088304,16.4892093 L59.8088304,9.06251962 L50.9581391,9.06251962 L50.9581391,16.4892093 L48.6296196,16.4892093 L48.6296196,0.608849564 Z M74.4402742,9.9813968 L71.8568918,2.96549927 L69.111324,9.9813968 L74.4402742,9.9813968 Z M70.6520857,0.608849564 L73.2586374,0.608849564 L79.4332689,16.4892093 L76.9078099,16.4892093 L75.1816934,11.7326686 L68.4509976,11.7326686 L66.6090343,16.4892093 L64.2457607,16.4892093 L70.6520857,0.608849564 Z M81.530095,0.608849564 L84.2524935,0.608849564 L92.8483219,13.4731301 L92.8483219,0.608849564 L95.0378254,0.608849564 L95.0378254,16.4892093 L92.454443,16.4892093 L83.7311831,3.6357391 L83.7311831,16.4892093 L81.530095,16.4892093 L81.530095,0.608849564 Z M106.020097,0.198057413 C107.61879,0.198057413 109.001214,0.486329724 110.16741,1.06288299 C111.858781,1.89167832 112.893668,3.34385009 113.272103,5.41944186 L110.989922,5.41944186 C110.711889,4.2591284 110.136522,3.41413019 109.263806,2.88442188 C108.391089,2.35471356 107.290556,2.08986337 105.962173,2.08986337 C104.38665,2.08986337 103.060218,2.64118417 101.982838,3.7438423 C100.905458,4.84650043 100.366776,6.4896526 100.366776,8.67334811 C100.366776,10.5615601 100.81085,12.0984118 101.699013,13.2839495 C102.587176,14.4694872 104.035246,15.0622471 106.043266,15.0622471 C107.580174,15.0622471 108.852545,14.6460539 109.860416,13.8136552 C110.868288,12.9812564 111.383801,11.635385 111.40697,9.77600073 L106.07802,9.77600073 L106.07802,7.99229797 L113.550135,7.99229797 L113.550135,16.4892093 L112.067297,16.4892093 L111.511232,14.4460589 C110.731194,15.2460265 110.039982,15.8009507 109.437576,16.1108481 C108.425842,16.6441599 107.139956,16.9108118 105.579879,16.9108118 C103.564136,16.9108118 101.830313,16.3018365 100.37836,15.0838677 C98.7951136,13.5560016 98.0035021,11.4588205 98.0035021,8.79226163 C98.0035021,6.13290967 98.775806,4.01771159 100.320437,2.44660392 C101.787836,0.947565422 103.687704,0.198057413 106.020097,0.198057413 Z M117.338324,0.608849564 L129.74551,0.608849564 L129.74551,2.55470712 L119.585751,2.55470712 L119.585751,7.37610974 L128.980922,7.37610974 L128.980922,9.2138641 L119.585751,9.2138641 L119.585751,14.5974033 L129.91928,14.5974033 L129.91928,16.4892093 L117.338324,16.4892093 L117.338324,0.608849564 Z" id="path-1"></path>
    </defs>
    <g id="Page-1" stroke="none" stroke-width="1" fill="none" fill-rule="evenodd">
        <g id="Product-Page-—-Synthetix.Exchange" transform="translate(-530.000000, -904.000000)">
            <g id="Button" transform="translate(530.000000, 904.000000)">
                <path d="M1,1 L1,148.699219 L378.710938,148.699219 L378.710938,1 L1,1 Z" id="Rectangle" stroke="#D1D1E8" stroke-width="2" fill="#FFFFFF"></path>
                <text id="Open-dApp" font-family="Aeonik-Regular, Aeonik" font-size="24" font-weight="normal" line-spacing="28" letter-spacing="-0.5" fill="#0D0A31">
                    <tspan x="125.691406" y="124">Open dApp</tspan>
                </text>
                <g id="synthetix_exchange-logo" transform="translate(69.000000, 30.000000)">
                    <g id="Group">
                        <polygon id="Path" fill-opacity="0.5" fill="#FFFFFF" points="7.10770127 62.3047487 0.753676604 57.7161116 40.7147701 1.47831468 47.0687948 6.06695182"></polygon>
                        <path d="M28.0451996,28.0164951 C30.2035891,28.0164951 31.9533096,29.7808646 31.9533096,31.9573247 C31.9533096,34.1337847 30.2035891,35.8981542 28.0451996,35.8981542 L17.9001744,35.8981542 C8.0763638,35.8981542 0.11124757,27.8680392 0.11124757,17.9602944 C0.11124757,8.05254958 8.07469081,0.0207475934 17.9001744,0.0207475934 L44.0624277,0.0207475934 C45.4586609,0.0207475724 46.7488336,0.771865435 47.4469502,1.99116235 C48.1450668,3.21045926 48.1450668,4.71269501 47.4469502,5.93199192 C46.7488336,7.15128883 45.4586609,7.9024067 44.0624277,7.90240668 L17.9001744,7.90240668 C12.4423145,7.97368781 8.05497019,12.455435 8.05497019,17.9594509 C8.05497019,23.4634668 12.4423145,27.945214 17.9001744,28.0164951 L28.0451996,28.0164951 Z" id="Path" fill="#1E1A31"></path>
                        <path d="M20.0365856,35.8981542 C17.8781961,35.8981542 16.1284756,34.1337847 16.1284756,31.9573247 C16.1284756,29.7808646 17.8781961,28.0164951 20.0365856,28.0164951 L30.1816108,28.0164951 C40.0054214,28.0164951 47.9705376,36.0482971 47.9705376,45.9560419 C47.9705376,55.8637867 40.0070944,63.8972757 30.1816108,63.8972757 L4.01935753,63.8972757 C2.62312428,63.8972758 1.33295153,63.1461579 0.634834886,61.926861 C-0.0632817551,60.7075641 -0.0632817551,59.2053283 0.634834886,57.9860314 C1.33295153,56.7667344 2.62312428,56.0156166 4.01935753,56.0156167 L30.1816108,56.0156167 C35.6903087,56.0156167 40.1559907,51.5125469 40.1559907,45.9577289 C40.1559907,40.4029109 35.6903087,35.8998412 30.1816108,35.8998412 L20.0365856,35.8998412 L20.0365856,35.8981542 Z" id="Path" fill="#1E1A31"></path>
                    </g>
                    <g id="Group" transform="translate(114.000000, 23.000000)">
                        <g id="EXCHANGE">
                            <use fill="#000000" xlink:href="#path-1"></use>
                            <use fill="#1E1A31" xlink:href="#path-1"></use>
                        </g>
                    </g>
                    <path d="M78.5,0 L78.5,64" id="Path" stroke="#575379" stroke-width="5"></path>
                </g>
            </g>
        </g>
    </g>
</svg>