<?xml version="1.0" encoding="UTF-8"?>
<svg width="380px" height="150px" viewBox="0 0 380 150" version="1.1" xmlns="http://www.w3.org/2000/svg" xmlns:xlink="http://www.w3.org/1999/xlink">
    <!-- Generator: Sketch 52.6 (67491) - http://www.bohemiancoding.com/sketch -->
    <title>Button</title>
    <desc>Created with Sketch.</desc>
    <defs>
        <path d="M0.00598418887,0.429776163 L8.50013483,0.429776163 L8.50013483,1.80332267 L1.54460718,1.80332267 L1.54460718,5.2066657 L7.97668577,5.2066657 L7.97668577,6.50390407 L1.54460718,6.50390407 L1.54460718,10.3040494 L8.61910052,10.3040494 L8.61910052,11.6394419 L0.00598418887,11.6394419 L0.00598418887,0.429776163 Z M11.6884155,11.6394419 L9.78496434,11.6394419 L13.9566947,5.89343895 L10.0466889,0.429776163 L12.0215194,0.429776163 L14.9956618,4.7182936 L17.946011,0.429776163 L19.825669,0.429776163 L15.9156632,5.89343895 L20.0160141,11.6394419 L18.0570457,11.6394419 L14.9163513,7.03043023 L11.6884155,11.6394419 Z M26.4322306,0.124543605 C27.9074126,0.124543605 29.0521155,0.498449749 29.8663737,1.24627326 C30.6806319,1.99409676 31.132697,2.84365222 31.2225826,3.79496512 L29.6839596,3.79496512 C29.5094757,3.07257778 29.161835,2.50027246 28.641027,2.07803198 C28.1202191,1.65579149 27.3892483,1.44467442 26.4480927,1.44467442 C25.3007289,1.44467442 24.3741276,1.83257025 23.668261,2.60837355 C22.9623943,3.38417684 22.6094663,4.57330013 22.6094663,6.17577907 C22.6094663,7.48828563 22.9280268,8.55277353 23.5651574,9.36927471 C24.2022879,10.1857759 25.1526822,10.5940203 26.4163685,10.5940203 C27.5795945,10.5940203 28.4652191,10.1641555 29.0732691,9.30441279 C29.3957999,8.8516489 29.6363726,8.25645136 29.7949943,7.51880233 L31.3336173,7.51880233 C31.1961451,8.69904078 30.7414363,9.6884931 29.9694773,10.487189 C29.0441839,11.4486763 27.7963784,11.9294128 26.2260234,11.9294128 C24.8724514,11.9294128 23.7356795,11.535158 22.8156735,10.7466366 C21.604861,9.70375351 20.9994639,8.09366786 20.9994639,5.9163314 C20.9994639,4.26298011 21.4541727,2.90725238 22.3636038,1.84910756 C23.3470585,0.699392507 24.7032539,0.124543605 26.4322306,0.124543605 Z M33.2925857,0.429776163 L34.886726,0.429776163 L34.886726,5.06168023 L40.9460454,5.06168023 L40.9460454,0.429776163 L42.5401858,0.429776163 L42.5401858,11.6394419 L40.9460454,11.6394419 L40.9460454,6.39707267 L34.886726,6.39707267 L34.886726,11.6394419 L33.2925857,11.6394419 L33.2925857,0.429776163 Z M50.962957,7.04569186 L49.1943336,2.0932936 L47.3146757,7.04569186 L50.962957,7.04569186 Z M48.3695048,0.429776163 L50.1539903,0.429776163 L54.381238,11.6394419 L52.6522699,11.6394419 L51.4705439,8.28188372 L46.862606,8.28188372 L45.6015696,11.6394419 L43.9836362,11.6394419 L48.3695048,0.429776163 Z M55.8167573,0.429776163 L57.6805532,0.429776163 L63.5653896,9.51044477 L63.5653896,0.429776163 L65.0643574,0.429776163 L65.0643574,11.6394419 L63.2957341,11.6394419 L57.3236562,2.56640407 L57.3236562,11.6394419 L55.8167573,11.6394419 L55.8167573,0.429776163 Z M72.5829893,0.139805233 C73.6774792,0.139805233 74.6239079,0.34329157 75.4223039,0.750270349 C76.5802425,1.33530234 77.2887422,2.36036477 77.5478243,3.82548837 L75.9854082,3.82548837 C75.7950621,3.00644358 75.4011575,2.40997425 74.8036823,2.0360625 C74.2062072,1.66215075 73.4527653,1.47519767 72.5433341,1.47519767 C71.4647064,1.47519767 70.5566107,1.86436529 69.8190197,2.64271221 C69.0814287,3.42105912 68.7126387,4.58093125 68.7126387,6.12236337 C68.7126387,7.45521887 69.0166591,8.54005541 69.624709,9.37690552 C70.232759,10.2137556 71.2241298,10.6321744 72.5988514,10.6321744 C73.6510422,10.6321744 74.5221267,10.338391 75.2121312,9.75081541 C75.9021357,9.16323979 76.2550637,8.21321296 76.2709259,6.9007064 L72.6226446,6.9007064 L72.6226446,5.64162209 L77.7381695,5.64162209 L77.7381695,11.6394419 L76.7229955,11.6394419 L76.3423053,10.197218 C75.8082788,10.7619011 75.3350645,11.1536123 74.922648,11.3723634 C74.2299998,11.7488187 73.3496625,11.9370436 72.2816096,11.9370436 C70.9016006,11.9370436 69.7145992,11.5071787 68.7205698,10.647436 C67.6366547,9.56894228 67.0947053,8.08857918 67.0947053,6.20630233 C67.0947053,4.32911271 67.6234364,2.83603171 68.6809145,1.72701453 C69.6855188,0.668869709 70.9861973,0.139805233 72.5829893,0.139805233 Z M80.3316216,0.429776163 L88.8257723,0.429776163 L88.8257723,1.80332267 L81.8702446,1.80332267 L81.8702446,5.2066657 L88.3023232,5.2066657 L88.3023232,6.50390407 L81.8702446,6.50390407 L81.8702446,10.3040494 L88.9447379,10.3040494 L88.9447379,11.6394419 L80.3316216,11.6394419 L80.3316216,0.429776163 Z" id="path-1"></path>
    </defs>
    <g id="Page-1" stroke="none" stroke-width="1" fill="none" fill-rule="evenodd">
        <g id="Product-Page-—-Synthetix.Exchange" transform="translate(-529.000000, -951.000000)">
            <g id="Button" transform="translate(529.000000, 951.000000)">
                <path d="M1,1 L1,148.699219 L378.710938,148.699219 L378.710938,1 L1,1 Z" id="Rectangle" stroke="#D1D1E8" stroke-width="2" fill="#FFFFFF"></path>
                <text id="Try-the-beta-version" font-family="Aeonik-Regular, Aeonik" font-size="24" font-weight="normal" line-spacing="28" letter-spacing="-0.5" fill="#0D0A31">
                    <tspan x="49.25" y="115">Try the beta version today!</tspan>
                </text>
                <g id="synthetix_exchange-logo" transform="translate(107.000000, 35.000000)">
                    <g id="Group">
                        <polygon id="Path" fill-opacity="0.5" fill="#FFFFFF" points="4.88654462 42.8345147 0.518152665 39.6798267 27.9914045 1.01634135 32.3597964 4.17102938"></polygon>
                        <path d="M19.2810747,19.2613404 C20.7649675,19.2613404 21.9679003,20.4743444 21.9679003,21.9706607 C21.9679003,23.466977 20.7649675,24.679981 19.2810747,24.679981 L12.3063699,24.679981 C5.55250011,24.679981 0.0764827044,19.159277 0.0764827044,12.3477024 C0.0764827044,5.53612784 5.55134993,0.0142639704 12.3063699,0.0142639704 L30.292919,0.0142639704 C31.2528294,0.014263956 32.1398231,0.530657487 32.6197783,1.36892411 C33.0997335,2.20719074 33.0997335,3.23997782 32.6197783,4.07824445 C32.1398231,4.91651107 31.2528294,5.4329046 30.292919,5.43290459 L12.3063699,5.43290459 C8.55409124,5.48191037 5.53779201,8.56311153 5.53779201,12.3471225 C5.53779201,16.1311335 8.55409124,19.2123346 12.3063699,19.2613404 L19.2810747,19.2613404 Z" id="Path" fill="#1E1A31"></path>
                        <path d="M13.7751526,24.679981 C12.2912598,24.679981 11.088327,23.466977 11.088327,21.9706607 C11.088327,20.4743444 12.2912598,19.2613404 13.7751526,19.2613404 L20.7498574,19.2613404 C27.5037272,19.2613404 32.9797446,24.7832043 32.9797446,31.5947788 C32.9797446,38.4063534 27.5048774,43.9293771 20.7498574,43.9293771 L2.7633083,43.9293771 C1.80339794,43.9293771 0.916404175,43.4129836 0.436448984,42.5747169 C-0.0435062066,41.7364503 -0.0435062066,40.7036632 0.436448984,39.8653966 C0.916404175,39.0271299 1.80339794,38.5107364 2.7633083,38.5107364 L20.7498574,38.5107364 C24.5370872,38.5107364 27.6072436,35.414876 27.6072436,31.5959386 C27.6072436,27.7770013 24.5370872,24.6811408 20.7498574,24.6811408 L13.7751526,24.6811408 L13.7751526,24.679981 Z" id="Path" fill="#1E1A31"></path>
                    </g>
                    <g id="Group" transform="translate(79.000000, 16.000000)">
                        <g id="EXCHANGE">
                            <use fill="#000000" xlink:href="#path-1"></use>
                            <use fill="#1E1A31" xlink:href="#path-1"></use>
                        </g>
                    </g>
                    <path d="M54.5,0 L54.5,44" id="Path" stroke="#575379" stroke-width="5"></path>
                </g>
            </g>
        </g>
    </g>
</svg>