<?xml version="1.0" encoding="UTF-8"?>
<svg width="590px" height="155px" viewBox="0 0 590 155" version="1.1" xmlns="http://www.w3.org/2000/svg" xmlns:xlink="http://www.w3.org/1999/xlink">
    <!-- Generator: Sketch 52.6 (67491) - http://www.bohemiancoding.com/sketch -->
    <title>synthetix_exchange logo</title>
    <desc>Created with Sketch.</desc>
    <defs>
        <path d="M0.0210455182,1.54003125 L29.8937326,1.54003125 L29.8937326,6.46190625 L5.43215784,6.46190625 L5.43215784,18.6572188 L28.0528387,18.6572188 L28.0528387,23.3056563 L5.43215784,23.3056563 L5.43215784,36.9228438 L30.3121176,36.9228438 L30.3121176,41.708 L0.0210455182,41.708 L0.0210455182,1.54003125 Z M41.1064499,41.708 L34.4122903,41.708 L49.0836567,21.1181563 L35.3327372,1.54003125 L42.2779278,1.54003125 L52.7375521,16.9072188 L63.1134995,1.54003125 L69.723982,1.54003125 L55.9730626,21.1181563 L70.393398,41.708 L63.5039921,41.708 L52.4586288,25.192375 L41.1064499,41.708 Z M92.9582942,0.44628125 C98.1462938,0.44628125 102.172047,1.7861116 105.035674,4.4658125 C107.899301,7.1455134 109.489148,10.1897538 109.805262,13.598625 L104.39415,13.598625 C103.780516,11.0100704 102.557914,8.95930965 100.726309,7.44628125 C98.894703,5.93325285 96.3239854,5.17675 93.0140789,5.17675 C88.9789681,5.17675 85.7202466,6.56671006 83.2378167,9.34667188 C80.7553868,12.1266337 79.5141904,16.3876588 79.5141904,22.129875 C79.5141904,26.8330235 80.6345212,30.6474385 82.8752164,33.5732344 C85.1159115,36.4990303 88.4583092,37.9619063 92.9025096,37.9619063 C96.9934053,37.9619063 100.108018,36.4215571 102.246441,33.3408125 C103.380734,31.7184086 104.226793,29.5856174 104.784643,26.942375 L110.195755,26.942375 C109.712286,31.1715628 108.113141,34.7171003 105.398274,37.5790938 C102.144152,41.0244235 97.7558029,42.7470625 92.2330936,42.7470625 C87.4727785,42.7470625 83.4749177,41.3343162 80.239391,38.5087813 C75.9811405,34.7717834 73.8520471,29.0023098 73.8520471,21.2001875 C73.8520471,15.2756787 75.4511915,10.4176544 78.6495281,6.62596875 C82.1081945,2.50615648 86.8777355,0.44628125 92.9582942,0.44628125 Z M117.085161,1.54003125 L122.69152,1.54003125 L122.69152,18.1376875 L144.001261,18.1376875 L144.001261,1.54003125 L149.60762,1.54003125 L149.60762,41.708 L144.001261,41.708 L144.001261,22.9228438 L122.69152,22.9228438 L122.69152,41.708 L117.085161,41.708 L117.085161,1.54003125 Z M179.229276,25.2470625 L173.009286,7.50096875 L166.398803,25.2470625 L179.229276,25.2470625 Z M170.108483,1.54003125 L176.384258,1.54003125 L191.250871,41.708 L185.170342,41.708 L181.014385,29.67675 L164.80894,29.67675 L160.37406,41.708 L154.684024,41.708 L170.108483,1.54003125 Z M196.299383,1.54003125 L202.85408,1.54003125 L223.55019,34.0790938 L223.55019,1.54003125 L228.821841,1.54003125 L228.821841,41.708 L222.601851,41.708 L201.598926,9.19628125 L201.598926,41.708 L196.299383,41.708 L196.299383,1.54003125 Z M255.263771,0.50096875 C259.112932,0.50096875 262.441384,1.23012813 265.249226,2.68846875 C269.321527,4.7848334 271.813217,8.45797375 272.724371,13.708 L267.229582,13.708 C266.560162,10.7730895 265.174857,8.63574107 263.073624,7.29589063 C260.972391,5.95604018 258.322646,5.286125 255.12431,5.286125 C251.330934,5.286125 248.137294,6.6806423 245.543294,9.46971875 C242.949294,12.2587952 241.652314,16.4150036 241.652314,21.9384688 C241.652314,26.7145343 242.721509,30.6018652 244.859932,33.6005781 C246.998355,36.599291 250.484861,38.098625 255.319556,38.098625 C259.019957,38.098625 262.083434,37.0459012 264.510079,34.9404219 C266.936724,32.8349426 268.177921,29.4306798 268.233706,24.7275312 L255.403233,24.7275312 L255.403233,20.2158125 L273.393787,20.2158125 L273.393787,41.708 L269.823569,41.708 L268.484737,36.5400312 C266.606644,38.5634789 264.942418,39.9671107 263.492009,40.7509687 C261.056067,42.0999338 257.960049,42.7744062 254.203863,42.7744062 C249.350573,42.7744062 245.176062,41.2340571 241.680206,38.1533125 C237.868235,34.2887098 235.962278,28.9840754 235.962278,22.23925 C235.962278,15.5126539 237.821748,10.162447 241.540744,6.18846875 C245.073791,2.39678313 249.648087,0.50096875 255.263771,0.50096875 Z M282.514579,1.54003125 L312.387266,1.54003125 L312.387266,6.46190625 L287.925692,6.46190625 L287.925692,18.6572188 L310.546373,18.6572188 L310.546373,23.3056563 L287.925692,23.3056563 L287.925692,36.9228438 L312.805651,36.9228438 L312.805651,41.708 L282.514579,41.708 L282.514579,1.54003125 Z" id="path-1"></path>
    </defs>
    <g id="Page-1" stroke="none" stroke-width="1" fill="none" fill-rule="evenodd">
        <g id="Product-Page-—-Synthetix.Exchange" transform="translate(-425.000000, -208.000000)">
            <g id="synthetix_exchange-logo" transform="translate(425.000000, 208.000000)">
                <g id="Group" transform="translate(0.000000, 0.046875)" fill="#FFFFFF">
                    <path d="M68.9444491,67.8524491 C74.25049,67.8524491 78.551886,72.1255315 78.551886,77.3966457 C78.551886,82.6677599 74.25049,86.9408422 68.9444491,86.9408422 L44.0045955,86.9408422 C19.8543943,86.9408422 0.27348361,67.4929075 0.27348361,43.497588 C0.27348361,19.5022685 19.8502816,0.0502480776 44.0045955,0.0502480776 L108.320135,0.0502480776 C111.752541,0.0502480268 114.924216,1.8693616 116.640419,4.82234631 C118.356623,7.77533102 118.356623,11.4135582 116.640419,14.3665429 C114.924216,17.3195276 111.752541,19.1386412 108.320135,19.1386412 L44.0045955,19.1386412 C30.5873566,19.3112752 19.8018017,30.1655065 19.8018017,43.4955451 C19.8018017,56.8255838 30.5873566,67.6798151 44.0045955,67.8524491 L68.9444491,67.8524491 Z" id="Path"></path>
                    <path d="M49.2566062,86.9408422 C43.9505653,86.9408422 39.6491693,82.6677599 39.6491693,77.3966457 C39.6491693,72.1255315 43.9505653,67.8524491 49.2566062,67.8524491 L74.1964598,67.8524491 C98.3466609,67.8524491 117.927572,87.3044696 117.927572,111.299789 C117.927572,135.295109 98.3507737,154.751215 74.1964598,154.751215 L9.88092059,154.751215 C6.44851385,154.751215 3.27683917,152.932101 1.56063576,149.979117 C-0.155567648,147.026132 -0.155567648,143.387904 1.56063576,140.43492 C3.27683917,137.481935 6.44851385,135.662821 9.88092059,135.662822 L74.1964598,135.662822 C87.7386755,135.662822 98.7168105,124.75695 98.7168105,111.303875 C98.7168105,97.8507999 87.7386755,86.9449279 74.1964598,86.9449279 L49.2566062,86.9449279 L49.2566062,86.9408422 Z" id="Path"></path>
                    <polygon id="Path" fill-opacity="0.5" points="17.473099 150.894313 1.85278832 139.781208 100.090477 3.58029337 115.710787 14.6933989"></polygon>
                </g>
                <g id="Group" transform="translate(277.000000, 54.046875)">
                    <g id="EXCHANGE">
                        <use fill="#000000" xlink:href="#path-1"></use>
                        <use fill="#FFFFFF" xlink:href="#path-1"></use>
                    </g>
                </g>
                <path d="M191,1.046875 L191,154.046875" id="Path" stroke="#575379" stroke-width="5"></path>
            </g>
        </g>
    </g>
</svg>