<svg width="521" height="160" viewBox="0 0 521 160" fill="none" xmlns="http://www.w3.org/2000/svg">
<rect x="0.5" y="0.5" width="520" height="159" rx="1.5" fill="white" stroke="#D1D1E8"/>
<path d="M75.3807 73.6836C73.2747 73.8662 71.6581 75.6291 71.6581 77.743C71.6581 79.8569 73.2747 81.6198 75.3807 81.8025C76.414 81.7597 77.3879 81.3078 78.0876 80.5463C78.7874 79.7848 79.1555 78.7762 79.111 77.743C79.1613 76.7083 78.7952 75.6965 78.0942 74.9337C77.3933 74.1709 76.416 73.7207 75.3807 73.6836ZM88.7292 73.6836C87.0557 73.5416 85.4665 74.4411 84.7268 75.9489C83.987 77.4567 84.2482 79.264 85.3846 80.5007C86.521 81.7374 88.2998 82.1501 89.8646 81.5401C91.4295 80.9302 92.4598 79.4226 92.4595 77.743C92.5041 76.7098 92.1359 75.7013 91.4362 74.9398C90.7364 74.1783 89.7625 73.7263 88.7292 73.6836Z" fill="#5641F2"/>
<path d="M106.503 43H57.4972C55.5039 43.0048 53.5943 43.8013 52.1883 45.2141C50.7823 46.627 49.9952 48.5405 50 50.5337V99.9904C49.9952 101.984 50.7823 103.897 52.1883 105.31C53.5943 106.723 55.5039 107.519 57.4972 107.524H98.9691L97.0308 100.758L101.712 105.11L106.137 109.194L114 116.143L114 50.5337C114.005 48.5405 113.218 46.627 111.812 45.2141C110.406 43.8013 108.496 43.0048 106.503 43ZM92.3863 90.7623C92.3863 90.7623 91.0697 89.1897 89.9726 87.8C92.6234 87.1757 94.9681 85.6342 96.592 83.448C95.2761 84.3237 93.8652 85.0476 92.3863 85.6057C90.6849 86.3318 88.9056 86.8595 87.0834 87.1783C83.9513 87.7549 80.739 87.7425 77.6114 87.1417C75.7794 86.7817 73.984 86.2553 72.2476 85.5691C70.7812 85.009 69.3826 84.2852 68.0785 83.4114C69.6435 85.5519 71.9073 87.0784 74.4785 87.7268C73.3813 89.1165 72.0404 90.7744 72.0404 90.7744C67.6289 90.893 63.4476 88.8092 60.8861 85.2156C61.003 77.7974 62.8038 70.5027 66.1524 63.8823C69.0977 61.5691 72.6885 60.2273 76.429 60.0423L76.7947 60.4811C73.2671 61.3491 69.9746 62.985 67.152 65.272C67.152 65.272 67.9566 64.8331 69.3097 64.2114C71.9378 63.0073 74.7395 62.2256 77.6114 61.8952C77.8122 61.8535 78.0161 61.8291 78.221 61.8221C80.6717 61.5028 83.1518 61.4782 85.6084 61.7489C89.4766 62.1924 93.2205 63.3893 96.6286 65.272C93.9562 63.0966 90.8523 61.5135 87.5223 60.6274L88.0343 60.0423C91.7748 60.2273 95.3656 61.5691 98.3108 63.8823C101.659 70.5027 103.46 77.7974 103.577 85.2156C100.993 88.8007 96.8041 90.877 92.3863 90.7623Z" fill="#5641F2"/>
<path d="M179.569 70.336V59.04H171.377V62.496H175.537C175.249 64.8 173.553 66.752 170.513 66.752C166.769 66.752 164.177 64.256 164.177 59.136C164.177 54.144 166.801 51.52 170.609 51.52C173.137 51.52 174.961 52.928 176.113 55.744L179.921 54.752C178.737 50.496 175.441 47.68 170.609 47.68C167.633 47.68 165.137 48.672 163.057 50.688C160.977 52.704 159.953 55.52 159.953 59.136C159.953 62.752 160.945 65.568 162.961 67.584C164.977 69.6 167.409 70.592 170.289 70.592C172.753 70.592 174.545 69.696 175.729 67.936L176.081 70.336H179.569Z" fill="#5641F2"/>
<path d="M185.001 68.256C186.473 69.824 188.457 70.592 190.985 70.592C193.513 70.592 195.497 69.824 196.969 68.256C198.441 66.688 199.177 64.672 199.177 62.272C199.177 59.872 198.441 57.888 196.969 56.32C195.497 54.752 193.513 53.952 190.985 53.952C188.457 53.952 186.473 54.752 185.001 56.32C183.529 57.888 182.793 59.872 182.793 62.272C182.793 64.672 183.529 66.688 185.001 68.256ZM188.041 58.784C188.777 57.824 189.737 57.344 190.985 57.344C192.233 57.344 193.193 57.824 193.929 58.784C194.665 59.712 195.017 60.896 195.017 62.272C195.017 63.648 194.665 64.832 193.929 65.792C193.193 66.72 192.233 67.2 190.985 67.2C189.737 67.2 188.777 66.72 188.041 65.792C187.305 64.832 186.953 63.648 186.953 62.272C186.953 60.896 187.305 59.712 188.041 58.784Z" fill="#5641F2"/>
<path d="M210.793 66.816C210.313 67.072 209.801 67.2 209.257 67.2C207.849 67.2 207.145 66.496 207.145 64.576V57.6H211.401V54.208H207.145V47.68L203.177 50.176V54.208H200.681V57.6H203.177V64.64C203.177 68.576 205.385 70.592 209.097 70.592C210.025 70.592 210.889 70.4 211.721 70.016L210.793 66.816Z" fill="#5641F2"/>
<path d="M235.541 64.064C235.541 59.712 236.981 57.344 239.029 57.344C240.341 57.344 241.013 58.08 241.013 59.584V70.336H244.981V58.912C244.981 55.808 243.157 53.952 240.181 53.952C238.133 53.952 236.501 55.072 235.253 57.28C234.581 55.072 232.821 53.952 230.741 53.952C228.917 53.952 227.349 54.912 226.101 56.8V54.208H222.133V70.336H226.101V64.416C226.101 59.808 227.541 57.344 229.589 57.344C230.901 57.344 231.573 58.08 231.573 59.584V70.336H235.541V64.064Z" fill="#5641F2"/>
<path d="M250.282 68.256C251.754 69.824 253.738 70.592 256.266 70.592C258.794 70.592 260.778 69.824 262.25 68.256C263.722 66.688 264.458 64.672 264.458 62.272C264.458 59.872 263.722 57.888 262.25 56.32C260.778 54.752 258.794 53.952 256.266 53.952C253.738 53.952 251.754 54.752 250.282 56.32C248.81 57.888 248.074 59.872 248.074 62.272C248.074 64.672 248.81 66.688 250.282 68.256ZM253.322 58.784C254.058 57.824 255.018 57.344 256.266 57.344C257.514 57.344 258.474 57.824 259.21 58.784C259.946 59.712 260.298 60.896 260.298 62.272C260.298 63.648 259.946 64.832 259.21 65.792C258.474 66.72 257.514 67.2 256.266 67.2C255.018 67.2 254.058 66.72 253.322 65.792C252.586 64.832 252.234 63.648 252.234 62.272C252.234 60.896 252.586 59.712 253.322 58.784Z" fill="#5641F2"/>
<path d="M271.414 64.608C271.414 59.712 273.206 57.504 275.734 57.504C276.342 57.504 276.918 57.664 277.398 57.952L278.134 54.272C277.43 54.048 276.79 53.952 276.182 53.952C274.294 53.952 272.566 55.008 271.414 56.832V54.208H267.446V70.336H271.414V64.608Z" fill="#5641F2"/>
<path d="M294.588 61.92C294.588 60.096 294.012 58.208 292.86 56.64C291.708 55.008 289.628 53.952 287.068 53.952C281.532 53.952 279.324 58.432 279.324 62.272C279.324 66.112 281.532 70.592 287.068 70.592C290.588 70.592 293.02 69.024 294.396 65.888L291.196 64.704C290.236 66.368 288.924 67.2 287.292 67.2C284.988 67.2 283.58 65.504 283.484 63.552H294.588V61.92ZM287.068 57.344C288.924 57.344 290.076 58.368 290.524 60.416H283.58C283.868 58.72 285.18 57.344 287.068 57.344Z" fill="#5641F2"/>
<path d="M311.403 53.952C306.667 53.952 304.043 57.184 304.043 62.272C304.043 67.36 306.667 70.592 311.403 70.592C312.971 70.592 314.571 69.792 315.307 68.864V76.864H319.275V54.208H315.307V55.872C314.795 54.944 313.227 53.952 311.403 53.952ZM309.259 58.656C309.963 57.792 310.859 57.344 311.947 57.344C313.035 57.344 313.931 57.792 314.603 58.656C315.307 59.52 315.659 60.704 315.659 62.272C315.659 63.84 315.307 65.056 314.603 65.92C313.931 66.784 313.035 67.2 311.947 67.2C310.859 67.2 309.963 66.752 309.259 65.888C308.555 65.024 308.203 63.808 308.203 62.272C308.203 60.736 308.555 59.52 309.259 58.656Z" fill="#5641F2"/>
<path d="M336.922 54.208H332.954V60.64C332.954 64.704 331.322 67.2 329.274 67.2C327.738 67.2 326.97 66.304 326.97 64.544V54.208H323.002V65.728C323.002 68.896 324.986 70.592 327.962 70.592C329.978 70.592 331.642 69.632 332.954 67.744V70.336H336.922V54.208Z" fill="#5641F2"/>
<path d="M355.37 61.92C355.37 60.096 354.794 58.208 353.642 56.64C352.49 55.008 350.41 53.952 347.85 53.952C342.314 53.952 340.106 58.432 340.106 62.272C340.106 66.112 342.314 70.592 347.85 70.592C351.37 70.592 353.802 69.024 355.178 65.888L351.978 64.704C351.018 66.368 349.706 67.2 348.074 67.2C345.77 67.2 344.362 65.504 344.266 63.552H355.37V61.92ZM347.85 57.344C349.706 57.344 350.858 58.368 351.306 60.416H344.362C344.65 58.72 345.962 57.344 347.85 57.344Z" fill="#5641F2"/>
<path d="M363.403 53.952C361.899 53.952 360.651 54.4 359.691 55.328C358.731 56.256 358.251 57.344 358.251 58.656C358.251 60.96 359.467 62.144 361.515 63.008C362.123 63.264 363.243 63.616 363.787 63.872C364.075 63.968 364.395 64.096 364.683 64.256C365.291 64.544 365.547 64.96 365.547 65.472C365.547 66.624 364.875 67.2 363.563 67.2C362.059 67.2 360.971 66.304 360.331 64.544L357.163 66.24C357.643 67.392 358.443 68.416 359.563 69.28C360.683 70.144 362.027 70.592 363.563 70.592C365.259 70.592 366.635 70.08 367.691 69.024C368.747 67.968 369.291 66.72 369.291 65.216C369.291 64.096 368.779 63.136 368.299 62.592C368.075 62.304 367.691 62.048 367.147 61.76C366.635 61.472 366.251 61.248 365.995 61.152L364.619 60.672L363.467 60.256C362.443 59.872 361.931 59.36 361.931 58.688C361.931 57.824 362.603 57.344 363.403 57.344C364.459 57.344 365.355 57.824 366.091 58.752L368.459 56.576C367.435 55.008 365.547 53.952 363.403 53.952Z" fill="#5641F2"/>
<path d="M380.574 66.816C380.094 67.072 379.582 67.2 379.038 67.2C377.63 67.2 376.926 66.496 376.926 64.576V57.6H381.182V54.208H376.926V47.68L372.958 50.176V54.208H370.462V57.6H372.958V64.64C372.958 68.576 375.166 70.592 378.878 70.592C379.806 70.592 380.67 70.4 381.502 70.016L380.574 66.816Z" fill="#5641F2"/>
<path d="M384.253 51.392C385.245 52.384 386.909 52.384 387.901 51.392C388.893 50.4 388.893 48.736 387.901 47.744C386.909 46.752 385.245 46.752 384.253 47.744C383.261 48.736 383.261 50.4 384.253 51.392ZM384.093 70.336H388.061V54.208H384.093V70.336Z" fill="#5641F2"/>
<path d="M393.595 68.256C395.067 69.824 397.051 70.592 399.579 70.592C402.107 70.592 404.091 69.824 405.563 68.256C407.035 66.688 407.771 64.672 407.771 62.272C407.771 59.872 407.035 57.888 405.563 56.32C404.091 54.752 402.107 53.952 399.579 53.952C397.051 53.952 395.067 54.752 393.595 56.32C392.123 57.888 391.387 59.872 391.387 62.272C391.387 64.672 392.123 66.688 393.595 68.256ZM396.635 58.784C397.371 57.824 398.331 57.344 399.579 57.344C400.827 57.344 401.787 57.824 402.523 58.784C403.259 59.712 403.611 60.896 403.611 62.272C403.611 63.648 403.259 64.832 402.523 65.792C401.787 66.72 400.827 67.2 399.579 67.2C398.331 67.2 397.371 66.72 396.635 65.792C395.899 64.832 395.547 63.648 395.547 62.272C395.547 60.896 395.899 59.712 396.635 58.784Z" fill="#5641F2"/>
<path d="M410.852 70.336H414.82V63.904C414.82 59.84 416.452 57.344 418.5 57.344C420.036 57.344 420.804 58.24 420.804 60V70.336H424.772V58.816C424.772 55.648 422.788 53.952 419.812 53.952C417.796 53.952 416.132 54.912 414.82 56.8V54.208H410.852V70.336Z" fill="#5641F2"/>
<path d="M433.684 53.952C432.18 53.952 430.932 54.4 429.972 55.328C429.012 56.256 428.532 57.344 428.532 58.656C428.532 60.96 429.748 62.144 431.796 63.008C432.404 63.264 433.524 63.616 434.068 63.872C434.356 63.968 434.676 64.096 434.964 64.256C435.572 64.544 435.828 64.96 435.828 65.472C435.828 66.624 435.156 67.2 433.844 67.2C432.34 67.2 431.252 66.304 430.612 64.544L427.444 66.24C427.924 67.392 428.724 68.416 429.844 69.28C430.964 70.144 432.308 70.592 433.844 70.592C435.54 70.592 436.916 70.08 437.972 69.024C439.028 67.968 439.572 66.72 439.572 65.216C439.572 64.096 439.06 63.136 438.58 62.592C438.356 62.304 437.972 62.048 437.428 61.76C436.916 61.472 436.532 61.248 436.276 61.152L434.9 60.672L433.748 60.256C432.724 59.872 432.212 59.36 432.212 58.688C432.212 57.824 432.884 57.344 433.684 57.344C434.74 57.344 435.636 57.824 436.372 58.752L438.74 56.576C437.716 55.008 435.828 53.952 433.684 53.952Z" fill="#5641F2"/>
<path d="M449.602 59.168C449.25 60.16 448.642 60.64 447.778 60.64C447.138 60.64 446.626 60.192 446.626 59.52C446.626 58.656 447.202 58.272 449.346 57.408C450.914 56.8 452.034 56.192 452.706 55.52C453.41 54.848 453.762 53.92 453.762 52.736C453.762 49.664 451.426 47.68 447.842 47.68C444.514 47.68 442.242 49.76 441.73 52.576L445.218 53.152C445.634 51.712 446.562 51.008 447.938 51.008C449.186 51.008 450.018 51.552 450.018 52.608C450.018 53.664 449.282 54.336 446.818 55.264C444.514 56.128 443.362 57.536 443.362 59.424C443.362 61.856 445.186 63.52 447.778 63.52C450.05 63.52 451.682 62.272 452.418 60.224L449.602 59.168ZM445.122 67.904C445.122 69.344 446.274 70.528 447.778 70.528C449.282 70.528 450.434 69.344 450.434 67.904C450.434 66.4 449.218 65.216 447.778 65.216C446.338 65.216 445.122 66.4 445.122 67.904Z" fill="#5641F2"/>
<path d="M164.872 91.464C163.816 87.144 160.456 84.68 155.592 84.68C152.616 84.68 150.12 85.704 148.072 87.72C146.024 89.736 145 92.552 145 96.136C145 99.72 146.024 102.536 148.072 104.552C150.12 106.568 152.616 107.592 155.592 107.592C160.456 107.592 163.816 105.128 164.872 100.808L161.128 99.848C160.136 102.44 158.312 103.752 155.592 103.752C153.768 103.752 152.232 103.112 151.016 101.8C149.832 100.488 149.224 98.6 149.224 96.136C149.224 93.672 149.832 91.784 151.016 90.472C152.232 89.16 153.768 88.52 155.592 88.52C158.312 88.52 160.136 89.832 161.128 92.424L164.872 91.464Z" fill="#5641F2"/>
<path d="M168.892 105.256C170.364 106.824 172.348 107.592 174.876 107.592C177.404 107.592 179.388 106.824 180.86 105.256C182.332 103.688 183.068 101.672 183.068 99.272C183.068 96.872 182.332 94.888 180.86 93.32C179.388 91.752 177.404 90.952 174.876 90.952C172.348 90.952 170.364 91.752 168.892 93.32C167.42 94.888 166.684 96.872 166.684 99.272C166.684 101.672 167.42 103.688 168.892 105.256ZM171.932 95.784C172.668 94.824 173.628 94.344 174.876 94.344C176.124 94.344 177.084 94.824 177.82 95.784C178.556 96.712 178.908 97.896 178.908 99.272C178.908 100.648 178.556 101.832 177.82 102.792C177.084 103.72 176.124 104.2 174.876 104.2C173.628 104.2 172.668 103.72 171.932 102.792C171.196 101.832 170.844 100.648 170.844 99.272C170.844 97.896 171.196 96.712 171.932 95.784Z" fill="#5641F2"/>
<path d="M199.276 101.064C199.276 96.712 200.716 94.344 202.764 94.344C204.076 94.344 204.748 95.08 204.748 96.584V107.336H208.716V95.912C208.716 92.808 206.892 90.952 203.916 90.952C201.868 90.952 200.236 92.072 198.988 94.28C198.316 92.072 196.556 90.952 194.476 90.952C192.652 90.952 191.084 91.912 189.836 93.8V91.208H185.868V107.336H189.836V101.416C189.836 96.808 191.276 94.344 193.324 94.344C194.636 94.344 195.308 95.08 195.308 96.584V107.336H199.276V101.064Z" fill="#5641F2"/>
<path d="M226.573 98.92C226.573 97.096 225.997 95.208 224.845 93.64C223.693 92.008 221.613 90.952 219.053 90.952C213.517 90.952 211.309 95.432 211.309 99.272C211.309 103.112 213.517 107.592 219.053 107.592C222.573 107.592 225.005 106.024 226.381 102.888L223.181 101.704C222.221 103.368 220.909 104.2 219.277 104.2C216.973 104.2 215.565 102.504 215.469 100.552H226.573V98.92ZM219.053 94.344C220.909 94.344 222.061 95.368 222.509 97.416H215.565C215.853 95.72 217.165 94.344 219.053 94.344Z" fill="#5641F2"/>
<path d="M238.835 96.2C239.251 94.952 240.179 94.344 241.619 94.344C243.507 94.344 244.435 95.144 244.435 96.712V97.416H241.747C237.651 97.416 234.868 99.496 234.868 102.696C234.868 105.8 236.915 107.592 239.763 107.592C241.811 107.592 243.475 106.824 244.723 105.288L245.139 107.336H248.403V97.704C248.403 93.192 246.132 90.952 241.619 90.952C238.387 90.952 235.987 92.744 235.475 95.432L238.835 96.2ZM239.027 102.632C239.027 101.256 239.955 100.552 241.779 100.552H244.435V100.872C244.435 101.864 244.051 102.664 243.284 103.272C242.548 103.88 241.683 104.2 240.691 104.2C239.635 104.2 239.027 103.496 239.027 102.632Z" fill="#5641F2"/>
<path d="M256.481 90.952C254.977 90.952 253.729 91.4 252.769 92.328C251.809 93.256 251.329 94.344 251.329 95.656C251.329 97.96 252.545 99.144 254.593 100.008C255.201 100.264 256.321 100.616 256.865 100.872C257.153 100.968 257.473 101.096 257.761 101.256C258.369 101.544 258.625 101.96 258.625 102.472C258.625 103.624 257.953 104.2 256.641 104.2C255.137 104.2 254.049 103.304 253.409 101.544L250.241 103.24C250.721 104.392 251.521 105.416 252.641 106.28C253.761 107.144 255.105 107.592 256.641 107.592C258.337 107.592 259.713 107.08 260.769 106.024C261.825 104.968 262.369 103.72 262.369 102.216C262.369 101.096 261.857 100.136 261.377 99.592C261.153 99.304 260.769 99.048 260.225 98.76C259.713 98.472 259.329 98.248 259.073 98.152L257.697 97.672L256.545 97.256C255.521 96.872 255.009 96.36 255.009 95.688C255.009 94.824 255.681 94.344 256.481 94.344C257.537 94.344 258.433 94.824 259.169 95.752L261.537 93.576C260.513 92.008 258.625 90.952 256.481 90.952Z" fill="#5641F2"/>
<path d="M264.524 107.336H268.492V99.72L274.188 107.336H279.052L272.172 98.632L278.636 91.208H273.74L268.492 97.544V84.68H264.524V107.336Z" fill="#5641F2"/>
<path d="M301.313 91.208H297.345V97.64C297.345 101.704 295.713 104.2 293.665 104.2C292.129 104.2 291.361 103.304 291.361 101.544V91.208H287.393V102.728C287.393 105.896 289.377 107.592 292.353 107.592C294.369 107.592 296.033 106.632 297.345 104.744V107.336H301.313V91.208Z" fill="#5641F2"/>
<path d="M309.481 90.952C307.977 90.952 306.729 91.4 305.769 92.328C304.809 93.256 304.329 94.344 304.329 95.656C304.329 97.96 305.545 99.144 307.593 100.008C308.201 100.264 309.321 100.616 309.865 100.872C310.153 100.968 310.473 101.096 310.761 101.256C311.369 101.544 311.625 101.96 311.625 102.472C311.625 103.624 310.953 104.2 309.641 104.2C308.137 104.2 307.049 103.304 306.409 101.544L303.241 103.24C303.721 104.392 304.521 105.416 305.641 106.28C306.761 107.144 308.105 107.592 309.641 107.592C311.337 107.592 312.713 107.08 313.769 106.024C314.825 104.968 315.369 103.72 315.369 102.216C315.369 101.096 314.857 100.136 314.377 99.592C314.153 99.304 313.769 99.048 313.225 98.76C312.713 98.472 312.329 98.248 312.073 98.152L310.697 97.672L309.545 97.256C308.521 96.872 308.009 96.36 308.009 95.688C308.009 94.824 308.681 94.344 309.481 94.344C310.537 94.344 311.433 94.824 312.169 95.752L314.537 93.576C313.513 92.008 311.625 90.952 309.481 90.952Z" fill="#5641F2"/>
<path d="M324.956 88.392C325.948 89.384 327.612 89.384 328.604 88.392C329.596 87.4 329.596 85.736 328.604 84.744C327.612 83.752 325.948 83.752 324.956 84.744C323.964 85.736 323.964 87.4 324.956 88.392ZM324.796 107.336H328.764V91.208H324.796V107.336Z" fill="#5641F2"/>
<path d="M331.774 107.336H335.742V100.904C335.742 96.84 337.374 94.344 339.422 94.344C340.958 94.344 341.726 95.24 341.726 97V107.336H345.694V95.816C345.694 92.648 343.71 90.952 340.734 90.952C338.718 90.952 337.054 91.912 335.742 93.8V91.208H331.774V107.336Z" fill="#5641F2"/>
<path d="M363.821 107.336C369.101 107.336 374.253 103.944 374.253 96.136C374.253 88.328 369.101 84.936 363.821 84.936H356.813V107.336H363.821ZM360.973 88.776H362.509C364.461 88.776 366.061 89.192 367.565 90.216C369.101 91.24 370.029 93.288 370.029 96.136C370.029 98.984 369.101 101.032 367.565 102.056C366.061 103.08 364.461 103.496 362.509 103.496H360.973V88.776Z" fill="#5641F2"/>
<path d="M376.894 88.392C377.886 89.384 379.55 89.384 380.542 88.392C381.534 87.4 381.534 85.736 380.542 84.744C379.55 83.752 377.886 83.752 376.894 84.744C375.902 85.736 375.902 87.4 376.894 88.392ZM376.734 107.336H380.702V91.208H376.734V107.336Z" fill="#5641F2"/>
<path d="M389.2 90.952C387.696 90.952 386.448 91.4 385.488 92.328C384.528 93.256 384.048 94.344 384.048 95.656C384.048 97.96 385.264 99.144 387.312 100.008C387.92 100.264 389.04 100.616 389.584 100.872C389.872 100.968 390.192 101.096 390.48 101.256C391.088 101.544 391.344 101.96 391.344 102.472C391.344 103.624 390.672 104.2 389.36 104.2C387.856 104.2 386.768 103.304 386.128 101.544L382.96 103.24C383.44 104.392 384.24 105.416 385.36 106.28C386.48 107.144 387.824 107.592 389.36 107.592C391.056 107.592 392.432 107.08 393.488 106.024C394.544 104.968 395.088 103.72 395.088 102.216C395.088 101.096 394.576 100.136 394.096 99.592C393.872 99.304 393.488 99.048 392.944 98.76C392.432 98.472 392.048 98.248 391.792 98.152L390.416 97.672L389.264 97.256C388.24 96.872 387.728 96.36 387.728 95.688C387.728 94.824 388.4 94.344 389.2 94.344C390.256 94.344 391.152 94.824 391.888 95.752L394.256 93.576C393.232 92.008 391.344 90.952 389.2 90.952Z" fill="#5641F2"/>
<path d="M408.269 101.544C407.405 103.304 406.125 104.2 404.493 104.2C402.061 104.2 400.781 102.216 400.781 99.272C400.781 96.328 402.061 94.344 404.493 94.344C406.125 94.344 407.405 95.24 408.269 97L411.821 95.56C410.573 92.488 408.141 90.952 404.493 90.952C401.965 90.952 400.045 91.752 398.669 93.32C397.293 94.888 396.621 96.872 396.621 99.272C396.621 101.672 397.293 103.656 398.669 105.224C400.045 106.792 401.965 107.592 404.493 107.592C408.141 107.592 410.573 106.056 411.821 102.984L408.269 101.544Z" fill="#5641F2"/>
<path d="M415.704 105.256C417.176 106.824 419.16 107.592 421.688 107.592C424.216 107.592 426.2 106.824 427.672 105.256C429.144 103.688 429.88 101.672 429.88 99.272C429.88 96.872 429.144 94.888 427.672 93.32C426.2 91.752 424.216 90.952 421.688 90.952C419.16 90.952 417.176 91.752 415.704 93.32C414.232 94.888 413.496 96.872 413.496 99.272C413.496 101.672 414.232 103.688 415.704 105.256ZM418.744 95.784C419.48 94.824 420.44 94.344 421.688 94.344C422.936 94.344 423.896 94.824 424.632 95.784C425.368 96.712 425.72 97.896 425.72 99.272C425.72 100.648 425.368 101.832 424.632 102.792C423.896 103.72 422.936 104.2 421.688 104.2C420.44 104.2 419.48 103.72 418.744 102.792C418.008 101.832 417.656 100.648 417.656 99.272C417.656 97.896 418.008 96.712 418.744 95.784Z" fill="#5641F2"/>
<path d="M436.336 101.608C436.336 96.712 438.128 94.504 440.656 94.504C441.264 94.504 441.84 94.664 442.32 94.952L443.056 91.272C442.352 91.048 441.712 90.952 441.104 90.952C439.216 90.952 437.488 92.008 436.336 93.832V91.208H432.368V107.336H436.336V101.608Z" fill="#5641F2"/>
<path d="M451.106 90.952C446.37 90.952 443.746 94.184 443.746 99.272C443.746 104.36 446.37 107.592 451.106 107.592C452.93 107.592 454.498 106.6 455.01 105.672V107.336H458.978V84.68H455.01V92.68C454.274 91.752 452.674 90.952 451.106 90.952ZM448.962 95.656C449.666 94.792 450.562 94.344 451.65 94.344C452.738 94.344 453.634 94.792 454.306 95.656C455.01 96.52 455.362 97.704 455.362 99.272C455.362 100.84 455.01 102.056 454.306 102.92C453.634 103.784 452.738 104.2 451.65 104.2C450.562 104.2 449.666 103.752 448.962 102.888C448.258 102.024 447.906 100.808 447.906 99.272C447.906 97.736 448.258 96.52 448.962 95.656Z" fill="#5641F2"/>
<path d="M464.654 99.592H468.111L469.007 84.936H463.758L464.654 99.592ZM463.727 104.904C463.727 106.344 464.878 107.528 466.382 107.528C467.886 107.528 469.038 106.344 469.038 104.904C469.038 103.4 467.822 102.216 466.382 102.216C464.942 102.216 463.727 103.4 463.727 104.904Z" fill="#5641F2"/>
</svg>
