<svg width="521" height="160" fill="none" xmlns="http://www.w3.org/2000/svg"><rect x=".5" y=".5" width="520" height="159" rx="1.5" fill="#fff" stroke="#D1D1E8"/><path d="M75.38 73.684a4.075 4.075 0 000 8.118 3.895 3.895 0 003.731-4.059 3.874 3.874 0 00-3.73-4.06zm13.35 0a4.074 4.074 0 103.73 4.059 3.895 3.895 0 00-3.73-4.06z" fill="#5641F2"/><path d="M106.503 43H57.497A7.515 7.515 0 0050 50.534V99.99a7.515 7.515 0 007.497 7.534H98.97l-1.938-6.766 4.681 4.352 4.425 4.084 7.863 6.949v-65.61A7.515 7.515 0 00106.503 43zM92.386 90.762S91.07 89.19 89.973 87.8a11.542 11.542 0 006.619-4.352 20.93 20.93 0 01-4.206 2.158 24.084 24.084 0 01-5.303 1.572 25.621 25.621 0 01-9.472-.036 30.702 30.702 0 01-5.363-1.573 20.864 20.864 0 01-4.17-2.158 11.373 11.373 0 006.4 4.316 394.639 394.639 0 01-2.438 3.047 13.26 13.26 0 01-11.154-5.558 48.975 48.975 0 015.266-21.334 18.084 18.084 0 0110.277-3.84l.366.44a24.687 24.687 0 00-9.643 4.79s.805-.439 2.158-1.06a27.468 27.468 0 018.301-2.317c.201-.042.405-.066.61-.073 2.45-.32 4.93-.344 7.387-.073a29.814 29.814 0 0111.02 3.523 24.338 24.338 0 00-9.106-4.645l.512-.585a18.084 18.084 0 0110.277 3.84 48.982 48.982 0 015.266 21.334 13.367 13.367 0 01-11.19 5.546zM179.569 70.336V59.04h-8.192v3.456h4.16c-.288 2.304-1.984 4.256-5.024 4.256-3.744 0-6.336-2.496-6.336-7.616 0-4.992 2.624-7.616 6.432-7.616 2.528 0 4.352 1.408 5.504 4.224l3.808-.992c-1.184-4.256-4.48-7.072-9.312-7.072-2.976 0-5.472.992-7.552 3.008-2.08 2.016-3.104 4.832-3.104 8.448 0 3.616.992 6.432 3.008 8.448s4.448 3.008 7.328 3.008c2.464 0 4.256-.896 5.44-2.656l.352 2.4h3.488zM185.001 68.256c1.472 1.568 3.456 2.336 5.984 2.336s4.512-.768 5.984-2.336c1.472-1.568 2.208-3.584 2.208-5.984s-.736-4.384-2.208-5.952c-1.472-1.568-3.456-2.368-5.984-2.368s-4.512.8-5.984 2.368c-1.472 1.568-2.208 3.552-2.208 5.952s.736 4.416 2.208 5.984zm3.04-9.472c.736-.96 1.696-1.44 2.944-1.44s2.208.48 2.944 1.44c.736.928 1.088 2.112 1.088 3.488s-.352 2.56-1.088 3.52c-.736.928-1.696 1.408-2.944 1.408s-2.208-.48-2.944-1.408c-.736-.96-1.088-2.144-1.088-3.52s.352-2.56 1.088-3.488zM210.793 66.816c-.48.256-.992.384-1.536.384-1.408 0-2.112-.704-2.112-2.624V57.6h4.256v-3.392h-4.256V47.68l-3.968 2.496v4.032h-2.496V57.6h2.496v7.04c0 3.936 2.208 5.952 5.92 5.952.928 0 1.792-.192 2.624-.576l-.928-3.2zM235.541 64.064c0-4.352 1.44-6.72 3.488-6.72 1.312 0 1.984.736 1.984 2.24v10.752h3.968V58.912c0-3.104-1.824-4.96-4.8-4.96-2.048 0-3.68 1.12-4.928 3.328-.672-2.208-2.432-3.328-4.512-3.328-1.824 0-3.392.96-4.64 2.848v-2.592h-3.968v16.128h3.968v-5.92c0-4.608 1.44-7.072 3.488-7.072 1.312 0 1.984.736 1.984 2.24v10.752h3.968v-6.272zM250.282 68.256c1.472 1.568 3.456 2.336 5.984 2.336s4.512-.768 5.984-2.336c1.472-1.568 2.208-3.584 2.208-5.984s-.736-4.384-2.208-5.952c-1.472-1.568-3.456-2.368-5.984-2.368s-4.512.8-5.984 2.368c-1.472 1.568-2.208 3.552-2.208 5.952s.736 4.416 2.208 5.984zm3.04-9.472c.736-.96 1.696-1.44 2.944-1.44s2.208.48 2.944 1.44c.736.928 1.088 2.112 1.088 3.488s-.352 2.56-1.088 3.52c-.736.928-1.696 1.408-2.944 1.408s-2.208-.48-2.944-1.408c-.736-.96-1.088-2.144-1.088-3.52s.352-2.56 1.088-3.488zM271.414 64.608c0-4.896 1.792-7.104 4.32-7.104.608 0 1.184.16 1.664.448l.736-3.68a6.37 6.37 0 00-1.952-.32c-1.888 0-3.616 1.056-4.768 2.88v-2.624h-3.968v16.128h3.968v-5.728zM294.588 61.92a8.978 8.978 0 00-1.728-5.28c-1.152-1.632-3.232-2.688-5.792-2.688-5.536 0-7.744 4.48-7.744 8.32s2.208 8.32 7.744 8.32c3.52 0 5.952-1.568 7.328-4.704l-3.2-1.184c-.96 1.664-2.272 2.496-3.904 2.496-2.304 0-3.712-1.696-3.808-3.648h11.104V61.92zm-7.52-4.576c1.856 0 3.008 1.024 3.456 3.072h-6.944c.288-1.696 1.6-3.072 3.488-3.072zM311.403 53.952c-4.736 0-7.36 3.232-7.36 8.32s2.624 8.32 7.36 8.32c1.568 0 3.168-.8 3.904-1.728v8h3.968V54.208h-3.968v1.664c-.512-.928-2.08-1.92-3.904-1.92zm-2.144 4.704c.704-.864 1.6-1.312 2.688-1.312s1.984.448 2.656 1.312c.704.864 1.056 2.048 1.056 3.616s-.352 2.784-1.056 3.648c-.672.864-1.568 1.28-2.656 1.28s-1.984-.448-2.688-1.312c-.704-.864-1.056-2.08-1.056-3.616s.352-2.752 1.056-3.616zM336.922 54.208h-3.968v6.432c0 4.064-1.632 6.56-3.68 6.56-1.536 0-2.304-.896-2.304-2.656V54.208h-3.968v11.52c0 3.168 1.984 4.864 4.96 4.864 2.016 0 3.68-.96 4.992-2.848v2.592h3.968V54.208zM355.37 61.92a8.978 8.978 0 00-1.728-5.28c-1.152-1.632-3.232-2.688-5.792-2.688-5.536 0-7.744 4.48-7.744 8.32s2.208 8.32 7.744 8.32c3.52 0 5.952-1.568 7.328-4.704l-3.2-1.184c-.96 1.664-2.272 2.496-3.904 2.496-2.304 0-3.712-1.696-3.808-3.648h11.104V61.92zm-7.52-4.576c1.856 0 3.008 1.024 3.456 3.072h-6.944c.288-1.696 1.6-3.072 3.488-3.072zM363.403 53.952c-1.504 0-2.752.448-3.712 1.376-.96.928-1.44 2.016-1.44 3.328 0 2.304 1.216 3.488 3.264 4.352.608.256 1.728.608 2.272.864.288.096.608.224.896.384.608.288.864.704.864 1.216 0 1.152-.672 1.728-1.984 1.728-1.504 0-2.592-.896-3.232-2.656l-3.168 1.696c.48 1.152 1.28 2.176 2.4 3.04 1.12.864 2.464 1.312 4 1.312 1.696 0 3.072-.512 4.128-1.568s1.6-2.304 1.6-3.808c0-1.12-.512-2.08-.992-2.624-.224-.288-.608-.544-1.152-.832-.512-.288-.896-.512-1.152-.608l-1.376-.48-1.152-.416c-1.024-.384-1.536-.896-1.536-1.568 0-.864.672-1.344 1.472-1.344 1.056 0 1.952.48 2.688 1.408l2.368-2.176c-1.024-1.568-2.912-2.624-5.056-2.624zM380.574 66.816c-.48.256-.992.384-1.536.384-1.408 0-2.112-.704-2.112-2.624V57.6h4.256v-3.392h-4.256V47.68l-3.968 2.496v4.032h-2.496V57.6h2.496v7.04c0 3.936 2.208 5.952 5.92 5.952.928 0 1.792-.192 2.624-.576l-.928-3.2zM384.253 51.392c.992.992 2.656.992 3.648 0s.992-2.656 0-3.648-2.656-.992-3.648 0-.992 2.656 0 3.648zm-.16 18.944h3.968V54.208h-3.968v16.128zM393.595 68.256c1.472 1.568 3.456 2.336 5.984 2.336s4.512-.768 5.984-2.336c1.472-1.568 2.208-3.584 2.208-5.984s-.736-4.384-2.208-5.952c-1.472-1.568-3.456-2.368-5.984-2.368s-4.512.8-5.984 2.368c-1.472 1.568-2.208 3.552-2.208 5.952s.736 4.416 2.208 5.984zm3.04-9.472c.736-.96 1.696-1.44 2.944-1.44s2.208.48 2.944 1.44c.736.928 1.088 2.112 1.088 3.488s-.352 2.56-1.088 3.52c-.736.928-1.696 1.408-2.944 1.408s-2.208-.48-2.944-1.408c-.736-.96-1.088-2.144-1.088-3.52s.352-2.56 1.088-3.488zM410.852 70.336h3.968v-6.432c0-4.064 1.632-6.56 3.68-6.56 1.536 0 2.304.896 2.304 2.656v10.336h3.968v-11.52c0-3.168-1.984-4.864-4.96-4.864-2.016 0-3.68.96-4.992 2.848v-2.592h-3.968v16.128zM433.684 53.952c-1.504 0-2.752.448-3.712 1.376-.96.928-1.44 2.016-1.44 3.328 0 2.304 1.216 3.488 3.264 4.352.608.256 1.728.608 2.272.864.288.096.608.224.896.384.608.288.864.704.864 1.216 0 1.152-.672 1.728-1.984 1.728-1.504 0-2.592-.896-3.232-2.656l-3.168 1.696c.48 1.152 1.28 2.176 2.4 3.04 1.12.864 2.464 1.312 4 1.312 1.696 0 3.072-.512 4.128-1.568s1.6-2.304 1.6-3.808c0-1.12-.512-2.08-.992-2.624-.224-.288-.608-.544-1.152-.832-.512-.288-.896-.512-1.152-.608l-1.376-.48-1.152-.416c-1.024-.384-1.536-.896-1.536-1.568 0-.864.672-1.344 1.472-1.344 1.056 0 1.952.48 2.688 1.408l2.368-2.176c-1.024-1.568-2.912-2.624-5.056-2.624zM449.602 59.168c-.352.992-.96 1.472-1.824 1.472-.64 0-1.152-.448-1.152-1.12 0-.864.576-1.248 2.72-2.112 1.568-.608 2.688-1.216 3.36-1.888.704-.672 1.056-1.6 1.056-2.784 0-3.072-2.336-5.056-5.92-5.056-3.328 0-5.6 2.08-6.112 4.896l3.488.576c.416-1.44 1.344-2.144 2.72-2.144 1.248 0 2.08.544 2.08 1.6s-.736 1.728-3.2 2.656c-2.304.864-3.456 2.272-3.456 4.16 0 2.432 1.824 4.096 4.416 4.096 2.272 0 3.904-1.248 4.64-3.296l-2.816-1.056zm-4.48 8.736c0 1.44 1.152 2.624 2.656 2.624 1.504 0 2.656-1.184 2.656-2.624 0-1.504-1.216-2.688-2.656-2.688-1.44 0-2.656 1.184-2.656 2.688zM164.872 91.464c-1.056-4.32-4.416-6.784-9.28-6.784-2.976 0-5.472 1.024-7.52 3.04-2.048 2.016-3.072 4.832-3.072 8.416 0 3.584 1.024 6.4 3.072 8.416s4.544 3.04 7.52 3.04c4.864 0 8.224-2.464 9.28-6.784l-3.744-.96c-.992 2.592-2.816 3.904-5.536 3.904-1.824 0-3.36-.64-4.576-1.952-1.184-1.312-1.792-3.2-1.792-5.664 0-2.464.608-4.352 1.792-5.664 1.216-1.312 2.752-1.952 4.576-1.952 2.72 0 4.544 1.312 5.536 3.904l3.744-.96zM168.892 105.256c1.472 1.568 3.456 2.336 5.984 2.336s4.512-.768 5.984-2.336c1.472-1.568 2.208-3.584 2.208-5.984s-.736-4.384-2.208-5.952c-1.472-1.568-3.456-2.368-5.984-2.368s-4.512.8-5.984 2.368c-1.472 1.568-2.208 3.552-2.208 5.952s.736 4.416 2.208 5.984zm3.04-9.472c.736-.96 1.696-1.44 2.944-1.44s2.208.48 2.944 1.44c.736.928 1.088 2.112 1.088 3.488s-.352 2.56-1.088 3.52c-.736.928-1.696 1.408-2.944 1.408s-2.208-.48-2.944-1.408c-.736-.96-1.088-2.144-1.088-3.52s.352-2.56 1.088-3.488zM199.276 101.064c0-4.352 1.44-6.72 3.488-6.72 1.312 0 1.984.736 1.984 2.24v10.752h3.968V95.912c0-3.104-1.824-4.96-4.8-4.96-2.048 0-3.68 1.12-4.928 3.328-.672-2.208-2.432-3.328-4.512-3.328-1.824 0-3.392.96-4.64 2.848v-2.592h-3.968v16.128h3.968v-5.92c0-4.608 1.44-7.072 3.488-7.072 1.312 0 1.984.736 1.984 2.24v10.752h3.968v-6.272zM226.573 98.92a8.978 8.978 0 00-1.728-5.28c-1.152-1.632-3.232-2.688-5.792-2.688-5.536 0-7.744 4.48-7.744 8.32s2.208 8.32 7.744 8.32c3.52 0 5.952-1.568 7.328-4.704l-3.2-1.184c-.96 1.664-2.272 2.496-3.904 2.496-2.304 0-3.712-1.696-3.808-3.648h11.104V98.92zm-7.52-4.576c1.856 0 3.008 1.024 3.456 3.072h-6.944c.288-1.696 1.6-3.072 3.488-3.072zM238.835 96.2c.416-1.248 1.344-1.856 2.784-1.856 1.888 0 2.816.8 2.816 2.368v.704h-2.688c-4.096 0-6.879 2.08-6.879 5.28 0 3.104 2.047 4.896 4.895 4.896 2.048 0 3.712-.768 4.96-2.304l.416 2.048h3.264v-9.632c0-4.512-2.272-6.752-6.784-6.752-3.232 0-5.632 1.792-6.144 4.48l3.36.768zm.192 6.432c0-1.376.928-2.08 2.752-2.08h2.656v.32c0 .992-.383 1.792-1.151 2.4a3.961 3.961 0 01-2.593.928c-1.056 0-1.664-.704-1.664-1.568zM256.481 90.952c-1.504 0-2.752.448-3.712 1.376-.96.928-1.44 2.016-1.44 3.328 0 2.304 1.216 3.488 3.264 4.352.608.256 1.728.608 2.272.864.288.096.608.224.896.384.608.288.864.704.864 1.216 0 1.152-.672 1.728-1.984 1.728-1.504 0-2.592-.896-3.232-2.656l-3.168 1.696c.48 1.152 1.28 2.176 2.4 3.04 1.12.864 2.464 1.312 4 1.312 1.696 0 3.072-.512 4.128-1.568s1.6-2.304 1.6-3.808c0-1.12-.512-2.08-.992-2.624-.224-.288-.608-.544-1.152-.832-.512-.288-.896-.512-1.152-.608l-1.376-.48-1.152-.416c-1.024-.384-1.536-.896-1.536-1.568 0-.864.672-1.344 1.472-1.344 1.056 0 1.952.48 2.688 1.408l2.368-2.176c-1.024-1.568-2.912-2.624-5.056-2.624zM264.524 107.336h3.968V99.72l5.696 7.616h4.864l-6.88-8.704 6.464-7.424h-4.896l-5.248 6.336V84.68h-3.968v22.656zM301.313 91.208h-3.968v6.432c0 4.064-1.632 6.56-3.68 6.56-1.536 0-2.304-.896-2.304-2.656V91.208h-3.968v11.52c0 3.168 1.984 4.864 4.96 4.864 2.016 0 3.68-.96 4.992-2.848v2.592h3.968V91.208zM309.481 90.952c-1.504 0-2.752.448-3.712 1.376-.96.928-1.44 2.016-1.44 3.328 0 2.304 1.216 3.488 3.264 4.352.608.256 1.728.608 2.272.864.288.096.608.224.896.384.608.288.864.704.864 1.216 0 1.152-.672 1.728-1.984 1.728-1.504 0-2.592-.896-3.232-2.656l-3.168 1.696c.48 1.152 1.28 2.176 2.4 3.04 1.12.864 2.464 1.312 4 1.312 1.696 0 3.072-.512 4.128-1.568s1.6-2.304 1.6-3.808c0-1.12-.512-2.08-.992-2.624-.224-.288-.608-.544-1.152-.832-.512-.288-.896-.512-1.152-.608l-1.376-.48-1.152-.416c-1.024-.384-1.536-.896-1.536-1.568 0-.864.672-1.344 1.472-1.344 1.056 0 1.952.48 2.688 1.408l2.368-2.176c-1.024-1.568-2.912-2.624-5.056-2.624zM324.956 88.392c.992.992 2.656.992 3.648 0s.992-2.656 0-3.648-2.656-.992-3.648 0-.992 2.656 0 3.648zm-.16 18.944h3.968V91.208h-3.968v16.128zM331.774 107.336h3.968v-6.432c0-4.064 1.632-6.56 3.68-6.56 1.536 0 2.304.896 2.304 2.656v10.336h3.968v-11.52c0-3.168-1.984-4.864-4.96-4.864-2.016 0-3.68.96-4.992 2.848v-2.592h-3.968v16.128zM363.821 107.336c5.28 0 10.432-3.392 10.432-11.2s-5.152-11.2-10.432-11.2h-7.008v22.4h7.008zm-2.848-18.56h1.536c1.952 0 3.552.416 5.056 1.44 1.536 1.024 2.464 3.072 2.464 5.92s-.928 4.896-2.464 5.92c-1.504 1.024-3.104 1.44-5.056 1.44h-1.536v-14.72zM376.894 88.392c.992.992 2.656.992 3.648 0s.992-2.656 0-3.648-2.656-.992-3.648 0-.992 2.656 0 3.648zm-.16 18.944h3.968V91.208h-3.968v16.128zM389.2 90.952c-1.504 0-2.752.448-3.712 1.376-.96.928-1.44 2.016-1.44 3.328 0 2.304 1.216 3.488 3.264 4.352.608.256 1.728.608 2.272.864.288.096.608.224.896.384.608.288.864.704.864 1.216 0 1.152-.672 1.728-1.984 1.728-1.504 0-2.592-.896-3.232-2.656l-3.168 1.696c.48 1.152 1.28 2.176 2.4 3.04 1.12.864 2.464 1.312 4 1.312 1.696 0 3.072-.512 4.128-1.568s1.6-2.304 1.6-3.808c0-1.12-.512-2.08-.992-2.624-.224-.288-.608-.544-1.152-.832-.512-.288-.896-.512-1.152-.608l-1.376-.48-1.152-.416c-1.024-.384-1.536-.896-1.536-1.568 0-.864.672-1.344 1.472-1.344 1.056 0 1.952.48 2.688 1.408l2.368-2.176c-1.024-1.568-2.912-2.624-5.056-2.624zM408.269 101.544c-.864 1.76-2.144 2.656-3.776 2.656-2.432 0-3.712-1.984-3.712-4.928s1.28-4.928 3.712-4.928c1.632 0 2.912.896 3.776 2.656l3.552-1.44c-1.248-3.072-3.68-4.608-7.328-4.608-2.528 0-4.448.8-5.824 2.368-1.376 1.568-2.048 3.552-2.048 5.952s.672 4.384 2.048 5.952c1.376 1.568 3.296 2.368 5.824 2.368 3.648 0 6.08-1.536 7.328-4.608l-3.552-1.44zM415.704 105.256c1.472 1.568 3.456 2.336 5.984 2.336s4.512-.768 5.984-2.336c1.472-1.568 2.208-3.584 2.208-5.984s-.736-4.384-2.208-5.952c-1.472-1.568-3.456-2.368-5.984-2.368s-4.512.8-5.984 2.368c-1.472 1.568-2.208 3.552-2.208 5.952s.736 4.416 2.208 5.984zm3.04-9.472c.736-.96 1.696-1.44 2.944-1.44s2.208.48 2.944 1.44c.736.928 1.088 2.112 1.088 3.488s-.352 2.56-1.088 3.52c-.736.928-1.696 1.408-2.944 1.408s-2.208-.48-2.944-1.408c-.736-.96-1.088-2.144-1.088-3.52s.352-2.56 1.088-3.488zM436.336 101.608c0-4.896 1.792-7.104 4.32-7.104.608 0 1.184.16 1.664.448l.736-3.68a6.37 6.37 0 00-1.952-.32c-1.888 0-3.616 1.056-4.768 2.88v-2.624h-3.968v16.128h3.968v-5.728zM451.106 90.952c-4.736 0-7.36 3.232-7.36 8.32s2.624 8.32 7.36 8.32c1.824 0 3.392-.992 3.904-1.92v1.664h3.968V84.68h-3.968v8c-.736-.928-2.336-1.728-3.904-1.728zm-2.144 4.704c.704-.864 1.6-1.312 2.688-1.312s1.984.448 2.656 1.312c.704.864 1.056 2.048 1.056 3.616s-.352 2.784-1.056 3.648c-.672.864-1.568 1.28-2.656 1.28s-1.984-.448-2.688-1.312c-.704-.864-1.056-2.08-1.056-3.616s.352-2.752 1.056-3.616zM464.654 99.592h3.457l.896-14.656h-5.249l.896 14.656zm-.927 5.312c0 1.44 1.151 2.624 2.655 2.624 1.504 0 2.656-1.184 2.656-2.624 0-1.504-1.216-2.688-2.656-2.688-1.44 0-2.655 1.184-2.655 2.688z" fill="#5641F2"/></svg>