<?xml version="1.0" encoding="UTF-8"?>
<svg width="525px" height="150px" viewBox="0 0 525 150" version="1.1" xmlns="http://www.w3.org/2000/svg" xmlns:xlink="http://www.w3.org/1999/xlink">
    <!-- Generator: Sketch 53.1 (72631) - https://sketchapp.com -->
    <title>Group 16 Copy</title>
    <desc>Created with Sketch.</desc>
    <g id="Page-1" stroke="none" stroke-width="1" fill="none" fill-rule="evenodd">
        <g id="Product-Page-—-Synthetix.Exchange" transform="translate(-791.000000, -2696.000000)">
            <g id="Group-16-Copy" transform="translate(791.000000, 2696.000000)">
                <path d="M0.5,0.5 L0.5,149.199219 L524.277344,149.199219 L524.277344,0.5 L0.5,0.5 Z" id="Rectangle" stroke="#D1D1E8" fill="#FFFFFF"></path>
                <g id="discord" transform="translate(44.588867, 37.286609)" fill="#5641F2" fill-rule="nonzero">
                    <path d="M26.7466413,32.6638666 C24.5214881,32.8529416 22.8116296,34.7142514 22.8116296,36.9474231 C22.8116296,39.1805949 24.5214881,41.0419046 26.7466413,41.2309797 C28.9717944,41.0419046 30.6816529,39.1805949 30.6816529,36.9474231 C30.6816529,34.7142514 28.9717944,32.8529416 26.7466413,32.6638666 L26.7466413,32.6638666 Z M40.8322102,32.6638666 C39.0666361,32.5143531 37.3901911,33.4634124 36.6098339,35.0542137 C35.8294767,36.6450151 36.1050839,38.5516408 37.3039918,39.8563347 C38.5028997,41.1610286 40.3794803,41.5964896 42.0304396,40.9531082 C43.6813989,40.3097268 44.7684943,38.7193166 44.7684514,36.9474231 C44.8628097,34.6781556 43.1013489,32.7612719 40.8322102,32.6638666 L40.8322102,32.6638666 Z" id="Shape"></path>
                    <path d="M59.5872417,0.286353327 L7.87583795,0.286353327 C5.82947953,0.249837224 3.85797438,1.05558123 2.42296231,2.51491553 C0.987950248,3.97424984 0.215452231,5.95901753 0.286353327,8.00447329 L0.286353327,60.7449597 C0.246437824,62.8039095 1.04677037,64.7903207 2.50294134,66.2464916 C3.9591123,67.7026626 5.94552343,68.5029951 8.00447329,68.4630796 L51.7404864,68.4630796 L49.5922763,61.2209104 L54.5318731,65.8131918 L59.2013357,70.135339 L67.1767263,77.4675529 L67.1767263,8.00447329 C67.2476274,5.95901753 66.4751294,3.97424984 65.0401173,2.51491553 C63.6051053,1.05558123 61.6336001,0.249837224 59.5872417,0.286353327 Z M44.6912702,50.6856767 C44.6912702,50.6856767 43.3020086,49.0262809 42.1442906,47.5598381 C44.9415428,46.9012686 47.4157339,45.2745905 49.1291891,42.9675567 C47.7406179,43.8916729 46.251817,44.6554926 44.6912702,45.2444021 C42.8960145,46.0107032 41.01841,46.56751 39.0956332,46.9037979 C35.7905399,47.5122914 32.4009638,47.4992042 29.1006678,46.8652073 C27.1631126,46.4860985 25.2642715,45.9306552 23.4278497,45.2058115 C21.8839876,44.6068511 20.4090555,43.8435091 19.0285213,42.9289661 C20.6799898,45.1876928 23.0687607,46.7984068 25.7818763,47.4826569 C24.6241583,48.9490997 23.1963061,50.6856767 23.1963061,50.6856767 C14.6677835,50.4155425 11.4261731,44.8199055 11.4261731,44.8199055 C11.5514744,36.9964866 13.4515923,29.303648 16.9832195,22.3215858 C20.0911183,19.8806776 23.8801618,18.4648429 27.827178,18.2695728 L28.213084,18.73266 C21.2667761,20.7393712 18.0637563,23.7880286 18.0637563,23.7880286 C18.0637563,23.7880286 18.9127495,23.3249414 20.3406017,22.6689012 C23.1145353,21.402684 26.0709258,20.5821879 29.1006678,20.2376934 C29.316695,20.1929845 29.5362031,20.16716 29.756708,20.1605122 C32.3427363,19.8235833 34.9598167,19.7976716 37.5520092,20.083331 C41.6284805,20.5489031 45.5745044,21.8074357 49.1677797,23.7880286 C46.3478026,21.4925768 43.072558,19.8220706 39.5587204,18.8870224 L40.0989888,18.2695728 C44.0460051,18.4648429 47.8350485,19.8806776 50.9429473,22.3215858 C54.4745745,29.303648 56.3746925,36.9964866 56.4999937,44.8199055 C56.4999937,44.8199055 53.2197927,50.4155425 44.6912702,50.6856767 Z" id="Shape"></path>
                </g>
                <text id="Got-more-questions?" font-family="aeonik-Bold, aeonik" font-size="30" font-weight="bold" line-spacing="33" letter-spacing="-0.625" fill="#5641F2">
                    <tspan x="172.433105" y="72">Got more questions?</tspan>
                    <tspan x="151" y="105">Come ask us in Discord!</tspan>
                </text>
            </g>
        </g>
    </g>
</svg>