<?xml version="1.0" encoding="UTF-8"?>
<svg width="380px" height="150px" viewBox="0 0 380 150" version="1.1" xmlns="http://www.w3.org/2000/svg" xmlns:xlink="http://www.w3.org/1999/xlink">
    <!-- Generator: Sketch 52.6 (67491) - http://www.bohemiancoding.com/sketch -->
    <title>Group 2</title>
    <desc>Created with Sketch.</desc>
    <g id="Page-1" stroke="none" stroke-width="1" fill="none" fill-rule="evenodd">
        <g id="Product-Page-—-Mintr" transform="translate(-530.000000, -946.000000)">
            <g id="Group-2" transform="translate(530.000000, 946.000000)">
                <g id="Button">
                    <path d="M1,1 L1,148.699219 L378.710938,148.699219 L378.710938,1 L1,1 Z" id="Rectangle" stroke="#D1D1E8" stroke-width="2" fill="#FFFFFF"></path>
                    <text id="Open-dApp" font-family="Aeonik-Regular, Aeonik" font-size="24" font-weight="normal" line-spacing="28" letter-spacing="-0.5" fill="#0D0A31">
                        <tspan x="125.691406" y="117">Open dApp</tspan>
                    </text>
                </g>
                <g id="Group" transform="translate(94.000000, 20.000000)">
                    <path d="M92.697287,53 L87,53 L87,23.4615385 L94.2436935,23.4615385 L102.362327,43.3176075 L102.728582,43.3176075 L110.867563,23.4615385 L118.090909,23.4615385 L118.090909,53 L112.393622,53 L112.393622,33.2462818 L112.068063,33.2462818 L104.600547,51.3009755 L100.510709,51.3009755 L93.0228463,33.2462818 L92.697287,33.2462818 L92.697287,53 Z M124.636364,53 L124.636364,30.4358974 L130.772727,30.4358974 L130.772727,53 L124.636364,53 Z M127.704545,27.1538462 C126.653272,27.1538462 125.810918,26.8677859 125.177458,26.2956567 C124.543998,25.7235276 124.227273,24.9839571 124.227273,24.0769231 C124.227273,23.1559347 124.543998,22.4128757 125.177458,21.8477237 C125.810918,21.2825717 126.653272,21 127.704545,21 C128.755819,21 129.598173,21.2825717 130.231633,21.8477237 C130.865093,22.4128757 131.181818,23.1559347 131.181818,24.0769231 C131.181818,24.9839571 130.861724,25.7235276 130.221525,26.2956567 C129.581326,26.8677859 128.742341,27.1538462 127.704545,27.1538462 Z M136.5,53 L136.5,30.5148909 L142.335515,30.5148909 L142.335515,34.1231088 L142.707994,34.1231088 C143.232228,32.8592069 144.128929,31.8603317 145.398125,31.1264533 C146.667322,30.3925748 148.136532,30.025641 149.805801,30.025641 C152.344194,30.025641 154.30659,30.7595085 155.693049,32.2272655 C157.079508,33.6950225 157.772727,35.7743137 157.772727,38.4652015 L157.772727,53 L151.750973,53 L151.750973,39.8717949 C151.750973,38.3224958 151.381946,37.1469489 150.64388,36.3451186 C149.905815,35.5432884 148.826325,35.1423794 147.405377,35.1423794 C145.915451,35.1423794 144.729046,35.5874564 143.846127,36.4776238 C142.963207,37.3677913 142.521755,38.5535308 142.521755,40.0348782 L142.521755,53 L136.5,53 Z M165.034091,24.6923077 L170.986364,24.6923077 L170.986364,30.2542296 L175.772727,30.2542296 L175.772727,35.0067674 L170.986364,35.0067674 L170.986364,45.3004737 C170.986364,46.2966438 171.221589,47.0299247 171.692045,47.5003384 C172.162502,47.970752 172.902268,48.2059553 173.911364,48.2059553 C174.565912,48.2059553 175.145452,48.1782844 175.65,48.1229416 L175.65,52.7302053 C174.736359,52.9100693 173.747733,53 172.684091,53 C169.943168,53 167.98296,52.5157579 166.803409,51.5472592 C165.623858,50.5787605 165.034091,48.9738438 165.034091,46.7324611 L165.034091,35.0067674 L161.454545,35.0067674 L161.454545,30.2542296 L165.034091,30.2542296 L165.034091,24.6923077 Z M180.681818,53 L180.681818,30.3945424 L186.516684,30.3945424 L186.516684,34.0015783 L186.889122,34.0015783 C187.192592,32.8538793 187.882286,31.9043093 188.958224,31.1528397 C190.034162,30.4013702 191.27561,30.025641 192.682606,30.025641 C193.689574,30.025641 194.462031,30.1212812 195,30.3125643 L195,35.7436126 C194.765501,35.647971 194.348236,35.562578 193.748194,35.4874311 C193.148151,35.4122841 192.627433,35.3747112 192.186022,35.3747112 C190.544527,35.3747112 189.220315,35.8324176 188.213347,36.7478442 C187.20638,37.6632707 186.702903,38.9065926 186.702903,40.4778472 L186.702903,53 L180.681818,53 Z" id="Mintr" fill="#0A0817"></path>
                    <g id="ico-mint-and-burn.107cc7b2">
                        <path d="M18.447205,18.9575758 C27.363354,18.9575758 36.8944099,16.1139394 36.8944099,9.47878788 C36.8944099,2.84363636 27.363354,0 18.447205,0 C9.5310559,0 0,2.84363636 0,9.47878788 C0,16.1139394 9.5310559,18.9575758 18.447205,18.9575758 Z" id="Shape" fill="#53B167"></path>
                        <path d="M0,19.7818182 L0,24.589899 C0,31.3212121 9.5310559,34.2060606 18.447205,34.2060606 C27.363354,34.2060606 36.8944099,31.3212121 36.8944099,24.589899 L36.8944099,19.7818182 C32.5900621,22.6666667 26.1335404,24.589899 18.447205,24.589899 C10.7608696,24.589899 4.30434783,22.6666667 0,19.7818182 Z" id="Shape" fill="#53B167"></path>
                        <path d="M0,35.4424242 L0,40.2505051 C0,46.9818182 9.5310559,49.8666667 18.447205,49.8666667 C27.363354,49.8666667 36.8944099,46.9818182 36.8944099,40.2505051 L36.8944099,35.4424242 C32.5900621,38.6478114 26.1335404,40.2505051 18.447205,40.2505051 C10.7608696,40.2505051 4.30434783,38.3272727 0,35.4424242 Z" id="Shape" fill="#53B167"></path>
                        <path d="M51.983782,37.7465167 C51.983782,37.7465167 54.2577989,24.0705833 44.9788345,18.1333333 C44.6992429,22.8858077 42.4532229,27.2916022 38.8030191,30.2478167 C34.840255,33.8101667 27.3872103,41.82 27.4664656,50.3596667 C27.4083889,57.8062068 31.4850605,64.6423742 37.98608,68 C38.2160907,64.670221 39.7476902,61.5753719 42.2353824,59.4135833 C44.3432855,57.7561319 45.7117657,55.3025118 46.0335394,52.6036667 C51.5830603,55.6200368 55.1722296,61.3980239 55.4832075,67.8161167 L55.4832075,67.8566333 C61.6167847,64.9840201 65.6545395,58.8348654 65.9327115,51.9429333 C66.59114,43.9206333 62.2930652,33.0123 58.4796668,29.4468333 C57.0399489,32.7331975 54.8041836,35.5897974 51.983782,37.7465167 Z" id="Shape" fill="#D9AB44"></path>
                    </g>
                </g>
            </g>
        </g>
    </g>
</svg>