<svg width="232" height="64" viewBox="0 0 232 64" fill="none" xmlns="http://www.w3.org/2000/svg">
<path fill-rule="evenodd" clip-rule="evenodd" d="M90.0875 13.7314L100.712 36.5937L111.337 13.7314H121.066V52.1708H113.963V22.9711L102.981 47.9656H98.3844L87.0434 22.1419V52.1708H80V13.7314H90.0875ZM132.766 23.3264H139.809V52.1708H132.766V23.3264ZM131.93 14.0868C131.93 12.8232 132.308 11.8262 133.064 11.0957C133.82 10.3652 134.895 10 136.287 10C137.64 10 138.705 10.3652 139.481 11.0957C140.257 11.8262 140.645 12.8232 140.645 14.0868C140.645 15.3503 140.257 16.3473 139.481 17.0778C138.705 17.8083 137.64 18.1736 136.287 18.1736C134.895 18.1736 133.82 17.8083 133.064 17.0778C132.308 16.3473 131.93 15.3503 131.93 14.0868ZM158.671 28.3609C160.581 24.5307 163.645 22.6157 167.863 22.6157C171.445 22.6157 174.14 23.7805 175.951 26.1102C177.762 28.4399 178.667 31.5197 178.667 35.3499V52.1708H171.624V35.3499C171.624 33.2176 171.106 31.6086 170.072 30.5227C169.037 29.4369 167.585 28.8939 165.714 28.8939C163.844 28.8939 162.242 29.7231 160.909 31.3815C159.576 33.04 158.87 35.5275 158.79 38.8444V52.1708H151.747V23.3857H157.895L158.671 28.3609ZM205.288 51.4601C202.662 52.4867 200.593 53 199.081 53C197.569 53 196.246 52.8223 195.111 52.4669C193.977 52.1116 192.973 51.5785 192.097 50.8678C190.267 49.2488 189.351 47.0179 189.351 44.1749V28.0647H185.292V23.3857H189.351V15.8044H196.395V23.3857H204.274V28.0647H196.395V43.938C196.395 46.3072 197.529 47.4917 199.797 47.4917C200.951 47.4917 202.443 47.1759 204.274 46.5441L205.288 51.4601ZM219.554 29.0716C221.305 24.9256 223.932 22.8526 227.433 22.8526C228.11 22.8526 228.965 22.9908 230 23.2672L229.881 30.2562C228.766 30.0193 227.672 29.9008 226.598 29.9008C221.902 29.9008 219.554 33.1189 219.554 39.5551V52.1708H212.511V23.3264H219.554V29.0716Z" fill="white"/>
<path fill-rule="evenodd" clip-rule="evenodd" d="M4 25C15.598 25 25 34.2987 25 45.7692V55C13.402 55 4 45.7013 4 34.2308V25ZM60 9V25.1C60 41.6133 46.1208 55 29 55V38.9C29 22.3867 42.8792 9 60 9Z" fill="#10BA97"/>
</svg>
