<?xml version="1.0" encoding="UTF-8"?>
<svg width="524px" height="182px" viewBox="0 0 524 182" version="1.1" xmlns="http://www.w3.org/2000/svg" xmlns:xlink="http://www.w3.org/1999/xlink">
    <!-- Generator: Sketch 52.6 (67491) - http://www.bohemiancoding.com/sketch -->
    <title>Group</title>
    <desc>Created with Sketch.</desc>
    <g id="Page-1" stroke="none" stroke-width="1" fill="none" fill-rule="evenodd">
        <g id="Product-Page-—-Mintr" transform="translate(-458.000000, -189.000000)">
            <g id="Group" transform="translate(458.000000, 189.000000)">
                <path d="M248.351023,142 L233,142 L233,62.6153846 L252.51773,62.6153846 L274.392938,115.97857 L275.379789,115.97857 L297.309823,62.6153846 L316.772727,62.6153846 L316.772727,142 L301.421704,142 L301.421704,88.9118823 L300.544503,88.9118823 L280.423697,137.433872 L269.403855,137.433872 L249.228225,88.9118823 L248.351023,88.9118823 L248.351023,142 Z M334.409091,142 L334.409091,81.3589744 L350.943182,81.3589744 L350.943182,142 L334.409091,142 Z M342.676136,72.5384615 C339.843538,72.5384615 337.573861,71.7696745 335.867039,70.2320774 C334.160217,68.6944804 333.306818,66.7068847 333.306818,64.2692308 C333.306818,61.7940745 334.160217,59.7971034 335.867039,58.2782575 C337.573861,56.7594116 339.843538,56 342.676136,56 C345.508735,56 347.778412,56.7594116 349.485234,58.2782575 C351.192056,59.7971034 352.045455,61.7940745 352.045455,64.2692308 C352.045455,66.7068847 351.182977,68.6944804 349.457997,70.2320774 C347.733017,71.7696745 345.47242,72.5384615 342.676136,72.5384615 Z M366.375,142 L366.375,81.5712693 L382.09847,81.5712693 L382.09847,91.2683548 L383.102096,91.2683548 C384.514613,87.8716186 386.930725,85.1871416 390.350504,83.2148431 C393.770283,81.2425447 397.728989,80.2564103 402.226742,80.2564103 C409.0663,80.2564103 414.353868,82.2286791 418.089605,86.173276 C421.825341,90.1178729 423.693182,95.705968 423.693182,102.937729 L423.693182,142 L407.467899,142 L407.467899,106.717949 C407.467899,102.554208 406.473576,99.394925 404.4849,97.2400064 C402.496224,95.0850877 399.587597,94.0076445 395.758932,94.0076445 C391.744409,94.0076445 388.547707,95.2037891 386.16873,97.596114 C383.789753,99.988439 382.600283,103.175114 382.600283,107.156235 L382.600283,142 L366.375,142 Z M443.258523,65.9230769 L459.296591,65.9230769 L459.296591,80.8707422 L472.193182,80.8707422 L472.193182,93.6431875 L459.296591,93.6431875 L459.296591,121.307523 C459.296591,123.98473 459.930391,125.955423 461.198011,127.219659 C462.465631,128.483896 464.458888,129.116005 467.177841,129.116005 C468.941486,129.116005 470.503024,129.041639 471.8625,128.892905 L471.8625,141.274927 C469.400745,141.758311 466.736946,142 463.871023,142 C456.485759,142 451.204088,140.698599 448.025852,138.095759 C444.847617,135.492919 443.258523,131.179705 443.258523,125.155989 L443.258523,93.6431875 L433.613636,93.6431875 L433.613636,80.8707422 L443.258523,80.8707422 L443.258523,65.9230769 Z M485.420455,142 L485.420455,81.2478328 L501.142177,81.2478328 L501.142177,90.9417416 L502.145691,90.9417416 C502.963373,87.8573006 504.821714,85.3053312 507.72077,83.2857568 C510.619825,81.2661823 513.964839,80.2564103 517.755912,80.2564103 C520.46913,80.2564103 522.550472,80.5134431 524,81.0275166 L524,95.6234589 C523.368155,95.3664222 522.243858,95.1369285 520.627077,94.9349711 C519.010296,94.7330136 517.607249,94.6320364 516.417893,94.6320364 C511.994975,94.6320364 508.42696,95.8621224 505.713741,98.3223313 C503.000523,100.78254 501.643934,104.123968 501.643934,108.346714 L501.643934,142 L485.420455,142 Z" id="Mintr" fill="#FFFFFF"></path>
                <g id="ico-mint-and-burn.107cc7b2">
                    <path d="M49.4720497,50.7393939 C73.3835404,50.7393939 98.9440994,43.1284848 98.9440994,25.369697 C98.9440994,7.61090909 73.3835404,0 49.4720497,0 C25.560559,0 0,7.61090909 0,25.369697 C0,43.1284848 25.560559,50.7393939 49.4720497,50.7393939 Z" id="Shape" fill="#53B167"></path>
                    <path d="M0,52.9454545 L0,65.8141414 C0,83.830303 25.560559,91.5515152 49.4720497,91.5515152 C73.3835404,91.5515152 98.9440994,83.830303 98.9440994,65.8141414 L98.9440994,52.9454545 C87.4006211,60.6666667 70.0854037,65.8141414 49.4720497,65.8141414 C28.8586957,65.8141414 11.5434783,60.6666667 0,52.9454545 Z" id="Shape" fill="#53B167"></path>
                    <path d="M0,94.8606061 L0,107.729293 C0,125.745455 25.560559,133.466667 49.4720497,133.466667 C73.3835404,133.466667 98.9440994,125.745455 98.9440994,107.729293 L98.9440994,94.8606061 C87.4006211,103.439731 70.0854037,107.729293 49.4720497,107.729293 C28.8586957,107.729293 11.5434783,102.581818 0,94.8606061 Z" id="Shape" fill="#53B167"></path>
                    <path d="M139.411052,101.027442 C139.411052,101.027442 145.509552,64.4242083 120.625056,48.5333333 C119.875242,61.2531912 113.851825,73.0451706 104.062642,80.9573917 C93.4352294,90.4919167 73.4475185,111.93 73.6600668,134.786167 C73.5043157,154.716612 84.4372076,173.013413 101.87176,182 C102.488607,173.087944 106.596078,164.804672 113.267616,159.018708 C118.920629,154.582588 122.590644,148.015546 123.453583,140.792167 C138.336389,148.865393 147.961889,164.330005 148.795875,181.507842 L148.795875,181.616283 C165.245014,173.927818 176.073538,157.469787 176.819545,139.023733 C178.58533,117.552283 167.058675,88.35645 156.831834,78.8135833 C152.970772,87.6094404 146.974856,95.2550459 139.411052,101.027442 Z" id="Shape" fill="#D9AB44"></path>
                </g>
            </g>
        </g>
    </g>
</svg>