<?xml version="1.0" encoding="UTF-8"?>
<svg width="60px" height="60px" viewBox="0 0 60 60" version="1.1" xmlns="http://www.w3.org/2000/svg" xmlns:xlink="http://www.w3.org/1999/xlink">
    <!-- Generator: Sketch 54.1 (76490) - https://sketchapp.com -->
    <title>10x</title>
    <desc>Created with Sketch.</desc>
    <g id="Page-1" stroke="none" stroke-width="1" fill="none" fill-rule="evenodd">
        <g id="Home-Page" transform="translate(-1084.000000, -778.000000)">
            <g id="Tiles" transform="translate(217.000000, 592.000000)">
                <g id="Commodities-and-Coming-Soon" transform="translate(687.000000, 0.000000)">
                    <g id="10x" transform="translate(180.000000, 186.000000)">
                        <g id="lev_10x_white">
                            <circle id="Oval" fill="#1E1A31" cx="30" cy="30" r="30"></circle>
                            <path d="M17.7,20.7 L17.7,38.7 L13.9434783,38.7 L13.9434783,27.2057143 C13.7173902,27.291429 13.3869587,27.3342857 12.9521739,27.3342857 L9.9,27.3342857 L9.9,24.2742857 L12.6391304,24.2742857 C13.0913066,24.2742857 13.4347814,24.0985732 13.6695652,23.7471429 C13.904349,23.3957125 14.0217391,22.9628597 14.0217391,22.4485714 L14.0217391,20.7 L17.7,20.7 Z M20.1,29.438764 C20.1,27.6738676 20.4099622,26.1317482 21.029896,24.8123596 C21.6498298,23.4929709 22.5160256,22.4777423 23.6285095,21.7666433 C24.7409934,21.0555442 26.0105648,20.7 27.4372617,20.7 C28.8809431,20.7 30.1590066,21.0555442 31.2714905,21.7666433 C32.3839744,22.4777423 33.2501702,23.4929709 33.870104,24.8123596 C34.4900378,26.1317482 34.8,27.6738676 34.8,29.438764 L34.8,30.261236 C34.8,32.0604023 34.4900378,33.6153727 33.870104,34.9261938 C33.2501702,36.237015 32.3839744,37.2436763 31.2714905,37.9462079 C30.1590066,38.6487395 28.8809431,39 27.4372617,39 C25.9935803,39 24.7197629,38.6487395 23.6157712,37.9462079 C22.5117796,37.2436763 21.6498298,36.237015 21.029896,34.9261938 C20.4099622,33.6153727 20.1,32.0604023 20.1,30.261236 L20.1,29.438764 Z M30.9,29.4179487 C30.9,27.6059738 30.5719756,26.200005 29.915917,25.2 C29.2598583,24.199995 28.3837425,23.7 27.2875433,23.7 C26.2079531,23.7 25.3401417,24.199995 24.684083,25.2 C24.0280244,26.200005 23.7,27.6059738 23.7,29.4179487 L23.7,29.9820513 C23.7,31.7940262 24.0280244,33.199995 24.684083,34.2 C25.3401417,35.200005 26.2079531,35.7 27.2875433,35.7 C28.3837425,35.7 29.2598583,35.200005 29.915917,34.2 C30.5719756,33.199995 30.9,31.7940262 30.9,29.9820513 L30.9,29.4179487 Z M40.6234004,32.118677 L35.9319927,25.5 L40.0820841,25.5 L42.8402194,29.4922179 L45.6499086,25.5 L49.5422303,25.5 L44.8765996,32.118677 L49.8,39 L45.6499086,39 L42.6082267,34.7714008 L39.5923218,39 L35.7,39 L40.6234004,32.118677 Z" id="10x" fill="#FFFFFF" fill-rule="nonzero"></path>
                        </g>
                    </g>
                </g>
            </g>
        </g>
    </g>
</svg>