<?xml version="1.0" encoding="UTF-8"?>
<svg width="125px" height="38px" viewBox="0 0 125 38" version="1.1" xmlns="http://www.w3.org/2000/svg" xmlns:xlink="http://www.w3.org/1999/xlink">
    <!-- Generator: Sketch 52.6 (67491) - http://www.bohemiancoding.com/sketch -->
    <title>Group 8</title>
    <desc>Created with Sketch.</desc>
    <g id="Page-1" stroke="none" stroke-width="1" fill="none" fill-rule="evenodd" opacity="0.795549665">
        <g id="Home-Page-Variant" transform="translate(-386.000000, -776.000000)">
            <g id="Group-8" transform="translate(386.000000, 776.000000)">
                <rect id="Rectangle" stroke="#0A0817" fill-rule="nonzero" x="0.5" y="0.5" width="124" height="37" rx="8"></rect>
                <g id="coinmarketcap-2" transform="translate(9.000000, 9.000000)" fill="#0A0817">
                    <path d="M16.0572581,11.6658423 C15.7303893,11.8753057 15.3454613,11.901257 15.0528795,11.7339643 C14.6812091,11.521257 14.4768589,11.0230862 14.4768589,10.3302813 L14.4768589,8.25742768 C14.4768589,7.25645207 14.086445,6.54418378 13.4336217,6.35186671 C12.3272966,6.02515939 11.4952669,7.39733012 11.1825701,7.9126472 L9.2314148,11.1194765 L9.2314148,7.19991549 C9.20947116,6.29811061 8.92054658,5.75869598 8.37195559,5.59603744 C8.00897122,5.48852525 7.46586615,5.53162281 6.93830448,6.35001305 L2.56694865,13.4652813 C1.98172843,12.3390866 1.67665332,11.0850669 1.67823126,9.81218378 C1.67823126,5.52606183 5.06669491,2.03933012 9.2314148,2.03933012 C13.3961347,2.03933012 16.7841412,5.52606183 16.7841412,9.81218378 C16.7841412,9.81959842 16.7859698,9.82608622 16.786427,9.83303744 C16.786427,9.84045207 16.7850555,9.84693988 16.7855127,9.85435451 C16.8248284,10.6843301 16.559676,11.344696 16.0572581,11.6663057 L16.0572581,11.6658423 Z M18.4623724,9.8126472 L18.4623724,9.81218378 L18.4623724,9.79086671 L18.4619153,9.76954964 C18.4386002,4.5496472 14.3072529,0.312183782 9.23095764,0.312183782 C4.14140478,0.312183782 0,4.57374476 0,9.81218378 C0,15.0501594 4.14140478,19.3121838 9.2314148,19.3121838 C11.5670409,19.3121838 13.796149,18.4122326 15.5072957,16.778696 C15.8474221,16.4543057 15.8675371,15.9079399 15.5520973,15.5585252 C15.4021159,15.3908722 15.1918694,15.2914802 14.968768,15.2827618 C14.7456665,15.2740434 14.5284954,15.3567329 14.3662264,15.5121838 C12.9792421,16.8435629 11.1415887,17.5853986 9.2314148,17.5850374 C7.00139245,17.5850374 4.99492092,16.5845252 3.61110016,14.9977935 L7.55318355,8.58135451 L7.55318355,11.5393301 C7.55318355,12.9601594 8.09674578,13.4194033 8.55253346,13.5537935 C9.00877829,13.6881838 9.705946,13.5964277 10.4378578,12.3915496 L12.6061637,8.82835451 C12.6756519,8.71342768 12.7396542,8.61425695 12.7981705,8.52852525 L12.7981705,10.3302813 C12.7981705,11.6584277 13.3229892,12.720574 14.2377647,13.2437691 C15.0624798,13.7155252 16.0993168,13.6728911 16.9441469,13.1325496 C17.9681834,12.4768179 18.5199745,11.268696 18.4623724,9.8126472 Z M31.3144878,6.5668911 C31.5362099,6.70359842 31.7282168,7.00759842 31.7282168,7.28147647 C31.7282168,7.72218378 31.3588322,8.0868911 30.9451032,8.0868911 C30.8417852,8.0868911 30.7384672,8.05676915 30.6497783,8.02618378 C30.1619895,7.66147647 29.5416246,7.41818378 28.8915442,7.41818378 C27.3554895,7.41818378 26.2916801,8.6948911 26.2916801,10.2755984 C26.2916801,11.8567691 27.3554895,13.1181838 28.8915442,13.1181838 C29.6595716,13.1181838 30.3393673,12.7988911 30.8564143,12.3127691 C30.9899922,12.2154372 31.1499882,12.1623466 31.3144878,12.1607691 C31.7282168,12.1607691 32.0532569,12.4948911 32.0532569,12.9207691 C32.0532569,13.1941838 31.8905083,13.4374765 31.6838723,13.5741838 C30.9451032,14.2127691 29.9407245,14.6381838 28.9066305,14.6381838 C26.5431177,14.6381838 24.6221349,12.6621838 24.6221349,10.2301838 C24.6221349,7.79818378 26.5426605,5.82218378 28.9066305,5.82218378 C29.7930621,5.82218378 30.6346921,6.09559842 31.3144878,6.5668911 Z M35.6364704,8.40618378 C37.2465849,8.40618378 38.6057191,9.78947647 38.6057191,11.4915984 C38.6057191,13.1941838 37.2465849,14.6381838 35.6364704,14.6381838 C33.9522961,14.6381838 32.5488175,13.1941838 32.5488175,11.4915984 C32.5488175,9.78947647 33.9522961,8.40618378 35.6364704,8.40618378 Z M35.6213841,13.1181838 C36.3308952,13.1181838 36.9361739,12.4341838 36.9361739,11.5068911 C36.9361739,10.5800618 36.3308952,10.0021838 35.6213841,10.0021838 C34.8533568,10.0021838 34.2179055,10.5647691 34.2179055,11.5068911 C34.2179055,12.4341838 34.8533568,13.1181838 35.6213841,13.1181838 Z M39.6183266,13.6955984 L39.6183266,9.34876915 C39.6183266,8.87747647 39.9877112,8.48218378 40.4457847,8.48218378 C40.9038582,8.48218378 41.2878719,8.87747647 41.2878719,9.34876915 L41.2878719,13.6955984 C41.2878719,14.1668911 40.9038582,14.5621838 40.4457847,14.5621838 C39.9877112,14.5621838 39.6183266,14.1668911 39.6183266,13.6955984 Z M39.4857505,6.84076915 C39.4857505,6.27818378 39.9136514,5.82218378 40.4457847,5.82218378 C40.9920899,5.82218378 41.4355343,6.27818378 41.4355343,6.84076915 C41.4355343,7.38759842 40.9920899,7.82876915 40.4457847,7.82876915 C39.9136514,7.82876915 39.4857505,7.38759842 39.4857505,6.84076915 Z M44.4870716,11.3395984 L44.4870716,13.6955984 C44.4870716,14.1668911 44.1030579,14.5621838 43.6445273,14.5621838 C43.186911,14.5621838 42.8170692,14.1668911 42.8170692,13.6955984 L42.8170692,9.1508911 C42.8170692,8.78618378 43.1128512,8.48218378 43.4676067,8.48218378 C43.8219051,8.48218378 44.1030579,8.78618378 44.1030579,9.1508911 C44.7823964,8.51276915 45.3730461,8.40618378 45.9344375,8.40618378 C47.6039827,8.40618378 48.3427519,9.6828911 48.3427519,11.1268911 L48.3427519,13.6955984 C48.3427519,14.1668911 47.9587382,14.5621838 47.5006648,14.5621838 C47.0425913,14.5621838 46.6732067,14.1668911 46.6732067,13.6955984 L46.6732067,11.3395984 C46.6732067,10.5948911 46.5845178,9.97159842 45.5357947,9.97159842 C44.7970255,9.97159842 44.4866145,10.5948911 44.4866145,11.3395984 L44.4870716,11.3395984 Z M53.7724312,12.2367691 C53.5804244,12.2367691 53.4478482,12.1454765 53.3440731,12.0235984 L51.3938321,9.88076915 L51.3938321,13.6955984 C51.3938321,14.1668911 51.0098184,14.5621838 50.551745,14.5621838 C50.0936715,14.5621838 49.7242869,14.1668911 49.7242869,13.6955984 L49.7242869,6.14193988 C49.7732202,6.01156035 49.8975633,5.9262949 50.0351551,5.92876915 C50.1823604,5.92876915 50.3003074,6.0506472 50.3894535,6.14193988 L53.4917355,9.68335451 C53.5804244,9.78993988 53.6983714,9.8506472 53.7578021,9.8506472 C53.8167756,9.8506472 53.9347227,9.78993988 54.0234116,9.68381793 L57.1261508,6.14193988 C57.2148396,6.0506472 57.3327867,5.92876915 57.4804491,5.92876915 C57.6281115,5.92876915 57.7465157,6.02006183 57.7908602,6.14193988 L57.7908602,13.6955984 C57.7908602,14.1668911 57.4214756,14.5621838 56.9634021,14.5621838 C56.5053286,14.5621838 56.1213149,14.1668911 56.1213149,13.6955984 L56.1213149,9.88076915 L54.1715311,12.0235984 C54.067756,12.1454765 53.9347227,12.2367691 53.7724312,12.2367691 Z M61.8024318,13.1181838 C62.55583,13.1181838 63.1908241,12.4341838 63.1908241,11.5068911 C63.1908241,10.5800618 62.5412009,9.97159842 61.8024318,9.97159842 C61.0636626,9.97159842 60.4725558,10.5948911 60.4725558,11.5068911 C60.4725558,12.4035984 61.0636626,13.1181838 61.8024318,13.1181838 Z M63.575295,13.8934765 L63.5451224,13.6955984 C63.2205394,14.3490131 62.1859883,14.6381838 61.5212789,14.6381838 C59.9550516,14.6381838 58.8030105,13.1941838 58.8030105,11.4915984 C58.8030105,9.78947647 59.984767,8.40618378 61.6099677,8.40618378 C61.8906635,8.40618378 62.8214395,8.48218378 63.5451224,9.34876915 L63.5748378,9.1508911 C63.5748378,8.78618378 63.8555335,8.48218378 64.210289,8.48218378 C64.5645874,8.48218378 64.8599122,8.78618378 64.8599122,9.1508911 L64.8599122,13.8934765 C64.8599122,14.2581838 64.5645874,14.5621838 64.2098319,14.5621838 C63.8555335,14.5621838 63.5743806,14.2581838 63.5743806,13.8934765 L63.575295,13.8934765 Z M69.4923059,9.97159842 L69.3153853,9.97159842 C68.266205,10.0327691 68.0595691,10.6407691 68.0595691,11.3395984 L68.0595691,13.6955984 C68.0595691,14.1668911 67.6755554,14.5621838 67.2174819,14.5621838 C66.7594085,14.5621838 66.3900239,14.1668911 66.3900239,13.6955984 L66.3900239,9.1508911 C66.3900239,8.78618378 66.6853487,8.48218378 67.0401042,8.48218378 C67.3948597,8.48218378 67.6755554,8.78618378 67.6755554,9.1508911 C68.2959204,8.55818378 68.7983383,8.43676915 69.3153853,8.40618378 L69.4776768,8.40618378 C69.8767767,8.40618378 70.2457042,8.75559842 70.2457042,9.19676915 C70.2457042,9.6068911 69.8914058,9.97159842 69.4923059,9.97159842 Z M75.926821,13.3007691 C76.0008808,13.4221838 76.0452252,13.5588911 76.0452252,13.7108911 C76.0452252,14.1515984 75.6461253,14.5621838 75.2177671,14.5621838 C74.9224423,14.5621838 74.6710048,14.3341838 74.4789979,14.0908911 L72.5589295,11.8261838 L72.5589295,13.6955984 C72.5589295,14.1668911 72.1744586,14.5621838 71.7163852,14.5621838 C71.2583117,14.5621838 70.8889271,14.1668911 70.8889271,13.6955984 L70.8889271,6.79535451 C70.8889271,6.32359842 71.2583117,5.92876915 71.7163852,5.92876915 C72.1744586,5.92876915 72.5584723,6.32359842 72.5584723,6.79535451 L72.5584723,11.0967691 L74.4789979,8.93818378 C74.6710048,8.71018378 74.9073561,8.48218378 75.203138,8.48218378 C75.6168671,8.48218378 76.0008808,8.87747647 76.0008808,9.31818378 C76.0008808,9.4548911 75.9711654,9.59159842 75.8971056,9.71347647 L74.37568,11.4003057 L75.926821,13.3003057 L75.926821,13.3007691 Z M79.2000805,10.0021838 C78.7420071,10.0021838 78.0032379,10.2454765 78.0032379,10.9595984 L80.4110951,10.9595984 C80.4110951,10.2301838 79.6430677,10.0021838 79.1996234,10.0021838 L79.2000805,10.0021838 Z M81.3862156,12.0388911 L78.0032379,12.0388911 C78.0032379,13.0574765 78.9632721,13.2094765 79.3916302,13.2094765 C79.7024984,13.2094765 80.1454857,13.1487691 80.4851549,12.9963057 C80.5884729,12.9207691 80.7658506,12.8595984 80.913513,12.8595984 C81.2828976,12.8595984 81.5928515,13.1793545 81.5928515,13.5593545 C81.5928515,13.8174765 81.43056,14.0454765 81.2239241,14.1668911 C80.7068771,14.5468911 80.0417105,14.6381838 79.4067165,14.6381838 C77.7225421,14.6381838 76.3190635,13.7113545 76.3190635,11.5675984 C76.3190635,9.88076915 77.1757798,8.40618378 79.1703652,8.40618378 C80.7804797,8.40618378 82.0065806,9.47018378 82.0362959,11.3701838 C82.0362959,11.7348911 81.7409711,12.0388911 81.3862156,12.0388911 Z M86.0332384,14.6381838 L85.5751649,14.6381838 C84.3042625,14.6381838 83.5659505,14.0755984 83.5659505,12.0541838 L83.5659505,9.97159842 L83.1375923,9.97159842 C82.7384924,9.97159842 82.384194,9.6068911 82.384194,9.19676915 C82.384194,8.75559842 82.7384924,8.40618378 83.1375923,8.40618378 L83.5659505,8.40618378 L83.5659505,6.7948911 C83.5659505,6.32359842 83.935335,5.92830573 84.3934085,5.92830573 C84.8510248,5.92830573 85.2354957,6.32359842 85.2354957,6.7948911 L85.2354957,8.40618378 L85.9294633,8.40618378 C86.3285632,8.40618378 86.6833187,8.75559842 86.6833187,9.19676915 C86.6833187,9.6068911 86.3285632,9.97159842 85.9294633,9.97159842 L85.2354957,9.97159842 L85.2354957,11.7195984 C85.2354957,12.8748911 85.2944692,13.1181838 85.7968871,13.1181838 L86.0332384,13.1181838 C86.4318812,13.1181838 86.7715504,13.4527691 86.7715504,13.8781838 C86.7715504,14.2887691 86.4318812,14.6381838 86.0332384,14.6381838 Z M94.1222125,6.5668911 C94.3434775,6.70359842 94.5359415,7.00759842 94.5359415,7.28147647 C94.5359415,7.72218378 94.1665569,8.0868911 93.7528279,8.0868911 C93.6495099,8.0868911 93.5457348,8.05676915 93.4575031,8.02618378 C92.9697143,7.66147647 92.3493493,7.41818378 91.699269,7.41818378 C90.1632142,7.41818378 89.0989477,8.6948911 89.0989477,10.2755984 C89.0989477,11.8567691 90.162757,13.1181838 91.699269,13.1181838 C92.4672963,13.1181838 93.147092,12.7988911 93.664139,12.3127691 C93.7977169,12.2154372 93.9577129,12.1623466 94.1222125,12.1607691 C94.5359415,12.1607691 94.8605245,12.4948911 94.8605245,12.9207691 C94.8605245,13.1941838 94.698233,13.4374765 94.4915971,13.5741838 C93.7528279,14.2127691 92.7479921,14.6381838 91.7138981,14.6381838 C89.3503852,14.6381838 87.4298596,12.6621838 87.4298596,10.2301838 C87.4298596,7.79818378 89.3499281,5.82218378 91.7138981,5.82218378 C92.6007868,5.82218378 93.4424168,6.09559842 94.1222125,6.5668911 Z M98.3555063,13.1181838 C99.1089045,13.1181838 99.7438986,12.4341838 99.7438986,11.5068911 C99.7438986,10.5800618 99.0938183,9.97159842 98.3550491,9.97159842 C97.6167371,9.97159842 97.0256303,10.5948911 97.0256303,11.5068911 C97.0256303,12.4035984 97.6167371,13.1181838 98.3550491,13.1181838 L98.3555063,13.1181838 Z M100.127912,13.8934765 L100.098654,13.6955984 C99.7736139,14.3490131 98.7395199,14.6381838 98.0743534,14.6381838 C96.5085833,14.6381838 95.356085,13.1941838 95.356085,11.4915984 C95.356085,9.78947647 96.5382986,8.40618378 98.1630422,8.40618378 C98.443738,8.40618378 99.374514,8.48218378 100.098654,9.34876915 L100.127912,9.1508911 C100.127912,8.78618378 100.408608,8.48218378 100.763364,8.48218378 C101.117662,8.48218378 101.413444,8.78618378 101.413444,9.1508911 L101.413444,13.8934765 C101.413444,14.2581838 101.117662,14.5621838 100.763364,14.5621838 C100.408608,14.5621838 100.127912,14.2581838 100.127912,13.8934765 Z M106.001036,13.1181838 C106.739805,13.1181838 107.330455,12.4035984 107.330455,11.5068911 C107.330455,10.5948911 106.739805,9.97159842 106.001036,9.97159842 C105.262267,9.97159842 104.612186,10.5795984 104.612186,11.5068911 C104.612186,12.4341838 105.247638,13.1181838 106.001036,13.1181838 Z M104.612186,14.1367691 L104.612186,16.2948911 C104.612186,16.7661838 104.228173,17.1614765 103.770099,17.1614765 C103.312483,17.1614765 102.942641,16.7661838 102.942641,16.2948911 L102.942641,9.1508911 C102.942641,8.78618378 103.238423,8.48218378 103.593179,8.48218378 C103.947477,8.48218378 104.22863,8.78618378 104.22863,9.21159842 C104.848538,8.55818378 105.617022,8.40618378 106.193043,8.40618378 C107.818244,8.40618378 109,9.78947647 109,11.4915984 C109,13.1941838 107.847959,14.6381838 106.281732,14.6381838 C105.7944,14.6381838 105.07026,14.4861838 104.612186,14.1367691 Z" id="Shape"></path>
                </g>
            </g>
        </g>
    </g>
</svg>