<?xml version="1.0" encoding="UTF-8"?>
<svg width="400px" height="200px" viewBox="0 0 400 200" version="1.1" xmlns="http://www.w3.org/2000/svg" xmlns:xlink="http://www.w3.org/1999/xlink">
    <!-- Generator: Sketch 60 (88103) - https://sketch.com -->
    <title>UnionJack</title>
    <desc>Created with Sketch.</desc>
    <defs>
        <rect id="path-1" x="0" y="0" width="400" height="200"></rect>
    </defs>
    <g id="Page-1" stroke="none" stroke-width="1" fill="none" fill-rule="evenodd">
        <g id="Litepaper" transform="translate(-199.000000, -685.000000)">
            <g id="White-section" transform="translate(0.000000, 491.000000)">
                <g id="Flags" transform="translate(199.000000, 194.000000)">
                    <g id="UnionJack">
                        <mask id="mask-2" fill="white">
                            <use xlink:href="#path-1"></use>
                        </mask>
                        <use id="Mask" fill="#D8D8D8" xlink:href="#path-1"></use>
                        <g mask="url(#mask-2)" fill-rule="nonzero">
                            <polygon id="path3025" fill="#00247D" points="0.0127227311 0.223757205 0.0127227311 199.891048 399.679664 199.891048 399.679664 0.22376386"></polygon>
                            <polygon id="path3016" fill="#FFFFFF" points="0.0127227311 0.223757205 0.0127227311 22.5823261 155.091821 100.057371 0.0127227311 177.532446 0.0127227311 199.891048 44.8087258 199.891048 199.846192 122.52 354.883727 199.891048 399.679664 199.891048 399.679664 177.532446 244.600563 100.057438 399.679664 22.5823328 399.679664 0.22376386 354.883727 0.22376386 199.846192 77.5948752 44.8087258 0.22376386 0.0127227311 0.22376386"></polygon>
                            <polygon id="path3043" fill="#CF142B" points="0 15.2828985 184.795734 107.469418 0 200 29.8362029 200 214.477532 107.240399 399.692453 200 399.692453 184.9797 214.477532 92.5639268 399.692453 0.114778835 368.876067 0.114778835 184.795734 92.3607321 0 0.114778835"></polygon>
                            <polygon id="path3012" fill="#FFFFFF" points="166.540613 0.223777171 166.540613 66.7794975 0.0127893422 66.7794975 0.0127893422 133.335241 166.540613 133.335241 166.540613 199.890982 233.151771 199.890982 233.151771 133.335241 399.679664 133.335241 399.679664 66.7794975 233.151771 66.7794975 233.151771 0.223777171"></polygon>
                            <polygon id="path3014" fill="#CF142B" points="179.862911 0.223783827 179.862911 80.0906489 0.0127893422 80.0906489 0.0127893422 120.024093 179.862911 120.024093 179.862911 199.890982 219.829606 199.890982 219.829606 120.024093 399.679731 120.024093 399.679731 80.0906489 219.829606 80.0906489 219.829606 0.223783827"></polygon>
                        </g>
                    </g>
                </g>
            </g>
        </g>
    </g>
</svg>