<?xml version="1.0" encoding="UTF-8"?>
<svg width="60px" height="60px" viewBox="0 0 60 60" version="1.1" xmlns="http://www.w3.org/2000/svg" xmlns:xlink="http://www.w3.org/1999/xlink">
    <!-- Generator: Sketch 54.1 (76490) - https://sketchapp.com -->
    <title>ibnb</title>
    <desc>Created with Sketch.</desc>
    <g id="Page-1" stroke="none" stroke-width="1" fill="none" fill-rule="evenodd">
        <g id="Home-Page" transform="translate(-795.000000, -777.000000)">
            <g id="Tiles" transform="translate(217.000000, 592.000000)">
                <g id="Commod/crypto-tile" transform="translate(349.000000, 1.000000)">
                    <g id="ibnb" transform="translate(229.000000, 184.000000)">
                        <g id="sETH_red" fill="#BE392A">
                            <circle id="Oval-Copy" cx="30.0779626" cy="30.054242" r="29.9152659"></circle>
                        </g>
                        <path d="M9.44590289,22.8776978 C9.92284962,22.8776978 10.3180281,23.0288941 10.6314503,23.331291 C10.9448724,23.633688 11.1015811,24.0133585 11.1015811,24.4703139 C11.1015811,24.9272693 10.9448724,25.3102997 10.6314503,25.6194166 C10.3180281,25.9285334 9.92284962,26.0830896 9.44590289,26.0830896 C8.96895615,26.0830896 8.57037093,25.9285334 8.25013527,25.6194166 C7.9298996,25.3102997 7.76978417,24.9272693 7.76978417,24.4703139 C7.76978417,24.0133585 7.9298996,23.633688 8.25013527,23.331291 C8.57037093,23.0288941 8.96895615,22.8776978 9.44590289,22.8776978 Z M7.99462937,27.1918729 L10.8767359,27.1918729 L10.8767359,37.5539568 L7.99462937,37.5539568 L7.99462937,27.1918729 Z M18.541913,23.4421693 C20.204413,23.4421693 21.4921499,23.7647213 22.4051622,24.4098348 C23.3181745,25.0549483 23.7746739,25.9688454 23.7746739,27.1515535 C23.7746739,28.0251447 23.5293906,28.730727 23.0388169,29.2683216 C22.5482431,29.8059162 21.853274,30.1553474 20.9538887,30.3166258 C22.0167986,30.4510245 22.837816,30.787016 23.4169656,31.3246106 C23.9961152,31.8622052 24.2856857,32.6148264 24.2856857,33.5824966 C24.2856857,34.8189642 23.8087461,35.7899799 22.8548526,36.4955728 C21.9009591,37.2011657 20.5519015,37.5539568 18.8076391,37.5539568 L13.1047474,37.5539568 L13.1047474,23.4421693 L18.541913,23.4421693 Z M16.1708182,29.2481619 L18.6236749,29.2481619 C19.2777733,29.2481619 19.7887799,29.0936058 20.1567103,28.7844889 C20.5246406,28.475372 20.708603,28.0587424 20.708603,27.5345877 C20.708603,27.010433 20.5246406,26.5938034 20.1567103,26.2846865 C19.7887799,25.9755696 19.2777733,25.8210135 18.6236749,25.8210135 L16.1708182,25.8210135 L16.1708182,29.2481619 Z M16.1708182,35.154953 L18.8280796,35.154953 C19.5639403,35.154953 20.1328611,35.0003968 20.534859,34.6912799 C20.936857,34.3821631 21.1378529,33.9520938 21.1378529,33.4010594 C21.1378529,32.8231452 20.9334503,32.3762764 20.5246388,32.0604396 C20.1158273,31.7446027 19.5503132,31.5866867 18.8280796,31.5866867 L16.1708182,31.5866867 L16.1708182,35.154953 Z M26.3092924,37.5539568 L26.3092924,23.4421693 L29.0891966,23.4421693 L35.1600168,32.3325955 L35.1600168,23.4421693 L38.1852067,23.4421693 L38.1852067,37.5539568 L35.384862,37.5539568 L29.3140418,28.6635307 L29.3140418,37.5539568 L26.3092924,37.5539568 Z M46.0547885,23.4421693 C47.7172885,23.4421693 49.0050254,23.7647213 49.9180377,24.4098348 C50.83105,25.0549483 51.2875493,25.9688454 51.2875493,27.1515535 C51.2875493,28.0251447 51.0422661,28.730727 50.5516924,29.2683216 C50.0611186,29.8059162 49.3661495,30.1553474 48.4667642,30.3166258 C49.5296741,30.4510245 50.3506915,30.787016 50.9298411,31.3246106 C51.5089907,31.8622052 51.7985612,32.6148264 51.7985612,33.5824966 C51.7985612,34.8189642 51.3216216,35.7899799 50.3677281,36.4955728 C49.4138346,37.2011657 48.064777,37.5539568 46.3205146,37.5539568 L40.6176229,37.5539568 L40.6176229,23.4421693 L46.0547885,23.4421693 Z M43.6836937,29.2481619 L46.1365504,29.2481619 C46.7906487,29.2481619 47.3016554,29.0936058 47.6695858,28.7844889 C48.0375161,28.475372 48.2214785,28.0587424 48.2214785,27.5345877 C48.2214785,27.010433 48.0375161,26.5938034 47.6695858,26.2846865 C47.3016554,25.9755696 46.7906487,25.8210135 46.1365504,25.8210135 L43.6836937,25.8210135 L43.6836937,29.2481619 Z M43.6836937,35.154953 L46.3409551,35.154953 C47.0768158,35.154953 47.6457366,35.0003968 48.0477345,34.6912799 C48.4497325,34.3821631 48.6507284,33.9520938 48.6507284,33.4010594 C48.6507284,32.8231452 48.4463258,32.3762764 48.0375143,32.0604396 C47.6287028,31.7446027 47.0631887,31.5866867 46.3409551,31.5866867 L43.6836937,31.5866867 L43.6836937,35.154953 Z" id="iBNB" fill="#FFFFFF" fill-rule="nonzero"></path>
                    </g>
                </g>
            </g>
        </g>
    </g>
</svg>