<?xml version="1.0" encoding="UTF-8"?>
<svg width="60px" height="60px" viewBox="0 0 60 60" version="1.1" xmlns="http://www.w3.org/2000/svg" xmlns:xlink="http://www.w3.org/1999/xlink">
    <!-- Generator: Sketch 55.1 (78136) - https://sketchapp.com -->
    <title>iBTC</title>
    <desc>Created with Sketch.</desc>
    <g id="Page-1" stroke="none" stroke-width="1" fill="none" fill-rule="evenodd">
        <g id="Home-Page-(new-footer)" transform="translate(-595.000000, -777.000000)">
            <g id="Tiles" transform="translate(217.000000, 592.000000)">
                <g id="Commod/crypto-tile" transform="translate(349.000000, 1.000000)">
                    <g id="iBTC" transform="translate(29.000000, 184.000000)">
                        <g id="sBTC_skyblue" fill="#D42351">
                            <circle id="Oval-Copy" cx="30.0779626" cy="30.054242" r="29.9152659"></circle>
                        </g>
                        <path d="M9.48133228,22.0143885 C9.9683606,22.0143885 10.3718923,22.1767727 10.6919395,22.5015459 C11.0119867,22.8263192 11.1720078,23.2340839 11.1720078,23.7248524 C11.1720078,24.2156209 11.0119867,24.6269942 10.6919395,24.9589846 C10.3718923,25.290975 9.9683606,25.4569678 9.48133228,25.4569678 C8.99430396,25.4569678 8.58729354,25.290975 8.26028881,24.9589846 C7.93328408,24.6269942 7.76978417,24.2156209 7.76978417,23.7248524 C7.76978417,23.2340839 7.93328408,22.8263192 8.26028881,22.5015459 C8.58729354,22.1767727 8.99430396,22.0143885 9.48133228,22.0143885 Z M8.17004578,26.8745004 L11.1720078,26.8745004 L11.1720078,38.0122569 L8.17004578,38.0122569 L8.17004578,26.8745004 Z M19.4128602,22.6219025 C21.198314,22.6219025 22.5812881,22.9736785 23.5618242,23.6772411 C24.5423603,24.3808036 25.032621,25.3775023 25.032621,26.6673671 C25.032621,27.620108 24.7691973,28.3896181 24.2423421,28.9759202 C23.7154869,29.5622224 22.9691199,29.943313 22.0032187,30.1192037 C23.1447383,30.2657792 24.0264758,30.6322126 24.6484577,31.2185147 C25.2704395,31.8048169 25.5814258,32.6256276 25.5814258,33.6809714 C25.5814258,35.0294663 25.0692131,36.0884587 24.0447724,36.8579803 C23.0203317,37.6275018 21.5715016,38.0122569 19.6982387,38.0122569 L13.5735775,38.0122569 L13.5735775,22.6219025 L19.4128602,22.6219025 Z M16.7756704,28.899547 L19.5883195,28.899547 C20.338363,28.899547 20.9243258,28.744295 21.3462252,28.4337863 C21.7681247,28.1232776 21.9790713,27.7047722 21.9790713,27.1782574 C21.9790713,26.6517426 21.7681247,26.2332372 21.3462252,25.9227285 C20.9243258,25.6122198 20.338363,25.4569678 19.5883195,25.4569678 L16.7756704,25.4569678 L16.7756704,28.899547 Z M16.7756704,35.5822009 L19.6664487,35.5822009 C20.4669759,35.5822009 21.0858927,35.4155462 21.5232178,35.0822318 C21.9605428,34.7489173 22.1792021,34.2851825 22.1792021,33.6910133 C22.1792021,33.0678602 21.9568368,32.5860107 21.5120994,32.2454503 C21.0673621,31.90489 20.4521513,31.7346123 19.6664487,31.7346123 L16.7756704,31.7346123 L16.7756704,35.5822009 Z M25.5814258,22.6219025 L37.589274,22.6219025 L37.589274,25.4581249 L33.2109611,25.4581249 L33.2109611,38.0122569 L29.9597387,38.0122569 L29.9597387,25.4581249 L25.5814258,25.4581249 L25.5814258,22.6219025 Z M37.9895356,30.5195843 C37.9895356,28.9370821 38.2866164,27.5505648 38.8807869,26.3599907 C39.4749574,25.1694166 40.3268276,24.248769 41.436423,23.5980205 C42.5460185,22.9472719 43.8524581,22.6219025 45.355781,22.6219025 C46.5298046,22.6219025 47.5821148,22.8585348 48.5127433,23.3318065 C49.4433717,23.8050782 50.1950219,24.4706065 50.7677163,25.3284114 C51.3404108,26.1862164 51.6840223,27.1771141 51.7985612,28.3011344 L48.5771711,28.3011344 C48.3910454,27.41375 48.0009031,26.7149452 47.4067327,26.2046992 C46.8125622,25.6944531 46.0716499,25.4393339 45.1839735,25.4393339 C43.9813152,25.4393339 43.029225,25.9052038 42.3276743,26.8369574 C41.6261236,27.768711 41.2753535,28.9962411 41.2753535,30.5195843 C41.2753535,32.0281378 41.6261236,33.2519705 42.3276743,34.191119 C43.029225,35.1302675 43.9813152,35.5998347 45.1839735,35.5998347 C46.0716499,35.5998347 46.8125622,35.3447155 47.4067327,34.8344695 C48.0009031,34.3242235 48.3910454,33.6254187 48.5771711,32.7380343 L51.7985612,32.7380343 C51.6840223,33.8620546 51.3404108,34.8529523 50.7677163,35.7107572 C50.1950219,36.5685622 49.4433717,37.2340905 48.5127433,37.7073622 C47.5821148,38.1806339 46.5298046,38.4172662 45.355781,38.4172662 C43.8524581,38.4172662 42.5460185,38.0918968 41.436423,37.4411482 C40.3268276,36.7903996 39.4749574,35.8697521 38.8807869,34.679178 C38.2866164,33.4886039 37.9895356,32.1020865 37.9895356,30.5195843 Z" fill="#FFFFFF" fill-rule="nonzero"></path>
                    </g>
                </g>
            </g>
        </g>
    </g>
</svg>