<?xml version="1.0" encoding="UTF-8"?>
<svg width="60px" height="60px" viewBox="0 0 60 60" version="1.1" xmlns="http://www.w3.org/2000/svg" xmlns:xlink="http://www.w3.org/1999/xlink">
    <!-- Generator: Sketch 54.1 (76490) - https://sketchapp.com -->
    <title>ieth</title>
    <desc>Created with Sketch.</desc>
    <g id="Page-1" stroke="none" stroke-width="1" fill="none" fill-rule="evenodd">
        <g id="Home-Page" transform="translate(-695.000000, -776.000000)">
            <g id="Tiles" transform="translate(217.000000, 592.000000)">
                <g id="Commod/crypto-tile" transform="translate(349.000000, 1.000000)">
                    <g id="ieth" transform="translate(129.000000, 183.000000)">
                        <g id="sETH_red" fill="#BE392A">
                            <circle id="Oval-Copy" cx="30.0779626" cy="30.054242" r="29.9152659"></circle>
                        </g>
                        <path d="M9.52419574,21.8571429 C10.023421,21.8571429 10.4370587,22.0210817 10.765121,22.3489643 C11.0931833,22.6768469 11.2572121,23.0885155 11.2572121,23.5839826 C11.2572121,24.0794496 11.0931833,24.4947613 10.765121,24.8299302 C10.4370587,25.1650991 10.023421,25.332681 9.52419574,25.332681 C9.02497044,25.332681 8.60776699,25.1650991 8.27257285,24.8299302 C7.93737872,24.4947613 7.76978417,24.0794496 7.76978417,23.5839826 C7.76978417,23.0885155 7.93737872,22.6768469 8.27257285,22.3489643 C8.60776699,22.0210817 9.02497044,21.8571429 9.52419574,21.8571429 Z M7.98774842,26.4187867 L11.0392478,26.4187867 L11.0392478,37.7142857 L7.98774842,37.7142857 L7.98774842,26.4187867 Z M13.4368545,22.2915851 L23.8728555,22.2915851 L23.8728555,25.1337685 L16.7674931,25.1337685 L16.7674931,28.5928599 L22.5406001,28.5928599 L22.5406001,31.3028488 L16.7674931,31.3028488 L16.7674931,34.8721023 L24.1171024,34.8721023 L24.1171024,37.7142857 L13.4368545,37.7142857 L13.4368545,22.2915851 Z M25.2069236,22.2915851 L37.4129211,22.2915851 L37.4129211,25.1337685 L32.9623589,25.1337685 L32.9623589,37.7142857 L29.6574859,37.7142857 L29.6574859,25.1337685 L25.2069236,25.1337685 L25.2069236,22.2915851 Z M39.1566351,22.2915851 L42.4374117,22.2915851 L42.4374117,28.4826978 L48.5177845,28.4826978 L48.5177845,22.2915851 L51.7985612,22.2915851 L51.7985612,37.7142857 L48.5177845,37.7142857 L48.5177845,31.3469136 L42.4374117,31.3469136 L42.4374117,37.7142857 L39.1566351,37.7142857 L39.1566351,22.2915851 Z" id="iETH" fill="#FFFFFF" fill-rule="nonzero"></path>
                    </g>
                </g>
            </g>
        </g>
    </g>
</svg>