<svg width="160" height="160" viewBox="0 0 160 160" fill="none" xmlns="http://www.w3.org/2000/svg">
<path d="M79.774 159.548C123.832 159.548 159.548 123.832 159.548 79.774C159.548 35.7161 123.832 0 79.774 0C35.7161 0 0 35.7161 0 79.774C0 123.832 35.7161 159.548 79.774 159.548Z" fill="#D42351"/>
<path d="M21.3635 60C22.6052 60 23.634 60.4107 24.45 61.2321C25.2659 62.0179 25.6739 63.0179 25.6739 64.2321C25.6739 65.4464 25.2659 66.4643 24.45 67.2857C23.634 68.1071 22.6052 68.5179 21.3635 68.5179C20.1219 68.5179 19.0753 68.1071 18.2239 67.2857C17.408 66.4643 17 65.4464 17 64.2321C17 63.0179 17.408 62.0179 18.2239 61.2321C19.0753 60.4107 20.1219 60 21.3635 60ZM17.5854 71.4643H25.0885V99H17.5854V71.4643Z" fill="white"/>
<path d="M30.9026 99V61.5H38.8847V92.0893H53.6782V99H30.9026Z" fill="white"/>
<path d="M57.9773 61.5H65.9594V99H57.9773V61.5Z" fill="white"/>
<path d="M72.2682 99V61.5H79.5053L95.3098 85.125V61.5H103.186V99H95.8952L80.0906 75.375V99H72.2682Z" fill="white"/>
<path d="M109.528 61.5536H117.51V78.375L132.41 61.5536H142.095L128.419 76.9821L143 99H133.421L122.779 83.1964L117.51 89.1429V99H109.528V61.5536Z" fill="white"/>
</svg>
