<?xml version="1.0" encoding="UTF-8"?>
<svg width="160px" height="160px" viewBox="0 0 160 160" version="1.1" xmlns="http://www.w3.org/2000/svg" xmlns:xlink="http://www.w3.org/1999/xlink">
    <!-- Generator: Sketch 55.2 (78181) - https://sketchapp.com -->
    <title>iMKR</title>
    <desc>Created with Sketch.</desc>
    <g id="Page-1" stroke="none" stroke-width="1" fill="none" fill-rule="evenodd">
        <g id="iMKR">
            <circle id="Oval-Copy" fill="#D42351" cx="79.7740424" cy="79.7740424" r="79.7740424"></circle>
            <path d="M20.8629333,60.8 C22.0949395,60.8 23.1157293,61.195996 23.9253333,61.988 C24.7349374,62.780004 25.1397333,63.774394 25.1397333,64.9712 C25.1397333,66.168006 24.7349374,67.171196 23.9253333,67.9808 C23.1157293,68.790404 22.0949395,69.1952 20.8629333,69.1952 C19.6309272,69.1952 18.6013375,68.790404 17.7741333,67.9808 C16.9469292,67.171196 16.5333333,66.168006 16.5333333,64.9712 C16.5333333,63.774394 16.9469292,62.780004 17.7741333,61.988 C18.6013375,61.195996 19.6309272,60.8 20.8629333,60.8 Z M17.1141333,72.0992 L24.5589333,72.0992 L24.5589333,99.2384 L17.1141333,99.2384 L17.1141333,72.0992 Z M30.3141333,62.2784 L40.7157333,62.2784 L50.9589333,89.4176 L60.8853333,62.2784 L71.0757333,62.2784 L71.0757333,99.2384 L63.5253333,99.2384 L63.5253333,74.4752 L53.9157333,99.2384 L47.4741333,99.2384 L37.8645333,74.4752 L37.8645333,99.2384 L30.3141333,99.2384 L30.3141333,62.2784 Z M77.4117333,62.3312 L85.3317333,62.3312 L85.3317333,78.9104 L100.115733,62.3312 L109.725333,62.3312 L96.1557333,77.5376 L110.622933,99.2384 L101.118933,99.2384 L90.5589333,83.6624 L85.3317333,89.5232 L85.3317333,99.2384 L77.4117333,99.2384 L77.4117333,62.3312 Z M128.522133,62.2784 C131.197347,62.2784 133.564523,62.779995 135.623733,63.7832 C137.682944,64.786405 139.275728,66.2207907 140.402133,68.0864 C141.528539,69.9520093 142.091733,72.1167877 142.091733,74.5808 C142.091733,76.9392118 141.528539,79.0247909 140.402133,80.8376 C139.275728,82.6504091 137.726943,84.0319952 135.755733,84.9824 L143.042133,99.2384 L134.277333,99.2384 L128.099733,86.8304 L121.394133,86.8304 L121.394133,99.2384 L113.474133,99.2384 L113.474133,62.2784 L128.522133,62.2784 Z M121.394133,80.2304 L127.888533,80.2304 C129.754143,80.2304 131.241328,79.7200051 132.350133,78.6992 C133.458939,77.6783949 134.013333,76.3056086 134.013333,74.5808 C134.013333,72.8207912 133.458939,71.4304051 132.350133,70.4096 C131.241328,69.3887949 129.754143,68.8784 127.888533,68.8784 L121.394133,68.8784 L121.394133,80.2304 Z" fill="#FFFFFF" fill-rule="nonzero"></path>
        </g>
    </g>
</svg>