<?xml version="1.0" encoding="UTF-8"?>
<svg width="160px" height="160px" viewBox="0 0 160 160" version="1.1" xmlns="http://www.w3.org/2000/svg" xmlns:xlink="http://www.w3.org/1999/xlink">
    <!-- Generator: Sketch 55.2 (78181) - https://sketchapp.com -->
    <title>iTRX</title>
    <desc>Created with Sketch.</desc>
    <g id="Page-1" stroke="none" stroke-width="1" fill="none" fill-rule="evenodd">
        <g id="iTRX">
            <circle id="Oval-Copy" fill="#D42351" cx="79.7740424" cy="79.7740424" r="79.7740424"></circle>
            <path d="M25.392,59.2 C26.6986732,59.2 27.781329,59.6199958 28.64,60.46 C29.498671,61.3000042 29.928,62.3546603 29.928,63.624 C29.928,64.8933397 29.498671,65.957329 28.64,66.816 C27.781329,67.674671 26.6986732,68.104 25.392,68.104 C24.0853268,68.104 22.9933377,67.674671 22.116,66.816 C21.2386623,65.957329 20.8,64.8933397 20.8,63.624 C20.8,62.3546603 21.2386623,61.3000042 22.116,60.46 C22.9933377,59.6199958 24.0853268,59.2 25.392,59.2 Z M21.416,71.184 L29.312,71.184 L29.312,99.968 L21.416,99.968 L21.416,71.184 Z M33.288,60.768 L64.312,60.768 L64.312,67.992 L53,67.992 L53,99.968 L44.6,99.968 L44.6,67.992 L33.288,67.992 L33.288,60.768 Z M84.864,60.768 C87.7013475,60.768 90.2119891,61.2999947 92.396,62.364 C94.5800109,63.4280053 96.2693274,64.9493234 97.464,66.928 C98.6586726,68.9066766 99.256,71.2026536 99.256,73.816 C99.256,76.3173458 98.6586726,78.5293237 97.464,80.452 C96.2693274,82.3746763 94.6266771,83.839995 92.536,84.848 L100.264,99.968 L90.968,99.968 L84.416,86.808 L77.304,86.808 L77.304,99.968 L68.904,99.968 L68.904,60.768 L84.864,60.768 Z M77.304,79.808 L84.192,79.808 C86.1706766,79.808 87.7479941,79.2666721 88.924,78.184 C90.1000059,77.1013279 90.688,75.6453425 90.688,73.816 C90.688,71.949324 90.1000059,70.4746721 88.924,69.392 C87.7479941,68.3093279 86.1706766,67.768 84.192,67.768 L77.304,67.768 L77.304,79.808 Z M115.048,79.976 L102.84,60.768 L113.032,60.768 L120.76,73.088 L128.656,60.768 L137.84,60.768 L125.632,79.976 L138.456,99.968 L128.208,99.968 L119.864,86.808 L111.352,99.968 L102.224,99.968 L115.048,79.976 Z" fill="#FFFFFF" fill-rule="nonzero"></path>
        </g>
    </g>
</svg>