<?xml version="1.0" encoding="UTF-8"?>
<svg width="160px" height="160px" viewBox="0 0 160 160" version="1.1" xmlns="http://www.w3.org/2000/svg" xmlns:xlink="http://www.w3.org/1999/xlink">
    <!-- Generator: Sketch 55.2 (78181) - https://sketchapp.com -->
    <title>iXTZ</title>
    <desc>Created with Sketch.</desc>
    <g id="Page-1" stroke="none" stroke-width="1" fill="none" fill-rule="evenodd">
        <g id="iXTZ">
            <circle id="Oval-Copy" fill="#D42351" cx="79.7740424" cy="79.7740424" r="79.7740424"></circle>
            <path d="M26.4586667,59.2 C27.7653399,59.2 28.8479957,59.6199958 29.7066667,60.46 C30.5653376,61.3000042 30.9946667,62.3546603 30.9946667,63.624 C30.9946667,64.8933397 30.5653376,65.957329 29.7066667,66.816 C28.8479957,67.674671 27.7653399,68.104 26.4586667,68.104 C25.1519935,68.104 24.0600044,67.674671 23.1826667,66.816 C22.3053289,65.957329 21.8666667,64.8933397 21.8666667,63.624 C21.8666667,62.3546603 22.3053289,61.3000042 23.1826667,60.46 C24.0600044,59.6199958 25.1519935,59.2 26.4586667,59.2 Z M22.4826667,71.184 L30.3786667,71.184 L30.3786667,99.968 L22.4826667,99.968 L22.4826667,71.184 Z M46.7866667,79.976 L34.5786667,60.768 L44.7706667,60.768 L52.4986667,73.088 L60.3946667,60.768 L69.5786667,60.768 L57.3706667,79.976 L70.1946667,99.968 L59.9466667,99.968 L51.6026667,86.808 L43.0906667,99.968 L33.9626667,99.968 L46.7866667,79.976 Z M72.2666667,60.768 L103.290667,60.768 L103.290667,67.992 L91.9786667,67.992 L91.9786667,99.968 L83.5786667,99.968 L83.5786667,67.992 L72.2666667,67.992 L72.2666667,60.768 Z M106.538667,60.768 L137.674667,60.768 L137.674667,66.312 L117.570667,92.8 L138.178667,92.8 L138.178667,99.968 L106.034667,99.968 L106.034667,94.424 L126.138667,67.936 L106.538667,67.936 L106.538667,60.768 Z" fill="#FFFFFF" fill-rule="nonzero"></path>
        </g>
    </g>
</svg>