<svg width="40" height="40" viewBox="0 0 40 40" fill="none" xmlns="http://www.w3.org/2000/svg">
<circle cx="20" cy="20" r="20" fill="url(#paint0_linear)"/>
<path d="M22.9728 14.0696C22.9722 14.1568 22.969 14.2437 22.9631 14.3307C22.9601 14.3737 22.9556 14.4165 22.951 14.4594C22.9356 14.6046 22.9697 14.3396 22.9472 14.4833C22.919 14.6635 22.8731 14.8405 22.8166 15.0137C22.8037 15.0532 22.7894 15.0923 22.7751 15.1313C22.7666 15.1544 22.7131 15.2852 22.7685 15.1543C22.7364 15.2302 22.7001 15.3043 22.6627 15.3776C22.582 15.5356 22.4863 15.6856 22.3824 15.8293C22.3008 15.942 22.4551 15.7392 22.3684 15.8478C22.343 15.8797 22.3164 15.9106 22.2899 15.9415C22.2369 16.0034 22.1806 16.0623 22.1234 16.1202C22.0661 16.1782 22.0058 16.233 21.9446 16.2868C21.914 16.3137 21.8825 16.3395 21.851 16.3653C21.8038 16.4027 21.8085 16.3993 21.8652 16.355C21.8434 16.3713 21.8215 16.3874 21.7994 16.4032C21.6667 16.4993 21.5256 16.5834 21.3807 16.6596C21.3078 16.698 21.2329 16.7323 21.1574 16.7653C21.2875 16.7085 21.1577 16.763 21.1344 16.7719C21.0826 16.7917 21.0299 16.8092 20.9772 16.8264C20.8171 16.8786 20.6524 16.916 20.4865 16.9441C20.3431 16.9684 20.6076 16.9306 20.4625 16.9479C20.4198 16.953 20.3768 16.9564 20.3339 16.9599C20.2325 16.9681 20.1306 16.97 20.0289 16.9694C19.942 16.9688 19.8551 16.9634 19.7685 16.9564C19.7257 16.9529 19.683 16.9479 19.6403 16.9428C19.7859 16.9601 19.6427 16.9413 19.617 16.9369C19.4375 16.9065 19.2614 16.8585 19.0892 16.8C19.0499 16.7867 19.011 16.7719 18.9723 16.7571C18.8403 16.7069 19.0793 16.8052 18.9502 16.7488C18.8747 16.7158 18.8011 16.6787 18.7283 16.6404C18.5713 16.5579 18.4225 16.4605 18.2802 16.3549C18.3925 16.4382 18.2821 16.3551 18.2629 16.3395C18.2314 16.3136 18.2007 16.2868 18.1701 16.2599C18.109 16.2061 18.0506 16.1492 17.9934 16.0913C17.9361 16.0333 17.882 15.9724 17.829 15.9106C17.8024 15.8797 17.777 15.8478 17.7515 15.816C17.8425 15.9299 17.7314 15.7854 17.7155 15.7629C17.621 15.629 17.5385 15.4869 17.464 15.341C17.4453 15.3043 17.4279 15.267 17.4105 15.2297C17.3999 15.207 17.3466 15.0773 17.4003 15.2085C17.3636 15.1187 17.3324 15.0268 17.3034 14.9342C17.2531 14.7732 17.2177 14.6078 17.1916 14.4412C17.2143 14.5862 17.1926 14.4425 17.1899 14.4166C17.1853 14.3737 17.1823 14.3306 17.1794 14.2875C17.1724 14.1859 17.1718 14.0838 17.1737 13.982C17.1753 13.8953 17.1818 13.8088 17.1899 13.7225C17.1923 13.6968 17.2126 13.5523 17.1916 13.6979C17.1976 13.6558 17.2053 13.614 17.2129 13.5722C17.2455 13.3934 17.2955 13.2181 17.356 13.0469C17.3699 13.0078 17.3851 12.9692 17.4003 12.9306C17.3484 13.0622 17.4001 12.9325 17.4105 12.9095C17.4443 12.8345 17.4822 12.7614 17.5214 12.6891C17.5604 12.617 17.6032 12.5471 17.6472 12.4781C17.6692 12.4436 17.6924 12.4099 17.7155 12.3763C17.7311 12.3538 17.8413 12.2081 17.7516 12.3232C17.8518 12.1946 17.9631 12.0751 18.0803 11.962C18.1389 11.9054 18.2005 11.852 18.2629 11.7997C18.2817 11.784 18.3917 11.6995 18.2802 11.7842C18.3235 11.7513 18.3682 11.7201 18.413 11.6892C18.5481 11.5962 18.6913 11.5154 18.8381 11.4426C18.8751 11.4243 18.9126 11.4073 18.9502 11.3904C19.0786 11.3324 18.841 11.4338 18.9723 11.382C19.0626 11.3463 19.1551 11.3162 19.2481 11.2883C19.3286 11.2642 19.4104 11.2446 19.4924 11.2265C19.5337 11.2174 19.5754 11.2098 19.6171 11.2022C19.6424 11.1976 19.786 11.1772 19.6404 11.1963C19.8271 11.1718 20.0159 11.1661 20.2039 11.1719C20.2904 11.1746 20.3766 11.1821 20.4625 11.1913C20.6078 11.2067 20.3428 11.1725 20.4865 11.1951C20.5284 11.2016 20.57 11.2097 20.6117 11.2179C20.7898 11.2526 20.9642 11.3047 21.1345 11.3672C21.1576 11.3757 21.2884 11.4292 21.1574 11.3738C21.1954 11.3899 21.2328 11.4073 21.2702 11.4247C21.3447 11.4595 21.4173 11.4982 21.4891 11.5382C21.5606 11.578 21.63 11.6216 21.6985 11.6665C21.7326 11.6888 21.766 11.7124 21.7994 11.736C21.8193 11.7501 21.9297 11.8346 21.8191 11.7485C21.9476 11.8486 22.0672 11.96 22.1803 12.0772C22.2369 12.1358 22.2903 12.1973 22.3426 12.2598C22.3584 12.2786 22.4428 12.3886 22.3581 12.2771C22.3828 12.3096 22.4063 12.343 22.4299 12.3763C22.5244 12.5102 22.6069 12.6523 22.6814 12.7981C22.7001 12.8348 22.7175 12.8721 22.735 12.9095C22.7455 12.9321 22.7987 13.0619 22.7451 12.9306C22.7765 13.0076 22.8037 13.0861 22.8295 13.1651C22.8817 13.3253 22.919 13.4899 22.9472 13.6559C22.9715 13.7993 22.9337 13.5347 22.951 13.6798C22.9561 13.7226 22.9596 13.7656 22.9631 13.8085C22.9701 13.8953 22.9722 13.9825 22.9728 14.0696C22.9747 14.3676 23.2201 14.6164 23.5197 14.6164C23.8164 14.6164 24.0684 14.3677 24.0666 14.0696C24.057 12.5356 23.1546 11.0816 21.7473 10.4459C20.2761 9.78137 18.565 10.0549 17.3665 11.1331C16.2137 12.1701 15.7911 13.8824 16.2875 15.3438C16.5281 16.052 16.9675 16.6967 17.5529 17.1641C18.1872 17.6705 18.9198 17.9605 19.7256 18.0461C20.8371 18.1642 21.9568 17.7457 22.779 17.006C23.6016 16.266 24.0596 15.169 24.0665 14.0696C24.0684 13.7714 23.8164 13.5227 23.5196 13.5227C23.2201 13.5227 22.9747 13.7715 22.9728 14.0696Z" fill="black"/>
<path d="M24.0211 17.9259C24.0977 17.9747 24.1727 18.0255 24.2466 18.0784C24.2612 18.0888 24.3812 18.181 24.2804 18.1022C24.3161 18.1301 24.3508 18.1591 24.3856 18.1882C24.5361 18.3138 24.6757 18.4521 24.8075 18.5972C24.8683 18.6642 24.926 18.7341 24.9824 18.8048C24.9027 18.705 24.9956 18.8242 25.0062 18.8387C25.033 18.8753 25.0586 18.9128 25.0841 18.9502C25.1955 19.1133 25.2926 19.2856 25.3802 19.4624C25.4004 19.5034 25.4194 19.5451 25.4384 19.5867C25.5018 19.7262 25.3973 19.4828 25.4547 19.6252C25.4893 19.7108 25.5196 19.798 25.5484 19.8857C25.6117 20.0781 25.6579 20.2758 25.6929 20.4752C25.6961 20.4938 25.7182 20.6503 25.7009 20.5174C25.7071 20.5647 25.7116 20.6122 25.7162 20.6597C25.7254 20.7557 25.7297 20.8521 25.7324 20.9484C25.7338 20.9982 25.7335 21.048 25.7335 21.0978C25.7335 21.938 25.7335 22.7781 25.7335 23.6183C25.7335 23.7075 25.7335 23.7967 25.7335 23.8859C25.7335 23.9213 25.7324 23.9388 25.7307 23.974C25.7236 24.1195 25.7535 23.8576 25.728 23.9992C25.7206 24.0408 25.7091 24.0816 25.6977 24.1222C25.6909 24.1463 25.6403 24.2779 25.6952 24.1482C25.663 24.2242 25.6203 24.2954 25.5747 24.364C25.4982 24.4792 25.6493 24.2776 25.5594 24.3824C25.5238 24.4239 25.484 24.4614 25.4437 24.4981C25.3417 24.5912 25.538 24.4335 25.4252 24.5135C25.3917 24.5373 25.356 24.558 25.3204 24.5786C25.2846 24.5993 25.247 24.6166 25.2094 24.6339C25.3359 24.5757 25.2088 24.6284 25.1835 24.6364C25.1432 24.6491 25.1018 24.6579 25.0605 24.6667C24.9197 24.6967 25.1805 24.6576 25.0353 24.6694C25.0052 24.6718 24.9746 24.6722 24.9444 24.6722C24.9072 24.6722 24.8699 24.6722 24.8327 24.6722C24.258 24.6722 23.6834 24.6722 23.1087 24.6722C21.1529 24.6722 19.1971 24.6722 17.2412 24.6722C16.6209 24.6722 16.0006 24.6722 15.3804 24.6722C15.327 24.6722 15.2735 24.6722 15.2201 24.6722C15.2128 24.6722 15.2054 24.6722 15.1981 24.6722C15.1595 24.6722 15.1488 24.6712 15.1103 24.6694C14.9648 24.6623 15.2268 24.6922 15.0852 24.6667C15.0435 24.6593 15.0028 24.6478 14.9621 24.6364C14.9354 24.6284 14.9089 24.6196 14.8827 24.61C14.9487 24.6397 14.954 24.6419 14.8985 24.6166C14.8237 24.5821 14.754 24.5373 14.6869 24.4897C14.7984 24.5688 14.6915 24.4886 14.6717 24.4705C14.6415 24.4429 14.6138 24.4126 14.5862 24.3824C14.4932 24.2804 14.6509 24.4767 14.5709 24.3639C14.547 24.3304 14.5264 24.2947 14.5058 24.2591C14.485 24.2233 14.4677 24.1856 14.4505 24.1481C14.5109 24.2793 14.4447 24.1108 14.4365 24.0817C14.4251 24.0407 14.4175 23.9989 14.41 23.9572C14.4354 24.0984 14.4142 23.9586 14.4129 23.9304C14.412 23.9121 14.4121 23.8936 14.4121 23.8753C14.4121 23.8342 14.4121 23.7932 14.4121 23.7522C14.4121 22.8996 14.4121 22.0471 14.4121 21.1945C14.4121 21.0477 14.4129 20.9015 14.422 20.7549C14.4249 20.707 14.4295 20.6592 14.4341 20.6114C14.4359 20.5929 14.4569 20.4349 14.4381 20.5677C14.4513 20.4742 14.4692 20.3814 14.4887 20.2891C14.5303 20.0917 14.5892 19.8983 14.6586 19.709C14.6745 19.6657 14.6918 19.623 14.709 19.5802C14.6606 19.7001 14.7198 19.559 14.7274 19.5425C14.7653 19.4592 14.8073 19.3778 14.8506 19.2972C14.9439 19.1234 15.052 18.9579 15.1685 18.7988C15.2581 18.6765 15.0995 18.8843 15.1941 18.766C15.2224 18.7306 15.2518 18.6961 15.2813 18.6616C15.3401 18.5927 15.4022 18.5266 15.4653 18.4616C15.5284 18.3966 15.5945 18.3346 15.6616 18.2737C15.6952 18.2433 15.7297 18.2139 15.7642 18.1845C15.7815 18.1698 15.9339 18.05 15.8308 18.1287C15.9151 18.0644 16.0027 18.0046 16.0915 17.9468C16.3409 17.7844 16.4439 17.4651 16.2877 17.1985C16.1426 16.9508 15.7896 16.8395 15.5395 17.0024C14.1715 17.8932 13.3184 19.4133 13.3184 21.0529C13.3184 21.8591 13.3184 22.6652 13.3184 23.4714C13.3184 23.9291 13.3295 24.3493 13.5418 24.7749C13.849 25.3908 14.5385 25.766 15.2138 25.766C15.6702 25.766 16.1267 25.766 16.5831 25.766C18.5194 25.766 20.4558 25.766 22.3921 25.766C23.1111 25.766 23.8301 25.766 24.549 25.766C24.6797 25.766 24.8105 25.766 24.9412 25.766C25.7357 25.766 26.4276 25.2645 26.7109 24.5313C26.8533 24.1629 26.8273 23.7639 26.8273 23.3767C26.8273 22.8861 26.8273 22.3954 26.8273 21.9047C26.8273 21.6184 26.8273 21.3321 26.8273 21.0458C26.8273 20.199 26.5973 19.3613 26.1738 18.629C25.7862 17.9585 25.224 17.3967 24.5732 16.9815C24.3216 16.821 23.9711 16.9281 23.8249 17.1776C23.6698 17.4424 23.7702 17.7658 24.0211 17.9259ZM31.5698 17.1104C31.569 17.197 31.5642 17.2829 31.5551 17.3691C31.5703 17.224 31.5537 17.3649 31.5489 17.3915C31.5413 17.4329 31.5315 17.4738 31.5216 17.5146C31.5021 17.5955 31.4757 17.6745 31.4473 17.7526C31.3993 17.8846 31.4965 17.6463 31.439 17.774C31.4166 17.8238 31.391 17.8721 31.3649 17.92C31.3261 17.9917 31.2815 18.0601 31.2351 18.1271C31.1563 18.241 31.3089 18.038 31.2222 18.1457C31.1968 18.1774 31.1697 18.2076 31.1426 18.2377C31.0884 18.2981 31.0294 18.354 30.969 18.4082C30.9388 18.4353 30.9072 18.4607 30.8756 18.4862C30.9891 18.3949 30.8448 18.5036 30.8213 18.5193C30.7533 18.5646 30.6817 18.6042 30.6093 18.6418C30.5728 18.6606 30.5354 18.6775 30.4979 18.6944C30.6272 18.6362 30.4994 18.6911 30.4752 18.7C30.3968 18.7285 30.3163 18.7504 30.2353 18.77C30.1943 18.7798 30.1528 18.7874 30.1114 18.795C30.0493 18.8048 30.0557 18.8043 30.1305 18.7936C30.1022 18.7969 30.0737 18.7995 30.0452 18.8018C29.9586 18.8092 29.8715 18.8092 29.7847 18.8067C29.7415 18.8055 29.6985 18.8018 29.6556 18.7981C29.5106 18.7856 29.7747 18.8183 29.6322 18.795C29.5493 18.7815 29.4677 18.761 29.3869 18.7382C29.347 18.727 29.3077 18.7135 29.2684 18.7C29.2424 18.6908 29.2166 18.6811 29.191 18.671C29.2581 18.7001 29.2638 18.7023 29.2082 18.6775C29.1335 18.6439 29.0618 18.6042 28.9913 18.5626C28.9562 18.5419 28.9223 18.5193 28.8884 18.4968C28.8678 18.4831 28.757 18.4001 28.868 18.4862C28.7289 18.3784 28.606 18.251 28.4959 18.1141C28.5836 18.2231 28.4997 18.1145 28.4853 18.0937C28.4621 18.0602 28.4408 18.0255 28.4195 17.9908C28.3766 17.9211 28.3395 17.848 28.3046 17.774C28.2447 17.6474 28.3468 17.8837 28.2962 17.7526C28.2813 17.714 28.2686 17.6745 28.2559 17.635C28.2258 17.5419 28.2046 17.4462 28.1871 17.35C28.1611 17.2079 28.1992 17.4713 28.184 17.3266C28.1795 17.2837 28.1774 17.2406 28.1754 17.1975C28.1712 17.1107 28.1745 17.0237 28.1803 16.937C28.1821 16.9109 28.2012 16.7668 28.1802 16.9126C28.1862 16.8708 28.1947 16.8293 28.203 16.7879C28.2223 16.6925 28.2505 16.5991 28.2821 16.507C28.2903 16.4832 28.3437 16.3535 28.2877 16.4843C28.3039 16.4466 28.3221 16.4098 28.3403 16.373C28.3766 16.2998 28.4188 16.2297 28.4628 16.161C28.4847 16.1267 28.5085 16.0937 28.5322 16.0607C28.4509 16.1737 28.5308 16.0638 28.5474 16.0439C28.608 15.9712 28.6751 15.9042 28.7444 15.8397C28.7741 15.8121 28.8052 15.786 28.8364 15.7601C28.8833 15.7225 28.8785 15.7261 28.822 15.7709C28.8438 15.7549 28.866 15.7393 28.8884 15.724C28.9668 15.6698 29.0498 15.6228 29.1343 15.579C29.1708 15.5601 29.2082 15.5433 29.2457 15.5264C29.1111 15.587 29.2803 15.5167 29.3076 15.5074C29.4133 15.4711 29.5224 15.4459 29.6322 15.4258C29.7743 15.3998 29.5109 15.438 29.6556 15.4227C29.7129 15.4167 29.7706 15.4145 29.8281 15.4129C29.9291 15.41 30.0302 15.4166 30.1306 15.4272C29.9854 15.4119 30.1264 15.4285 30.153 15.4334C30.2081 15.4434 30.2624 15.4571 30.3165 15.4713C30.3701 15.4853 30.4227 15.5028 30.4752 15.5208C30.5012 15.53 30.5269 15.5396 30.5526 15.5498C30.4855 15.5207 30.4798 15.5185 30.5354 15.5433C30.6224 15.5825 30.7057 15.6296 30.787 15.6795C30.8216 15.7008 30.8552 15.724 30.8886 15.7472C30.9371 15.7828 30.9327 15.7786 30.8756 15.7346C30.8968 15.7514 30.9177 15.7685 30.9384 15.7861C31.0111 15.8468 31.0781 15.9138 31.1426 15.9831C31.1794 16.0227 31.2137 16.0646 31.2477 16.1067C31.1563 15.9932 31.2651 16.1375 31.2808 16.161C31.3337 16.2404 31.3792 16.3244 31.4215 16.4098C31.4328 16.4327 31.4859 16.561 31.4325 16.4297C31.4533 16.4809 31.4707 16.5333 31.4877 16.5858C31.5177 16.6789 31.539 16.7746 31.5565 16.8708C31.5663 16.933 31.5658 16.9266 31.5551 16.8517C31.5584 16.8801 31.5611 16.9085 31.5633 16.9371C31.5682 16.9946 31.5693 17.0525 31.5698 17.1104C31.5727 17.4084 31.8165 17.6572 32.1167 17.6572C32.4127 17.6572 32.6664 17.4085 32.6636 17.1104C32.656 16.3138 32.317 15.5366 31.7118 15.0126C31.0576 14.4463 30.2306 14.2425 29.3832 14.3642C28.604 14.4762 27.9139 14.9908 27.4964 15.6432C27.0635 16.3197 26.9689 17.2054 27.214 17.9653C27.4183 18.5986 27.8466 19.1286 28.4047 19.4857C28.9893 19.8598 29.6848 19.9535 30.3604 19.8565C31.6872 19.6658 32.6512 18.4154 32.6636 17.1104C32.6664 16.8122 32.4127 16.5635 32.1167 16.5635C31.8165 16.5635 31.5727 16.8123 31.5698 17.1104Z" fill="black"/>
<path d="M32.3471 19.7865C32.3851 19.8109 32.4225 19.8358 32.4597 19.8614C32.4751 19.872 32.5938 19.9636 32.4929 19.8839C32.5634 19.9396 32.6299 20.0004 32.6946 20.0626C32.7594 20.1248 32.8196 20.1917 32.8781 20.2599C32.8903 20.2742 32.981 20.393 32.904 20.2904C32.94 20.3384 32.9733 20.3885 33.0062 20.4387C33.0557 20.5145 33.0995 20.5937 33.1413 20.6738C33.1623 20.7141 33.1813 20.7554 33.2003 20.7966C33.146 20.6786 33.2075 20.8166 33.2145 20.8348C33.2474 20.9208 33.2737 21.0091 33.2977 21.098C33.3098 21.1428 33.3196 21.1882 33.3295 21.2336C33.3347 21.2577 33.3654 21.4559 33.3479 21.3197C33.3991 21.7163 33.3679 22.1336 33.3679 22.5321C33.3679 22.7692 33.3679 23.0063 33.3679 23.2435C33.3679 23.3126 33.3679 23.3818 33.3679 23.451C33.3679 23.4665 33.3679 23.4821 33.3679 23.4977C33.3679 23.4997 33.3679 23.5018 33.3679 23.5039C33.3679 23.5327 33.3665 23.5613 33.3637 23.59C33.3746 23.5148 33.3739 23.5078 33.3617 23.5691C33.3556 23.5962 33.3056 23.7224 33.3619 23.5937C33.3456 23.6311 33.3241 23.6659 33.3027 23.7004C33.2318 23.8152 33.3785 23.6171 33.2879 23.7164C33.2695 23.7367 33.1663 23.8202 33.2768 23.7369C33.2444 23.7613 33.2087 23.7811 33.1733 23.8008C33.0543 23.8668 33.2824 23.765 33.1521 23.8077C33.1243 23.8168 32.9893 23.8384 33.1329 23.8207C33.1068 23.8239 33.0719 23.8249 33.0457 23.8249C32.9863 23.8249 32.9269 23.8249 32.8674 23.8249C31.3098 23.8249 29.7521 23.8249 28.1944 23.8249C28.1902 23.8249 28.1859 23.8249 28.1816 23.8249C27.8835 23.8249 27.6348 24.0737 27.6348 24.3718C27.6348 24.6699 27.8835 24.9187 28.1816 24.9187C29.7106 24.9187 31.2396 24.9187 32.7685 24.9187C33.1539 24.9187 33.5357 24.9025 33.8612 24.6569C34.2296 24.3789 34.4617 23.9708 34.4617 23.5012C34.4617 23.3662 34.4617 23.2313 34.4617 23.0964C34.4617 22.6461 34.4617 22.1959 34.4617 21.7456C34.4617 21.0576 34.2893 20.3856 33.9008 19.8117C33.6359 19.4206 33.2962 19.0971 32.8992 18.8422C32.6481 18.681 32.2968 18.7894 32.151 19.0384C31.9955 19.3036 32.0967 19.6258 32.3471 19.7865ZM11.9717 17.1104C11.9709 17.197 11.966 17.2829 11.957 17.3691C11.9723 17.224 11.9557 17.3649 11.9508 17.3915C11.9433 17.4329 11.9333 17.4738 11.9235 17.5146C11.904 17.5955 11.8777 17.6745 11.8492 17.7526C11.8011 17.8846 11.8984 17.6463 11.8409 17.774C11.8184 17.8238 11.7928 17.8721 11.7668 17.92C11.728 17.9917 11.6834 18.0601 11.637 18.1271C11.5582 18.241 11.7108 18.038 11.6241 18.1457C11.5987 18.1774 11.5716 18.2076 11.5445 18.2377C11.4903 18.2981 11.4313 18.354 11.3709 18.4082C11.3407 18.4353 11.3091 18.4607 11.2775 18.4862C11.391 18.3949 11.2467 18.5036 11.2232 18.5193C11.1552 18.5646 11.0836 18.6042 11.0111 18.6418C10.9747 18.6606 10.9373 18.6775 10.8998 18.6944C11.029 18.6362 10.9013 18.6911 10.8771 18.7C10.7988 18.7285 10.7182 18.7504 10.6372 18.77C10.5963 18.7798 10.5548 18.7874 10.5133 18.795C10.4512 18.8048 10.4576 18.8043 10.5325 18.7936C10.5041 18.7969 10.4756 18.7995 10.4471 18.8018C10.3605 18.8092 10.2734 18.8092 10.1866 18.8067C10.1435 18.8055 10.1005 18.8018 10.0575 18.7981C9.91251 18.7856 10.1767 18.8183 10.0341 18.795C9.95119 18.7815 9.86963 18.761 9.78888 18.7382C9.74891 18.727 9.7096 18.7135 9.67035 18.7C9.64435 18.6908 9.61857 18.6811 9.59294 18.671C9.66001 18.7001 9.66576 18.7023 9.6101 18.6775C9.53544 18.6439 9.46372 18.6042 9.39329 18.5626C9.35819 18.5419 9.32426 18.5193 9.29038 18.4968C9.26976 18.4831 9.15894 18.4001 9.26994 18.4862C9.13088 18.3784 9.00797 18.251 8.89785 18.1141C8.98554 18.2231 8.90169 18.1145 8.88729 18.0937C8.8641 18.0602 8.84276 18.0255 8.82144 17.9908C8.77857 17.9211 8.74151 17.848 8.70657 17.774C8.64672 17.6474 8.74875 17.8837 8.69822 17.7526C8.68332 17.714 8.6706 17.6745 8.65788 17.635C8.62785 17.5419 8.60663 17.4462 8.58907 17.35C8.5631 17.2079 8.60122 17.4713 8.58597 17.3266C8.58147 17.2837 8.57941 17.2406 8.57738 17.1975C8.57322 17.1107 8.57654 17.0237 8.58232 16.937C8.58407 16.9109 8.60319 16.7668 8.58226 16.9126C8.58826 16.8708 8.59663 16.8293 8.60504 16.7879C8.62432 16.6925 8.65254 16.5991 8.6841 16.507C8.69229 16.4832 8.74576 16.3535 8.68969 16.4843C8.70585 16.4466 8.7241 16.4098 8.74229 16.373C8.77857 16.2998 8.82076 16.2297 8.86472 16.161C8.88666 16.1267 8.91044 16.0937 8.93419 16.0607C8.85291 16.1737 8.93279 16.0638 8.94935 16.0439C9.01001 15.9712 9.0771 15.9042 9.14635 15.8397C9.17607 15.8121 9.20722 15.786 9.23838 15.7601C9.28532 15.7225 9.28051 15.7261 9.22397 15.7709C9.24585 15.7549 9.26797 15.7393 9.29041 15.724C9.36876 15.6698 9.45182 15.6228 9.53632 15.579C9.57276 15.5601 9.61019 15.5433 9.6476 15.5264C9.51304 15.587 9.68226 15.5167 9.70954 15.5074C9.81519 15.4711 9.92432 15.4459 10.0341 15.4258C10.1762 15.3998 9.91282 15.438 10.0575 15.4227C10.1148 15.4167 10.1725 15.4145 10.2301 15.4129C10.3311 15.41 10.4321 15.4166 10.5325 15.4272C10.3873 15.4119 10.5283 15.4285 10.5549 15.4334C10.61 15.4434 10.6643 15.4571 10.7184 15.4713C10.7721 15.4853 10.8247 15.5028 10.8771 15.5208C10.9031 15.53 10.9289 15.5396 10.9545 15.5498C10.8875 15.5207 10.8817 15.5185 10.9374 15.5433C11.0244 15.5825 11.1077 15.6296 11.1889 15.6795C11.2236 15.7008 11.2571 15.724 11.2906 15.7472C11.3391 15.7828 11.3347 15.7786 11.2775 15.7346C11.2988 15.7514 11.3197 15.7685 11.3403 15.7861C11.413 15.8468 11.4801 15.9138 11.5445 15.9831C11.5814 16.0227 11.6157 16.0646 11.6497 16.1067C11.5583 15.9932 11.6671 16.1375 11.6828 16.161C11.7357 16.2404 11.7812 16.3244 11.8234 16.4098C11.8348 16.4327 11.8879 16.561 11.8345 16.4297C11.8553 16.4809 11.8727 16.5333 11.8897 16.5858C11.9197 16.6789 11.9409 16.7746 11.9585 16.8708C11.9682 16.933 11.9677 16.9266 11.9571 16.8517C11.9603 16.8801 11.963 16.9085 11.9652 16.9371C11.9701 16.9946 11.9712 17.0525 11.9717 17.1104C11.9746 17.4084 12.2183 17.6572 12.5186 17.6572C12.8146 17.6572 13.0683 17.4085 13.0655 17.1104C13.0579 16.3138 12.7189 15.5366 12.1137 15.0126C11.4595 14.4463 10.6324 14.2425 9.78513 14.3642C9.00588 14.4762 8.31582 14.9908 7.89835 15.6432C7.46544 16.3197 7.37082 17.2054 7.61594 17.9653C7.82026 18.5986 8.24854 19.1286 8.80657 19.4857C9.39126 19.8598 10.0868 19.9536 10.7623 19.8565C12.0891 19.6658 13.0531 18.4154 13.0655 17.1104C13.0683 16.8122 12.8146 16.5635 12.5186 16.5635C12.2183 16.5635 11.9746 16.8123 11.9717 17.1104ZM11.9642 23.8248C10.4352 23.8248 8.90626 23.8248 7.37725 23.8248C7.2915 23.8248 7.20575 23.8248 7.12 23.8248C7.07435 23.8248 6.94044 23.8046 7.07457 23.8278C7.03354 23.8207 6.99385 23.8077 6.95441 23.7947C7.08135 23.8363 6.96607 23.7972 6.93691 23.781C6.91129 23.7668 6.81113 23.6849 6.91622 23.7721C6.89194 23.752 6.77957 23.6194 6.86594 23.7338C6.84144 23.7013 6.82166 23.6657 6.802 23.6302C6.73604 23.5113 6.83779 23.7393 6.7951 23.6091C6.786 23.5813 6.76441 23.4462 6.7821 23.5899C6.7791 23.5655 6.77788 23.5276 6.77788 23.5031C6.77788 23.4624 6.77788 23.4217 6.77788 23.3809C6.77788 23.1704 6.77788 22.9599 6.77788 22.7494C6.77788 22.3842 6.77788 22.019 6.77788 21.6537C6.77788 21.5571 6.78366 21.4609 6.79282 21.3647C6.80785 21.2068 6.77369 21.4774 6.79938 21.3221C6.80704 21.2757 6.81707 21.2297 6.8271 21.1838C6.84697 21.0929 6.87375 21.0036 6.90272 20.9152C6.9171 20.8714 6.93369 20.8283 6.95025 20.7853C6.90335 20.9071 6.9776 20.7281 6.98807 20.7064C7.02779 20.6243 7.0736 20.5454 7.12122 20.4677C7.14497 20.429 7.1706 20.3915 7.19622 20.354C7.20641 20.339 7.29779 20.2188 7.219 20.3193C7.34007 20.1649 7.48085 20.0267 7.63141 19.9014C7.74732 19.8048 7.5425 19.9655 7.66457 19.8767C7.70126 19.85 7.73925 19.8251 7.77719 19.8002C8.02601 19.6372 8.12985 19.3191 7.97338 19.052C7.82857 18.8048 7.47475 18.6922 7.22516 18.8558C6.50282 19.3291 5.97207 20.0483 5.77238 20.8931C5.66191 21.3603 5.68407 21.8411 5.68407 22.317C5.68407 22.7106 5.68407 23.1041 5.68407 23.4977C5.68407 24.2822 6.33544 24.9186 7.11557 24.9186C8.67613 24.9186 10.2367 24.9186 11.7973 24.9186C11.8529 24.9186 11.9085 24.9186 11.9641 24.9186C12.2623 24.9186 12.511 24.6699 12.511 24.3717C12.511 24.0736 12.2623 23.8248 11.9642 23.8248Z" fill="black"/>
<defs>
<linearGradient id="paint0_linear" x1="20" y1="0" x2="20" y2="40" gradientUnits="userSpaceOnUse">
<stop stop-color="#6A5EFF"/>
<stop offset="1" stop-color="#563FFD"/>
</linearGradient>
</defs>
</svg>
