<svg width="40" height="40" viewBox="0 0 40 40" fill="none" xmlns="http://www.w3.org/2000/svg">
<path fill-rule="evenodd" clip-rule="evenodd" d="M20 0C8.95431 0 0 8.95431 0 20C0 31.0457 8.95431 40 20 40C31.0457 40 40 31.0457 40 20C40 8.95431 31.0457 0 20 0ZM19 31C19.5067 31 20.0072 30.9737 20.5 30.9226C27.5266 30.1928 33 24.3946 33 17.35V11.5V10C32.4933 10 31.9928 10.0262 31.5 10.0774C24.4734 10.8072 19 16.6054 19 23.65V29.5V31ZM20.5 23.65C20.5 17.4639 25.2762 12.3079 31.5 11.5863V17.35C31.5 23.5361 26.7238 28.6921 20.5 29.4137V23.65ZM8.5 21.3572V18.7056C12.3504 19.4027 15.25 22.7352 15.25 26.7144V29.3661C11.3996 28.6689 8.5 25.3364 8.5 21.3572ZM7 21.3572V18.5715V17.0715C7.5101 17.0715 8.01105 17.1103 8.5 17.1849C13.1726 17.8985 16.75 21.8933 16.75 26.7144V29.5001V31.0001C16.2399 31.0001 15.739 30.9614 15.25 30.8867C10.5774 30.1731 7 26.1784 7 21.3572Z" fill="#E8E7FD"/>
</svg>
