<svg width="40" height="40" viewBox="0 0 40 40" fill="none" xmlns="http://www.w3.org/2000/svg">
<path d="M33.9278 0H6.0896C4.47755 -6.57671e-06 2.93127 0.638889 1.78974 1.77662C0.64822 2.91435 0.00460587 4.45809 0 6.06938V27.547C0.00460587 29.1583 0.64822 30.702 1.78974 31.8398C2.93127 32.9775 4.47755 33.6164 6.0896 33.6164H15.2936L19.2953 39.6162C19.3769 39.7346 19.4861 39.8314 19.6134 39.8982C19.7406 39.9651 19.8823 40 20.0261 40C20.1699 40 20.3115 39.9651 20.4388 39.8982C20.5661 39.8314 20.6753 39.7346 20.7569 39.6162L24.7586 33.6164H33.9278C35.5368 33.6118 37.0787 32.9709 38.2164 31.8336C39.3542 30.6964 39.9954 29.1553 40 27.547V6.06938C39.9954 4.46109 39.3542 2.91999 38.2164 1.78275C37.0787 0.645513 35.5368 0.00458859 33.9278 0ZM13.0492 18.2603C12.705 18.2603 12.3686 18.1583 12.0825 17.9672C11.7964 17.7761 11.5734 17.5045 11.4417 17.1868C11.31 16.869 11.2756 16.5193 11.3427 16.182C11.4098 15.8446 11.5755 15.5347 11.8189 15.2915C12.0622 15.0483 12.3722 14.8827 12.7097 14.8156C13.0472 14.7485 13.3971 14.7829 13.715 14.9145C14.0329 15.0462 14.3046 15.2691 14.4958 15.5551C14.687 15.8411 14.789 16.1773 14.789 16.5212C14.789 16.9825 14.6057 17.4248 14.2794 17.751C13.9531 18.0771 13.5106 18.2603 13.0492 18.2603ZM20.0087 18.2603C19.6646 18.2603 19.3282 18.1583 19.0421 17.9672C18.7559 17.7761 18.5329 17.5045 18.4013 17.1868C18.2696 16.869 18.2351 16.5193 18.3022 16.182C18.3694 15.8446 18.5351 15.5347 18.7784 15.2915C19.0217 15.0483 19.3318 14.8827 19.6693 14.8156C20.0068 14.7485 20.3566 14.7829 20.6745 14.9145C20.9924 15.0462 21.2642 15.2691 21.4554 15.5551C21.6465 15.8411 21.7486 16.1773 21.7486 16.5212C21.7486 16.9825 21.5653 17.4248 21.239 17.751C20.9127 18.0771 20.4701 18.2603 20.0087 18.2603ZM26.9682 18.2603C26.6241 18.2603 26.2877 18.1583 26.0016 17.9672C25.7155 17.7761 25.4925 17.5045 25.3608 17.1868C25.2291 16.869 25.1947 16.5193 25.2618 16.182C25.3289 15.8446 25.4946 15.5347 25.738 15.2915C25.9813 15.0483 26.2913 14.8827 26.6288 14.8156C26.9663 14.7485 27.3161 14.7829 27.6341 14.9145C27.952 15.0462 28.2237 15.2691 28.4149 15.5551C28.6061 15.8411 28.7081 16.1773 28.7081 16.5212C28.7081 16.9825 28.5248 17.4248 28.1985 17.751C27.8722 18.0771 27.4297 18.2603 26.9682 18.2603Z" fill="url(#paint0_linear)"/>
<defs>
<linearGradient id="paint0_linear" x1="20" y1="0" x2="20" y2="40" gradientUnits="userSpaceOnUse">
<stop stop-color="#6A5EFF"/>
<stop offset="1" stop-color="#563FFD"/>
</linearGradient>
</defs>
</svg>
