<svg width="40" height="40" viewBox="0 0 40 40" fill="none" xmlns="http://www.w3.org/2000/svg">
<path fill-rule="evenodd" clip-rule="evenodd" d="M20 0C8.95431 0 0 8.95431 0 20C0 31.0457 8.95431 40 20 40C31.0457 40 40 31.0457 40 20C40 8.95431 31.0457 0 20 0ZM11 9.25C11.4142 9.25 11.75 9.58579 11.75 10V28.25H30C30.4142 28.25 30.75 28.5858 30.75 29C30.75 29.4142 30.4142 29.75 30 29.75H11H10.25V29V10C10.25 9.58579 10.5858 9.25 11 9.25ZM30.3911 11.36C30.7445 11.576 30.856 12.0376 30.64 12.3911L25.14 21.3911L24.6722 22.1565L24.0017 21.5606L20.1459 18.1332L16.624 23.416C16.3943 23.7607 15.9286 23.8538 15.584 23.624C15.2393 23.3943 15.1462 22.9286 15.376 22.584L19.376 16.584L19.8541 15.8668L20.4983 16.4394L24.3278 19.8435L29.36 11.6089C29.576 11.2555 30.0376 11.144 30.3911 11.36Z" fill="url(#paint0_linear)"/>
<defs>
<linearGradient id="paint0_linear" x1="20" y1="0" x2="20" y2="40" gradientUnits="userSpaceOnUse">
<stop stop-color="#6A5EFF"/>
<stop offset="1" stop-color="#563FFD"/>
</linearGradient>
</defs>
</svg>
