<svg width="40" height="40" viewBox="0 0 40 40" fill="none" xmlns="http://www.w3.org/2000/svg">
<path d="M0 0.999999C0 0.447714 0.447715 0 1 0H39C39.5523 0 40 0.447715 40 1V39C40 39.5523 39.5523 40 39 40H0.999999C0.447714 40 0 39.5523 0 39V0.999999Z" fill="url(#paint0_linear)"/>
<path d="M19.9161 17.5267H21.1795C21.6213 17.5267 21.9795 17.8848 21.9795 18.3267V26.0162C21.9795 27.9656 21.4874 29.2401 20.6726 30.0296C19.8566 30.8202 18.6814 31.1593 17.2398 31.1593C16.806 31.1593 16.2946 31.1129 15.8293 31.0295C15.4824 30.9673 15.2556 30.6274 15.307 30.2439L15.3762 29.7276C15.4422 29.2354 15.9642 28.8864 16.5204 28.9254C16.644 28.9341 16.7709 28.9387 16.9004 28.9387C17.5693 28.9387 18.1448 28.7818 18.5427 28.2983C18.9316 27.8258 19.1161 27.0813 19.1161 25.995V18.3267C19.1161 17.8848 19.4743 17.5267 19.9161 17.5267Z" fill="#1E1A31" stroke="#5641F2" stroke-width="0.4" stroke-linecap="round"/>
<path d="M29.7221 23.0649L29.7221 23.0649L29.7248 23.0659C30.8971 23.5134 31.7323 24.0444 32.2745 24.6894C32.8127 25.3295 33.0749 26.097 33.0749 27.0465C33.0749 28.161 32.6652 29.1819 31.8206 29.9265C30.9741 30.6727 29.6712 31.1582 27.8563 31.1582C26.821 31.1582 25.8402 30.9573 25.0893 30.6946C24.6624 30.5451 24.4433 30.0742 24.5585 29.5947C24.7239 28.9065 25.5224 28.5281 26.2607 28.7315C26.8051 28.8815 27.4063 28.9802 28.0365 28.9802C28.7611 28.9802 29.3434 28.8258 29.7498 28.5259C30.1639 28.2203 30.376 27.7773 30.376 27.2535C30.376 26.7671 30.1863 26.3724 29.7827 26.0307C29.3914 25.6994 28.798 25.4164 27.9846 25.1263C25.768 24.3093 24.3373 23.0786 24.3373 21.1671C24.3373 20.0411 24.8102 19.0554 25.66 18.3476C26.512 17.638 27.7535 17.2 29.2961 17.2C30.3478 17.2 31.1857 17.3399 31.8634 17.5412C32.2259 17.6489 32.4226 18.0485 32.305 18.4422L32.1231 19.051C31.9826 19.5209 31.437 19.7641 30.919 19.6049C30.4601 19.4639 29.907 19.3581 29.2566 19.3581C28.5662 19.3581 28.0297 19.5252 27.6606 19.8063C27.2884 20.0897 27.0968 20.4826 27.0968 20.8989C27.0968 21.1503 27.1497 21.3757 27.2655 21.5819C27.3802 21.7863 27.5504 21.9604 27.7684 22.12C28.1974 22.4342 28.8471 22.7162 29.7221 23.0649Z" fill="#1E1A31" stroke="#5641F2" stroke-width="0.4" stroke-linecap="round"/>
<defs>
<linearGradient id="paint0_linear" x1="20" y1="0" x2="20" y2="40" gradientUnits="userSpaceOnUse">
<stop stop-color="#6A5EFF"/>
<stop offset="1" stop-color="#563FFD"/>
</linearGradient>
</defs>
</svg>
