<svg width="40" height="40" viewBox="0 0 40 40" fill="none" xmlns="http://www.w3.org/2000/svg">
<path fill-rule="evenodd" clip-rule="evenodd" d="M0 20C0 8.95431 8.95431 0 20 0C31.0457 0 40 8.95431 40 20C40 31.0457 31.0457 40 20 40C8.95431 40 0 31.0457 0 20ZM6.46671 20.5165H4.07367V24.1619H6.53646V23.7453H4.54047V22.5163H6.14478V22.0996H4.54047V20.9331H6.46671V20.5165ZM11.6812 21.3869C11.538 21.6634 11.4664 21.9808 11.4664 22.3392C11.4664 22.701 11.538 23.0193 11.6812 23.2941C11.8245 23.5688 12.0288 23.7822 12.2944 23.9341C12.5599 24.086 12.8673 24.1619 13.2166 24.1619C13.6254 24.1619 13.9651 24.0544 14.2359 23.8393C14.5066 23.6243 14.6769 23.3308 14.7468 22.9587H14.2909C14.221 23.2113 14.0918 23.4067 13.9031 23.5449C13.7145 23.6832 13.4787 23.7523 13.1957 23.7523C12.9442 23.7523 12.7223 23.6926 12.5302 23.5731C12.338 23.4536 12.1904 23.2864 12.0874 23.0713C11.9843 22.8563 11.9328 22.6123 11.9328 22.3392C11.9328 22.0627 11.9843 21.8178 12.0874 21.6045C12.1904 21.3912 12.338 21.2248 12.5302 21.1053C12.7223 20.9858 12.9442 20.9261 13.1957 20.9261C13.4752 20.9261 13.7119 20.9961 13.9057 21.136C14.0996 21.276 14.2298 21.4705 14.2962 21.7197H14.7521C14.6822 21.3476 14.5101 21.0541 14.2359 20.8391C13.9616 20.624 13.6219 20.5165 13.2166 20.5165C12.8673 20.5165 12.5599 20.5924 12.2944 20.7443C12.0288 20.8962 11.8245 21.1104 11.6812 21.3869ZM16.5115 20.5165H16.0602V24.1619H16.5115V22.5186H18.3891V24.1619H18.8404V20.5165H18.3891V22.1026H16.5115V20.5165ZM21.9875 20.5165H21.4554L20.076 24.1619H20.541L20.9233 23.1776H22.499L22.8812 24.1619H23.3617L21.9875 20.5165ZM22.396 22.7645H21.0496L21.7201 21.0633L22.396 22.7645ZM25.1114 20.5165H24.7003V24.1619H25.1371V21.3497L27.0693 24.1619H27.4804V20.5165H27.0436V23.3287L25.1114 20.5165ZM28.9276 21.3869C28.7866 21.6634 28.7161 21.9808 28.7161 22.3392C28.7161 22.6976 28.7875 23.0142 28.9302 23.2889C29.0729 23.5637 29.2732 23.7779 29.5311 23.9315C29.789 24.0851 30.083 24.1619 30.4131 24.1619C30.6951 24.1619 30.9358 24.1022 31.1352 23.9827C31.3347 23.8632 31.4842 23.7233 31.584 23.5629L31.6304 24.1312H32.0018V22.1907H30.4801V22.6003H31.5633V22.7232C31.5633 22.9314 31.5143 23.1132 31.4163 23.2685C31.3183 23.4238 31.1825 23.5432 31.0088 23.6269C30.8352 23.7105 30.6383 23.7523 30.4183 23.7523C30.1741 23.7523 29.9575 23.6926 29.7683 23.5731C29.5792 23.4536 29.4331 23.2864 29.3299 23.0713C29.2267 22.8563 29.1752 22.6123 29.1752 22.3392C29.1752 22.0661 29.2267 21.8221 29.3299 21.607C29.4331 21.392 29.5801 21.2248 29.7709 21.1053C29.9618 20.9858 30.181 20.9261 30.4286 20.9261C30.7002 20.9261 30.9306 20.9952 31.1197 21.1334C31.3089 21.2717 31.4378 21.4654 31.5066 21.7146H31.9502C31.8814 21.3459 31.7121 21.0541 31.4421 20.8391C31.1722 20.624 30.8378 20.5165 30.4389 20.5165C30.095 20.5165 29.7924 20.5924 29.5311 20.7443C29.2697 20.8962 29.0686 21.1104 28.9276 21.3869ZM35.845 20.5165H33.4621V24.1619H35.9144V23.7453H33.9269V22.5163H35.5244V22.0996H33.9269V20.9331H35.845V20.5165ZM10.0923 24.1619H10.6203L9.44416 22.3212L10.6151 20.5165H10.0976L9.18279 21.9407L8.25758 20.5165H7.7244L8.90052 22.3212L7.7244 24.1619H8.24189L9.16189 22.6811L10.0923 24.1619ZM9.28253 18.0028L10.5527 15.8382H10.0562L9.06299 17.5812L8.06459 15.8382H7.54186L8.81208 18.0028V19.4836H9.28253V18.0028ZM13.3135 19.4836H13.8833V15.8382H13.4337V18.7843L11.9544 15.8382H11.3742V19.4836H11.829V16.5529L13.3135 19.4836ZM16.6227 16.2649H17.8772V15.8382H14.8872V16.2649H16.147V19.4836H16.6227V16.2649ZM20.9856 19.4836H21.4613V15.8382H20.9856V17.3601H19.4122V15.8382H18.9418V19.4836H19.4122V17.8023H20.9856V19.4836ZM22.6783 19.4836H25.1299V19.062H23.1436V17.8023H24.6438V17.3704H23.1436V16.2598H25.1299V15.8382H22.6783V19.4836ZM27.7779 16.2649H29.0324V15.8382H26.0424V16.2649H27.3022V19.4836H27.7779V16.2649ZM29.9451 19.4836H32.0569V19.1031H31.2362V16.2135H32.0569V15.8382H29.9451V16.2135H30.7658V19.1031H29.9451V19.4836ZM35.4592 19.4836H35.9872L34.8111 17.6429L35.9819 15.8382H35.4645L34.5497 17.2624L33.6245 15.8382H33.0913L34.2674 17.6429L33.0913 19.4836H33.6088L34.5288 18.0028L35.4592 19.4836ZM4.68033 19.0795L5.53533 17.8933H5.77915C6.10828 17.8933 6.3751 18.1588 6.3751 18.4864C6.3751 18.814 6.10828 19.0795 5.77915 19.0795H4.68033ZM5.86774 17.4321C6.41336 17.4769 6.84214 17.9318 6.84214 18.4864C6.84214 19.0707 6.36622 19.5443 5.77915 19.5443H4.21592C4.08695 19.5443 3.9824 19.4403 3.9824 19.3119C3.9824 19.2398 4.01539 19.1754 4.06717 19.1328L4.96281 17.8901C4.41433 17.8482 3.9824 17.392 3.9824 16.8354C3.9824 16.2511 4.45832 15.7774 5.04539 15.7774H6.60862C6.73759 15.7774 6.84214 15.8815 6.84214 16.0098C6.84214 16.0728 6.81701 16.1298 6.7762 16.1717L5.86774 17.4321ZM5.29557 17.4285L6.15056 16.2422H5.04539C4.71626 16.2422 4.44944 16.5078 4.44944 16.8354C4.44944 17.1629 4.71626 17.4285 5.04539 17.4285H5.29557Z" fill="#5641F2"/>
</svg>
