<svg width="40" height="40" viewBox="0 0 40 40" fill="none" xmlns="http://www.w3.org/2000/svg">
<path fill-rule="evenodd" clip-rule="evenodd" d="M20 0C8.95431 0 0 8.95431 0 20C0 31.0457 8.95431 40 20 40C31.0457 40 40 31.0457 40 20C40 8.95431 31.0457 0 20 0ZM24.1642 31.95C24.4826 31.95 24.7878 31.8235 25.0129 31.5984C25.2379 31.3733 25.3643 31.068 25.3642 30.7497L25.363 25.6766V25.6763C25.363 25.2989 25.2829 24.8278 25.1666 24.3933C26.3568 24.0717 27.4685 23.5304 28.3755 22.7233C29.7124 21.5336 30.5158 19.8414 30.5158 17.7012C30.5158 15.8268 30.3283 14.5712 29.9769 13.6485C29.7581 13.0739 29.4862 12.6598 29.2196 12.3376C29.4436 11.5324 29.6044 10.2081 28.9336 8.54998L28.6302 7.8H27.8212V9C27.8212 7.8 27.8203 7.8 27.8194 7.8L27.8176 7.8L27.8139 7.80002L27.8059 7.80009L27.7884 7.80041C27.776 7.8007 27.762 7.80119 27.7466 7.80193C27.7157 7.80342 27.679 7.80597 27.6367 7.81019C27.5522 7.81863 27.4458 7.83376 27.3207 7.8605C27.0698 7.91414 26.7466 8.01394 26.3776 8.19745C25.8252 8.47222 25.1969 8.92133 24.5655 9.64202C24.5368 9.63238 24.5085 9.62317 24.4807 9.61437C24.0638 9.48272 23.6171 9.40302 23.2085 9.35237C22.3909 9.25103 21.5876 9.25041 21.2194 9.25041C20.8501 9.25041 20.0465 9.25102 19.2289 9.35237C18.8203 9.40302 18.3736 9.48273 17.9568 9.61439C17.929 9.62316 17.9008 9.63234 17.8722 9.64194C17.2415 8.92164 16.6142 8.47263 16.0626 8.19781C15.6941 8.01422 15.3713 7.91433 15.1206 7.86061C14.9956 7.83383 14.8892 7.81868 14.8048 7.81022C14.7625 7.80599 14.7258 7.80344 14.6949 7.80194C14.6794 7.80119 14.6655 7.8007 14.653 7.80041L14.6354 7.80009L14.6275 7.80002L14.6238 7.80001L14.622 7.8C14.6211 7.8 14.6202 7.8 14.6202 9V7.8H13.8112L13.5078 8.54998C12.8368 10.2086 12.9986 11.5333 13.2222 12.3372C12.9554 12.6593 12.6829 13.0734 12.4636 13.648C12.1113 14.5709 11.9231 15.8264 11.9231 17.7012C11.9231 19.4846 12.4816 20.9569 13.4414 22.0865C12.9837 21.8057 12.4036 21.5862 11.7044 21.5762C11.6912 21.5753 11.6761 21.5743 11.6595 21.5734C11.6047 21.5704 11.5279 21.5675 11.4402 21.568C11.3217 21.5687 10.9794 21.5721 10.6569 21.701C10.5033 21.7624 10.1028 21.9503 9.90187 22.4261C9.67296 22.9682 9.87604 23.4411 10.0213 23.6691C10.163 23.8914 10.3493 24.0556 10.4928 24.1677C10.61 24.2592 10.7436 24.3503 10.8915 24.4419C10.9533 24.5117 11.0462 24.6216 11.1602 24.7713C11.3922 25.0757 11.7107 25.5435 12.0343 26.1744C12.0502 26.2125 12.0718 26.2614 12.0993 26.3194C12.1549 26.4361 12.2357 26.5912 12.3464 26.7692C12.5666 27.1232 12.9135 27.5818 13.4266 28.0072C14.2643 28.7018 15.4652 29.2401 17.0834 29.2002C17.0834 29.3879 17.0831 29.5703 17.0828 29.7402C17.0823 30.028 17.0815 30.2791 17.0808 30.4583L17.0799 30.6684L17.0797 30.7247L17.0796 30.7392L17.0796 30.7428L17.0796 30.7437V30.7439V30.744C17.078 31.0633 17.2037 31.37 17.4289 31.5964C17.6541 31.8227 17.9603 31.95 18.2796 31.95H24.1642ZM14.5799 12.5824C14.4066 12.1705 13.8616 10.8753 14.6202 9C14.6202 9 15.6118 9 16.7888 10.2346C17.0333 10.4911 17.2858 10.8009 17.5391 11.175C17.6422 11.0734 17.7749 10.9861 17.929 10.911C18.8649 10.4549 20.5868 10.4504 21.2194 10.4504C21.85 10.4504 23.5727 10.4549 24.5088 10.9111C24.6628 10.9862 24.7955 11.0735 24.8986 11.175C25.1518 10.8009 25.4044 10.4912 25.649 10.2347C26.8269 9 27.8212 9 27.8212 9C28.582 10.8806 28.0328 12.1778 27.8601 12.5858L27.8434 12.6254C28.579 13.35 29.3158 14.0758 29.3158 17.7012C29.3158 20.8214 27.3366 22.6025 24.7346 23.2662C24.3133 23.3736 23.8756 23.4518 23.4274 23.5016C23.6559 23.6966 23.856 24.1629 23.9895 24.6383C24.0983 25.0256 24.163 25.419 24.163 25.6766L24.1639 29.55L24.1642 30.75H22.9642H19.4796H18.2796C18.2796 30.75 18.2822 30.2217 18.2831 29.55C18.2833 29.3969 18.2834 29.2362 18.2834 29.0727C18.2833 28.6592 18.2823 28.2272 18.2796 27.8504C17.8472 27.9421 17.4482 27.9891 17.0805 27.9999C14.0227 28.0896 13.1268 25.6754 13.1268 25.6754C12.7856 25.0026 12.4441 24.486 12.176 24.1254C12.0526 23.9594 11.9448 23.8265 11.8596 23.7267C11.7311 23.5758 11.6544 23.5004 11.6544 23.5004C11.6326 23.4877 11.6114 23.4751 11.5909 23.4628L11.5909 23.4628C10.2253 22.6437 11.6544 22.7758 11.6544 22.7758C11.7951 22.7758 11.929 22.7891 12.0563 22.813C12.104 22.822 12.1508 22.8325 12.1966 22.8443C12.2239 22.8514 12.2508 22.8589 12.2774 22.8669L12.2775 22.867C12.5612 22.9524 12.8068 23.0899 13.0143 23.2453C13.5798 23.669 13.8624 24.2262 13.8624 24.2262C15.1546 26.3866 17.4527 26.0389 18.2783 25.6766C18.2783 25.3684 18.3366 24.9929 18.4354 24.6359C18.5689 24.1535 18.7763 23.7049 19.0139 23.5016C18.5629 23.4517 18.1225 23.3729 17.6986 23.2644C15.1008 22.5996 13.1231 20.8181 13.1231 17.7012C13.1231 14.0807 13.8604 13.3532 14.595 12.6283L14.598 12.6254L14.5799 12.5824ZM11.9473 22.2572C11.9474 22.2572 11.9497 22.2591 11.9536 22.2629C11.9491 22.2591 11.9472 22.2572 11.9473 22.2572ZM16.4398 24.7133C15.9143 24.627 15.349 24.3596 14.9062 23.6333C14.8956 23.6138 14.8822 23.5899 14.8661 23.5621C14.8308 23.5012 14.7816 23.4207 14.7184 23.3273C14.6805 23.2712 14.6368 23.2094 14.5872 23.1435C15.381 23.7199 16.2941 24.127 17.2591 24.3894C17.2299 24.5004 17.2035 24.6137 17.1806 24.7278C16.9588 24.7534 16.7032 24.7566 16.4398 24.7133Z" fill="#E8E7FD"/>
</svg>
