<svg width="40" height="40" viewBox="0 0 40 40" fill="none" xmlns="http://www.w3.org/2000/svg">
<path fill-rule="evenodd" clip-rule="evenodd" d="M0 0.999999C0 0.447714 0.447715 0 1 0H39C39.5523 0 40 0.447715 40 1V39C40 39.5523 39.5523 40 39 40H0.999999C0.447714 40 0 39.5523 0 39V0.999999ZM22.5128 18.7624H19.2494V27.4308C19.2494 29.5756 18.5138 30.1745 17.2338 30.1745C16.6339 30.1745 16.0937 30.0717 15.6735 29.9272L15.3333 32.4648C15.933 32.6712 16.8532 32.795 17.5731 32.795C20.5121 32.795 22.5128 31.4133 22.5128 27.452V18.7624ZM24.4707 22.6029C24.4707 20.2306 26.4703 18.4358 29.6294 18.4358C31.1683 18.4358 32.2671 18.7303 33.083 19.0885L32.3028 21.6992C31.7823 21.4307 30.889 20.9939 29.5899 20.9939C28.2701 20.9939 27.6301 21.6331 27.6301 22.3347C27.6301 23.2218 28.3697 23.6136 30.1295 24.3149C32.5085 25.223 33.6082 26.5019 33.6082 28.4823C33.6082 30.8135 31.8889 32.7939 28.1896 32.794C26.6507 32.794 25.231 32.3609 24.4707 31.927L25.0903 29.3481V29.3489C25.8901 29.782 27.07 30.216 28.3698 30.216C29.7694 30.216 30.5093 29.6176 30.5093 28.6893C30.5093 27.8437 29.8692 27.3276 28.2497 26.7501C26.0106 25.9251 24.4707 24.6459 24.4707 22.6029Z" fill="#5641F2"/>
</svg>
