<svg width="40" height="40" viewBox="0 0 40 40" fill="none" xmlns="http://www.w3.org/2000/svg">
<path fill-rule="evenodd" clip-rule="evenodd" d="M20 0C8.95431 0 0 8.95431 0 20C0 31.0457 8.95431 40 20 40C31.0457 40 40 31.0457 40 20C40 8.95431 31.0457 0 20 0ZM19 31C19.679 31 20.3468 30.9529 21 30.8618C27.7846 29.9156 33 24.2266 33 17.35V12V10C32.321 10 31.6532 10.0471 31 10.1382C24.2154 11.0844 19 16.7734 19 23.65V29V31ZM21 23.65C21 17.916 25.2919 13.0875 31 12.1605V17.35C31 23.084 26.7081 27.9125 21 28.8395V23.65ZM9 21.3572V19.3279C12.3221 20.1995 14.75 23.1903 14.75 26.7144V28.7437C11.4279 27.8721 9 24.8814 9 21.3572ZM7 21.3572V19.0715V17.0715C7.68549 17.0715 8.35446 17.1415 9 17.2746C13.4254 18.1871 16.75 22.0667 16.75 26.7144V29.0001V31.0001C16.0645 31.0001 15.3955 30.9301 14.75 30.797C10.3246 29.8846 7 26.0049 7 21.3572Z" fill="#5641F2"/>
</svg>
