<svg width="40" height="40" viewBox="0 0 40 40" fill="none" xmlns="http://www.w3.org/2000/svg">
<path fill-rule="evenodd" clip-rule="evenodd" d="M0 20C0 8.95431 8.95431 0 20 0C31.0457 0 40 8.95431 40 20C40 31.0457 31.0457 40 20 40C8.95431 40 0 31.0457 0 20ZM4.10405 20.5522H5.16394C5.53259 20.5522 5.85261 20.6264 6.12398 20.7747C6.39535 20.9229 6.60358 21.1317 6.74865 21.401C6.89372 21.6702 6.96626 21.9838 6.96626 22.3417C6.96626 22.6962 6.89372 23.0089 6.74865 23.2799C6.60358 23.5509 6.39535 23.7605 6.12398 23.9088C5.85261 24.057 5.53259 24.1312 5.16394 24.1312H4.10405V20.5522ZM5.16395 23.7222C5.59064 23.7222 5.92175 23.5978 6.15728 23.3489C6.39281 23.1001 6.51057 22.7644 6.51057 22.3417C6.51057 21.9156 6.39366 21.5791 6.15984 21.3319C5.92601 21.0848 5.59405 20.9613 5.16395 20.9613H4.54953V23.7222H5.16395ZM8.87424 20.5522H9.40163L10.7636 24.1312H10.2874L9.90854 23.1649H8.34686L7.96796 24.1312H7.50714L8.87424 20.5522ZM8.48 22.761H9.77542L9.12515 21.038L8.48 22.761ZM11.6184 22.9603C11.6354 23.2023 11.7327 23.3958 11.9102 23.5406C12.0877 23.6855 12.313 23.7579 12.5861 23.7579C12.8319 23.7579 13.0307 23.7042 13.1826 23.5969C13.3345 23.4895 13.4105 23.3404 13.4105 23.1495C13.4105 23.0098 13.3686 22.899 13.285 22.8172C13.2014 22.7354 13.0939 22.6749 12.9624 22.6357C12.831 22.5965 12.6527 22.5581 12.4274 22.5206C12.069 22.4593 11.7839 22.3587 11.5723 22.219C11.3607 22.0792 11.2548 21.8526 11.2548 21.539C11.2548 21.3379 11.306 21.1598 11.4084 21.0047C11.5108 20.8496 11.6551 20.7295 11.8411 20.6443C12.0271 20.559 12.2396 20.5164 12.4786 20.5164C12.7312 20.5164 12.9548 20.5625 13.1493 20.6545C13.3439 20.7465 13.4975 20.8752 13.6102 21.0405C13.7228 21.2058 13.7859 21.3958 13.7996 21.6106H13.3593C13.332 21.4026 13.2381 21.2356 13.0776 21.1095C12.9172 20.9834 12.7175 20.9203 12.4786 20.9203C12.2396 20.9203 12.0502 20.9723 11.9102 21.0763C11.7703 21.1802 11.7003 21.326 11.7003 21.5134C11.7003 21.6498 11.7413 21.7563 11.8232 21.833C11.9051 21.9097 12.0109 21.9676 12.1406 22.0068C12.2704 22.046 12.4479 22.0844 12.6731 22.1218C13.0316 22.1832 13.3183 22.2846 13.5334 22.4261C13.7484 22.5675 13.8559 22.795 13.8559 23.1086C13.8559 23.3131 13.8022 23.4955 13.6946 23.6557C13.5871 23.8159 13.4369 23.9403 13.2441 24.0289C13.0512 24.1175 12.8302 24.1618 12.581 24.1618C12.3011 24.1618 12.057 24.1116 11.8488 24.011C11.6406 23.9105 11.4793 23.769 11.3649 23.5867C11.2506 23.4043 11.1883 23.1955 11.178 22.9603H11.6184ZM14.6903 20.5472H15.1358V22.1066H16.9893V20.5472H17.4348V24.1312H16.9893V22.5156H15.1358V24.1312H14.6903V20.5472ZM19.672 20.5522C20.0509 20.5522 20.3436 20.634 20.5501 20.7977C20.7566 20.9613 20.8599 21.1879 20.8599 21.4777C20.8599 21.689 20.8053 21.8637 20.696 22.0017C20.5868 22.1398 20.4281 22.236 20.2199 22.2906C20.7455 22.3894 21.0084 22.674 21.0084 23.1444C21.0084 23.4512 20.8966 23.6923 20.673 23.8679C20.4494 24.0434 20.1277 24.1312 19.7078 24.1312H18.4022V20.5522H19.672ZM18.8476 22.1066H19.6925C19.9212 22.1066 20.0987 22.0554 20.225 21.9532C20.3513 21.8509 20.4145 21.7095 20.4145 21.5288C20.4145 21.3482 20.3522 21.2076 20.2276 21.107C20.103 21.0065 19.9246 20.9562 19.6925 20.9562H18.8476V22.1066ZM18.8476 23.7273H19.7078C19.9809 23.7273 20.19 23.6744 20.335 23.5688C20.4801 23.4631 20.5526 23.3165 20.5526 23.1291C20.5526 22.928 20.4793 22.7737 20.3325 22.6664C20.1857 22.559 19.9775 22.5053 19.7078 22.5053H18.8476V23.7273ZM25.1504 22.3417C25.1504 22.6893 25.0779 23.0012 24.9328 23.2773C24.7877 23.5534 24.5855 23.7698 24.326 23.9266C24.0666 24.0834 23.7714 24.1618 23.4402 24.1618C23.1091 24.1618 22.8139 24.0834 22.5544 23.9266C22.295 23.7698 22.0928 23.5534 21.9477 23.2773C21.8026 23.0012 21.7301 22.6893 21.7301 22.3417C21.7301 21.994 21.8026 21.6821 21.9477 21.406C22.0928 21.1299 22.295 20.9135 22.5544 20.7567C22.8139 20.5999 23.1091 20.5215 23.4402 20.5215C23.7714 20.5215 24.0666 20.5999 24.326 20.7567C24.5855 20.9135 24.7877 21.1299 24.9328 21.406C25.0779 21.6821 25.1504 21.994 25.1504 22.3417ZM22.1857 22.3417C22.1857 22.6143 22.2386 22.8572 22.3445 23.0702C22.4503 23.2833 22.5979 23.4503 22.7874 23.5713C22.9768 23.6923 23.1944 23.7528 23.4402 23.7528C23.686 23.7528 23.9036 23.6923 24.093 23.5713C24.2825 23.4503 24.4301 23.2833 24.5359 23.0702C24.6417 22.8572 24.6947 22.6143 24.6947 22.3417C24.6947 22.069 24.6417 21.8261 24.5359 21.6131C24.4301 21.4001 24.2825 21.233 24.093 21.112C23.9036 20.991 23.686 20.9305 23.4402 20.9305C23.1944 20.9305 22.9768 20.991 22.7874 21.112C22.5979 21.233 22.4503 21.4001 22.3445 21.6131C22.2386 21.8261 22.1857 22.069 22.1857 22.3417ZM26.9063 20.5522H27.4337L28.7956 24.1312H28.3195L27.9406 23.1649H26.3789L26 24.1312H25.5392L26.9063 20.5522ZM26.5121 22.761H27.8075L27.1573 21.038L26.5121 22.761ZM31.0564 20.5522C31.2919 20.5522 31.5001 20.5974 31.681 20.6877C31.8619 20.7781 32.0019 20.9059 32.1009 21.0712C32.1999 21.2365 32.2494 21.4299 32.2494 21.6515C32.2494 21.9003 32.1803 22.1159 32.042 22.2983C31.9038 22.4806 31.7186 22.6042 31.4865 22.6689L32.2903 24.1312H31.7886L31.0461 22.7558H30.1296V24.1312H29.6841V20.5522H31.0564ZM30.1297 22.3468H31.0206C31.2561 22.3468 31.4438 22.2838 31.5838 22.1577C31.7237 22.0315 31.7937 21.8628 31.7937 21.6515C31.7937 21.4436 31.7237 21.2766 31.5838 21.1504C31.4438 21.0243 31.2578 20.9613 31.0257 20.9613H30.1297V22.3468ZM33.0838 20.5522H34.1437C34.5124 20.5522 34.8324 20.6264 35.1038 20.7747C35.3751 20.9229 35.5834 21.1317 35.7284 21.401C35.8735 21.6702 35.9461 21.9838 35.9461 22.3417C35.9461 22.6962 35.8735 23.0089 35.7284 23.2799C35.5834 23.5509 35.3751 23.7605 35.1038 23.9088C34.8324 24.057 34.5124 24.1312 34.1437 24.1312H33.0838V20.5522ZM34.1437 23.7222C34.5703 23.7222 34.9014 23.5978 35.137 23.3489C35.3725 23.1001 35.4903 22.7644 35.4903 22.3417C35.4903 21.9156 35.3733 21.5791 35.1395 21.3319C34.9057 21.0848 34.5738 20.9613 34.1437 20.9613H33.5293V23.7222H34.1437ZM9.28249 18.0028L10.5527 15.8382H10.0561L9.06294 17.5812L8.06454 15.8382H7.54182L8.81204 18.0028V19.4836H9.28249V18.0028ZM13.3135 19.4836H13.8832V15.8382H13.4337V18.7843L11.9544 15.8382H11.3742V19.4836H11.8289V16.5529L13.3135 19.4836ZM16.6226 16.2649H17.8771V15.8382H14.8872V16.2649H16.1469V19.4836H16.6226V16.2649ZM20.9856 19.4836H21.4613V15.8382H20.9856V17.3601H19.4122V15.8382H18.9417V19.4836H19.4122V17.8023H20.9856V19.4836ZM22.6783 19.4836H25.1299V19.062H23.1435V17.8023H24.6437V17.3704H23.1435V16.2598H25.1299V15.8382H22.6783V19.4836ZM27.7778 16.2649H29.0324V15.8382H26.0424V16.2649H27.3022V19.4836H27.7778V16.2649ZM29.9451 19.4836H32.0569V19.1031H31.2362V16.2135H32.0569V15.8382H29.9451V16.2135H30.7657V19.1031H29.9451V19.4836ZM35.4592 19.4836H35.9871L34.811 17.6429L35.9819 15.8382H35.4644L34.5497 17.2624L33.6244 15.8382H33.0913L34.2674 17.6429L33.0913 19.4836H33.6088L34.5287 18.0028L35.4592 19.4836ZM4.68028 19.0795H5.7791C6.10824 19.0795 6.37505 18.814 6.37505 18.4864C6.37505 18.1588 6.10824 17.8933 5.7791 17.8933H5.53527L4.68028 19.0795ZM4.96275 17.8901L4.0671 19.1328C4.01534 19.1754 3.98235 19.2398 3.98235 19.3119C3.98235 19.4403 4.08691 19.5443 4.21588 19.5443H5.7791C6.36618 19.5443 6.84209 19.0707 6.84209 18.4864C6.84209 17.9318 6.41331 17.4769 5.86769 17.4321L6.77611 16.1717C6.81695 16.1299 6.84209 16.0728 6.84209 16.0098C6.84209 15.8815 6.73754 15.7774 6.60857 15.7774H5.04534C4.45827 15.7774 3.98235 16.2511 3.98235 16.8353C3.98235 17.392 4.41428 17.8482 4.96275 17.8901ZM5.29551 17.4285H5.04534C4.71621 17.4285 4.4494 17.1629 4.4494 16.8353C4.4494 16.5078 4.71621 16.2422 5.04534 16.2422H6.1505L5.29551 17.4285Z" fill="#5641F2"/>
</svg>
