<svg width="40" height="40" viewBox="0 0 40 40" fill="none" xmlns="http://www.w3.org/2000/svg">
<path fill-rule="evenodd" clip-rule="evenodd" d="M20 0C8.95431 0 0 8.95431 0 20C0 31.0457 8.95431 40 20 40C31.0457 40 40 31.0457 40 20C40 8.95431 31.0457 0 20 0ZM11 9C11.5523 9 12 9.44771 12 10V28H30C30.5523 28 31 28.4477 31 29C31 29.5523 30.5523 30 30 30H11H10V29V10C10 9.44771 10.4477 9 11 9ZM30.5215 11.1467C30.9927 11.4347 31.1413 12.0502 30.8533 12.5215L25.3533 21.5215L24.7296 22.542L23.8356 21.7474L20.1946 18.5109L16.8321 23.5547C16.5257 24.0142 15.9048 24.1384 15.4453 23.8321C14.9858 23.5257 14.8616 22.9048 15.1679 22.4453L19.1679 16.4453L19.8054 15.4891L20.6644 16.2526L24.2704 19.458L29.1467 11.4785C29.4347 11.0073 30.0502 10.8587 30.5215 11.1467Z" fill="#5641F2"/>
</svg>
