<svg width="40" height="40" viewBox="0 0 40 40" fill="none" xmlns="http://www.w3.org/2000/svg">
<path fill-rule="evenodd" clip-rule="evenodd" d="M20 0C8.95431 0 0 8.95431 0 20C0 31.0457 8.95431 40 20 40C31.0457 40 40 31.0457 40 20C40 8.95431 31.0457 0 20 0ZM20.4819 10C16.7668 10 13.9683 11.909 11.9916 15.85L13.4367 15.4483C13.9509 15.3053 14.4794 15.6219 14.6172 16.1554C14.7549 16.6888 14.4498 17.2372 13.9356 17.3801L10.2115 18.4154C9.69727 18.5583 9.16874 18.2417 9.03096 17.7083L8.03308 13.8446C7.8953 13.3111 8.20045 12.7628 8.71465 12.6198C9.22884 12.4769 9.75737 12.7935 9.89515 13.3269L10.2993 14.8919C12.5975 10.3382 16.0233 8 20.4819 8C25.1567 8 28.6962 10.5705 30.9909 15.57C31.2198 16.0687 31.0157 16.6654 30.5351 16.9028C30.0544 17.1403 29.4793 16.9285 29.2504 16.4299C27.2613 12.0962 24.3749 10 20.4819 10ZM19.518 30.0002C23.4102 30.0002 26.2962 27.9049 28.2853 23.573L26.5633 24.0517C26.0491 24.1947 25.5206 23.8781 25.3828 23.3446C25.245 22.8112 25.5502 22.2628 26.0644 22.1199L29.7885 21.0846C30.3027 20.9417 30.8312 21.2583 30.969 21.7917L31.9669 25.6554C32.1046 26.1889 31.7995 26.7372 31.2853 26.8802C30.7711 27.0231 30.2426 26.7065 30.1048 26.1731L29.7857 24.9377C27.4873 29.6036 24.032 32.0002 19.518 32.0002C14.8432 32.0002 11.3038 29.4298 9.00901 24.4302C8.78015 23.9315 8.98423 23.3348 9.46486 23.0974C9.94548 22.8599 10.5206 23.0717 10.7495 23.5703C12.7386 27.9041 15.625 30.0002 19.518 30.0002Z" fill="#E8E7FD"/>
</svg>
