<svg width="40" height="40" viewBox="0 0 40 40" fill="none" xmlns="http://www.w3.org/2000/svg">
<circle cx="20" cy="20" r="20" fill="#E8E7FD"/>
<path opacity="0.5" fill-rule="evenodd" clip-rule="evenodd" d="M16.576 26.3103L15.2122 25.3514L23.7904 13.6055L25.1543 14.5644L16.576 26.3103Z" fill="#1E1A31"/>
<path fill-rule="evenodd" clip-rule="evenodd" d="M20.9946 19.185H21.4525C23.5608 19.185 25.2699 20.8637 25.2699 22.9346C25.2699 25.0054 23.5608 26.6841 21.4525 26.6841H15.8386C15.3755 26.6841 15 26.3153 15 25.8604C15 25.4055 15.3755 25.0367 15.8386 25.0367H21.4525C22.6345 25.0367 23.5927 24.0955 23.5927 22.9346C23.5927 21.7736 22.6345 20.8324 21.4525 20.8324H19.2757H19.2753H18.8174C16.7091 20.8324 15 19.1537 15 17.0828C15 15.012 16.7091 13.3333 18.8174 13.3333H24.4313C24.8945 13.3333 25.2699 13.702 25.2699 14.157C25.2699 14.6119 24.8945 14.9807 24.4313 14.9807H18.8174C17.6354 14.9807 16.6772 15.9219 16.6772 17.0828C16.6772 18.2438 17.6354 19.185 18.8174 19.185H20.9942C20.9943 19.185 20.9945 19.185 20.9946 19.185Z" fill="#1E1A31"/>
</svg>
