<svg width="40" height="40" viewBox="0 0 40 40" fill="none" xmlns="http://www.w3.org/2000/svg">
<path fill-rule="evenodd" clip-rule="evenodd" d="M40 20C40 31.0457 31.0457 40 20 40C8.9543 40 0 31.0457 0 20C0 8.9543 8.9543 0 20 0C31.0457 0 40 8.9543 40 20ZM11.1833 16.8218C11.6845 17.2797 12 17.9379 12 18.6667C12 18.8329 11.9836 18.9956 11.9523 19.1529L19.7021 19.8575C20.038 19.155 20.7565 18.6666 21.5833 18.6666C22.0064 18.6666 22.4011 18.7945 22.7307 19.0135L27.8603 13.8838C27.3339 13.4248 27 12.7498 27 12C27 11.674 27.0632 11.3621 27.1778 11.0759L22 10.3154L22 10.3333C22 12.1693 20.5027 13.6667 18.6667 13.6667C17.6772 13.6667 16.7861 13.2318 16.1748 12.5434L11.1833 16.8218ZM27.6661 10.3048L21.8828 9.45692C21.4964 8.04375 20.1996 7 18.6667 7C16.8307 7 15.3333 8.49733 15.3333 10.3333C15.3333 10.8794 15.4658 11.3955 15.7002 11.8511L10.4471 16.3538C10.1547 16.2332 9.83477 16.1667 9.5 16.1667C8.12422 16.1667 7 17.2909 7 18.6667C7 20.0425 8.12422 21.1667 9.5 21.1667C9.76941 21.1667 10.0292 21.1236 10.2727 21.0439L14.8794 28.7217C14.6406 29.0606 14.5 29.473 14.5 29.9167C14.5 31.0624 15.4377 32 16.5833 32C17.6243 32 18.4936 31.2258 18.6437 30.2249L27.0239 27.4315C27.3685 27.6839 27.7927 27.8333 28.25 27.8333C29.3957 27.8333 30.3333 26.8957 30.3333 25.75C30.3333 25.2841 30.1783 24.8526 29.9172 24.5046L30.711 14.1854C31.4784 13.7575 32 12.9372 32 12C32 10.6243 30.8758 9.50001 29.5 9.50001C28.777 9.50001 28.1235 9.81051 27.6661 10.3048ZM29.8538 14.4749C29.7382 14.4915 29.62 14.5 29.5 14.5C29.1806 14.5 28.8748 14.4394 28.5934 14.3292L23.3198 19.6027C23.5388 19.9323 23.6666 20.3269 23.6666 20.75C23.6666 21.1453 23.555 21.5158 23.3617 21.8316L27.0539 24.0469C27.393 23.8076 27.8059 23.6667 28.25 23.6667C28.5646 23.6667 28.8635 23.7374 29.1316 23.8636L29.8538 14.4749ZM22.7783 22.4539L26.4709 24.6695C26.278 24.985 26.1667 25.3552 26.1667 25.75C26.1667 26.1131 26.2609 26.4554 26.4261 26.7535L18.592 29.3648C18.3485 28.4846 17.5381 27.8334 16.5833 27.8334C16.1882 27.8334 15.8179 27.9449 15.5022 28.138L11.0122 20.6546C11.2609 20.4647 11.4733 20.2293 11.6367 19.9611L19.5013 20.6761C19.5004 20.7006 19.5 20.7252 19.5 20.75C19.5 21.8956 20.4376 22.8333 21.5833 22.8333C22.0269 22.8333 22.4394 22.6927 22.7783 22.4539ZM21.1667 10.3333C21.1667 8.94775 20.0523 7.83333 18.6667 7.83333C17.281 7.83333 16.1667 8.94775 16.1667 10.3333C16.1667 11.719 17.281 12.8333 18.6667 12.8333C20.0523 12.8333 21.1667 11.719 21.1667 10.3333ZM11.1667 18.6667C11.1667 17.7412 10.4254 17 9.5 17C8.57459 17 7.83333 17.7412 7.83333 18.6667C7.83333 19.5921 8.57459 20.3333 9.5 20.3333C10.4254 20.3333 11.1667 19.5921 11.1667 18.6667ZM16.5833 28.6667C17.2786 28.6667 17.8333 29.2214 17.8333 29.9167C17.8333 30.612 17.2786 31.1667 16.5833 31.1667C15.888 31.1667 15.3333 30.612 15.3333 29.9167C15.3333 29.2214 15.888 28.6667 16.5833 28.6667ZM22.8333 20.75C22.8333 20.0547 22.2786 19.5 21.5833 19.5C20.888 19.5 20.3333 20.0547 20.3333 20.75C20.3333 21.4453 20.888 22 21.5833 22C22.2786 22 22.8333 21.4453 22.8333 20.75ZM28.25 24.5C28.9453 24.5 29.5 25.0547 29.5 25.75C29.5 26.4453 28.9453 27 28.25 27C27.5547 27 27 26.4453 27 25.75C27 25.0547 27.5547 24.5 28.25 24.5ZM31.1667 12C31.1667 11.0746 30.4254 10.3333 29.5 10.3333C28.5746 10.3333 27.8333 11.0746 27.8333 12C27.8333 12.9254 28.5746 13.6667 29.5 13.6667C30.4254 13.6667 31.1667 12.9254 31.1667 12Z" fill="#E8E7FD"/>
</svg>
