<svg width="40" height="40" viewBox="0 0 40 40" fill="none" xmlns="http://www.w3.org/2000/svg">
<path fill-rule="evenodd" clip-rule="evenodd" d="M20 0C8.95431 0 0 8.95431 0 20C0 31.0457 8.95431 40 20 40C31.0457 40 40 31.0457 40 20C40 8.95431 31.0457 0 20 0ZM23.4998 31H24.5L24.4998 29.9998L24.4987 25.5681V25.5678C24.4987 25.2301 24.4238 24.8024 24.3161 24.4129C25.3676 24.1351 26.349 23.6619 27.1465 22.9521C28.3037 21.9224 29 20.4575 29 18.6011C29 16.9661 28.8363 15.8761 28.5324 15.0779C28.3391 14.5704 28.0982 14.2082 27.8626 13.927C28.0599 13.2328 28.2089 12.0774 27.6214 10.625L27.3685 10H26.6944V11C26.6944 10 26.6936 10 26.6929 10L26.6914 10L26.6882 10L26.6816 10.0001L26.6669 10.0003C26.6564 10.0006 26.6446 10.001 26.6315 10.0016C26.6054 10.0029 26.5741 10.0051 26.538 10.0087C26.4659 10.0159 26.3747 10.0288 26.2673 10.0518C26.0518 10.0978 25.7733 10.1837 25.4548 10.3421C24.972 10.5823 24.4202 10.9776 23.8654 11.617C23.8303 11.6048 23.7956 11.5934 23.7617 11.5827C23.4014 11.4689 23.0142 11.3998 22.6589 11.3557C21.948 11.2676 21.2489 11.267 20.9273 11.267C20.6047 11.267 19.9053 11.2676 19.1944 11.3557C18.8391 11.3998 18.452 11.4689 18.0917 11.5827C18.0579 11.5934 18.0233 11.6048 17.9882 11.6169C17.434 10.9779 16.883 10.5826 16.401 10.3424C16.083 10.184 15.8048 10.098 15.5895 10.0519C15.4821 10.0289 15.391 10.0159 15.3189 10.0087C15.2828 10.0051 15.2516 10.0029 15.2254 10.0016C15.2123 10.001 15.2005 10.0006 15.19 10.0003L15.1752 10.0001L15.1686 10L15.1655 10L15.1639 10C15.1632 10 15.1625 10 15.1625 11V10H14.4883L14.2354 10.625C13.6477 12.0778 13.7977 13.2336 13.9946 13.9267C13.7588 14.2078 13.5174 14.57 13.3236 15.0775C13.0189 15.8758 12.8547 16.9658 12.8547 18.6011C12.8547 20.3398 13.4662 21.7351 14.4947 22.751C14.0617 22.3917 13.4324 22.0457 12.6134 22.0343L12.5734 22.0319C12.5263 22.0293 12.4602 22.0268 12.3848 22.0272C12.2814 22.0278 11.9906 22.0311 11.7182 22.14C11.5883 22.1919 11.2532 22.3494 11.0852 22.7473C10.8938 23.2004 11.0633 23.5963 11.1858 23.7884C11.3053 23.9759 11.4631 24.1153 11.5866 24.2119C11.6889 24.2918 11.8062 24.3716 11.9367 24.4521C11.9913 24.5137 12.0751 24.6123 12.1784 24.7479C12.3827 25.0161 12.6629 25.4277 12.9473 25.9826L12.9476 25.9833C12.9613 26.0161 12.98 26.0584 13.0039 26.1088C13.0518 26.2094 13.1215 26.3433 13.2172 26.497C13.4075 26.8029 13.7073 27.1992 14.1506 27.5668C14.8818 28.1731 15.9354 28.6433 17.3625 28.5964C17.3625 28.7779 17.3623 28.9546 17.362 29.118C17.3615 29.3694 17.3608 29.5888 17.3602 29.7453L17.3595 29.929L17.3593 29.9781L17.3592 29.9908L17.3592 29.9939L17.3592 29.9947V29.9949V29.995L17.3541 31H18.3592H23.4998ZM15.1273 14.1294C14.9759 13.7696 14.4997 12.6382 15.1625 11C15.1625 11 16.0474 11 17.09 12.1136C17.2932 12.3307 17.5025 12.5901 17.7123 12.9C17.8024 12.8113 17.9183 12.735 18.0529 12.6694C18.8705 12.2709 20.3747 12.267 20.9273 12.267C21.4782 12.267 22.9831 12.2709 23.8008 12.6695C23.9353 12.7351 24.0513 12.8113 24.1413 12.9C24.3511 12.5901 24.5603 12.3308 24.7637 12.1137C25.8071 11 26.6944 11 26.6944 11C27.359 12.6428 26.8792 13.7761 26.7283 14.1325L26.7138 14.167C27.3563 14.8 28 15.434 28 18.6011C28 21.346 26.2465 22.9046 23.9497 23.4746C23.5965 23.5622 23.2306 23.6265 22.8561 23.6681C23.0483 23.832 23.2173 24.2154 23.3338 24.6142C23.4369 24.9674 23.4987 25.3326 23.4987 25.5681L23.4996 29L23.4998 30H22.4998H19.3592H18.3592C18.3592 30 18.3614 29.5636 18.3622 29C18.3624 28.8368 18.3626 28.6628 18.3625 28.4857C18.3624 28.1396 18.3615 27.7813 18.3592 27.467C18.0003 27.5432 17.6678 27.584 17.36 27.596C14.65 27.7013 13.8579 25.567 13.8579 25.567C13.5297 24.9199 13.2012 24.4382 12.9584 24.1217C12.8642 23.9989 12.7829 23.9011 12.7194 23.828C12.6262 23.7207 12.5717 23.667 12.5717 23.667C12.5526 23.6559 12.5341 23.6449 12.5162 23.6342L12.5162 23.6342C11.3233 22.9186 12.5717 23.034 12.5717 23.034C12.6946 23.034 12.8116 23.0456 12.9227 23.0665C12.9474 23.0712 12.9717 23.0763 12.9958 23.0818C13.0366 23.0912 13.0767 23.1019 13.1159 23.1136L13.116 23.1137C13.3039 23.1703 13.4728 23.253 13.6225 23.349C14.2079 23.7242 14.5005 24.3011 14.5005 24.3011C15.6293 26.1883 17.6368 25.8846 18.3581 25.5681C18.3581 25.2853 18.4142 24.9378 18.5086 24.6121C18.6254 24.2088 18.8008 23.8391 19.0007 23.6681C18.6239 23.6263 18.2556 23.5616 17.9002 23.4731C15.607 22.9022 13.8547 21.3432 13.8547 18.6011C13.8547 15.4383 14.4987 14.8028 15.1405 14.1696L15.1431 14.167L15.1273 14.1294ZM12.7956 22.6171C12.7957 22.6171 12.7974 22.6186 12.8004 22.6215C12.797 22.6186 12.7955 22.6171 12.7956 22.6171ZM16.7442 24.7742C16.2726 24.6967 15.7655 24.4558 15.3704 23.8072C15.3613 23.7904 15.3496 23.7695 15.3355 23.7451C15.3051 23.6927 15.2628 23.6234 15.2083 23.5428C15.109 23.3961 14.9643 23.2043 14.7717 23.007C15.5547 23.6835 16.5077 24.1386 17.5268 24.4095C17.4935 24.5314 17.4642 24.6567 17.4397 24.7829C17.2338 24.8096 16.993 24.8151 16.7442 24.7742Z" fill="#5641F2"/>
</svg>
