<svg width="40" height="40" viewBox="0 0 40 40" fill="none" xmlns="http://www.w3.org/2000/svg">
<path fill-rule="evenodd" clip-rule="evenodd" d="M20 0C8.95431 0 0 8.95431 0 20C0 31.0457 8.95431 40 20 40C31.0457 40 40 31.0457 40 20C40 8.95431 31.0457 0 20 0ZM18.1876 23.2431V29.7655C25.1236 29.7655 30.7463 24.3423 30.7463 17.6525V11.1301C23.8103 11.1301 18.1876 16.5533 18.1876 23.2431ZM8.05969 17.612V21.3516C8.05969 25.9985 11.8686 29.7655 16.5672 29.7655V26.026C16.5672 21.3791 12.7582 17.612 8.05969 17.612Z" fill="#5641F2"/>
</svg>
