<?xml version="1.0" encoding="UTF-8"?>
<svg width="60px" height="60px" viewBox="0 0 60 60" version="1.1" xmlns="http://www.w3.org/2000/svg" xmlns:xlink="http://www.w3.org/1999/xlink">
    <!-- Generator: Sketch 54.1 (76490) - https://sketchapp.com -->
    <title>sappl</title>
    <desc>Created with Sketch.</desc>
    <g id="Page-1" stroke="none" stroke-width="1" fill="none" fill-rule="evenodd">
        <g id="Home-Page" transform="translate(-984.000000, -778.000000)">
            <g id="Tiles" transform="translate(217.000000, 592.000000)">
                <g id="Commodities-and-Coming-Soon" transform="translate(687.000000, 0.000000)">
                    <g id="sappl" transform="translate(80.000000, 186.000000)">
                        <g id="sXAG_blue" fill="#7823AA">
                            <ellipse id="Oval-Copy" cx="29.9967935" cy="30.0576909" rx="29.8196463" ry="29.9221194"></ellipse>
                        </g>
                        <path d="M27.5736,33.15 L30.0312,26.43 L31.7592,26.43 L34.1976,33.15 L32.652,33.15 L32.1336,31.6812 L29.58,31.6812 L29.0616,33.15 L27.5736,33.15 Z M29.964,30.5196 L31.74,30.5196 L30.8472,27.966 L29.964,30.5196 Z M37.548,26.43 C38.0280024,26.43 38.4519982,26.5211991 38.82,26.7036 C39.1880018,26.8860009 39.472799,27.1467983 39.6744,27.486 C39.876001,27.8252017 39.9768,28.2187978 39.9768,28.6668 C39.9768,29.1148022 39.876001,29.5067983 39.6744,29.8428 C39.472799,30.1788017 39.1880018,30.4379991 38.82,30.6204 C38.4519982,30.8028009 38.0280024,30.894 37.548,30.894 L36.252,30.894 L36.252,33.15 L34.812,33.15 L34.812,26.43 L37.548,26.43 Z M36.252,29.694 L37.4136,29.694 C37.7528017,29.694 38.021599,29.6012009 38.22,29.4156 C38.418401,29.2299991 38.5176,28.9804016 38.5176,28.6668 C38.5176,28.3467984 38.418401,28.0940009 38.22,27.9084 C38.021599,27.7227991 37.7528017,27.63 37.4136,27.63 L36.252,27.63 L36.252,29.694 Z M43.5192,26.43 C43.9992024,26.43 44.4231982,26.5211991 44.7912,26.7036 C45.1592018,26.8860009 45.443999,27.1467983 45.6456,27.486 C45.847201,27.8252017 45.948,28.2187978 45.948,28.6668 C45.948,29.1148022 45.847201,29.5067983 45.6456,29.8428 C45.443999,30.1788017 45.1592018,30.4379991 44.7912,30.6204 C44.4231982,30.8028009 43.9992024,30.894 43.5192,30.894 L42.2232,30.894 L42.2232,33.15 L40.7832,33.15 L40.7832,26.43 L43.5192,26.43 Z M42.2232,29.694 L43.3848,29.694 C43.7240017,29.694 43.992799,29.6012009 44.1912,29.4156 C44.389601,29.2299991 44.4888,28.9804016 44.4888,28.6668 C44.4888,28.3467984 44.389601,28.0940009 44.1912,27.9084 C43.992799,27.7227991 43.7240017,27.63 43.3848,27.63 L42.2232,27.63 L42.2232,29.694 Z M46.7544,33.15 L46.7544,26.43 L48.1944,26.43 L48.1944,31.9116 L50.8632,31.9116 L50.8632,33.15 L46.7544,33.15 Z" id="APPL" fill="#FFFFFF" fill-rule="nonzero" transform="translate(39.218400, 29.790000) rotate(270.000000) translate(-39.218400, -29.790000) "></path>
                        <g id="Group-19" transform="translate(15.600000, 17.700000)">
                            <g id="Group-Copy" transform="translate(0.000000, 0.029730)">
                                <g id="Group-6" transform="translate(0.000000, 0.117714)">
                                    <g id="Group-5" transform="translate(0.143702, 0.090961)">
                                        <g id="Group-4" transform="translate(0.012613, 0.077937)">
                                            <polygon id="Path-3" fill="#8E8C98" points="2.69507974 23.2126155 0.30917361 21.5029666 15.3155974 0.560701579 17.7015035 2.2703504"></polygon>
                                            <path d="M10.5578285,10.4435293 C11.3683639,10.4435293 12.0254326,11.100598 12.0254326,11.9111334 C12.0254326,12.7216688 11.3683639,13.3787375 10.5578285,13.3787375 L6.74836398,13.3787375 C3.05879501,13.3787375 0.0678084025,10.3877509 0.0678084025,6.69818189 C0.0678084025,3.00861293 3.05879501,0.017626321 6.74836398,0.017626321 L16.5727725,0.017626321 C17.3833079,0.017626321 18.0403766,0.674695055 18.0403766,1.48523042 C18.0403766,2.29576578 17.3833079,2.95283452 16.5727725,2.95283452 L6.74836398,2.95283452 C4.67986573,2.95283452 3.00301659,4.62968366 3.00301659,6.69818189 C3.00301659,8.76668013 4.67986573,10.4435293 6.74836398,10.4435293 L10.5578285,10.4435293 Z" id="Rectangle-2" fill="#FFFFFF"></path>
                                            <path d="M10.5578289,20.8694322 C11.3683643,20.8694322 12.025433,21.526501 12.025433,22.3370363 C12.025433,23.1475717 11.3683643,23.8046404 10.5578289,23.8046404 L6.74836434,23.8046404 C3.05879537,23.8046404 0.0678087644,20.8136538 0.0678087644,17.1240848 C0.0678087644,13.4345159 3.05879537,10.4435293 6.74836434,10.4435293 L16.5727729,10.4435293 C17.3833083,10.4435293 18.040377,11.100598 18.040377,11.9111334 C18.040377,12.7216688 17.3833083,13.3787375 16.5727729,13.3787375 L6.74836434,13.3787375 C4.67986609,13.3787375 3.00301696,15.0555866 3.00301696,17.1240848 C3.00301696,19.192583 4.67986609,20.8694322 6.74836434,20.8694322 L10.5578289,20.8694322 Z" id="Rectangle-2-Copy" fill="#FFFFFF" transform="translate(9.054093, 17.124085) rotate(-180.000000) translate(-9.054093, -17.124085) "></path>
                                        </g>
                                    </g>
                                </g>
                            </g>
                        </g>
                    </g>
                </g>
            </g>
        </g>
    </g>
</svg>