<?xml version="1.0" encoding="UTF-8"?>
<svg width="442px" height="443px" viewBox="0 0 442 443" version="1.1" xmlns="http://www.w3.org/2000/svg" xmlns:xlink="http://www.w3.org/1999/xlink">
    <!-- Generator: Sketch 59 (86127) - https://sketch.com -->
    <title>sAPPL</title>
    <desc>Created with Sketch.</desc>
    <g id="Page-1" stroke="none" stroke-width="1" fill="none" fill-rule="evenodd">
        <g id="sAPPL">
            <g id="sXAG_blue" fill="#7823AA">
                <ellipse id="Oval-Copy" cx="220.976272" cy="221.426912" rx="220.665383" ry="221.423683"></ellipse>
            </g>
            <g id="Group-19" transform="translate(120.000000, 132.000000)">
                <g id="Group-Copy" transform="translate(0.000000, 0.220575)">
                    <g id="Group-6" transform="translate(0.000000, 0.873360)">
                        <g id="Group-5" transform="translate(0.066179, 0.674870)">
                            <g id="Group-4" transform="translate(0.093578, 0.578239)">
                                <polygon id="Path-3" fill="#8E8C98" points="19.9957529 172.222631 2.29386872 159.538139 113.631852 4.16004398 131.333736 16.8445352"></polygon>
                                <path d="M78.3322762,77.4842497 C84.3459259,77.4842497 89.2209517,82.3592755 89.2209517,88.3729251 C89.2209517,94.3865748 84.3459259,99.2616006 78.3322762,99.2616006 L50.068507,99.2616006 C22.6942856,99.2616006 0.503094599,77.0704099 0.503094599,49.6961882 C0.503094599,22.3219669 22.6942856,0.13077593 50.068507,0.13077593 L122.95928,0.13077593 C128.97293,0.13077593 133.847956,5.00580202 133.847956,11.0194515 C133.847956,17.033101 128.97293,21.9081271 122.95928,21.9081271 L50.068507,21.9081271 C34.7215845,21.9081271 22.2804457,34.3492658 22.2804457,49.6961882 C22.2804457,65.0431107 34.7215845,77.4842497 50.068507,77.4842497 L78.3322762,77.4842497 Z" id="Rectangle-2" fill="#FFFFFF"></path>
                                <path d="M78.3322789,154.837723 C84.3459286,154.837723 89.2209544,159.712749 89.2209544,165.726398 C89.2209544,171.740048 84.3459286,176.615074 78.3322789,176.615074 L50.0685096,176.615074 C22.6942883,176.615074 0.503097285,154.423883 0.503097285,127.049662 C0.503097285,99.6754404 22.6942883,77.4842497 50.0685096,77.4842497 L122.959283,77.4842497 C128.972932,77.4842497 133.847958,82.3592755 133.847958,88.3729251 C133.847958,94.3865748 128.972932,99.2616006 122.959283,99.2616006 L50.0685096,99.2616006 C34.7215872,99.2616006 22.2804484,111.70274 22.2804484,127.049662 C22.2804484,142.396584 34.7215872,154.837723 50.0685096,154.837723 L78.3322789,154.837723 Z" id="Rectangle-2-Copy" fill="#FFFFFF" transform="translate(67.175528, 127.049662) rotate(-180.000000) translate(-67.175528, -127.049662) "></path>
                            </g>
                        </g>
                    </g>
                </g>
            </g>
            <path d="M210,248 L227.92,199 L240.52,199 L258.3,248 L247.03,248 L243.25,237.29 L224.63,237.29 L220.85,248 L210,248 Z M227.43,228.82 L240.38,228.82 L233.87,210.2 L227.43,228.82 Z M259.56,248 L277.48,199 L290.08,199 L307.86,248 L296.59,248 L292.81,237.29 L274.19,237.29 L270.41,248 L259.56,248 Z M276.99,228.82 L289.94,228.82 L283.43,210.2 L276.99,228.82 Z M332.29,199 C335.790017,199 338.881653,199.664993 341.565,200.995 C344.248347,202.325007 346.324993,204.226654 347.795,206.7 C349.265007,209.173346 350,212.043317 350,215.31 C350,218.576683 349.265007,221.434988 347.795,223.885 C346.324993,226.335012 344.248347,228.224993 341.565,229.555 C338.881653,230.885007 335.790017,231.55 332.29,231.55 L322.84,231.55 L322.84,248 L312.34,248 L312.34,199 L332.29,199 Z M322.84,222.8 L331.31,222.8 C333.783346,222.8 335.743326,222.12334 337.19,220.77 C338.636674,219.41666 339.36,217.596678 339.36,215.31 C339.36,212.976655 338.636674,211.13334 337.19,209.78 C335.743326,208.42666 333.783346,207.75 331.31,207.75 L322.84,207.75 L322.84,222.8 Z M355.88,248 L355.88,199 L366.38,199 L366.38,238.97 L385.84,238.97 L385.84,248 L355.88,248 Z" id="AAPL" fill="#FFFFFF" fill-rule="nonzero" transform="translate(297.920000, 223.500000) rotate(270.000000) translate(-297.920000, -223.500000) "></path>
        </g>
    </g>
</svg>