<?xml version="1.0" encoding="UTF-8"?>
<svg width="60px" height="61px" viewBox="0 0 60 61" version="1.1" xmlns="http://www.w3.org/2000/svg" xmlns:xlink="http://www.w3.org/1999/xlink">
    <!-- Generator: Sketch 52.6 (67491) - http://www.bohemiancoding.com/sketch -->
    <title>sAUD_blue</title>
    <desc>Created with Sketch.</desc>
    <defs>
        <path d="M0.0695598991,11.9641373 L3.0796079,3.7335373 L5.1960479,3.7335373 L8.1825799,11.9641373 L6.2895419,11.9641373 L5.6546099,10.1651633 L2.5269819,10.1651633 L1.8920499,11.9641373 L0.0695598991,11.9641373 Z M2.9973019,8.7424453 L5.1725319,8.7424453 L4.0790379,5.6148173 L2.9973019,8.7424453 Z M10.1461659,3.7335373 L10.1461659,8.5072853 C10.1461659,9.1735753 10.2755026,9.67524495 10.5341799,10.0123093 C10.7928572,10.3493737 11.2004638,10.5179033 11.7570119,10.5179033 C12.31356,10.5179033 12.7231263,10.3493737 12.9857229,10.0123093 C13.2483195,9.67524495 13.3796159,9.1735753 13.3796159,8.5072853 L13.3796159,3.7335373 L15.1433159,3.7335373 L15.1433159,8.4132213 C15.1433159,9.58902718 14.8552478,10.4865455 14.2791029,11.1058033 C13.702958,11.7250611 12.8622694,12.0346853 11.7570119,12.0346853 C10.6517544,12.0346853 9.81302543,11.7250611 9.2407999,11.1058033 C8.66857437,10.4865455 8.3824659,9.58902718 8.3824659,8.4132213 L8.3824659,3.7335373 L10.1461659,3.7335373 Z M16.4954859,3.7335373 L19.3526799,3.7335373 C20.175744,3.7335373 20.9027731,3.90794589 21.5337889,4.2567683 C22.1648047,4.60559071 22.6507972,5.09158319 22.9917809,5.7147603 C23.3327646,6.33793742 23.5032539,7.04928931 23.5032539,7.8488373 C23.5032539,8.6483853 23.3327646,9.35973719 22.9917809,9.9829143 C22.6507972,10.6060914 22.1648047,11.0920839 21.5337889,11.4409063 C20.9027731,11.7897287 20.175744,11.9641373 19.3526799,11.9641373 L16.4954859,11.9641373 L16.4954859,3.7335373 Z M19.3526799,10.4943873 C20.097357,10.4943873 20.6754528,10.2533507 21.0869849,9.7712703 C21.498517,9.28918989 21.7042799,8.6483853 21.7042799,7.8488373 C21.7042799,7.04928931 21.498517,6.40848471 21.0869849,5.9264043 C20.6754528,5.44432389 20.097357,5.2032873 19.3526799,5.2032873 L18.2591859,5.2032873 L18.2591859,10.4943873 L19.3526799,10.4943873 Z" id="path-1"></path>
    </defs>
    <g id="Page-1" stroke="none" stroke-width="1" fill="none" fill-rule="evenodd">
        <g id="Home-Page-Variant" transform="translate(-451.000000, -893.000000)">
            <g id="sAUD_blue" transform="translate(451.000000, 893.964625)">
                <circle id="Oval-Copy" fill="#1E1A31" cx="30" cy="30" r="30"></circle>
                <g id="Group-19" transform="translate(14.200000, 17.400000)">
                    <g id="Group-Copy" transform="translate(0.128470, 0.229493)" fill="#FFFFFF">
                        <g id="Group-6" transform="translate(0.000000, 0.117791)">
                            <g id="Group-5" transform="translate(0.144121, 0.091020)">
                                <g id="Group-4" transform="translate(0.012649, 0.077988)">
                                    <path d="M10.5759606,10.6369844 C11.3888574,10.6369844 12.0478404,11.2944844 12.0478404,12.1055518 C12.0478404,12.9166191 11.3888574,13.5741191 10.5759606,13.5741191 L6.75539731,13.5741191 C3.05507895,13.5741191 0.0553782372,10.5811694 0.0553782372,6.88917884 C0.0553782372,3.19718828 3.05507895,0.204238587 6.75539731,0.204238587 L16.6084288,0.204238587 C17.4213257,0.204238587 18.0803087,0.861738577 18.0803087,1.67280592 C18.0803087,2.48387327 17.4213257,3.14137326 16.6084288,3.14137326 L6.75539731,3.14137326 C4.68087258,3.14137326 2.99913802,4.81932297 2.99913802,6.88917884 C2.99913802,8.9590347 4.68087258,10.6369844 6.75539731,10.6369844 L10.5759606,10.6369844 Z" id="Rectangle-2"></path>
                                    <path d="M10.5759609,21.0697302 C11.3888578,21.0697302 12.0478408,21.7272303 12.0478408,22.5382976 C12.0478408,23.3493649 11.3888578,24.0068649 10.5759609,24.0068649 L6.75539767,24.0068649 C3.05507931,24.0068649 0.0553786002,21.0139152 0.0553786002,17.3219247 C0.0553786002,13.6299341 3.05507931,10.6369844 6.75539767,10.6369844 L16.6084292,10.6369844 C17.421326,10.6369844 18.0803091,11.2944844 18.0803091,12.1055518 C18.0803091,12.9166191 17.421326,13.5741191 16.6084292,13.5741191 L6.75539767,13.5741191 C4.68087295,13.5741191 2.99913838,15.2520688 2.99913838,17.3219247 C2.99913838,19.3917805 4.68087295,21.0697302 6.75539767,21.0697302 L10.5759609,21.0697302 Z" id="Rectangle-2-Copy" transform="translate(9.067844, 17.321925) rotate(-180.000000) translate(-9.067844, -17.321925) "></path>
                                    <polygon id="Path-3" fill-opacity="0.5" points="2.69030401 23.4144514 0.297446651 21.7036804 15.347591 0.747670284 17.7404483 2.4584412"></polygon>
                                </g>
                            </g>
                        </g>
                    </g>
                    <g id="AUD" transform="translate(24.264767, 12.186917) rotate(-90.000000) translate(-24.264767, -12.186917) translate(12.164767, 4.986917)">
                        <g>
                            <use fill="#000000" xlink:href="#path-1"></use>
                            <use fill="#FFFFFF" xlink:href="#path-1"></use>
                        </g>
                    </g>
                </g>
            </g>
        </g>
    </g>
</svg>