<?xml version="1.0" encoding="UTF-8"?>
<svg width="60px" height="60px" viewBox="0 0 60 60" version="1.1" xmlns="http://www.w3.org/2000/svg" xmlns:xlink="http://www.w3.org/1999/xlink">
    <!-- Generator: Sketch 55.1 (78136) - https://sketchapp.com -->
    <title>sBNB</title>
    <desc>Created with Sketch.</desc>
    <g id="Page-1" stroke="none" stroke-width="1" fill="none" fill-rule="evenodd">
        <g id="Home-Page-(new-footer)" transform="translate(-795.000000, -695.000000)">
            <g id="Tiles" transform="translate(217.000000, 592.000000)">
                <g id="Commod/crypto-tile" transform="translate(349.000000, 1.000000)">
                    <g id="sBNB" transform="translate(229.000000, 102.000000)">
                        <g id="iBNB-2" fill="#53B267">
                            <g id="iBTC">
                                <g id="Group-4">
                                    <circle id="Oval" cx="30" cy="30" r="30"></circle>
                                </g>
                            </g>
                        </g>
                        <g id="Group-19" transform="translate(15.539568, 17.697842)">
                            <g id="Group-Copy" transform="translate(0.127577, 0.012631)">
                                <g id="Group-6" transform="translate(0.000000, 0.116812)">
                                    <g id="Group-5" transform="translate(0.142944, 0.090264)">
                                        <g id="Group-4" transform="translate(0.012546, 0.077339)">
                                            <polygon id="Path-3" fill="#8E8C98" points="2.67957837 23.0348695 0.306265824 21.338322 15.2334809 0.556541198 17.6067934 2.25308868"></polygon>
                                            <path d="M10.500825,10.3636351 C11.3070822,10.3636351 11.9606826,11.0156686 11.9606826,11.8199927 C11.9606826,12.6243168 11.3070822,13.2763502 10.500825,13.2763502 L6.71146807,13.2763502 C3.04137384,13.2763502 0.0661746195,10.3082841 0.0661746195,6.64698893 C0.0661746195,2.98569377 3.04137384,0.0176276198 6.71146807,0.0176276198 L16.4840202,0.0176276198 C17.2902773,0.0176276198 17.9438778,0.669661121 17.9438778,1.47398521 C17.9438778,2.2783093 17.2902773,2.9303428 16.4840202,2.9303428 L6.71146807,2.9303428 C4.65388802,2.9303428 2.98588983,4.59434196 2.98588983,6.64698893 C2.98588983,8.69963591 4.65388802,10.3636351 6.71146807,10.3636351 L10.500825,10.3636351 Z" id="Rectangle-2" fill="#FFFFFF"></path>
                                            <path d="M10.5008254,20.7096425 C11.3070825,20.7096425 11.960683,21.3616761 11.960683,22.1660001 C11.960683,22.9703242 11.3070825,23.6223576 10.5008254,23.6223576 L6.71146843,23.6223576 C3.0413742,23.6223576 0.0661749795,20.6542915 0.0661749795,16.9929964 C0.0661749795,13.3317012 3.0413742,10.3636351 6.71146843,10.3636351 L16.4840206,10.3636351 C17.2902777,10.3636351 17.9438782,11.0156686 17.9438782,11.8199927 C17.9438782,12.6243168 17.2902777,13.2763502 16.4840206,13.2763502 L6.71146843,13.2763502 C4.65388838,13.2763502 2.98589019,14.9403494 2.98589019,16.9929964 C2.98589019,19.0456433 4.65388838,20.7096425 6.71146843,20.7096425 L10.5008254,20.7096425 Z" id="Rectangle-2-Copy" fill="#FFFFFF" transform="translate(9.005027, 16.992996) rotate(-180.000000) translate(-9.005027, -16.992996) "></path>
                                        </g>
                                    </g>
                                </g>
                            </g>
                        </g>
                        <path d="M31.7645852,25.4676259 C32.7660837,25.4676259 33.5418231,25.6649518 34.0918264,26.0596095 C34.6418297,26.4542671 34.9168272,27.0133571 34.9168272,27.7368962 C34.9168272,28.2713285 34.7690674,28.7029788 34.4735432,29.0318602 C34.178019,29.3607416 33.7593661,29.5745113 33.2175717,29.6731757 C33.8578741,29.7553961 34.3524592,29.9609439 34.7013419,30.2898253 C35.0502246,30.6187067 35.2246634,31.0791337 35.2246634,31.6711202 C35.2246634,32.4275475 34.9373525,33.0215806 34.3627222,33.4532374 C33.7880918,33.8848942 32.9754126,34.1007194 31.92466,34.1007194 L28.4892086,34.1007194 L28.4892086,25.4676259 L31.7645852,25.4676259 Z M30.3362255,29.0195272 L31.8138389,29.0195272 C32.2078712,29.0195272 32.5157042,28.9249753 32.7373474,28.7358684 C32.9589905,28.5467616 33.0698104,28.2918824 33.0698104,27.971223 C33.0698104,27.6505637 32.9589905,27.3956844 32.7373474,27.2065776 C32.5157042,27.0174708 32.2078712,26.9229188 31.8138389,26.9229188 L30.3362255,26.9229188 L30.3362255,29.0195272 Z M30.3362255,32.6330935 L31.9369734,32.6330935 C32.3802597,32.6330935 32.7229805,32.5385415 32.9651461,32.3494347 C33.2073117,32.1603279 33.3283928,31.8972268 33.3283928,31.5601233 C33.3283928,31.2065758 33.2052595,30.9331973 32.9589894,30.7399794 C32.7127192,30.5467616 32.3720507,30.4501542 31.9369734,30.4501542 L30.3362255,30.4501542 L30.3362255,32.6330935 Z M36.4436945,34.1007194 L36.4436945,25.4676259 L38.1183231,25.4676259 L41.7754164,30.9064748 L41.7754164,25.4676259 L43.5978064,25.4676259 L43.5978064,34.1007194 L41.9108643,34.1007194 L38.253771,28.6618705 L38.253771,34.1007194 L36.4436945,34.1007194 Z M48.3384829,25.4676259 C49.3399815,25.4676259 50.1157208,25.6649518 50.6657242,26.0596095 C51.2157275,26.4542671 51.490725,27.0133571 51.490725,27.7368962 C51.490725,28.2713285 51.3429651,28.7029788 51.047441,29.0318602 C50.7519168,29.3607416 50.3332638,29.5745113 49.7914695,29.6731757 C50.4317719,29.7553961 50.926357,29.9609439 51.2752397,30.2898253 C51.6241224,30.6187067 51.7985612,31.0791337 51.7985612,31.6711202 C51.7985612,32.4275475 51.5112503,33.0215806 50.93662,33.4532374 C50.3619896,33.8848942 49.5493103,34.1007194 48.4985577,34.1007194 L45.0631064,34.1007194 L45.0631064,25.4676259 L48.3384829,25.4676259 Z M46.9101232,29.0195272 L48.3877367,29.0195272 C48.7817689,29.0195272 49.089602,28.9249753 49.3112451,28.7358684 C49.5328883,28.5467616 49.6437082,28.2918824 49.6437082,27.971223 C49.6437082,27.6505637 49.5328883,27.3956844 49.3112451,27.2065776 C49.089602,27.0174708 48.7817689,26.9229188 48.3877367,26.9229188 L46.9101232,26.9229188 L46.9101232,29.0195272 Z M46.9101232,32.6330935 L48.5108712,32.6330935 C48.9541574,32.6330935 49.2968782,32.5385415 49.5390439,32.3494347 C49.7812095,32.1603279 49.9022905,31.8972268 49.9022905,31.5601233 C49.9022905,31.2065758 49.7791573,30.9331973 49.5328872,30.7399794 C49.286617,30.5467616 48.9459484,30.4501542 48.5108712,30.4501542 L46.9101232,30.4501542 L46.9101232,32.6330935 Z" id="BNB" fill="#FFFFFF" fill-rule="nonzero" transform="translate(40.143885, 29.784173) rotate(270.000000) translate(-40.143885, -29.784173) "></path>
                    </g>
                </g>
            </g>
        </g>
    </g>
</svg>