<?xml version="1.0" encoding="UTF-8"?>
<svg width="60px" height="60px" viewBox="0 0 60 60" version="1.1" xmlns="http://www.w3.org/2000/svg" xmlns:xlink="http://www.w3.org/1999/xlink">
    <!-- Generator: Sketch 53.2 (72643) - https://sketchapp.com -->
    <title>sBRL_blue</title>
    <desc>Created with Sketch.</desc>
    <g id="Page-1" stroke="none" stroke-width="1" fill="none" fill-rule="evenodd">
        <g id="Home-Page-Variant" transform="translate(-246.000000, -1050.000000)">
            <g id="sBRL_blue" transform="translate(246.000000, 1050.000000)">
                <circle id="Oval-Copy" fill="#1E1A31" cx="30.0779626" cy="30.054242" r="29.9152659"></circle>
                <g id="Group-7" transform="translate(14.200000, 16.800000)">
                    <g id="Group-19" transform="translate(0.000000, 0.800000)">
                        <g id="Group-Copy" transform="translate(0.000000, 0.029730)">
                            <g id="Group-6" transform="translate(0.000000, 0.117714)">
                                <g id="Group-5" transform="translate(0.143702, 0.090961)">
                                    <g id="Group-4" transform="translate(0.012613, 0.077937)">
                                        <polygon id="Path-3" fill="#8E8C98" points="2.69507974 23.2126155 0.30917361 21.5029666 15.3155974 0.560701579 17.7015035 2.2703504"></polygon>
                                        <path d="M10.5578285,10.4435293 C11.3683639,10.4435293 12.0254326,11.100598 12.0254326,11.9111334 C12.0254326,12.7216688 11.3683639,13.3787375 10.5578285,13.3787375 L6.74836398,13.3787375 C3.05879501,13.3787375 0.0678084025,10.3877509 0.0678084025,6.69818189 C0.0678084025,3.00861293 3.05879501,0.017626321 6.74836398,0.017626321 L16.5727725,0.017626321 C17.3833079,0.017626321 18.0403766,0.674695055 18.0403766,1.48523042 C18.0403766,2.29576578 17.3833079,2.95283452 16.5727725,2.95283452 L6.74836398,2.95283452 C4.67986573,2.95283452 3.00301659,4.62968366 3.00301659,6.69818189 C3.00301659,8.76668013 4.67986573,10.4435293 6.74836398,10.4435293 L10.5578285,10.4435293 Z" id="Rectangle-2" fill="#FFFFFF"></path>
                                        <path d="M10.5578289,20.8694322 C11.3683643,20.8694322 12.025433,21.526501 12.025433,22.3370363 C12.025433,23.1475717 11.3683643,23.8046404 10.5578289,23.8046404 L6.74836434,23.8046404 C3.05879537,23.8046404 0.0678087644,20.8136538 0.0678087644,17.1240848 C0.0678087644,13.4345159 3.05879537,10.4435293 6.74836434,10.4435293 L16.5727729,10.4435293 C17.3833083,10.4435293 18.040377,11.100598 18.040377,11.9111334 C18.040377,12.7216688 17.3833083,13.3787375 16.5727729,13.3787375 L6.74836434,13.3787375 C4.67986609,13.3787375 3.00301696,15.0555866 3.00301696,17.1240848 C3.00301696,19.192583 4.67986609,20.8694322 6.74836434,20.8694322 L10.5578289,20.8694322 Z" id="Rectangle-2-Copy" fill="#FFFFFF" transform="translate(9.054093, 17.124085) rotate(-180.000000) translate(-9.054093, -17.124085) "></path>
                                    </g>
                                </g>
                            </g>
                        </g>
                    </g>
                    <path d="M19.364,7.2 C20.5026724,7.2 21.3846635,7.42399776 22.01,7.872 C22.6353365,8.32000224 22.948,8.95466256 22.948,9.776 C22.948,10.3826697 22.7800017,10.8726648 22.444,11.246 C22.1079983,11.6193352 21.6320031,11.8619994 21.016,11.974 C21.7440036,12.0673338 22.3063314,12.3006648 22.703,12.674 C23.0996687,13.0473352 23.298,13.5699966 23.298,14.242 C23.298,15.100671 22.9713366,15.7749976 22.318,16.265 C21.6646634,16.7550025 20.7406726,17 19.546,17 L15.64,17 L15.64,7.2 L19.364,7.2 Z M17.74,11.232 L19.42,11.232 C19.8680022,11.232 20.2179987,11.1246677 20.47,10.91 C20.7220013,10.6953323 20.848,10.4060018 20.848,10.042 C20.848,9.67799818 20.7220013,9.38866774 20.47,9.174 C20.2179987,8.95933226 19.8680022,8.852 19.42,8.852 L17.74,8.852 L17.74,11.232 Z M17.74,15.334 L19.56,15.334 C20.0640025,15.334 20.4536653,15.2266677 20.729,15.012 C21.0043347,14.7973323 21.142,14.4986686 21.142,14.116 C21.142,13.7146647 21.0020014,13.4043344 20.722,13.185 C20.4419986,12.9656656 20.0546691,12.856 19.56,12.856 L17.74,12.856 L17.74,15.334 Z M28.674,7.2 C29.3833369,7.2 30.0109973,7.33299867 30.557,7.599 C31.1030027,7.86500133 31.5253318,8.24533086 31.824,8.74 C32.1226682,9.23466914 32.272,9.8086634 32.272,10.462 C32.272,11.0873365 32.1226682,11.6403309 31.824,12.121 C31.5253318,12.6016691 31.1146693,12.9679987 30.592,13.22 L32.524,17 L30.2,17 L28.562,13.71 L26.784,13.71 L26.784,17 L24.684,17 L24.684,7.2 L28.674,7.2 Z M26.784,11.96 L28.506,11.96 C29.0006691,11.96 29.3949985,11.824668 29.689,11.554 C29.9830015,11.283332 30.13,10.9193356 30.13,10.462 C30.13,9.995331 29.9830015,9.62666802 29.689,9.356 C29.3949985,9.08533198 29.0006691,8.95 28.506,8.95 L26.784,8.95 L26.784,11.96 Z M33.672,17 L33.672,7.2 L35.772,7.2 L35.772,15.194 L39.664,15.194 L39.664,17 L33.672,17 Z" id="BRL" fill="#FFFFFF" fill-rule="nonzero" transform="translate(27.652000, 12.100000) rotate(270.000000) translate(-27.652000, -12.100000) "></path>
                </g>
            </g>
        </g>
    </g>
</svg>