<?xml version="1.0" encoding="UTF-8"?>
<svg width="60px" height="61px" viewBox="0 0 60 61" version="1.1" xmlns="http://www.w3.org/2000/svg" xmlns:xlink="http://www.w3.org/1999/xlink">
    <!-- Generator: Sketch 53.2 (72643) - https://sketchapp.com -->
    <title>sBTC_blue</title>
    <desc>Created with Sketch.</desc>
    <g id="Page-1" stroke="none" stroke-width="1" fill="none" fill-rule="evenodd">
        <g id="Home-Page" transform="translate(-788.000000, -728.000000)">
            <g id="Top-Row" transform="translate(219.000000, 634.000000)">
                <g id="Tiles">
                    <g id="Commod/crypto-tile" transform="translate(339.387060, 0.000000)">
                        <g id="sBTC_blue" transform="translate(229.612940, 94.000000)">
                            <ellipse id="Oval-Copy" fill="#1E1A31" cx="30" cy="30.2307692" rx="30" ry="30.2307692"></ellipse>
                            <g id="Group-19" transform="translate(15.230769, 18.000000)" fill="#FFFFFF">
                                <g id="Group-Copy" transform="translate(0.128702, 0.012794)">
                                    <g id="Group-6" transform="translate(0.000000, 0.118325)">
                                        <g id="Group-5" transform="translate(0.144204, 0.091433)">
                                            <g id="Group-4" transform="translate(0.012657, 0.078341)">
                                                <path d="M10.5934264,10.4979008 C11.4067934,10.4979008 12.0661577,11.1583817 12.0661577,11.9731262 C12.0661577,12.7878707 11.4067934,13.4483515 10.5934264,13.4483515 L6.77065302,13.4483515 C3.06819413,13.4483515 0.066758179,10.4418327 0.066758179,6.73310377 C0.066758179,3.02437483 3.06819413,0.0178559939 6.77065302,0.0178559939 L16.6293842,0.0178559939 C17.4427513,0.0178559939 18.1021155,0.678336893 18.1021155,1.49308138 C18.1021155,2.30782586 17.4427513,2.96830676 16.6293842,2.96830676 L6.77065302,2.96830676 C4.69492824,2.96830676 3.01222084,4.65386379 3.01222084,6.73310377 C3.01222084,8.81234374 4.69492824,10.4979008 6.77065302,10.4979008 L10.5934264,10.4979008 Z" id="Rectangle-2"></path>
                                                <path d="M10.5934267,20.9779455 C11.4067938,20.9779455 12.066158,21.6384265 12.066158,22.4531709 C12.066158,23.2679154 11.4067938,23.9283963 10.5934267,23.9283963 L6.77065338,23.9283963 C3.06819449,23.9283963 0.0667585422,20.9218775 0.0667585422,17.2131485 C0.0667585422,13.5044196 3.06819449,10.4979008 6.77065338,10.4979008 L16.6293846,10.4979008 C17.4427517,10.4979008 18.1021159,11.1583817 18.1021159,11.9731262 C18.1021159,12.7878707 17.4427517,13.4483515 16.6293846,13.4483515 L6.77065338,13.4483515 C4.6949286,13.4483515 3.01222121,15.1339086 3.01222121,17.2131485 C3.01222121,19.2923885 4.6949286,20.9779455 6.77065338,20.9779455 L10.5934267,20.9779455 Z" id="Rectangle-2-Copy" transform="translate(9.084437, 17.213149) rotate(-180.000000) translate(-9.084437, -17.213149) "></path>
                                                <polygon id="Path-3" fill-opacity="0.5" points="2.70320818 23.333297 0.308966623 21.6147699 15.367817 0.563751448 17.7620586 2.28227849"></polygon>
                                            </g>
                                        </g>
                                    </g>
                                </g>
                                <path d="M18.1328859,8.14019851 C19.1154412,8.14019851 19.8765074,8.33314944 20.4161074,8.71905707 C20.9557074,9.10496471 21.2255034,9.65165899 21.2255034,10.3591563 C21.2255034,10.8817396 21.0805384,11.3038197 20.790604,11.6254094 C20.5006697,11.9469991 20.0899355,12.1560293 19.5583893,12.2525062 C20.1865803,12.3329036 20.6718104,12.5338942 21.014094,12.8554839 C21.3563776,13.1770736 21.5275168,13.6272924 21.5275168,14.2061538 C21.5275168,14.9458101 21.2456404,15.5266728 20.6818792,15.9487593 C20.118118,16.3708458 19.3208105,16.5818859 18.2899329,16.5818859 L14.9194631,16.5818859 L14.9194631,8.14019851 L18.1328859,8.14019851 Z M16.7315436,11.6133499 L18.1812081,11.6133499 C18.5677872,11.6133499 18.8697976,11.5208942 19.0872483,11.3359801 C19.3046991,11.1510661 19.4134228,10.9018378 19.4134228,10.5882878 C19.4134228,10.2747379 19.3046991,10.0255096 19.0872483,9.84059553 C18.8697976,9.65568146 18.5677872,9.56322581 18.1812081,9.56322581 L16.7315436,9.56322581 L16.7315436,11.6133499 Z M16.7315436,15.146799 L18.3020134,15.146799 C18.7369149,15.146799 19.0731532,15.0543434 19.3107383,14.8694293 C19.5483233,14.6845152 19.6671141,14.4272473 19.6671141,14.0976179 C19.6671141,13.7519089 19.5463099,13.4845915 19.304698,13.2956576 C19.063086,13.1067236 18.7288612,13.0122581 18.3020134,13.0122581 L16.7315436,13.0122581 L16.7315436,15.146799 Z M21.6724832,8.14019851 L28.3651007,8.14019851 L28.3651007,9.69588089 L25.9248322,9.69588089 L25.9248322,16.5818859 L24.1127517,16.5818859 L24.1127517,9.69588089 L21.6724832,9.69588089 L21.6724832,8.14019851 Z M28.4375839,12.3610422 C28.4375839,11.5007897 28.6046963,10.7470752 28.9389262,10.0998759 C29.273156,9.45267666 29.7523459,8.95221021 30.3765101,8.59846154 C31.0006743,8.24471287 31.7355662,8.06784119 32.5812081,8.06784119 C33.241614,8.06784119 33.8335544,8.19647514 34.357047,8.4537469 C34.8805395,8.71101866 35.3033541,9.07280164 35.6255034,9.5391067 C35.9476526,10.0054118 36.1409393,10.5440664 36.2053691,11.1550868 L34.3932886,11.1550868 C34.2885901,10.6727023 34.0691292,10.2928302 33.7348993,10.0154591 C33.4006695,9.73808794 32.9838951,9.59940447 32.4845638,9.59940447 C31.8080503,9.59940447 31.2724852,9.85265255 30.8778523,10.3591563 C30.4832195,10.8656601 30.285906,11.5329487 30.285906,12.3610422 C30.285906,13.1810959 30.4832195,13.8463746 30.8778523,14.3568983 C31.2724852,14.8674219 31.8080503,15.1226799 32.4845638,15.1226799 C32.9838951,15.1226799 33.4006695,14.9839964 33.7348993,14.7066253 C34.0691292,14.4292542 34.2885901,14.0493821 34.3932886,13.5669975 L36.2053691,13.5669975 C36.1409393,14.1780179 35.9476526,14.7166726 35.6255034,15.1829777 C35.3033541,15.6492827 34.8805395,16.0110657 34.357047,16.2683375 C33.8335544,16.5256092 33.241614,16.6542432 32.5812081,16.6542432 C31.7355662,16.6542432 31.0006743,16.4773715 30.3765101,16.1236228 C29.7523459,15.7698742 29.273156,15.2694077 28.9389262,14.6222084 C28.6046963,13.9750092 28.4375839,13.2212946 28.4375839,12.3610422 Z" id="BTC" fill-rule="nonzero" transform="translate(25.562416, 12.361042) rotate(270.000000) translate(-25.562416, -12.361042) "></path>
                            </g>
                        </g>
                    </g>
                </g>
            </g>
        </g>
    </g>
</svg>