<?xml version="1.0" encoding="UTF-8"?>
<svg width="60px" height="60px" viewBox="0 0 60 60" version="1.1" xmlns="http://www.w3.org/2000/svg" xmlns:xlink="http://www.w3.org/1999/xlink">
    <!-- Generator: Sketch 54.1 (76490) - https://sketchapp.com -->
    <title>sbtc</title>
    <desc>Created with Sketch.</desc>
    <g id="Page-1" stroke="none" stroke-width="1" fill="none" fill-rule="evenodd">
        <g id="Home-Page" transform="translate(-595.000000, -695.000000)">
            <g id="Tiles" transform="translate(217.000000, 592.000000)">
                <g id="Commod/crypto-tile" transform="translate(349.000000, 1.000000)">
                    <g id="sbtc" transform="translate(29.000000, 102.000000)">
                        <g id="iBTC-2" fill="#45992F">
                            <g id="Group-4">
                                <circle id="Oval" cx="30" cy="30" r="30"></circle>
                            </g>
                        </g>
                        <g id="Group-19" transform="translate(15.539568, 17.697842)">
                            <g id="Group-Copy" transform="translate(0.000000, 0.029495)">
                                <g id="Group-6" transform="translate(0.000000, 0.116785)">
                                    <g id="Group-5" transform="translate(0.143402, 0.090243)">
                                        <g id="Group-4" transform="translate(0.012586, 0.077322)">
                                            <polygon id="Path-3" fill="#8E8C98" points="2.68945066 23.0294572 0.308527854 21.3332982 15.2836085 0.556277385 17.6645313 2.25243628"></polygon>
                                            <path d="M10.5357769,10.361125 C11.3446194,10.361125 12.0003157,11.0130092 12.0003157,11.817149 C12.0003157,12.6212889 11.3446194,13.2731731 10.5357769,13.2731731 L6.734269,13.2731731 C3.05240626,13.2731731 0.0676667744,10.3057868 0.0676667744,6.64533015 C0.0676667744,2.98487358 3.05240626,0.0174872412 6.734269,0.0174872412 L16.5381578,0.0174872412 C17.3470002,0.0174872412 18.0026966,0.669371399 18.0026966,1.47351127 C18.0026966,2.27765113 17.3470002,2.92953529 16.5381578,2.92953529 L6.734269,2.92953529 C4.67009112,2.92953529 2.99674434,4.59315331 2.99674434,6.64533015 C2.99674434,8.69750698 4.67009112,10.361125 6.734269,10.361125 L10.5357769,10.361125 Z" id="Rectangle-2" fill="#FFFFFF"></path>
                                            <path d="M10.5357773,20.7047628 C11.3446197,20.7047628 12.000316,21.356647 12.000316,22.1607868 C12.000316,22.9649267 11.3446197,23.6168108 10.5357773,23.6168108 L6.73426936,23.6168108 C3.05240662,23.6168108 0.0676671356,20.6494245 0.0676671356,16.9889679 C0.0676671356,13.3285113 3.05240662,10.361125 6.73426936,10.361125 L16.5381581,10.361125 C17.3470006,10.361125 18.0026969,11.0130092 18.0026969,11.817149 C18.0026969,12.6212889 17.3470006,13.2731731 16.5381581,13.2731731 L6.73426936,13.2731731 C4.67009148,13.2731731 2.9967447,14.9367911 2.9967447,16.9889679 C2.9967447,19.0411447 4.67009148,20.7047628 6.73426936,20.7047628 L10.5357773,20.7047628 Z" id="Rectangle-2-Copy" fill="#FFFFFF" transform="translate(9.035182, 16.988968) rotate(-180.000000) translate(-9.035182, -16.988968) "></path>
                                        </g>
                                    </g>
                                </g>
                            </g>
                        </g>
                        <path d="M32.4397553,25.1159971 C33.5157127,25.1159971 34.3491261,25.3293973 34.9400207,25.756204 C35.5309153,26.1830108 35.8263582,26.7876446 35.8263582,27.5701237 C35.8263582,28.1480912 35.6676128,28.614904 35.3501172,28.9705763 C35.0326216,29.3262486 34.5828429,29.5574322 34.0007676,29.6641339 C34.6886747,29.7530519 35.220031,29.9753438 35.5948522,30.3310161 C35.9696734,30.6866884 36.1570811,31.1846221 36.1570811,31.8248323 C36.1570811,32.6428786 35.8484095,33.285302 35.2310569,33.7521219 C34.6137044,34.2189418 33.7406045,34.4523482 32.6117313,34.4523482 L28.9208633,34.4523482 L28.9208633,25.1159971 L32.4397553,25.1159971 Z M30.9052009,28.9572387 L32.492671,28.9572387 C32.9159985,28.9572387 33.2467181,28.8549845 33.4848398,28.6504729 C33.7229615,28.4459613 33.8420206,28.1703194 33.8420206,27.8235389 C33.8420206,27.4767584 33.7229615,27.2011165 33.4848398,26.996605 C33.2467181,26.7920934 32.9159985,26.6898391 32.492671,26.6898391 L30.9052009,26.6898391 L30.9052009,28.9572387 Z M30.9052009,32.8651685 L32.6249602,32.8651685 C33.1012036,32.8651685 33.4694048,32.7629143 33.7295748,32.5584027 C33.9897448,32.3538911 34.1198279,32.0693576 34.1198279,31.7047935 C34.1198279,31.3224457 33.98754,31.0267976 33.7229603,30.8178401 C33.4583807,30.6088826 33.0923843,30.5044055 32.6249602,30.5044055 L30.9052009,30.5044055 L30.9052009,32.8651685 Z M36.3158282,25.1159971 L43.6446484,25.1159971 L43.6446484,26.8365532 L40.9724071,26.8365532 L40.9724071,34.4523482 L38.9880695,34.4523482 L38.9880695,26.8365532 L36.3158282,26.8365532 L36.3158282,25.1159971 Z M43.7240219,29.7841727 C43.7240219,28.8327493 43.9070201,27.9991548 44.273022,27.2833643 C44.6390239,26.5675738 45.1637657,26.0140671 45.8472632,25.6228276 C46.5307607,25.2315881 47.3355117,25.0359712 48.2615406,25.0359712 C48.984725,25.0359712 49.6329355,25.178238 50.2061915,25.4627758 C50.7794474,25.7473137 51.2424549,26.147439 51.5952278,26.6631639 C51.9480007,27.1788887 52.1596612,27.7746308 52.2302158,28.4504082 L50.2458782,28.4504082 C50.131227,27.9168998 49.8909041,27.4967682 49.5249022,27.1900008 C49.1589003,26.8832335 48.7025072,26.7298521 48.1557093,26.7298521 C47.4148862,26.7298521 46.82841,27.0099398 46.3962632,27.5701237 C45.9641164,28.1303075 45.7480463,28.8683165 45.7480463,29.7841727 C45.7480463,30.691137 45.9641164,31.4269231 46.3962632,31.9915528 C46.82841,32.5561826 47.4148862,32.8384933 48.1557093,32.8384933 C48.7025072,32.8384933 49.1589003,32.6851119 49.5249022,32.3783445 C49.8909041,32.0715772 50.131227,31.6514456 50.2458782,31.1179371 L52.2302158,31.1179371 C52.1596612,31.7937145 51.9480007,32.3894566 51.5952278,32.9051815 C51.2424549,33.4209063 50.7794474,33.8210316 50.2061915,34.1055695 C49.6329355,34.3901073 48.984725,34.5323741 48.2615406,34.5323741 C47.3355117,34.5323741 46.5307607,34.3367573 45.8472632,33.9455177 C45.1637657,33.5542782 44.6390239,33.0007715 44.273022,32.284981 C43.9070201,31.5691905 43.7240219,30.7355961 43.7240219,29.7841727 Z" id="BTC" fill="#FFFFFF" fill-rule="nonzero" transform="translate(40.575540, 29.784173) rotate(270.000000) translate(-40.575540, -29.784173) "></path>
                    </g>
                </g>
            </g>
        </g>
    </g>
</svg>