<?xml version="1.0" encoding="UTF-8"?>
<svg width="60px" height="60px" viewBox="0 0 60 60" version="1.1" xmlns="http://www.w3.org/2000/svg" xmlns:xlink="http://www.w3.org/1999/xlink">
    <!-- Generator: Sketch 53.2 (72643) - https://sketchapp.com -->
    <title>sCAD_blue</title>
    <desc>Created with Sketch.</desc>
    <g id="Page-1" stroke="none" stroke-width="1" fill="none" fill-rule="evenodd">
        <g id="Home-Page-Variant" transform="translate(-452.000000, -969.000000)">
            <g id="sCAD_blue" transform="translate(452.000000, 969.000000)">
                <circle id="Oval-Copy" fill="#1E1A31" cx="30.0779626" cy="30.054242" r="29.9152659"></circle>
                <g id="Group-7" transform="translate(14.200000, 17.600000)">
                    <g id="Group-19">
                        <g id="Group-Copy" transform="translate(0.000000, 0.029730)">
                            <g id="Group-6" transform="translate(0.000000, 0.117714)">
                                <g id="Group-5" transform="translate(0.143702, 0.090961)">
                                    <g id="Group-4" transform="translate(0.012613, 0.077937)">
                                        <polygon id="Path-3" fill="#8E8C98" points="2.69507974 23.2126155 0.30917361 21.5029666 15.3155974 0.560701579 17.7015035 2.2703504"></polygon>
                                        <path d="M10.5578285,10.4435293 C11.3683639,10.4435293 12.0254326,11.100598 12.0254326,11.9111334 C12.0254326,12.7216688 11.3683639,13.3787375 10.5578285,13.3787375 L6.74836398,13.3787375 C3.05879501,13.3787375 0.0678084025,10.3877509 0.0678084025,6.69818189 C0.0678084025,3.00861293 3.05879501,0.017626321 6.74836398,0.017626321 L16.5727725,0.017626321 C17.3833079,0.017626321 18.0403766,0.674695055 18.0403766,1.48523042 C18.0403766,2.29576578 17.3833079,2.95283452 16.5727725,2.95283452 L6.74836398,2.95283452 C4.67986573,2.95283452 3.00301659,4.62968366 3.00301659,6.69818189 C3.00301659,8.76668013 4.67986573,10.4435293 6.74836398,10.4435293 L10.5578285,10.4435293 Z" id="Rectangle-2" fill="#FFFFFF"></path>
                                        <path d="M10.5578289,20.8694322 C11.3683643,20.8694322 12.025433,21.526501 12.025433,22.3370363 C12.025433,23.1475717 11.3683643,23.8046404 10.5578289,23.8046404 L6.74836434,23.8046404 C3.05879537,23.8046404 0.0678087644,20.8136538 0.0678087644,17.1240848 C0.0678087644,13.4345159 3.05879537,10.4435293 6.74836434,10.4435293 L16.5727729,10.4435293 C17.3833083,10.4435293 18.040377,11.100598 18.040377,11.9111334 C18.040377,12.7216688 17.3833083,13.3787375 16.5727729,13.3787375 L6.74836434,13.3787375 C4.67986609,13.3787375 3.00301696,15.0555866 3.00301696,17.1240848 C3.00301696,19.192583 4.67986609,20.8694322 6.74836434,20.8694322 L10.5578289,20.8694322 Z" id="Rectangle-2-Copy" fill="#FFFFFF" transform="translate(9.054093, 17.124085) rotate(-180.000000) translate(-9.054093, -17.124085) "></path>
                                    </g>
                                </g>
                            </g>
                        </g>
                    </g>
                    <path d="M13.184,12.6 C13.184,11.7439957 13.3499983,10.9940032 13.682,10.35 C14.0140017,9.70599678 14.4899969,9.20800176 15.11,8.856 C15.7300031,8.50399824 16.4599958,8.328 17.3,8.328 C17.9560033,8.328 18.5439974,8.45599872 19.064,8.712 C19.5840026,8.96800128 20.0039984,9.32799768 20.324,9.792 C20.6440016,10.2560023 20.8359997,10.791997 20.9,11.4 L19.1,11.4 C18.9959995,10.9199976 18.7780017,10.5420014 18.446,10.266 C18.1139983,9.98999862 17.7000025,9.852 17.204,9.852 C16.5319966,9.852 16.000002,10.1039975 15.608,10.608 C15.215998,11.1120025 15.02,11.7759959 15.02,12.6 C15.02,13.4160041 15.215998,14.0779975 15.608,14.586 C16.000002,15.0940025 16.5319966,15.348 17.204,15.348 C17.7000025,15.348 18.1139983,15.2100014 18.446,14.934 C18.7780017,14.6579986 18.9959995,14.2800024 19.1,13.8 L20.9,13.8 C20.8359997,14.408003 20.6440016,14.9439977 20.324,15.408 C20.0039984,15.8720023 19.5840026,16.2319987 19.064,16.488 C18.5439974,16.7440013 17.9560033,16.872 17.3,16.872 C16.4599958,16.872 15.7300031,16.6960018 15.11,16.344 C14.4899969,15.9919982 14.0140017,15.4940032 13.682,14.85 C13.3499983,14.2059968 13.184,13.4560043 13.184,12.6 Z M20.972,16.8 L24.044,8.4 L26.204,8.4 L29.252,16.8 L27.32,16.8 L26.672,14.964 L23.48,14.964 L22.832,16.8 L20.972,16.8 Z M23.96,13.512 L26.18,13.512 L25.064,10.32 L23.96,13.512 Z M30.02,8.4 L32.936,8.4 C33.7760042,8.4 34.5179968,8.57799822 35.162,8.934 C35.8060032,9.29000178 36.3019983,9.78599682 36.65,10.422 C36.9980017,11.0580032 37.172,11.7839959 37.172,12.6 C37.172,13.4160041 36.9980017,14.1419968 36.65,14.778 C36.3019983,15.4140032 35.8060032,15.9099982 35.162,16.266 C34.5179968,16.6220018 33.7760042,16.8 32.936,16.8 L30.02,16.8 L30.02,8.4 Z M32.936,15.3 C33.6960038,15.3 34.2859979,15.0540025 34.706,14.562 C35.1260021,14.0699975 35.336,13.4160041 35.336,12.6 C35.336,11.7839959 35.1260021,11.1300025 34.706,10.638 C34.2859979,10.1459975 33.6960038,9.9 32.936,9.9 L31.82,9.9 L31.82,15.3 L32.936,15.3 Z" id="CAD" fill="#FFFFFF" fill-rule="nonzero" transform="translate(25.178000, 12.600000) rotate(270.000000) translate(-25.178000, -12.600000) "></path>
                </g>
            </g>
        </g>
    </g>
</svg>