<?xml version="1.0" encoding="UTF-8"?>
<svg width="60px" height="60px" viewBox="0 0 60 60" version="1.1" xmlns="http://www.w3.org/2000/svg" xmlns:xlink="http://www.w3.org/1999/xlink">
    <!-- Generator: Sketch 53.2 (72643) - https://sketchapp.com -->
    <title>schf_blue</title>
    <desc>Created with Sketch.</desc>
    <g id="Page-1" stroke="none" stroke-width="1" fill="none" fill-rule="evenodd">
        <g id="Home-Page-Variant" transform="translate(-349.000000, -888.000000)">
            <g id="schf_blue" transform="translate(349.000000, 888.000000)">
                <ellipse id="Oval-Copy" fill="#1E1A31" cx="29.9967935" cy="30.0576909" rx="29.8196463" ry="29.9221194"></ellipse>
                <path d="M28.845017,29.683231 C28.845017,28.815956 29.013201,28.0560886 29.349574,27.403606 C29.685947,26.7511234 30.1682095,26.2465714 30.796376,25.889935 C31.4245425,25.5332986 32.1641467,25.354983 33.015211,25.354983 C33.6798517,25.354983 34.2755877,25.484667 34.802437,25.744039 C35.3292863,26.003411 35.754812,26.3681473 36.079027,26.838259 C36.403242,27.3083707 36.597768,27.8514226 36.662611,28.467431 L34.838911,28.467431 C34.7335411,27.9811086 34.512673,27.5981354 34.1763,27.3185 C33.839927,27.0388646 33.4204802,26.899049 32.917947,26.899049 C32.2370956,26.899049 31.6980963,27.1543644 31.300933,27.665003 C30.9037697,28.1756416 30.705191,28.8483775 30.705191,29.683231 C30.705191,30.5099791 30.9037697,31.1806888 31.300933,31.69538 C31.6980963,32.2100712 32.2370956,32.467413 32.917947,32.467413 C33.4204802,32.467413 33.839927,32.3275974 34.1763,32.047962 C34.512673,31.7683266 34.7335411,31.3853534 34.838911,30.899031 L36.662611,30.899031 C36.597768,31.5150394 36.403242,32.0580913 36.079027,32.528203 C35.754812,32.9983147 35.3292863,33.363051 34.802437,33.622423 C34.2755877,33.881795 33.6798517,34.011479 33.015211,34.011479 C32.1641467,34.011479 31.4245425,33.8331634 30.796376,33.476527 C30.1682095,33.1198906 29.685947,32.6153386 29.349574,31.962856 C29.013201,31.3103734 28.845017,30.550506 28.845017,29.683231 Z M37.720357,25.427931 L39.544057,25.427931 L39.544057,28.844329 L42.923981,28.844329 L42.923981,25.427931 L44.747681,25.427931 L44.747681,33.938531 L42.923981,33.938531 L42.923981,30.424869 L39.544057,30.424869 L39.544057,33.938531 L37.720357,33.938531 L37.720357,25.427931 Z M46.194483,25.427931 L51.811479,25.427931 L51.811479,26.996313 L48.018183,26.996313 L48.018183,28.990225 L51.130631,28.990225 L51.130631,30.485659 L48.018183,30.485659 L48.018183,33.938531 L46.194483,33.938531 L46.194483,25.427931 Z" id="CHF" fill="#FFFFFF" transform="translate(40.328248, 29.683231) rotate(-90.000000) translate(-40.328248, -29.683231) "></path>
                <g id="Group-Copy" transform="translate(15.127844, 17.012731)" fill="#FFFFFF">
                    <g id="Group-6" transform="translate(0.000000, 0.117741)">
                        <g id="Group-5" transform="translate(0.143243, 0.090982)">
                            <g id="Group-4" transform="translate(0.012572, 0.077954)">
                                <path d="M10.9228035,11.0460593 C11.7307481,11.0460593 12.3857166,11.7032786 12.3857166,12.5139996 C12.3857166,13.3247207 11.7307481,13.9819399 10.9228035,13.9819399 L7.12551533,13.9819399 C3.4477395,13.9819399 0.466313125,10.9902681 0.466313125,7.29985387 C0.466313125,3.60943964 3.4477395,0.617767816 7.12551533,0.617767816 L16.9185217,0.617767816 C17.7264663,0.617767816 18.3814348,1.27498708 18.3814348,2.08570814 C18.3814348,2.89642919 17.7264663,3.55364845 16.9185217,3.55364845 L7.12551533,3.55364845 C5.06362872,3.55364845 3.39213937,5.23088175 3.39213937,7.29985387 C3.39213937,9.36882599 5.06362872,11.0460593 7.12551533,11.0460593 L10.9228035,11.0460593 Z" id="Rectangle-2"></path>
                                <path d="M10.9228039,21.4743508 C11.7307485,21.4743508 12.385717,22.1315701 12.385717,22.9422911 C12.385717,23.7530121 11.7307485,24.4102314 10.9228039,24.4102314 L7.12551569,24.4102314 C3.44773986,24.4102314 0.466313485,21.4185596 0.466313485,17.7281453 C0.466313485,14.0377311 3.44773986,11.0460593 7.12551569,11.0460593 L16.918522,11.0460593 C17.7264667,11.0460593 18.3814351,11.7032786 18.3814351,12.5139996 C18.3814351,13.3247207 17.7264667,13.9819399 16.918522,13.9819399 L7.12551569,13.9819399 C5.06362908,13.9819399 3.39213973,15.6591733 3.39213973,17.7281453 C3.39213973,19.7971174 5.06362908,21.4743508 7.12551569,21.4743508 L10.9228039,21.4743508 Z" id="Rectangle-2-Copy" transform="translate(9.423874, 17.728145) rotate(-180.000000) translate(-9.423874, -17.728145) "></path>
                                <polygon id="Path-3" fill-opacity="0.5" points="3.08518679 23.8180708 0.706906845 22.1080303 15.6653649 1.16096749 18.0436448 2.87100798"></polygon>
                            </g>
                        </g>
                    </g>
                </g>
                <g id="Group-19" transform="translate(15.000000, 17.000000)"></g>
            </g>
        </g>
    </g>
</svg>