<?xml version="1.0" encoding="UTF-8"?>
<svg width="60px" height="60px" viewBox="0 0 60 60" version="1.1" xmlns="http://www.w3.org/2000/svg" xmlns:xlink="http://www.w3.org/1999/xlink">
    <!-- Generator: Sketch 53.2 (72643) - https://sketchapp.com -->
    <title>sCNY_blue</title>
    <desc>Created with Sketch.</desc>
    <g id="Page-1" stroke="none" stroke-width="1" fill="none" fill-rule="evenodd">
        <g id="Home-Page-Variant" transform="translate(-246.000000, -888.000000)">
            <g id="sCNY_blue" transform="translate(246.000000, 888.000000)">
                <ellipse id="Oval-Copy" fill="#1E1A31" cx="29.9967935" cy="30.0576909" rx="29.8196463" ry="29.9221194"></ellipse>
                <g id="Group-19" transform="translate(13.400000, 17.400000)" fill="#FFFFFF">
                    <g id="Group-Copy" transform="translate(0.127844, 0.012731)">
                        <g id="Group-6" transform="translate(0.000000, 0.117741)">
                            <g id="Group-5" transform="translate(0.143243, 0.090982)">
                                <g id="Group-4" transform="translate(0.012572, 0.077954)">
                                    <path d="M10.9228035,11.0460593 C11.7307481,11.0460593 12.3857166,11.7032786 12.3857166,12.5139996 C12.3857166,13.3247207 11.7307481,13.9819399 10.9228035,13.9819399 L7.12551533,13.9819399 C3.4477395,13.9819399 0.466313125,10.9902681 0.466313125,7.29985387 C0.466313125,3.60943964 3.4477395,0.617767816 7.12551533,0.617767816 L16.9185217,0.617767816 C17.7264663,0.617767816 18.3814348,1.27498708 18.3814348,2.08570814 C18.3814348,2.89642919 17.7264663,3.55364845 16.9185217,3.55364845 L7.12551533,3.55364845 C5.06362872,3.55364845 3.39213937,5.23088175 3.39213937,7.29985387 C3.39213937,9.36882599 5.06362872,11.0460593 7.12551533,11.0460593 L10.9228035,11.0460593 Z" id="Rectangle-2"></path>
                                    <path d="M10.9228039,21.4743508 C11.7307485,21.4743508 12.385717,22.1315701 12.385717,22.9422911 C12.385717,23.7530121 11.7307485,24.4102314 10.9228039,24.4102314 L7.12551569,24.4102314 C3.44773986,24.4102314 0.466313485,21.4185596 0.466313485,17.7281453 C0.466313485,14.0377311 3.44773986,11.0460593 7.12551569,11.0460593 L16.918522,11.0460593 C17.7264667,11.0460593 18.3814351,11.7032786 18.3814351,12.5139996 C18.3814351,13.3247207 17.7264667,13.9819399 16.918522,13.9819399 L7.12551569,13.9819399 C5.06362908,13.9819399 3.39213973,15.6591733 3.39213973,17.7281453 C3.39213973,19.7971174 5.06362908,21.4743508 7.12551569,21.4743508 L10.9228039,21.4743508 Z" id="Rectangle-2-Copy" transform="translate(9.423874, 17.728145) rotate(-180.000000) translate(-9.423874, -17.728145) "></path>
                                    <polygon id="Path-3" fill-opacity="0.5" points="3.08518679 23.8180708 0.706906845 22.1080303 15.6653649 1.16096749 18.0436448 2.87100798"></polygon>
                                </g>
                            </g>
                        </g>
                    </g>
                </g>
                <path d="M26.076256,30.1847 C26.076256,29.3459585 26.2389067,28.6110908 26.564213,27.980075 C26.8895193,27.3490592 27.3559153,26.8611071 27.963415,26.516204 C28.5709147,26.1713009 29.2861859,25.998852 30.10925,25.998852 C30.7520239,25.998852 31.3281601,26.1242694 31.837676,26.375108 C32.3471919,26.6259466 32.7587178,26.9786831 33.072266,27.433328 C33.3858142,27.8879729 33.5739404,28.4131584 33.63665,29.0089 L31.87295,29.0089 C31.7710468,28.5385776 31.5574453,28.1682044 31.232139,27.897769 C30.9068327,27.6273336 30.5011858,27.492118 30.015186,27.492118 C29.3567347,27.492118 28.8354686,27.7390335 28.451372,28.232872 C28.0672754,28.7267105 27.87523,29.3773133 27.87523,30.1847 C27.87523,30.984248 28.0672754,31.6328912 28.451372,32.130649 C28.8354686,32.6284068 29.3567347,32.877282 30.015186,32.877282 C30.5011858,32.877282 30.9068327,32.7420664 31.232139,32.471631 C31.5574453,32.2011956 31.7710468,31.8308224 31.87295,31.3605 L33.63665,31.3605 C33.5739404,31.9562416 33.3858142,32.4814271 33.072266,32.936072 C32.7587178,33.3907169 32.3471919,33.7434534 31.837676,33.994292 C31.3281601,34.2451306 30.7520239,34.370548 30.10925,34.370548 C29.2861859,34.370548 28.5709147,34.1980991 27.963415,33.853196 C27.3559153,33.5082929 26.8895193,33.0203408 26.564213,32.389325 C26.2389067,31.7583092 26.076256,31.0234415 26.076256,30.1847 Z M34.659596,34.3 L34.659596,26.0694 L36.258684,26.0694 L39.75081,31.254678 L39.75081,26.0694 L41.490994,26.0694 L41.490994,34.3 L39.880148,34.3 L36.388022,29.114722 L36.388022,34.3 L34.659596,34.3 Z M42.184716,26.0694 L44.242366,26.0694 L46.088372,29.443946 L48.028442,26.0694 L49.992028,26.0694 L46.970222,31.24292 L46.970222,34.3 L45.206522,34.3 L45.206522,31.24292 L42.184716,26.0694 Z" id="CNY" fill="#FFFFFF" transform="translate(38.034142, 30.184700) rotate(-90.000000) translate(-38.034142, -30.184700) "></path>
            </g>
        </g>
    </g>
</svg>