<?xml version="1.0" encoding="UTF-8"?>
<svg width="60px" height="60px" viewBox="0 0 60 60" version="1.1" xmlns="http://www.w3.org/2000/svg" xmlns:xlink="http://www.w3.org/1999/xlink">
    <!-- Generator: Sketch 55.1 (78136) - https://sketchapp.com -->
    <title>sETH</title>
    <desc>Created with Sketch.</desc>
    <g id="Page-1" stroke="none" stroke-width="1" fill="none" fill-rule="evenodd">
        <g id="Home-Page-(new-footer)" transform="translate(-695.000000, -695.000000)">
            <g id="Tiles" transform="translate(217.000000, 592.000000)">
                <g id="Commod/crypto-tile" transform="translate(349.000000, 1.000000)">
                    <g id="sETH" transform="translate(129.000000, 102.000000)">
                        <g id="iETH-2" fill="#53B267">
                            <g id="iBTC">
                                <g id="Group-4">
                                    <circle id="Oval" cx="30" cy="30" r="30"></circle>
                                </g>
                            </g>
                        </g>
                        <g id="Group-Copy" transform="translate(15.107914, 18.000000)">
                            <g id="Group-6" transform="translate(0.000000, 0.116920)">
                                <g id="Group-5" transform="translate(0.144498, 0.090348)">
                                    <g id="Group-4" transform="translate(0.012682, 0.077411)">
                                        <polygon id="Path-3" fill="#8E8C98" points="2.70870422 23.0562724 0.3095948 21.3581485 15.3990622 0.557058309 17.7981716 2.25518214"></polygon>
                                        <path d="M10.6149644,10.3732645 C11.4299852,10.3732645 12.0906901,11.0259038 12.0906901,11.8309752 C12.0906901,12.6360467 11.4299852,13.288686 10.6149644,13.288686 L6.78441881,13.288686 C3.07443225,13.288686 0.0668939088,10.3178621 0.0668939088,6.65316499 C0.0668939088,2.98846794 3.07443225,0.0176439986 6.78441881,0.0176439986 L16.6631944,0.0176439986 C17.4782151,0.0176439986 18.13892,0.670283339 18.13892,1.47535477 C18.13892,2.2804262 17.4782151,2.93306554 16.6631944,2.93306554 L6.78441881,2.93306554 C4.70447376,2.93306554 3.01834516,4.5986108 3.01834516,6.65316499 C3.01834516,8.70771919 4.70447376,10.3732645 6.78441881,10.3732645 L10.6149644,10.3732645 Z" id="Rectangle-2" fill="#FFFFFF"></path>
                                        <path d="M10.6149648,20.7288849 C11.4299856,20.7288849 12.0906904,21.3815243 12.0906904,22.1865957 C12.0906904,22.9916671 11.4299856,23.6443064 10.6149648,23.6443064 L6.78441917,23.6443064 C3.07443261,23.6443064 0.0668942728,20.6734825 0.0668942728,17.0087854 C0.0668942728,13.3440884 3.07443261,10.3732645 6.78441917,10.3732645 L16.6631947,10.3732645 C17.4782155,10.3732645 18.1389203,11.0259038 18.1389203,11.8309752 C18.1389203,12.6360467 17.4782155,13.288686 16.6631947,13.288686 L6.78441917,13.288686 C4.70447413,13.288686 3.01834552,14.9542313 3.01834552,17.0087854 C3.01834552,19.0633396 4.70447413,20.7288849 6.78441917,20.7288849 L10.6149648,20.7288849 Z" id="Rectangle-2-Copy" fill="#FFFFFF" transform="translate(9.102907, 17.008785) rotate(-180.000000) translate(-9.102907, -17.008785) "></path>
                                    </g>
                                </g>
                            </g>
                        </g>
                        <path d="M29.352518,25.7142857 L35.2751068,25.7142857 L35.2751068,27.3728571 L31.2427059,27.3728571 L31.2427059,29.3914286 L34.5190316,29.3914286 L34.5190316,30.9728571 L31.2427059,30.9728571 L31.2427059,33.0557143 L35.4137205,33.0557143 L35.4137205,34.7142857 L29.352518,34.7142857 L29.352518,25.7142857 Z M36.0689857,25.7142857 L43.0500797,25.7142857 L43.0500797,27.3728571 L40.5046266,27.3728571 L40.5046266,34.7142857 L38.6144387,34.7142857 L38.6144387,27.3728571 L36.0689857,27.3728571 L36.0689857,25.7142857 Z M44.0833824,25.7142857 L45.9735703,25.7142857 L45.9735703,29.3271429 L49.4767186,29.3271429 L49.4767186,25.7142857 L51.3669065,25.7142857 L51.3669065,34.7142857 L49.4767186,34.7142857 L49.4767186,30.9985714 L45.9735703,30.9985714 L45.9735703,34.7142857 L44.0833824,34.7142857 L44.0833824,25.7142857 Z" id="ETH" fill="#FFFFFF" fill-rule="nonzero" transform="translate(40.359712, 30.214286) rotate(270.000000) translate(-40.359712, -30.214286) "></path>
                    </g>
                </g>
            </g>
        </g>
    </g>
</svg>