<?xml version="1.0" encoding="UTF-8"?>
<svg width="60px" height="61px" viewBox="0 0 60 61" version="1.1" xmlns="http://www.w3.org/2000/svg" xmlns:xlink="http://www.w3.org/1999/xlink">
    <!-- Generator: Sketch 52.6 (67491) - http://www.bohemiancoding.com/sketch -->
    <title>sEURO_blue</title>
    <desc>Created with Sketch.</desc>
    <defs>
        <path d="M0.764007899,3.91962683 L6.5722679,3.91962683 L6.5722679,5.51380883 L2.6177079,5.51380883 L2.6177079,7.45401483 L5.8307879,7.45401483 L5.8307879,8.97404883 L2.6177079,8.97404883 L2.6177079,10.9760448 L6.7082059,10.9760448 L6.7082059,12.5702268 L0.764007899,12.5702268 L0.764007899,3.91962683 Z M9.6123359,3.91962683 L9.6123359,8.93697483 C9.6123359,9.637265 9.74827254,10.1645344 10.0201499,10.5187988 C10.2920273,10.8730633 10.7204336,11.0501928 11.3053819,11.0501928 C11.8903302,11.0501928 12.3207962,10.8730633 12.5967929,10.5187988 C12.8727896,10.1645344 13.0107859,9.637265 13.0107859,8.93697483 L13.0107859,3.91962683 L14.8644859,3.91962683 L14.8644859,8.83811083 C14.8644859,10.073917 14.5617179,11.0172349 13.9561729,11.6680928 C13.3506279,12.3189508 12.4670397,12.6443748 11.3053819,12.6443748 C10.1437241,12.6443748 9.26219557,12.3189508 8.6607699,11.6680928 C8.05934423,11.0172349 7.7586359,10.073917 7.7586359,8.83811083 L7.7586359,3.91962683 L9.6123359,3.91962683 Z M19.8076859,3.91962683 C20.4338277,3.91962683 20.9878725,4.03702666 21.4698369,4.27182983 C21.9518013,4.50663301 22.3245972,4.84235532 22.5882359,5.27900683 C22.8518746,5.71565835 22.9836919,6.22233128 22.9836919,6.79904083 C22.9836919,7.35103426 22.8518746,7.83917038 22.5882359,8.26346383 C22.3245972,8.68775729 21.9620995,9.01112172 21.5007319,9.23356683 L23.2061359,12.5702268 L21.1547079,12.5702268 L19.7088219,9.66609683 L18.1393559,9.66609683 L18.1393559,12.5702268 L16.2856559,12.5702268 L16.2856559,3.91962683 L19.8076859,3.91962683 Z M18.1393559,8.12134683 L19.6593899,8.12134683 C20.0960414,8.12134683 20.4441216,8.00188736 20.7036409,7.76296483 C20.9631602,7.52404231 21.0929179,7.20273752 21.0929179,6.79904083 C21.0929179,6.38710544 20.9631602,6.06168136 20.7036409,5.82275883 C20.4441216,5.58383631 20.0960414,5.46437683 19.6593899,5.46437683 L18.1393559,5.46437683 L18.1393559,8.12134683 Z" id="path-1"></path>
    </defs>
    <g id="Page-1" stroke="none" stroke-width="1" fill="none" fill-rule="evenodd">
        <g id="Home-Page-Variant" transform="translate(-796.000000, -666.000000)">
            <g id="sEURO_blue" transform="translate(796.000000, 666.666906)">
                <circle id="Oval-Copy" fill="#1E1A31" cx="30" cy="30" r="30"></circle>
                <g id="Group-19" transform="translate(13.800000, 17.200000)">
                    <g id="Group-Copy" transform="translate(0.000000, 1.034483)" fill="#FFFFFF">
                        <g id="Group-6" transform="translate(0.000000, 0.118514)">
                            <g id="Group-5" transform="translate(0.144121, 0.091579)">
                                <g id="Group-4" transform="translate(0.012649, 0.078467)">
                                    <path d="M10.5759606,10.4979435 C11.3888574,10.4979435 12.0478404,11.1594808 12.0478404,11.9755284 C12.0478404,12.791576 11.3888574,13.4531132 10.5759606,13.4531132 L6.75539731,13.4531132 C3.05507895,13.4531132 0.0553782372,10.4417858 0.0553782372,6.7271251 C0.0553782372,3.01246442 3.05507895,0.00113696651 6.75539731,0.00113696651 L16.6084288,0.00113696651 C17.4213257,0.00113696651 18.0803087,0.662674238 18.0803087,1.47872182 C18.0803087,2.29476941 17.4213257,2.95630668 16.6084288,2.95630668 L6.75539731,2.95630668 C4.68087258,2.95630668 2.99913802,4.64455959 2.99913802,6.7271251 C2.99913802,8.8096906 4.68087258,10.4979435 6.75539731,10.4979435 L10.5759606,10.4979435 Z" id="Rectangle-2"></path>
                                    <path d="M10.5759609,20.99475 C11.3888578,20.99475 12.0478408,21.6562874 12.0478408,22.4723349 C12.0478408,23.2883825 11.3888578,23.9499197 10.5759609,23.9499197 L6.75539767,23.9499197 C3.05507931,23.9499197 0.0553786002,20.9385923 0.0553786002,17.2239316 C0.0553786002,13.509271 3.05507931,10.4979435 6.75539767,10.4979435 L16.6084292,10.4979435 C17.421326,10.4979435 18.0803091,11.1594808 18.0803091,11.9755284 C18.0803091,12.791576 17.421326,13.4531132 16.6084292,13.4531132 L6.75539767,13.4531132 C4.68087295,13.4531132 2.99913838,15.1413662 2.99913838,17.2239316 C2.99913838,19.3064971 4.68087295,20.99475 6.75539767,20.99475 L10.5759609,20.99475 Z" id="Rectangle-2-Copy" transform="translate(9.067844, 17.223932) rotate(-180.000000) translate(-9.067844, -17.223932) "></path>
                                    <polygon id="Path-3" fill-opacity="0.5" points="2.69030401 23.3538686 0.297446651 21.6325929 15.347591 0.547905525 17.7404483 2.26918118"></polygon>
                                </g>
                            </g>
                        </g>
                    </g>
                    <g id="EUR" transform="translate(24.517241, 12.724138) rotate(-90.000000) translate(-24.517241, -12.724138) translate(11.793103, 4.965517)">
                        <g>
                            <use fill="#000000" xlink:href="#path-1"></use>
                            <use fill="#FFFFFF" xlink:href="#path-1"></use>
                        </g>
                    </g>
                </g>
            </g>
        </g>
    </g>
</svg>