<?xml version="1.0" encoding="UTF-8"?>
<svg width="60px" height="60px" viewBox="0 0 60 60" version="1.1" xmlns="http://www.w3.org/2000/svg" xmlns:xlink="http://www.w3.org/1999/xlink">
    <!-- Generator: Sketch 53.2 (72643) - https://sketchapp.com -->
    <title>sGBP_blue</title>
    <desc>Created with Sketch.</desc>
    <g id="Page-1" stroke="none" stroke-width="1" fill="none" fill-rule="evenodd">
        <g id="Home-Page-Variant" transform="translate(-452.000000, -807.000000)">
            <g id="sGBP_blue" transform="translate(452.000000, 807.000000)">
                <ellipse id="Oval-Copy" fill="#1E1A31" cx="29.9967935" cy="30.0576909" rx="29.8196463" ry="29.9221194"></ellipse>
                <g id="Group-19" transform="translate(13.400000, 17.400000)" fill="#FFFFFF">
                    <path d="M12.295456,13.3747 C12.295456,12.4931583 12.4684663,11.720791 12.814492,11.057575 C13.1605177,10.394359 13.6568924,9.88150715 14.303631,9.519004 C14.9503696,9.15650085 15.710379,8.975252 16.583682,8.975252 C17.2674948,8.975252 17.8812693,9.10706935 18.425024,9.370708 C18.9687787,9.63434665 19.4074833,10.0050829 19.741151,10.482928 C20.0748187,10.9607731 20.2787236,11.5086389 20.352872,12.126542 L18.523888,12.126542 C18.4085461,11.6404582 18.1778657,11.2553044 17.83184,10.971069 C17.4858143,10.6868336 17.0532886,10.544718 16.53425,10.544718 C16.0564049,10.544718 15.6403564,10.6641775 15.286092,10.9031 C14.9318276,11.1420225 14.6599543,11.4756852 14.470464,11.904098 C14.2809737,12.3325108 14.18623,12.8227066 14.18623,13.3747 C14.18623,14.2232869 14.3942543,14.9070894 14.810309,15.426128 C15.2263637,15.9451666 15.801005,16.204682 16.53425,16.204682 C17.069766,16.204682 17.5434846,16.0584471 17.95542,15.765973 C18.3673554,15.4734989 18.6145129,15.0430328 18.6969,14.474562 L18.6969,14.36334 L16.546608,14.36334 L16.546608,12.892738 L20.414662,12.892738 L20.414662,17.7 L19.12943,17.7 L18.931702,16.624854 C18.6763021,16.962641 18.3344008,17.2386336 17.905988,17.45284 C17.4775752,17.6670464 16.9791408,17.774148 16.41067,17.774148 C15.5950379,17.774148 14.8762214,17.5928991 14.254199,17.230396 C13.6321766,16.8678929 13.1502194,16.3529813 12.808313,15.685646 C12.4664066,15.0183107 12.295456,14.248003 12.295456,13.3747 Z M25.18485,9.0494 C26.1899724,9.0494 26.9685186,9.24712602 27.520512,9.642584 C28.0725054,10.038042 28.348498,10.5982657 28.348498,11.323272 C28.348498,11.858788 28.2002035,12.2913137 27.90361,12.620862 C27.6070165,12.9504103 27.1868487,13.1646135 26.643094,13.263478 C27.2857132,13.3458651 27.7820879,13.5518297 28.132233,13.881378 C28.4823781,14.2109263 28.657448,14.672287 28.657448,15.265474 C28.657448,16.0234351 28.3690976,16.6186728 27.792388,17.051205 C27.2156784,17.4837372 26.4000586,17.7 25.345504,17.7 L21.897622,17.7 L21.897622,9.0494 L25.18485,9.0494 Z M23.751322,12.608504 L25.234282,12.608504 C25.62974,12.608504 25.9386869,12.5137603 26.161132,12.32427 C26.3835771,12.1347797 26.494798,11.8793836 26.494798,11.558074 C26.494798,11.2367644 26.3835771,10.9813683 26.161132,10.791878 C25.9386869,10.6023877 25.62974,10.507644 25.234282,10.507644 L23.751322,10.507644 L23.751322,12.608504 Z M23.751322,16.229398 L25.357862,16.229398 C25.8027522,16.229398 26.1467131,16.1346543 26.389755,15.945164 C26.6327969,15.7556737 26.754316,15.492039 26.754316,15.154252 C26.754316,14.7999876 26.6307372,14.5260546 26.383576,14.332445 C26.1364148,14.1388354 25.7945135,14.042032 25.357862,14.042032 L23.751322,14.042032 L23.751322,16.229398 Z M33.40292,9.0494 C34.0208231,9.0494 34.5666293,9.16679983 35.040355,9.401603 C35.5140807,9.63640617 35.8806977,9.97212848 36.140217,10.40878 C36.3997363,10.8454315 36.529494,11.3521044 36.529494,11.928814 C36.529494,12.5055236 36.3997363,13.0101368 36.140217,13.442669 C35.8806977,13.8752012 35.5140807,14.2088638 35.040355,14.443667 C34.5666293,14.6784702 34.0208231,14.79587 33.40292,14.79587 L31.73459,14.79587 L31.73459,17.7 L29.88089,17.7 L29.88089,9.0494 L33.40292,9.0494 Z M31.73459,13.25112 L33.229908,13.25112 C33.6665595,13.25112 34.0125801,13.1316605 34.26798,12.892738 C34.5233799,12.6538155 34.651078,12.3325107 34.651078,11.928814 C34.651078,11.5168786 34.5233799,11.1914545 34.26798,10.952532 C34.0125801,10.7136095 33.6665595,10.59415 33.229908,10.59415 L31.73459,10.59415 L31.73459,13.25112 Z" id="GBP" transform="translate(24.412475, 13.374700) rotate(-90.000000) translate(-24.412475, -13.374700) "></path>
                    <g id="Group-Copy" transform="translate(0.127844, 0.012731)">
                        <g id="Group-6" transform="translate(0.000000, 0.117741)">
                            <g id="Group-5" transform="translate(0.143243, 0.090982)">
                                <g id="Group-4" transform="translate(0.012572, 0.077954)">
                                    <path d="M10.9228035,11.0460593 C11.7307481,11.0460593 12.3857166,11.7032786 12.3857166,12.5139996 C12.3857166,13.3247207 11.7307481,13.9819399 10.9228035,13.9819399 L7.12551533,13.9819399 C3.4477395,13.9819399 0.466313125,10.9902681 0.466313125,7.29985387 C0.466313125,3.60943964 3.4477395,0.617767816 7.12551533,0.617767816 L16.9185217,0.617767816 C17.7264663,0.617767816 18.3814348,1.27498708 18.3814348,2.08570814 C18.3814348,2.89642919 17.7264663,3.55364845 16.9185217,3.55364845 L7.12551533,3.55364845 C5.06362872,3.55364845 3.39213937,5.23088175 3.39213937,7.29985387 C3.39213937,9.36882599 5.06362872,11.0460593 7.12551533,11.0460593 L10.9228035,11.0460593 Z" id="Rectangle-2"></path>
                                    <path d="M10.9228039,21.4743508 C11.7307485,21.4743508 12.385717,22.1315701 12.385717,22.9422911 C12.385717,23.7530121 11.7307485,24.4102314 10.9228039,24.4102314 L7.12551569,24.4102314 C3.44773986,24.4102314 0.466313485,21.4185596 0.466313485,17.7281453 C0.466313485,14.0377311 3.44773986,11.0460593 7.12551569,11.0460593 L16.918522,11.0460593 C17.7264667,11.0460593 18.3814351,11.7032786 18.3814351,12.5139996 C18.3814351,13.3247207 17.7264667,13.9819399 16.918522,13.9819399 L7.12551569,13.9819399 C5.06362908,13.9819399 3.39213973,15.6591733 3.39213973,17.7281453 C3.39213973,19.7971174 5.06362908,21.4743508 7.12551569,21.4743508 L10.9228039,21.4743508 Z" id="Rectangle-2-Copy" transform="translate(9.423874, 17.728145) rotate(-180.000000) translate(-9.423874, -17.728145) "></path>
                                    <polygon id="Path-3" fill-opacity="0.5" points="3.08518679 23.8180708 0.706906845 22.1080303 15.6653649 1.16096749 18.0436448 2.87100798"></polygon>
                                </g>
                            </g>
                        </g>
                    </g>
                </g>
            </g>
        </g>
    </g>
</svg>