<?xml version="1.0" encoding="UTF-8"?>
<svg width="60px" height="60px" viewBox="0 0 60 60" version="1.1" xmlns="http://www.w3.org/2000/svg" xmlns:xlink="http://www.w3.org/1999/xlink">
    <!-- Generator: Sketch 53.2 (72643) - https://sketchapp.com -->
    <title>sINR_blue</title>
    <desc>Created with Sketch.</desc>
    <g id="Page-1" stroke="none" stroke-width="1" fill="none" fill-rule="evenodd">
        <g id="Home-Page-Variant" transform="translate(-349.000000, -969.000000)">
            <g id="sINR_blue" transform="translate(349.000000, 969.000000)">
                <circle id="Oval-Copy" fill="#1E1A31" cx="30.0779626" cy="30.054242" r="29.9152659"></circle>
                <g id="Group-7" transform="translate(13.600000, 18.000000)">
                    <g id="Group-8">
                        <g id="Group-19">
                            <g id="Group-Copy" transform="translate(0.000000, 0.029730)">
                                <g id="Group-6" transform="translate(0.000000, 0.117714)">
                                    <g id="Group-5" transform="translate(0.143702, 0.090961)">
                                        <g id="Group-4" transform="translate(0.012613, 0.077937)">
                                            <polygon id="Path-3" fill="#8E8C98" points="2.69507974 23.2126155 0.30917361 21.5029666 15.3155974 0.560701579 17.7015035 2.2703504"></polygon>
                                            <path d="M10.5578285,10.4435293 C11.3683639,10.4435293 12.0254326,11.100598 12.0254326,11.9111334 C12.0254326,12.7216688 11.3683639,13.3787375 10.5578285,13.3787375 L6.74836398,13.3787375 C3.05879501,13.3787375 0.0678084025,10.3877509 0.0678084025,6.69818189 C0.0678084025,3.00861293 3.05879501,0.017626321 6.74836398,0.017626321 L16.5727725,0.017626321 C17.3833079,0.017626321 18.0403766,0.674695055 18.0403766,1.48523042 C18.0403766,2.29576578 17.3833079,2.95283452 16.5727725,2.95283452 L6.74836398,2.95283452 C4.67986573,2.95283452 3.00301659,4.62968366 3.00301659,6.69818189 C3.00301659,8.76668013 4.67986573,10.4435293 6.74836398,10.4435293 L10.5578285,10.4435293 Z" id="Rectangle-2" fill="#FFFFFF"></path>
                                            <path d="M10.5578289,20.8694322 C11.3683643,20.8694322 12.025433,21.526501 12.025433,22.3370363 C12.025433,23.1475717 11.3683643,23.8046404 10.5578289,23.8046404 L6.74836434,23.8046404 C3.05879537,23.8046404 0.0678087644,20.8136538 0.0678087644,17.1240848 C0.0678087644,13.4345159 3.05879537,10.4435293 6.74836434,10.4435293 L16.5727729,10.4435293 C17.3833083,10.4435293 18.040377,11.100598 18.040377,11.9111334 C18.040377,12.7216688 17.3833083,13.3787375 16.5727729,13.3787375 L6.74836434,13.3787375 C4.67986609,13.3787375 3.00301696,15.0555866 3.00301696,17.1240848 C3.00301696,19.192583 4.67986609,20.8694322 6.74836434,20.8694322 L10.5578289,20.8694322 Z" id="Rectangle-2-Copy" fill="#FFFFFF" transform="translate(9.054093, 17.124085) rotate(-180.000000) translate(-9.054093, -17.124085) "></path>
                                        </g>
                                    </g>
                                </g>
                            </g>
                        </g>
                        <path d="M15.788,7.14 L18.008,7.14 L18.008,17.5 L15.788,17.5 L15.788,7.14 Z M19.7692,17.5 L19.7692,7.14 L21.782,7.14 L26.1776,13.6668 L26.1776,7.14 L28.368,7.14 L28.368,17.5 L26.3404,17.5 L21.9448,10.9732 L21.9448,17.5 L19.7692,17.5 Z M34.3472,7.14 C35.0970704,7.14 35.7605971,7.28059859 36.3378,7.5618 C36.9150029,7.84300141 37.3614651,8.24506405 37.6772,8.768 C37.9929349,9.29093595 38.1508,9.89772988 38.1508,10.5884 C38.1508,11.24947 37.9929349,11.8340641 37.6772,12.3422 C37.3614651,12.8503359 36.9273361,13.2375987 36.3748,13.504 L38.4172,17.5 L35.9604,17.5 L34.2288,14.022 L32.3492,14.022 L32.3492,17.5 L30.1292,17.5 L30.1292,7.14 L34.3472,7.14 Z M32.3492,12.172 L34.1696,12.172 C34.6925359,12.172 35.1093984,12.0289348 35.4202,11.7428 C35.7310016,11.4566652 35.8864,11.0718691 35.8864,10.5884 C35.8864,10.0950642 35.7310016,9.70533476 35.4202,9.4192 C35.1093984,9.13306524 34.6925359,8.99 34.1696,8.99 L32.3492,8.99 L32.3492,12.172 Z" id="INR" fill="#FFFFFF" fill-rule="nonzero" transform="translate(27.102600, 12.320000) rotate(270.000000) translate(-27.102600, -12.320000) "></path>
                    </g>
                </g>
            </g>
        </g>
    </g>
</svg>