<?xml version="1.0" encoding="UTF-8"?>
<svg width="60px" height="60px" viewBox="0 0 60 60" version="1.1" xmlns="http://www.w3.org/2000/svg" xmlns:xlink="http://www.w3.org/1999/xlink">
    <!-- Generator: Sketch 52.6 (67491) - http://www.bohemiancoding.com/sketch -->
    <title>sJPY_blue</title>
    <desc>Created with Sketch.</desc>
    <defs>
        <path d="M4.838646,4.3494 L4.838646,11.729412 C4.838646,12.5717522 4.60652732,13.2274277 4.142283,13.696458 C3.67803868,14.1654883 3.01997026,14.4 2.168058,14.4 L0.315876,14.4 L0.315876,12.53346 L1.50759,12.53346 C1.92876011,12.53346 2.23027509,12.435348 2.412144,12.239121 C2.59401291,12.042894 2.684946,11.7342001 2.684946,11.31303 L2.684946,4.3494 L4.838646,4.3494 Z M10.653636,4.3494 C11.3715396,4.3494 12.0056782,4.48579964 12.556071,4.758603 C13.1064638,5.03140636 13.5324135,5.42146146 13.833933,5.92878 C14.1354525,6.43609854 14.28621,7.02477065 14.28621,7.694814 C14.28621,8.36485735 14.1354525,8.95113649 13.833933,9.453669 C13.5324135,9.95620151 13.1064638,10.3438636 12.556071,10.616667 C12.0056782,10.8894704 11.3715396,11.02587 10.653636,11.02587 L8.715306,11.02587 L8.715306,14.4 L6.561606,14.4 L6.561606,4.3494 L10.653636,4.3494 Z M8.715306,9.23112 L10.452624,9.23112 C10.9599425,9.23112 11.3619625,9.09232739 11.658696,8.814738 C11.9554295,8.53714861 12.103794,8.16384435 12.103794,7.694814 C12.103794,7.21621161 11.9554295,6.83812139 11.658696,6.560532 C11.3619625,6.28294261 10.9599425,6.14415 10.452624,6.14415 L8.715306,6.14415 L8.715306,9.23112 Z M14.185704,4.3494 L16.698354,4.3494 L18.95256,8.470146 L21.32163,4.3494 L23.719416,4.3494 L20.02941,10.66692 L20.02941,14.4 L17.87571,14.4 L17.87571,10.66692 L14.185704,4.3494 Z" id="path-1"></path>
    </defs>
    <g id="Page-1" stroke="none" stroke-width="1" fill="none" fill-rule="evenodd">
        <g id="Home-Page-Variant" transform="translate(-1141.000000, -666.000000)">
            <g id="sJPY_blue" transform="translate(1141.000000, 666.000000)">
                <ellipse id="Oval-Copy" fill="#1E1A31" cx="29.9193776" cy="29.9221194" rx="29.9193776" ry="29.9221194"></ellipse>
                <g id="Group-19" transform="translate(13.000000, 15.800000)">
                    <g id="Group-Copy" fill="#FFFFFF">
                        <g id="Group-6" transform="translate(0.000000, 0.117741)">
                            <g id="Group-5" transform="translate(0.143722, 0.090982)">
                                <g id="Group-4" transform="translate(0.012614, 0.077954)">
                                    <path d="M10.9593346,11.0460593 C11.7699814,11.0460593 12.4271404,11.7032786 12.4271404,12.5139996 C12.4271404,13.3247207 11.7699814,13.9819399 10.9593346,13.9819399 L7.14934648,13.9819399 C3.45927041,13.9819399 0.4678727,10.9902681 0.4678727,7.29985387 C0.4678727,3.60943964 3.45927041,0.617767816 7.14934648,0.617767816 L16.9751053,0.617767816 C17.7857521,0.617767816 18.4429111,1.27498708 18.4429111,2.08570814 C18.4429111,2.89642919 17.7857521,3.55364845 16.9751053,3.55364845 L7.14934648,3.55364845 C5.08056393,3.55364845 3.40348432,5.23088175 3.40348432,7.29985387 C3.40348432,9.36882599 5.08056393,11.0460593 7.14934648,11.0460593 L10.9593346,11.0460593 Z" id="Rectangle-2"></path>
                                    <path d="M10.959335,21.4743508 C11.7699818,21.4743508 12.4271408,22.1315701 12.4271408,22.9422911 C12.4271408,23.7530121 11.7699818,24.4102314 10.959335,24.4102314 L7.14934685,24.4102314 C3.45927077,24.4102314 0.467873062,21.4185596 0.467873062,17.7281453 C0.467873062,14.0377311 3.45927077,11.0460593 7.14934685,11.0460593 L16.9751057,11.0460593 C17.7857525,11.0460593 18.4429115,11.7032786 18.4429115,12.5139996 C18.4429115,13.3247207 17.7857525,13.9819399 16.9751057,13.9819399 L7.14934685,13.9819399 C5.08056429,13.9819399 3.40348468,15.6591733 3.40348468,17.7281453 C3.40348468,19.7971174 5.08056429,21.4743508 7.14934685,21.4743508 L10.959335,21.4743508 Z" id="Rectangle-2-Copy" transform="translate(9.455392, 17.728145) rotate(-180.000000) translate(-9.455392, -17.728145) "></path>
                                    <polygon id="Path-3" fill-opacity="0.5" points="3.09550514 23.8180708 0.709271082 22.1080303 15.7177575 1.16096749 18.1039915 2.87100798"></polygon>
                                </g>
                            </g>
                        </g>
                    </g>
                    <g id="JPY" transform="translate(24.971643, 12.902374) rotate(-90.000000) translate(-24.971643, -12.902374) translate(12.871643, 4.302374)">
                        <g>
                            <use fill="#000000" xlink:href="#path-1"></use>
                            <use fill="#FFFFFF" xlink:href="#path-1"></use>
                        </g>
                    </g>
                </g>
            </g>
        </g>
    </g>
</svg>