<svg width="300" height="300" viewBox="0 0 300 300" fill="none" xmlns="http://www.w3.org/2000/svg">
<path d="M150 300C232.843 300 300 232.843 300 150C300 67.1573 232.843 0 150 0C67.1573 0 0 67.1573 0 150C0 232.843 67.1573 300 150 300Z" fill="#52B167"/>
<path d="M216 210.205H174V201.205H208.26V184.525H216V210.205Z" fill="white"/>
<path d="M174 179.677V170.677H216V179.677H174Z" fill="white"/>
<path d="M216 163.564H174V155.404L200.46 137.584H174L174 128.704H216V136.924L189.54 154.744H216V163.564Z" fill="white"/>
<path d="M174.06 121.552V112.552H192.9L174.06 95.7522V84.8322L191.34 100.252L216 83.8122V94.6122L198.3 106.612L204.96 112.552L216 112.552L216 121.552L174.06 121.552Z" fill="white"/>
<path fill-rule="evenodd" clip-rule="evenodd" d="M86.844 205.587L74.9526 197.037L149.745 92.3019L161.636 100.852L86.844 205.587Z" fill="#8E8C98"/>
<path fill-rule="evenodd" clip-rule="evenodd" d="M126.032 141.727C130.072 141.727 133.347 145.013 133.347 149.067C133.347 153.121 130.072 156.407 126.032 156.407H107.046C88.6569 156.407 73.7498 141.448 73.7498 122.996C73.7498 104.544 88.6569 89.5859 107.046 89.5859H156.011C160.051 89.5859 163.325 92.872 163.325 96.9256C163.325 100.979 160.051 104.265 156.011 104.265H107.046C96.7363 104.265 88.3789 112.651 88.3789 122.996C88.3789 133.341 96.7363 141.727 107.046 141.727H126.032Z" fill="white"/>
<path fill-rule="evenodd" clip-rule="evenodd" d="M111.043 156.407C107.003 156.407 103.728 153.121 103.728 149.067C103.728 145.013 107.003 141.727 111.043 141.727H130.029C148.418 141.727 163.325 156.686 163.325 175.138C163.325 193.59 148.418 208.548 130.029 208.548H81.0644C77.0247 208.548 73.7498 205.262 73.7498 201.209C73.7498 197.155 77.0247 193.869 81.0644 193.869H130.029C140.339 193.869 148.696 185.483 148.696 175.138C148.696 164.793 140.339 156.407 130.029 156.407H111.043Z" fill="white"/>
</svg>
