<?xml version="1.0" encoding="UTF-8"?>
<svg width="300px" height="300px" viewBox="0 0 300 300" version="1.1" xmlns="http://www.w3.org/2000/svg" xmlns:xlink="http://www.w3.org/1999/xlink">
    <!-- Generator: Sketch 59 (86127) - https://sketch.com -->
    <title>sMKR</title>
    <desc>Created with Sketch.</desc>
    <g id="Page-1" stroke="none" stroke-width="1" fill="none" fill-rule="evenodd">
        <g id="sMKR">
            <circle id="Oval" fill="#52B167" cx="150" cy="150" r="150"></circle>
            <path d="M129.385,128.615 L140.811,128.615 L152.063,158.427 L162.967,128.615 L174.161,128.615 L174.161,169.215 L165.867,169.215 L165.867,142.013 L155.311,169.215 L148.235,169.215 L137.679,142.013 L137.679,169.215 L129.385,169.215 L129.385,128.615 Z M181.121,128.673 L189.821,128.673 L189.821,146.885 L206.061,128.673 L216.617,128.673 L201.711,145.377 L217.603,169.215 L207.163,169.215 L195.563,152.105 L189.821,158.543 L189.821,169.215 L181.121,169.215 L181.121,128.673 Z M237.265,128.615 C240.203681,128.615 242.803989,129.165994 245.066,130.268 C247.328011,131.370006 249.07766,132.945656 250.315,134.995 C251.55234,137.044344 252.171,139.42232 252.171,142.129 C252.171,144.71968 251.55234,147.010657 250.315,149.002 C249.07766,150.993343 247.376344,152.510995 245.211,153.555 L253.215,169.215 L243.587,169.215 L236.801,155.585 L229.435,155.585 L229.435,169.215 L220.735,169.215 L220.735,128.615 L237.265,128.615 Z M229.435,148.335 L236.569,148.335 C238.618344,148.335 240.251994,147.774339 241.47,146.653 C242.688006,145.531661 243.297,144.023676 243.297,142.129 C243.297,140.195657 242.688006,138.668339 241.47,137.547 C240.251994,136.425661 238.618344,135.865 236.569,135.865 L229.435,135.865 L229.435,148.335 Z" id="MKR" fill="#FFFFFF" fill-rule="nonzero" transform="translate(191.300000, 148.915000) rotate(270.000000) translate(-191.300000, -148.915000) "></path>
            <g id="S-Logo" transform="translate(73.418297, 89.497039)">
                <polygon id="Path-3" fill="#8E8C98" points="13.425934 116.090354 1.53453423 107.540151 76.3268247 2.80483745 88.2182242 11.3550399"></polygon>
                <path d="M52.6140176,52.2302966 C56.6537407,52.2302966 59.9285831,55.5163928 59.9285831,59.5699981 C59.9285831,63.6236035 56.6537407,66.9096997 52.6140176,66.9096997 L33.6275766,66.9096997 C15.2386975,66.9096997 0.331565623,51.9513407 0.331565623,33.4992694 C0.331565623,15.0471982 15.2386975,0.0888390806 33.6275766,0.0888390806 L82.5926083,0.0888390806 C86.6323315,0.0888390806 89.9071739,3.37493541 89.9071739,7.42854068 C89.9071739,11.482146 86.6323315,14.7682423 82.5926083,14.7682423 L33.6275766,14.7682423 C23.3181436,14.7682423 14.9606969,23.1544088 14.9606969,33.4992694 C14.9606969,43.84413 23.3181436,52.2302966 33.6275766,52.2302966 L52.6140176,52.2302966 Z" id="Rectangle-2" fill="#FFFFFF"></path>
                <path d="M52.6140194,104.371754 C56.6537425,104.371754 59.928585,107.65785 59.928585,111.711455 C59.928585,115.765061 56.6537425,119.051157 52.6140194,119.051157 L33.6275784,119.051157 C15.2386993,119.051157 0.331567426,104.092798 0.331567426,85.6407267 C0.331567426,67.1886556 15.2386993,52.2302966 33.6275784,52.2302966 L82.5926101,52.2302966 C86.6323333,52.2302966 89.9071757,55.5163928 89.9071757,59.5699981 C89.9071757,63.6236035 86.6323333,66.9096997 82.5926101,66.9096997 L33.6275784,66.9096997 C23.3181454,66.9096997 14.9606987,75.2958663 14.9606987,85.6407267 C14.9606987,95.9855871 23.3181454,104.371754 33.6275784,104.371754 L52.6140194,104.371754 Z" id="Rectangle-2-Copy" fill="#FFFFFF" transform="translate(45.119372, 85.640727) rotate(-180.000000) translate(-45.119372, -85.640727) "></path>
            </g>
        </g>
    </g>
</svg>