<?xml version="1.0" encoding="UTF-8"?>
<svg width="60px" height="60px" viewBox="0 0 60 60" version="1.1" xmlns="http://www.w3.org/2000/svg" xmlns:xlink="http://www.w3.org/1999/xlink">
    <!-- Generator: Sketch 53.2 (72643) - https://sketchapp.com -->
    <title>sNZD_blue</title>
    <desc>Created with Sketch.</desc>
    <g id="Page-1" stroke="none" stroke-width="1" fill="none" fill-rule="evenodd">
        <g id="Home-Page-Variant" transform="translate(-452.000000, -1050.000000)">
            <g id="sNZD_blue" transform="translate(452.000000, 1050.000000)">
                <circle id="Oval-Copy" fill="#1E1A31" cx="30.0779626" cy="30.054242" r="29.9152659"></circle>
                <g id="Group-7" transform="translate(14.200000, 17.600000)">
                    <g id="Group-19">
                        <g id="Group-Copy" transform="translate(0.000000, 0.029730)">
                            <g id="Group-6" transform="translate(0.000000, 0.117714)">
                                <g id="Group-5" transform="translate(0.143702, 0.090961)">
                                    <g id="Group-4" transform="translate(0.012613, 0.077937)">
                                        <polygon id="Path-3" fill="#8E8C98" points="2.69507974 23.2126155 0.30917361 21.5029666 15.3155974 0.560701579 17.7015035 2.2703504"></polygon>
                                        <path d="M10.5578285,10.4435293 C11.3683639,10.4435293 12.0254326,11.100598 12.0254326,11.9111334 C12.0254326,12.7216688 11.3683639,13.3787375 10.5578285,13.3787375 L6.74836398,13.3787375 C3.05879501,13.3787375 0.0678084025,10.3877509 0.0678084025,6.69818189 C0.0678084025,3.00861293 3.05879501,0.017626321 6.74836398,0.017626321 L16.5727725,0.017626321 C17.3833079,0.017626321 18.0403766,0.674695055 18.0403766,1.48523042 C18.0403766,2.29576578 17.3833079,2.95283452 16.5727725,2.95283452 L6.74836398,2.95283452 C4.67986573,2.95283452 3.00301659,4.62968366 3.00301659,6.69818189 C3.00301659,8.76668013 4.67986573,10.4435293 6.74836398,10.4435293 L10.5578285,10.4435293 Z" id="Rectangle-2" fill="#FFFFFF"></path>
                                        <path d="M10.5578289,20.8694322 C11.3683643,20.8694322 12.025433,21.526501 12.025433,22.3370363 C12.025433,23.1475717 11.3683643,23.8046404 10.5578289,23.8046404 L6.74836434,23.8046404 C3.05879537,23.8046404 0.0678087644,20.8136538 0.0678087644,17.1240848 C0.0678087644,13.4345159 3.05879537,10.4435293 6.74836434,10.4435293 L16.5727729,10.4435293 C17.3833083,10.4435293 18.040377,11.100598 18.040377,11.9111334 C18.040377,12.7216688 17.3833083,13.3787375 16.5727729,13.3787375 L6.74836434,13.3787375 C4.67986609,13.3787375 3.00301696,15.0555866 3.00301696,17.1240848 C3.00301696,19.192583 4.67986609,20.8694322 6.74836434,20.8694322 L10.5578289,20.8694322 Z" id="Rectangle-2-Copy" fill="#FFFFFF" transform="translate(9.054093, 17.124085) rotate(-180.000000) translate(-9.054093, -17.124085) "></path>
                                    </g>
                                </g>
                            </g>
                        </g>
                    </g>
                    <path d="M15.42,16.1 L15.42,7.7 L17.052,7.7 L20.616,12.992 L20.616,7.7 L22.392,7.7 L22.392,16.1 L20.748,16.1 L17.184,10.808 L17.184,16.1 L15.42,16.1 Z M23.532,7.7 L30.204,7.7 L30.204,8.888 L25.896,14.564 L30.312,14.564 L30.312,16.1 L23.424,16.1 L23.424,14.912 L27.732,9.236 L23.532,9.236 L23.532,7.7 Z M31.356,7.7 L34.272,7.7 C35.1120042,7.7 35.8539968,7.87799822 36.498,8.234 C37.1420032,8.59000178 37.6379983,9.08599682 37.986,9.722 C38.3340017,10.3580032 38.508,11.0839959 38.508,11.9 C38.508,12.7160041 38.3340017,13.4419968 37.986,14.078 C37.6379983,14.7140032 37.1420032,15.2099982 36.498,15.566 C35.8539968,15.9220018 35.1120042,16.1 34.272,16.1 L31.356,16.1 L31.356,7.7 Z M34.272,14.6 C35.0320038,14.6 35.6219979,14.3540025 36.042,13.862 C36.4620021,13.3699975 36.672,12.7160041 36.672,11.9 C36.672,11.0839959 36.4620021,10.4300025 36.042,9.938 C35.6219979,9.44599754 35.0320038,9.2 34.272,9.2 L33.156,9.2 L33.156,14.6 L34.272,14.6 Z" id="NZD" fill="#FFFFFF" fill-rule="nonzero" transform="translate(26.964000, 11.900000) rotate(270.000000) translate(-26.964000, -11.900000) "></path>
                </g>
            </g>
        </g>
    </g>
</svg>