<?xml version="1.0" encoding="UTF-8"?>
<svg width="60px" height="60px" viewBox="0 0 60 60" version="1.1" xmlns="http://www.w3.org/2000/svg" xmlns:xlink="http://www.w3.org/1999/xlink">
    <!-- Generator: Sketch 53.2 (72643) - https://sketchapp.com -->
    <title>sPLN_blue</title>
    <desc>Created with Sketch.</desc>
    <g id="Page-1" stroke="none" stroke-width="1" fill="none" fill-rule="evenodd">
        <g id="Home-Page-Variant" transform="translate(-349.000000, -1050.000000)">
            <g id="sPLN_blue" transform="translate(349.000000, 1050.000000)">
                <circle id="Oval-Copy" fill="#1E1A31" cx="30.0779626" cy="30.054242" r="29.9152659"></circle>
                <g id="Group-7" transform="translate(14.200000, 17.600000)">
                    <g id="Group-19">
                        <g id="Group-Copy" transform="translate(0.000000, 0.029730)">
                            <g id="Group-6" transform="translate(0.000000, 0.117714)">
                                <g id="Group-5" transform="translate(0.143702, 0.090961)">
                                    <g id="Group-4" transform="translate(0.012613, 0.077937)">
                                        <polygon id="Path-3" fill="#8E8C98" points="2.69507974 23.2126155 0.30917361 21.5029666 15.3155974 0.560701579 17.7015035 2.2703504"></polygon>
                                        <path d="M10.5578285,10.4435293 C11.3683639,10.4435293 12.0254326,11.100598 12.0254326,11.9111334 C12.0254326,12.7216688 11.3683639,13.3787375 10.5578285,13.3787375 L6.74836398,13.3787375 C3.05879501,13.3787375 0.0678084025,10.3877509 0.0678084025,6.69818189 C0.0678084025,3.00861293 3.05879501,0.017626321 6.74836398,0.017626321 L16.5727725,0.017626321 C17.3833079,0.017626321 18.0403766,0.674695055 18.0403766,1.48523042 C18.0403766,2.29576578 17.3833079,2.95283452 16.5727725,2.95283452 L6.74836398,2.95283452 C4.67986573,2.95283452 3.00301659,4.62968366 3.00301659,6.69818189 C3.00301659,8.76668013 4.67986573,10.4435293 6.74836398,10.4435293 L10.5578285,10.4435293 Z" id="Rectangle-2" fill="#FFFFFF"></path>
                                        <path d="M10.5578289,20.8694322 C11.3683643,20.8694322 12.025433,21.526501 12.025433,22.3370363 C12.025433,23.1475717 11.3683643,23.8046404 10.5578289,23.8046404 L6.74836434,23.8046404 C3.05879537,23.8046404 0.0678087644,20.8136538 0.0678087644,17.1240848 C0.0678087644,13.4345159 3.05879537,10.4435293 6.74836434,10.4435293 L16.5727729,10.4435293 C17.3833083,10.4435293 18.040377,11.100598 18.040377,11.9111334 C18.040377,12.7216688 17.3833083,13.3787375 16.5727729,13.3787375 L6.74836434,13.3787375 C4.67986609,13.3787375 3.00301696,15.0555866 3.00301696,17.1240848 C3.00301696,19.192583 4.67986609,20.8694322 6.74836434,20.8694322 L10.5578289,20.8694322 Z" id="Rectangle-2-Copy" fill="#FFFFFF" transform="translate(9.054093, 17.124085) rotate(-180.000000) translate(-9.054093, -17.124085) "></path>
                                    </g>
                                </g>
                            </g>
                        </g>
                    </g>
                    <path d="M18.685,7.9 C19.3350032,7.9 19.9091642,8.02349877 20.4075,8.2705 C20.9058358,8.51750124 21.2914986,8.87066437 21.5645,9.33 C21.8375014,9.78933563 21.974,10.3223303 21.974,10.929 C21.974,11.5356697 21.8375014,12.0664977 21.5645,12.5215 C21.2914986,12.9765023 20.9058358,13.3274988 20.4075,13.5745 C19.9091642,13.8215012 19.3350032,13.945 18.685,13.945 L16.93,13.945 L16.93,17 L14.98,17 L14.98,7.9 L18.685,7.9 Z M16.93,12.32 L18.503,12.32 C18.9623356,12.32 19.326332,12.1943346 19.595,11.943 C19.863668,11.6916654 19.998,11.3536688 19.998,10.929 C19.998,10.4956645 19.863668,10.1533346 19.595,9.902 C19.326332,9.65066541 18.9623356,9.525 18.503,9.525 L16.93,9.525 L16.93,12.32 Z M23.066,17 L23.066,7.9 L25.016,7.9 L25.016,15.323 L28.63,15.323 L28.63,17 L23.066,17 Z M29.683,17 L29.683,7.9 L31.451,7.9 L35.312,13.633 L35.312,7.9 L37.236,7.9 L37.236,17 L35.455,17 L31.594,11.267 L31.594,17 L29.683,17 Z" id="PLN" fill="#FFFFFF" fill-rule="nonzero" transform="translate(26.108000, 12.450000) rotate(270.000000) translate(-26.108000, -12.450000) "></path>
                </g>
            </g>
        </g>
    </g>
</svg>