<?xml version="1.0" encoding="UTF-8"?>
<svg width="60px" height="60px" viewBox="0 0 60 60" version="1.1" xmlns="http://www.w3.org/2000/svg" xmlns:xlink="http://www.w3.org/1999/xlink">
    <!-- Generator: Sketch 53.2 (72643) - https://sketchapp.com -->
    <title>sRUB_blue</title>
    <desc>Created with Sketch.</desc>
    <g id="Page-1" stroke="none" stroke-width="1" fill="none" fill-rule="evenodd">
        <g id="Home-Page-Variant" transform="translate(-452.000000, -888.000000)">
            <g id="sRUB_blue" transform="translate(452.000000, 888.000000)">
                <circle id="Oval-Copy" fill="#1E1A31" cx="30.0779626" cy="30.054242" r="29.9152659"></circle>
                <g id="Group-7" transform="translate(14.200000, 17.600000)">
                    <g id="Group-19">
                        <g id="Group-Copy" transform="translate(0.000000, 0.029730)">
                            <g id="Group-6" transform="translate(0.000000, 0.117714)">
                                <g id="Group-5" transform="translate(0.143702, 0.090961)">
                                    <g id="Group-4" transform="translate(0.012613, 0.077937)">
                                        <polygon id="Path-3" fill="#8E8C98" points="2.69507974 23.2126155 0.30917361 21.5029666 15.3155974 0.560701579 17.7015035 2.2703504"></polygon>
                                        <path d="M10.5578285,10.4435293 C11.3683639,10.4435293 12.0254326,11.100598 12.0254326,11.9111334 C12.0254326,12.7216688 11.3683639,13.3787375 10.5578285,13.3787375 L6.74836398,13.3787375 C3.05879501,13.3787375 0.0678084025,10.3877509 0.0678084025,6.69818189 C0.0678084025,3.00861293 3.05879501,0.017626321 6.74836398,0.017626321 L16.5727725,0.017626321 C17.3833079,0.017626321 18.0403766,0.674695055 18.0403766,1.48523042 C18.0403766,2.29576578 17.3833079,2.95283452 16.5727725,2.95283452 L6.74836398,2.95283452 C4.67986573,2.95283452 3.00301659,4.62968366 3.00301659,6.69818189 C3.00301659,8.76668013 4.67986573,10.4435293 6.74836398,10.4435293 L10.5578285,10.4435293 Z" id="Rectangle-2" fill="#FFFFFF"></path>
                                        <path d="M10.5578289,20.8694322 C11.3683643,20.8694322 12.025433,21.526501 12.025433,22.3370363 C12.025433,23.1475717 11.3683643,23.8046404 10.5578289,23.8046404 L6.74836434,23.8046404 C3.05879537,23.8046404 0.0678087644,20.8136538 0.0678087644,17.1240848 C0.0678087644,13.4345159 3.05879537,10.4435293 6.74836434,10.4435293 L16.5727729,10.4435293 C17.3833083,10.4435293 18.040377,11.100598 18.040377,11.9111334 C18.040377,12.7216688 17.3833083,13.3787375 16.5727729,13.3787375 L6.74836434,13.3787375 C4.67986609,13.3787375 3.00301696,15.0555866 3.00301696,17.1240848 C3.00301696,19.192583 4.67986609,20.8694322 6.74836434,20.8694322 L10.5578289,20.8694322 Z" id="Rectangle-2-Copy" fill="#FFFFFF" transform="translate(9.054093, 17.124085) rotate(-180.000000) translate(-9.054093, -17.124085) "></path>
                                    </g>
                                </g>
                            </g>
                        </g>
                    </g>
                    <path d="M18.44,7.9 C19.048003,7.9 19.5859977,8.01399886 20.054,8.242 C20.5220023,8.47000114 20.8839987,8.79599788 21.14,9.22 C21.3960013,9.64400212 21.524,10.1359972 21.524,10.696 C21.524,11.2320027 21.3960013,11.7059979 21.14,12.118 C20.8839987,12.5300021 20.5320022,12.8439989 20.084,13.06 L21.74,16.3 L19.748,16.3 L18.344,13.48 L16.82,13.48 L16.82,16.3 L15.02,16.3 L15.02,7.9 L18.44,7.9 Z M16.82,11.98 L18.296,11.98 C18.7200021,11.98 19.0579987,11.8640012 19.31,11.632 C19.5620013,11.3999988 19.688,11.088002 19.688,10.696 C19.688,10.295998 19.5620013,9.98000116 19.31,9.748 C19.0579987,9.51599884 18.7200021,9.4 18.296,9.4 L16.82,9.4 L16.82,11.98 Z M24.416,7.9 L24.416,12.772 C24.416,13.4520034 24.5479987,13.9639983 24.812,14.308 C25.0760013,14.6520017 25.4919972,14.824 26.06,14.824 C26.6280028,14.824 27.0459987,14.6520017 27.314,14.308 C27.5820013,13.9639983 27.716,13.4520034 27.716,12.772 L27.716,7.9 L29.516,7.9 L29.516,12.676 C29.516,13.876006 29.2220029,14.7919968 28.634,15.424 C28.0459971,16.0560032 27.1880056,16.372 26.06,16.372 C24.9319944,16.372 24.0760029,16.0560032 23.492,15.424 C22.9079971,14.7919968 22.616,13.876006 22.616,12.676 L22.616,7.9 L24.416,7.9 Z M34.088,7.9 C35.0640049,7.9 35.8199973,8.09199808 36.356,8.476 C36.8920027,8.86000192 37.16,9.40399648 37.16,10.108 C37.16,10.6280026 37.0160014,11.0479984 36.728,11.368 C36.4399986,11.6880016 36.0320026,11.8959995 35.504,11.992 C36.1280031,12.0720004 36.6099983,12.2719984 36.95,12.592 C37.2900017,12.9120016 37.46,13.3599971 37.46,13.936 C37.46,14.6720037 37.1800028,15.2499979 36.62,15.67 C36.0599972,16.0900021 35.2680051,16.3 34.244,16.3 L30.896,16.3 L30.896,7.9 L34.088,7.9 Z M32.696,11.356 L34.136,11.356 C34.5200019,11.356 34.8199989,11.2640009 35.036,11.08 C35.2520011,10.8959991 35.36,10.6480016 35.36,10.336 C35.36,10.0239984 35.2520011,9.77600092 35.036,9.592 C34.8199989,9.40799908 34.5200019,9.316 34.136,9.316 L32.696,9.316 L32.696,11.356 Z M32.696,14.872 L34.256,14.872 C34.6880022,14.872 35.0219988,14.7800009 35.258,14.596 C35.4940012,14.4119991 35.612,14.1560016 35.612,13.828 C35.612,13.4839983 35.4920012,13.2180009 35.252,13.03 C35.0119988,12.8419991 34.6800021,12.748 34.256,12.748 L32.696,12.748 L32.696,14.872 Z" id="RUB" fill="#FFFFFF" fill-rule="nonzero" transform="translate(26.240000, 12.136000) rotate(270.000000) translate(-26.240000, -12.136000) "></path>
                </g>
            </g>
        </g>
    </g>
</svg>