<?xml version="1.0" encoding="UTF-8"?>
<svg width="60px" height="60px" viewBox="0 0 60 60" version="1.1" xmlns="http://www.w3.org/2000/svg" xmlns:xlink="http://www.w3.org/1999/xlink">
    <!-- Generator: Sketch 53.2 (72643) - https://sketchapp.com -->
    <title>sSGD_blue</title>
    <desc>Created with Sketch.</desc>
    <g id="Page-1" stroke="none" stroke-width="1" fill="none" fill-rule="evenodd">
        <g id="Home-Page-Variant" transform="translate(-246.000000, -969.000000)">
            <g id="sSGD_blue" transform="translate(246.000000, 969.000000)">
                <circle id="Oval-Copy" fill="#1E1A31" cx="30.0779626" cy="30.054242" r="29.9152659"></circle>
                <g id="Group-6" transform="translate(15.400000, 17.600000)">
                    <g id="Group-19">
                        <g id="Group-Copy" transform="translate(0.000000, 0.029730)">
                            <g id="Group-6" transform="translate(0.000000, 0.117714)">
                                <g id="Group-5" transform="translate(0.143702, 0.090961)">
                                    <g id="Group-4" transform="translate(0.012613, 0.077937)">
                                        <polygon id="Path-3" fill="#8E8C98" points="2.69507974 23.2126155 0.30917361 21.5029666 15.3155974 0.560701579 17.7015035 2.2703504"></polygon>
                                        <path d="M10.5578285,10.4435293 C11.3683639,10.4435293 12.0254326,11.100598 12.0254326,11.9111334 C12.0254326,12.7216688 11.3683639,13.3787375 10.5578285,13.3787375 L6.74836398,13.3787375 C3.05879501,13.3787375 0.0678084025,10.3877509 0.0678084025,6.69818189 C0.0678084025,3.00861293 3.05879501,0.017626321 6.74836398,0.017626321 L16.5727725,0.017626321 C17.3833079,0.017626321 18.0403766,0.674695055 18.0403766,1.48523042 C18.0403766,2.29576578 17.3833079,2.95283452 16.5727725,2.95283452 L6.74836398,2.95283452 C4.67986573,2.95283452 3.00301659,4.62968366 3.00301659,6.69818189 C3.00301659,8.76668013 4.67986573,10.4435293 6.74836398,10.4435293 L10.5578285,10.4435293 Z" id="Rectangle-2" fill="#FFFFFF"></path>
                                        <path d="M10.5578289,20.8694322 C11.3683643,20.8694322 12.025433,21.526501 12.025433,22.3370363 C12.025433,23.1475717 11.3683643,23.8046404 10.5578289,23.8046404 L6.74836434,23.8046404 C3.05879537,23.8046404 0.0678087644,20.8136538 0.0678087644,17.1240848 C0.0678087644,13.4345159 3.05879537,10.4435293 6.74836434,10.4435293 L16.5727729,10.4435293 C17.3833083,10.4435293 18.040377,11.100598 18.040377,11.9111334 C18.040377,12.7216688 17.3833083,13.3787375 16.5727729,13.3787375 L6.74836434,13.3787375 C4.67986609,13.3787375 3.00301696,15.0555866 3.00301696,17.1240848 C3.00301696,19.192583 4.67986609,20.8694322 6.74836434,20.8694322 L10.5578289,20.8694322 Z" id="Rectangle-2-Copy" fill="#FFFFFF" transform="translate(9.054093, 17.124085) rotate(-180.000000) translate(-9.054093, -17.124085) "></path>
                                    </g>
                                </g>
                            </g>
                        </g>
                    </g>
                    <path d="M14.748,13.464 C14.7800002,13.8800021 14.9499985,14.2139987 15.258,14.466 C15.5660015,14.7180013 15.9759974,14.844 16.488,14.844 C16.9120021,14.844 17.2579987,14.7540009 17.526,14.574 C17.7940013,14.3939991 17.928,14.1440016 17.928,13.824 C17.928,13.5999989 17.8540007,13.4220007 17.706,13.29 C17.5579993,13.1579993 17.3500013,13.0540004 17.082,12.978 C16.8139987,12.9019996 16.4000028,12.8080006 15.84,12.696 C15.2879972,12.5919995 14.8240019,12.4580008 14.448,12.294 C14.0719981,12.1299992 13.7660012,11.8860016 13.53,11.562 C13.2939988,11.2379984 13.176,10.8080027 13.176,10.272 C13.176,9.78399756 13.3099987,9.34800192 13.578,8.964 C13.8460013,8.57999808 14.2179976,8.2780011 14.694,8.058 C15.1700024,7.8379989 15.707997,7.728 16.308,7.728 C16.9240031,7.728 17.4779975,7.84199886 17.97,8.07 C18.4620025,8.29800114 18.8499986,8.611998 19.134,9.012 C19.4180014,9.412002 19.564,9.86399748 19.572,10.368 L17.808,10.368 C17.7679998,10.0079982 17.6160013,9.7180011 17.352,9.498 C17.0879987,9.2779989 16.7400022,9.168 16.308,9.168 C15.907998,9.168 15.5880012,9.25199916 15.348,9.42 C15.1079988,9.58800084 14.988,9.82799844 14.988,10.14 C14.988,10.3640011 15.0599993,10.5379994 15.204,10.662 C15.3480007,10.7860006 15.5519987,10.8859996 15.816,10.962 C16.0800013,11.0380004 16.4879972,11.1279995 17.04,11.232 C17.6000028,11.3360005 18.0719981,11.4659992 18.456,11.622 C18.8400019,11.7780008 19.1499988,12.0139984 19.386,12.33 C19.6220012,12.6460016 19.74,13.0679974 19.74,13.596 C19.74,14.1080026 19.6000014,14.565998 19.32,14.97 C19.0399986,15.374002 18.6500025,15.6919988 18.15,15.924 C17.6499975,16.1560012 17.0880031,16.272 16.464,16.272 C15.7919966,16.272 15.1940026,16.1500012 14.67,15.906 C14.1459974,15.6619988 13.7360015,15.3240022 13.44,14.892 C13.1439985,14.4599978 12.992,13.9760027 12.984,13.44 L14.748,13.464 Z M20.484,12 C20.484,11.1439957 20.6519983,10.3940032 20.988,9.75 C21.3240017,9.10599678 21.8059969,8.60800176 22.434,8.256 C23.0620031,7.90399824 23.7999958,7.728 24.648,7.728 C25.3120033,7.728 25.9079974,7.85599872 26.436,8.112 C26.9640026,8.36800128 27.3899984,8.72799768 27.714,9.192 C28.0380016,9.65600232 28.2359996,10.187997 28.308,10.788 L26.532,10.788 C26.4199994,10.3159976 26.1960017,9.94200138 25.86,9.666 C25.5239983,9.38999862 25.1040025,9.252 24.6,9.252 C24.1359977,9.252 23.7320017,9.36799884 23.388,9.6 C23.0439983,9.83200116 22.7800009,10.1559979 22.596,10.572 C22.4119991,10.9880021 22.32,11.4639973 22.32,12 C22.32,12.8240041 22.521998,13.4879975 22.926,13.992 C23.330002,14.4960025 23.8879964,14.748 24.6,14.748 C25.1200026,14.748 25.579998,14.6060014 25.98,14.322 C26.380002,14.0379986 26.6199996,13.6200028 26.7,13.068 L26.7,12.96 L24.612,12.96 L24.612,11.532 L28.368,11.532 L28.368,16.2 L27.12,16.2 L26.928,15.156 C26.6799988,15.4840016 26.3480021,15.751999 25.932,15.96 C25.5159979,16.168001 25.0320028,16.272 24.48,16.272 C23.687996,16.272 22.990003,16.0960018 22.386,15.744 C21.781997,15.3919982 21.3140017,14.8920032 20.982,14.244 C20.6499983,13.5959968 20.484,12.8480042 20.484,12 Z M29.808,7.8 L32.724,7.8 C33.5640042,7.8 34.3059968,7.97799822 34.95,8.334 C35.5940032,8.69000178 36.0899983,9.18599682 36.438,9.822 C36.7860017,10.4580032 36.96,11.1839959 36.96,12 C36.96,12.8160041 36.7860017,13.5419968 36.438,14.178 C36.0899983,14.8140032 35.5940032,15.3099982 34.95,15.666 C34.3059968,16.0220018 33.5640042,16.2 32.724,16.2 L29.808,16.2 L29.808,7.8 Z M32.724,14.7 C33.4840038,14.7 34.0739979,14.4540025 34.494,13.962 C34.9140021,13.4699975 35.124,12.8160041 35.124,12 C35.124,11.1839959 34.9140021,10.5300025 34.494,10.038 C34.0739979,9.54599754 33.4840038,9.3 32.724,9.3 L31.608,9.3 L31.608,14.7 L32.724,14.7 Z" id="SGD" fill="#FFFFFF" fill-rule="nonzero" transform="translate(24.972000, 12.000000) rotate(270.000000) translate(-24.972000, -12.000000) "></path>
                </g>
            </g>
        </g>
    </g>
</svg>