<?xml version="1.0" encoding="UTF-8"?>
<svg width="300px" height="300px" viewBox="0 0 300 300" version="1.1" xmlns="http://www.w3.org/2000/svg" xmlns:xlink="http://www.w3.org/1999/xlink">
    <!-- Generator: Sketch 59 (86127) - https://sketch.com -->
    <title>sTRX</title>
    <desc>Created with Sketch.</desc>
    <g id="Page-1" stroke="none" stroke-width="1" fill="none" fill-rule="evenodd">
        <g id="sTRX">
            <circle id="Oval" fill="#52B167" cx="150" cy="150" r="150"></circle>
            <g id="S-LOGO" transform="translate(79.418297, 89.497039)">
                <polygon id="Path-3" fill="#8E8C98" points="13.425934 116.090354 1.53453423 107.540151 76.3268247 2.80483745 88.2182242 11.3550399"></polygon>
                <path d="M52.6140176,52.2302966 C56.6537407,52.2302966 59.9285831,55.5163928 59.9285831,59.5699981 C59.9285831,63.6236035 56.6537407,66.9096997 52.6140176,66.9096997 L33.6275766,66.9096997 C15.2386975,66.9096997 0.331565623,51.9513407 0.331565623,33.4992694 C0.331565623,15.0471982 15.2386975,0.0888390806 33.6275766,0.0888390806 L82.5926083,0.0888390806 C86.6323315,0.0888390806 89.9071739,3.37493541 89.9071739,7.42854068 C89.9071739,11.482146 86.6323315,14.7682423 82.5926083,14.7682423 L33.6275766,14.7682423 C23.3181436,14.7682423 14.9606969,23.1544088 14.9606969,33.4992694 C14.9606969,43.84413 23.3181436,52.2302966 33.6275766,52.2302966 L52.6140176,52.2302966 Z" id="Rectangle-2" fill="#FFFFFF"></path>
                <path d="M52.6140194,104.371754 C56.6537425,104.371754 59.928585,107.65785 59.928585,111.711455 C59.928585,115.765061 56.6537425,119.051157 52.6140194,119.051157 L33.6275784,119.051157 C15.2386993,119.051157 0.331567426,104.092798 0.331567426,85.6407267 C0.331567426,67.1886556 15.2386993,52.2302966 33.6275784,52.2302966 L82.5926101,52.2302966 C86.6323333,52.2302966 89.9071757,55.5163928 89.9071757,59.5699981 C89.9071757,63.6236035 86.6323333,66.9096997 82.5926101,66.9096997 L33.6275784,66.9096997 C23.3181454,66.9096997 14.9606987,75.2958663 14.9606987,85.6407267 C14.9606987,95.9855871 23.3181454,104.371754 33.6275784,104.371754 L52.6140194,104.371754 Z" id="Rectangle-2-Copy" fill="#FFFFFF" transform="translate(45.119372, 85.640727) rotate(-180.000000) translate(-45.119372, -85.640727) "></path>
            </g>
            <path d="M143.715,127.285 L179.725,127.285 L179.725,135.67 L166.595,135.67 L166.595,172.785 L156.845,172.785 L156.845,135.67 L143.715,135.67 L143.715,127.285 Z M203.58,127.285 C206.87335,127.285 209.787487,127.902494 212.3225,129.1375 C214.857513,130.372506 216.818326,132.138322 218.205,134.435 C219.591674,136.731678 220.285,139.396651 220.285,142.43 C220.285,145.333348 219.591674,147.900822 218.205,150.1325 C216.818326,152.364178 214.911679,154.064994 212.485,155.235 L221.455,172.785 L210.665,172.785 L203.06,157.51 L194.805,157.51 L194.805,172.785 L185.055,172.785 L185.055,127.285 L203.58,127.285 Z M194.805,149.385 L202.8,149.385 C205.096678,149.385 206.927493,148.756673 208.2925,147.5 C209.657507,146.243327 210.34,144.553344 210.34,142.43 C210.34,140.263322 209.657507,138.551673 208.2925,137.295 C206.927493,136.038327 205.096678,135.41 202.8,135.41 L194.805,135.41 L194.805,149.385 Z M238.615,149.58 L224.445,127.285 L236.275,127.285 L245.245,141.585 L254.41,127.285 L265.07,127.285 L250.9,149.58 L265.785,172.785 L253.89,172.785 L244.205,157.51 L234.325,172.785 L223.73,172.785 L238.615,149.58 Z" id="TRX" fill="#FFFFFF" fill-rule="nonzero" transform="translate(204.750000, 150.035000) rotate(270.000000) translate(-204.750000, -150.035000) "></path>
        </g>
    </g>
</svg>