<?xml version="1.0" encoding="UTF-8"?>
<svg width="60px" height="60px" viewBox="0 0 60 60" version="1.1" xmlns="http://www.w3.org/2000/svg" xmlns:xlink="http://www.w3.org/1999/xlink">
    <!-- Generator: Sketch 53.2 (72643) - https://sketchapp.com -->
    <title>sXAG_blue</title>
    <desc>Created with Sketch.</desc>
    <g id="Page-1" stroke="none" stroke-width="1" fill="none" fill-rule="evenodd">
        <g id="Home-Page" transform="translate(-689.000000, -728.000000)">
            <g id="Top-Row" transform="translate(219.000000, 634.000000)">
                <g id="Tiles">
                    <g id="Commod/crypto-tile" transform="translate(339.387060, 0.000000)">
                        <g id="sXAG_blue" transform="translate(130.612940, 94.000000)">
                            <circle id="Oval-Copy" fill="#1E1A31" cx="30" cy="30" r="30"></circle>
                            <g id="Group-19" transform="translate(13.972603, 17.260274)" fill="#FFFFFF">
                                <g id="Group-Copy" transform="translate(0.128143, 0.808904)">
                                    <g id="Group-6" transform="translate(0.000000, 0.117186)">
                                        <g id="Group-5" transform="translate(0.143578, 0.090553)">
                                            <g id="Group-4" transform="translate(0.012602, 0.077587)">
                                                <path d="M10.5474141,10.3968698 C11.3572484,10.3968698 12.0137487,11.0509943 12.0137487,11.8578977 C12.0137487,12.6648012 11.3572484,13.3189257 10.5474141,13.3189257 L6.7412449,13.3189257 C3.05486753,13.3189257 0.066468217,10.3413414 0.066468217,6.6683049 C0.066468217,2.99526848 3.05486753,0.0176841492 6.7412449,0.0176841492 L16.557155,0.0176841492 C17.3669893,0.0176841492 18.0234896,0.671808632 18.0234896,1.47871208 C18.0234896,2.28561553 17.3669893,2.93974001 16.557155,2.93974001 L6.7412449,2.93974001 C4.67453597,2.93974001 2.99913736,4.60907537 2.99913736,6.6683049 C2.99913736,8.72753443 4.67453597,10.3968698 6.7412449,10.3968698 L10.5474141,10.3968698 Z" id="Rectangle-2"></path>
                                                <path d="M10.5474145,20.7760554 C11.3572488,20.7760554 12.0137491,21.43018 12.0137491,22.2370834 C12.0137491,23.0439868 11.3572488,23.6981113 10.5474145,23.6981113 L6.74124526,23.6981113 C3.05486789,23.6981113 0.0664685786,20.720527 0.0664685786,17.0474905 C0.0664685786,13.3744541 3.05486789,10.3968698 6.74124526,10.3968698 L16.5571554,10.3968698 C17.3669896,10.3968698 18.0234899,11.0509943 18.0234899,11.8578977 C18.0234899,12.6648012 17.3669896,13.3189257 16.5571554,13.3189257 L6.74124526,13.3189257 C4.67453633,13.3189257 2.99913772,14.9882611 2.99913772,17.0474905 C2.99913772,19.10672 4.67453633,20.7760554 6.74124526,20.7760554 L10.5474145,20.7760554 Z" id="Rectangle-2-Copy" transform="translate(9.044979, 17.047491) rotate(-180.000000) translate(-9.044979, -17.047491) "></path>
                                                <polygon id="Path-3" fill-opacity="0.5" points="2.69146688 23.1087391 0.307624636 21.406751 15.3010674 0.558325948 17.6849096 2.26031402"></polygon>
                                            </g>
                                        </g>
                                    </g>
                                </g>
                                <path d="M15.9652523,13.054238 L13.343134,8.95761986 L15.5322419,8.95761986 L17.1921149,11.5851884 L18.8880722,8.95761986 L20.8606749,8.95761986 L18.2385566,13.054238 L20.9929836,17.3180651 L18.7918476,17.3180651 L16.9996659,14.5113442 L15.1713999,17.3180651 L13.2108253,17.3180651 L15.9652523,13.054238 Z M21.2215169,17.3180651 L24.3007016,8.95761986 L26.4657534,8.95761986 L29.5208821,17.3180651 L27.5843635,17.3180651 L26.934848,15.4907106 L23.7353826,15.4907106 L23.085867,17.3180651 L21.2215169,17.3180651 Z M24.2165052,14.0455479 L26.4416973,14.0455479 L25.3230872,10.8685788 L24.2165052,14.0455479 Z M29.5930505,13.1378425 C29.5930505,12.285869 29.7614417,11.5394082 30.0982292,10.8984375 C30.4350167,10.2574668 30.9181392,9.76181682 31.5476111,9.4114726 C32.177083,9.06112839 32.9168016,8.8859589 33.7667892,8.8859589 C34.4323455,8.8859589 35.0297334,9.01335489 35.5589709,9.26815068 C36.0882085,9.52294648 36.5152005,9.88124769 36.8399599,10.3430651 C37.1647193,10.8048824 37.3631804,11.334372 37.4353491,11.9315497 L35.6551955,11.9315497 C35.542933,11.4617699 35.3184113,11.0895348 34.9816238,10.814833 C34.6448363,10.5401313 34.2238582,10.4027825 33.7186769,10.4027825 C33.2535894,10.4027825 32.8486486,10.5182351 32.5038423,10.7491438 C32.159036,10.9800525 31.8944212,11.3025236 31.70999,11.7165668 C31.5255587,12.1306099 31.4333445,12.6043638 31.4333445,13.1378425 C31.4333445,13.9579664 31.6358149,14.6188331 32.0407618,15.1204623 C32.4457087,15.6220915 33.0050081,15.8729024 33.7186769,15.8729024 C34.2398957,15.8729024 34.7009669,15.7315725 35.1019044,15.4489084 C35.502842,15.1662443 35.7434009,14.7502168 35.8235884,14.2008134 L35.8235884,14.0933219 L33.730705,14.0933219 L33.730705,12.6720462 L37.4954895,12.6720462 L37.4954895,17.3180651 L36.2445707,17.3180651 L36.0521216,16.2789812 C35.8035404,16.6054383 35.4707672,16.8721736 35.0537922,17.0791952 C34.6368172,17.2862168 34.15169,17.389726 33.5983963,17.389726 C32.80454,17.389726 32.1049145,17.2145565 31.4994988,16.8642123 C30.8940832,16.5138681 30.4249933,16.0162275 30.0922152,15.3712757 C29.759437,14.7263238 29.5930505,13.9818535 29.5930505,13.1378425 Z" id="XAG" fill-rule="nonzero" transform="translate(25.353157, 13.137842) rotate(270.000000) translate(-25.353157, -13.137842) "></path>
                            </g>
                        </g>
                    </g>
                </g>
            </g>
        </g>
    </g>
</svg>