<?xml version="1.0" encoding="UTF-8"?>
<svg width="60px" height="60px" viewBox="0 0 60 60" version="1.1" xmlns="http://www.w3.org/2000/svg" xmlns:xlink="http://www.w3.org/1999/xlink">
    <!-- Generator: Sketch 54.1 (76490) - https://sketchapp.com -->
    <title>sxag</title>
    <desc>Created with Sketch.</desc>
    <g id="Page-1" stroke="none" stroke-width="1" fill="none" fill-rule="evenodd">
        <g id="Home-Page" transform="translate(-1084.000000, -656.000000)">
            <g id="Tiles" transform="translate(217.000000, 592.000000)">
                <g id="Commodities-and-Coming-Soon" transform="translate(687.000000, 0.000000)">
                    <g id="sxag" transform="translate(180.000000, 64.000000)">
                        <ellipse id="Oval-Copy" fill="#234CAA" cx="29.9967935" cy="30.0576909" rx="29.8196463" ry="29.9221194"></ellipse>
                        <g id="Group-19" transform="translate(13.800000, 18.000000)" fill="#FFFFFF">
                            <g id="Group-Copy" transform="translate(0.127844, 0.012731)">
                                <g id="Group-6" transform="translate(0.000000, 0.117741)">
                                    <g id="Group-5" transform="translate(0.143243, 0.090982)">
                                        <g id="Group-4" transform="translate(0.012572, 0.077954)">
                                            <path d="M10.5228035,10.4460593 C11.3307481,10.4460593 11.9857166,11.1032786 11.9857166,11.9139996 C11.9857166,12.7247207 11.3307481,13.3819399 10.5228035,13.3819399 L6.72551533,13.3819399 C3.0477395,13.3819399 0.0663131245,10.3902681 0.0663131245,6.69985387 C0.0663131245,3.00943964 3.0477395,0.0177678161 6.72551533,0.0177678161 L16.5185217,0.0177678161 C17.3264663,0.0177678161 17.9814348,0.674987081 17.9814348,1.48570814 C17.9814348,2.29642919 17.3264663,2.95364845 16.5185217,2.95364845 L6.72551533,2.95364845 C4.66362872,2.95364845 2.99213937,4.63088175 2.99213937,6.69985387 C2.99213937,8.76882599 4.66362872,10.4460593 6.72551533,10.4460593 L10.5228035,10.4460593 Z" id="Rectangle-2"></path>
                                            <path d="M10.5228039,20.8743508 C11.3307485,20.8743508 11.985717,21.5315701 11.985717,22.3422911 C11.985717,23.1530121 11.3307485,23.8102314 10.5228039,23.8102314 L6.72551569,23.8102314 C3.04773986,23.8102314 0.0663134853,20.8185596 0.0663134853,17.1281453 C0.0663134853,13.4377311 3.04773986,10.4460593 6.72551569,10.4460593 L16.518522,10.4460593 C17.3264667,10.4460593 17.9814351,11.1032786 17.9814351,11.9139996 C17.9814351,12.7247207 17.3264667,13.3819399 16.518522,13.3819399 L6.72551569,13.3819399 C4.66362908,13.3819399 2.99213973,15.0591733 2.99213973,17.1281453 C2.99213973,19.1971174 4.66362908,20.8743508 6.72551569,20.8743508 L10.5228039,20.8743508 Z" id="Rectangle-2-Copy" transform="translate(9.023874, 17.128145) rotate(-180.000000) translate(-9.023874, -17.128145) "></path>
                                            <polygon id="Path-3" fill-opacity="0.5" points="2.68518679 23.2180708 0.306906845 21.5080303 15.2653649 0.56096749 17.6436448 2.27100798"></polygon>
                                        </g>
                                    </g>
                                </g>
                            </g>
                            <path d="M16.528,12.316 L13.912,8.2 L16.096,8.2 L17.752,10.84 L19.444,8.2 L21.412,8.2 L18.796,12.316 L21.544,16.6 L19.348,16.6 L17.56,13.78 L15.736,16.6 L13.78,16.6 L16.528,12.316 Z M21.772,16.6 L24.844,8.2 L27.004,8.2 L30.052,16.6 L28.12,16.6 L27.472,14.764 L24.28,14.764 L23.632,16.6 L21.772,16.6 Z M24.76,13.312 L26.98,13.312 L25.864,10.12 L24.76,13.312 Z M30.124,12.4 C30.124,11.5439957 30.2919983,10.7940032 30.628,10.15 C30.9640017,9.50599678 31.4459969,9.00800176 32.074,8.656 C32.7020031,8.30399824 33.4399958,8.128 34.288,8.128 C34.9520033,8.128 35.5479974,8.25599872 36.076,8.512 C36.6040026,8.76800128 37.0299984,9.12799768 37.354,9.592 C37.6780016,10.0560023 37.8759996,10.587997 37.948,11.188 L36.172,11.188 C36.0599994,10.7159976 35.8360017,10.3420014 35.5,10.066 C35.1639983,9.78999862 34.7440025,9.652 34.24,9.652 C33.7759977,9.652 33.3720017,9.76799884 33.028,10 C32.6839983,10.2320012 32.4200009,10.5559979 32.236,10.972 C32.0519991,11.3880021 31.96,11.8639973 31.96,12.4 C31.96,13.2240041 32.161998,13.8879975 32.566,14.392 C32.970002,14.8960025 33.5279964,15.148 34.24,15.148 C34.7600026,15.148 35.219998,15.0060014 35.62,14.722 C36.020002,14.4379986 36.2599996,14.0200028 36.34,13.468 L36.34,13.36 L34.252,13.36 L34.252,11.932 L38.008,11.932 L38.008,16.6 L36.76,16.6 L36.568,15.556 C36.3199988,15.8840016 35.9880021,16.151999 35.572,16.36 C35.1559979,16.568001 34.6720028,16.672 34.12,16.672 C33.327996,16.672 32.630003,16.4960018 32.026,16.144 C31.421997,15.7919982 30.9540017,15.2920032 30.622,14.644 C30.2899983,13.9959968 30.124,13.2480042 30.124,12.4 Z" id="XAG" fill-rule="nonzero" transform="translate(25.894000, 12.400000) rotate(270.000000) translate(-25.894000, -12.400000) "></path>
                        </g>
                    </g>
                </g>
            </g>
        </g>
    </g>
</svg>