<?xml version="1.0" encoding="UTF-8"?>
<svg width="60px" height="60px" viewBox="0 0 60 60" version="1.1" xmlns="http://www.w3.org/2000/svg" xmlns:xlink="http://www.w3.org/1999/xlink">
    <!-- Generator: Sketch 54.1 (76490) - https://sketchapp.com -->
    <title>sxau</title>
    <desc>Created with Sketch.</desc>
    <g id="Page-1" stroke="none" stroke-width="1" fill="none" fill-rule="evenodd">
        <g id="Home-Page" transform="translate(-984.000000, -656.000000)">
            <g id="Tiles" transform="translate(217.000000, 592.000000)">
                <g id="Commodities-and-Coming-Soon" transform="translate(687.000000, 0.000000)">
                    <g id="sxau" transform="translate(80.000000, 64.000000)">
                        <circle id="Oval-Copy" fill="#234CAA" cx="30" cy="30" r="30"></circle>
                        <g id="Group-19" transform="translate(14.166667, 19.000000)">
                            <g id="Group-Copy" transform="translate(0.000000, 0.029047)">
                                <g id="Group-6" transform="translate(0.000000, 0.115012)">
                                    <g id="Group-5" transform="translate(0.143654, 0.088873)">
                                        <g id="Group-4" transform="translate(0.012608, 0.076148)">
                                            <polygon id="Path-3" fill="#8E8C98" points="2.69417414 22.6798197 0.309069721 21.0094121 15.3104511 0.547831878 17.6955554 2.21823938"></polygon>
                                            <path d="M10.5542809,10.2038205 C11.3645439,10.2038205 12.0213918,10.8458076 12.0213918,11.6377389 C12.0213918,12.4296702 11.3645439,13.0716573 10.5542809,13.0716573 L6.74609639,13.0716573 C3.05776719,13.0716573 0.0677856174,10.1493224 0.0677856174,6.54443951 C0.0677856174,2.93955667 3.05776719,0.0172217466 6.74609639,0.0172217466 L16.5672037,0.0172217466 C17.3774668,0.0172217466 18.0343147,0.659208878 18.0343147,1.45114014 C18.0343147,2.24307141 17.3774668,2.88505854 16.5672037,2.88505854 L6.74609639,2.88505854 C4.6782932,2.88505854 3.00200752,4.5234192 3.00200752,6.54443951 C3.00200752,8.56545981 4.6782932,10.2038205 6.74609639,10.2038205 L10.5542809,10.2038205 Z" id="Rectangle-2" fill="#FFFFFF"></path>
                                            <path d="M10.5542812,20.3904192 C11.3645443,20.3904192 12.0213922,21.0324064 12.0213922,21.8243376 C12.0213922,22.6162689 11.3645443,23.258256 10.5542812,23.258256 L6.74609675,23.258256 C3.05776755,23.258256 0.0677859792,20.3359211 0.0677859792,16.7310382 C0.0677859792,13.1261554 3.05776755,10.2038205 6.74609675,10.2038205 L16.5672041,10.2038205 C17.3774671,10.2038205 18.034315,10.8458076 18.034315,11.6377389 C18.034315,12.4296702 17.3774671,13.0716573 16.5672041,13.0716573 L6.74609675,13.0716573 C4.67829356,13.0716573 3.00200788,14.710018 3.00200788,16.7310382 C3.00200788,18.7520585 4.67829356,20.3904192 6.74609675,20.3904192 L10.5542812,20.3904192 Z" id="Rectangle-2-Copy" fill="#FFFFFF" transform="translate(9.051051, 16.731038) rotate(-180.000000) translate(-9.051051, -16.731038) "></path>
                                        </g>
                                    </g>
                                </g>
                            </g>
                        </g>
                        <path d="M31.2821697,30.6390463 L28.6336413,26.8333333 L30.8447981,26.8333333 L32.5213895,29.2743154 L34.2344285,26.8333333 L36.2268994,26.8333333 L33.578371,30.6390463 L36.3605407,34.6000944 L34.1372348,34.6000944 L32.3270021,31.9926818 L30.4803217,34.6000944 L28.5,34.6000944 L31.2821697,30.6390463 Z M36.5913758,34.6000944 L39.7015743,26.8333333 L41.8884326,26.8333333 L44.9743326,34.6000944 L43.0183094,34.6000944 L42.3622519,32.9025024 L39.1305613,32.9025024 L38.4745038,34.6000944 L36.5913758,34.6000944 Z M39.6165298,31.5599622 L41.8641342,31.5599622 L40.7342574,28.608593 L39.6165298,31.5599622 Z M47.0032512,26.8333333 L47.0032512,31.3380548 C47.0032512,31.9667957 47.1368912,32.4401936 47.4041752,32.7582625 C47.6714592,33.0763315 48.0926277,33.2353636 48.6676934,33.2353636 C49.242759,33.2353636 49.6659523,33.0763315 49.9372861,32.7582625 C50.2086199,32.4401936 50.3442847,31.9667957 50.3442847,31.3380548 L50.3442847,26.8333333 L52.1666667,26.8333333 L52.1666667,31.2492918 C52.1666667,32.3588346 51.8690139,33.205773 51.2736995,33.7901322 C50.6783851,34.3744914 49.8097251,34.6666667 48.6676934,34.6666667 C47.5256616,34.6666667 46.6590265,34.3744914 46.0677618,33.7901322 C45.4764972,33.205773 45.1808693,32.3588346 45.1808693,31.2492918 L45.1808693,26.8333333 L47.0032512,26.8333333 Z" id="XAU" fill="#FFFFFF" fill-rule="nonzero" transform="translate(40.333333, 30.750000) rotate(270.000000) translate(-40.333333, -30.750000) "></path>
                    </g>
                </g>
            </g>
        </g>
    </g>
</svg>