<?xml version="1.0" encoding="UTF-8"?>
<svg width="60px" height="60px" viewBox="0 0 60 60" version="1.1" xmlns="http://www.w3.org/2000/svg" xmlns:xlink="http://www.w3.org/1999/xlink">
    <!-- Generator: Sketch 52.6 (67491) - http://www.bohemiancoding.com/sketch -->
    <title>sXAU_blue</title>
    <desc>Created with Sketch.</desc>
    <defs>
        <path d="M3.015352,7.988194 L0.321308,3.7494 L2.570464,3.7494 L4.275868,6.46816 L6.018346,3.7494 L8.045058,3.7494 L5.351014,7.988194 L8.180996,12.4 L5.919482,12.4 L4.07814,9.49587 L2.199724,12.4 L0.18537,12.4 L3.015352,7.988194 Z M8.415798,12.4 L11.579446,3.7494 L13.803886,3.7494 L16.942818,12.4 L14.95318,12.4 L14.285848,10.509226 L10.99862,10.509226 L10.331288,12.4 L8.415798,12.4 Z M11.49294,9.013908 L13.77917,9.013908 L12.629876,5.72668 L11.49294,9.013908 Z M19.006604,3.7494 L19.006604,8.766748 C19.006604,9.46703817 19.1425406,9.99430756 19.414418,10.348572 C19.6862954,10.7028364 20.1147017,10.879966 20.69965,10.879966 C21.2845983,10.879966 21.7150643,10.7028364 21.991061,10.348572 C22.2670577,9.99430756 22.405054,9.46703817 22.405054,8.766748 L22.405054,3.7494 L24.258754,3.7494 L24.258754,8.667884 C24.258754,9.90369018 23.955986,10.8470081 23.350441,11.497866 C22.744896,12.1487239 21.8613078,12.474148 20.69965,12.474148 C19.5379922,12.474148 18.6564637,12.1487239 18.055038,11.497866 C17.4536123,10.8470081 17.152904,9.90369018 17.152904,8.667884 L17.152904,3.7494 L19.006604,3.7494 Z" id="path-1"></path>
    </defs>
    <g id="Page-1" stroke="none" stroke-width="1" fill="none" fill-rule="evenodd">
        <g id="Home-Page-Variant" transform="translate(-800.000000, -894.000000)">
            <g id="sXAU_blue" transform="translate(800.000000, 894.000000)">
                <ellipse id="Oval-Copy" fill="#1E1A31" cx="29.9967935" cy="30.0576909" rx="29.8196463" ry="29.9221194"></ellipse>
                <g id="Group-19" transform="translate(13.400000, 16.400000)">
                    <g id="Group-Copy" transform="translate(0.127844, 1.012731)" fill="#FFFFFF">
                        <g id="Group-6" transform="translate(0.000000, 0.117741)">
                            <g id="Group-5" transform="translate(0.143243, 0.090982)">
                                <g id="Group-4" transform="translate(0.012572, 0.077954)">
                                    <path d="M10.9228035,11.0460593 C11.7307481,11.0460593 12.3857166,11.7032786 12.3857166,12.5139996 C12.3857166,13.3247207 11.7307481,13.9819399 10.9228035,13.9819399 L7.12551533,13.9819399 C3.4477395,13.9819399 0.466313125,10.9902681 0.466313125,7.29985387 C0.466313125,3.60943964 3.4477395,0.617767816 7.12551533,0.617767816 L16.9185217,0.617767816 C17.7264663,0.617767816 18.3814348,1.27498708 18.3814348,2.08570814 C18.3814348,2.89642919 17.7264663,3.55364845 16.9185217,3.55364845 L7.12551533,3.55364845 C5.06362872,3.55364845 3.39213937,5.23088175 3.39213937,7.29985387 C3.39213937,9.36882599 5.06362872,11.0460593 7.12551533,11.0460593 L10.9228035,11.0460593 Z" id="Rectangle-2"></path>
                                    <path d="M10.9228039,21.4743508 C11.7307485,21.4743508 12.385717,22.1315701 12.385717,22.9422911 C12.385717,23.7530121 11.7307485,24.4102314 10.9228039,24.4102314 L7.12551569,24.4102314 C3.44773986,24.4102314 0.466313485,21.4185596 0.466313485,17.7281453 C0.466313485,14.0377311 3.44773986,11.0460593 7.12551569,11.0460593 L16.918522,11.0460593 C17.7264667,11.0460593 18.3814351,11.7032786 18.3814351,12.5139996 C18.3814351,13.3247207 17.7264667,13.9819399 16.918522,13.9819399 L7.12551569,13.9819399 C5.06362908,13.9819399 3.39213973,15.6591733 3.39213973,17.7281453 C3.39213973,19.7971174 5.06362908,21.4743508 7.12551569,21.4743508 L10.9228039,21.4743508 Z" id="Rectangle-2-Copy" transform="translate(9.423874, 17.728145) rotate(-180.000000) translate(-9.423874, -17.728145) "></path>
                                    <polygon id="Path-3" fill-opacity="0.5" points="3.08518679 23.8180708 0.706906845 22.1080303 15.6653649 1.16096749 18.0436448 2.87100798"></polygon>
                                </g>
                            </g>
                        </g>
                    </g>
                    <g id="XAU" transform="translate(25.515526, 13.397003) rotate(-90.000000) translate(-25.515526, -13.397003) translate(12.315526, 5.997003)">
                        <g>
                            <use fill="#000000" xlink:href="#path-1"></use>
                            <use fill="#FFFFFF" xlink:href="#path-1"></use>
                        </g>
                    </g>
                </g>
            </g>
        </g>
    </g>
</svg>