<?xml version="1.0" encoding="UTF-8"?>
<svg width="300px" height="300px" viewBox="0 0 300 300" version="1.1" xmlns="http://www.w3.org/2000/svg" xmlns:xlink="http://www.w3.org/1999/xlink">
    <!-- Generator: Sketch 59 (86127) - https://sketch.com -->
    <title>sXTZ</title>
    <desc>Created with Sketch.</desc>
    <g id="Page-1" stroke="none" stroke-width="1" fill="none" fill-rule="evenodd">
        <g id="sXTZ">
            <circle id="Oval" fill="#52B167" cx="150" cy="150" r="150"></circle>
            <path d="M147.4495,149.8745 L132.8435,126.8935 L145.0375,126.8935 L154.2835,141.6335 L163.7305,126.8935 L174.7185,126.8935 L160.1125,149.8745 L175.4555,173.7935 L163.1945,173.7935 L153.2115,158.0485 L143.0275,173.7935 L132.1065,173.7935 L147.4495,149.8745 Z M177.9345,126.8935 L215.0525,126.8935 L215.0525,135.5365 L201.5185,135.5365 L201.5185,173.7935 L191.4685,173.7935 L191.4685,135.5365 L177.9345,135.5365 L177.9345,126.8935 Z M218.9385,126.8935 L256.1905,126.8935 L256.1905,133.5265 L232.1375,165.2175 L256.7935,165.2175 L256.7935,173.7935 L218.3355,173.7935 L218.3355,167.1605 L242.3885,135.4695 L218.9385,135.4695 L218.9385,126.8935 Z" id="XTZ" fill="#FFFFFF" fill-rule="nonzero" transform="translate(194.450000, 150.343500) rotate(270.000000) translate(-194.450000, -150.343500) "></path>
            <g id="Group-4" transform="translate(71.418297, 89.497039)">
                <polygon id="Path-3" fill="#8E8C98" points="13.425934 116.090354 1.53453423 107.540151 76.3268247 2.80483745 88.2182242 11.3550399"></polygon>
                <path d="M52.6140176,52.2302966 C56.6537407,52.2302966 59.9285831,55.5163928 59.9285831,59.5699981 C59.9285831,63.6236035 56.6537407,66.9096997 52.6140176,66.9096997 L33.6275766,66.9096997 C15.2386975,66.9096997 0.331565623,51.9513407 0.331565623,33.4992694 C0.331565623,15.0471982 15.2386975,0.0888390806 33.6275766,0.0888390806 L82.5926083,0.0888390806 C86.6323315,0.0888390806 89.9071739,3.37493541 89.9071739,7.42854068 C89.9071739,11.482146 86.6323315,14.7682423 82.5926083,14.7682423 L33.6275766,14.7682423 C23.3181436,14.7682423 14.9606969,23.1544088 14.9606969,33.4992694 C14.9606969,43.84413 23.3181436,52.2302966 33.6275766,52.2302966 L52.6140176,52.2302966 Z" id="Rectangle-2" fill="#FFFFFF"></path>
                <path d="M52.6140194,104.371754 C56.6537425,104.371754 59.928585,107.65785 59.928585,111.711455 C59.928585,115.765061 56.6537425,119.051157 52.6140194,119.051157 L33.6275784,119.051157 C15.2386993,119.051157 0.331567426,104.092798 0.331567426,85.6407267 C0.331567426,67.1886556 15.2386993,52.2302966 33.6275784,52.2302966 L82.5926101,52.2302966 C86.6323333,52.2302966 89.9071757,55.5163928 89.9071757,59.5699981 C89.9071757,63.6236035 86.6323333,66.9096997 82.5926101,66.9096997 L33.6275784,66.9096997 C23.3181454,66.9096997 14.9606987,75.2958663 14.9606987,85.6407267 C14.9606987,95.9855871 23.3181454,104.371754 33.6275784,104.371754 L52.6140194,104.371754 Z" id="Rectangle-2-Copy" fill="#FFFFFF" transform="translate(45.119372, 85.640727) rotate(-180.000000) translate(-45.119372, -85.640727) "></path>
            </g>
        </g>
    </g>
</svg>