<?xml version="1.0" encoding="UTF-8"?>
<svg width="255px" height="30px" viewBox="0 0 255 30" version="1.1" xmlns="http://www.w3.org/2000/svg" xmlns:xlink="http://www.w3.org/1999/xlink">
    <!-- Generator: Sketch 59 (86127) - https://sketch.com -->
    <title>snx-logo-light</title>
    <desc>Created with Sketch.</desc>
    <g id="Page-1" stroke="none" stroke-width="1" fill="none" fill-rule="evenodd">
        <g id="Mintr-v2-prod" transform="translate(-40.000000, -38.000000)" fill="#FFFFFF" fill-rule="nonzero">
            <g id="snx-logo-light" transform="translate(40.000000, 38.000000)">
                <path d="M52.4250133,0.508474576 L42.3209228,17.7184385 L42.3209228,29.4915254 L38.578667,29.4915254 L38.578667,17.7184385 L28.4745763,0.508474576 L32.6326382,0.508474576 L40.5745366,14.366379 L48.4748544,0.508474576 L52.4250133,0.508474576 Z M78.9174778,29.4915254 L74.3851902,29.4915254 L62.5762942,6.19062418 L62.5762942,29.4915254 L58.9587804,29.4915254 L58.9587804,0.508474576 L63.5742293,0.508474576 L75.3415446,23.9320121 L75.3415446,0.508474576 L78.9174778,0.508474576 L78.9174778,29.4915254 Z M110.687367,3.90141284 L100.708018,3.90141284 L100.708018,29.4915254 L96.9241819,29.4915254 L96.9241819,3.90141284 L86.9032525,3.90141284 L86.9032525,0.508474576 L110.687367,0.508474576 L110.687367,3.90141284 Z M139.199003,29.4915254 L135.415166,29.4915254 L135.415166,16.1241663 L122.8994,16.1241663 L122.8994,29.4915254 L119.157144,29.4915254 L119.157144,0.508474576 L122.8994,0.508474576 L122.8994,12.6085917 L135.415166,12.6085917 L135.415166,0.508474576 L139.199003,0.508474576 L139.199003,29.4915254 Z M168.380097,29.4915254 L148.878787,29.4915254 L148.878787,0.508474576 L168.380097,0.508474576 L168.380097,3.86053405 L152.579461,3.86053405 L152.579461,12.6903493 L164.513099,12.6903493 L164.513099,16.1241663 L152.579461,16.1241663 L152.579461,26.139466 L168.380097,26.139466 L168.380097,29.4915254 Z M199.423982,3.90141284 L189.444634,3.90141284 L189.444634,29.4915254 L185.660797,29.4915254 L185.660797,3.90141284 L175.639868,3.90141284 L175.639868,0.508474576 L199.423982,0.508474576 L199.423982,3.90141284 Z M223.482323,29.4915254 L206.683753,29.4915254 L206.683753,26.4664961 L213.21191,26.4664961 L213.21191,3.49262509 L206.683753,3.49262509 L206.683753,0.508474576 L223.482323,0.508474576 L223.482323,3.49262509 L216.954166,3.49262509 L216.954166,26.4664961 L223.482323,26.4664961 L223.482323,29.4915254 Z M254.745763,29.4915254 L250.546121,29.4915254 L243.144769,17.7184385 L235.826581,29.4915254 L231.710099,29.4915254 L241.065739,14.8569243 L231.710099,0.508474576 L235.951323,0.508474576 L243.311091,11.831895 L250.587702,0.508474576 L254.704182,0.508474576 L245.390124,14.8569243 L254.745763,29.4915254 Z" id="Y-N-T-H-E-T-I-X"></path>
                <g id="logo-/-glyph-/-snx-/-light">
                    <polygon id="Stroke" opacity="0.5" points="3.511141 29.1601033 0.472419589 27.0054194 19.5847981 0.611716302 22.6235195 2.76640028"></polygon>
                    <path d="M13.3559224,13.149069 L14.3761626,13.149069 C19.0734511,13.149069 22.8813559,16.9212785 22.8813559,21.5745345 C22.8813559,26.2277906 19.0734511,30 14.3761626,30 L1.86844612,30 C0.836531918,30 0,29.17131 0,28.149069 C0,27.1268279 0.836531918,26.2981379 1.86844612,26.2981379 L14.3761626,26.2981379 C17.0096228,26.2981379 19.1444641,24.1833087 19.1444641,21.5745345 C19.1444641,18.9657604 17.0096228,16.8509311 14.3761626,16.8509311 L9.5262317,16.8509311 L9.52543355,16.850931 L8.50519337,16.850931 C3.80790479,16.850931 0,13.0787215 0,8.42546545 C0,3.77220939 3.80790479,0 8.50519337,0 L21.0129098,0 C22.044824,0 22.8813559,0.828690051 22.8813559,1.85093102 C22.8813559,2.87317202 22.044824,3.70186207 21.0129098,3.70186207 L8.50519337,3.70186207 C5.87173313,3.70186207 3.73689179,5.81669134 3.73689179,8.42546545 C3.73689179,11.0342396 5.87173313,13.1490689 8.50519337,13.1490689 L13.3551242,13.1490689 C13.3553903,13.1490689 13.3556563,13.1490689 13.3559224,13.149069 L13.3559224,13.149069 Z" id="Path"></path>
                </g>
            </g>
        </g>
    </g>
</svg>