<svg width="1057" height="130" xmlns="http://www.w3.org/2000/svg"><g fill="#FFF" fill-rule="evenodd"><path d="M217.968 5l-41.752 71.255V125h-15.464V76.255L119 5h17.182L169 62.377 201.645 5h16.323zm109.473 120h-18.729l-48.797-96.474V125h-14.948V5h19.072l48.625 96.982V5h14.777v120zM458.72 19.048h-41.237V125h-15.636V19.048H360.44V5h98.28v14.048zM576.536 125H560.9V69.654h-51.718V125H493.72V5h15.464v50.099h51.718V5h15.636v120zm120.582 0h-80.584V5h80.584v13.879h-65.292v36.558h49.313v14.217h-49.313v41.467h65.292V125zm128.28-105.952h-41.237V125h-15.636V19.048h-41.408V5h98.28v14.048zM924.813 125h-69.415v-12.525h26.975v-95.12h-26.975V5h69.415v12.355h-26.976v95.12h26.976V125zM1054 125h-17.354l-30.584-48.745L975.822 125h-17.01l38.66-60.592L958.811 5h17.525l30.413 46.883L1036.818 5h17.01l-38.487 59.408L1054 125z"/><path opacity=".5" d="M16.424 123.528l-12.483-8.906L82.457 5.528l12.484 8.906z"/><path d="M56.868 57.35h4.191C80.357 57.35 96 72.94 96 92.174 96 111.408 80.357 127 61.06 127H9.675C5.436 127 2 123.575 2 119.35c0-4.226 3.437-7.651 7.676-7.651h51.383c10.82 0 19.59-8.741 19.59-19.524 0-10.783-8.77-19.524-19.59-19.524H36.941C17.643 72.65 2 57.059 2 37.825 2 18.592 17.643 3 36.94 3h51.384C92.564 3 96 6.425 96 10.65c0 4.226-3.437 7.651-7.676 7.651H36.941c-10.82 0-19.59 8.741-19.59 19.524 0 10.783 8.77 19.524 19.59 19.524h19.927z"/></g></svg>