<?xml version="1.0" encoding="UTF-8"?>
<svg width="1057px" height="130px" viewBox="0 0 1057 130" version="1.1" xmlns="http://www.w3.org/2000/svg" xmlns:xlink="http://www.w3.org/1999/xlink">
    <!-- Generator: Sketch 56.3 (81716) - https://sketch.com -->
    <title>logo / full / synthetix / light</title>
    <desc>Created with Sketch.</desc>
    <g id="logo-/-full-/-synthetix-/-light" stroke="none" stroke-width="1" fill="none" fill-rule="evenodd">
        <path d="M217.968229,5 L176.216008,76.2552891 L176.216008,125 L160.752222,125 L160.752222,76.2552891 L119,5 L136.181984,5 L168.999574,62.3765867 L201.645344,5 L217.968229,5 Z M327.440649,125 L308.712286,125 L259.915451,28.5260931 L259.915451,125 L244.967125,125 L244.967125,5 L264.039128,5 L312.664143,101.981664 L312.664143,5 L327.440649,5 L327.440649,125 Z M458.720494,19.0479549 L417.483732,19.0479549 L417.483732,125 L401.848127,125 L401.848127,19.0479549 L360.439545,19.0479549 L360.439545,5 L458.720494,5 L458.720494,19.0479549 Z M576.536554,125 L560.900948,125 L560.900948,69.6544429 L509.183176,69.6544429 L509.183176,125 L493.71939,125 L493.71939,5 L509.183176,5 L509.183176,55.0987306 L560.900948,55.0987306 L560.900948,5 L576.536554,5 L576.536554,125 Z M697.118955,125 L616.53545,125 L616.53545,5 L697.118955,5 L697.118955,18.8787024 L631.827415,18.8787024 L631.827415,55.4372355 L681.13971,55.4372355 L681.13971,69.6544429 L631.827415,69.6544429 L631.827415,111.121298 L697.118955,111.121298 L697.118955,125 Z M825.3988,19.0479549 L784.162038,19.0479549 L784.162038,125 L768.526433,125 L768.526433,19.0479549 L727.117851,19.0479549 L727.117851,5 L825.3988,5 L825.3988,19.0479549 Z M924.812912,125 L855.397696,125 L855.397696,112.475317 L882.373411,112.475317 L882.373411,17.3554302 L855.397696,17.3554302 L855.397696,5 L924.812912,5 L924.812912,17.3554302 L897.837197,17.3554302 L897.837197,112.475317 L924.812912,112.475317 L924.812912,125 Z M1054,125 L1036.6462,125 L1006.06226,76.2552891 L975.821972,125 L958.811808,125 L997.471272,64.4076164 L958.811808,5 L976.337432,5 L1006.74954,51.8829337 L1036.81802,5 L1053.82818,5 L1015.34054,64.4076164 L1054,125 Z" id="Y-N-T-H-E-T-I-X" fill="#FFFFFF"></path>
        <g id="logo-/-glyph-/-snx-/-light" fill="#FFFFFF">
            <polygon id="Stroke" opacity="0.5" points="16.4242874 123.528427 3.94076966 114.6224 82.457252 5.52842738 94.9407697 14.4344545"></polygon>
            <path d="M56.8681078,57.3494854 L61.0594056,57.3494854 C80.356563,57.3494854 96,72.9412843 96,92.1747428 C96,111.408201 80.356563,127 61.0594056,127 L9.67585345,127 C5.43659705,127 2,123.574748 2,119.349485 C2,115.124222 5.43659705,111.69897 9.67585345,111.69897 L61.0594056,111.69897 C71.8780504,111.69897 80.6482949,102.957676 80.6482949,92.1747428 C80.6482949,81.3918097 71.8780504,72.6505153 61.0594056,72.6505153 L41.1351711,72.6505153 L41.1318922,72.6505146 L36.9405944,72.6505146 C17.643437,72.6505146 2,57.0587157 2,37.8252572 C2,18.5917988 17.643437,3 36.9405944,3 L88.3241465,3 C92.563403,3 96,6.42525221 96,10.6505149 C96,14.8757777 92.563403,18.3010299 88.3241465,18.3010299 L36.9405944,18.3010299 C26.1219496,18.3010299 17.3517051,27.0423242 17.3517051,37.8252572 C17.3517051,48.6081903 26.1219496,57.3494847 36.9405944,57.3494847 L56.8648289,57.3494847 C56.8659219,57.3494847 56.8670149,57.3494849 56.8681078,57.3494854 L56.8681078,57.3494854 Z" id="Path"></path>
        </g>
    </g>
</svg>