<?xml version="1.0" standalone="no"?>
<!DOCTYPE svg PUBLIC "-//W3C//DTD SVG 1.1//EN" "http://www.w3.org/Graphics/SVG/1.1/DTD/svg11.dtd" >
<svg xmlns="http://www.w3.org/2000/svg" xmlns:xlink="http://www.w3.org/1999/xlink" version="1.1">
<metadata></metadata>
<defs>
<font id="aeonikregular" horiz-adv-x="835" >
<font-face units-per-em="2048" ascent="1638" descent="-410" />
<missing-glyph horiz-adv-x="546" />
<glyph horiz-adv-x="0" />
<glyph horiz-adv-x="682" />
<glyph unicode=" "  horiz-adv-x="546" />
<glyph unicode="&#x09;" horiz-adv-x="546" />
<glyph unicode="&#xa0;" horiz-adv-x="546" />
<glyph unicode="!" horiz-adv-x="522" d="M142 104q0 53 33.5 85t85.5 32t85.5 -32t33.5 -85q0 -52 -33.5 -84t-85.5 -32t-85.5 32t-33.5 84zM169 1463h184l-25 -1026h-131z" />
<glyph unicode="&#x22;" horiz-adv-x="768" d="M102 1354q-4 50 21 83.5t76 33.5q54 0 77 -33.5t19 -83.5l-36 -399h-119zM474 1354q-4 50 21 83.5t76 33.5q54 0 77 -33.5t19 -83.5l-36 -399h-119z" />
<glyph unicode="#" horiz-adv-x="1208" d="M78 351v144h221l40 276h-216v144h236l55 351h142l-54 -351h285l55 351h142l-55 -351h201v-144h-221l-40 -276h215v-144h-236l-54 -351h-142l54 351h-286l-55 -351h-142l54 351h-199zM441 495h286l40 276h-287z" />
<glyph unicode="$" horiz-adv-x="1267" d="M88 478h179q10 -148 119 -236.5t276 -88.5q150 0 243.5 66t93.5 182q0 86 -51 135.5t-132 74t-218 47.5q-220 38 -349.5 123.5t-129.5 277.5q0 175 123 288.5t324 127.5v213h159v-219q188 -28 304.5 -145.5t128.5 -293.5h-181q-16 128 -114 205t-245 77 q-146 0 -231.5 -64t-85.5 -178q0 -84 50 -131.5t129.5 -71t217.5 -46.5q219 -38 350.5 -124.5t131.5 -278.5q0 -115 -57.5 -209t-160.5 -151.5t-237 -67.5v-213h-159v215q-217 25 -343.5 156t-134.5 330z" />
<glyph unicode="%" horiz-adv-x="1879" d="M113 1120q0 102 48 182.5t131.5 126.5t187.5 46t188 -46t132 -126.5t48 -182.5q0 -100 -48 -180.5t-132 -125.5t-188 -45t-187.5 45t-131.5 125t-48 181zM267 1120q0 -92 61 -152.5t152 -60.5q92 0 153 60.5t61 152.5q0 94 -61 155.5t-153 61.5q-91 0 -152 -61.5 t-61 -155.5zM359 0l997 1463h169l-997 -1463h-169zM1032 339q0 102 48 182.5t131.5 126.5t187.5 46t188 -46t132.5 -126.5t48.5 -182.5q0 -100 -48.5 -180.5t-132 -125.5t-188.5 -45q-104 0 -187.5 45t-131.5 125t-48 181zM1186 339q0 -92 61 -153t152 -61q92 0 153 61 t61 153q0 93 -61 155t-153 62q-91 0 -152 -62t-61 -155z" />
<glyph unicode="&#x26;" horiz-adv-x="1549" d="M108 367q0 126 78.5 235.5t250.5 182.5q-82 98 -113 171.5t-31 167.5q0 98 54 178.5t148.5 126.5t208.5 46q98 0 176.5 -42t123.5 -115t45 -162q0 -130 -83 -232.5t-272 -177.5l292 -326l246 369h182l-324 -486l82 -92q30 -34 60 -46t74 -12h137v-153h-158 q-73 0 -128.5 18t-93.5 62l-83 93q-179 -185 -412 -185q-201 0 -330.5 100t-129.5 279zM285 385q0 -116 79 -180.5t208 -64.5q172 1 307 147l-340 379q-15 14 -15 15q-133 -64 -186 -131.5t-53 -164.5zM470 1130q0 -75 28 -133.5t104 -145.5q273 108 273 300q0 79 -51 129.5 t-132 50.5q-100 0 -161 -56.5t-61 -144.5z" />
<glyph unicode="'" horiz-adv-x="396" d="M102 1354q-4 50 21 83.5t76 33.5q54 0 77 -33.5t19 -83.5l-36 -399h-119z" />
<glyph unicode="(" horiz-adv-x="626" d="M115 522q0 263 78 481.5t254 459.5h179q-187 -259 -264 -467.5t-77 -473.5q0 -263 77 -471t264 -469h-179q-176 237 -254 458t-78 482z" />
<glyph unicode=")" horiz-adv-x="626" d="M10 -418q188 261 265.5 469t77.5 471q0 265 -77 473.5t-266 467.5h180q175 -241 253.5 -459.5t78.5 -481.5q0 -261 -78.5 -481.5t-253.5 -458.5h-180z" />
<glyph unicode="*" horiz-adv-x="887" d="M98 1190l48 118l243 -111l-4 268h119l-7 -271l245 114l47 -120l-255 -94l174 -205l-92 -82l-175 219l-174 -219l-90 82l176 207z" />
<glyph unicode="+" horiz-adv-x="1094" d="M121 526v144h347v366h156v-366h349v-144h-349v-367h-156v367h-347z" />
<glyph unicode="," horiz-adv-x="429" d="M56 98q0 52 37 86.5t101 34.5q75 0 120 -61.5t45 -151.5q0 -134 -78 -208.5t-217 -79.5v98q92 2 134.5 52t42.5 116q0 18 -3 26q-26 -25 -71 -24q-48 0 -79.5 29t-31.5 83z" />
<glyph unicode="-" horiz-adv-x="911" d="M108 522v142h696v-142h-696z" />
<glyph unicode="." horiz-adv-x="429" d="M96 104q0 53 33.5 85t85.5 32t86 -32t34 -85q0 -52 -34 -84t-86 -32t-85.5 32t-33.5 84z" />
<glyph unicode="/" horiz-adv-x="674" d="M-50 -418l612 1881h163l-612 -1881h-163z" />
<glyph unicode="0" horiz-adv-x="1305" d="M98 698v67q0 207 70 367.5t196.5 251.5t289.5 91q161 0 287.5 -91t196.5 -252t70 -367v-67q0 -216 -70 -376.5t-195.5 -247t-288.5 -86.5q-165 0 -290.5 86.5t-195.5 247t-70 376.5zM275 704q0 -172 47 -297t133 -192t199 -67t197.5 67t131.5 192t47 297v54 q0 171 -47 296.5t-131.5 192.5t-197.5 67t-199 -67t-133 -192.5t-47 -296.5v-54z" />
<glyph unicode="1" horiz-adv-x="676" d="M10 1005v157h239q50 0 76 34t26 91v176h171v-1463h-175v1032q-30 -27 -100 -27h-237z" />
<glyph unicode="2" horiz-adv-x="1180" d="M82 0v148l568 494q123 106 186 192.5t63 195.5q0 136 -87 213t-234 77q-141 0 -227 -88t-86 -238v-27h-175v38q0 137 60.5 244t172.5 167.5t255 60.5q234 0 367 -119.5t133 -319.5q0 -104 -40.5 -189.5t-105.5 -156t-169 -160.5l-440 -371h765v-161h-1006z" />
<glyph unicode="3" horiz-adv-x="1252" d="M92 451h179q2 -142 101.5 -224.5t260.5 -82.5q148 0 245 75.5t97 198.5q0 118 -94 184t-265 66h-125v153h115q161 0 246.5 71t85.5 186q0 111 -86.5 175.5t-223.5 64.5q-141 0 -230 -72t-91 -195h-175q2 199 135.5 311.5t354.5 112.5q150 0 263.5 -48t173 -135.5 t59.5 -203.5q0 -133 -73.5 -221t-198.5 -113q129 -25 219.5 -115.5t90.5 -233.5q0 -123 -66 -218t-187.5 -147t-280.5 -52q-243 0 -386.5 124t-143.5 339z" />
<glyph unicode="4" horiz-adv-x="1273" d="M48 357v157l733 949h209v-945h236v-161h-236v-357h-175v357h-767zM236 518h579v748z" />
<glyph unicode="5" horiz-adv-x="1228" d="M104 455h175q13 -132 108 -220.5t246 -88.5q88 0 164 38.5t122 116t46 186.5q0 149 -90 243.5t-240 94.5q-97 0 -193.5 -41.5t-138.5 -157.5l-169 4l48 833h869v-161h-708l-34 -481q64 84 161.5 121.5t197.5 37.5q139 0 247.5 -62.5t168.5 -173.5t60 -255 q0 -157 -68.5 -270t-185.5 -171t-257 -58q-159 0 -275.5 61.5t-180.5 167.5t-73 236z" />
<glyph unicode="6" horiz-adv-x="1260" d="M98 725q0 230 66 399t191 260t299 91q199 0 327 -109.5t155 -293.5h-175q-26 115 -106 181.5t-209 66.5q-188 0 -291.5 -154.5t-103.5 -407.5l2 -71q6 28 12 40q50 111 156.5 175.5t250.5 64.5t255 -60.5t174 -171.5t63 -257q0 -139 -65 -251t-180 -175.5t-263 -63.5 t-259.5 63.5t-183.5 178.5q-54 95 -84.5 222.5t-30.5 272.5zM319 474q0 -148 92.5 -240t242.5 -92t242 94t92 242t-88.5 241.5t-239.5 93.5q-153 0 -247 -94.5t-94 -244.5z" />
<glyph unicode="7" horiz-adv-x="1112" d="M28 1302v161h1031v-124l-718 -1339h-191l717 1302h-839z" />
<glyph unicode="8" horiz-adv-x="1252" d="M98 393q0 144 89.5 239t234.5 126q-123 25 -202.5 114t-79.5 216q0 116 59.5 203.5t170 136.5t256.5 49t257 -49t171 -136.5t60 -203.5q0 -125 -79.5 -216t-203.5 -114q144 -29 234.5 -124t90.5 -241q0 -120 -64 -211.5t-184.5 -142.5t-281.5 -51t-281 51t-183.5 142.5 t-63.5 211.5zM273 399q0 -117 100.5 -192t252.5 -75q155 0 254.5 75t99.5 192q0 77 -46.5 140t-126.5 98t-181 35q-100 0 -180.5 -35t-126.5 -98t-46 -140zM313 1088q0 -108 88 -176t225 -68q138 0 226 68t88 176q0 106 -87.5 174.5t-226.5 68.5q-137 0 -225 -68.5 t-88 -174.5z" />
<glyph unicode="9" horiz-adv-x="1260" d="M98 984q0 140 64.5 251.5t180 175.5t263.5 64t259.5 -64t183.5 -179q54 -96 84.5 -223.5t30.5 -271.5q0 -229 -66 -398.5t-191.5 -260t-298.5 -90.5q-199 0 -327 109.5t-156 293.5h176q25 -116 105.5 -182.5t209.5 -66.5q188 0 291.5 154.5t103.5 407.5l-2 71 q-6 -27 -12 -40q-50 -111 -157 -175.5t-250 -64.5q-144 0 -255.5 60.5t-174 171t-62.5 257.5zM273 984q0 -149 89 -241.5t240 -92.5q153 0 246.5 93.5t93.5 244.5q0 148 -92 240t-242 92t-242.5 -94t-92.5 -242z" />
<glyph unicode=":" horiz-adv-x="429" d="M96 104q0 53 33.5 85t85.5 32t86 -32t34 -85q0 -52 -34 -84t-86 -32t-85.5 32t-33.5 84zM96 887q0 53 33.5 85t85.5 32t86 -32t34 -85q0 -52 -34 -84t-86 -32t-85.5 32t-33.5 84z" />
<glyph unicode=";" horiz-adv-x="429" d="M56 98q0 52 37 86.5t101 34.5q75 0 120 -61.5t45 -151.5q0 -134 -78 -208.5t-217 -79.5v98q92 2 134.5 52t42.5 116q0 18 -3 26q-26 -25 -71 -24q-48 0 -79.5 29t-31.5 83zM90 887q0 53 33.5 85t85.5 32t86 -32t34 -85q0 -52 -34 -84t-86 -32t-85.5 32t-33.5 84z" />
<glyph unicode="&#x3c;" horiz-adv-x="1094" d="M150 512v163l795 355v-167l-602 -269l602 -270v-167z" />
<glyph unicode="=" horiz-adv-x="1094" d="M142 286v144h811v-144h-811zM142 721v146h811v-146h-811z" />
<glyph unicode="&#x3e;" horiz-adv-x="1094" d="M150 157v167l602 270l-602 269v167l795 -355v-163z" />
<glyph unicode="?" horiz-adv-x="1071" d="M71 997q0 133 57.5 242.5t165 172.5t252.5 63q133 0 235 -48t157.5 -131.5t55.5 -190.5q0 -128 -54.5 -209t-150.5 -148q-104 -74 -147.5 -123t-43.5 -126v-54h-161v73q0 78 29 134t71.5 92.5t122.5 90.5q77 54 116 113t39 140q0 100 -74.5 164t-192.5 64 q-136 0 -218.5 -88t-82.5 -231h-176zM401 104q0 53 33.5 85t85.5 32t86 -32t34 -85q0 -52 -34 -84t-86 -32t-85.5 32t-33.5 84z" />
<glyph unicode="@" horiz-adv-x="2051" d="M106 514q0 255 128.5 462.5t350.5 326t485 118.5q255 0 454.5 -97.5t310 -270t110.5 -391.5q0 -163 -59.5 -290t-163 -198.5t-231.5 -71.5q-92 0 -148 45t-65 112l-4 32q-36 -84 -127.5 -135.5t-201.5 -51.5q-105 0 -190 50.5t-133 141.5t-48 208q0 129 60 240 t160.5 175.5t214.5 64.5q117 0 192 -43.5t101 -115.5l31 140h134l-63 -596l-3 -26q0 -60 32 -91t88 -31q69 0 128 59t96 161t37 225q0 182 -89 321t-252 215t-373 76q-217 0 -400.5 -101t-291 -275.5t-107.5 -385.5q0 -215 94.5 -373.5t269 -243.5t407.5 -85 q136 0 258.5 33.5t220.5 96.5l-4 -153q-82 -54 -212.5 -86.5t-276.5 -32.5q-267 0 -476 104.5t-326.5 294.5t-117.5 443zM733 510q0 -125 68 -202.5t176 -77.5q84 0 153.5 46.5t108.5 132.5t39 197q0 117 -66 185t-172 68q-85 0 -155 -47t-111 -127.5t-41 -174.5z" />
<glyph unicode="A" horiz-adv-x="1373" d="M23 0l557 1463h216l556 -1463h-194l-155 395h-638l-154 -395h-188zM420 560h529l-266 704z" />
<glyph unicode="B" horiz-adv-x="1300" d="M142 0v1463h518q231 0 357.5 -100.5t126.5 -278.5q0 -129 -66.5 -214t-194.5 -118q322 -60 323 -349q0 -188 -137.5 -295.5t-393.5 -107.5h-533zM323 165h352q168 0 256 65t88 179q0 123 -90 189t-254 66h-352v-499zM323 827h345q140 0 217.5 63t77.5 173 q0 111 -76 172.5t-219 61.5h-345v-470z" />
<glyph unicode="C" horiz-adv-x="1483" d="M88 731q0 220 85.5 389t244 262t367.5 93q243 0 407 -131.5t205 -359.5h-181q-40 153 -155.5 238.5t-283.5 85.5q-150 0 -265 -73t-177 -203.5t-62 -300.5q0 -167 62 -298.5t176.5 -204.5t265.5 -73q170 0 282.5 84t154.5 239h181q-41 -227 -203 -358.5t-407 -131.5 q-209 0 -367.5 92.5t-244 261t-85.5 389.5z" />
<glyph unicode="D" horiz-adv-x="1397" d="M142 0v1463h432q226 0 392 -91.5t255 -256t89 -384.5q0 -217 -89 -383t-255 -257t-392 -91h-432zM323 167h251q261 0 405.5 152.5t144.5 411.5q0 261 -143.5 412.5t-406.5 151.5h-251v-1128z" />
<glyph unicode="E" horiz-adv-x="1162" d="M142 0v1463h932v-168h-751v-468h626v-167h-626v-493h778v-167h-959z" />
<glyph unicode="F" horiz-adv-x="1102" d="M142 0v1463h909v-168h-728v-488h602v-167h-602v-640h-181z" />
<glyph unicode="G" horiz-adv-x="1559" d="M88 731q0 220 85.5 389t244 262t367.5 93q243 0 407 -131.5t205 -357.5h-179q-42 153 -156.5 237.5t-280.5 84.5q-150 0 -266 -73t-179 -204.5t-63 -299.5q0 -167 63 -298.5t177.5 -204.5t263.5 -73q134 0 239.5 51t165 146t59.5 222v50h-439v168h617v-792h-151l-18 232 q-61 -98 -182 -171t-293 -73q-201 0 -357.5 93.5t-243 262t-86.5 387.5z" />
<glyph unicode="H" horiz-adv-x="1403" d="M142 0v1465h181v-638h757v638h182v-1465h-182v660h-757v-660h-181z" />
<glyph unicode="I" horiz-adv-x="465" d="M142 0v1463h181v-1463h-181z" />
<glyph unicode="J" horiz-adv-x="730" d="M54 0v171h167q98 0 142 45t44 143v1104h183v-1118q0 -170 -88 -257.5t-257 -87.5h-191z" />
<glyph unicode="K" horiz-adv-x="1332" d="M142 0v1463h181v-830l738 830h221l-534 -617l576 -846h-217l-493 708l-291 -328v-380h-181z" />
<glyph unicode="L" horiz-adv-x="1041" d="M142 0v1463h181v-1296h667v-167h-848z" />
<glyph unicode="M" horiz-adv-x="1768" d="M142 0v1463h230l517 -1214l512 1214h226v-1463h-178v1153l-484 -1153h-161l-485 1153v-1153h-177z" />
<glyph unicode="N" horiz-adv-x="1413" d="M142 0v1463h167l785 -1128v1128h178v-1463h-167l-786 1128v-1128h-177z" />
<glyph unicode="O" horiz-adv-x="1570" d="M88 731q0 214 88.5 382.5t247 265t361.5 96.5t362 -96.5t247.5 -265t88.5 -382.5q0 -213 -88.5 -382t-247.5 -265t-362 -96t-361.5 96t-247 265t-88.5 382zM273 731q0 -167 65 -297.5t181 -204.5t266 -74t266.5 74t181 204.5t64.5 297.5q0 168 -64.5 298.5t-180.5 204.5 t-267 74q-150 0 -266 -74t-181 -204.5t-65 -298.5z" />
<glyph unicode="P" horiz-adv-x="1240" d="M142 0v1463h562q144 0 255 -55.5t170 -157t59 -237.5t-60 -238.5t-170 -157.5t-254 -55h-381v-562h-181zM323 729h364q144 0 230 77t86 207q0 129 -85 205.5t-228 76.5h-367v-566z" />
<glyph unicode="Q" horiz-adv-x="1578" d="M88 731q0 214 88.5 382.5t247 265t361.5 96.5t362 -96.5t247.5 -265t88.5 -382.5q0 -143 -42 -268.5t-119 -224.5q30 -40 61 -55.5t78 -15.5h112v-167h-134q-81 0 -131 23t-90 77l-14 21q-176 -133 -419 -133q-203 0 -361.5 96t-247 265t-88.5 382zM273 731 q0 -167 65 -297.5t181 -204.5t266 -74q182 0 314 108l-40 54q-30 40 -59 57t-69 17h-122v167h152q71 0 117 -24t86 -79l46 -62q87 141 87 338q0 168 -64.5 298.5t-180.5 204.5t-267 74q-150 0 -266 -74t-181 -204.5t-65 -298.5z" />
<glyph unicode="R" horiz-adv-x="1276" d="M142 0v1463h560q144 0 255 -55.5t171 -157t60 -237.5q0 -153 -84.5 -264t-226.5 -151l329 -598h-205l-303 562h-375v-562h-181zM323 729h364q144 0 230 77t86 207q0 127 -86 204.5t-227 77.5h-367v-566z" />
<glyph unicode="S" horiz-adv-x="1267" d="M88 478h179q10 -148 119 -236.5t276 -88.5q150 0 243.5 66t93.5 182q0 86 -51 135.5t-132 74t-218 47.5q-220 38 -349.5 123.5t-129.5 277.5q0 123 63 218.5t176.5 147.5t259.5 52q155 0 274 -56.5t188 -157.5t78 -233h-181q-16 128 -114 205t-245 77q-146 0 -231.5 -64 t-85.5 -178q0 -84 50 -131.5t129.5 -71t217.5 -46.5q219 -38 350.5 -124.5t131.5 -278.5q0 -125 -65.5 -223.5t-183.5 -152.5t-271 -54q-171 0 -298.5 61.5t-197.5 173.5t-76 255z" />
<glyph unicode="T" horiz-adv-x="1234" d="M52 1295v168h1130v-168h-474v-1295h-182v1295h-474z" />
<glyph unicode="U" horiz-adv-x="1382" d="M134 624v839h181v-849q0 -459 373 -459h2q378 0 378 459v849h182v-839q0 -313 -143.5 -474.5t-416.5 -161.5q-274 0 -415 161.5t-141 474.5z" />
<glyph unicode="V" horiz-adv-x="1309" d="M18 1463h193l447 -1248l445 1248h188l-526 -1463h-219z" />
<glyph unicode="W" horiz-adv-x="2071" d="M58 1463h191l343 -1229l359 1229h183l347 -1229l345 1229h187l-428 -1463h-217l-334 1160l-332 -1160h-218z" />
<glyph unicode="X" horiz-adv-x="1336" d="M60 0l498 748l-466 715h213l370 -568l374 568h196l-466 -715l497 -748h-215l-401 602l-403 -602h-197z" />
<glyph unicode="Y" horiz-adv-x="1321" d="M18 1465h214l430 -728l437 728h205l-552 -924v-541h-182v541z" />
<glyph unicode="Z" horiz-adv-x="1269" d="M62 0v132l874 1163h-846v168h1090v-132l-873 -1164h901v-167h-1146z" />
<glyph unicode="[" horiz-adv-x="626" d="M132 -418v1883h460v-153h-299v-1579h299v-151h-460z" />
<glyph unicode="\" horiz-adv-x="674" d="M-50 1463h163l612 -1881h-163z" />
<glyph unicode="]" horiz-adv-x="626" d="M36 -267h299v1579h-299v151h459v-1883h-459v153z" />
<glyph unicode="^" horiz-adv-x="1073" d="M90 811l378 652h138l380 -652h-159l-295 501l-291 -501h-151z" />
<glyph unicode="_" horiz-adv-x="1050" d="M123 -12h804v-172h-804v172z" />
<glyph unicode="`" d="M108 1463h201l173 -285h-135z" />
<glyph unicode="a" horiz-adv-x="1127" d="M78 299q0 161 109.5 246t318.5 85h313v74q0 104 -70 162.5t-195 58.5q-111 0 -183 -49t-89 -130h-171q19 157 138.5 244.5t312.5 87.5q205 0 316.5 -99.5t111.5 -284.5v-460q0 -77 69 -77h2h53v-157h-95q-102 0 -146 42t-46 123q-123 -177 -357 -177q-177 0 -284.5 83.5 t-107.5 227.5zM251 309q0 -79 62.5 -127t168.5 -48q158 0 247.5 82.5t89.5 218.5v52h-330q-238 0 -238 -178z" />
<glyph unicode="b" horiz-adv-x="1244" d="M117 0v1463h172v-568q133 183 365 183q148 0 264 -64.5t182 -188t66 -293.5q0 -161 -66 -284t-183 -191.5t-263 -68.5q-130 0 -221.5 47t-143.5 128l-24 -163h-148zM287 537q0 -116 43.5 -206t123.5 -140.5t184 -50.5q158 0 255 109.5t97 282.5q0 174 -97 283.5 t-255 109.5q-102 0 -183 -49t-124.5 -137.5t-43.5 -201.5z" />
<glyph unicode="c" horiz-adv-x="1148" d="M80 534q0 162 65.5 285t184.5 191t274 68q188 0 310 -100.5t154 -275.5h-173q-26 102 -105.5 162.5t-191.5 60.5q-153 0 -248 -108.5t-95 -282.5q0 -175 95 -284.5t248 -109.5q117 0 196 60.5t103 166.5h171q-34 -177 -157.5 -278t-312.5 -101q-155 0 -272 68.5 t-181.5 193t-64.5 284.5z" />
<glyph unicode="d" horiz-adv-x="1244" d="M80 532q0 162 65.5 285t182.5 192t264 69q129 0 221 -47t144 -128v560h171v-1463h-148l-23 171q-134 -183 -365 -183q-148 0 -264.5 64.5t-182 187.5t-65.5 292zM255 532q0 -173 97 -282.5t256 -109.5q102 0 182.5 49t124.5 138t44 201q0 116 -44 206.5t-124.5 140.5 t-182.5 50q-159 0 -256 -109.5t-97 -283.5z" />
<glyph unicode="e" horiz-adv-x="1168" d="M80 532q0 164 63.5 287t178.5 191t262 68q146 0 259.5 -60.5t178 -175.5t68.5 -270q0 -23 -4 -73h-827v-15q4 -157 96 -250.5t241 -93.5q115 0 195 57.5t108 159.5h173q-32 -163 -157.5 -266t-306.5 -103q-159 0 -278 67.5t-184.5 192t-65.5 284.5zM269 642h644 q-12 135 -101 210t-226 75q-121 0 -212.5 -79t-104.5 -206z" />
<glyph unicode="f" horiz-adv-x="657" d="M-4 909v156h192v119q0 142 65.5 210.5t212.5 68.5h196v-157h-186q-62 0 -89.5 -27t-27.5 -91v-123h301v-156h-301v-909h-171v909h-192z" />
<glyph unicode="g" horiz-adv-x="1244" d="M80 532q0 162 65.5 285t182.5 192t264 69q129 0 221 -51.5t144 -145.5l23 184h148v-1013q0 -482 -528 -482q-207 0 -337.5 93.5t-151.5 267.5h176q20 -100 105.5 -154t219.5 -54q345 0 345 335v126q-114 -196 -362 -196h-3q-148 0 -264.5 64.5t-182 187.5t-65.5 292z M255 532q0 -173 97 -282.5t256 -109.5q102 0 182.5 49t124.5 138t44 201q0 116 -44 206.5t-124.5 140.5t-182.5 50q-159 0 -256 -109.5t-97 -283.5z" />
<glyph unicode="h" horiz-adv-x="1173" d="M117 0v1463h172v-574q52 84 138.5 136.5t212.5 52.5q193 0 312.5 -117t119.5 -367v-594h-171v582q0 166 -75.5 252.5t-215.5 86.5q-148 0 -234.5 -104.5t-86.5 -284.5v-532h-172z" />
<glyph unicode="i" horiz-adv-x="404" d="M92 1366q0 48 31.5 79.5t79.5 31.5t79 -31.5t31 -79.5t-31 -79t-79 -31t-79.5 31t-31.5 79zM117 0v1065h172v-1065h-172z" />
<glyph unicode="j" horiz-adv-x="417" d="M-121 -261h133q62 0 90 27t28 90v1209h171v-1205q0 -142 -66 -210t-212 -68h-144v157zM104 1366q0 48 31.5 79.5t79.5 31.5t79 -31.5t31 -79.5t-31 -79t-79 -31t-79.5 31t-31.5 79z" />
<glyph unicode="k" horiz-adv-x="1079" d="M117 0v1463h172v-970l540 572h205l-410 -437l439 -628h-206l-355 506l-213 -224v-282h-172z" />
<glyph unicode="l" horiz-adv-x="404" d="M117 0v1463h172v-1463h-172z" />
<glyph unicode="m" horiz-adv-x="1810" d="M117 0v1065h148l24 -146q115 159 311 159q115 0 203 -51.5t133 -151.5q116 203 370 203q179 0 290.5 -112.5t111.5 -351.5v-614h-171v604q0 155 -65.5 236t-186.5 81q-133 0 -209.5 -94t-76.5 -257v-570h-172v604q0 155 -66.5 236t-190.5 81q-129 0 -205 -99t-76 -260 v-562h-172z" />
<glyph unicode="n" horiz-adv-x="1170" d="M117 0v1065h148l24 -144q121 157 351 157q193 0 311.5 -117t118.5 -367v-594h-171v582q0 166 -74.5 252.5t-214.5 86.5q-150 0 -235.5 -104.5t-85.5 -284.5v-532h-172z" />
<glyph unicode="o" horiz-adv-x="1214" d="M80 532q0 162 66.5 285t186.5 192t275 69t275 -69t186.5 -192t66.5 -285q0 -161 -66.5 -284t-186.5 -191.5t-275 -68.5t-275 68.5t-186.5 192t-66.5 283.5zM255 532q0 -113 44 -202t124.5 -139.5t184.5 -50.5t184.5 50.5t124.5 140t44 201.5q0 114 -44 203.5 t-124.5 139.5t-184.5 50t-184.5 -50t-124.5 -139.5t-44 -203.5z" />
<glyph unicode="p" horiz-adv-x="1244" d="M117 -418v1483h148l24 -170q133 183 365 183q148 0 264 -64.5t182 -188t66 -293.5q0 -161 -66 -284t-183 -191.5t-263 -68.5q-130 0 -221.5 47t-143.5 128v-581h-172zM287 537q0 -116 43.5 -206t123.5 -140.5t184 -50.5q158 0 255 109.5t97 282.5q0 174 -97 283.5 t-255 109.5q-102 0 -183 -49t-124.5 -137.5t-43.5 -201.5z" />
<glyph unicode="q" horiz-adv-x="1244" d="M80 532q0 162 65.5 285t182.5 192t264 69q129 0 221 -47t144 -128l23 162h148v-1483h-171v589q-134 -183 -365 -183q-148 0 -264.5 64.5t-182 187.5t-65.5 292zM255 532q0 -173 97 -282.5t256 -109.5q102 0 182.5 49t124.5 138t44 201q0 116 -44 206.5t-124.5 140.5 t-182.5 50q-159 0 -256 -109.5t-97 -283.5z" />
<glyph unicode="r" horiz-adv-x="697" d="M117 0v1065h148l24 -160q46 73 118.5 116.5t202.5 43.5h48v-166h-86q-153 0 -218 -102.5t-65 -253.5v-543h-172z" />
<glyph unicode="s" horiz-adv-x="1041" d="M80 351h171q4 -96 84.5 -156.5t207.5 -60.5q113 0 183 44.5t70 118.5q0 62 -33.5 95.5t-87 46t-151.5 25.5q-137 16 -225 43t-142.5 87t-54.5 164q0 94 53.5 167.5t145.5 114t207 40.5q188 0 305.5 -87.5t131.5 -250.5h-172q-10 83 -81.5 137t-177.5 54 q-108 0 -175.5 -44.5t-67.5 -117.5q0 -54 32 -83.5t80.5 -39.5t148.5 -24q140 -16 231.5 -45t146.5 -94t55 -176q0 -96 -56 -169t-152.5 -112.5t-213.5 -39.5q-209 0 -335 96t-128 267z" />
<glyph unicode="t" horiz-adv-x="666" d="M-4 909v156h192v299h171v-299h269v-156h-269v-630q0 -67 26 -94.5t91 -27.5h186v-157h-196q-150 0 -214 67t-64 210v632h-192z" />
<glyph unicode="u" horiz-adv-x="1150" d="M102 472v593h171v-583q0 -165 72.5 -251.5t206.5 -86.5q146 0 228.5 104.5t82.5 283.5v533h171v-1065h-149l-22 142q-120 -154 -338 -154h-3q-189 0 -304.5 116.5t-115.5 367.5z" />
<glyph unicode="v" horiz-adv-x="1025" d="M10 1065h184l322 -871l319 871h180l-399 -1065h-207z" />
<glyph unicode="w" horiz-adv-x="1633" d="M16 1065h181l265 -866l280 866h159l265 -866l277 866h174l-355 -1065h-188l-257 792l-267 -792l-189 -2z" />
<glyph unicode="x" horiz-adv-x="1054" d="M16 0l406 548l-378 517h205l283 -395l289 395h190l-381 -517l408 -548h-205l-313 428l-313 -428h-191z" />
<glyph unicode="y" horiz-adv-x="1029" d="M10 1065h182l328 -868l317 868h182l-491 -1245q-37 -95 -66.5 -143.5t-73 -71.5t-117.5 -23h-204v157h152q50 0 75 10t41 34.5t39 80.5l54 128z" />
<glyph unicode="z" horiz-adv-x="993" d="M46 0v130l646 779h-619v156h848v-129l-648 -779h676v-157h-903z" />
<glyph unicode="{" horiz-adv-x="686" d="M58 447v151q104 4 158.5 48t54.5 125q0 32 -10 84l-40 204q-8 42 -8 92q0 145 101.5 228.5t279.5 83.5h58v-149l-66 -2q-102 0 -156 -51t-54 -145q0 -21 9 -76l41 -196q11 -52 11 -86q0 -90 -52 -151t-149 -85q96 -16 149.5 -76.5t53.5 -150.5q0 -44 -13 -94l-41 -197 q-9 -54 -9 -77q0 -92 54 -143t156 -51l66 -2v-149h-58q-178 0 -279.5 82.5t-101.5 229.5q0 50 8 92l40 204q8 40 8 83q0 82 -54 126t-157 48z" />
<glyph unicode="|" horiz-adv-x="454" d="M142 -418v1881h171v-1881h-171z" />
<glyph unicode="}" horiz-adv-x="686" d="M36 -269l64 2q102 0 156.5 51t54.5 143q0 23 -8 77l-42 197q-12 50 -12 94q0 90 53 150.5t149 76.5q-96 24 -148 85t-52 151q0 34 10 86l42 196q8 54 8 76q0 94 -54 145t-157 51l-64 2v149h58q177 0 278.5 -83t101.5 -229q0 -50 -8 -92l-40 -204q-10 -52 -10 -84 q0 -81 54 -125t158 -48v-151q-102 -4 -156 -48t-54 -126q0 -43 8 -83l40 -204q8 -42 8 -92q0 -146 -101.5 -229t-278.5 -83h-58v149z" />
<glyph unicode="~" horiz-adv-x="1094" d="M128 426q0 142 64.5 220.5t176.5 78.5q72 0 121 -23t102 -65q39 -29 64 -42.5t56 -13.5q62 0 87.5 38.5t25.5 107.5h144q0 -142 -65 -219.5t-179 -77.5q-73 0 -121 23t-102 63q-38 30 -63 43.5t-57 13.5q-60 0 -85.5 -38.5t-25.5 -108.5h-143z" />
<glyph unicode="&#xa1;" horiz-adv-x="522" d="M180 1358q0 52 33.5 84.5t85.5 32.5t85.5 -32.5t33.5 -84.5t-33.5 -84.5t-85.5 -32.5t-85.5 32.5t-33.5 84.5zM207 0l27 1026h131l26 -1026h-184z" />
<glyph unicode="&#xa2;" horiz-adv-x="1148" d="M80 727q0 226 122.5 371t329.5 168v197h160v-199q153 -21 249.5 -119t126.5 -250h-173q-26 102 -105.5 162.5t-191.5 60.5q-153 0 -248 -108.5t-95 -282.5q0 -175 95 -284.5t248 -109.5q116 0 195.5 60t103.5 167h171q-30 -155 -127 -252t-249 -122v-186h-160v184 q-135 12 -238.5 84.5t-158.5 190t-55 268.5z" />
<glyph unicode="&#xa3;" horiz-adv-x="1282" d="M88 612v146h173l-14 63q-16 69 -25 112.5t-9 94.5q0 130 64 231t172.5 158.5t240.5 57.5q223 0 353.5 -120.5t150.5 -339.5h-173q-20 142 -102 219.5t-223 77.5q-136 0 -222.5 -83t-86.5 -214q0 -38 9 -83t20 -88q8 -28 21 -86h444v-146h-428q6 -34 7 -71q0 -96 -40 -193 t-113 -177l883 -4v-167h-1075v159q165 182 164 399q0 36 -2 54h-189z" />
<glyph unicode="&#xa5;" horiz-adv-x="1367" d="M23 1465h218l429 -725l435 725h203l-485 -819h335v-134h-398v-167h398v-134h-398v-211h-182v211h-396v134h396v167h-396v134h334z" />
<glyph unicode="&#xa8;" d="M119 1326q0 49 31.5 79t76.5 30q48 0 80 -30t32 -79q0 -46 -32 -76t-80 -30q-45 0 -76.5 30t-31.5 76zM497 1326q0 47 32.5 78t78.5 31q48 0 78 -30t30 -79q0 -46 -31 -76t-77 -30t-78.5 30t-32.5 76z" />
<glyph unicode="&#xa9;" horiz-adv-x="1700" d="M92 731q0 207 99.5 377t273 268.5t383.5 98.5q211 0 385.5 -98.5t275 -268.5t100.5 -377t-100.5 -377t-275 -268t-385.5 -98q-212 0 -384.5 98t-272 268t-99.5 377zM219 731q0 -175 83 -319.5t226.5 -227t319.5 -82.5q177 0 321.5 82.5t228 227t83.5 319.5 q0 176 -83.5 319.5t-227.5 226.5t-322 83q-176 0 -319.5 -83t-226.5 -226.5t-83 -319.5zM441 735q0 118 49 216t142 156.5t219 58.5q146 0 249.5 -83.5t127.5 -227.5h-142q-20 81 -83 132t-150 51q-128 0 -199.5 -86.5t-71.5 -216.5q0 -129 72.5 -218t198.5 -89 q89 0 150.5 49t84.5 135h140q-24 -144 -125.5 -226.5t-251.5 -82.5q-126 0 -219 58.5t-142 157.5t-49 216z" />
<glyph unicode="&#xaa;" horiz-adv-x="891" d="M113 506v122h683v-122h-683zM121 982q0 100 74 154t212 54h177v44q0 62 -41 98t-119 36q-62 0 -103.5 -31t-47.5 -81h-133q8 102 86.5 160.5t201.5 58.5q136 0 210 -64t74 -181v-267q0 -54 57 -54h27v-105h-69q-121 0 -121 115v14q-28 -62 -88 -100.5t-149 -38.5 q-113 0 -180.5 48.5t-67.5 139.5zM259 990q0 -45 33 -70t93 -25q89 0 144 57t55 136v13h-181q-67 0 -105.5 -30.5t-38.5 -80.5z" />
<glyph unicode="&#xab;" horiz-adv-x="1214" d="M111 532l332 533h173l-327 -533l327 -532h-173zM600 530l332 533h173l-327 -533l327 -532h-173z" />
<glyph unicode="&#xac;" horiz-adv-x="1094" d="M121 575v146h766v-491h-152v345h-614z" />
<glyph unicode="&#xad;" horiz-adv-x="911" d="M108 522v142h696v-142h-696z" />
<glyph unicode="&#xae;" horiz-adv-x="1062" d="M96 1044q0 122 57.5 221t156.5 155.5t220 56.5q124 0 223.5 -56.5t156.5 -154.5t57 -219q0 -122 -57 -219t-156.5 -153.5t-223.5 -56.5q-121 0 -220 56.5t-156.5 153.5t-57.5 216zM190 1044q0 -97 43.5 -176t122.5 -122.5t174 -43.5q98 0 176.5 45t122.5 123.5t44 176.5 q0 97 -44 177t-122.5 124.5t-176.5 44.5q-95 0 -174 -44.5t-122.5 -124.5t-43.5 -180zM367 809v476h183q83 0 133 -41.5t50 -109.5q0 -52 -29 -87.5t-82 -49.5l113 -188h-102l-101 168h-72v-168h-93zM460 1055h86q39 0 65.5 20.5t26.5 58.5q0 36 -26 55t-66 19h-86v-153z " />
<glyph unicode="&#xaf;" d="M132 1268v129h574v-129h-574z" />
<glyph unicode="&#xb1;" horiz-adv-x="1094" d="M121 0v144h852v-144h-852zM121 564v144h347v366h156v-366h349v-144h-349v-367h-156v367h-347z" />
<glyph unicode="&#xb4;" d="M355 1180l177 283h201l-244 -283h-134z" />
<glyph unicode="&#xb5;" horiz-adv-x="1178" d="M117 -418v1481h172v-564q0 -172 75 -263.5t212 -91.5q142 0 227.5 109.5t85.5 296.5v513h172v-1063h-154l-18 165q-111 -177 -329 -177q-88 0 -166.5 34t-102.5 80v-520h-174z" />
<glyph unicode="&#xb8;" d="M273 -315h162q87 0 87 68q0 28 -24 44.5t-61 16.5h-104l54 224h89l-33 -126h23q84 0 136 -42.5t52 -112.5q0 -79 -53 -127t-139 -48h-189v103z" />
<glyph unicode="&#xba;" horiz-adv-x="875" d="M106 506v122h663v-122h-663zM108 1134q0 153 91.5 248t237.5 95q145 0 236.5 -95t91.5 -248q0 -152 -91.5 -246t-236.5 -94q-146 0 -237.5 94t-91.5 246zM247 1134q0 -100 52 -161.5t138 -61.5q85 0 138 61.5t53 161.5t-53 163t-138 63q-86 0 -138 -63t-52 -163z" />
<glyph unicode="&#xbb;" horiz-adv-x="1214" d="M111 -2l328 532l-328 533h174l331 -533l-331 -532h-174zM600 0l327 532l-327 533h173l332 -533l-332 -532h-173z" />
<glyph unicode="&#xbf;" horiz-adv-x="1064" d="M71 357q0 127 54.5 209t149.5 148q104 73 148.5 122t44.5 127v54h160v-72q0 -78 -29 -134.5t-72 -93t-122 -91.5q-78 -54 -116 -112.5t-38 -139.5q0 -100 74 -164t193 -64q136 0 218.5 87.5t82.5 232.5h175q0 -133 -57.5 -243t-165 -172.5t-251.5 -62.5q-133 0 -235.5 48 t-158 131.5t-55.5 189.5zM426 1358q0 52 33.5 84.5t86.5 32.5q52 0 85 -32.5t33 -84.5t-33 -84.5t-85 -32.5t-86 32.5t-34 84.5z" />
<glyph unicode="&#xc0;" horiz-adv-x="1373" d="M23 0l557 1463h216l556 -1463h-194l-155 395h-638l-154 -395h-188zM378 1872h201l173 -285h-136zM420 560h529l-266 704z" />
<glyph unicode="&#xc2;" horiz-adv-x="1373" d="M23 0l557 1463h216l556 -1463h-194l-155 395h-638l-154 -395h-188zM342 1587l264 285h162l264 -285h-165l-180 171l-182 -171h-163zM420 560h529l-266 704z" />
<glyph unicode="&#xc6;" horiz-adv-x="2000" d="M2 0l885 1463h1024v-168h-749v-468h624v-167h-624v-493h777v-167h-959v369h-556l-232 -369h-190zM508 528h472v780z" />
<glyph unicode="&#xc7;" horiz-adv-x="1483" d="M88 731q0 220 85.5 389t244 262t367.5 93q243 0 407 -131.5t205 -359.5h-181q-40 153 -155.5 238.5t-283.5 85.5q-150 0 -265 -73t-177 -203.5t-62 -300.5q0 -167 62 -298.5t176.5 -204.5t265.5 -73q170 0 282.5 84t154.5 239h181q-39 -215 -186.5 -344.5t-369.5 -143.5 l-20 -78h23q83 0 135.5 -42.5t52.5 -112.5q0 -79 -53.5 -127t-139.5 -48h-187v103h161q88 0 88 68q0 28 -24 44.5t-62 16.5h-105l42 174q-201 8 -350 102t-230.5 260t-81.5 381z" />
<glyph unicode="&#xc8;" horiz-adv-x="1162" d="M142 0v1463h932v-168h-751v-468h626v-167h-626v-493h778v-167h-959zM284 1872h201l173 -285h-136z" />
<glyph unicode="&#xc9;" horiz-adv-x="1162" d="M142 0v1463h932v-168h-751v-468h626v-167h-626v-493h778v-167h-959zM531 1589l177 283h201l-245 -283h-133z" />
<glyph unicode="&#xca;" horiz-adv-x="1162" d="M142 0v1463h932v-168h-751v-468h626v-167h-626v-493h778v-167h-959zM248 1587l264 285h162l264 -285h-165l-180 171l-182 -171h-163z" />
<glyph unicode="&#xcb;" horiz-adv-x="1162" d="M142 0v1463h932v-168h-751v-468h626v-167h-626v-493h778v-167h-959zM295 1735q0 49 30 79t78 30t79.5 -30t31.5 -79q0 -46 -31.5 -76t-79.5 -30q-46 0 -77 30t-31 76zM672 1735q0 47 33 78t79 31q45 0 76.5 -30t31.5 -79q0 -46 -31.5 -76t-76.5 -30q-46 0 -79 30t-33 76z " />
<glyph unicode="&#xce;" horiz-adv-x="465" d="M-113 1587l264 285h162l264 -285h-165l-180 171l-182 -171h-163zM142 0v1463h181v-1463h-181z" />
<glyph unicode="&#xcf;" horiz-adv-x="465" d="M-66 1735q0 49 30 79t78 30t79.5 -30t31.5 -79q0 -46 -31.5 -76t-79.5 -30q-46 0 -77 30t-31 76zM142 0v1463h181v-1463h-181zM311 1735q0 47 33 78t79 31q45 0 76.5 -30t31.5 -79q0 -46 -31.5 -76t-76.5 -30q-46 0 -79 30t-33 76z" />
<glyph unicode="&#xd4;" horiz-adv-x="1570" d="M88 731q0 214 88.5 382.5t247 265t361.5 96.5t362 -96.5t247.5 -265t88.5 -382.5q0 -213 -88.5 -382t-247.5 -265t-362 -96t-361.5 96t-247 265t-88.5 382zM273 731q0 -167 65 -297.5t181 -204.5t266 -74t266.5 74t181 204.5t64.5 297.5q0 168 -64.5 298.5t-180.5 204.5 t-267 74q-150 0 -266 -74t-181 -204.5t-65 -298.5zM441 1587l264 285h162l264 -285h-165l-180 171l-182 -171h-163z" />
<glyph unicode="&#xd9;" horiz-adv-x="1382" d="M134 624v839h181v-849q0 -460 375 -459q378 0 378 459v849h182v-839q0 -313 -143.5 -474.5t-416.5 -161.5q-274 0 -415 161.5t-141 474.5zM382 1872h201l173 -285h-136z" />
<glyph unicode="&#xdb;" horiz-adv-x="1382" d="M134 624v839h181v-849q0 -460 375 -459q378 0 378 459v849h182v-839q0 -313 -143.5 -474.5t-416.5 -161.5q-274 0 -415 161.5t-141 474.5zM346 1587l264 285h162l264 -285h-165l-180 171l-182 -171h-163z" />
<glyph unicode="&#xdc;" horiz-adv-x="1382" d="M134 624v839h181v-849q0 -460 375 -459q378 0 378 459v849h182v-839q0 -313 -143.5 -474.5t-416.5 -161.5q-274 0 -415 161.5t-141 474.5zM393 1735q0 49 30 79t78 30t79.5 -30t31.5 -79q0 -46 -31.5 -76t-79.5 -30q-46 0 -77 30t-31 76zM770 1735q0 47 33 78t79 31 q45 0 76.5 -30t31.5 -79q0 -46 -31.5 -76t-76.5 -30q-46 0 -79 30t-33 76z" />
<glyph unicode="&#xe0;" horiz-adv-x="1127" d="M78 299q0 161 109.5 246t318.5 85h313v74q0 104 -70 162.5t-195 58.5q-111 0 -183 -49t-89 -130h-171q19 157 138.5 244.5t312.5 87.5q205 0 316.5 -99.5t111.5 -284.5v-460q0 -78 71 -77h53v-157h-95q-102 0 -146 42t-46 123q-123 -177 -357 -177q-177 0 -284.5 83.5 t-107.5 227.5zM244 1475h201l173 -285h-136zM251 309q0 -79 62.5 -127t168.5 -48q158 0 247.5 82.5t89.5 218.5v52h-330q-238 0 -238 -178z" />
<glyph unicode="&#xe2;" horiz-adv-x="1127" d="M78 299q0 161 109.5 246t318.5 85h313v74q0 104 -70 162.5t-195 58.5q-111 0 -183 -49t-89 -130h-171q19 157 138.5 244.5t312.5 87.5q205 0 316.5 -99.5t111.5 -284.5v-460q0 -78 71 -77h53v-157h-95q-102 0 -146 42t-46 123q-123 -177 -357 -177q-177 0 -284.5 83.5 t-107.5 227.5zM208 1190l264 285h162l264 -285h-165l-180 171l-182 -171h-163zM251 309q0 -79 62.5 -127t168.5 -48q158 0 247.5 82.5t89.5 218.5v52h-330q-238 0 -238 -178z" />
<glyph unicode="&#xe6;" horiz-adv-x="1885" d="M78 299q0 161 109.5 246t318.5 85h313v74q0 104 -70 162.5t-195 58.5q-111 0 -183 -49t-89 -130h-171q19 157 138.5 244.5t312.5 87.5q134 0 226.5 -48t138.5 -141q62 90 158.5 139.5t216.5 49.5q145 0 258 -60.5t177.5 -175.5t69.5 -270q0 -23 -5 -73h-827v-15 q4 -157 96.5 -250.5t240.5 -93.5q115 0 195 57.5t108 159.5h173q-32 -163 -156.5 -266t-307.5 -103q-140 0 -247.5 60t-171.5 171q-60 -106 -170.5 -168.5t-254.5 -62.5q-181 0 -291.5 83.5t-110.5 227.5zM251 309q0 -79 62.5 -127t168.5 -48q158 0 247.5 82.5t89.5 218.5 v52h-330q-238 0 -238 -178zM986 642h643q-12 135 -101 210t-224 75q-122 0 -213.5 -79t-104.5 -206z" />
<glyph unicode="&#xe7;" horiz-adv-x="1148" d="M80 534q0 162 65.5 285t184.5 191t274 68q188 0 310 -100.5t154 -275.5h-173q-26 102 -105.5 162.5t-191.5 60.5q-153 0 -248 -108.5t-95 -282.5q0 -175 95 -284.5t248 -109.5q116 0 195.5 60.5t103.5 166.5h171q-32 -165 -142.5 -265t-281.5 -112l-22 -78h24 q83 0 135 -42.5t52 -112.5q0 -79 -53 -127t-138 -48h-189v103h161q88 0 88 68q0 28 -24 44.5t-62 16.5h-104l42 176q-142 8 -249.5 79t-166 191t-58.5 274z" />
<glyph unicode="&#xe8;" horiz-adv-x="1168" d="M80 532q0 164 63.5 287t178.5 191t262 68q146 0 259.5 -60.5t178 -175.5t68.5 -270q0 -23 -4 -73h-827v-15q4 -157 96 -250.5t241 -93.5q115 0 195 57.5t108 159.5h173q-32 -163 -157.5 -266t-306.5 -103q-159 0 -278 67.5t-184.5 192t-65.5 284.5zM269 642h644 q-12 135 -101 210t-226 75q-121 0 -212.5 -79t-104.5 -206zM270 1475h201l173 -285h-136z" />
<glyph unicode="&#xe9;" horiz-adv-x="1168" d="M80 532q0 164 63.5 287t178.5 191t262 68q146 0 259.5 -60.5t178 -175.5t68.5 -270q0 -23 -4 -73h-827v-15q4 -157 96 -250.5t241 -93.5q115 0 195 57.5t108 159.5h173q-32 -163 -157.5 -266t-306.5 -103q-159 0 -278 67.5t-184.5 192t-65.5 284.5zM269 642h644 q-12 135 -101 210t-226 75q-121 0 -212.5 -79t-104.5 -206zM517 1192l177 283h201l-245 -283h-133z" />
<glyph unicode="&#xea;" horiz-adv-x="1168" d="M80 532q0 164 63.5 287t178.5 191t262 68q146 0 259.5 -60.5t178 -175.5t68.5 -270q0 -23 -4 -73h-827v-15q4 -157 96 -250.5t241 -93.5q115 0 195 57.5t108 159.5h173q-32 -163 -157.5 -266t-306.5 -103q-159 0 -278 67.5t-184.5 192t-65.5 284.5zM234 1190l264 285h162 l264 -285h-165l-180 171l-182 -171h-163zM269 642h644q-12 135 -101 210t-226 75q-121 0 -212.5 -79t-104.5 -206z" />
<glyph unicode="&#xeb;" horiz-adv-x="1168" d="M80 532q0 164 63.5 287t178.5 191t262 68q146 0 259.5 -60.5t178 -175.5t68.5 -270q0 -23 -4 -73h-827v-15q4 -157 96 -250.5t241 -93.5q115 0 195 57.5t108 159.5h173q-32 -163 -157.5 -266t-306.5 -103q-159 0 -278 67.5t-184.5 192t-65.5 284.5zM269 642h644 q-12 135 -101 210t-226 75q-121 0 -212.5 -79t-104.5 -206zM281 1338q0 49 30 79t78 30t79.5 -30t31.5 -79q0 -46 -31.5 -76t-79.5 -30q-46 0 -77 30t-31 76zM658 1338q0 47 33 78t79 31q45 0 76.5 -30t31.5 -79q0 -46 -31.5 -76t-76.5 -30q-46 0 -79 30t-33 76z" />
<glyph unicode="&#xee;" horiz-adv-x="404" d="M-141 1190l264 285h162l264 -285h-165l-180 171l-182 -171h-163zM117 0v1065h172v-1065h-172z" />
<glyph unicode="&#xef;" horiz-adv-x="404" d="M-94 1338q0 49 30 79t78 30t79.5 -30t31.5 -79q0 -46 -31.5 -76t-79.5 -30q-46 0 -77 30t-31 76zM117 0v1065h172v-1065h-172zM283 1338q0 47 33 78t79 31q45 0 76.5 -30t31.5 -79q0 -46 -31.5 -76t-76.5 -30q-46 0 -79 30t-33 76z" />
<glyph unicode="&#xf4;" horiz-adv-x="1214" d="M80 532q0 162 66.5 285t186.5 192t275 69t275 -69t186.5 -192t66.5 -285q0 -161 -66.5 -284t-186.5 -191.5t-275 -68.5t-275 68.5t-186.5 192t-66.5 283.5zM255 532q0 -113 44 -202t124.5 -139.5t184.5 -50.5t184.5 50.5t124.5 140t44 201.5q0 114 -44 203.5 t-124.5 139.5t-184.5 50t-184.5 -50t-124.5 -139.5t-44 -203.5zM263 1190l264 285h162l264 -285h-165l-180 171l-182 -171h-163z" />
<glyph unicode="&#xf7;" horiz-adv-x="1094" d="M121 526v145h852v-145h-852zM432 236q0 53 32.5 84t85.5 31q50 0 82 -31t32 -84q0 -52 -32 -83.5t-82 -31.5q-52 0 -85 31.5t-33 83.5zM432 988q0 52 32.5 84t85.5 32q50 0 82 -32t32 -84t-32 -83.5t-82 -31.5q-52 0 -85 31.5t-33 83.5z" />
<glyph unicode="&#xf9;" horiz-adv-x="1150" d="M102 472v593h171v-583q0 -165 72.5 -251.5t206.5 -86.5q146 0 228.5 104.5t82.5 283.5v533h171v-1065h-149l-22 142q-121 -155 -341 -154q-189 0 -304.5 116.5t-115.5 367.5zM259 1475h201l173 -285h-136z" />
<glyph unicode="&#xfb;" horiz-adv-x="1150" d="M102 472v593h171v-583q0 -165 72.5 -251.5t206.5 -86.5q146 0 228.5 104.5t82.5 283.5v533h171v-1065h-149l-22 142q-121 -155 -341 -154q-189 0 -304.5 116.5t-115.5 367.5zM223 1190l264 285h162l264 -285h-165l-180 171l-182 -171h-163z" />
<glyph unicode="&#xfc;" horiz-adv-x="1150" d="M102 472v593h171v-583q0 -165 72.5 -251.5t206.5 -86.5q146 0 228.5 104.5t82.5 283.5v533h171v-1065h-149l-22 142q-121 -155 -341 -154q-189 0 -304.5 116.5t-115.5 367.5zM270 1338q0 49 30 79t78 30t79.5 -30t31.5 -79q0 -46 -31.5 -76t-79.5 -30q-46 0 -77 30 t-31 76zM647 1338q0 47 33 78t79 31q45 0 76.5 -30t31.5 -79q0 -46 -31.5 -76t-76.5 -30q-46 0 -79 30t-33 76z" />
<glyph unicode="&#xff;" horiz-adv-x="1029" d="M10 1065h182l328 -868l317 868h182l-491 -1245q-37 -95 -66.5 -143.5t-73 -71.5t-117.5 -23h-204v157h152q50 0 75 10t41 34.5t39 80.5l54 128zM213 1338q0 49 30 79t78 30t79.5 -30t31.5 -79q0 -46 -31.5 -76t-79.5 -30q-46 0 -77 30t-31 76zM590 1338q0 47 33 78t79 31 q45 0 76.5 -30t31.5 -79q0 -46 -31.5 -76t-76.5 -30q-46 0 -79 30t-33 76z" />
<glyph unicode="&#x152;" horiz-adv-x="2352" d="M88 731q0 214 89.5 382.5t253 265t371.5 96.5q181 0 314.5 -75.5t214.5 -211.5v275h931v-168h-749v-468h624v-167h-624v-493h777v-167h-959v273q-81 -135 -214 -210t-315 -75q-209 0 -372 96t-252.5 265t-89.5 382zM273 731q0 -167 66 -297.5t187.5 -204.5t277.5 -74 q147 0 262.5 66t184.5 183.5t80 270.5v112q-10 153 -79.5 271t-185 184t-262.5 66q-157 0 -278 -74t-187 -204.5t-66 -298.5z" />
<glyph unicode="&#x153;" horiz-adv-x="2031" d="M80 537q0 159 66.5 282t186.5 191t275 68q142 0 254.5 -61.5t177.5 -174.5q63 113 168.5 174.5t238.5 61.5q146 0 259.5 -60.5t178 -175.5t68.5 -270q0 -23 -4 -73h-827v-15q4 -157 96 -250.5t241 -93.5q115 0 195 57.5t107 159.5h173q-32 -163 -157 -266t-306 -103 q-148 0 -261.5 61.5t-175.5 173.5q-67 -111 -177.5 -173t-248.5 -62q-155 0 -275 68.5t-186.5 194t-66.5 286.5zM255 537q0 -176 97 -286.5t256 -110.5q104 0 184.5 50.5t124.5 138t44 199.5q0 176 -97 286.5t-256 110.5q-104 0 -184.5 -50t-124.5 -137.5t-44 -200.5z M1132 642h644q-12 135 -101.5 210t-225.5 75q-120 0 -212.5 -79t-104.5 -206z" />
<glyph unicode="&#x178;" horiz-adv-x="1321" d="M18 1465h214l430 -728l437 728h205l-552 -924v-541h-182v541zM364 1735q0 49 30 79t78 30t79.5 -30t31.5 -79q0 -46 -31.5 -76t-79.5 -30q-46 0 -77 30t-31 76zM741 1735q0 47 33 78t79 31q45 0 76.5 -30t31.5 -79q0 -46 -31.5 -76t-76.5 -30q-46 0 -79 30t-33 76z" />
<glyph unicode="&#x192;" horiz-adv-x="1008" d="M44 -64h181q72 0 106 32t41 103l48 551h-243v157h255l38 435q24 249 286 249h209v-157h-182q-71 0 -105 -32.5t-40 -103.5l-34 -391h253v-157h-267l-51 -594q-24 -249 -288 -249h-207v157z" />
<glyph unicode="&#x2c6;" d="M73 1178l264 285h162l264 -285h-165l-180 171l-182 -171h-163z" />
<glyph unicode="&#x2c7;" d="M73 1463h165l180 -172l182 172h163l-264 -285h-162z" />
<glyph unicode="&#x2d8;" d="M130 1463h135q0 -70 42 -112.5t109 -42.5t110.5 42.5t43.5 112.5h136q-2 -130 -83.5 -208.5t-208.5 -78.5q-125 0 -203.5 77.5t-80.5 209.5z" />
<glyph unicode="&#x2d9;" d="M309 1362q0 46 30 75.5t79 29.5q48 0 78 -29.5t30 -75.5t-30 -76t-78 -30t-78.5 30t-30.5 76z" />
<glyph unicode="&#x2da;" d="M175 1385q0 96 70 164t173 68q102 0 172 -68t70 -164q0 -98 -70 -166t-172 -68t-172.5 68t-70.5 166zM287 1385q0 -58 37 -96.5t94 -38.5q56 0 94 38t38 97q0 58 -38 96t-94 38q-54 0 -92.5 -38t-38.5 -96z" />
<glyph unicode="&#x2db;" d="M56 -241q0 80 55.5 144.5t159.5 136.5l147 -40q-104 -56 -160.5 -107.5t-56.5 -107.5q0 -78 96 -78h133v-125h-163q-96 0 -153.5 48.5t-57.5 128.5z" />
<glyph unicode="&#x2dc;" d="M119 1236v26q0 83 49 137.5t131 54.5q52 0 84.5 -17.5t65.5 -49.5q25 -23 43 -34.5t40 -11.5q36 0 55 29t19 73h108v-24q0 -84 -49 -138.5t-128 -54.5q-53 0 -84 17t-66 50q-24 24 -41.5 35t-42.5 11q-36 0 -56 -29.5t-20 -73.5h-108z" />
<glyph unicode="&#x2dd;" horiz-adv-x="843" d="M150 1176l178 287h194l-240 -287h-132zM518 1176l178 287h193l-239 -287h-132z" />
<glyph unicode="&#x3c0;" horiz-adv-x="1271" d="M34 907v156h1204v-156h-170v-907h-171v907h-523v-907h-171v907h-169z" />
<glyph unicode="&#x2000;" horiz-adv-x="936" />
<glyph unicode="&#x2001;" horiz-adv-x="1872" />
<glyph unicode="&#x2002;" horiz-adv-x="936" />
<glyph unicode="&#x2003;" horiz-adv-x="1872" />
<glyph unicode="&#x2004;" horiz-adv-x="624" />
<glyph unicode="&#x2005;" horiz-adv-x="468" />
<glyph unicode="&#x2006;" horiz-adv-x="312" />
<glyph unicode="&#x2007;" horiz-adv-x="312" />
<glyph unicode="&#x2008;" horiz-adv-x="234" />
<glyph unicode="&#x2009;" horiz-adv-x="374" />
<glyph unicode="&#x200a;" horiz-adv-x="104" />
<glyph unicode="&#x2010;" horiz-adv-x="911" d="M108 522v142h696v-142h-696z" />
<glyph unicode="&#x2011;" horiz-adv-x="911" d="M108 522v142h696v-142h-696z" />
<glyph unicode="&#x2012;" horiz-adv-x="911" d="M108 522v142h696v-142h-696z" />
<glyph unicode="&#x2013;" horiz-adv-x="1230" d="M108 522v142h1014v-142h-1014z" />
<glyph unicode="&#x2014;" horiz-adv-x="1923" d="M108 524v142h1708v-142h-1708z" />
<glyph unicode="&#x2018;" horiz-adv-x="429" d="M71 1186q0 134 78 209.5t216 79.5v-98q-92 -2 -133.5 -52.5t-41.5 -114.5q0 -19 2 -28q25 26 71 26q50 0 80.5 -29.5t30.5 -84.5q0 -52 -36.5 -86.5t-101.5 -34.5q-75 0 -120 61.5t-45 151.5z" />
<glyph unicode="&#x2019;" horiz-adv-x="429" d="M56 1354q0 52 37 86.5t101 34.5q75 0 120 -61.5t45 -151.5q0 -134 -78 -209.5t-217 -79.5v99q92 2 134.5 52t42.5 114q0 19 -3 28q-26 -26 -71 -25q-50 0 -80.5 29t-30.5 84z" />
<glyph unicode="&#x201a;" horiz-adv-x="429" d="M56 98q0 52 37 86.5t101 34.5q75 0 120 -61.5t45 -151.5q0 -134 -78 -208.5t-217 -79.5v98q92 2 134.5 52t42.5 116q0 18 -3 26q-26 -25 -71 -24q-48 0 -79.5 29t-31.5 83z" />
<glyph unicode="&#x201c;" horiz-adv-x="791" d="M71 1186q0 134 78 209.5t216 79.5v-98q-92 -2 -133.5 -52.5t-41.5 -114.5q0 -19 2 -28q25 26 71 26q50 0 80.5 -29.5t30.5 -84.5q0 -52 -36.5 -86.5t-101.5 -34.5q-75 0 -120 61.5t-45 151.5zM432 1186q0 134 78 209.5t216 79.5v-98q-92 -2 -133.5 -52.5t-41.5 -114.5 q0 -19 2 -28q25 26 71 26q50 0 80.5 -29.5t30.5 -84.5q0 -52 -36.5 -86.5t-101.5 -34.5q-75 0 -120 61.5t-45 151.5z" />
<glyph unicode="&#x201d;" horiz-adv-x="791" d="M56 1354q0 52 37 86.5t101 34.5q75 0 120 -61.5t45 -151.5q0 -134 -78 -209.5t-217 -79.5v99q92 2 134.5 52t42.5 114q0 19 -3 28q-26 -26 -71 -25q-50 0 -80.5 29t-30.5 84zM417 1354q0 52 37 86.5t101 34.5q75 0 120 -61.5t45 -151.5q0 -134 -78 -209.5t-217 -79.5v99 q92 2 134.5 52t42.5 114q0 19 -3 28q-26 -26 -71 -25q-50 0 -80.5 29t-30.5 84z" />
<glyph unicode="&#x201e;" horiz-adv-x="791" d="M56 98q0 52 37 86.5t101 34.5q75 0 120 -61.5t45 -151.5q0 -134 -78 -208.5t-217 -79.5v98q92 2 134.5 52t42.5 116q0 18 -3 26q-26 -25 -71 -24q-48 0 -79.5 29t-31.5 83zM417 98q0 52 37 86.5t101 34.5q75 0 120 -61.5t45 -151.5q0 -134 -78 -208.5t-217 -79.5v98 q92 2 134.5 52t42.5 116q0 18 -3 26q-26 -25 -71 -24q-48 0 -79.5 29t-31.5 83z" />
<glyph unicode="&#x2022;" horiz-adv-x="861" d="M138 716q0 128 81.5 204.5t210.5 76.5q130 0 212.5 -76.5t82.5 -204.5q0 -127 -82.5 -203t-212.5 -76q-129 0 -210.5 76.5t-81.5 202.5z" />
<glyph unicode="&#x2026;" horiz-adv-x="1232" d="M96 104q0 53 33.5 85t85.5 32t86 -32t34 -85q0 -52 -34 -84t-86 -32t-85.5 32t-33.5 84zM497 104q0 53 33.5 85t85.5 32t86 -32t34 -85q0 -52 -34 -84t-86 -32t-85.5 32t-33.5 84zM898 104q0 53 33.5 85t85.5 32t86 -32t34 -85q0 -52 -34 -84t-86 -32t-85.5 32t-33.5 84z " />
<glyph unicode="&#x202f;" horiz-adv-x="374" />
<glyph unicode="&#x2030;" horiz-adv-x="2703" d="M113 1120q0 102 48 182.5t131.5 126.5t187.5 46t188 -46t132 -126.5t48 -182.5q0 -100 -48 -180.5t-132 -125.5t-188 -45t-187.5 45t-131.5 125t-48 181zM267 1120q0 -92 61 -152.5t152 -60.5q92 0 153 60.5t61 152.5q0 94 -61 155.5t-153 61.5q-91 0 -152 -61.5 t-61 -155.5zM359 0l997 1463h169l-997 -1463h-169zM1032 339q0 102 48 182.5t131.5 126.5t187.5 46t188 -46t132.5 -126.5t48.5 -182.5q0 -100 -48.5 -180.5t-132 -125.5t-188.5 -45q-104 0 -187.5 45t-131.5 125t-48 181zM1186 339q0 -92 61 -153t152 -61q92 0 153 61 t61 153q0 93 -61 155t-153 62q-91 0 -152 -62t-61 -155zM1855 339q0 102 48 182.5t132 126.5t188 46t187.5 -46t132 -126.5t48.5 -182.5q0 -100 -48.5 -180.5t-132 -125.5t-187.5 -45t-188 45t-132 125t-48 181zM2009 339q0 -92 61 -153t153 -61q91 0 152 61t61 153 q0 93 -61 155t-152 62q-92 0 -153 -62t-61 -155z" />
<glyph unicode="&#x2039;" horiz-adv-x="726" d="M111 532l332 533h173l-327 -533l327 -532h-173z" />
<glyph unicode="&#x203a;" horiz-adv-x="726" d="M111 0l328 532l-328 533h174l331 -533l-331 -532h-174z" />
<glyph unicode="&#x2044;" horiz-adv-x="387" d="M-339 0l929 1463h137l-928 -1463h-138z" />
<glyph unicode="&#x205f;" horiz-adv-x="468" />
<glyph unicode="&#x20ac;" horiz-adv-x="1378" d="M48 512v134h136q-2 25 -2 85q0 40 2 67h-136v133h144q31 255 180.5 399.5t381.5 144.5q229 0 372.5 -130.5t166.5 -352.5h-179q-21 146 -114 233t-240 87q-157 0 -259 -100t-123 -281h403l-21 -133h-395q-2 -26 -2 -65q0 -37 4 -87h358l-21 -134h-326q32 -171 133 -266.5 t252 -95.5q144 0 234.5 85.5t116.5 234.5h177q-25 -221 -166 -351.5t-369 -130.5q-226 0 -376 138.5t-188 385.5h-144z" />
<glyph unicode="&#x2122;" horiz-adv-x="1481" d="M82 1349v114h496v-114h-185v-448h-126v448h-185zM644 901v562h171l184 -410l181 410h172v-562h-118v423l-187 -423h-102l-185 423v-423h-116z" />
<glyph unicode="&#x2202;" horiz-adv-x="1234" d="M86 484q0 144 66.5 255.5t179.5 170.5t246 59q112 0 204.5 -33t146.5 -94q-133 432 -686 484v149q305 -14 506.5 -149.5t295 -341t93.5 -434.5q0 -163 -61.5 -290.5t-181.5 -199.5t-287 -72q-155 0 -273 63.5t-183.5 177.5t-65.5 255zM261 484q0 -152 97 -249t250 -97 q161 0 257 100.5t96 265.5q0 98 -48 172t-128.5 113.5t-176.5 39.5q-153 0 -250 -97t-97 -248z" />
<glyph unicode="&#x2206;" horiz-adv-x="1399" d="M52 0v146l534 1317h225l534 -1317v-146h-1293zM247 165h893l-448 1111z" />
<glyph unicode="&#x220f;" horiz-adv-x="1545" d="M67 1295v168h1412v-168h-190v-1516h-182v1516h-668v-1516h-182v1516h-190z" />
<glyph unicode="&#x2211;" horiz-adv-x="1288" d="M82 -71l597 715l-556 668v151h1065v-164h-825l496 -595v-118l-548 -648h895v-159h-1124v150z" />
<glyph unicode="&#x221a;" horiz-adv-x="1212" d="M28 839l271 128l311 -756l380 1252h174l-452 -1463h-184l-321 763l-121 -59z" />
<glyph unicode="&#x221e;" horiz-adv-x="1672" d="M75 600q0 111 44 201t129 144t197 54q113 0 200.5 -59t189.5 -211q104 153 190.5 211.5t198.5 58.5q113 0 198 -54t129.5 -144.5t44.5 -200.5q0 -111 -44.5 -203t-129.5 -145t-198 -53q-112 0 -199 58t-192 213q-104 -155 -189.5 -213t-198.5 -58t-197.5 53t-128.5 145 t-44 203zM234 600q0 -116 58.5 -181.5t160.5 -65.5q79 0 143 52.5t152 192.5q-90 139 -153 192.5t-142 53.5q-100 0 -159.5 -67t-59.5 -177zM921 600q88 -140 151.5 -193.5t143.5 -53.5q102 0 160.5 65.5t58.5 181.5q0 111 -59.5 177.5t-159.5 66.5q-80 0 -144.5 -52 t-150.5 -192z" />
<glyph unicode="&#x222b;" horiz-adv-x="818" d="M62 -64h145q62 0 89 27t27 89v1132q0 142 66 210.5t213 68.5h154v-157h-144q-62 0 -89.5 -27t-27.5 -91v-1132q0 -142 -66 -209.5t-212 -67.5h-155v157z" />
<glyph unicode="&#x2248;" horiz-adv-x="1094" d="M128 171q0 142 64.5 220.5t176.5 78.5q72 0 121 -23t102 -65q39 -29 64 -42.5t56 -13.5q62 0 87.5 38.5t25.5 107.5h144q0 -142 -65 -219.5t-179 -77.5q-73 0 -121 23t-102 63q-38 30 -63 43.5t-57 13.5q-60 0 -85.5 -38.5t-25.5 -108.5h-143zM128 626q0 142 64.5 220.5 t176.5 78.5q72 0 121 -23t102 -65q39 -29 64 -42.5t56 -13.5q62 0 87.5 38.5t25.5 107.5h144q0 -142 -65 -219.5t-179 -77.5q-73 0 -121 23t-102 63q-38 30 -63 43.5t-57 13.5q-60 0 -85.5 -38.5t-25.5 -108.5h-143z" />
<glyph unicode="&#x2260;" horiz-adv-x="1094" d="M142 286v144h280l98 291h-378v146h426l67 197h150l-66 -197h234v-146h-283l-98 -291h381v-144h-431l-69 -207h-150l69 207h-230z" />
<glyph unicode="&#x2264;" horiz-adv-x="1094" d="M150 0v146h795v-146h-795zM150 612v163l795 355v-167l-602 -269l602 -270v-167z" />
<glyph unicode="&#x2265;" horiz-adv-x="1094" d="M150 0v146h795v-146h-795zM150 257v167l602 270l-602 269v167l795 -355v-163z" />
<glyph unicode="&#x25fc;" horiz-adv-x="1064" d="M0 0v1065h1065v-1065h-1065z" />
</font>
</defs>
</svg>
