<?xml version="1.0" standalone="no"?>
<!DOCTYPE svg PUBLIC "-//W3C//DTD SVG 1.1//EN" "http://www.w3.org/Graphics/SVG/1.1/DTD/svg11.dtd" >
<svg xmlns="http://www.w3.org/2000/svg" xmlns:xlink="http://www.w3.org/1999/xlink" version="1.1">
<metadata></metadata>
<defs>
<font id="guillonregular" horiz-adv-x="1109" >
<font-face units-per-em="2048" ascent="1638" descent="-410" />
<missing-glyph horiz-adv-x="451" />
<glyph horiz-adv-x="0" />
<glyph horiz-adv-x="682" />
<glyph horiz-adv-x="0" />
<glyph horiz-adv-x="0" />
<glyph unicode="&#xd;" horiz-adv-x="0" />
<glyph unicode=" "  horiz-adv-x="451" />
<glyph unicode="&#x09;" horiz-adv-x="451" />
<glyph unicode="&#xa0;" horiz-adv-x="451" />
<glyph unicode="!" horiz-adv-x="577" d="M167 103q0 51 36 88t86.5 37t86 -37t35.5 -88t-35.5 -87.5t-86 -36.5t-86.5 36.5t-36 87.5zM187 1040v458h203v-458l-21 -607h-158z" />
<glyph unicode="&#x22;" horiz-adv-x="678" d="M97 1498h190l-21 -473h-145zM392 1498h190l-21 -473h-146z" />
<glyph unicode="#" horiz-adv-x="1266" d="M59 384v164h241l46 402h-225v163h242l44 385h175l-44 -385h272l44 385h175l-44 -385h224v-163h-241l-46 -402h225v-164h-242l-44 -384h-175l44 384h-273l-44 -384h-175l44 384h-223zM475 548h272l46 402h-272z" />
<glyph unicode="$" horiz-adv-x="1260" d="M55 298l158 117q78 -126 190 -191t253 -65t221.5 64t80.5 163q0 87 -57 148.5t-192 111.5l-232 84q-163 61 -243 162t-80 235q0 97 47.5 181t140 141.5t215.5 71.5v283h179v-287q234 -36 382 -219l-140 -134q-62 80 -156.5 129t-197.5 49q-64 0 -116 -17t-85.5 -45.5 t-52 -66t-18.5 -78.5q0 -76 52.5 -131t169.5 -97l221 -82q185 -68 277 -178.5t92 -252.5q0 -77 -29 -148t-83 -127t-136.5 -94t-183.5 -49v-282h-181v285q-156 20 -281 99t-215 220z" />
<glyph unicode="%" horiz-adv-x="1800" d="M76 1143q0 77 26 146.5t72 120.5t112.5 81t144.5 30q103 0 184.5 -51t125.5 -137t44 -190q0 -76 -26 -145t-72 -120t-112.5 -81t-143.5 -30q-102 0 -184 51.5t-126.5 137t-44.5 187.5zM240 1143q0 -101 52.5 -164t138 -63t137.5 63t52 164q0 105 -52 167.5t-137.5 62.5 t-138 -63t-52.5 -167zM354 0l892 1498h201l-890 -1498h-203zM1017 354q0 103 43.5 188.5t125.5 136.5t185 51t184.5 -51t125.5 -136.5t44 -188.5t-44 -189t-125.5 -137.5t-184.5 -51.5q-102 0 -184 51.5t-126 137.5t-44 189zM1181 354q0 -102 53 -165.5t137 -63.5 q86 0 138 63t52 166t-52 165.5t-138 62.5q-42 0 -77 -16.5t-60 -46t-39 -72t-14 -93.5z" />
<glyph unicode="&#x26;" horiz-adv-x="1305" d="M87 363q0 128 69.5 228.5t214.5 191.5q-100 107 -139.5 186.5t-39.5 186.5q0 74 29.5 141.5t81 118t126.5 80t161 29.5q91 0 165.5 -29.5t122.5 -79.5t74 -114t26 -135q0 -117 -66 -206t-205 -172l-51 -32l300 -312q66 114 117 266l181 -63q-67 -194 -167 -342l185 -194 l-143 -140l-167 179q-185 -179 -414 -179q-85 0 -159 20t-129 55.5t-94.5 84.5t-59 107.5t-19.5 123.5zM284 376q0 -102 70.5 -166.5t187.5 -64.5q154 0 293 142l-346 369q-110 -68 -157.5 -134t-47.5 -146zM388 1152q0 -67 36.5 -129.5t111.5 -138.5l2 -4l72 42 q173 95 173 240q0 83 -54 137.5t-139 54.5q-87 0 -144.5 -56.5t-57.5 -145.5z" />
<glyph unicode="'" horiz-adv-x="383" d="M97 1498h190l-21 -473h-145z" />
<glyph unicode="(" horiz-adv-x="716" d="M163 630.5q0 282.5 95 536.5t284 500l126 -95q-156 -207 -236 -446.5t-80 -495t79.5 -494.5t236.5 -446l-126 -95q-190 246 -284.5 499.5t-94.5 536z" />
<glyph unicode=")" horiz-adv-x="716" d="M48 -310q157 207 237 446t80 494.5t-80 495t-237 446.5l127 95q190 -246 285 -500t95 -536.5t-95 -536t-285 -499.5z" />
<glyph unicode="*" horiz-adv-x="999" d="M118 970l253 129l-253 129l78 139l241 -156l-15 287h156l-15 -287l240 156l79 -139l-254 -129l254 -129l-79 -137l-238 154l13 -282h-156l13 282l-239 -154z" />
<glyph unicode="+" d="M149 602v175h316v330h181v-330h314v-175h-314v-332h-181v332h-316z" />
<glyph unicode="," horiz-adv-x="491" d="M82 -260l87 473h198l-137 -473h-148z" />
<glyph unicode="-" horiz-adv-x="885" d="M157 513v177h573v-177h-573z" />
<glyph unicode="." horiz-adv-x="505" d="M131 103q0 51 36 88t86 37q34 0 62 -17t44.5 -45.5t16.5 -62.5q0 -51 -36 -87.5t-87 -36.5t-86.5 36.5t-35.5 87.5z" />
<glyph unicode="/" horiz-adv-x="857" d="M8 -354l650 1972h192l-649 -1972h-193z" />
<glyph unicode="0" horiz-adv-x="1336" d="M107 749q0 363 151.5 569.5t409.5 206.5q171 0 297.5 -91.5t195.5 -267.5t69 -417q0 -363 -151.5 -570t-410 -207t-410 207t-151.5 570zM314 749q0 -281 93 -435.5t261.5 -154.5t261.5 154.5t93 435.5t-93 435.5t-261.5 154.5t-261.5 -154.5t-93 -435.5z" />
<glyph unicode="1" horiz-adv-x="741" d="M42 1061v163h95q109 0 164 42.5t64 154.5l6 77h165v-1498h-202v1061h-292z" />
<glyph unicode="2" horiz-adv-x="1099" d="M63 1067q0 103 36 189.5t98.5 145t146 91t177.5 32.5q103 0 190.5 -34t147.5 -94t94 -143t34 -179q0 -80 -25.5 -158.5t-76 -156.5t-110.5 -147.5t-147 -155.5l-272 -272h661v-185h-941v157l401 404q157 158 231.5 278.5t74.5 238.5q0 115 -70.5 188t-193.5 73 q-125 0 -193 -74.5t-68 -199.5q0 -43 10 -113l-196 6q-9 57 -9 109z" />
<glyph unicode="3" horiz-adv-x="1123" d="M30 397l194 44q33 -137 114.5 -209.5t207.5 -72.5q65 0 120 18.5t93.5 52.5t60.5 84t22 110q0 37 -8 69.5t-24 62.5t-42.5 54t-62 41.5t-84 27t-106.5 9.5h-106v160h106q65 0 116 14t83.5 37.5t54 56.5t30.5 69t9 78q0 104 -68 170t-181 66q-118 0 -194 -70t-93 -220 l-188 20q9 94 40.5 171t77.5 129.5t106 88t124.5 51.5t132.5 16q121 0 224 -54t163 -148.5t60 -207.5q0 -69 -21.5 -131.5t-66 -115t-107.5 -87.5q111 -48 171.5 -143t60.5 -216q0 -129 -64 -232t-178.5 -160.5t-258.5 -57.5q-67 0 -132 15t-127.5 48t-113.5 81.5 t-89.5 120.5t-55.5 160z" />
<glyph unicode="4" horiz-adv-x="1134" d="M30 322v180l668 996h198v-989h213v-187h-213v-322h-196v322h-670zM238 509h462v691z" />
<glyph unicode="5" horiz-adv-x="1226" d="M101 373l190 55q33 -122 124.5 -195.5t206.5 -73.5q130 0 219 91.5t89 234.5q0 147 -86.5 237t-231.5 90q-107 0 -188 -49t-120 -131l-167 34l91 832h812v-186h-639l-47 -403q60 44 137.5 67.5t154.5 23.5q143 0 255.5 -66.5t174 -183.5t61.5 -265q0 -149 -66.5 -266.5 t-183.5 -182t-265 -64.5q-197 0 -335.5 110t-185.5 291z" />
<glyph unicode="6" horiz-adv-x="1212" d="M103 515q0 120 34 244.5t87.5 228t125.5 203.5t140 173t138 134h294q-185 -134 -324.5 -296t-207.5 -322q124 94 278 94q60 0 118.5 -15.5t110.5 -44.5t96 -72.5t76 -97t50 -120.5t18 -141q0 -111 -41 -207t-111.5 -162t-165 -104t-199.5 -38q-104 0 -197.5 38.5 t-164.5 107t-113 171.5t-42 226zM310 479q0 -141 86.5 -230.5t223.5 -89.5q90 0 161 41.5t110 113t39 159.5q0 92 -38 164t-106 111t-156 39q-141 0 -230.5 -85.5t-89.5 -222.5z" />
<glyph unicode="7" horiz-adv-x="988" d="M8 1312v186h930v-110l-531 -1388h-232l530 1312h-697z" />
<glyph unicode="8" horiz-adv-x="1184" d="M76 422q0 122 63 220.5t173 156.5q-43 27 -77 62t-57.5 76t-36 88.5t-12.5 97.5q0 83 34 157.5t94.5 128.5t147 85t187.5 31t188 -31t147.5 -85t95 -128.5t34.5 -157.5q0 -101 -48.5 -185t-135.5 -139q111 -58 173.5 -156.5t62.5 -220.5q0 -94 -38 -177t-105 -143 t-164 -95t-209.5 -35t-209.5 35t-164 95t-105 143t-38 177zM280 435q0 -46 12.5 -86.5t38 -75.5t62 -60.5t88 -39.5t111.5 -14q76 0 136.5 22t98.5 60t58 87.5t20 106.5q0 44 -13.5 85t-40.5 75.5t-64.5 60.5t-87.5 40.5t-107 14.5q-70 0 -129.5 -22.5t-99 -60.5t-61.5 -88 t-22 -105zM334 1103q0 -102 71 -170t187.5 -68t188 68t71.5 170t-71.5 169t-188 67t-187.5 -67t-71 -169z" />
<glyph unicode="9" horiz-adv-x="1212" d="M76 1015q0 110 41 206t111 162.5t164.5 104t199.5 37.5q69 0 134.5 -17t122.5 -48.5t105 -79.5t82.5 -107t53.5 -133.5t19 -156.5q0 -121 -34 -245t-87.5 -228t-125 -203.5t-140 -172.5t-138.5 -134h-293q185 133 324.5 295t207.5 323q-123 -95 -279 -95q-90 0 -174.5 35 t-149.5 97t-104.5 156t-39.5 204zM282 1025q0 -140 83.5 -227t216.5 -87q141 0 231 85.5t90 222.5q0 141 -86.5 230.5t-224.5 89.5q-136 0 -223 -90t-87 -224z" />
<glyph unicode=":" horiz-adv-x="505" d="M131 103q0 51 36 88t86 37q34 0 62 -17t44.5 -45.5t16.5 -62.5q0 -51 -36 -87.5t-87 -36.5t-86.5 36.5t-35.5 87.5zM131 950q0 51 35.5 87t86.5 36t87 -36t36 -87q0 -34 -16.5 -62.5t-44.5 -45.5t-61.5 -17t-62 17t-44.5 45.5t-16 62.5z" />
<glyph unicode=";" horiz-adv-x="505" d="M76 -260l87 473h197l-136 -473h-148zM131 950q0 51 35.5 87t86.5 36t87 -36t36 -87q0 -34 -16.5 -62.5t-44.5 -45.5t-61.5 -17t-62 17t-44.5 45.5t-16 62.5z" />
<glyph unicode="&#x3c;" d="M149 610v160l797 392v-202l-573 -268l573 -266v-209z" />
<glyph unicode="=" d="M149 418v172h811v-172h-811zM149 787v173h811v-173h-811z" />
<glyph unicode="&#x3e;" d="M165 217v203l571 268l-571 266v208l795 -392v-160z" />
<glyph unicode="?" horiz-adv-x="1134" d="M103 1167q21 73 62 136.5t100 113.5t142 79t179 29q95 0 176 -30.5t136.5 -82.5t87 -123.5t31.5 -151.5q0 -52 -12 -99t-31.5 -84t-50 -73.5t-63 -65t-75.5 -60.5q-39 -30 -63 -51.5t-48.5 -52.5t-36 -67.5t-13.5 -81.5v-87h-177v94q0 68 13.5 123t41.5 97t58 71.5 t74 62.5q64 45 99.5 79.5t57 78t21.5 97.5q0 97 -64.5 159t-173.5 62q-113 0 -188.5 -62.5t-113.5 -173.5zM413 103q0 51 36 88t87 37q33 0 61.5 -17t44.5 -45.5t16 -62.5q0 -51 -36 -87.5t-86.5 -36.5t-86.5 36.5t-36 87.5z" />
<glyph unicode="@" horiz-adv-x="2176" d="M135 519q0 142 34.5 274.5t96.5 242.5t151.5 201.5t197 155t235 98t263.5 34.5q129 0 248.5 -30.5t222.5 -87.5t187.5 -142t144.5 -190.5t92.5 -236.5t32.5 -277q0 -283 -108 -442t-290 -159q-109 0 -188.5 60t-110.5 161q-56 -78 -139.5 -121.5t-189.5 -43.5 q-95 0 -177.5 38.5t-141.5 105.5t-92.5 163t-33.5 208q0 149 58 266.5t160.5 182t230.5 64.5q185 0 304 -135v108h189v-697q0 -96 38.5 -145.5t107.5 -49.5q28 0 52 8t49 26.5t44.5 52.5t35.5 80.5t24.5 115t8.5 153.5q0 185 -58 337.5t-160 255t-241 159t-300 56.5 q-173 0 -323 -66t-255 -180t-165 -270.5t-60 -333.5q0 -158 41 -293t115.5 -233.5t176.5 -168t225 -104t261 -34.5q205 0 358 46l25 -150q-180 -53 -383 -53q-136 0 -263 31.5t-237.5 89.5t-201.5 145t-156 195t-100.5 243.5t-35.5 285.5zM761 531q0 -154 80.5 -251 t204.5 -97q128 0 209.5 97t81.5 251q0 101 -37 180t-103.5 123t-150.5 44q-124 0 -204.5 -97t-80.5 -250z" />
<glyph unicode="A" horiz-adv-x="1357" d="M38 0l534 1498h215l533 -1498h-215l-127 365h-605l-126 -365h-209zM437 546h479l-241 692z" />
<glyph unicode="B" horiz-adv-x="1341" d="M173 0v1498h574q102 0 186.5 -32t139.5 -86.5t85 -125.5t30 -151q0 -100 -48 -180t-134 -132q117 -54 180.5 -151.5t63.5 -224.5q0 -84 -32.5 -159t-93 -132t-155 -90.5t-210.5 -33.5h-586zM376 187h383q136 0 210.5 67.5t74.5 180.5q0 111 -73 181t-208 70h-387v-499z M376 861h347q122 0 193 64t71 164q0 101 -69.5 162t-194.5 61h-347v-451z" />
<glyph unicode="C" horiz-adv-x="1431" d="M93 751q0 169 52 313t145 245.5t226.5 158.5t291.5 57q120 0 226 -37t187 -100t146 -152l-158 -121q-161 224 -401 224q-151 0 -267 -74t-178.5 -207.5t-62.5 -306.5q0 -130 36.5 -240t102 -187.5t160.5 -121t209 -43.5q246 0 407 227l158 -122q-100 -135 -244 -213.5 t-321 -78.5q-158 0 -291.5 58t-226.5 160t-145 246.5t-52 314.5z" />
<glyph unicode="D" horiz-adv-x="1446" d="M173 0v1498h461q348 0 534 -197.5t186 -552t-186 -551.5t-534 -197h-461zM376 187h264q252 0 379.5 146.5t127.5 415.5q0 267 -128 414t-379 147h-264v-1123z" />
<glyph unicode="E" horiz-adv-x="1233" d="M173 0v1498h940v-188h-737v-460h681v-182h-681v-481h753v-187h-956z" />
<glyph unicode="F" horiz-adv-x="1178" d="M173 0v1498h934v-188h-731v-489h675v-181h-675v-640h-203z" />
<glyph unicode="G" horiz-adv-x="1495" d="M93 751q0 169 52 313t145 245.5t226.5 158.5t291.5 57q179 0 319.5 -76t239.5 -213l-158 -121q-161 224 -404 224q-150 0 -265.5 -74t-177.5 -207.5t-62 -306.5q0 -104 23.5 -196t68 -164.5t107 -125t144 -80.5t174.5 -28q219 0 371 121v319h-393v186h588v-578 q-104 -109 -254 -171t-317 -62q-160 0 -294 57.5t-227.5 160t-145.5 247t-52 314.5z" />
<glyph unicode="H" horiz-adv-x="1484" d="M173 0v1498h203v-629h733v629h203v-1498h-203v684h-733v-684h-203z" />
<glyph unicode="I" horiz-adv-x="547" d="M173 0v1498h203v-1498h-203z" />
<glyph unicode="J" horiz-adv-x="765" d="M4 4l28 179q86 -24 153 -24q114 0 170 61.5t56 188.5v1089h203v-1091q0 -205 -103.5 -320t-307.5 -115q-98 0 -199 32z" />
<glyph unicode="K" horiz-adv-x="1282" d="M173 0v1498h203v-673l598 673h246l-655 -723l689 -775h-256l-622 705v-705h-203z" />
<glyph unicode="L" horiz-adv-x="1081" d="M173 0v1498h203v-1311h647v-187h-850z" />
<glyph unicode="M" horiz-adv-x="1699" d="M173 0v1498h196l485 -1027l477 1027h196v-1498h-196v1065l-431 -920h-101l-432 922v-1067h-194z" />
<glyph unicode="N" horiz-adv-x="1499" d="M173 0v1498h163l797 -1106v1106h194v-1498h-158l-800 1115v-1115h-196z" />
<glyph unicode="O" horiz-adv-x="1615" d="M93 749q0 169 52 313t145 246t226.5 159.5t291.5 57.5q157 0 290.5 -57t226.5 -159t145.5 -246.5t52.5 -314t-52.5 -314t-145.5 -246t-226.5 -159t-290.5 -57.5q-158 0 -291.5 57.5t-226.5 159.5t-145 246t-52 314zM300 749q0 -173 62.5 -307t178.5 -208.5t267 -74.5 t266 74t177.5 208t62.5 308q0 173 -62.5 307t-178 208.5t-266 74.5t-266.5 -74.5t-178.5 -208.5t-62.5 -307z" />
<glyph unicode="P" horiz-adv-x="1278" d="M173 0v1498h566q108 0 197.5 -37.5t148 -101.5t90 -149t31.5 -181t-31.5 -180.5t-89.5 -148t-147 -100.5t-197 -37h-365v-563h-203zM376 751h339q71 0 127 22t90.5 61t52 88.5t17.5 106.5q0 123 -75 202t-214 79h-337v-559z" />
<glyph unicode="Q" horiz-adv-x="1606" d="M93 749q0 169 52 313t145 246t226.5 159.5t291.5 57.5q157 0 290.5 -57t226.5 -159t145.5 -246.5t52.5 -313.5q0 -304 -162 -517l193 -173l-143 -154l-200 186q-174 -119 -403 -119q-158 0 -291.5 57.5t-226.5 159.5t-145 246t-52 314zM300 749q0 -173 62.5 -307 t178.5 -208.5t267 -74.5t266 74t177.5 208t62.5 308q0 173 -62.5 307t-178 208.5t-266 74.5t-266.5 -74.5t-178.5 -208.5t-62.5 -307z" />
<glyph unicode="R" horiz-adv-x="1336" d="M173 0v1498h570q111 0 203.5 -34.5t153 -93.5t93.5 -136.5t33 -164.5q0 -123 -66 -218.5t-186 -150.5q161 -88 182 -280l19 -148q9 -80 30.5 -141t60.5 -131h-215q-34 53 -53 110.5t-28 138.5l-18 152q-6 51 -21 89.5t-44 70.5t-78.5 48.5t-118.5 16.5h-314v-626h-203z M376 803h358q132 0 209.5 72t77.5 182q0 111 -77 182t-205 71h-363v-507z" />
<glyph unicode="S" horiz-adv-x="1260" d="M55 298l158 117q78 -126 190 -191t253 -65t221.5 64t80.5 163q0 87 -57 148.5t-192 111.5l-232 84q-163 61 -243 162t-80 235q0 64 21 123t62.5 109t98.5 87.5t134 58t164 20.5q148 0 271 -58.5t213 -168.5l-140 -134q-62 80 -156.5 129t-197.5 49q-64 0 -116 -17 t-85.5 -45.5t-52 -66t-18.5 -78.5q0 -76 52.5 -131t169.5 -97l221 -82q185 -68 277 -178.5t92 -252.5q0 -67 -22 -130t-65.5 -116t-104.5 -92t-143.5 -61.5t-178.5 -22.5q-189 0 -340 81.5t-255 244.5z" />
<glyph unicode="T" horiz-adv-x="1187" d="M36 1312v186h1118v-186h-458v-1312h-203v1312h-457z" />
<glyph unicode="U" horiz-adv-x="1451" d="M151 588v910h203v-920q0 -208 99 -313.5t273 -105.5t272.5 105.5t98.5 313.5v920h203v-910q0 -298 -151.5 -457t-422.5 -159q-272 0 -423.5 158.5t-151.5 457.5z" />
<glyph unicode="V" horiz-adv-x="1332" d="M38 1498h215l418 -1236l416 1236h208l-520 -1498h-216z" />
<glyph unicode="W" horiz-adv-x="1792" d="M38 1498h209l257 -1204l331 1141h125l338 -1139l254 1202h203l-338 -1498h-223l-302 1008l-293 -1008h-223z" />
<glyph unicode="X" horiz-adv-x="1278" d="M26 0l493 797l-435 701h238l324 -520l312 520h230l-433 -697l499 -801h-239l-389 622l-371 -622h-229z" />
<glyph unicode="Y" horiz-adv-x="1224" d="M4 1498h232l386 -679l378 679h222l-505 -880v-618h-202v618z" />
<glyph unicode="Z" horiz-adv-x="1202" d="M80 0v137l762 1175h-719v186h988v-133l-763 -1180h775v-185h-1043z" />
<glyph unicode="[" horiz-adv-x="581" d="M173 -405v2072h401v-171h-218v-1730h218v-171h-401z" />
<glyph unicode="\" horiz-adv-x="857" d="M8 1618h193l649 -1972h-192z" />
<glyph unicode="]" horiz-adv-x="581" d="M8 -234h218v1730h-218v171h401v-2072h-401v171z" />
<glyph unicode="^" horiz-adv-x="1439" d="M131 592l527 906h125l527 -906h-211l-382 676l-379 -676h-207z" />
<glyph unicode="_" horiz-adv-x="994" d="M0 0h996v-177h-996v177z" />
<glyph unicode="`" horiz-adv-x="332" d="M0 1525h213l121 -293h-165z" />
<glyph unicode="a" horiz-adv-x="1111" d="M78 272q0 92 48.5 166t136 123t211.5 75t275 26h30v30q0 73 -31.5 124.5t-85.5 76.5t-124 25q-80 0 -157.5 -33.5t-142.5 -101.5l-129 113q81 90 192.5 141.5t242.5 51.5q97 0 174.5 -25t134 -75.5t87 -132.5t30.5 -192v-664h-183v147q-58 -75 -161 -125t-217 -50 q-91 0 -165 34t-120 103t-46 163zM276 284q0 -71 48.5 -111t128.5 -40q41 0 85 12t87 36.5t77.5 59t55.5 83.5t21 104v85h-26q-79 0 -145.5 -7.5t-114.5 -20t-86 -30.5t-62.5 -38t-40 -43t-22 -45t-6.5 -45z" />
<glyph unicode="b" horiz-adv-x="1264" d="M159 0v1498h193v-578q61 80 149.5 124.5t198.5 44.5q104 0 194.5 -41t155.5 -114t102.5 -177.5t37.5 -227.5q0 -96 -24 -182.5t-68.5 -154.5t-104.5 -117.5t-136 -76t-161 -26.5q-114 0 -204 47.5t-150 134.5v-154h-183zM340 529q0 -66 15.5 -125.5t45 -106t70 -81 t91.5 -53t109 -18.5q138 0 229.5 107.5t91.5 276.5q0 171 -91.5 280t-229.5 109q-146 0 -238.5 -108t-92.5 -281z" />
<glyph unicode="c" horiz-adv-x="1069" d="M76 531q0 121 39.5 225t108 177t164.5 114.5t207 41.5q135 0 241.5 -62t182.5 -173l-152 -95q-54 76 -124.5 116.5t-150.5 40.5q-143 0 -230.5 -106.5t-87.5 -278.5t87.5 -279t230.5 -107q81 0 154 41t127 116l152 -95q-79 -111 -187.5 -173t-242.5 -62q-89 0 -168.5 26 t-143.5 75.5t-110.5 117.5t-71.5 155t-25 185z" />
<glyph unicode="d" horiz-adv-x="1264" d="M76 531q0 97 24 183.5t68.5 154.5t104.5 117.5t136 76t161 26.5q108 0 196 -43.5t148 -123.5v576h193v-1498h-183v154q-30 -41 -67 -74t-82 -57.5t-98 -37.5t-112 -13q-104 0 -194 41t-155 114t-102.5 177.5t-37.5 226.5zM274 531q0 -171 91.5 -279.5t231.5 -108.5 q145 0 237 108t92 280q0 168 -92.5 276.5t-236.5 108.5q-140 0 -231.5 -107.5t-91.5 -277.5z" />
<glyph unicode="e" horiz-adv-x="1140" d="M76 531q0 97 25 183.5t70.5 154.5t108.5 117.5t142 76t166 26.5q143 0 252 -71t167 -195t58 -281v-63h-793q14 -151 102.5 -244.5t220.5 -93.5q82 0 157 43t134 124l152 -95q-52 -75 -117.5 -128t-148.5 -83t-177 -30q-112 0 -208 41t-164.5 114t-107.5 177.5t-39 226.5z M276 622h591q-15 140 -88 220t-193 80q-83 0 -148.5 -37t-106.5 -104t-55 -159z" />
<glyph unicode="f" horiz-adv-x="660" d="M38 903v158h147v95q0 82 21 148.5t62.5 116.5t108 77t152.5 27q65 0 144 -17l-19 -166q-56 12 -106 12q-168 0 -168 -196v-97h260v-158h-260v-903h-195v903h-147z" />
<glyph unicode="g" horiz-adv-x="1113" d="M48 -167q0 135 129 230q-41 35 -63.5 81.5t-22.5 95.5q0 63 37.5 119t105.5 92q-99 102 -99 254q0 108 56 196.5t152 138t212 49.5q149 0 264 -81q40 64 109 96q53 25 116 25q18 0 36 -2l-9 -157q-12 1 -24 1q-39 0 -70 -13q-40 -17 -59 -53q58 -87 58 -200 q0 -108 -55.5 -196t-152 -137.5t-213.5 -49.5q-115 0 -209 47q-41 -16 -64.5 -44t-23.5 -61q0 -47 41.5 -73t120.5 -26h272q81 0 151 -19.5t123 -56t83.5 -95t30.5 -131.5q0 -108 -69 -184.5t-185.5 -113t-270.5 -36.5q-232 0 -369.5 81.5t-137.5 222.5zM230 -143 q0 -60 45.5 -100.5t119 -57.5t170.5 -17q71 0 127 9.5t100 29.5t68 54.5t24 81.5t-31.5 79.5t-79.5 46t-109 13.5h-274q-41 0 -72 6q-88 -61 -88 -145zM320 702q0 -94 67.5 -158.5t169.5 -64.5q66 0 120 29.5t84 81t30 112.5q0 95 -66.5 159.5t-167.5 64.5 q-50 0 -94.5 -17.5t-75.5 -47.5t-49 -71t-18 -88z" />
<glyph unicode="h" horiz-adv-x="1210" d="M159 0v1498h193v-595q47 85 132.5 135.5t194.5 50.5q45 0 87.5 -9t81 -26.5t71.5 -43t59.5 -61t45.5 -78.5t29 -96t10 -113v-662h-194v624q0 92 -27.5 155.5t-80.5 95.5t-129 32q-81 0 -144 -39.5t-99.5 -116.5t-36.5 -181v-570h-193z" />
<glyph unicode="i" horiz-adv-x="509" d="M133 1403q0 51 35.5 86.5t86.5 35.5t87 -35.5t36 -86.5t-36 -88t-87 -37q-33 0 -61 17t-44.5 45.5t-16.5 62.5zM159 0v1061h193v-1061h-193z" />
<glyph unicode="j" horiz-adv-x="509" d="M-101 -457l17 168q39 -11 86 -11q157 0 157 179v1182h193v-1179q0 -164 -83.5 -258.5t-249.5 -94.5q-37 0 -120 14zM133 1403q0 51 35.5 86.5t86.5 35.5t87 -35.5t36 -86.5t-36 -88t-87 -37q-33 0 -61 17t-44.5 45.5t-16.5 62.5z" />
<glyph unicode="k" horiz-adv-x="1058" d="M159 0v1498h193v-886l418 449h238l-481 -510l513 -551h-253l-435 479v-479h-193z" />
<glyph unicode="l" horiz-adv-x="509" d="M159 0v1498h193v-1498h-193z" />
<glyph unicode="m" horiz-adv-x="1786" d="M159 0v1061h185v-152q49 81 129.5 130.5t176.5 49.5q106 0 187.5 -55.5t116.5 -151.5q40 96 127 151.5t187 55.5q75 0 141 -27.5t117.5 -79t82 -134t30.5 -186.5v-662h-194v634q0 131 -52.5 201t-150.5 70q-110 0 -178 -86.5t-68 -232.5v-586h-195v634q0 131 -51.5 201 t-150.5 70q-112 0 -179.5 -87t-67.5 -244v-574h-193z" />
<glyph unicode="n" horiz-adv-x="1210" d="M159 0v1061h185v-177q46 93 133 149t202 56q45 0 87.5 -9t81 -26.5t71.5 -43t59.5 -61t45.5 -78.5t29 -96t10 -113v-662h-194v624q0 92 -27.5 155.5t-80.5 95.5t-129 32q-81 0 -144 -39.5t-99.5 -116.5t-36.5 -181v-570h-193z" />
<glyph unicode="o" horiz-adv-x="1193" d="M76 531q0 81 18 155t50.5 135t79.5 111.5t104 84.5t126 53t143 19q111 0 207.5 -41.5t165.5 -114.5t108.5 -177t39.5 -225q0 -81 -18 -156t-50.5 -136t-79.5 -111t-104.5 -84.5t-125.5 -53t-143 -18.5q-112 0 -208.5 41t-165 114t-108 177.5t-39.5 226.5zM274 531 q0 -173 90 -281.5t233 -108.5q144 0 232.5 108t88.5 282q0 113 -40 201.5t-113 138t-168 49.5q-143 0 -233 -108.5t-90 -280.5z" />
<glyph unicode="p" horiz-adv-x="1264" d="M159 -443v1504h183v-154q61 86 152 134t206 48q104 0 194.5 -41t155.5 -114t102.5 -177.5t37.5 -227.5q0 -96 -24 -182.5t-68.5 -154.5t-104.5 -117.5t-136 -76t-161 -26.5q-109 0 -196.5 43.5t-147.5 123.5v-582h-193zM340 529q0 -66 15.5 -125.5t45 -106t70 -81 t91.5 -53t109 -18.5q138 0 229.5 107.5t91.5 276.5q0 171 -91.5 280t-229.5 109q-146 0 -238.5 -108t-92.5 -281z" />
<glyph unicode="q" horiz-adv-x="1264" d="M76 531q0 97 24 183.5t68.5 154.5t104.5 117.5t136 76t161 26.5q114 0 204 -47t150 -135v154h183v-1504h-193v584q-61 -80 -149.5 -124.5t-199.5 -44.5q-104 0 -194 41t-155 114t-102.5 177.5t-37.5 226.5zM274 531q0 -171 91.5 -279.5t231.5 -108.5q145 0 237 108 t92 280q0 168 -92.5 276.5t-236.5 108.5q-140 0 -231.5 -107.5t-91.5 -277.5z" />
<glyph unicode="r" horiz-adv-x="729" d="M159 0v1061h185v-181q43 97 139.5 153t225.5 56l-7 -191q-166 -3 -258 -86t-92 -240v-572h-193z" />
<glyph unicode="s" horiz-adv-x="980" d="M53 217l141 103q65 -94 144 -136.5t181 -42.5q96 0 150 40t54 101q0 35 -17 63t-56 52t-99 42l-152 46q-133 41 -203.5 120.5t-70.5 183.5q0 59 26 113.5t72.5 96t115.5 66t150 24.5q123 0 223 -52.5t159 -131.5l-135 -112q-42 56 -105.5 91.5t-137.5 35.5 q-82 0 -129.5 -37.5t-47.5 -93.5q0 -100 143 -139l165 -48q144 -44 218 -125t74 -188q0 -65 -27.5 -123t-78 -101t-125.5 -68t-166 -25q-156 0 -273 65t-193 180z" />
<glyph unicode="t" horiz-adv-x="735" d="M30 903v158h171v344h193v-344h296v-158h-296v-555q0 -108 45 -156.5t133 -48.5q43 0 99 14l19 -167q-75 -18 -137 -18q-175 0 -263.5 101t-88.5 277v553h-171z" />
<glyph unicode="u" horiz-adv-x="1191" d="M135 399v662h194v-624q0 -138 61 -210.5t175 -72.5q126 0 203.5 90t77.5 247v570h194v-1061h-186v163q-46 -88 -131.5 -139.5t-199.5 -51.5q-81 0 -150.5 27t-123 79t-84 134.5t-30.5 186.5z" />
<glyph unicode="v" horiz-adv-x="1045" d="M21 1061h211l295 -823l296 823h202l-403 -1061h-198z" />
<glyph unicode="w" horiz-adv-x="1453" d="M32 1061h202l201 -823l217 783h149l224 -785l205 825h191l-280 -1061h-207l-208 682l-207 -682h-207z" />
<glyph unicode="x" horiz-adv-x="1028" d="M21 0l380 561l-338 500h231l233 -346l226 346h213l-336 -500l378 -561h-227l-277 407l-272 -407h-211z" />
<glyph unicode="y" horiz-adv-x="1045" d="M21 1061h211l295 -823l296 823h202l-566 -1504h-197l173 447z" />
<glyph unicode="z" horiz-adv-x="948" d="M59 0v105l571 798h-535v158h795v-105l-570 -797h566v-159h-827z" />
<glyph unicode="{" horiz-adv-x="670" d="M143 565v131q63 12 99 57t36 127q0 80 -8 232t-8 242q0 136 71 221t230 130l49 -149q-96 -37 -130.5 -86t-34.5 -147v-441q0 -65 -13 -111.5t-41 -80.5t-75 -60q70 -37 99.5 -95t29.5 -155v-441q0 -98 34.5 -147.5t130.5 -87.5l-49 -147q-107 30 -174 79t-97 115t-30 156 t8 242t8 233q0 82 -36 127t-99 56z" />
<glyph unicode="|" horiz-adv-x="529" d="M173 -354v1972h183v-1972h-183z" />
<glyph unicode="}" horiz-adv-x="670" d="M59 -296q96 38 130.5 87.5t34.5 147.5v441q0 97 29.5 155t98.5 95q-46 26 -74.5 60t-41 80.5t-12.5 111.5v441q0 98 -34.5 147t-130.5 86l48 149q159 -45 230.5 -130t71.5 -221q0 -90 -8.5 -242t-8.5 -232q0 -82 36.5 -127t98.5 -57v-131q-62 -11 -98.5 -56t-36.5 -127 q0 -81 8.5 -233t8.5 -242q0 -135 -71.5 -220t-230.5 -130z" />
<glyph unicode="~" horiz-adv-x="1497" d="M173 559q3 172 91 276.5t238 104.5q64 0 123.5 -23.5t104.5 -57t86.5 -67.5t88.5 -57.5t93 -23.5q71 0 112.5 51.5t41.5 146.5h173q-2 -67 -16.5 -126t-43 -105.5t-67.5 -80.5t-90.5 -52t-111.5 -18q-65 0 -124 24t-104 57.5t-87 67.5t-88.5 57.5t-92.5 23.5 q-70 0 -112 -51.5t-42 -146.5h-173z" />
<glyph unicode="&#xa1;" horiz-adv-x="577" d="M167 952q0 33 16.5 61.5t44.5 45t61 16.5q51 0 86.5 -36t35.5 -87.5t-35.5 -88t-86 -36.5t-86.5 37t-36 88zM187 14l22 608h158l23 -608v-457h-203v457z" />
<glyph unicode="&#xa2;" horiz-adv-x="1069" d="M76 531q0 217 116.5 366.5t304.5 182.5v291h182v-288q206 -34 340 -229l-152 -95q-54 76 -124.5 116.5t-150.5 40.5q-143 0 -230.5 -106.5t-87.5 -278.5t87.5 -279t230.5 -107q81 0 154 41t127 116l152 -95q-138 -194 -346 -228v-285h-182v287q-188 34 -304.5 183.5 t-116.5 366.5z" />
<glyph unicode="&#xa3;" horiz-adv-x="1151" d="M107 0v143q80 80 121.5 172t45.5 216h-160v171h141q-10 40 -38 109.5t-44 131.5t-16 132q0 127 55.5 229t160 161.5t237.5 59.5q123 0 223 -51.5t160.5 -149.5t65.5 -227l-192 -17q0 78 -28.5 136t-86 90.5t-138.5 32.5q-78 0 -136 -34.5t-88 -96.5t-30 -143 q0 -55 14.5 -114t38 -130.5t34.5 -118.5h358v-171h-343q-8 -187 -118 -346h729v-185h-966z" />
<glyph unicode="&#xa5;" horiz-adv-x="1224" d="M4 1498h236l382 -610l374 610h226l-435 -695h280v-171h-350v-170h350v-173h-350v-289h-202v289h-346v173h346v170h-346v171h276z" />
<glyph unicode="&#xa8;" horiz-adv-x="640" d="M0 1377q0 47 32.5 80.5t79.5 33.5q46 0 79 -33.5t33 -80.5q0 -30 -15 -56t-41 -41.5t-56 -15.5t-56 15.5t-41 41.5t-15 56zM420 1379q0 47 32 79.5t79 32.5q46 0 78.5 -32.5t32.5 -79.5q0 -22 -9 -43.5t-23.5 -37t-35 -25t-43.5 -9.5q-46 0 -78.5 34.5t-32.5 80.5z" />
<glyph unicode="&#xa9;" horiz-adv-x="1796" d="M135 748.5q0 162.5 59 307t160.5 247.5t243 162.5t300.5 59.5q160 0 302 -59.5t244 -162.5t161 -247.5t59 -306.5q0 -130 -37.5 -249.5t-107.5 -214.5t-164 -166t-211.5 -109t-245.5 -38q-159 0 -300.5 60t-243 163t-160.5 247t-59 306.5zM298 749q0 -104 29 -199.5 t83.5 -172t127.5 -133t166 -87t194 -30.5q127 0 239 48t192 130.5t126.5 198t46.5 245.5t-46.5 245.5t-126.5 198t-192 130.5t-239 48t-238.5 -48t-191 -130.5t-125 -198t-45.5 -245.5zM521 751q0 123 52 220.5t142 150.5t201 53q204 0 324 -175l-117 -78q-79 114 -209 114 q-104 0 -169.5 -79t-65.5 -206q0 -85 30 -150.5t83.5 -100.5t121.5 -35q126 0 215 113l117 -78q-132 -176 -330 -176q-83 0 -156 31.5t-125.5 87t-83 135.5t-30.5 173z" />
<glyph unicode="&#xaa;" horiz-adv-x="721" d="M57 978q0 117 115.5 184.5t320.5 67.5v12q0 67 -38.5 105.5t-108.5 38.5q-43 0 -92.5 -16.5t-92.5 -51.5l-81 108q53 42 124.5 68.5t153.5 26.5q288 0 288 -304v-412h-146v75q-38 -40 -99 -67.5t-125 -27.5q-44 0 -83.5 13.5t-70 38t-48 61.5t-17.5 80zM211 994 q0 -38 26 -60t65 -22q44 0 87 18.5t73.5 56.5t30.5 86v42q-282 0 -282 -121z" />
<glyph unicode="&#xab;" horiz-adv-x="1231" d="M89 527v125l479 397v-214l-306 -243l306 -244v-217zM622 527v125l479 397v-214l-306 -243l306 -244v-217z" />
<glyph unicode="&#xac;" d="M149 604v173h811v-490h-183v317h-628z" />
<glyph unicode="&#xad;" horiz-adv-x="885" d="M157 513v177h573v-177h-573z" />
<glyph unicode="&#xae;" horiz-adv-x="1278" d="M103 990q0 110 43 209.5t115 171t171 113t207.5 41.5t207.5 -41.5t171 -113t114.5 -171t42.5 -209.5q0 -109 -42.5 -208t-114.5 -170.5t-171 -114t-207.5 -42.5t-207.5 42.5t-171 114t-115 170.5t-43 208zM219 990q0 -115 56.5 -212.5t153.5 -153.5t211 -56q57 0 111 15 t100 42t85 66t66 85.5t42 101t15 112.5q0 87 -33 165.5t-89.5 135.5t-134 90.5t-162.5 33.5q-114 0 -211 -56.5t-153.5 -154.5t-56.5 -214zM439 723v551h211q63 0 110 -24t69.5 -62.5t22.5 -84.5q0 -32 -11 -60t-32 -49.5t-50 -35.5q41 -33 58 -95l10 -48q8 -35 17 -53.5 t27 -38.5h-120q-25 32 -36 78l-8 45q-11 37 -30.5 56.5t-58.5 19.5h-67v-199h-112zM551 1019h101q43 0 65 21.5t22 54.5t-24.5 54.5t-68.5 21.5h-95v-152z" />
<glyph unicode="&#xb1;" d="M149 258v175h316v251h-316v175h316v274h181v-274h314v-175h-314v-251h314v-175h-811z" />
<glyph unicode="&#xb4;" horiz-adv-x="332" d="M0 1232l121 293h213l-169 -293h-165z" />
<glyph unicode="&#xb5;" horiz-adv-x="1250" d="M159 -443v1504h181v-618q0 -92 28.5 -155.5t82.5 -95t131 -31.5q123 0 198.5 89.5t75.5 246.5v564h182v-770q0 -156 122 -156q31 0 78 8l18 -157q-49 -14 -111 -14q-108 0 -175.5 49.5t-96.5 139.5q-44 -88 -124.5 -138.5t-180.5 -50.5q-72 0 -134.5 28.5t-104.5 79.5 l11 -523h-181z" />
<glyph unicode="&#xb8;" horiz-adv-x="364" d="M0 -431l48 99q49 -26 103 -26q25 0 44 7.5t29 21.5t10 33q0 15 -5.5 27.5t-15.5 21.5t-25 14t-34 5q-36 0 -72 -12l-50 65l103 203h127l-83 -153q80 0 133 -46t53 -125q0 -77 -54.5 -126t-149.5 -49q-91 0 -161 40z" />
<glyph unicode="&#xba;" horiz-adv-x="809" d="M57 1151.5q0 107.5 46 192.5t125 131t177 46q73 0 137 -27t110.5 -75t73.5 -117.5t27 -150t-27 -149.5t-73.5 -116.5t-110.5 -74t-137 -26.5q-98 0 -177 45.5t-125 129.5t-46 191.5zM215 1152q0 -102 54.5 -168t135.5 -66t136.5 66t55.5 168q0 68 -25.5 122t-69.5 83 t-97 29q-81 0 -135.5 -65.5t-54.5 -168.5z" />
<glyph unicode="&#xbb;" horiz-adv-x="1231" d="M131 131v213l306 242l-306 245v218l479 -397v-125zM664 131v213l306 242l-306 245v218l479 -397v-125z" />
<glyph unicode="&#xbf;" horiz-adv-x="1134" d="M118 -82q0 52 12 99t31.5 84t50.5 73.5t63 64.5t75 61q39 30 63 51.5t48.5 52.5t36 67.5t13.5 81.5v87h177v-94q0 -40 -5 -75.5t-13.5 -64t-22.5 -55t-29 -47t-35.5 -41.5t-39.5 -37t-43 -34q-64 -45 -99.5 -79.5t-57 -78.5t-21.5 -97q0 -97 65 -159t174 -62 q77 0 137.5 30t100 81.5t64.5 124.5l168 -64q-21 -73 -61.5 -136.5t-100 -114t-142.5 -79.5t-179 -29q-95 0 -175.5 30.5t-136 83t-87 123.5t-31.5 152zM477 952q0 33 16.5 61.5t44.5 45t61 16.5q51 0 86.5 -36t35.5 -87.5t-35.5 -88t-86 -36.5t-86.5 37t-36 88z" />
<glyph unicode="&#xf7;" d="M149 604v173h811v-173h-811zM433 327q0 52 35.5 88t86.5 36t86.5 -36t35.5 -88q0 -34 -16 -62t-44 -44t-61.5 -16t-62 16t-44.5 44t-16 62zM433 1053q0 51 35.5 86.5t86.5 35.5q34 0 62 -16t44 -44.5t16 -61.5q0 -35 -16 -63.5t-44 -45t-62 -16.5q-25 0 -47.5 9.5 t-39 26.5t-26 40t-9.5 49z" />
<glyph unicode="&#x192;" horiz-adv-x="660" d="M-76 -453l17 166q52 -13 101 -13q47 0 78 18t48 58t17 103v1024h-147v158h147v95q0 82 21 148.5t62.5 116.5t108 77t152.5 27q65 0 144 -17l-19 -166q-56 12 -106 12q-168 0 -168 -196v-97h260v-158h-260v-1021q0 -163 -80.5 -258t-240.5 -95q-63 0 -135 18z" />
<glyph unicode="&#x2c6;" horiz-adv-x="588" d="M0 1232l199 293h191l198 -293h-166l-126 156l-129 -156h-167z" />
<glyph unicode="&#x2da;" horiz-adv-x="431" d="M0 1411q0 88 63 147.5t154 59.5q90 0 153 -60t63 -147q0 -58 -29 -105.5t-78.5 -74.5t-108.5 -27t-109 27.5t-79 75t-29 104.5zM123 1411q0 -40 27 -67.5t67 -27.5t67.5 28t27.5 67t-27.5 67t-67.5 28t-67 -27.5t-27 -67.5z" />
<glyph unicode="&#x2dc;" horiz-adv-x="676" d="M0 1298q3 105 61.5 166t141.5 61q28 0 53.5 -6t46 -16t39 -22t35 -24t32 -21.5t32.5 -16t34 -6.5q19 0 35 10t26 29.5t10 45.5h131q-3 -105 -61.5 -166.5t-140.5 -61.5q-38 0 -72.5 11.5t-59.5 28t-47.5 32.5t-46.5 27.5t-46 11.5q-30 0 -51 -22.5t-21 -60.5h-131z" />
<glyph unicode="&#x3c0;" horiz-adv-x="1113" d="M70 867v194h968v-194h-160v-601q0 -69 28.5 -99t87.5 -30q30 0 69 6l20 -159q-63 -12 -105 -12q-72 0 -126 21t-86.5 59.5t-48 88.5t-15.5 112v614h-299l-79 -867h-181l78 867h-151z" />
<glyph unicode="&#x2000;" horiz-adv-x="902" />
<glyph unicode="&#x2001;" horiz-adv-x="1804" />
<glyph unicode="&#x2002;" horiz-adv-x="902" />
<glyph unicode="&#x2003;" horiz-adv-x="1804" />
<glyph unicode="&#x2004;" horiz-adv-x="601" />
<glyph unicode="&#x2005;" horiz-adv-x="451" />
<glyph unicode="&#x2006;" horiz-adv-x="300" />
<glyph unicode="&#x2007;" horiz-adv-x="300" />
<glyph unicode="&#x2008;" horiz-adv-x="225" />
<glyph unicode="&#x2009;" horiz-adv-x="360" />
<glyph unicode="&#x200a;" horiz-adv-x="100" />
<glyph unicode="&#x2010;" horiz-adv-x="885" d="M157 513v177h573v-177h-573z" />
<glyph unicode="&#x2011;" horiz-adv-x="885" d="M157 513v177h573v-177h-573z" />
<glyph unicode="&#x2012;" horiz-adv-x="885" d="M157 513v177h573v-177h-573z" />
<glyph unicode="&#x2013;" horiz-adv-x="1244" d="M157 513v177h932v-177h-932z" />
<glyph unicode="&#x2014;" horiz-adv-x="1518" d="M50 513v177h1418v-177h-1418z" />
<glyph unicode="&#x2018;" horiz-adv-x="415" d="M65 1025l138 473h147l-86 -473h-199z" />
<glyph unicode="&#x2019;" horiz-adv-x="415" d="M65 1025l86 473h199l-137 -473h-148z" />
<glyph unicode="&#x201a;" horiz-adv-x="415" d="M65 -260l86 473h199l-137 -473h-148z" />
<glyph unicode="&#x201c;" horiz-adv-x="727" d="M65 1025l138 473h147l-86 -473h-199zM378 1025l137 473h147l-86 -473h-198z" />
<glyph unicode="&#x201d;" horiz-adv-x="727" d="M65 1025l86 473h199l-137 -473h-148zM378 1025l87 473h197l-137 -473h-147z" />
<glyph unicode="&#x201e;" horiz-adv-x="727" d="M65 -260l86 473h199l-137 -473h-148zM378 -260l87 473h197l-137 -473h-147z" />
<glyph unicode="&#x2022;" horiz-adv-x="718" d="M151 606q0 86 61.5 147.5t147.5 61.5t147 -61.5t61 -148t-61 -149t-147 -62.5q-42 0 -81 17.5t-67 46t-44.5 67t-16.5 81.5z" />
<glyph unicode="&#x2026;" horiz-adv-x="1442" d="M131 103q0 51 36 88t86 37q34 0 62 -17t44.5 -45.5t16.5 -62.5q0 -51 -36 -87.5t-87 -36.5t-86.5 36.5t-35.5 87.5zM599 103q0 51 35.5 88t86.5 37q33 0 61.5 -17t45 -45.5t16.5 -62.5q0 -51 -36 -87.5t-87 -36.5t-86.5 36.5t-35.5 87.5zM1067 103q0 51 36 88t86.5 37 t86.5 -37t36 -88t-35.5 -87.5t-86.5 -36.5t-87 36.5t-36 87.5z" />
<glyph unicode="&#x202f;" horiz-adv-x="360" />
<glyph unicode="&#x2030;" horiz-adv-x="2583" d="M76 1143q0 77 26 146.5t72 120.5t112.5 81t144.5 30q103 0 184.5 -51t125.5 -137t44 -190q0 -76 -26 -145t-72 -120t-112.5 -81t-143.5 -30q-102 0 -184 51.5t-126.5 137t-44.5 187.5zM240 1143q0 -101 52.5 -164t138 -63t137.5 63t52 164q0 105 -52 167.5t-137.5 62.5 t-138 -63t-52.5 -167zM354 0l892 1498h201l-890 -1498h-203zM1017 354q0 103 43.5 188.5t125.5 136.5t185 51t184.5 -51t125.5 -136.5t44 -188.5t-44 -189t-125.5 -137.5t-184.5 -51.5q-102 0 -184 51.5t-126 137.5t-44 189zM1181 354q0 -102 53 -165.5t137 -63.5 q86 0 138 63t52 166t-52 165.5t-138 62.5q-42 0 -77 -16.5t-60 -46t-39 -72t-14 -93.5zM1818 354q0 77 26 145.5t71.5 119.5t112.5 81t144 30q103 0 185 -51t126.5 -136.5t44.5 -188.5t-44.5 -189t-126.5 -137.5t-185 -51.5q-102 0 -183.5 51.5t-126 137.5t-44.5 189z M1983 354q0 -102 52.5 -165.5t136.5 -63.5q86 0 138.5 63t52.5 166t-52.5 165.5t-138.5 62.5q-55 0 -98.5 -28t-67 -80t-23.5 -120z" />
<glyph unicode="&#x2039;" horiz-adv-x="697" d="M89 527v125l479 397v-214l-306 -243l306 -244v-217z" />
<glyph unicode="&#x203a;" horiz-adv-x="697" d="M131 131v213l306 242l-306 245v218l479 -397v-125z" />
<glyph unicode="&#x2044;" horiz-adv-x="1170" d="M0 0l972 1498h199l-972 -1498h-199z" />
<glyph unicode="&#x205f;" horiz-adv-x="451" />
<glyph unicode="&#x20ac;" horiz-adv-x="1482" d="M30 487v173h210q-4 60 -4 91q0 54 2 80h-208v171h238q66 240 243 381.5t423 141.5q150 0 273.5 -54t209.5 -146l-124 -139q-44 46 -96.5 79t-121 53.5t-143.5 20.5q-158 0 -276 -90.5t-173 -246.5h551v-171h-587q-4 -51 -4 -80q0 -31 4 -91h587v-173h-547 q57 -153 173.5 -240.5t271.5 -87.5q114 0 206.5 41.5t159.5 113.5l123 -139q-86 -92 -212 -147.5t-275 -55.5q-243 0 -419.5 140t-242.5 375h-242z" />
<glyph unicode="&#x2122;" horiz-adv-x="1830" d="M30 1350v148h672v-148h-255v-755h-160v755h-257zM848 595v903h150l270 -576l264 576h147v-903h-158v546l-219 -477h-76l-218 477v-546h-160z" />
<glyph unicode="&#x2202;" horiz-adv-x="1199" d="M91 457q0 106 38 198.5t101 154.5t144.5 97t169.5 35q96 0 183 -36.5t140 -102.5q-42 136 -126 243t-204 180t-269 107l48 192q114 -24 214.5 -71.5t178 -109t142 -137t109.5 -156.5t75.5 -167.5t45 -170.5t14.5 -165q0 -170 -62 -300.5t-178 -203t-269 -72.5 q-99 0 -189.5 35.5t-158 97.5t-107.5 154t-40 198zM291 457q0 -136 83.5 -225t217.5 -89q136 0 219 92t83 234q0 135 -82.5 219t-216.5 84q-135 0 -219.5 -88t-84.5 -227z" />
<glyph unicode="&#x2206;" horiz-adv-x="1294" d="M38 0l504 1498h213l503 -1498h-1220zM306 181h679l-341 1047z" />
<glyph unicode="&#x220f;" horiz-adv-x="1429" d="M173 0v1498h1085v-1498h-203v1312h-679v-1312h-203z" />
<glyph unicode="&#x2211;" horiz-adv-x="1178" d="M80 0v149l510 614l-493 572v163h970v-178h-698l424 -489v-118l-437 -528h743v-185h-1019z" />
<glyph unicode="&#x221a;" horiz-adv-x="1266" d="M0 892v169h392l270 -818l421 1255h201l-527 -1498h-198l-319 892h-240z" />
<glyph unicode="&#x221e;" horiz-adv-x="1594" d="M82 692q0 109 53 199.5t141.5 141t192.5 50.5q80 0 147.5 -29.5t116.5 -80t84 -121.5q40 103 130.5 167t201.5 64q73 0 139.5 -29.5t116 -80t78.5 -124t29 -157.5q0 -109 -52.5 -199t-141 -140.5t-191.5 -50.5q-119 0 -207.5 61t-138.5 168q-26 -67 -75.5 -119t-117 -81 t-141.5 -29q-58 0 -113 18t-100 53t-79.5 82t-53.5 108.5t-19 128.5zM262 692q0 -93 54.5 -157t148.5 -64q86 0 153.5 64t86.5 155l-32 63q-72 159 -206 159q-28 0 -54.5 -7.5t-49 -21.5t-41.5 -34t-32.5 -44t-20.5 -53t-7 -60zM890 696l32 -66q71 -157 207 -157 q56 0 103 28t74 78.5t27 112.5q0 94 -54 158t-148 64q-86 0 -153.5 -63.5t-87.5 -154.5z" />
<glyph unicode="&#x222b;" horiz-adv-x="781" d="M70 -455l19 159q39 -10 86 -10q129 0 129 155v1368q0 143 71 225.5t217 82.5q61 0 121 -15l-17 -160q-43 11 -86 11q-131 0 -131 -155v-1369q0 -142 -71.5 -225t-217.5 -83q-56 0 -120 16z" />
<glyph unicode="&#x2248;" d="M149 397v175q95 62 211 62q26 0 51.5 -3.5t47.5 -9t45.5 -13t45 -15.5t46 -15.5t47.5 -13.5t50.5 -9.5t55.5 -3.5q111 0 211 63v-175q-95 -63 -211 -63q-47 0 -98.5 13t-90.5 28.5t-93.5 28.5t-106.5 13q-110 0 -211 -62zM149 763v177q97 64 211 64q47 0 99 -13t91 -29 t93 -29t106 -13q111 0 211 63v-178q-95 -62 -211 -62q-47 0 -98.5 13t-90.5 29t-93.5 29t-106.5 13q-109 0 -211 -64z" />
<glyph unicode="&#x2260;" d="M149 418v172h250l118 197h-368v173h475l131 215h195l-131 -215h141v-173h-249l-119 -197h368v-172h-475l-131 -215h-193l130 215h-142z" />
<glyph unicode="&#x2264;" d="M165 219v175h781v-175h-781zM165 715v188l781 266v-186l-558 -173l558 -173v-190z" />
<glyph unicode="&#x2265;" d="M165 219v175h781v-175h-781zM165 447v185l556 173l-556 173v191l781 -266v-188z" />
<glyph unicode="&#x25fc;" horiz-adv-x="1065" d="M0 0v1065h1065v-1065h-1065z" />
</font>
</defs>
</svg>
